%TF.GenerationSoftware,KiCad,Pcbnew,8.0.3-8.0.3-0~ubuntu22.04.1*%
%TF.CreationDate,2024-07-16T20:32:57+02:00*%
%TF.ProjectId,VCA_Panner,5643415f-5061-46e6-9e65-722e6b696361,rev?*%
%TF.SameCoordinates,Original*%
%TF.FileFunction,Legend,Bot*%
%TF.FilePolarity,Positive*%
%FSLAX46Y46*%
G04 Gerber Fmt 4.6, Leading zero omitted, Abs format (unit mm)*
G04 Created by KiCad (PCBNEW 8.0.3-8.0.3-0~ubuntu22.04.1) date 2024-07-16 20:32:57*
%MOMM*%
%LPD*%
G01*
G04 APERTURE LIST*
%ADD10C,0.150000*%
%ADD11C,0.203200*%
%ADD12C,0.200000*%
%ADD13C,0.100000*%
%ADD14C,0.120000*%
%ADD15C,1.000000*%
G04 APERTURE END LIST*
D10*
X115892119Y-146657142D02*
X115415928Y-146323809D01*
X115892119Y-146085714D02*
X114892119Y-146085714D01*
X114892119Y-146085714D02*
X114892119Y-146466666D01*
X114892119Y-146466666D02*
X114939738Y-146561904D01*
X114939738Y-146561904D02*
X114987357Y-146609523D01*
X114987357Y-146609523D02*
X115082595Y-146657142D01*
X115082595Y-146657142D02*
X115225452Y-146657142D01*
X115225452Y-146657142D02*
X115320690Y-146609523D01*
X115320690Y-146609523D02*
X115368309Y-146561904D01*
X115368309Y-146561904D02*
X115415928Y-146466666D01*
X115415928Y-146466666D02*
X115415928Y-146085714D01*
X115225452Y-147514285D02*
X115892119Y-147514285D01*
X114844500Y-147276190D02*
X115558785Y-147038095D01*
X115558785Y-147038095D02*
X115558785Y-147657142D01*
X114892119Y-147942857D02*
X114892119Y-148609523D01*
X114892119Y-148609523D02*
X115892119Y-148180952D01*
X130286904Y-156389819D02*
X130286904Y-157199342D01*
X130286904Y-157199342D02*
X130239285Y-157294580D01*
X130239285Y-157294580D02*
X130191666Y-157342200D01*
X130191666Y-157342200D02*
X130096428Y-157389819D01*
X130096428Y-157389819D02*
X129905952Y-157389819D01*
X129905952Y-157389819D02*
X129810714Y-157342200D01*
X129810714Y-157342200D02*
X129763095Y-157294580D01*
X129763095Y-157294580D02*
X129715476Y-157199342D01*
X129715476Y-157199342D02*
X129715476Y-156389819D01*
X128715476Y-157389819D02*
X129286904Y-157389819D01*
X129001190Y-157389819D02*
X129001190Y-156389819D01*
X129001190Y-156389819D02*
X129096428Y-156532676D01*
X129096428Y-156532676D02*
X129191666Y-156627914D01*
X129191666Y-156627914D02*
X129286904Y-156675533D01*
X132954819Y-126833333D02*
X132478628Y-126500000D01*
X132954819Y-126261905D02*
X131954819Y-126261905D01*
X131954819Y-126261905D02*
X131954819Y-126642857D01*
X131954819Y-126642857D02*
X132002438Y-126738095D01*
X132002438Y-126738095D02*
X132050057Y-126785714D01*
X132050057Y-126785714D02*
X132145295Y-126833333D01*
X132145295Y-126833333D02*
X132288152Y-126833333D01*
X132288152Y-126833333D02*
X132383390Y-126785714D01*
X132383390Y-126785714D02*
X132431009Y-126738095D01*
X132431009Y-126738095D02*
X132478628Y-126642857D01*
X132478628Y-126642857D02*
X132478628Y-126261905D01*
X132383390Y-127404762D02*
X132335771Y-127309524D01*
X132335771Y-127309524D02*
X132288152Y-127261905D01*
X132288152Y-127261905D02*
X132192914Y-127214286D01*
X132192914Y-127214286D02*
X132145295Y-127214286D01*
X132145295Y-127214286D02*
X132050057Y-127261905D01*
X132050057Y-127261905D02*
X132002438Y-127309524D01*
X132002438Y-127309524D02*
X131954819Y-127404762D01*
X131954819Y-127404762D02*
X131954819Y-127595238D01*
X131954819Y-127595238D02*
X132002438Y-127690476D01*
X132002438Y-127690476D02*
X132050057Y-127738095D01*
X132050057Y-127738095D02*
X132145295Y-127785714D01*
X132145295Y-127785714D02*
X132192914Y-127785714D01*
X132192914Y-127785714D02*
X132288152Y-127738095D01*
X132288152Y-127738095D02*
X132335771Y-127690476D01*
X132335771Y-127690476D02*
X132383390Y-127595238D01*
X132383390Y-127595238D02*
X132383390Y-127404762D01*
X132383390Y-127404762D02*
X132431009Y-127309524D01*
X132431009Y-127309524D02*
X132478628Y-127261905D01*
X132478628Y-127261905D02*
X132573866Y-127214286D01*
X132573866Y-127214286D02*
X132764342Y-127214286D01*
X132764342Y-127214286D02*
X132859580Y-127261905D01*
X132859580Y-127261905D02*
X132907200Y-127309524D01*
X132907200Y-127309524D02*
X132954819Y-127404762D01*
X132954819Y-127404762D02*
X132954819Y-127595238D01*
X132954819Y-127595238D02*
X132907200Y-127690476D01*
X132907200Y-127690476D02*
X132859580Y-127738095D01*
X132859580Y-127738095D02*
X132764342Y-127785714D01*
X132764342Y-127785714D02*
X132573866Y-127785714D01*
X132573866Y-127785714D02*
X132478628Y-127738095D01*
X132478628Y-127738095D02*
X132431009Y-127690476D01*
X132431009Y-127690476D02*
X132383390Y-127595238D01*
X143565357Y-100932319D02*
X143898690Y-100456128D01*
X144136785Y-100932319D02*
X144136785Y-99932319D01*
X144136785Y-99932319D02*
X143755833Y-99932319D01*
X143755833Y-99932319D02*
X143660595Y-99979938D01*
X143660595Y-99979938D02*
X143612976Y-100027557D01*
X143612976Y-100027557D02*
X143565357Y-100122795D01*
X143565357Y-100122795D02*
X143565357Y-100265652D01*
X143565357Y-100265652D02*
X143612976Y-100360890D01*
X143612976Y-100360890D02*
X143660595Y-100408509D01*
X143660595Y-100408509D02*
X143755833Y-100456128D01*
X143755833Y-100456128D02*
X144136785Y-100456128D01*
X143232023Y-99932319D02*
X142612976Y-99932319D01*
X142612976Y-99932319D02*
X142946309Y-100313271D01*
X142946309Y-100313271D02*
X142803452Y-100313271D01*
X142803452Y-100313271D02*
X142708214Y-100360890D01*
X142708214Y-100360890D02*
X142660595Y-100408509D01*
X142660595Y-100408509D02*
X142612976Y-100503747D01*
X142612976Y-100503747D02*
X142612976Y-100741842D01*
X142612976Y-100741842D02*
X142660595Y-100837080D01*
X142660595Y-100837080D02*
X142708214Y-100884700D01*
X142708214Y-100884700D02*
X142803452Y-100932319D01*
X142803452Y-100932319D02*
X143089166Y-100932319D01*
X143089166Y-100932319D02*
X143184404Y-100884700D01*
X143184404Y-100884700D02*
X143232023Y-100837080D01*
X141993928Y-99932319D02*
X141898690Y-99932319D01*
X141898690Y-99932319D02*
X141803452Y-99979938D01*
X141803452Y-99979938D02*
X141755833Y-100027557D01*
X141755833Y-100027557D02*
X141708214Y-100122795D01*
X141708214Y-100122795D02*
X141660595Y-100313271D01*
X141660595Y-100313271D02*
X141660595Y-100551366D01*
X141660595Y-100551366D02*
X141708214Y-100741842D01*
X141708214Y-100741842D02*
X141755833Y-100837080D01*
X141755833Y-100837080D02*
X141803452Y-100884700D01*
X141803452Y-100884700D02*
X141898690Y-100932319D01*
X141898690Y-100932319D02*
X141993928Y-100932319D01*
X141993928Y-100932319D02*
X142089166Y-100884700D01*
X142089166Y-100884700D02*
X142136785Y-100837080D01*
X142136785Y-100837080D02*
X142184404Y-100741842D01*
X142184404Y-100741842D02*
X142232023Y-100551366D01*
X142232023Y-100551366D02*
X142232023Y-100313271D01*
X142232023Y-100313271D02*
X142184404Y-100122795D01*
X142184404Y-100122795D02*
X142136785Y-100027557D01*
X142136785Y-100027557D02*
X142089166Y-99979938D01*
X142089166Y-99979938D02*
X141993928Y-99932319D01*
X120642857Y-148359580D02*
X120690476Y-148407200D01*
X120690476Y-148407200D02*
X120833333Y-148454819D01*
X120833333Y-148454819D02*
X120928571Y-148454819D01*
X120928571Y-148454819D02*
X121071428Y-148407200D01*
X121071428Y-148407200D02*
X121166666Y-148311961D01*
X121166666Y-148311961D02*
X121214285Y-148216723D01*
X121214285Y-148216723D02*
X121261904Y-148026247D01*
X121261904Y-148026247D02*
X121261904Y-147883390D01*
X121261904Y-147883390D02*
X121214285Y-147692914D01*
X121214285Y-147692914D02*
X121166666Y-147597676D01*
X121166666Y-147597676D02*
X121071428Y-147502438D01*
X121071428Y-147502438D02*
X120928571Y-147454819D01*
X120928571Y-147454819D02*
X120833333Y-147454819D01*
X120833333Y-147454819D02*
X120690476Y-147502438D01*
X120690476Y-147502438D02*
X120642857Y-147550057D01*
X119690476Y-148454819D02*
X120261904Y-148454819D01*
X119976190Y-148454819D02*
X119976190Y-147454819D01*
X119976190Y-147454819D02*
X120071428Y-147597676D01*
X120071428Y-147597676D02*
X120166666Y-147692914D01*
X120166666Y-147692914D02*
X120261904Y-147740533D01*
X119309523Y-147550057D02*
X119261904Y-147502438D01*
X119261904Y-147502438D02*
X119166666Y-147454819D01*
X119166666Y-147454819D02*
X118928571Y-147454819D01*
X118928571Y-147454819D02*
X118833333Y-147502438D01*
X118833333Y-147502438D02*
X118785714Y-147550057D01*
X118785714Y-147550057D02*
X118738095Y-147645295D01*
X118738095Y-147645295D02*
X118738095Y-147740533D01*
X118738095Y-147740533D02*
X118785714Y-147883390D01*
X118785714Y-147883390D02*
X119357142Y-148454819D01*
X119357142Y-148454819D02*
X118738095Y-148454819D01*
X149477319Y-122484642D02*
X149001128Y-122151309D01*
X149477319Y-121913214D02*
X148477319Y-121913214D01*
X148477319Y-121913214D02*
X148477319Y-122294166D01*
X148477319Y-122294166D02*
X148524938Y-122389404D01*
X148524938Y-122389404D02*
X148572557Y-122437023D01*
X148572557Y-122437023D02*
X148667795Y-122484642D01*
X148667795Y-122484642D02*
X148810652Y-122484642D01*
X148810652Y-122484642D02*
X148905890Y-122437023D01*
X148905890Y-122437023D02*
X148953509Y-122389404D01*
X148953509Y-122389404D02*
X149001128Y-122294166D01*
X149001128Y-122294166D02*
X149001128Y-121913214D01*
X149477319Y-123437023D02*
X149477319Y-122865595D01*
X149477319Y-123151309D02*
X148477319Y-123151309D01*
X148477319Y-123151309D02*
X148620176Y-123056071D01*
X148620176Y-123056071D02*
X148715414Y-122960833D01*
X148715414Y-122960833D02*
X148763033Y-122865595D01*
X148477319Y-124056071D02*
X148477319Y-124151309D01*
X148477319Y-124151309D02*
X148524938Y-124246547D01*
X148524938Y-124246547D02*
X148572557Y-124294166D01*
X148572557Y-124294166D02*
X148667795Y-124341785D01*
X148667795Y-124341785D02*
X148858271Y-124389404D01*
X148858271Y-124389404D02*
X149096366Y-124389404D01*
X149096366Y-124389404D02*
X149286842Y-124341785D01*
X149286842Y-124341785D02*
X149382080Y-124294166D01*
X149382080Y-124294166D02*
X149429700Y-124246547D01*
X149429700Y-124246547D02*
X149477319Y-124151309D01*
X149477319Y-124151309D02*
X149477319Y-124056071D01*
X149477319Y-124056071D02*
X149429700Y-123960833D01*
X149429700Y-123960833D02*
X149382080Y-123913214D01*
X149382080Y-123913214D02*
X149286842Y-123865595D01*
X149286842Y-123865595D02*
X149096366Y-123817976D01*
X149096366Y-123817976D02*
X148858271Y-123817976D01*
X148858271Y-123817976D02*
X148667795Y-123865595D01*
X148667795Y-123865595D02*
X148572557Y-123913214D01*
X148572557Y-123913214D02*
X148524938Y-123960833D01*
X148524938Y-123960833D02*
X148477319Y-124056071D01*
X126142857Y-132104819D02*
X126476190Y-131628628D01*
X126714285Y-132104819D02*
X126714285Y-131104819D01*
X126714285Y-131104819D02*
X126333333Y-131104819D01*
X126333333Y-131104819D02*
X126238095Y-131152438D01*
X126238095Y-131152438D02*
X126190476Y-131200057D01*
X126190476Y-131200057D02*
X126142857Y-131295295D01*
X126142857Y-131295295D02*
X126142857Y-131438152D01*
X126142857Y-131438152D02*
X126190476Y-131533390D01*
X126190476Y-131533390D02*
X126238095Y-131581009D01*
X126238095Y-131581009D02*
X126333333Y-131628628D01*
X126333333Y-131628628D02*
X126714285Y-131628628D01*
X125809523Y-131104819D02*
X125190476Y-131104819D01*
X125190476Y-131104819D02*
X125523809Y-131485771D01*
X125523809Y-131485771D02*
X125380952Y-131485771D01*
X125380952Y-131485771D02*
X125285714Y-131533390D01*
X125285714Y-131533390D02*
X125238095Y-131581009D01*
X125238095Y-131581009D02*
X125190476Y-131676247D01*
X125190476Y-131676247D02*
X125190476Y-131914342D01*
X125190476Y-131914342D02*
X125238095Y-132009580D01*
X125238095Y-132009580D02*
X125285714Y-132057200D01*
X125285714Y-132057200D02*
X125380952Y-132104819D01*
X125380952Y-132104819D02*
X125666666Y-132104819D01*
X125666666Y-132104819D02*
X125761904Y-132057200D01*
X125761904Y-132057200D02*
X125809523Y-132009580D01*
X124619047Y-131533390D02*
X124714285Y-131485771D01*
X124714285Y-131485771D02*
X124761904Y-131438152D01*
X124761904Y-131438152D02*
X124809523Y-131342914D01*
X124809523Y-131342914D02*
X124809523Y-131295295D01*
X124809523Y-131295295D02*
X124761904Y-131200057D01*
X124761904Y-131200057D02*
X124714285Y-131152438D01*
X124714285Y-131152438D02*
X124619047Y-131104819D01*
X124619047Y-131104819D02*
X124428571Y-131104819D01*
X124428571Y-131104819D02*
X124333333Y-131152438D01*
X124333333Y-131152438D02*
X124285714Y-131200057D01*
X124285714Y-131200057D02*
X124238095Y-131295295D01*
X124238095Y-131295295D02*
X124238095Y-131342914D01*
X124238095Y-131342914D02*
X124285714Y-131438152D01*
X124285714Y-131438152D02*
X124333333Y-131485771D01*
X124333333Y-131485771D02*
X124428571Y-131533390D01*
X124428571Y-131533390D02*
X124619047Y-131533390D01*
X124619047Y-131533390D02*
X124714285Y-131581009D01*
X124714285Y-131581009D02*
X124761904Y-131628628D01*
X124761904Y-131628628D02*
X124809523Y-131723866D01*
X124809523Y-131723866D02*
X124809523Y-131914342D01*
X124809523Y-131914342D02*
X124761904Y-132009580D01*
X124761904Y-132009580D02*
X124714285Y-132057200D01*
X124714285Y-132057200D02*
X124619047Y-132104819D01*
X124619047Y-132104819D02*
X124428571Y-132104819D01*
X124428571Y-132104819D02*
X124333333Y-132057200D01*
X124333333Y-132057200D02*
X124285714Y-132009580D01*
X124285714Y-132009580D02*
X124238095Y-131914342D01*
X124238095Y-131914342D02*
X124238095Y-131723866D01*
X124238095Y-131723866D02*
X124285714Y-131628628D01*
X124285714Y-131628628D02*
X124333333Y-131581009D01*
X124333333Y-131581009D02*
X124428571Y-131533390D01*
X125166666Y-99609580D02*
X125214285Y-99657200D01*
X125214285Y-99657200D02*
X125357142Y-99704819D01*
X125357142Y-99704819D02*
X125452380Y-99704819D01*
X125452380Y-99704819D02*
X125595237Y-99657200D01*
X125595237Y-99657200D02*
X125690475Y-99561961D01*
X125690475Y-99561961D02*
X125738094Y-99466723D01*
X125738094Y-99466723D02*
X125785713Y-99276247D01*
X125785713Y-99276247D02*
X125785713Y-99133390D01*
X125785713Y-99133390D02*
X125738094Y-98942914D01*
X125738094Y-98942914D02*
X125690475Y-98847676D01*
X125690475Y-98847676D02*
X125595237Y-98752438D01*
X125595237Y-98752438D02*
X125452380Y-98704819D01*
X125452380Y-98704819D02*
X125357142Y-98704819D01*
X125357142Y-98704819D02*
X125214285Y-98752438D01*
X125214285Y-98752438D02*
X125166666Y-98800057D01*
X124261904Y-98704819D02*
X124738094Y-98704819D01*
X124738094Y-98704819D02*
X124785713Y-99181009D01*
X124785713Y-99181009D02*
X124738094Y-99133390D01*
X124738094Y-99133390D02*
X124642856Y-99085771D01*
X124642856Y-99085771D02*
X124404761Y-99085771D01*
X124404761Y-99085771D02*
X124309523Y-99133390D01*
X124309523Y-99133390D02*
X124261904Y-99181009D01*
X124261904Y-99181009D02*
X124214285Y-99276247D01*
X124214285Y-99276247D02*
X124214285Y-99514342D01*
X124214285Y-99514342D02*
X124261904Y-99609580D01*
X124261904Y-99609580D02*
X124309523Y-99657200D01*
X124309523Y-99657200D02*
X124404761Y-99704819D01*
X124404761Y-99704819D02*
X124642856Y-99704819D01*
X124642856Y-99704819D02*
X124738094Y-99657200D01*
X124738094Y-99657200D02*
X124785713Y-99609580D01*
X116742857Y-123817319D02*
X117076190Y-123341128D01*
X117314285Y-123817319D02*
X117314285Y-122817319D01*
X117314285Y-122817319D02*
X116933333Y-122817319D01*
X116933333Y-122817319D02*
X116838095Y-122864938D01*
X116838095Y-122864938D02*
X116790476Y-122912557D01*
X116790476Y-122912557D02*
X116742857Y-123007795D01*
X116742857Y-123007795D02*
X116742857Y-123150652D01*
X116742857Y-123150652D02*
X116790476Y-123245890D01*
X116790476Y-123245890D02*
X116838095Y-123293509D01*
X116838095Y-123293509D02*
X116933333Y-123341128D01*
X116933333Y-123341128D02*
X117314285Y-123341128D01*
X115790476Y-123817319D02*
X116361904Y-123817319D01*
X116076190Y-123817319D02*
X116076190Y-122817319D01*
X116076190Y-122817319D02*
X116171428Y-122960176D01*
X116171428Y-122960176D02*
X116266666Y-123055414D01*
X116266666Y-123055414D02*
X116361904Y-123103033D01*
X114885714Y-122817319D02*
X115361904Y-122817319D01*
X115361904Y-122817319D02*
X115409523Y-123293509D01*
X115409523Y-123293509D02*
X115361904Y-123245890D01*
X115361904Y-123245890D02*
X115266666Y-123198271D01*
X115266666Y-123198271D02*
X115028571Y-123198271D01*
X115028571Y-123198271D02*
X114933333Y-123245890D01*
X114933333Y-123245890D02*
X114885714Y-123293509D01*
X114885714Y-123293509D02*
X114838095Y-123388747D01*
X114838095Y-123388747D02*
X114838095Y-123626842D01*
X114838095Y-123626842D02*
X114885714Y-123722080D01*
X114885714Y-123722080D02*
X114933333Y-123769700D01*
X114933333Y-123769700D02*
X115028571Y-123817319D01*
X115028571Y-123817319D02*
X115266666Y-123817319D01*
X115266666Y-123817319D02*
X115361904Y-123769700D01*
X115361904Y-123769700D02*
X115409523Y-123722080D01*
X139142857Y-153859580D02*
X139190476Y-153907200D01*
X139190476Y-153907200D02*
X139333333Y-153954819D01*
X139333333Y-153954819D02*
X139428571Y-153954819D01*
X139428571Y-153954819D02*
X139571428Y-153907200D01*
X139571428Y-153907200D02*
X139666666Y-153811961D01*
X139666666Y-153811961D02*
X139714285Y-153716723D01*
X139714285Y-153716723D02*
X139761904Y-153526247D01*
X139761904Y-153526247D02*
X139761904Y-153383390D01*
X139761904Y-153383390D02*
X139714285Y-153192914D01*
X139714285Y-153192914D02*
X139666666Y-153097676D01*
X139666666Y-153097676D02*
X139571428Y-153002438D01*
X139571428Y-153002438D02*
X139428571Y-152954819D01*
X139428571Y-152954819D02*
X139333333Y-152954819D01*
X139333333Y-152954819D02*
X139190476Y-153002438D01*
X139190476Y-153002438D02*
X139142857Y-153050057D01*
X138190476Y-153954819D02*
X138761904Y-153954819D01*
X138476190Y-153954819D02*
X138476190Y-152954819D01*
X138476190Y-152954819D02*
X138571428Y-153097676D01*
X138571428Y-153097676D02*
X138666666Y-153192914D01*
X138666666Y-153192914D02*
X138761904Y-153240533D01*
X137857142Y-152954819D02*
X137238095Y-152954819D01*
X137238095Y-152954819D02*
X137571428Y-153335771D01*
X137571428Y-153335771D02*
X137428571Y-153335771D01*
X137428571Y-153335771D02*
X137333333Y-153383390D01*
X137333333Y-153383390D02*
X137285714Y-153431009D01*
X137285714Y-153431009D02*
X137238095Y-153526247D01*
X137238095Y-153526247D02*
X137238095Y-153764342D01*
X137238095Y-153764342D02*
X137285714Y-153859580D01*
X137285714Y-153859580D02*
X137333333Y-153907200D01*
X137333333Y-153907200D02*
X137428571Y-153954819D01*
X137428571Y-153954819D02*
X137714285Y-153954819D01*
X137714285Y-153954819D02*
X137809523Y-153907200D01*
X137809523Y-153907200D02*
X137857142Y-153859580D01*
X138104819Y-136357142D02*
X137628628Y-136023809D01*
X138104819Y-135785714D02*
X137104819Y-135785714D01*
X137104819Y-135785714D02*
X137104819Y-136166666D01*
X137104819Y-136166666D02*
X137152438Y-136261904D01*
X137152438Y-136261904D02*
X137200057Y-136309523D01*
X137200057Y-136309523D02*
X137295295Y-136357142D01*
X137295295Y-136357142D02*
X137438152Y-136357142D01*
X137438152Y-136357142D02*
X137533390Y-136309523D01*
X137533390Y-136309523D02*
X137581009Y-136261904D01*
X137581009Y-136261904D02*
X137628628Y-136166666D01*
X137628628Y-136166666D02*
X137628628Y-135785714D01*
X137104819Y-136690476D02*
X137104819Y-137309523D01*
X137104819Y-137309523D02*
X137485771Y-136976190D01*
X137485771Y-136976190D02*
X137485771Y-137119047D01*
X137485771Y-137119047D02*
X137533390Y-137214285D01*
X137533390Y-137214285D02*
X137581009Y-137261904D01*
X137581009Y-137261904D02*
X137676247Y-137309523D01*
X137676247Y-137309523D02*
X137914342Y-137309523D01*
X137914342Y-137309523D02*
X138009580Y-137261904D01*
X138009580Y-137261904D02*
X138057200Y-137214285D01*
X138057200Y-137214285D02*
X138104819Y-137119047D01*
X138104819Y-137119047D02*
X138104819Y-136833333D01*
X138104819Y-136833333D02*
X138057200Y-136738095D01*
X138057200Y-136738095D02*
X138009580Y-136690476D01*
X137104819Y-137642857D02*
X137104819Y-138309523D01*
X137104819Y-138309523D02*
X138104819Y-137880952D01*
X119742857Y-117517319D02*
X120076190Y-117041128D01*
X120314285Y-117517319D02*
X120314285Y-116517319D01*
X120314285Y-116517319D02*
X119933333Y-116517319D01*
X119933333Y-116517319D02*
X119838095Y-116564938D01*
X119838095Y-116564938D02*
X119790476Y-116612557D01*
X119790476Y-116612557D02*
X119742857Y-116707795D01*
X119742857Y-116707795D02*
X119742857Y-116850652D01*
X119742857Y-116850652D02*
X119790476Y-116945890D01*
X119790476Y-116945890D02*
X119838095Y-116993509D01*
X119838095Y-116993509D02*
X119933333Y-117041128D01*
X119933333Y-117041128D02*
X120314285Y-117041128D01*
X118790476Y-117517319D02*
X119361904Y-117517319D01*
X119076190Y-117517319D02*
X119076190Y-116517319D01*
X119076190Y-116517319D02*
X119171428Y-116660176D01*
X119171428Y-116660176D02*
X119266666Y-116755414D01*
X119266666Y-116755414D02*
X119361904Y-116803033D01*
X117838095Y-117517319D02*
X118409523Y-117517319D01*
X118123809Y-117517319D02*
X118123809Y-116517319D01*
X118123809Y-116517319D02*
X118219047Y-116660176D01*
X118219047Y-116660176D02*
X118314285Y-116755414D01*
X118314285Y-116755414D02*
X118409523Y-116803033D01*
X135666666Y-143954819D02*
X135999999Y-143478628D01*
X136238094Y-143954819D02*
X136238094Y-142954819D01*
X136238094Y-142954819D02*
X135857142Y-142954819D01*
X135857142Y-142954819D02*
X135761904Y-143002438D01*
X135761904Y-143002438D02*
X135714285Y-143050057D01*
X135714285Y-143050057D02*
X135666666Y-143145295D01*
X135666666Y-143145295D02*
X135666666Y-143288152D01*
X135666666Y-143288152D02*
X135714285Y-143383390D01*
X135714285Y-143383390D02*
X135761904Y-143431009D01*
X135761904Y-143431009D02*
X135857142Y-143478628D01*
X135857142Y-143478628D02*
X136238094Y-143478628D01*
X135285713Y-143050057D02*
X135238094Y-143002438D01*
X135238094Y-143002438D02*
X135142856Y-142954819D01*
X135142856Y-142954819D02*
X134904761Y-142954819D01*
X134904761Y-142954819D02*
X134809523Y-143002438D01*
X134809523Y-143002438D02*
X134761904Y-143050057D01*
X134761904Y-143050057D02*
X134714285Y-143145295D01*
X134714285Y-143145295D02*
X134714285Y-143240533D01*
X134714285Y-143240533D02*
X134761904Y-143383390D01*
X134761904Y-143383390D02*
X135333332Y-143954819D01*
X135333332Y-143954819D02*
X134714285Y-143954819D01*
X125859580Y-144833333D02*
X125907200Y-144785714D01*
X125907200Y-144785714D02*
X125954819Y-144642857D01*
X125954819Y-144642857D02*
X125954819Y-144547619D01*
X125954819Y-144547619D02*
X125907200Y-144404762D01*
X125907200Y-144404762D02*
X125811961Y-144309524D01*
X125811961Y-144309524D02*
X125716723Y-144261905D01*
X125716723Y-144261905D02*
X125526247Y-144214286D01*
X125526247Y-144214286D02*
X125383390Y-144214286D01*
X125383390Y-144214286D02*
X125192914Y-144261905D01*
X125192914Y-144261905D02*
X125097676Y-144309524D01*
X125097676Y-144309524D02*
X125002438Y-144404762D01*
X125002438Y-144404762D02*
X124954819Y-144547619D01*
X124954819Y-144547619D02*
X124954819Y-144642857D01*
X124954819Y-144642857D02*
X125002438Y-144785714D01*
X125002438Y-144785714D02*
X125050057Y-144833333D01*
X125954819Y-145785714D02*
X125954819Y-145214286D01*
X125954819Y-145500000D02*
X124954819Y-145500000D01*
X124954819Y-145500000D02*
X125097676Y-145404762D01*
X125097676Y-145404762D02*
X125192914Y-145309524D01*
X125192914Y-145309524D02*
X125240533Y-145214286D01*
X114859580Y-141333333D02*
X114907200Y-141285714D01*
X114907200Y-141285714D02*
X114954819Y-141142857D01*
X114954819Y-141142857D02*
X114954819Y-141047619D01*
X114954819Y-141047619D02*
X114907200Y-140904762D01*
X114907200Y-140904762D02*
X114811961Y-140809524D01*
X114811961Y-140809524D02*
X114716723Y-140761905D01*
X114716723Y-140761905D02*
X114526247Y-140714286D01*
X114526247Y-140714286D02*
X114383390Y-140714286D01*
X114383390Y-140714286D02*
X114192914Y-140761905D01*
X114192914Y-140761905D02*
X114097676Y-140809524D01*
X114097676Y-140809524D02*
X114002438Y-140904762D01*
X114002438Y-140904762D02*
X113954819Y-141047619D01*
X113954819Y-141047619D02*
X113954819Y-141142857D01*
X113954819Y-141142857D02*
X114002438Y-141285714D01*
X114002438Y-141285714D02*
X114050057Y-141333333D01*
X114050057Y-141714286D02*
X114002438Y-141761905D01*
X114002438Y-141761905D02*
X113954819Y-141857143D01*
X113954819Y-141857143D02*
X113954819Y-142095238D01*
X113954819Y-142095238D02*
X114002438Y-142190476D01*
X114002438Y-142190476D02*
X114050057Y-142238095D01*
X114050057Y-142238095D02*
X114145295Y-142285714D01*
X114145295Y-142285714D02*
X114240533Y-142285714D01*
X114240533Y-142285714D02*
X114383390Y-142238095D01*
X114383390Y-142238095D02*
X114954819Y-141666667D01*
X114954819Y-141666667D02*
X114954819Y-142285714D01*
X147165357Y-105882319D02*
X147498690Y-105406128D01*
X147736785Y-105882319D02*
X147736785Y-104882319D01*
X147736785Y-104882319D02*
X147355833Y-104882319D01*
X147355833Y-104882319D02*
X147260595Y-104929938D01*
X147260595Y-104929938D02*
X147212976Y-104977557D01*
X147212976Y-104977557D02*
X147165357Y-105072795D01*
X147165357Y-105072795D02*
X147165357Y-105215652D01*
X147165357Y-105215652D02*
X147212976Y-105310890D01*
X147212976Y-105310890D02*
X147260595Y-105358509D01*
X147260595Y-105358509D02*
X147355833Y-105406128D01*
X147355833Y-105406128D02*
X147736785Y-105406128D01*
X146832023Y-104882319D02*
X146212976Y-104882319D01*
X146212976Y-104882319D02*
X146546309Y-105263271D01*
X146546309Y-105263271D02*
X146403452Y-105263271D01*
X146403452Y-105263271D02*
X146308214Y-105310890D01*
X146308214Y-105310890D02*
X146260595Y-105358509D01*
X146260595Y-105358509D02*
X146212976Y-105453747D01*
X146212976Y-105453747D02*
X146212976Y-105691842D01*
X146212976Y-105691842D02*
X146260595Y-105787080D01*
X146260595Y-105787080D02*
X146308214Y-105834700D01*
X146308214Y-105834700D02*
X146403452Y-105882319D01*
X146403452Y-105882319D02*
X146689166Y-105882319D01*
X146689166Y-105882319D02*
X146784404Y-105834700D01*
X146784404Y-105834700D02*
X146832023Y-105787080D01*
X145832023Y-104977557D02*
X145784404Y-104929938D01*
X145784404Y-104929938D02*
X145689166Y-104882319D01*
X145689166Y-104882319D02*
X145451071Y-104882319D01*
X145451071Y-104882319D02*
X145355833Y-104929938D01*
X145355833Y-104929938D02*
X145308214Y-104977557D01*
X145308214Y-104977557D02*
X145260595Y-105072795D01*
X145260595Y-105072795D02*
X145260595Y-105168033D01*
X145260595Y-105168033D02*
X145308214Y-105310890D01*
X145308214Y-105310890D02*
X145879642Y-105882319D01*
X145879642Y-105882319D02*
X145260595Y-105882319D01*
D11*
X127332618Y-72593149D02*
X127272142Y-72532673D01*
X127272142Y-72532673D02*
X127151190Y-72472197D01*
X127151190Y-72472197D02*
X126909285Y-72593149D01*
X126909285Y-72593149D02*
X126788332Y-72532673D01*
X126788332Y-72532673D02*
X126727856Y-72472197D01*
D12*
X122452219Y-78857143D02*
X121452219Y-78857143D01*
X122452219Y-79428571D02*
X121880790Y-79000000D01*
X121452219Y-79428571D02*
X122023647Y-78857143D01*
X121928409Y-79857143D02*
X121928409Y-80190476D01*
X122452219Y-80333333D02*
X122452219Y-79857143D01*
X122452219Y-79857143D02*
X121452219Y-79857143D01*
X121452219Y-79857143D02*
X121452219Y-80333333D01*
X121976028Y-80952381D02*
X122452219Y-80952381D01*
X121452219Y-80619048D02*
X121976028Y-80952381D01*
X121976028Y-80952381D02*
X121452219Y-81285714D01*
D13*
X123909523Y-85560133D02*
X123300000Y-85560133D01*
X122500000Y-85864895D02*
X122957143Y-85864895D01*
X122728571Y-85864895D02*
X122728571Y-85064895D01*
X122728571Y-85064895D02*
X122804762Y-85179180D01*
X122804762Y-85179180D02*
X122880952Y-85255371D01*
X122880952Y-85255371D02*
X122957143Y-85293466D01*
X122195238Y-85141085D02*
X122157142Y-85102990D01*
X122157142Y-85102990D02*
X122080952Y-85064895D01*
X122080952Y-85064895D02*
X121890476Y-85064895D01*
X121890476Y-85064895D02*
X121814285Y-85102990D01*
X121814285Y-85102990D02*
X121776190Y-85141085D01*
X121776190Y-85141085D02*
X121738095Y-85217276D01*
X121738095Y-85217276D02*
X121738095Y-85293466D01*
X121738095Y-85293466D02*
X121776190Y-85407752D01*
X121776190Y-85407752D02*
X122233333Y-85864895D01*
X122233333Y-85864895D02*
X121738095Y-85864895D01*
X121509523Y-85064895D02*
X121242856Y-85864895D01*
X121242856Y-85864895D02*
X120976190Y-85064895D01*
D10*
X140665357Y-121232319D02*
X140998690Y-120756128D01*
X141236785Y-121232319D02*
X141236785Y-120232319D01*
X141236785Y-120232319D02*
X140855833Y-120232319D01*
X140855833Y-120232319D02*
X140760595Y-120279938D01*
X140760595Y-120279938D02*
X140712976Y-120327557D01*
X140712976Y-120327557D02*
X140665357Y-120422795D01*
X140665357Y-120422795D02*
X140665357Y-120565652D01*
X140665357Y-120565652D02*
X140712976Y-120660890D01*
X140712976Y-120660890D02*
X140760595Y-120708509D01*
X140760595Y-120708509D02*
X140855833Y-120756128D01*
X140855833Y-120756128D02*
X141236785Y-120756128D01*
X140284404Y-120327557D02*
X140236785Y-120279938D01*
X140236785Y-120279938D02*
X140141547Y-120232319D01*
X140141547Y-120232319D02*
X139903452Y-120232319D01*
X139903452Y-120232319D02*
X139808214Y-120279938D01*
X139808214Y-120279938D02*
X139760595Y-120327557D01*
X139760595Y-120327557D02*
X139712976Y-120422795D01*
X139712976Y-120422795D02*
X139712976Y-120518033D01*
X139712976Y-120518033D02*
X139760595Y-120660890D01*
X139760595Y-120660890D02*
X140332023Y-121232319D01*
X140332023Y-121232319D02*
X139712976Y-121232319D01*
X139093928Y-120232319D02*
X138998690Y-120232319D01*
X138998690Y-120232319D02*
X138903452Y-120279938D01*
X138903452Y-120279938D02*
X138855833Y-120327557D01*
X138855833Y-120327557D02*
X138808214Y-120422795D01*
X138808214Y-120422795D02*
X138760595Y-120613271D01*
X138760595Y-120613271D02*
X138760595Y-120851366D01*
X138760595Y-120851366D02*
X138808214Y-121041842D01*
X138808214Y-121041842D02*
X138855833Y-121137080D01*
X138855833Y-121137080D02*
X138903452Y-121184700D01*
X138903452Y-121184700D02*
X138998690Y-121232319D01*
X138998690Y-121232319D02*
X139093928Y-121232319D01*
X139093928Y-121232319D02*
X139189166Y-121184700D01*
X139189166Y-121184700D02*
X139236785Y-121137080D01*
X139236785Y-121137080D02*
X139284404Y-121041842D01*
X139284404Y-121041842D02*
X139332023Y-120851366D01*
X139332023Y-120851366D02*
X139332023Y-120613271D01*
X139332023Y-120613271D02*
X139284404Y-120422795D01*
X139284404Y-120422795D02*
X139236785Y-120327557D01*
X139236785Y-120327557D02*
X139189166Y-120279938D01*
X139189166Y-120279938D02*
X139093928Y-120232319D01*
X143665357Y-125232319D02*
X143998690Y-124756128D01*
X144236785Y-125232319D02*
X144236785Y-124232319D01*
X144236785Y-124232319D02*
X143855833Y-124232319D01*
X143855833Y-124232319D02*
X143760595Y-124279938D01*
X143760595Y-124279938D02*
X143712976Y-124327557D01*
X143712976Y-124327557D02*
X143665357Y-124422795D01*
X143665357Y-124422795D02*
X143665357Y-124565652D01*
X143665357Y-124565652D02*
X143712976Y-124660890D01*
X143712976Y-124660890D02*
X143760595Y-124708509D01*
X143760595Y-124708509D02*
X143855833Y-124756128D01*
X143855833Y-124756128D02*
X144236785Y-124756128D01*
X142712976Y-125232319D02*
X143284404Y-125232319D01*
X142998690Y-125232319D02*
X142998690Y-124232319D01*
X142998690Y-124232319D02*
X143093928Y-124375176D01*
X143093928Y-124375176D02*
X143189166Y-124470414D01*
X143189166Y-124470414D02*
X143284404Y-124518033D01*
X141855833Y-124232319D02*
X142046309Y-124232319D01*
X142046309Y-124232319D02*
X142141547Y-124279938D01*
X142141547Y-124279938D02*
X142189166Y-124327557D01*
X142189166Y-124327557D02*
X142284404Y-124470414D01*
X142284404Y-124470414D02*
X142332023Y-124660890D01*
X142332023Y-124660890D02*
X142332023Y-125041842D01*
X142332023Y-125041842D02*
X142284404Y-125137080D01*
X142284404Y-125137080D02*
X142236785Y-125184700D01*
X142236785Y-125184700D02*
X142141547Y-125232319D01*
X142141547Y-125232319D02*
X141951071Y-125232319D01*
X141951071Y-125232319D02*
X141855833Y-125184700D01*
X141855833Y-125184700D02*
X141808214Y-125137080D01*
X141808214Y-125137080D02*
X141760595Y-125041842D01*
X141760595Y-125041842D02*
X141760595Y-124803747D01*
X141760595Y-124803747D02*
X141808214Y-124708509D01*
X141808214Y-124708509D02*
X141855833Y-124660890D01*
X141855833Y-124660890D02*
X141951071Y-124613271D01*
X141951071Y-124613271D02*
X142141547Y-124613271D01*
X142141547Y-124613271D02*
X142236785Y-124660890D01*
X142236785Y-124660890D02*
X142284404Y-124708509D01*
X142284404Y-124708509D02*
X142332023Y-124803747D01*
X123904819Y-112483333D02*
X123428628Y-112150000D01*
X123904819Y-111911905D02*
X122904819Y-111911905D01*
X122904819Y-111911905D02*
X122904819Y-112292857D01*
X122904819Y-112292857D02*
X122952438Y-112388095D01*
X122952438Y-112388095D02*
X123000057Y-112435714D01*
X123000057Y-112435714D02*
X123095295Y-112483333D01*
X123095295Y-112483333D02*
X123238152Y-112483333D01*
X123238152Y-112483333D02*
X123333390Y-112435714D01*
X123333390Y-112435714D02*
X123381009Y-112388095D01*
X123381009Y-112388095D02*
X123428628Y-112292857D01*
X123428628Y-112292857D02*
X123428628Y-111911905D01*
X123238152Y-113340476D02*
X123904819Y-113340476D01*
X122857200Y-113102381D02*
X123571485Y-112864286D01*
X123571485Y-112864286D02*
X123571485Y-113483333D01*
X141165357Y-109232319D02*
X141498690Y-108756128D01*
X141736785Y-109232319D02*
X141736785Y-108232319D01*
X141736785Y-108232319D02*
X141355833Y-108232319D01*
X141355833Y-108232319D02*
X141260595Y-108279938D01*
X141260595Y-108279938D02*
X141212976Y-108327557D01*
X141212976Y-108327557D02*
X141165357Y-108422795D01*
X141165357Y-108422795D02*
X141165357Y-108565652D01*
X141165357Y-108565652D02*
X141212976Y-108660890D01*
X141212976Y-108660890D02*
X141260595Y-108708509D01*
X141260595Y-108708509D02*
X141355833Y-108756128D01*
X141355833Y-108756128D02*
X141736785Y-108756128D01*
X140784404Y-108327557D02*
X140736785Y-108279938D01*
X140736785Y-108279938D02*
X140641547Y-108232319D01*
X140641547Y-108232319D02*
X140403452Y-108232319D01*
X140403452Y-108232319D02*
X140308214Y-108279938D01*
X140308214Y-108279938D02*
X140260595Y-108327557D01*
X140260595Y-108327557D02*
X140212976Y-108422795D01*
X140212976Y-108422795D02*
X140212976Y-108518033D01*
X140212976Y-108518033D02*
X140260595Y-108660890D01*
X140260595Y-108660890D02*
X140832023Y-109232319D01*
X140832023Y-109232319D02*
X140212976Y-109232319D01*
X139641547Y-108660890D02*
X139736785Y-108613271D01*
X139736785Y-108613271D02*
X139784404Y-108565652D01*
X139784404Y-108565652D02*
X139832023Y-108470414D01*
X139832023Y-108470414D02*
X139832023Y-108422795D01*
X139832023Y-108422795D02*
X139784404Y-108327557D01*
X139784404Y-108327557D02*
X139736785Y-108279938D01*
X139736785Y-108279938D02*
X139641547Y-108232319D01*
X139641547Y-108232319D02*
X139451071Y-108232319D01*
X139451071Y-108232319D02*
X139355833Y-108279938D01*
X139355833Y-108279938D02*
X139308214Y-108327557D01*
X139308214Y-108327557D02*
X139260595Y-108422795D01*
X139260595Y-108422795D02*
X139260595Y-108470414D01*
X139260595Y-108470414D02*
X139308214Y-108565652D01*
X139308214Y-108565652D02*
X139355833Y-108613271D01*
X139355833Y-108613271D02*
X139451071Y-108660890D01*
X139451071Y-108660890D02*
X139641547Y-108660890D01*
X139641547Y-108660890D02*
X139736785Y-108708509D01*
X139736785Y-108708509D02*
X139784404Y-108756128D01*
X139784404Y-108756128D02*
X139832023Y-108851366D01*
X139832023Y-108851366D02*
X139832023Y-109041842D01*
X139832023Y-109041842D02*
X139784404Y-109137080D01*
X139784404Y-109137080D02*
X139736785Y-109184700D01*
X139736785Y-109184700D02*
X139641547Y-109232319D01*
X139641547Y-109232319D02*
X139451071Y-109232319D01*
X139451071Y-109232319D02*
X139355833Y-109184700D01*
X139355833Y-109184700D02*
X139308214Y-109137080D01*
X139308214Y-109137080D02*
X139260595Y-109041842D01*
X139260595Y-109041842D02*
X139260595Y-108851366D01*
X139260595Y-108851366D02*
X139308214Y-108756128D01*
X139308214Y-108756128D02*
X139355833Y-108708509D01*
X139355833Y-108708509D02*
X139451071Y-108660890D01*
X113742857Y-108817319D02*
X114076190Y-108341128D01*
X114314285Y-108817319D02*
X114314285Y-107817319D01*
X114314285Y-107817319D02*
X113933333Y-107817319D01*
X113933333Y-107817319D02*
X113838095Y-107864938D01*
X113838095Y-107864938D02*
X113790476Y-107912557D01*
X113790476Y-107912557D02*
X113742857Y-108007795D01*
X113742857Y-108007795D02*
X113742857Y-108150652D01*
X113742857Y-108150652D02*
X113790476Y-108245890D01*
X113790476Y-108245890D02*
X113838095Y-108293509D01*
X113838095Y-108293509D02*
X113933333Y-108341128D01*
X113933333Y-108341128D02*
X114314285Y-108341128D01*
X113361904Y-107912557D02*
X113314285Y-107864938D01*
X113314285Y-107864938D02*
X113219047Y-107817319D01*
X113219047Y-107817319D02*
X112980952Y-107817319D01*
X112980952Y-107817319D02*
X112885714Y-107864938D01*
X112885714Y-107864938D02*
X112838095Y-107912557D01*
X112838095Y-107912557D02*
X112790476Y-108007795D01*
X112790476Y-108007795D02*
X112790476Y-108103033D01*
X112790476Y-108103033D02*
X112838095Y-108245890D01*
X112838095Y-108245890D02*
X113409523Y-108817319D01*
X113409523Y-108817319D02*
X112790476Y-108817319D01*
X112457142Y-107817319D02*
X111790476Y-107817319D01*
X111790476Y-107817319D02*
X112219047Y-108817319D01*
X108507319Y-111532142D02*
X108031128Y-111198809D01*
X108507319Y-110960714D02*
X107507319Y-110960714D01*
X107507319Y-110960714D02*
X107507319Y-111341666D01*
X107507319Y-111341666D02*
X107554938Y-111436904D01*
X107554938Y-111436904D02*
X107602557Y-111484523D01*
X107602557Y-111484523D02*
X107697795Y-111532142D01*
X107697795Y-111532142D02*
X107840652Y-111532142D01*
X107840652Y-111532142D02*
X107935890Y-111484523D01*
X107935890Y-111484523D02*
X107983509Y-111436904D01*
X107983509Y-111436904D02*
X108031128Y-111341666D01*
X108031128Y-111341666D02*
X108031128Y-110960714D01*
X107602557Y-111913095D02*
X107554938Y-111960714D01*
X107554938Y-111960714D02*
X107507319Y-112055952D01*
X107507319Y-112055952D02*
X107507319Y-112294047D01*
X107507319Y-112294047D02*
X107554938Y-112389285D01*
X107554938Y-112389285D02*
X107602557Y-112436904D01*
X107602557Y-112436904D02*
X107697795Y-112484523D01*
X107697795Y-112484523D02*
X107793033Y-112484523D01*
X107793033Y-112484523D02*
X107935890Y-112436904D01*
X107935890Y-112436904D02*
X108507319Y-111865476D01*
X108507319Y-111865476D02*
X108507319Y-112484523D01*
X108507319Y-113436904D02*
X108507319Y-112865476D01*
X108507319Y-113151190D02*
X107507319Y-113151190D01*
X107507319Y-113151190D02*
X107650176Y-113055952D01*
X107650176Y-113055952D02*
X107745414Y-112960714D01*
X107745414Y-112960714D02*
X107793033Y-112865476D01*
X131359580Y-140857142D02*
X131407200Y-140809523D01*
X131407200Y-140809523D02*
X131454819Y-140666666D01*
X131454819Y-140666666D02*
X131454819Y-140571428D01*
X131454819Y-140571428D02*
X131407200Y-140428571D01*
X131407200Y-140428571D02*
X131311961Y-140333333D01*
X131311961Y-140333333D02*
X131216723Y-140285714D01*
X131216723Y-140285714D02*
X131026247Y-140238095D01*
X131026247Y-140238095D02*
X130883390Y-140238095D01*
X130883390Y-140238095D02*
X130692914Y-140285714D01*
X130692914Y-140285714D02*
X130597676Y-140333333D01*
X130597676Y-140333333D02*
X130502438Y-140428571D01*
X130502438Y-140428571D02*
X130454819Y-140571428D01*
X130454819Y-140571428D02*
X130454819Y-140666666D01*
X130454819Y-140666666D02*
X130502438Y-140809523D01*
X130502438Y-140809523D02*
X130550057Y-140857142D01*
X131454819Y-141809523D02*
X131454819Y-141238095D01*
X131454819Y-141523809D02*
X130454819Y-141523809D01*
X130454819Y-141523809D02*
X130597676Y-141428571D01*
X130597676Y-141428571D02*
X130692914Y-141333333D01*
X130692914Y-141333333D02*
X130740533Y-141238095D01*
X130454819Y-142428571D02*
X130454819Y-142523809D01*
X130454819Y-142523809D02*
X130502438Y-142619047D01*
X130502438Y-142619047D02*
X130550057Y-142666666D01*
X130550057Y-142666666D02*
X130645295Y-142714285D01*
X130645295Y-142714285D02*
X130835771Y-142761904D01*
X130835771Y-142761904D02*
X131073866Y-142761904D01*
X131073866Y-142761904D02*
X131264342Y-142714285D01*
X131264342Y-142714285D02*
X131359580Y-142666666D01*
X131359580Y-142666666D02*
X131407200Y-142619047D01*
X131407200Y-142619047D02*
X131454819Y-142523809D01*
X131454819Y-142523809D02*
X131454819Y-142428571D01*
X131454819Y-142428571D02*
X131407200Y-142333333D01*
X131407200Y-142333333D02*
X131359580Y-142285714D01*
X131359580Y-142285714D02*
X131264342Y-142238095D01*
X131264342Y-142238095D02*
X131073866Y-142190476D01*
X131073866Y-142190476D02*
X130835771Y-142190476D01*
X130835771Y-142190476D02*
X130645295Y-142238095D01*
X130645295Y-142238095D02*
X130550057Y-142285714D01*
X130550057Y-142285714D02*
X130502438Y-142333333D01*
X130502438Y-142333333D02*
X130454819Y-142428571D01*
X140104819Y-69333333D02*
X139628628Y-69000000D01*
X140104819Y-68761905D02*
X139104819Y-68761905D01*
X139104819Y-68761905D02*
X139104819Y-69142857D01*
X139104819Y-69142857D02*
X139152438Y-69238095D01*
X139152438Y-69238095D02*
X139200057Y-69285714D01*
X139200057Y-69285714D02*
X139295295Y-69333333D01*
X139295295Y-69333333D02*
X139438152Y-69333333D01*
X139438152Y-69333333D02*
X139533390Y-69285714D01*
X139533390Y-69285714D02*
X139581009Y-69238095D01*
X139581009Y-69238095D02*
X139628628Y-69142857D01*
X139628628Y-69142857D02*
X139628628Y-68761905D01*
X139104819Y-70238095D02*
X139104819Y-69761905D01*
X139104819Y-69761905D02*
X139581009Y-69714286D01*
X139581009Y-69714286D02*
X139533390Y-69761905D01*
X139533390Y-69761905D02*
X139485771Y-69857143D01*
X139485771Y-69857143D02*
X139485771Y-70095238D01*
X139485771Y-70095238D02*
X139533390Y-70190476D01*
X139533390Y-70190476D02*
X139581009Y-70238095D01*
X139581009Y-70238095D02*
X139676247Y-70285714D01*
X139676247Y-70285714D02*
X139914342Y-70285714D01*
X139914342Y-70285714D02*
X140009580Y-70238095D01*
X140009580Y-70238095D02*
X140057200Y-70190476D01*
X140057200Y-70190476D02*
X140104819Y-70095238D01*
X140104819Y-70095238D02*
X140104819Y-69857143D01*
X140104819Y-69857143D02*
X140057200Y-69761905D01*
X140057200Y-69761905D02*
X140009580Y-69714286D01*
X116954819Y-141357142D02*
X116478628Y-141023809D01*
X116954819Y-140785714D02*
X115954819Y-140785714D01*
X115954819Y-140785714D02*
X115954819Y-141166666D01*
X115954819Y-141166666D02*
X116002438Y-141261904D01*
X116002438Y-141261904D02*
X116050057Y-141309523D01*
X116050057Y-141309523D02*
X116145295Y-141357142D01*
X116145295Y-141357142D02*
X116288152Y-141357142D01*
X116288152Y-141357142D02*
X116383390Y-141309523D01*
X116383390Y-141309523D02*
X116431009Y-141261904D01*
X116431009Y-141261904D02*
X116478628Y-141166666D01*
X116478628Y-141166666D02*
X116478628Y-140785714D01*
X116954819Y-142309523D02*
X116954819Y-141738095D01*
X116954819Y-142023809D02*
X115954819Y-142023809D01*
X115954819Y-142023809D02*
X116097676Y-141928571D01*
X116097676Y-141928571D02*
X116192914Y-141833333D01*
X116192914Y-141833333D02*
X116240533Y-141738095D01*
X115954819Y-142642857D02*
X115954819Y-143261904D01*
X115954819Y-143261904D02*
X116335771Y-142928571D01*
X116335771Y-142928571D02*
X116335771Y-143071428D01*
X116335771Y-143071428D02*
X116383390Y-143166666D01*
X116383390Y-143166666D02*
X116431009Y-143214285D01*
X116431009Y-143214285D02*
X116526247Y-143261904D01*
X116526247Y-143261904D02*
X116764342Y-143261904D01*
X116764342Y-143261904D02*
X116859580Y-143214285D01*
X116859580Y-143214285D02*
X116907200Y-143166666D01*
X116907200Y-143166666D02*
X116954819Y-143071428D01*
X116954819Y-143071428D02*
X116954819Y-142785714D01*
X116954819Y-142785714D02*
X116907200Y-142690476D01*
X116907200Y-142690476D02*
X116859580Y-142642857D01*
X146642857Y-151954819D02*
X146976190Y-151478628D01*
X147214285Y-151954819D02*
X147214285Y-150954819D01*
X147214285Y-150954819D02*
X146833333Y-150954819D01*
X146833333Y-150954819D02*
X146738095Y-151002438D01*
X146738095Y-151002438D02*
X146690476Y-151050057D01*
X146690476Y-151050057D02*
X146642857Y-151145295D01*
X146642857Y-151145295D02*
X146642857Y-151288152D01*
X146642857Y-151288152D02*
X146690476Y-151383390D01*
X146690476Y-151383390D02*
X146738095Y-151431009D01*
X146738095Y-151431009D02*
X146833333Y-151478628D01*
X146833333Y-151478628D02*
X147214285Y-151478628D01*
X145690476Y-151954819D02*
X146261904Y-151954819D01*
X145976190Y-151954819D02*
X145976190Y-150954819D01*
X145976190Y-150954819D02*
X146071428Y-151097676D01*
X146071428Y-151097676D02*
X146166666Y-151192914D01*
X146166666Y-151192914D02*
X146261904Y-151240533D01*
X144833333Y-151288152D02*
X144833333Y-151954819D01*
X145071428Y-150907200D02*
X145309523Y-151621485D01*
X145309523Y-151621485D02*
X144690476Y-151621485D01*
X115104819Y-69333333D02*
X114628628Y-69000000D01*
X115104819Y-68761905D02*
X114104819Y-68761905D01*
X114104819Y-68761905D02*
X114104819Y-69142857D01*
X114104819Y-69142857D02*
X114152438Y-69238095D01*
X114152438Y-69238095D02*
X114200057Y-69285714D01*
X114200057Y-69285714D02*
X114295295Y-69333333D01*
X114295295Y-69333333D02*
X114438152Y-69333333D01*
X114438152Y-69333333D02*
X114533390Y-69285714D01*
X114533390Y-69285714D02*
X114581009Y-69238095D01*
X114581009Y-69238095D02*
X114628628Y-69142857D01*
X114628628Y-69142857D02*
X114628628Y-68761905D01*
X114104819Y-69666667D02*
X114104819Y-70285714D01*
X114104819Y-70285714D02*
X114485771Y-69952381D01*
X114485771Y-69952381D02*
X114485771Y-70095238D01*
X114485771Y-70095238D02*
X114533390Y-70190476D01*
X114533390Y-70190476D02*
X114581009Y-70238095D01*
X114581009Y-70238095D02*
X114676247Y-70285714D01*
X114676247Y-70285714D02*
X114914342Y-70285714D01*
X114914342Y-70285714D02*
X115009580Y-70238095D01*
X115009580Y-70238095D02*
X115057200Y-70190476D01*
X115057200Y-70190476D02*
X115104819Y-70095238D01*
X115104819Y-70095238D02*
X115104819Y-69809524D01*
X115104819Y-69809524D02*
X115057200Y-69714286D01*
X115057200Y-69714286D02*
X115009580Y-69666667D01*
X123242857Y-126554819D02*
X123576190Y-126078628D01*
X123814285Y-126554819D02*
X123814285Y-125554819D01*
X123814285Y-125554819D02*
X123433333Y-125554819D01*
X123433333Y-125554819D02*
X123338095Y-125602438D01*
X123338095Y-125602438D02*
X123290476Y-125650057D01*
X123290476Y-125650057D02*
X123242857Y-125745295D01*
X123242857Y-125745295D02*
X123242857Y-125888152D01*
X123242857Y-125888152D02*
X123290476Y-125983390D01*
X123290476Y-125983390D02*
X123338095Y-126031009D01*
X123338095Y-126031009D02*
X123433333Y-126078628D01*
X123433333Y-126078628D02*
X123814285Y-126078628D01*
X122909523Y-125554819D02*
X122290476Y-125554819D01*
X122290476Y-125554819D02*
X122623809Y-125935771D01*
X122623809Y-125935771D02*
X122480952Y-125935771D01*
X122480952Y-125935771D02*
X122385714Y-125983390D01*
X122385714Y-125983390D02*
X122338095Y-126031009D01*
X122338095Y-126031009D02*
X122290476Y-126126247D01*
X122290476Y-126126247D02*
X122290476Y-126364342D01*
X122290476Y-126364342D02*
X122338095Y-126459580D01*
X122338095Y-126459580D02*
X122385714Y-126507200D01*
X122385714Y-126507200D02*
X122480952Y-126554819D01*
X122480952Y-126554819D02*
X122766666Y-126554819D01*
X122766666Y-126554819D02*
X122861904Y-126507200D01*
X122861904Y-126507200D02*
X122909523Y-126459580D01*
X121433333Y-125888152D02*
X121433333Y-126554819D01*
X121671428Y-125507200D02*
X121909523Y-126221485D01*
X121909523Y-126221485D02*
X121290476Y-126221485D01*
X118954819Y-141357142D02*
X118478628Y-141023809D01*
X118954819Y-140785714D02*
X117954819Y-140785714D01*
X117954819Y-140785714D02*
X117954819Y-141166666D01*
X117954819Y-141166666D02*
X118002438Y-141261904D01*
X118002438Y-141261904D02*
X118050057Y-141309523D01*
X118050057Y-141309523D02*
X118145295Y-141357142D01*
X118145295Y-141357142D02*
X118288152Y-141357142D01*
X118288152Y-141357142D02*
X118383390Y-141309523D01*
X118383390Y-141309523D02*
X118431009Y-141261904D01*
X118431009Y-141261904D02*
X118478628Y-141166666D01*
X118478628Y-141166666D02*
X118478628Y-140785714D01*
X118954819Y-142309523D02*
X118954819Y-141738095D01*
X118954819Y-142023809D02*
X117954819Y-142023809D01*
X117954819Y-142023809D02*
X118097676Y-141928571D01*
X118097676Y-141928571D02*
X118192914Y-141833333D01*
X118192914Y-141833333D02*
X118240533Y-141738095D01*
X117954819Y-142642857D02*
X117954819Y-143309523D01*
X117954819Y-143309523D02*
X118954819Y-142880952D01*
X128804819Y-63357142D02*
X128328628Y-63023809D01*
X128804819Y-62785714D02*
X127804819Y-62785714D01*
X127804819Y-62785714D02*
X127804819Y-63166666D01*
X127804819Y-63166666D02*
X127852438Y-63261904D01*
X127852438Y-63261904D02*
X127900057Y-63309523D01*
X127900057Y-63309523D02*
X127995295Y-63357142D01*
X127995295Y-63357142D02*
X128138152Y-63357142D01*
X128138152Y-63357142D02*
X128233390Y-63309523D01*
X128233390Y-63309523D02*
X128281009Y-63261904D01*
X128281009Y-63261904D02*
X128328628Y-63166666D01*
X128328628Y-63166666D02*
X128328628Y-62785714D01*
X127804819Y-63690476D02*
X127804819Y-64309523D01*
X127804819Y-64309523D02*
X128185771Y-63976190D01*
X128185771Y-63976190D02*
X128185771Y-64119047D01*
X128185771Y-64119047D02*
X128233390Y-64214285D01*
X128233390Y-64214285D02*
X128281009Y-64261904D01*
X128281009Y-64261904D02*
X128376247Y-64309523D01*
X128376247Y-64309523D02*
X128614342Y-64309523D01*
X128614342Y-64309523D02*
X128709580Y-64261904D01*
X128709580Y-64261904D02*
X128757200Y-64214285D01*
X128757200Y-64214285D02*
X128804819Y-64119047D01*
X128804819Y-64119047D02*
X128804819Y-63833333D01*
X128804819Y-63833333D02*
X128757200Y-63738095D01*
X128757200Y-63738095D02*
X128709580Y-63690476D01*
X127804819Y-65214285D02*
X127804819Y-64738095D01*
X127804819Y-64738095D02*
X128281009Y-64690476D01*
X128281009Y-64690476D02*
X128233390Y-64738095D01*
X128233390Y-64738095D02*
X128185771Y-64833333D01*
X128185771Y-64833333D02*
X128185771Y-65071428D01*
X128185771Y-65071428D02*
X128233390Y-65166666D01*
X128233390Y-65166666D02*
X128281009Y-65214285D01*
X128281009Y-65214285D02*
X128376247Y-65261904D01*
X128376247Y-65261904D02*
X128614342Y-65261904D01*
X128614342Y-65261904D02*
X128709580Y-65214285D01*
X128709580Y-65214285D02*
X128757200Y-65166666D01*
X128757200Y-65166666D02*
X128804819Y-65071428D01*
X128804819Y-65071428D02*
X128804819Y-64833333D01*
X128804819Y-64833333D02*
X128757200Y-64738095D01*
X128757200Y-64738095D02*
X128709580Y-64690476D01*
X133734819Y-135238095D02*
X134544342Y-135238095D01*
X134544342Y-135238095D02*
X134639580Y-135285714D01*
X134639580Y-135285714D02*
X134687200Y-135333333D01*
X134687200Y-135333333D02*
X134734819Y-135428571D01*
X134734819Y-135428571D02*
X134734819Y-135619047D01*
X134734819Y-135619047D02*
X134687200Y-135714285D01*
X134687200Y-135714285D02*
X134639580Y-135761904D01*
X134639580Y-135761904D02*
X134544342Y-135809523D01*
X134544342Y-135809523D02*
X133734819Y-135809523D01*
X133830057Y-136238095D02*
X133782438Y-136285714D01*
X133782438Y-136285714D02*
X133734819Y-136380952D01*
X133734819Y-136380952D02*
X133734819Y-136619047D01*
X133734819Y-136619047D02*
X133782438Y-136714285D01*
X133782438Y-136714285D02*
X133830057Y-136761904D01*
X133830057Y-136761904D02*
X133925295Y-136809523D01*
X133925295Y-136809523D02*
X134020533Y-136809523D01*
X134020533Y-136809523D02*
X134163390Y-136761904D01*
X134163390Y-136761904D02*
X134734819Y-136190476D01*
X134734819Y-136190476D02*
X134734819Y-136809523D01*
X110304819Y-81333333D02*
X109828628Y-81000000D01*
X110304819Y-80761905D02*
X109304819Y-80761905D01*
X109304819Y-80761905D02*
X109304819Y-81142857D01*
X109304819Y-81142857D02*
X109352438Y-81238095D01*
X109352438Y-81238095D02*
X109400057Y-81285714D01*
X109400057Y-81285714D02*
X109495295Y-81333333D01*
X109495295Y-81333333D02*
X109638152Y-81333333D01*
X109638152Y-81333333D02*
X109733390Y-81285714D01*
X109733390Y-81285714D02*
X109781009Y-81238095D01*
X109781009Y-81238095D02*
X109828628Y-81142857D01*
X109828628Y-81142857D02*
X109828628Y-80761905D01*
X110304819Y-81809524D02*
X110304819Y-82000000D01*
X110304819Y-82000000D02*
X110257200Y-82095238D01*
X110257200Y-82095238D02*
X110209580Y-82142857D01*
X110209580Y-82142857D02*
X110066723Y-82238095D01*
X110066723Y-82238095D02*
X109876247Y-82285714D01*
X109876247Y-82285714D02*
X109495295Y-82285714D01*
X109495295Y-82285714D02*
X109400057Y-82238095D01*
X109400057Y-82238095D02*
X109352438Y-82190476D01*
X109352438Y-82190476D02*
X109304819Y-82095238D01*
X109304819Y-82095238D02*
X109304819Y-81904762D01*
X109304819Y-81904762D02*
X109352438Y-81809524D01*
X109352438Y-81809524D02*
X109400057Y-81761905D01*
X109400057Y-81761905D02*
X109495295Y-81714286D01*
X109495295Y-81714286D02*
X109733390Y-81714286D01*
X109733390Y-81714286D02*
X109828628Y-81761905D01*
X109828628Y-81761905D02*
X109876247Y-81809524D01*
X109876247Y-81809524D02*
X109923866Y-81904762D01*
X109923866Y-81904762D02*
X109923866Y-82095238D01*
X109923866Y-82095238D02*
X109876247Y-82190476D01*
X109876247Y-82190476D02*
X109828628Y-82238095D01*
X109828628Y-82238095D02*
X109733390Y-82285714D01*
X146166666Y-149859580D02*
X146214285Y-149907200D01*
X146214285Y-149907200D02*
X146357142Y-149954819D01*
X146357142Y-149954819D02*
X146452380Y-149954819D01*
X146452380Y-149954819D02*
X146595237Y-149907200D01*
X146595237Y-149907200D02*
X146690475Y-149811961D01*
X146690475Y-149811961D02*
X146738094Y-149716723D01*
X146738094Y-149716723D02*
X146785713Y-149526247D01*
X146785713Y-149526247D02*
X146785713Y-149383390D01*
X146785713Y-149383390D02*
X146738094Y-149192914D01*
X146738094Y-149192914D02*
X146690475Y-149097676D01*
X146690475Y-149097676D02*
X146595237Y-149002438D01*
X146595237Y-149002438D02*
X146452380Y-148954819D01*
X146452380Y-148954819D02*
X146357142Y-148954819D01*
X146357142Y-148954819D02*
X146214285Y-149002438D01*
X146214285Y-149002438D02*
X146166666Y-149050057D01*
X145833332Y-148954819D02*
X145214285Y-148954819D01*
X145214285Y-148954819D02*
X145547618Y-149335771D01*
X145547618Y-149335771D02*
X145404761Y-149335771D01*
X145404761Y-149335771D02*
X145309523Y-149383390D01*
X145309523Y-149383390D02*
X145261904Y-149431009D01*
X145261904Y-149431009D02*
X145214285Y-149526247D01*
X145214285Y-149526247D02*
X145214285Y-149764342D01*
X145214285Y-149764342D02*
X145261904Y-149859580D01*
X145261904Y-149859580D02*
X145309523Y-149907200D01*
X145309523Y-149907200D02*
X145404761Y-149954819D01*
X145404761Y-149954819D02*
X145690475Y-149954819D01*
X145690475Y-149954819D02*
X145785713Y-149907200D01*
X145785713Y-149907200D02*
X145833332Y-149859580D01*
X116959580Y-103545833D02*
X117007200Y-103498214D01*
X117007200Y-103498214D02*
X117054819Y-103355357D01*
X117054819Y-103355357D02*
X117054819Y-103260119D01*
X117054819Y-103260119D02*
X117007200Y-103117262D01*
X117007200Y-103117262D02*
X116911961Y-103022024D01*
X116911961Y-103022024D02*
X116816723Y-102974405D01*
X116816723Y-102974405D02*
X116626247Y-102926786D01*
X116626247Y-102926786D02*
X116483390Y-102926786D01*
X116483390Y-102926786D02*
X116292914Y-102974405D01*
X116292914Y-102974405D02*
X116197676Y-103022024D01*
X116197676Y-103022024D02*
X116102438Y-103117262D01*
X116102438Y-103117262D02*
X116054819Y-103260119D01*
X116054819Y-103260119D02*
X116054819Y-103355357D01*
X116054819Y-103355357D02*
X116102438Y-103498214D01*
X116102438Y-103498214D02*
X116150057Y-103545833D01*
X117054819Y-104022024D02*
X117054819Y-104212500D01*
X117054819Y-104212500D02*
X117007200Y-104307738D01*
X117007200Y-104307738D02*
X116959580Y-104355357D01*
X116959580Y-104355357D02*
X116816723Y-104450595D01*
X116816723Y-104450595D02*
X116626247Y-104498214D01*
X116626247Y-104498214D02*
X116245295Y-104498214D01*
X116245295Y-104498214D02*
X116150057Y-104450595D01*
X116150057Y-104450595D02*
X116102438Y-104402976D01*
X116102438Y-104402976D02*
X116054819Y-104307738D01*
X116054819Y-104307738D02*
X116054819Y-104117262D01*
X116054819Y-104117262D02*
X116102438Y-104022024D01*
X116102438Y-104022024D02*
X116150057Y-103974405D01*
X116150057Y-103974405D02*
X116245295Y-103926786D01*
X116245295Y-103926786D02*
X116483390Y-103926786D01*
X116483390Y-103926786D02*
X116578628Y-103974405D01*
X116578628Y-103974405D02*
X116626247Y-104022024D01*
X116626247Y-104022024D02*
X116673866Y-104117262D01*
X116673866Y-104117262D02*
X116673866Y-104307738D01*
X116673866Y-104307738D02*
X116626247Y-104402976D01*
X116626247Y-104402976D02*
X116578628Y-104450595D01*
X116578628Y-104450595D02*
X116483390Y-104498214D01*
X120242857Y-105517319D02*
X120576190Y-105041128D01*
X120814285Y-105517319D02*
X120814285Y-104517319D01*
X120814285Y-104517319D02*
X120433333Y-104517319D01*
X120433333Y-104517319D02*
X120338095Y-104564938D01*
X120338095Y-104564938D02*
X120290476Y-104612557D01*
X120290476Y-104612557D02*
X120242857Y-104707795D01*
X120242857Y-104707795D02*
X120242857Y-104850652D01*
X120242857Y-104850652D02*
X120290476Y-104945890D01*
X120290476Y-104945890D02*
X120338095Y-104993509D01*
X120338095Y-104993509D02*
X120433333Y-105041128D01*
X120433333Y-105041128D02*
X120814285Y-105041128D01*
X119909523Y-104517319D02*
X119290476Y-104517319D01*
X119290476Y-104517319D02*
X119623809Y-104898271D01*
X119623809Y-104898271D02*
X119480952Y-104898271D01*
X119480952Y-104898271D02*
X119385714Y-104945890D01*
X119385714Y-104945890D02*
X119338095Y-104993509D01*
X119338095Y-104993509D02*
X119290476Y-105088747D01*
X119290476Y-105088747D02*
X119290476Y-105326842D01*
X119290476Y-105326842D02*
X119338095Y-105422080D01*
X119338095Y-105422080D02*
X119385714Y-105469700D01*
X119385714Y-105469700D02*
X119480952Y-105517319D01*
X119480952Y-105517319D02*
X119766666Y-105517319D01*
X119766666Y-105517319D02*
X119861904Y-105469700D01*
X119861904Y-105469700D02*
X119909523Y-105422080D01*
X118338095Y-105517319D02*
X118909523Y-105517319D01*
X118623809Y-105517319D02*
X118623809Y-104517319D01*
X118623809Y-104517319D02*
X118719047Y-104660176D01*
X118719047Y-104660176D02*
X118814285Y-104755414D01*
X118814285Y-104755414D02*
X118909523Y-104803033D01*
X143142857Y-155954819D02*
X143476190Y-155478628D01*
X143714285Y-155954819D02*
X143714285Y-154954819D01*
X143714285Y-154954819D02*
X143333333Y-154954819D01*
X143333333Y-154954819D02*
X143238095Y-155002438D01*
X143238095Y-155002438D02*
X143190476Y-155050057D01*
X143190476Y-155050057D02*
X143142857Y-155145295D01*
X143142857Y-155145295D02*
X143142857Y-155288152D01*
X143142857Y-155288152D02*
X143190476Y-155383390D01*
X143190476Y-155383390D02*
X143238095Y-155431009D01*
X143238095Y-155431009D02*
X143333333Y-155478628D01*
X143333333Y-155478628D02*
X143714285Y-155478628D01*
X142190476Y-155954819D02*
X142761904Y-155954819D01*
X142476190Y-155954819D02*
X142476190Y-154954819D01*
X142476190Y-154954819D02*
X142571428Y-155097676D01*
X142571428Y-155097676D02*
X142666666Y-155192914D01*
X142666666Y-155192914D02*
X142761904Y-155240533D01*
X141619047Y-155383390D02*
X141714285Y-155335771D01*
X141714285Y-155335771D02*
X141761904Y-155288152D01*
X141761904Y-155288152D02*
X141809523Y-155192914D01*
X141809523Y-155192914D02*
X141809523Y-155145295D01*
X141809523Y-155145295D02*
X141761904Y-155050057D01*
X141761904Y-155050057D02*
X141714285Y-155002438D01*
X141714285Y-155002438D02*
X141619047Y-154954819D01*
X141619047Y-154954819D02*
X141428571Y-154954819D01*
X141428571Y-154954819D02*
X141333333Y-155002438D01*
X141333333Y-155002438D02*
X141285714Y-155050057D01*
X141285714Y-155050057D02*
X141238095Y-155145295D01*
X141238095Y-155145295D02*
X141238095Y-155192914D01*
X141238095Y-155192914D02*
X141285714Y-155288152D01*
X141285714Y-155288152D02*
X141333333Y-155335771D01*
X141333333Y-155335771D02*
X141428571Y-155383390D01*
X141428571Y-155383390D02*
X141619047Y-155383390D01*
X141619047Y-155383390D02*
X141714285Y-155431009D01*
X141714285Y-155431009D02*
X141761904Y-155478628D01*
X141761904Y-155478628D02*
X141809523Y-155573866D01*
X141809523Y-155573866D02*
X141809523Y-155764342D01*
X141809523Y-155764342D02*
X141761904Y-155859580D01*
X141761904Y-155859580D02*
X141714285Y-155907200D01*
X141714285Y-155907200D02*
X141619047Y-155954819D01*
X141619047Y-155954819D02*
X141428571Y-155954819D01*
X141428571Y-155954819D02*
X141333333Y-155907200D01*
X141333333Y-155907200D02*
X141285714Y-155859580D01*
X141285714Y-155859580D02*
X141238095Y-155764342D01*
X141238095Y-155764342D02*
X141238095Y-155573866D01*
X141238095Y-155573866D02*
X141285714Y-155478628D01*
X141285714Y-155478628D02*
X141333333Y-155431009D01*
X141333333Y-155431009D02*
X141428571Y-155383390D01*
X143882080Y-103960833D02*
X143929700Y-103913214D01*
X143929700Y-103913214D02*
X143977319Y-103770357D01*
X143977319Y-103770357D02*
X143977319Y-103675119D01*
X143977319Y-103675119D02*
X143929700Y-103532262D01*
X143929700Y-103532262D02*
X143834461Y-103437024D01*
X143834461Y-103437024D02*
X143739223Y-103389405D01*
X143739223Y-103389405D02*
X143548747Y-103341786D01*
X143548747Y-103341786D02*
X143405890Y-103341786D01*
X143405890Y-103341786D02*
X143215414Y-103389405D01*
X143215414Y-103389405D02*
X143120176Y-103437024D01*
X143120176Y-103437024D02*
X143024938Y-103532262D01*
X143024938Y-103532262D02*
X142977319Y-103675119D01*
X142977319Y-103675119D02*
X142977319Y-103770357D01*
X142977319Y-103770357D02*
X143024938Y-103913214D01*
X143024938Y-103913214D02*
X143072557Y-103960833D01*
X142977319Y-104294167D02*
X142977319Y-104960833D01*
X142977319Y-104960833D02*
X143977319Y-104532262D01*
X132454819Y-94357142D02*
X131978628Y-94023809D01*
X132454819Y-93785714D02*
X131454819Y-93785714D01*
X131454819Y-93785714D02*
X131454819Y-94166666D01*
X131454819Y-94166666D02*
X131502438Y-94261904D01*
X131502438Y-94261904D02*
X131550057Y-94309523D01*
X131550057Y-94309523D02*
X131645295Y-94357142D01*
X131645295Y-94357142D02*
X131788152Y-94357142D01*
X131788152Y-94357142D02*
X131883390Y-94309523D01*
X131883390Y-94309523D02*
X131931009Y-94261904D01*
X131931009Y-94261904D02*
X131978628Y-94166666D01*
X131978628Y-94166666D02*
X131978628Y-93785714D01*
X131454819Y-94690476D02*
X131454819Y-95309523D01*
X131454819Y-95309523D02*
X131835771Y-94976190D01*
X131835771Y-94976190D02*
X131835771Y-95119047D01*
X131835771Y-95119047D02*
X131883390Y-95214285D01*
X131883390Y-95214285D02*
X131931009Y-95261904D01*
X131931009Y-95261904D02*
X132026247Y-95309523D01*
X132026247Y-95309523D02*
X132264342Y-95309523D01*
X132264342Y-95309523D02*
X132359580Y-95261904D01*
X132359580Y-95261904D02*
X132407200Y-95214285D01*
X132407200Y-95214285D02*
X132454819Y-95119047D01*
X132454819Y-95119047D02*
X132454819Y-94833333D01*
X132454819Y-94833333D02*
X132407200Y-94738095D01*
X132407200Y-94738095D02*
X132359580Y-94690476D01*
X131454819Y-96166666D02*
X131454819Y-95976190D01*
X131454819Y-95976190D02*
X131502438Y-95880952D01*
X131502438Y-95880952D02*
X131550057Y-95833333D01*
X131550057Y-95833333D02*
X131692914Y-95738095D01*
X131692914Y-95738095D02*
X131883390Y-95690476D01*
X131883390Y-95690476D02*
X132264342Y-95690476D01*
X132264342Y-95690476D02*
X132359580Y-95738095D01*
X132359580Y-95738095D02*
X132407200Y-95785714D01*
X132407200Y-95785714D02*
X132454819Y-95880952D01*
X132454819Y-95880952D02*
X132454819Y-96071428D01*
X132454819Y-96071428D02*
X132407200Y-96166666D01*
X132407200Y-96166666D02*
X132359580Y-96214285D01*
X132359580Y-96214285D02*
X132264342Y-96261904D01*
X132264342Y-96261904D02*
X132026247Y-96261904D01*
X132026247Y-96261904D02*
X131931009Y-96214285D01*
X131931009Y-96214285D02*
X131883390Y-96166666D01*
X131883390Y-96166666D02*
X131835771Y-96071428D01*
X131835771Y-96071428D02*
X131835771Y-95880952D01*
X131835771Y-95880952D02*
X131883390Y-95785714D01*
X131883390Y-95785714D02*
X131931009Y-95738095D01*
X131931009Y-95738095D02*
X132026247Y-95690476D01*
X146665357Y-117932319D02*
X146998690Y-117456128D01*
X147236785Y-117932319D02*
X147236785Y-116932319D01*
X147236785Y-116932319D02*
X146855833Y-116932319D01*
X146855833Y-116932319D02*
X146760595Y-116979938D01*
X146760595Y-116979938D02*
X146712976Y-117027557D01*
X146712976Y-117027557D02*
X146665357Y-117122795D01*
X146665357Y-117122795D02*
X146665357Y-117265652D01*
X146665357Y-117265652D02*
X146712976Y-117360890D01*
X146712976Y-117360890D02*
X146760595Y-117408509D01*
X146760595Y-117408509D02*
X146855833Y-117456128D01*
X146855833Y-117456128D02*
X147236785Y-117456128D01*
X145712976Y-117932319D02*
X146284404Y-117932319D01*
X145998690Y-117932319D02*
X145998690Y-116932319D01*
X145998690Y-116932319D02*
X146093928Y-117075176D01*
X146093928Y-117075176D02*
X146189166Y-117170414D01*
X146189166Y-117170414D02*
X146284404Y-117218033D01*
X145332023Y-117027557D02*
X145284404Y-116979938D01*
X145284404Y-116979938D02*
X145189166Y-116932319D01*
X145189166Y-116932319D02*
X144951071Y-116932319D01*
X144951071Y-116932319D02*
X144855833Y-116979938D01*
X144855833Y-116979938D02*
X144808214Y-117027557D01*
X144808214Y-117027557D02*
X144760595Y-117122795D01*
X144760595Y-117122795D02*
X144760595Y-117218033D01*
X144760595Y-117218033D02*
X144808214Y-117360890D01*
X144808214Y-117360890D02*
X145379642Y-117932319D01*
X145379642Y-117932319D02*
X144760595Y-117932319D01*
X108404819Y-98107142D02*
X107928628Y-97773809D01*
X108404819Y-97535714D02*
X107404819Y-97535714D01*
X107404819Y-97535714D02*
X107404819Y-97916666D01*
X107404819Y-97916666D02*
X107452438Y-98011904D01*
X107452438Y-98011904D02*
X107500057Y-98059523D01*
X107500057Y-98059523D02*
X107595295Y-98107142D01*
X107595295Y-98107142D02*
X107738152Y-98107142D01*
X107738152Y-98107142D02*
X107833390Y-98059523D01*
X107833390Y-98059523D02*
X107881009Y-98011904D01*
X107881009Y-98011904D02*
X107928628Y-97916666D01*
X107928628Y-97916666D02*
X107928628Y-97535714D01*
X107500057Y-98488095D02*
X107452438Y-98535714D01*
X107452438Y-98535714D02*
X107404819Y-98630952D01*
X107404819Y-98630952D02*
X107404819Y-98869047D01*
X107404819Y-98869047D02*
X107452438Y-98964285D01*
X107452438Y-98964285D02*
X107500057Y-99011904D01*
X107500057Y-99011904D02*
X107595295Y-99059523D01*
X107595295Y-99059523D02*
X107690533Y-99059523D01*
X107690533Y-99059523D02*
X107833390Y-99011904D01*
X107833390Y-99011904D02*
X108404819Y-98440476D01*
X108404819Y-98440476D02*
X108404819Y-99059523D01*
X107404819Y-99392857D02*
X107404819Y-100011904D01*
X107404819Y-100011904D02*
X107785771Y-99678571D01*
X107785771Y-99678571D02*
X107785771Y-99821428D01*
X107785771Y-99821428D02*
X107833390Y-99916666D01*
X107833390Y-99916666D02*
X107881009Y-99964285D01*
X107881009Y-99964285D02*
X107976247Y-100011904D01*
X107976247Y-100011904D02*
X108214342Y-100011904D01*
X108214342Y-100011904D02*
X108309580Y-99964285D01*
X108309580Y-99964285D02*
X108357200Y-99916666D01*
X108357200Y-99916666D02*
X108404819Y-99821428D01*
X108404819Y-99821428D02*
X108404819Y-99535714D01*
X108404819Y-99535714D02*
X108357200Y-99440476D01*
X108357200Y-99440476D02*
X108309580Y-99392857D01*
X141004819Y-91807142D02*
X140528628Y-91473809D01*
X141004819Y-91235714D02*
X140004819Y-91235714D01*
X140004819Y-91235714D02*
X140004819Y-91616666D01*
X140004819Y-91616666D02*
X140052438Y-91711904D01*
X140052438Y-91711904D02*
X140100057Y-91759523D01*
X140100057Y-91759523D02*
X140195295Y-91807142D01*
X140195295Y-91807142D02*
X140338152Y-91807142D01*
X140338152Y-91807142D02*
X140433390Y-91759523D01*
X140433390Y-91759523D02*
X140481009Y-91711904D01*
X140481009Y-91711904D02*
X140528628Y-91616666D01*
X140528628Y-91616666D02*
X140528628Y-91235714D01*
X140100057Y-92188095D02*
X140052438Y-92235714D01*
X140052438Y-92235714D02*
X140004819Y-92330952D01*
X140004819Y-92330952D02*
X140004819Y-92569047D01*
X140004819Y-92569047D02*
X140052438Y-92664285D01*
X140052438Y-92664285D02*
X140100057Y-92711904D01*
X140100057Y-92711904D02*
X140195295Y-92759523D01*
X140195295Y-92759523D02*
X140290533Y-92759523D01*
X140290533Y-92759523D02*
X140433390Y-92711904D01*
X140433390Y-92711904D02*
X141004819Y-92140476D01*
X141004819Y-92140476D02*
X141004819Y-92759523D01*
X140004819Y-93616666D02*
X140004819Y-93426190D01*
X140004819Y-93426190D02*
X140052438Y-93330952D01*
X140052438Y-93330952D02*
X140100057Y-93283333D01*
X140100057Y-93283333D02*
X140242914Y-93188095D01*
X140242914Y-93188095D02*
X140433390Y-93140476D01*
X140433390Y-93140476D02*
X140814342Y-93140476D01*
X140814342Y-93140476D02*
X140909580Y-93188095D01*
X140909580Y-93188095D02*
X140957200Y-93235714D01*
X140957200Y-93235714D02*
X141004819Y-93330952D01*
X141004819Y-93330952D02*
X141004819Y-93521428D01*
X141004819Y-93521428D02*
X140957200Y-93616666D01*
X140957200Y-93616666D02*
X140909580Y-93664285D01*
X140909580Y-93664285D02*
X140814342Y-93711904D01*
X140814342Y-93711904D02*
X140576247Y-93711904D01*
X140576247Y-93711904D02*
X140481009Y-93664285D01*
X140481009Y-93664285D02*
X140433390Y-93616666D01*
X140433390Y-93616666D02*
X140385771Y-93521428D01*
X140385771Y-93521428D02*
X140385771Y-93330952D01*
X140385771Y-93330952D02*
X140433390Y-93235714D01*
X140433390Y-93235714D02*
X140481009Y-93188095D01*
X140481009Y-93188095D02*
X140576247Y-93140476D01*
X129359580Y-125857142D02*
X129407200Y-125809523D01*
X129407200Y-125809523D02*
X129454819Y-125666666D01*
X129454819Y-125666666D02*
X129454819Y-125571428D01*
X129454819Y-125571428D02*
X129407200Y-125428571D01*
X129407200Y-125428571D02*
X129311961Y-125333333D01*
X129311961Y-125333333D02*
X129216723Y-125285714D01*
X129216723Y-125285714D02*
X129026247Y-125238095D01*
X129026247Y-125238095D02*
X128883390Y-125238095D01*
X128883390Y-125238095D02*
X128692914Y-125285714D01*
X128692914Y-125285714D02*
X128597676Y-125333333D01*
X128597676Y-125333333D02*
X128502438Y-125428571D01*
X128502438Y-125428571D02*
X128454819Y-125571428D01*
X128454819Y-125571428D02*
X128454819Y-125666666D01*
X128454819Y-125666666D02*
X128502438Y-125809523D01*
X128502438Y-125809523D02*
X128550057Y-125857142D01*
X129454819Y-126809523D02*
X129454819Y-126238095D01*
X129454819Y-126523809D02*
X128454819Y-126523809D01*
X128454819Y-126523809D02*
X128597676Y-126428571D01*
X128597676Y-126428571D02*
X128692914Y-126333333D01*
X128692914Y-126333333D02*
X128740533Y-126238095D01*
X129454819Y-127761904D02*
X129454819Y-127190476D01*
X129454819Y-127476190D02*
X128454819Y-127476190D01*
X128454819Y-127476190D02*
X128597676Y-127380952D01*
X128597676Y-127380952D02*
X128692914Y-127285714D01*
X128692914Y-127285714D02*
X128740533Y-127190476D01*
X113742857Y-121817319D02*
X114076190Y-121341128D01*
X114314285Y-121817319D02*
X114314285Y-120817319D01*
X114314285Y-120817319D02*
X113933333Y-120817319D01*
X113933333Y-120817319D02*
X113838095Y-120864938D01*
X113838095Y-120864938D02*
X113790476Y-120912557D01*
X113790476Y-120912557D02*
X113742857Y-121007795D01*
X113742857Y-121007795D02*
X113742857Y-121150652D01*
X113742857Y-121150652D02*
X113790476Y-121245890D01*
X113790476Y-121245890D02*
X113838095Y-121293509D01*
X113838095Y-121293509D02*
X113933333Y-121341128D01*
X113933333Y-121341128D02*
X114314285Y-121341128D01*
X112790476Y-121817319D02*
X113361904Y-121817319D01*
X113076190Y-121817319D02*
X113076190Y-120817319D01*
X113076190Y-120817319D02*
X113171428Y-120960176D01*
X113171428Y-120960176D02*
X113266666Y-121055414D01*
X113266666Y-121055414D02*
X113361904Y-121103033D01*
X112314285Y-121817319D02*
X112123809Y-121817319D01*
X112123809Y-121817319D02*
X112028571Y-121769700D01*
X112028571Y-121769700D02*
X111980952Y-121722080D01*
X111980952Y-121722080D02*
X111885714Y-121579223D01*
X111885714Y-121579223D02*
X111838095Y-121388747D01*
X111838095Y-121388747D02*
X111838095Y-121007795D01*
X111838095Y-121007795D02*
X111885714Y-120912557D01*
X111885714Y-120912557D02*
X111933333Y-120864938D01*
X111933333Y-120864938D02*
X112028571Y-120817319D01*
X112028571Y-120817319D02*
X112219047Y-120817319D01*
X112219047Y-120817319D02*
X112314285Y-120864938D01*
X112314285Y-120864938D02*
X112361904Y-120912557D01*
X112361904Y-120912557D02*
X112409523Y-121007795D01*
X112409523Y-121007795D02*
X112409523Y-121245890D01*
X112409523Y-121245890D02*
X112361904Y-121341128D01*
X112361904Y-121341128D02*
X112314285Y-121388747D01*
X112314285Y-121388747D02*
X112219047Y-121436366D01*
X112219047Y-121436366D02*
X112028571Y-121436366D01*
X112028571Y-121436366D02*
X111933333Y-121388747D01*
X111933333Y-121388747D02*
X111885714Y-121341128D01*
X111885714Y-121341128D02*
X111838095Y-121245890D01*
X117242857Y-100517319D02*
X117576190Y-100041128D01*
X117814285Y-100517319D02*
X117814285Y-99517319D01*
X117814285Y-99517319D02*
X117433333Y-99517319D01*
X117433333Y-99517319D02*
X117338095Y-99564938D01*
X117338095Y-99564938D02*
X117290476Y-99612557D01*
X117290476Y-99612557D02*
X117242857Y-99707795D01*
X117242857Y-99707795D02*
X117242857Y-99850652D01*
X117242857Y-99850652D02*
X117290476Y-99945890D01*
X117290476Y-99945890D02*
X117338095Y-99993509D01*
X117338095Y-99993509D02*
X117433333Y-100041128D01*
X117433333Y-100041128D02*
X117814285Y-100041128D01*
X116861904Y-99612557D02*
X116814285Y-99564938D01*
X116814285Y-99564938D02*
X116719047Y-99517319D01*
X116719047Y-99517319D02*
X116480952Y-99517319D01*
X116480952Y-99517319D02*
X116385714Y-99564938D01*
X116385714Y-99564938D02*
X116338095Y-99612557D01*
X116338095Y-99612557D02*
X116290476Y-99707795D01*
X116290476Y-99707795D02*
X116290476Y-99803033D01*
X116290476Y-99803033D02*
X116338095Y-99945890D01*
X116338095Y-99945890D02*
X116909523Y-100517319D01*
X116909523Y-100517319D02*
X116290476Y-100517319D01*
X115814285Y-100517319D02*
X115623809Y-100517319D01*
X115623809Y-100517319D02*
X115528571Y-100469700D01*
X115528571Y-100469700D02*
X115480952Y-100422080D01*
X115480952Y-100422080D02*
X115385714Y-100279223D01*
X115385714Y-100279223D02*
X115338095Y-100088747D01*
X115338095Y-100088747D02*
X115338095Y-99707795D01*
X115338095Y-99707795D02*
X115385714Y-99612557D01*
X115385714Y-99612557D02*
X115433333Y-99564938D01*
X115433333Y-99564938D02*
X115528571Y-99517319D01*
X115528571Y-99517319D02*
X115719047Y-99517319D01*
X115719047Y-99517319D02*
X115814285Y-99564938D01*
X115814285Y-99564938D02*
X115861904Y-99612557D01*
X115861904Y-99612557D02*
X115909523Y-99707795D01*
X115909523Y-99707795D02*
X115909523Y-99945890D01*
X115909523Y-99945890D02*
X115861904Y-100041128D01*
X115861904Y-100041128D02*
X115814285Y-100088747D01*
X115814285Y-100088747D02*
X115719047Y-100136366D01*
X115719047Y-100136366D02*
X115528571Y-100136366D01*
X115528571Y-100136366D02*
X115433333Y-100088747D01*
X115433333Y-100088747D02*
X115385714Y-100041128D01*
X115385714Y-100041128D02*
X115338095Y-99945890D01*
X128008094Y-66704184D02*
X128008094Y-65704184D01*
X128008094Y-65704184D02*
X127769999Y-65704184D01*
X127769999Y-65704184D02*
X127627142Y-65751803D01*
X127627142Y-65751803D02*
X127531904Y-65847041D01*
X127531904Y-65847041D02*
X127484285Y-65942279D01*
X127484285Y-65942279D02*
X127436666Y-66132755D01*
X127436666Y-66132755D02*
X127436666Y-66275612D01*
X127436666Y-66275612D02*
X127484285Y-66466088D01*
X127484285Y-66466088D02*
X127531904Y-66561326D01*
X127531904Y-66561326D02*
X127627142Y-66656565D01*
X127627142Y-66656565D02*
X127769999Y-66704184D01*
X127769999Y-66704184D02*
X128008094Y-66704184D01*
X127103332Y-65704184D02*
X126484285Y-65704184D01*
X126484285Y-65704184D02*
X126817618Y-66085136D01*
X126817618Y-66085136D02*
X126674761Y-66085136D01*
X126674761Y-66085136D02*
X126579523Y-66132755D01*
X126579523Y-66132755D02*
X126531904Y-66180374D01*
X126531904Y-66180374D02*
X126484285Y-66275612D01*
X126484285Y-66275612D02*
X126484285Y-66513707D01*
X126484285Y-66513707D02*
X126531904Y-66608945D01*
X126531904Y-66608945D02*
X126579523Y-66656565D01*
X126579523Y-66656565D02*
X126674761Y-66704184D01*
X126674761Y-66704184D02*
X126960475Y-66704184D01*
X126960475Y-66704184D02*
X127055713Y-66656565D01*
X127055713Y-66656565D02*
X127103332Y-66608945D01*
X124138094Y-69169104D02*
X123661904Y-69169104D01*
X124233332Y-69454819D02*
X123899999Y-68454819D01*
X123899999Y-68454819D02*
X123566666Y-69454819D01*
X128008094Y-94205454D02*
X128008094Y-93205454D01*
X128008094Y-93205454D02*
X127769999Y-93205454D01*
X127769999Y-93205454D02*
X127627142Y-93253073D01*
X127627142Y-93253073D02*
X127531904Y-93348311D01*
X127531904Y-93348311D02*
X127484285Y-93443549D01*
X127484285Y-93443549D02*
X127436666Y-93634025D01*
X127436666Y-93634025D02*
X127436666Y-93776882D01*
X127436666Y-93776882D02*
X127484285Y-93967358D01*
X127484285Y-93967358D02*
X127531904Y-94062596D01*
X127531904Y-94062596D02*
X127627142Y-94157835D01*
X127627142Y-94157835D02*
X127769999Y-94205454D01*
X127769999Y-94205454D02*
X128008094Y-94205454D01*
X126579523Y-93538787D02*
X126579523Y-94205454D01*
X126817618Y-93157835D02*
X127055713Y-93872120D01*
X127055713Y-93872120D02*
X126436666Y-93872120D01*
X130878094Y-91169104D02*
X130401904Y-91169104D01*
X130973332Y-91454819D02*
X130639999Y-90454819D01*
X130639999Y-90454819D02*
X130306666Y-91454819D01*
X136204819Y-110607142D02*
X135728628Y-110273809D01*
X136204819Y-110035714D02*
X135204819Y-110035714D01*
X135204819Y-110035714D02*
X135204819Y-110416666D01*
X135204819Y-110416666D02*
X135252438Y-110511904D01*
X135252438Y-110511904D02*
X135300057Y-110559523D01*
X135300057Y-110559523D02*
X135395295Y-110607142D01*
X135395295Y-110607142D02*
X135538152Y-110607142D01*
X135538152Y-110607142D02*
X135633390Y-110559523D01*
X135633390Y-110559523D02*
X135681009Y-110511904D01*
X135681009Y-110511904D02*
X135728628Y-110416666D01*
X135728628Y-110416666D02*
X135728628Y-110035714D01*
X135300057Y-110988095D02*
X135252438Y-111035714D01*
X135252438Y-111035714D02*
X135204819Y-111130952D01*
X135204819Y-111130952D02*
X135204819Y-111369047D01*
X135204819Y-111369047D02*
X135252438Y-111464285D01*
X135252438Y-111464285D02*
X135300057Y-111511904D01*
X135300057Y-111511904D02*
X135395295Y-111559523D01*
X135395295Y-111559523D02*
X135490533Y-111559523D01*
X135490533Y-111559523D02*
X135633390Y-111511904D01*
X135633390Y-111511904D02*
X136204819Y-110940476D01*
X136204819Y-110940476D02*
X136204819Y-111559523D01*
X135300057Y-111940476D02*
X135252438Y-111988095D01*
X135252438Y-111988095D02*
X135204819Y-112083333D01*
X135204819Y-112083333D02*
X135204819Y-112321428D01*
X135204819Y-112321428D02*
X135252438Y-112416666D01*
X135252438Y-112416666D02*
X135300057Y-112464285D01*
X135300057Y-112464285D02*
X135395295Y-112511904D01*
X135395295Y-112511904D02*
X135490533Y-112511904D01*
X135490533Y-112511904D02*
X135633390Y-112464285D01*
X135633390Y-112464285D02*
X136204819Y-111892857D01*
X136204819Y-111892857D02*
X136204819Y-112511904D01*
X114459580Y-117545833D02*
X114507200Y-117498214D01*
X114507200Y-117498214D02*
X114554819Y-117355357D01*
X114554819Y-117355357D02*
X114554819Y-117260119D01*
X114554819Y-117260119D02*
X114507200Y-117117262D01*
X114507200Y-117117262D02*
X114411961Y-117022024D01*
X114411961Y-117022024D02*
X114316723Y-116974405D01*
X114316723Y-116974405D02*
X114126247Y-116926786D01*
X114126247Y-116926786D02*
X113983390Y-116926786D01*
X113983390Y-116926786D02*
X113792914Y-116974405D01*
X113792914Y-116974405D02*
X113697676Y-117022024D01*
X113697676Y-117022024D02*
X113602438Y-117117262D01*
X113602438Y-117117262D02*
X113554819Y-117260119D01*
X113554819Y-117260119D02*
X113554819Y-117355357D01*
X113554819Y-117355357D02*
X113602438Y-117498214D01*
X113602438Y-117498214D02*
X113650057Y-117545833D01*
X113554819Y-118402976D02*
X113554819Y-118212500D01*
X113554819Y-118212500D02*
X113602438Y-118117262D01*
X113602438Y-118117262D02*
X113650057Y-118069643D01*
X113650057Y-118069643D02*
X113792914Y-117974405D01*
X113792914Y-117974405D02*
X113983390Y-117926786D01*
X113983390Y-117926786D02*
X114364342Y-117926786D01*
X114364342Y-117926786D02*
X114459580Y-117974405D01*
X114459580Y-117974405D02*
X114507200Y-118022024D01*
X114507200Y-118022024D02*
X114554819Y-118117262D01*
X114554819Y-118117262D02*
X114554819Y-118307738D01*
X114554819Y-118307738D02*
X114507200Y-118402976D01*
X114507200Y-118402976D02*
X114459580Y-118450595D01*
X114459580Y-118450595D02*
X114364342Y-118498214D01*
X114364342Y-118498214D02*
X114126247Y-118498214D01*
X114126247Y-118498214D02*
X114031009Y-118450595D01*
X114031009Y-118450595D02*
X113983390Y-118402976D01*
X113983390Y-118402976D02*
X113935771Y-118307738D01*
X113935771Y-118307738D02*
X113935771Y-118117262D01*
X113935771Y-118117262D02*
X113983390Y-118022024D01*
X113983390Y-118022024D02*
X114031009Y-117974405D01*
X114031009Y-117974405D02*
X114126247Y-117926786D01*
X138642857Y-97604819D02*
X138976190Y-97128628D01*
X139214285Y-97604819D02*
X139214285Y-96604819D01*
X139214285Y-96604819D02*
X138833333Y-96604819D01*
X138833333Y-96604819D02*
X138738095Y-96652438D01*
X138738095Y-96652438D02*
X138690476Y-96700057D01*
X138690476Y-96700057D02*
X138642857Y-96795295D01*
X138642857Y-96795295D02*
X138642857Y-96938152D01*
X138642857Y-96938152D02*
X138690476Y-97033390D01*
X138690476Y-97033390D02*
X138738095Y-97081009D01*
X138738095Y-97081009D02*
X138833333Y-97128628D01*
X138833333Y-97128628D02*
X139214285Y-97128628D01*
X138261904Y-96700057D02*
X138214285Y-96652438D01*
X138214285Y-96652438D02*
X138119047Y-96604819D01*
X138119047Y-96604819D02*
X137880952Y-96604819D01*
X137880952Y-96604819D02*
X137785714Y-96652438D01*
X137785714Y-96652438D02*
X137738095Y-96700057D01*
X137738095Y-96700057D02*
X137690476Y-96795295D01*
X137690476Y-96795295D02*
X137690476Y-96890533D01*
X137690476Y-96890533D02*
X137738095Y-97033390D01*
X137738095Y-97033390D02*
X138309523Y-97604819D01*
X138309523Y-97604819D02*
X137690476Y-97604819D01*
X136785714Y-96604819D02*
X137261904Y-96604819D01*
X137261904Y-96604819D02*
X137309523Y-97081009D01*
X137309523Y-97081009D02*
X137261904Y-97033390D01*
X137261904Y-97033390D02*
X137166666Y-96985771D01*
X137166666Y-96985771D02*
X136928571Y-96985771D01*
X136928571Y-96985771D02*
X136833333Y-97033390D01*
X136833333Y-97033390D02*
X136785714Y-97081009D01*
X136785714Y-97081009D02*
X136738095Y-97176247D01*
X136738095Y-97176247D02*
X136738095Y-97414342D01*
X136738095Y-97414342D02*
X136785714Y-97509580D01*
X136785714Y-97509580D02*
X136833333Y-97557200D01*
X136833333Y-97557200D02*
X136928571Y-97604819D01*
X136928571Y-97604819D02*
X137166666Y-97604819D01*
X137166666Y-97604819D02*
X137261904Y-97557200D01*
X137261904Y-97557200D02*
X137309523Y-97509580D01*
X123166666Y-141454819D02*
X123499999Y-140978628D01*
X123738094Y-141454819D02*
X123738094Y-140454819D01*
X123738094Y-140454819D02*
X123357142Y-140454819D01*
X123357142Y-140454819D02*
X123261904Y-140502438D01*
X123261904Y-140502438D02*
X123214285Y-140550057D01*
X123214285Y-140550057D02*
X123166666Y-140645295D01*
X123166666Y-140645295D02*
X123166666Y-140788152D01*
X123166666Y-140788152D02*
X123214285Y-140883390D01*
X123214285Y-140883390D02*
X123261904Y-140931009D01*
X123261904Y-140931009D02*
X123357142Y-140978628D01*
X123357142Y-140978628D02*
X123738094Y-140978628D01*
X122833332Y-140454819D02*
X122166666Y-140454819D01*
X122166666Y-140454819D02*
X122595237Y-141454819D01*
X145382080Y-120960832D02*
X145429700Y-120913213D01*
X145429700Y-120913213D02*
X145477319Y-120770356D01*
X145477319Y-120770356D02*
X145477319Y-120675118D01*
X145477319Y-120675118D02*
X145429700Y-120532261D01*
X145429700Y-120532261D02*
X145334461Y-120437023D01*
X145334461Y-120437023D02*
X145239223Y-120389404D01*
X145239223Y-120389404D02*
X145048747Y-120341785D01*
X145048747Y-120341785D02*
X144905890Y-120341785D01*
X144905890Y-120341785D02*
X144715414Y-120389404D01*
X144715414Y-120389404D02*
X144620176Y-120437023D01*
X144620176Y-120437023D02*
X144524938Y-120532261D01*
X144524938Y-120532261D02*
X144477319Y-120675118D01*
X144477319Y-120675118D02*
X144477319Y-120770356D01*
X144477319Y-120770356D02*
X144524938Y-120913213D01*
X144524938Y-120913213D02*
X144572557Y-120960832D01*
X144905890Y-121532261D02*
X144858271Y-121437023D01*
X144858271Y-121437023D02*
X144810652Y-121389404D01*
X144810652Y-121389404D02*
X144715414Y-121341785D01*
X144715414Y-121341785D02*
X144667795Y-121341785D01*
X144667795Y-121341785D02*
X144572557Y-121389404D01*
X144572557Y-121389404D02*
X144524938Y-121437023D01*
X144524938Y-121437023D02*
X144477319Y-121532261D01*
X144477319Y-121532261D02*
X144477319Y-121722737D01*
X144477319Y-121722737D02*
X144524938Y-121817975D01*
X144524938Y-121817975D02*
X144572557Y-121865594D01*
X144572557Y-121865594D02*
X144667795Y-121913213D01*
X144667795Y-121913213D02*
X144715414Y-121913213D01*
X144715414Y-121913213D02*
X144810652Y-121865594D01*
X144810652Y-121865594D02*
X144858271Y-121817975D01*
X144858271Y-121817975D02*
X144905890Y-121722737D01*
X144905890Y-121722737D02*
X144905890Y-121532261D01*
X144905890Y-121532261D02*
X144953509Y-121437023D01*
X144953509Y-121437023D02*
X145001128Y-121389404D01*
X145001128Y-121389404D02*
X145096366Y-121341785D01*
X145096366Y-121341785D02*
X145286842Y-121341785D01*
X145286842Y-121341785D02*
X145382080Y-121389404D01*
X145382080Y-121389404D02*
X145429700Y-121437023D01*
X145429700Y-121437023D02*
X145477319Y-121532261D01*
X145477319Y-121532261D02*
X145477319Y-121722737D01*
X145477319Y-121722737D02*
X145429700Y-121817975D01*
X145429700Y-121817975D02*
X145382080Y-121865594D01*
X145382080Y-121865594D02*
X145286842Y-121913213D01*
X145286842Y-121913213D02*
X145096366Y-121913213D01*
X145096366Y-121913213D02*
X145001128Y-121865594D01*
X145001128Y-121865594D02*
X144953509Y-121817975D01*
X144953509Y-121817975D02*
X144905890Y-121722737D01*
X120954819Y-108988095D02*
X121764342Y-108988095D01*
X121764342Y-108988095D02*
X121859580Y-109035714D01*
X121859580Y-109035714D02*
X121907200Y-109083333D01*
X121907200Y-109083333D02*
X121954819Y-109178571D01*
X121954819Y-109178571D02*
X121954819Y-109369047D01*
X121954819Y-109369047D02*
X121907200Y-109464285D01*
X121907200Y-109464285D02*
X121859580Y-109511904D01*
X121859580Y-109511904D02*
X121764342Y-109559523D01*
X121764342Y-109559523D02*
X120954819Y-109559523D01*
X120954819Y-109940476D02*
X120954819Y-110559523D01*
X120954819Y-110559523D02*
X121335771Y-110226190D01*
X121335771Y-110226190D02*
X121335771Y-110369047D01*
X121335771Y-110369047D02*
X121383390Y-110464285D01*
X121383390Y-110464285D02*
X121431009Y-110511904D01*
X121431009Y-110511904D02*
X121526247Y-110559523D01*
X121526247Y-110559523D02*
X121764342Y-110559523D01*
X121764342Y-110559523D02*
X121859580Y-110511904D01*
X121859580Y-110511904D02*
X121907200Y-110464285D01*
X121907200Y-110464285D02*
X121954819Y-110369047D01*
X121954819Y-110369047D02*
X121954819Y-110083333D01*
X121954819Y-110083333D02*
X121907200Y-109988095D01*
X121907200Y-109988095D02*
X121859580Y-109940476D01*
X113542857Y-101754819D02*
X113876190Y-101278628D01*
X114114285Y-101754819D02*
X114114285Y-100754819D01*
X114114285Y-100754819D02*
X113733333Y-100754819D01*
X113733333Y-100754819D02*
X113638095Y-100802438D01*
X113638095Y-100802438D02*
X113590476Y-100850057D01*
X113590476Y-100850057D02*
X113542857Y-100945295D01*
X113542857Y-100945295D02*
X113542857Y-101088152D01*
X113542857Y-101088152D02*
X113590476Y-101183390D01*
X113590476Y-101183390D02*
X113638095Y-101231009D01*
X113638095Y-101231009D02*
X113733333Y-101278628D01*
X113733333Y-101278628D02*
X114114285Y-101278628D01*
X113161904Y-100850057D02*
X113114285Y-100802438D01*
X113114285Y-100802438D02*
X113019047Y-100754819D01*
X113019047Y-100754819D02*
X112780952Y-100754819D01*
X112780952Y-100754819D02*
X112685714Y-100802438D01*
X112685714Y-100802438D02*
X112638095Y-100850057D01*
X112638095Y-100850057D02*
X112590476Y-100945295D01*
X112590476Y-100945295D02*
X112590476Y-101040533D01*
X112590476Y-101040533D02*
X112638095Y-101183390D01*
X112638095Y-101183390D02*
X113209523Y-101754819D01*
X113209523Y-101754819D02*
X112590476Y-101754819D01*
X111733333Y-101088152D02*
X111733333Y-101754819D01*
X111971428Y-100707200D02*
X112209523Y-101421485D01*
X112209523Y-101421485D02*
X111590476Y-101421485D01*
X147834819Y-112288095D02*
X148644342Y-112288095D01*
X148644342Y-112288095D02*
X148739580Y-112335714D01*
X148739580Y-112335714D02*
X148787200Y-112383333D01*
X148787200Y-112383333D02*
X148834819Y-112478571D01*
X148834819Y-112478571D02*
X148834819Y-112669047D01*
X148834819Y-112669047D02*
X148787200Y-112764285D01*
X148787200Y-112764285D02*
X148739580Y-112811904D01*
X148739580Y-112811904D02*
X148644342Y-112859523D01*
X148644342Y-112859523D02*
X147834819Y-112859523D01*
X148168152Y-113764285D02*
X148834819Y-113764285D01*
X147787200Y-113526190D02*
X148501485Y-113288095D01*
X148501485Y-113288095D02*
X148501485Y-113907142D01*
D14*
%TO.C,R47*%
X113052300Y-147072936D02*
X113052300Y-147527064D01*
X114522300Y-147072936D02*
X114522300Y-147527064D01*
%TO.C,U1*%
X127575000Y-156090000D02*
X129525000Y-156090000D01*
X131475000Y-156090000D02*
X129525000Y-156090000D01*
X127575000Y-147220000D02*
X129525000Y-147220000D01*
X131475000Y-147220000D02*
X129525000Y-147220000D01*
X127065000Y-156355000D02*
X126585000Y-156355000D01*
X126825000Y-156025000D01*
X127065000Y-156355000D01*
G36*
X127065000Y-156355000D02*
G01*
X126585000Y-156355000D01*
X126825000Y-156025000D01*
X127065000Y-156355000D01*
G37*
%TO.C,R8*%
X130765000Y-130227064D02*
X130765000Y-129772936D01*
X132235000Y-130227064D02*
X132235000Y-129772936D01*
%TO.C,R30*%
X142695436Y-101392500D02*
X143149564Y-101392500D01*
X142695436Y-102862500D02*
X143149564Y-102862500D01*
%TO.C,C12*%
X123761252Y-147765000D02*
X123238748Y-147765000D01*
X123761252Y-149235000D02*
X123238748Y-149235000D01*
%TO.C,R10*%
X146287500Y-123354564D02*
X146287500Y-122900436D01*
X147757500Y-123354564D02*
X147757500Y-122900436D01*
%TO.C,R38*%
X125727064Y-129265000D02*
X125272936Y-129265000D01*
X125727064Y-130735000D02*
X125272936Y-130735000D01*
%TO.C,C5*%
X122930199Y-96995000D02*
X122930199Y-97395000D01*
X123130199Y-97195000D02*
X122730199Y-97195000D01*
X125000000Y-93920000D02*
X125000000Y-98080000D01*
X125040000Y-93920000D02*
X125040000Y-98080000D01*
X125080000Y-93921000D02*
X125080000Y-98079000D01*
X125120000Y-93923000D02*
X125120000Y-98077000D01*
X125160000Y-93926000D02*
X125160000Y-98074000D01*
X125200000Y-93929000D02*
X125200000Y-95160000D01*
X125200000Y-96840000D02*
X125200000Y-98071000D01*
X125240000Y-93933000D02*
X125240000Y-95160000D01*
X125240000Y-96840000D02*
X125240000Y-98067000D01*
X125280000Y-93938000D02*
X125280000Y-95160000D01*
X125280000Y-96840000D02*
X125280000Y-98062000D01*
X125320000Y-93944000D02*
X125320000Y-95160000D01*
X125320000Y-96840000D02*
X125320000Y-98056000D01*
X125360000Y-93950000D02*
X125360000Y-95160000D01*
X125360000Y-96840000D02*
X125360000Y-98050000D01*
X125400000Y-93958000D02*
X125400000Y-95160000D01*
X125400000Y-96840000D02*
X125400000Y-98042000D01*
X125440000Y-93966000D02*
X125440000Y-95160000D01*
X125440000Y-96840000D02*
X125440000Y-98034000D01*
X125480000Y-93975000D02*
X125480000Y-95160000D01*
X125480000Y-96840000D02*
X125480000Y-98025000D01*
X125520000Y-93984000D02*
X125520000Y-95160000D01*
X125520000Y-96840000D02*
X125520000Y-98016000D01*
X125560000Y-93995000D02*
X125560000Y-95160000D01*
X125560000Y-96840000D02*
X125560000Y-98005000D01*
X125600000Y-94006000D02*
X125600000Y-95160000D01*
X125600000Y-96840000D02*
X125600000Y-97994000D01*
X125640000Y-94018000D02*
X125640000Y-95160000D01*
X125640000Y-96840000D02*
X125640000Y-97982000D01*
X125680000Y-94032000D02*
X125680000Y-95160000D01*
X125680000Y-96840000D02*
X125680000Y-97968000D01*
X125721000Y-94046000D02*
X125721000Y-95160000D01*
X125721000Y-96840000D02*
X125721000Y-97954000D01*
X125761000Y-94060000D02*
X125761000Y-95160000D01*
X125761000Y-96840000D02*
X125761000Y-97940000D01*
X125801000Y-94076000D02*
X125801000Y-95160000D01*
X125801000Y-96840000D02*
X125801000Y-97924000D01*
X125841000Y-94093000D02*
X125841000Y-95160000D01*
X125841000Y-96840000D02*
X125841000Y-97907000D01*
X125881000Y-94111000D02*
X125881000Y-95160000D01*
X125881000Y-96840000D02*
X125881000Y-97889000D01*
X125921000Y-94130000D02*
X125921000Y-95160000D01*
X125921000Y-96840000D02*
X125921000Y-97870000D01*
X125961000Y-94149000D02*
X125961000Y-95160000D01*
X125961000Y-96840000D02*
X125961000Y-97851000D01*
X126001000Y-94170000D02*
X126001000Y-95160000D01*
X126001000Y-96840000D02*
X126001000Y-97830000D01*
X126041000Y-94192000D02*
X126041000Y-95160000D01*
X126041000Y-96840000D02*
X126041000Y-97808000D01*
X126081000Y-94215000D02*
X126081000Y-95160000D01*
X126081000Y-96840000D02*
X126081000Y-97785000D01*
X126121000Y-94240000D02*
X126121000Y-95160000D01*
X126121000Y-96840000D02*
X126121000Y-97760000D01*
X126161000Y-94265000D02*
X126161000Y-95160000D01*
X126161000Y-96840000D02*
X126161000Y-97735000D01*
X126201000Y-94292000D02*
X126201000Y-95160000D01*
X126201000Y-96840000D02*
X126201000Y-97708000D01*
X126241000Y-94320000D02*
X126241000Y-95160000D01*
X126241000Y-96840000D02*
X126241000Y-97680000D01*
X126281000Y-94350000D02*
X126281000Y-95160000D01*
X126281000Y-96840000D02*
X126281000Y-97650000D01*
X126321000Y-94381000D02*
X126321000Y-95160000D01*
X126321000Y-96840000D02*
X126321000Y-97619000D01*
X126361000Y-94413000D02*
X126361000Y-95160000D01*
X126361000Y-96840000D02*
X126361000Y-97587000D01*
X126401000Y-94448000D02*
X126401000Y-95160000D01*
X126401000Y-96840000D02*
X126401000Y-97552000D01*
X126441000Y-94484000D02*
X126441000Y-95160000D01*
X126441000Y-96840000D02*
X126441000Y-97516000D01*
X126481000Y-94522000D02*
X126481000Y-95160000D01*
X126481000Y-96840000D02*
X126481000Y-97478000D01*
X126521000Y-94562000D02*
X126521000Y-95160000D01*
X126521000Y-96840000D02*
X126521000Y-97438000D01*
X126561000Y-94604000D02*
X126561000Y-95160000D01*
X126561000Y-96840000D02*
X126561000Y-97396000D01*
X126601000Y-94649000D02*
X126601000Y-95160000D01*
X126601000Y-96840000D02*
X126601000Y-97351000D01*
X126641000Y-94696000D02*
X126641000Y-95160000D01*
X126641000Y-96840000D02*
X126641000Y-97304000D01*
X126681000Y-94746000D02*
X126681000Y-95160000D01*
X126681000Y-96840000D02*
X126681000Y-97254000D01*
X126721000Y-94800000D02*
X126721000Y-95160000D01*
X126721000Y-96840000D02*
X126721000Y-97200000D01*
X126761000Y-94858000D02*
X126761000Y-95160000D01*
X126761000Y-96840000D02*
X126761000Y-97142000D01*
X126801000Y-94920000D02*
X126801000Y-95160000D01*
X126801000Y-96840000D02*
X126801000Y-97080000D01*
X126841000Y-94987000D02*
X126841000Y-97013000D01*
X126881000Y-95060000D02*
X126881000Y-96940000D01*
X126921000Y-95141000D02*
X126921000Y-96859000D01*
X126961000Y-95232000D02*
X126961000Y-96768000D01*
X127001000Y-95336000D02*
X127001000Y-96664000D01*
X127041000Y-95463000D02*
X127041000Y-96537000D01*
X127081000Y-95630000D02*
X127081000Y-96370000D01*
X127120000Y-96000000D02*
G75*
G02*
X122880000Y-96000000I-2120000J0D01*
G01*
X122880000Y-96000000D02*
G75*
G02*
X127120000Y-96000000I2120000J0D01*
G01*
%TO.C,R15*%
X116327064Y-120977500D02*
X115872936Y-120977500D01*
X116327064Y-122447500D02*
X115872936Y-122447500D01*
%TO.C,C13*%
X135238748Y-152765000D02*
X135761252Y-152765000D01*
X135238748Y-154235000D02*
X135761252Y-154235000D01*
%TO.C,R37*%
X135265000Y-136772936D02*
X135265000Y-137227064D01*
X136735000Y-136772936D02*
X136735000Y-137227064D01*
%TO.C,R11*%
X118872936Y-117977500D02*
X119327064Y-117977500D01*
X118872936Y-119447500D02*
X119327064Y-119447500D01*
%TO.C,R2*%
X133727064Y-144265000D02*
X133272936Y-144265000D01*
X133727064Y-145735000D02*
X133272936Y-145735000D01*
%TO.C,C1*%
X126265000Y-144238748D02*
X126265000Y-144761252D01*
X127735000Y-144238748D02*
X127735000Y-144761252D01*
%TO.C,C2*%
X113765000Y-138276248D02*
X113765000Y-138798752D01*
X115235000Y-138276248D02*
X115235000Y-138798752D01*
%TO.C,R32*%
X146295436Y-106342500D02*
X146749564Y-106342500D01*
X146295436Y-107812500D02*
X146749564Y-107812500D01*
%TO.C,J7*%
X124340000Y-73530000D02*
X124340000Y-86470000D01*
X124340000Y-86470000D02*
X129660000Y-86470000D01*
X129660000Y-73530000D02*
X124340000Y-73530000D01*
X129660000Y-86470000D02*
X129660000Y-73530000D01*
D15*
X129790000Y-87500000D02*
X124250000Y-87500000D01*
D14*
%TO.C,R20*%
X140249564Y-118392500D02*
X139795436Y-118392500D01*
X140249564Y-119862500D02*
X139795436Y-119862500D01*
%TO.C,R16*%
X143249564Y-122392500D02*
X142795436Y-122392500D01*
X143249564Y-123862500D02*
X142795436Y-123862500D01*
%TO.C,R4*%
X121065000Y-112422936D02*
X121065000Y-112877064D01*
X122535000Y-112422936D02*
X122535000Y-112877064D01*
%TO.C,R28*%
X140749564Y-106392500D02*
X140295436Y-106392500D01*
X140749564Y-107862500D02*
X140295436Y-107862500D01*
%TO.C,R27*%
X113327064Y-105977500D02*
X112872936Y-105977500D01*
X113327064Y-107447500D02*
X112872936Y-107447500D01*
%TO.C,R21*%
X108967500Y-112402064D02*
X108967500Y-111947936D01*
X110437500Y-112402064D02*
X110437500Y-111947936D01*
%TO.C,C10*%
X128765000Y-142261252D02*
X128765000Y-141738748D01*
X130235000Y-142261252D02*
X130235000Y-141738748D01*
%TO.C,R5*%
X137265000Y-69272936D02*
X137265000Y-69727064D01*
X138735000Y-69272936D02*
X138735000Y-69727064D01*
%TO.C,R13*%
X115765000Y-138727064D02*
X115765000Y-138272936D01*
X117235000Y-138727064D02*
X117235000Y-138272936D01*
%TO.C,R14*%
X142272936Y-150765000D02*
X142727064Y-150765000D01*
X142272936Y-152235000D02*
X142727064Y-152235000D01*
%TO.C,R3*%
X112265000Y-69272936D02*
X112265000Y-69727064D01*
X113735000Y-69272936D02*
X113735000Y-69727064D01*
%TO.C,R34*%
X122372936Y-127015000D02*
X122827064Y-127015000D01*
X122372936Y-128485000D02*
X122827064Y-128485000D01*
%TO.C,R17*%
X117765000Y-138727064D02*
X117765000Y-138272936D01*
X119235000Y-138727064D02*
X119235000Y-138272936D01*
%TO.C,R35*%
X129265000Y-65227064D02*
X129265000Y-64772936D01*
X130735000Y-65227064D02*
X130735000Y-64772936D01*
%TO.C,U2*%
X124565000Y-134050000D02*
X124565000Y-136000000D01*
X124565000Y-137950000D02*
X124565000Y-136000000D01*
X133435000Y-134050000D02*
X133435000Y-136000000D01*
X133435000Y-137950000D02*
X133435000Y-136000000D01*
X133700000Y-138940000D02*
X133370000Y-138700000D01*
X133700000Y-138460000D01*
X133700000Y-138940000D01*
G36*
X133700000Y-138940000D02*
G01*
X133370000Y-138700000D01*
X133700000Y-138460000D01*
X133700000Y-138940000D01*
G37*
%TO.C,C4*%
X122919000Y-64370000D02*
X122919000Y-63630000D01*
X122959000Y-64537000D02*
X122959000Y-63463000D01*
X122999000Y-64664000D02*
X122999000Y-63336000D01*
X123039000Y-64768000D02*
X123039000Y-63232000D01*
X123079000Y-64859000D02*
X123079000Y-63141000D01*
X123119000Y-64940000D02*
X123119000Y-63060000D01*
X123159000Y-65013000D02*
X123159000Y-62987000D01*
X123199000Y-63160000D02*
X123199000Y-62920000D01*
X123199000Y-65080000D02*
X123199000Y-64840000D01*
X123239000Y-63160000D02*
X123239000Y-62858000D01*
X123239000Y-65142000D02*
X123239000Y-64840000D01*
X123279000Y-63160000D02*
X123279000Y-62800000D01*
X123279000Y-65200000D02*
X123279000Y-64840000D01*
X123319000Y-63160000D02*
X123319000Y-62746000D01*
X123319000Y-65254000D02*
X123319000Y-64840000D01*
X123359000Y-63160000D02*
X123359000Y-62696000D01*
X123359000Y-65304000D02*
X123359000Y-64840000D01*
X123399000Y-63160000D02*
X123399000Y-62649000D01*
X123399000Y-65351000D02*
X123399000Y-64840000D01*
X123439000Y-63160000D02*
X123439000Y-62604000D01*
X123439000Y-65396000D02*
X123439000Y-64840000D01*
X123479000Y-63160000D02*
X123479000Y-62562000D01*
X123479000Y-65438000D02*
X123479000Y-64840000D01*
X123519000Y-63160000D02*
X123519000Y-62522000D01*
X123519000Y-65478000D02*
X123519000Y-64840000D01*
X123559000Y-63160000D02*
X123559000Y-62484000D01*
X123559000Y-65516000D02*
X123559000Y-64840000D01*
X123599000Y-63160000D02*
X123599000Y-62448000D01*
X123599000Y-65552000D02*
X123599000Y-64840000D01*
X123639000Y-63160000D02*
X123639000Y-62413000D01*
X123639000Y-65587000D02*
X123639000Y-64840000D01*
X123679000Y-63160000D02*
X123679000Y-62381000D01*
X123679000Y-65619000D02*
X123679000Y-64840000D01*
X123719000Y-63160000D02*
X123719000Y-62350000D01*
X123719000Y-65650000D02*
X123719000Y-64840000D01*
X123759000Y-63160000D02*
X123759000Y-62320000D01*
X123759000Y-65680000D02*
X123759000Y-64840000D01*
X123799000Y-63160000D02*
X123799000Y-62292000D01*
X123799000Y-65708000D02*
X123799000Y-64840000D01*
X123839000Y-63160000D02*
X123839000Y-62265000D01*
X123839000Y-65735000D02*
X123839000Y-64840000D01*
X123879000Y-63160000D02*
X123879000Y-62240000D01*
X123879000Y-65760000D02*
X123879000Y-64840000D01*
X123919000Y-63160000D02*
X123919000Y-62215000D01*
X123919000Y-65785000D02*
X123919000Y-64840000D01*
X123959000Y-63160000D02*
X123959000Y-62192000D01*
X123959000Y-65808000D02*
X123959000Y-64840000D01*
X123999000Y-63160000D02*
X123999000Y-62170000D01*
X123999000Y-65830000D02*
X123999000Y-64840000D01*
X124039000Y-63160000D02*
X124039000Y-62149000D01*
X124039000Y-65851000D02*
X124039000Y-64840000D01*
X124079000Y-63160000D02*
X124079000Y-62130000D01*
X124079000Y-65870000D02*
X124079000Y-64840000D01*
X124119000Y-63160000D02*
X124119000Y-62111000D01*
X124119000Y-65889000D02*
X124119000Y-64840000D01*
X124159000Y-63160000D02*
X124159000Y-62093000D01*
X124159000Y-65907000D02*
X124159000Y-64840000D01*
X124199000Y-63160000D02*
X124199000Y-62076000D01*
X124199000Y-65924000D02*
X124199000Y-64840000D01*
X124239000Y-63160000D02*
X124239000Y-62060000D01*
X124239000Y-65940000D02*
X124239000Y-64840000D01*
X124279000Y-63160000D02*
X124279000Y-62046000D01*
X124279000Y-65954000D02*
X124279000Y-64840000D01*
X124320000Y-63160000D02*
X124320000Y-62032000D01*
X124320000Y-65968000D02*
X124320000Y-64840000D01*
X124360000Y-63160000D02*
X124360000Y-62018000D01*
X124360000Y-65982000D02*
X124360000Y-64840000D01*
X124400000Y-63160000D02*
X124400000Y-62006000D01*
X124400000Y-65994000D02*
X124400000Y-64840000D01*
X124440000Y-63160000D02*
X124440000Y-61995000D01*
X124440000Y-66005000D02*
X124440000Y-64840000D01*
X124480000Y-63160000D02*
X124480000Y-61984000D01*
X124480000Y-66016000D02*
X124480000Y-64840000D01*
X124520000Y-63160000D02*
X124520000Y-61975000D01*
X124520000Y-66025000D02*
X124520000Y-64840000D01*
X124560000Y-63160000D02*
X124560000Y-61966000D01*
X124560000Y-66034000D02*
X124560000Y-64840000D01*
X124600000Y-63160000D02*
X124600000Y-61958000D01*
X124600000Y-66042000D02*
X124600000Y-64840000D01*
X124640000Y-63160000D02*
X124640000Y-61950000D01*
X124640000Y-66050000D02*
X124640000Y-64840000D01*
X124680000Y-63160000D02*
X124680000Y-61944000D01*
X124680000Y-66056000D02*
X124680000Y-64840000D01*
X124720000Y-63160000D02*
X124720000Y-61938000D01*
X124720000Y-66062000D02*
X124720000Y-64840000D01*
X124760000Y-63160000D02*
X124760000Y-61933000D01*
X124760000Y-66067000D02*
X124760000Y-64840000D01*
X124800000Y-63160000D02*
X124800000Y-61929000D01*
X124800000Y-66071000D02*
X124800000Y-64840000D01*
X124840000Y-66074000D02*
X124840000Y-61926000D01*
X124880000Y-66077000D02*
X124880000Y-61923000D01*
X124920000Y-66079000D02*
X124920000Y-61921000D01*
X124960000Y-66080000D02*
X124960000Y-61920000D01*
X125000000Y-66080000D02*
X125000000Y-61920000D01*
X126869801Y-62805000D02*
X127269801Y-62805000D01*
X127069801Y-63005000D02*
X127069801Y-62605000D01*
X127120000Y-64000000D02*
G75*
G02*
X122880000Y-64000000I-2120000J0D01*
G01*
X122880000Y-64000000D02*
G75*
G02*
X127120000Y-64000000I2120000J0D01*
G01*
%TO.C,R9*%
X110765000Y-81727064D02*
X110765000Y-81272936D01*
X112235000Y-81727064D02*
X112235000Y-81272936D01*
%TO.C,C3*%
X142761252Y-148765000D02*
X142238748Y-148765000D01*
X142761252Y-150235000D02*
X142238748Y-150235000D01*
%TO.C,C9*%
X115865000Y-106973752D02*
X115865000Y-106451248D01*
X117335000Y-106973752D02*
X117335000Y-106451248D01*
%TO.C,R31*%
X119372936Y-105977500D02*
X119827064Y-105977500D01*
X119372936Y-107447500D02*
X119827064Y-107447500D01*
%TO.C,R18*%
X142272936Y-152765000D02*
X142727064Y-152765000D01*
X142272936Y-154235000D02*
X142727064Y-154235000D01*
%TO.C,C7*%
X142825000Y-107388752D02*
X142825000Y-106866248D01*
X144295000Y-107388752D02*
X144295000Y-106866248D01*
%TO.C,R36*%
X129265000Y-95227064D02*
X129265000Y-94772936D01*
X130735000Y-95227064D02*
X130735000Y-94772936D01*
%TO.C,R12*%
X145795436Y-118392500D02*
X146249564Y-118392500D01*
X145795436Y-119862500D02*
X146249564Y-119862500D01*
%TO.C,R23*%
X108865000Y-98977064D02*
X108865000Y-98522936D01*
X110335000Y-98977064D02*
X110335000Y-98522936D01*
%TO.C,R26*%
X138165000Y-92222936D02*
X138165000Y-92677064D01*
X139635000Y-92222936D02*
X139635000Y-92677064D01*
%TO.C,R6*%
X137265000Y-65272936D02*
X137265000Y-65727064D01*
X138735000Y-65272936D02*
X138735000Y-65727064D01*
%TO.C,C11*%
X128265000Y-129761252D02*
X128265000Y-129238748D01*
X129735000Y-129761252D02*
X129735000Y-129238748D01*
%TO.C,R19*%
X113327064Y-118977500D02*
X112872936Y-118977500D01*
X113327064Y-120447500D02*
X112872936Y-120447500D01*
%TO.C,R29*%
X116372936Y-100977500D02*
X116827064Y-100977500D01*
X116372936Y-102447500D02*
X116827064Y-102447500D01*
%TO.C,D3*%
X127228847Y-67900000D02*
G75*
G02*
X127288449Y-70167366I1311153J-1100000D01*
G01*
%TO.C,D4*%
X127311153Y-92100000D02*
G75*
G02*
X127251551Y-89832634I-1311153J1100000D01*
G01*
%TO.C,R22*%
X136665000Y-111477064D02*
X136665000Y-111022936D01*
X138135000Y-111477064D02*
X138135000Y-111022936D01*
%TO.C,C6*%
X115365000Y-118973752D02*
X115365000Y-118451248D01*
X116835000Y-118973752D02*
X116835000Y-118451248D01*
%TO.C,R25*%
X138227064Y-94765000D02*
X137772936Y-94765000D01*
X138227064Y-96235000D02*
X137772936Y-96235000D01*
%TO.C,R7*%
X123227064Y-141765000D02*
X122772936Y-141765000D01*
X123227064Y-143235000D02*
X122772936Y-143235000D01*
%TO.C,C8*%
X142325000Y-119388752D02*
X142325000Y-118866248D01*
X143795000Y-119388752D02*
X143795000Y-118866248D01*
%TO.C,U3*%
X111767500Y-110725000D02*
X111767500Y-112675000D01*
X111767500Y-114625000D02*
X111767500Y-112675000D01*
X120637500Y-110725000D02*
X120637500Y-112675000D01*
X120637500Y-114625000D02*
X120637500Y-112675000D01*
X120902500Y-115615000D02*
X120572500Y-115375000D01*
X120902500Y-115135000D01*
X120902500Y-115615000D01*
G36*
X120902500Y-115615000D02*
G01*
X120572500Y-115375000D01*
X120902500Y-115135000D01*
X120902500Y-115615000D01*
G37*
%TO.C,R24*%
X113127064Y-98915000D02*
X112672936Y-98915000D01*
X113127064Y-100385000D02*
X112672936Y-100385000D01*
%TO.C,U4*%
X138665000Y-111100000D02*
X138665000Y-113050000D01*
X138665000Y-115000000D02*
X138665000Y-113050000D01*
X147535000Y-111100000D02*
X147535000Y-113050000D01*
X147535000Y-115000000D02*
X147535000Y-113050000D01*
X147800000Y-115990000D02*
X147470000Y-115750000D01*
X147800000Y-115510000D01*
X147800000Y-115990000D01*
G36*
X147800000Y-115990000D02*
G01*
X147470000Y-115750000D01*
X147800000Y-115510000D01*
X147800000Y-115990000D01*
G37*
%TD*%
M02*
