M48
; DRILL file {KiCad 8.0.2-8.0.2-0~ubuntu22.04.1} date 2024-06-16T11:06:52+0200
; FORMAT={-:-/ absolute / inch / decimal}
; #@! TF.CreationDate,2024-06-16T11:06:52+02:00
; #@! TF.GenerationSoftware,Kicad,Pcbnew,8.0.2-8.0.2-0~ubuntu22.04.1
; #@! TF.FileFunction,Plated,1,2,PTH
FMAT,2
INCH
; #@! TA.AperFunction,Plated,PTH,ViaDrill
T1C0.0118
; #@! TA.AperFunction,Plated,PTH,ComponentDrill
T2C0.0236
; #@! TA.AperFunction,Plated,PTH,ComponentDrill
T3C0.0350
; #@! TA.AperFunction,Plated,PTH,ComponentDrill
T4C0.0354
; #@! TA.AperFunction,Plated,PTH,ComponentDrill
T5C0.0394
; #@! TA.AperFunction,Plated,PTH,ComponentDrill
T6C0.0433
; #@! TA.AperFunction,Plated,PTH,ComponentDrill
T7C0.0450
%
G90
G05
T1
X4.2992Y-3.4232
X4.315Y-4.1004
X4.3228Y-3.2854
X4.3228Y-4.6358
X4.3425Y-3.0217
X4.4129Y-6.0522
X4.4291Y-5.3091
X4.4685Y-6.3799
X4.4843Y-4.8917
X4.5039Y-4.4311
X4.5079Y-4.628
X4.5118Y-4.128
X4.5231Y-5.6181
X4.5236Y-3.7028
X4.5276Y-5.9705
X4.5394Y-4.065
X4.5945Y-4.1004
X4.622Y-4.4587
X4.6221Y-4.6112
X4.6378Y-4.0531
X4.6575Y-4.8563
X4.6614Y-4.1358
X4.6658Y-5.7992
X4.6845Y-5.8622
X4.685Y-4.4744
X4.7126Y-4.4429
X4.7244Y-6.0689
X4.7298Y-4.3967
X4.7362Y-2.8327
X4.7402Y-5.3248
X4.752Y-3.876
X4.7795Y-4.6673
X4.7953Y-4.4311
X4.8031Y-4.6004
X4.8661Y-4.2421
X4.8661Y-4.6713
X4.874Y-4.0374
X4.8858Y-4.4941
X4.8898Y-4.3169
X4.9055Y-4.6004
X4.9094Y-4.9193
X4.9139Y-5.9892
X4.9404Y-5.8031
X4.9409Y-5.6673
X4.9764Y-3.6909
X5.0039Y-4.4508
X5.0118Y-5.0492
X5.0354Y-4.0768
X5.0354Y-4.372
X5.0433Y-5.5728
X5.063Y-3.8957
X5.0704Y-5.8711
X5.0787Y-5.3484
X5.0819Y-4.954
X5.0945Y-2.8406
X5.1024Y-5.9587
X5.1102Y-6.3878
X5.1181Y-5.7461
X5.1378Y-4.3287
X5.1417Y-4.2146
X5.1496Y-4.4154
X5.1535Y-4.8012
X5.1535Y-5.3957
X5.1693Y-4.1083
X5.1713Y-5.5118
X5.1772Y-3.7894
X5.1929Y-5.6161
X5.2087Y-4.5453
X5.248Y-5.0138
X5.252Y-5.1043
X5.2795Y-3.9941
X5.2835Y-5.3248
X5.2953Y-5.9469
X5.3031Y-4.2185
X5.311Y-4.8799
X5.3189Y-5.2894
X5.3189Y-6.128
X5.3228Y-3.2933
X5.3307Y-5.0374
X5.3465Y-4.9665
X5.3583Y-3.0138
X5.378Y-4.502
X5.4173Y-5.2894
X5.4409Y-3.8996
X5.4528Y-4.9508
X5.4646Y-2.935
X5.4685Y-5.8406
X5.4803Y-4.1319
X5.5197Y-5.2146
X5.5354Y-4.0768
X5.5472Y-5.7382
X5.5575Y-4.6398
X5.5669Y-5.5217
X5.5748Y-4.7697
X5.5827Y-4.1566
X5.5866Y-4.6122
X5.6417Y-3.2894
X5.6417Y-4.4508
X5.6457Y-4.1004
X5.6535Y-6.3878
X5.7087Y-2.9941
X5.7087Y-4.435
X5.7205Y-4.7776
X5.7638Y-3.9783
X5.8622Y-4.8327
T2
X4.8819Y-2.5197
X4.8819Y-3.7795
X4.9606Y-2.5197
X4.9606Y-3.7795
T3
X4.8333Y-5.1969
X5.8181Y-5.1969
X5.8181Y-5.7087
X5.8181Y-6.2205
T4
X4.8055Y-4.7815
X4.9055Y-4.7815
X5.2927Y-4.7815
X5.3927Y-4.7815
T5
X4.311Y-2.5787
X4.311Y-2.6772
X4.311Y-2.7756
X4.311Y-3.563
X4.311Y-3.6614
X4.311Y-3.7598
X4.95Y-2.9496
X4.95Y-3.0496
X4.95Y-3.1496
X4.95Y-3.2496
X4.95Y-3.3496
X5.05Y-2.9496
X5.05Y-3.0496
X5.05Y-3.1496
X5.05Y-3.2496
X5.05Y-3.3496
X5.2953Y-2.5787
X5.2953Y-2.6772
X5.2953Y-2.7756
X5.2953Y-3.563
X5.2953Y-3.6614
X5.2953Y-3.7598
T6
X4.9606Y-2.7165
X4.9606Y-3.5827
X5.0606Y-2.7165
X5.0606Y-3.5827
T7
X4.4013Y-5.1969
X4.7383Y-5.1969
X5.3861Y-5.1969
X5.3861Y-5.7087
X5.3861Y-6.2205
X5.7231Y-5.1969
X5.7231Y-5.7087
X5.7231Y-6.2205
T2
G00X4.4121Y-5.7283
M15
G01X4.4121Y-5.689
M16
G05
G00X4.4131Y-6.2402
M15
G01X4.4131Y-6.2008
M16
G05
G00X4.7389Y-5.7283
M15
G01X4.7389Y-5.689
M16
G05
G00X4.7399Y-6.2402
M15
G01X4.7399Y-6.2008
M16
G05
G00X4.8609Y-5.7283
M15
G01X4.8609Y-5.689
M16
G05
G00X4.8619Y-6.2402
M15
G01X4.8619Y-6.2008
M16
G05
T6
G00X4.5925Y-2.4882
M15
G01X4.6201Y-2.4882
M16
G05
G00X4.5925Y-2.8661
M15
G01X4.6201Y-2.8661
M16
G05
G00X4.5925Y-3.4724
M15
G01X4.6201Y-3.4724
M16
G05
G00X4.5925Y-3.8504
M15
G01X4.6201Y-3.8504
M16
G05
G00X5.5768Y-2.4882
M15
G01X5.6043Y-2.4882
M16
G05
G00X5.5768Y-2.8661
M15
G01X5.6043Y-2.8661
M16
G05
G00X5.5768Y-3.4724
M15
G01X5.6043Y-3.4724
M16
G05
G00X5.5768Y-3.8504
M15
G01X5.6043Y-3.8504
M16
G05
M30
