%TF.GenerationSoftware,KiCad,Pcbnew,8.0.3-8.0.3-0~ubuntu22.04.1*%
%TF.CreationDate,2024-07-16T20:33:00+02:00*%
%TF.ProjectId,VCA_Panner,5643415f-5061-46e6-9e65-722e6b696361,rev?*%
%TF.SameCoordinates,Original*%
%TF.FileFunction,Soldermask,Top*%
%TF.FilePolarity,Negative*%
%FSLAX46Y46*%
G04 Gerber Fmt 4.6, Leading zero omitted, Abs format (unit mm)*
G04 Created by KiCad (PCBNEW 8.0.3-8.0.3-0~ubuntu22.04.1) date 2024-07-16 20:33:00*
%MOMM*%
%LPD*%
G01*
G04 APERTURE LIST*
G04 Aperture macros list*
%AMRoundRect*
0 Rectangle with rounded corners*
0 $1 Rounding radius*
0 $2 $3 $4 $5 $6 $7 $8 $9 X,Y pos of 4 corners*
0 Add a 4 corners polygon primitive as box body*
4,1,4,$2,$3,$4,$5,$6,$7,$8,$9,$2,$3,0*
0 Add four circle primitives for the rounded corners*
1,1,$1+$1,$2,$3*
1,1,$1+$1,$4,$5*
1,1,$1+$1,$6,$7*
1,1,$1+$1,$8,$9*
0 Add four rect primitives between the rounded corners*
20,1,$1+$1,$2,$3,$4,$5,0*
20,1,$1+$1,$4,$5,$6,$7,0*
20,1,$1+$1,$6,$7,$8,$9,0*
20,1,$1+$1,$8,$9,$2,$3,0*%
G04 Aperture macros list end*
%ADD10C,1.930400*%
%ADD11RoundRect,0.250000X0.450000X-0.350000X0.450000X0.350000X-0.450000X0.350000X-0.450000X-0.350000X0*%
%ADD12RoundRect,0.650000X0.650000X-0.650000X0.650000X0.650000X-0.650000X0.650000X-0.650000X-0.650000X0*%
%ADD13O,2.100000X3.100000*%
%ADD14O,3.240000X2.720000*%
%ADD15R,1.800000X1.800000*%
%ADD16C,1.800000*%
%ADD17RoundRect,0.250000X-0.350000X-0.450000X0.350000X-0.450000X0.350000X0.450000X-0.350000X0.450000X0*%
%ADD18RoundRect,0.150000X-0.725000X-0.150000X0.725000X-0.150000X0.725000X0.150000X-0.725000X0.150000X0*%
%ADD19RoundRect,0.250000X0.350000X0.450000X-0.350000X0.450000X-0.350000X-0.450000X0.350000X-0.450000X0*%
%ADD20R,1.200000X1.200000*%
%ADD21C,1.200000*%
%ADD22O,1.700000X1.700000*%
%ADD23R,2.200000X2.200000*%
%ADD24O,2.200000X2.200000*%
G04 APERTURE END LIST*
D10*
%TO.C,J3*%
X122787300Y-145000000D03*
X111814500Y-145000000D03*
X120374300Y-145000000D03*
%TD*%
D11*
%TO.C,R44*%
X139300000Y-123550000D03*
X139300000Y-121550000D03*
%TD*%
D12*
%TO.C,J5*%
X120392700Y-158000000D03*
D13*
X123492700Y-158000000D03*
D12*
X112092700Y-158000000D03*
%TD*%
D14*
%TO.C,RV2*%
X142000000Y-63200000D03*
X142000000Y-72800000D03*
D15*
X134500000Y-65500000D03*
D16*
X134500000Y-68000000D03*
X134500000Y-70500000D03*
%TD*%
D15*
%TO.C,D8*%
X136975000Y-121450000D03*
D16*
X134435000Y-121450000D03*
%TD*%
D11*
%TO.C,R33*%
X129000000Y-130500000D03*
X129000000Y-128500000D03*
%TD*%
D14*
%TO.C,RV3*%
X117000000Y-88200000D03*
X117000000Y-97800000D03*
D15*
X109500000Y-90500000D03*
D16*
X109500000Y-93000000D03*
X109500000Y-95500000D03*
%TD*%
D10*
%TO.C,J2*%
X147778500Y-132000000D03*
X136805700Y-132000000D03*
X145365500Y-132000000D03*
%TD*%
D11*
%TO.C,R43*%
X132100000Y-125150000D03*
X132100000Y-123150000D03*
%TD*%
D17*
%TO.C,R46*%
X132300000Y-132250000D03*
X134300000Y-132250000D03*
%TD*%
D15*
%TO.C,D6*%
X124600000Y-121450000D03*
D16*
X122060000Y-121450000D03*
%TD*%
D18*
%TO.C,U5*%
X126900000Y-117210000D03*
X126900000Y-118480000D03*
X126900000Y-119750000D03*
X126900000Y-121020000D03*
X132050000Y-121020000D03*
X132050000Y-119750000D03*
X132050000Y-118480000D03*
X132050000Y-117210000D03*
%TD*%
D11*
%TO.C,R39*%
X127000000Y-142500000D03*
X127000000Y-140500000D03*
%TD*%
D19*
%TO.C,R40*%
X132100000Y-135850000D03*
X130100000Y-135850000D03*
%TD*%
D10*
%TO.C,J4*%
X147778500Y-145000000D03*
X136805700Y-145000000D03*
X145365500Y-145000000D03*
%TD*%
%TO.C,J6*%
X147778500Y-158000000D03*
X136805700Y-158000000D03*
X145365500Y-158000000D03*
%TD*%
D11*
%TO.C,R42*%
X127100000Y-124750000D03*
X127100000Y-122750000D03*
%TD*%
%TO.C,R45*%
X122800000Y-136650000D03*
X122800000Y-134650000D03*
%TD*%
D14*
%TO.C,RV4*%
X142000000Y-88200000D03*
X142000000Y-97800000D03*
D15*
X134500000Y-90500000D03*
D16*
X134500000Y-93000000D03*
X134500000Y-95500000D03*
%TD*%
D10*
%TO.C,J1*%
X122765800Y-132000000D03*
X111793000Y-132000000D03*
X120352800Y-132000000D03*
%TD*%
D14*
%TO.C,RV1*%
X117000000Y-63200000D03*
X117000000Y-72800000D03*
D15*
X109500000Y-65500000D03*
D16*
X109500000Y-68000000D03*
X109500000Y-70500000D03*
%TD*%
D11*
%TO.C,R41*%
X119600000Y-121850000D03*
X119600000Y-119850000D03*
%TD*%
D20*
%TO.C,C5*%
X124000000Y-96000000D03*
D21*
X126000000Y-96000000D03*
%TD*%
D22*
%TO.C,J7*%
X125730000Y-85080000D03*
X128270000Y-85080000D03*
X125730000Y-82540000D03*
X128270000Y-82540000D03*
X125730000Y-80000000D03*
X128270000Y-80000000D03*
X125730000Y-77460000D03*
X128270000Y-77460000D03*
X125730000Y-74920000D03*
X128270000Y-74920000D03*
%TD*%
D20*
%TO.C,C4*%
X126000000Y-64000000D03*
D21*
X124000000Y-64000000D03*
%TD*%
D23*
%TO.C,D3*%
X128540000Y-69000000D03*
D24*
X126000000Y-69000000D03*
%TD*%
D23*
%TO.C,D4*%
X126000000Y-91000000D03*
D24*
X128540000Y-91000000D03*
%TD*%
M02*
