%TF.GenerationSoftware,KiCad,Pcbnew,8.0.2-8.0.2-0~ubuntu22.04.1*%
%TF.CreationDate,2024-06-16T11:06:49+02:00*%
%TF.ProjectId,VCA_Panner,5643415f-5061-46e6-9e65-722e6b696361,rev?*%
%TF.SameCoordinates,Original*%
%TF.FileFunction,Soldermask,Bot*%
%TF.FilePolarity,Negative*%
%FSLAX46Y46*%
G04 Gerber Fmt 4.6, Leading zero omitted, Abs format (unit mm)*
G04 Created by KiCad (PCBNEW 8.0.2-8.0.2-0~ubuntu22.04.1) date 2024-06-16 11:06:49*
%MOMM*%
%LPD*%
G01*
G04 APERTURE LIST*
G04 Aperture macros list*
%AMRoundRect*
0 Rectangle with rounded corners*
0 $1 Rounding radius*
0 $2 $3 $4 $5 $6 $7 $8 $9 X,Y pos of 4 corners*
0 Add a 4 corners polygon primitive as box body*
4,1,4,$2,$3,$4,$5,$6,$7,$8,$9,$2,$3,0*
0 Add four circle primitives for the rounded corners*
1,1,$1+$1,$2,$3*
1,1,$1+$1,$4,$5*
1,1,$1+$1,$6,$7*
1,1,$1+$1,$8,$9*
0 Add four rect primitives between the rounded corners*
20,1,$1+$1,$2,$3,$4,$5,0*
20,1,$1+$1,$4,$5,$6,$7,0*
20,1,$1+$1,$6,$7,$8,$9,0*
20,1,$1+$1,$8,$9,$2,$3,0*%
G04 Aperture macros list end*
%ADD10RoundRect,0.650000X0.650000X-0.650000X0.650000X0.650000X-0.650000X0.650000X-0.650000X-0.650000X0*%
%ADD11O,2.100000X3.100000*%
%ADD12O,3.240000X2.720000*%
%ADD13R,1.800000X1.800000*%
%ADD14C,1.800000*%
%ADD15C,1.930400*%
%ADD16RoundRect,0.150000X-0.825000X-0.150000X0.825000X-0.150000X0.825000X0.150000X-0.825000X0.150000X0*%
%ADD17RoundRect,0.250000X-0.450000X0.350000X-0.450000X-0.350000X0.450000X-0.350000X0.450000X0.350000X0*%
%ADD18RoundRect,0.250000X0.350000X0.450000X-0.350000X0.450000X-0.350000X-0.450000X0.350000X-0.450000X0*%
%ADD19RoundRect,0.250000X-0.337500X-0.475000X0.337500X-0.475000X0.337500X0.475000X-0.337500X0.475000X0*%
%ADD20RoundRect,0.250000X-0.350000X-0.450000X0.350000X-0.450000X0.350000X0.450000X-0.350000X0.450000X0*%
%ADD21R,1.200000X1.200000*%
%ADD22C,1.200000*%
%ADD23RoundRect,0.250000X0.337500X0.475000X-0.337500X0.475000X-0.337500X-0.475000X0.337500X-0.475000X0*%
%ADD24RoundRect,0.250000X0.450000X-0.350000X0.450000X0.350000X-0.450000X0.350000X-0.450000X-0.350000X0*%
%ADD25RoundRect,0.250000X0.475000X-0.337500X0.475000X0.337500X-0.475000X0.337500X-0.475000X-0.337500X0*%
%ADD26O,1.700000X1.700000*%
%ADD27RoundRect,0.250000X-0.475000X0.337500X-0.475000X-0.337500X0.475000X-0.337500X0.475000X0.337500X0*%
%ADD28RoundRect,0.150000X0.150000X-0.825000X0.150000X0.825000X-0.150000X0.825000X-0.150000X-0.825000X0*%
%ADD29R,2.200000X2.200000*%
%ADD30O,2.200000X2.200000*%
G04 APERTURE END LIST*
D10*
%TO.C,J5*%
X120392700Y-158000000D03*
D11*
X123492700Y-158000000D03*
D10*
X112092700Y-158000000D03*
%TD*%
D12*
%TO.C,RV2*%
X142000000Y-63200000D03*
X142000000Y-72800000D03*
D13*
X134500000Y-65500000D03*
D14*
X134500000Y-68000000D03*
X134500000Y-70500000D03*
%TD*%
D13*
%TO.C,D8*%
X136975000Y-121450000D03*
D14*
X134435000Y-121450000D03*
%TD*%
D12*
%TO.C,RV3*%
X117000000Y-88200000D03*
X117000000Y-97800000D03*
D13*
X109500000Y-90500000D03*
D14*
X109500000Y-93000000D03*
X109500000Y-95500000D03*
%TD*%
D15*
%TO.C,J2*%
X147778500Y-132000000D03*
X136805700Y-132000000D03*
X145365500Y-132000000D03*
%TD*%
D13*
%TO.C,D6*%
X124600000Y-121450000D03*
D14*
X122060000Y-121450000D03*
%TD*%
D15*
%TO.C,J4*%
X147778500Y-145000000D03*
X136805700Y-145000000D03*
X145365500Y-145000000D03*
%TD*%
%TO.C,J6*%
X147778500Y-158000000D03*
X136805700Y-158000000D03*
X145365500Y-158000000D03*
%TD*%
D10*
%TO.C,J3*%
X120367300Y-145000000D03*
D11*
X123467300Y-145000000D03*
D10*
X112067300Y-145000000D03*
%TD*%
D12*
%TO.C,RV4*%
X142000000Y-88200000D03*
X142000000Y-97800000D03*
D13*
X134500000Y-90500000D03*
D14*
X134500000Y-93000000D03*
X134500000Y-95500000D03*
%TD*%
D15*
%TO.C,J1*%
X122765800Y-132000000D03*
X111793000Y-132000000D03*
X120352800Y-132000000D03*
%TD*%
D12*
%TO.C,RV1*%
X117000000Y-63200000D03*
X117000000Y-72800000D03*
D13*
X109500000Y-65500000D03*
D14*
X109500000Y-68000000D03*
X109500000Y-70500000D03*
%TD*%
D16*
%TO.C,U1*%
X127050000Y-156100000D03*
X127050000Y-154830000D03*
X127050000Y-153560000D03*
X127050000Y-152290000D03*
X127050000Y-151020000D03*
X127050000Y-149750000D03*
X127050000Y-148480000D03*
X127050000Y-147210000D03*
X132000000Y-147210000D03*
X132000000Y-148480000D03*
X132000000Y-149750000D03*
X132000000Y-151020000D03*
X132000000Y-152290000D03*
X132000000Y-153560000D03*
X132000000Y-154830000D03*
X132000000Y-156100000D03*
%TD*%
D17*
%TO.C,R8*%
X131500000Y-129000000D03*
X131500000Y-131000000D03*
%TD*%
D18*
%TO.C,R30*%
X143922500Y-102127500D03*
X141922500Y-102127500D03*
%TD*%
D19*
%TO.C,C12*%
X122462500Y-148500000D03*
X124537500Y-148500000D03*
%TD*%
D17*
%TO.C,R10*%
X147022500Y-122127500D03*
X147022500Y-124127500D03*
%TD*%
D20*
%TO.C,R38*%
X124500000Y-130000000D03*
X126500000Y-130000000D03*
%TD*%
D21*
%TO.C,C5*%
X124000000Y-96000000D03*
D22*
X126000000Y-96000000D03*
%TD*%
D20*
%TO.C,R15*%
X115100000Y-121712500D03*
X117100000Y-121712500D03*
%TD*%
D23*
%TO.C,C13*%
X136537500Y-153500000D03*
X134462500Y-153500000D03*
%TD*%
D24*
%TO.C,R37*%
X136000000Y-138000000D03*
X136000000Y-136000000D03*
%TD*%
D18*
%TO.C,R11*%
X120100000Y-118712500D03*
X118100000Y-118712500D03*
%TD*%
D20*
%TO.C,R2*%
X132500000Y-145000000D03*
X134500000Y-145000000D03*
%TD*%
D25*
%TO.C,C1*%
X127000000Y-145537500D03*
X127000000Y-143462500D03*
%TD*%
%TO.C,C2*%
X114500000Y-139575000D03*
X114500000Y-137500000D03*
%TD*%
D18*
%TO.C,R32*%
X147522500Y-107077500D03*
X145522500Y-107077500D03*
%TD*%
D26*
%TO.C,J7*%
X125730000Y-85080000D03*
X128270000Y-85080000D03*
X125730000Y-82540000D03*
X128270000Y-82540000D03*
X125730000Y-80000000D03*
X128270000Y-80000000D03*
X125730000Y-77460000D03*
X128270000Y-77460000D03*
X125730000Y-74920000D03*
X128270000Y-74920000D03*
%TD*%
D20*
%TO.C,R20*%
X139022500Y-119127500D03*
X141022500Y-119127500D03*
%TD*%
%TO.C,R16*%
X142022500Y-123127500D03*
X144022500Y-123127500D03*
%TD*%
D24*
%TO.C,R4*%
X121800000Y-113650000D03*
X121800000Y-111650000D03*
%TD*%
D20*
%TO.C,R28*%
X139522500Y-107127500D03*
X141522500Y-107127500D03*
%TD*%
%TO.C,R27*%
X112100000Y-106712500D03*
X114100000Y-106712500D03*
%TD*%
D17*
%TO.C,R21*%
X109702500Y-111175000D03*
X109702500Y-113175000D03*
%TD*%
D27*
%TO.C,C10*%
X129500000Y-140962500D03*
X129500000Y-143037500D03*
%TD*%
D24*
%TO.C,R5*%
X138000000Y-70500000D03*
X138000000Y-68500000D03*
%TD*%
D17*
%TO.C,R13*%
X116500000Y-137500000D03*
X116500000Y-139500000D03*
%TD*%
D18*
%TO.C,R14*%
X143500000Y-151500000D03*
X141500000Y-151500000D03*
%TD*%
D24*
%TO.C,R3*%
X113000000Y-70500000D03*
X113000000Y-68500000D03*
%TD*%
D18*
%TO.C,R34*%
X123600000Y-127750000D03*
X121600000Y-127750000D03*
%TD*%
D17*
%TO.C,R17*%
X118500000Y-137500000D03*
X118500000Y-139500000D03*
%TD*%
%TO.C,R35*%
X130000000Y-64000000D03*
X130000000Y-66000000D03*
%TD*%
D28*
%TO.C,U2*%
X132810000Y-138475000D03*
X131540000Y-138475000D03*
X130270000Y-138475000D03*
X129000000Y-138475000D03*
X127730000Y-138475000D03*
X126460000Y-138475000D03*
X125190000Y-138475000D03*
X125190000Y-133525000D03*
X126460000Y-133525000D03*
X127730000Y-133525000D03*
X129000000Y-133525000D03*
X130270000Y-133525000D03*
X131540000Y-133525000D03*
X132810000Y-133525000D03*
%TD*%
D21*
%TO.C,C4*%
X126000000Y-64000000D03*
D22*
X124000000Y-64000000D03*
%TD*%
D17*
%TO.C,R9*%
X111500000Y-80500000D03*
X111500000Y-82500000D03*
%TD*%
D19*
%TO.C,C3*%
X141462500Y-149500000D03*
X143537500Y-149500000D03*
%TD*%
D27*
%TO.C,C9*%
X116600000Y-105675000D03*
X116600000Y-107750000D03*
%TD*%
D18*
%TO.C,R31*%
X120600000Y-106712500D03*
X118600000Y-106712500D03*
%TD*%
%TO.C,R18*%
X143500000Y-153500000D03*
X141500000Y-153500000D03*
%TD*%
D27*
%TO.C,C7*%
X143560000Y-106090000D03*
X143560000Y-108165000D03*
%TD*%
D17*
%TO.C,R36*%
X130000000Y-94000000D03*
X130000000Y-96000000D03*
%TD*%
D18*
%TO.C,R12*%
X147022500Y-119127500D03*
X145022500Y-119127500D03*
%TD*%
D20*
%TO.C,R1*%
X122500000Y-150500000D03*
X124500000Y-150500000D03*
%TD*%
D17*
%TO.C,R23*%
X109600000Y-97750000D03*
X109600000Y-99750000D03*
%TD*%
D24*
%TO.C,R26*%
X138900000Y-93450000D03*
X138900000Y-91450000D03*
%TD*%
%TO.C,R6*%
X138000000Y-66500000D03*
X138000000Y-64500000D03*
%TD*%
D27*
%TO.C,C11*%
X129000000Y-128462500D03*
X129000000Y-130537500D03*
%TD*%
D20*
%TO.C,R19*%
X112100000Y-119712500D03*
X114100000Y-119712500D03*
%TD*%
D18*
%TO.C,R29*%
X117600000Y-101712500D03*
X115600000Y-101712500D03*
%TD*%
D29*
%TO.C,D3*%
X128540000Y-69000000D03*
D30*
X126000000Y-69000000D03*
%TD*%
D29*
%TO.C,D4*%
X126000000Y-91000000D03*
D30*
X128540000Y-91000000D03*
%TD*%
D17*
%TO.C,R22*%
X137400000Y-110250000D03*
X137400000Y-112250000D03*
%TD*%
D27*
%TO.C,C6*%
X116100000Y-117675000D03*
X116100000Y-119750000D03*
%TD*%
D20*
%TO.C,R25*%
X137000000Y-95500000D03*
X139000000Y-95500000D03*
%TD*%
%TO.C,R7*%
X122000000Y-142500000D03*
X124000000Y-142500000D03*
%TD*%
D27*
%TO.C,C8*%
X143060000Y-118090000D03*
X143060000Y-120165000D03*
%TD*%
D28*
%TO.C,U3*%
X120012500Y-115150000D03*
X118742500Y-115150000D03*
X117472500Y-115150000D03*
X116202500Y-115150000D03*
X114932500Y-115150000D03*
X113662500Y-115150000D03*
X112392500Y-115150000D03*
X112392500Y-110200000D03*
X113662500Y-110200000D03*
X114932500Y-110200000D03*
X116202500Y-110200000D03*
X117472500Y-110200000D03*
X118742500Y-110200000D03*
X120012500Y-110200000D03*
%TD*%
D20*
%TO.C,R24*%
X111900000Y-99650000D03*
X113900000Y-99650000D03*
%TD*%
D28*
%TO.C,U4*%
X146910000Y-115525000D03*
X145640000Y-115525000D03*
X144370000Y-115525000D03*
X143100000Y-115525000D03*
X141830000Y-115525000D03*
X140560000Y-115525000D03*
X139290000Y-115525000D03*
X139290000Y-110575000D03*
X140560000Y-110575000D03*
X141830000Y-110575000D03*
X143100000Y-110575000D03*
X144370000Y-110575000D03*
X145640000Y-110575000D03*
X146910000Y-110575000D03*
%TD*%
M02*
