%TF.GenerationSoftware,KiCad,Pcbnew,8.0.0*%
%TF.CreationDate,2024-04-08T18:28:55+02:00*%
%TF.ProjectId,feitw,66656974-772e-46b6-9963-61645f706362,rev?*%
%TF.SameCoordinates,Original*%
%TF.FileFunction,Soldermask,Top*%
%TF.FilePolarity,Negative*%
%FSLAX46Y46*%
G04 Gerber Fmt 4.6, Leading zero omitted, Abs format (unit mm)*
G04 Created by KiCad (PCBNEW 8.0.0) date 2024-04-08 18:28:55*
%MOMM*%
%LPD*%
G01*
G04 APERTURE LIST*
%ADD10C,1.930400*%
%ADD11O,3.240000X2.720000*%
%ADD12R,1.800000X1.800000*%
%ADD13C,1.800000*%
%ADD14C,1.600000*%
%ADD15C,1.400000*%
%ADD16O,1.400000X1.400000*%
%ADD17R,1.700000X1.700000*%
%ADD18O,1.700000X1.700000*%
%ADD19R,1.200000X1.200000*%
%ADD20C,1.200000*%
%ADD21R,2.200000X2.200000*%
%ADD22O,2.200000X2.200000*%
G04 APERTURE END LIST*
D10*
%TO.C,J1*%
X155765800Y-165000000D03*
X144793000Y-165000000D03*
X153352800Y-165000000D03*
%TD*%
%TO.C,J3*%
X155765800Y-152000000D03*
X144793000Y-152000000D03*
X153352800Y-152000000D03*
%TD*%
D11*
%TO.C,RV2*%
X150000000Y-88200000D03*
X150000000Y-97800000D03*
D12*
X142500000Y-90500000D03*
D13*
X142500000Y-93000000D03*
X142500000Y-95500000D03*
%TD*%
D11*
%TO.C,RV3*%
X150000000Y-101200000D03*
X150000000Y-110800000D03*
D12*
X142500000Y-103500000D03*
D13*
X142500000Y-106000000D03*
X142500000Y-108500000D03*
%TD*%
D11*
%TO.C,RV1*%
X150000000Y-75200000D03*
X150000000Y-84800000D03*
D12*
X142500000Y-77500000D03*
D13*
X142500000Y-80000000D03*
X142500000Y-82500000D03*
%TD*%
D11*
%TO.C,RV4*%
X150000000Y-114200000D03*
X150000000Y-123800000D03*
D12*
X142500000Y-116500000D03*
D13*
X142500000Y-119000000D03*
X142500000Y-121500000D03*
%TD*%
D14*
%TO.C,C4*%
X156900000Y-122450000D03*
X156900000Y-124950000D03*
%TD*%
D15*
%TO.C,R3*%
X143005000Y-135400000D03*
D16*
X141105000Y-135400000D03*
%TD*%
D15*
%TO.C,R9*%
X153295000Y-133800000D03*
D16*
X155195000Y-133800000D03*
%TD*%
D15*
%TO.C,R1*%
X156700000Y-80145000D03*
D16*
X156700000Y-78245000D03*
%TD*%
D17*
%TO.C,J2*%
X143876000Y-144762000D03*
D18*
X143876000Y-142222000D03*
X146416000Y-144762000D03*
X146416000Y-142222000D03*
X148956000Y-144762000D03*
X148956000Y-142222000D03*
X151496000Y-144762000D03*
X151496000Y-142222000D03*
X154036000Y-144762000D03*
X154036000Y-142222000D03*
%TD*%
D15*
%TO.C,R12*%
X142000000Y-162455000D03*
D16*
X142000000Y-164355000D03*
%TD*%
D19*
%TO.C,C6*%
X145000000Y-127100000D03*
D20*
X145000000Y-129100000D03*
%TD*%
D15*
%TO.C,R14*%
X141200000Y-131605000D03*
D16*
X141200000Y-129705000D03*
%TD*%
D14*
%TO.C,C7*%
X155100000Y-139050000D03*
X155100000Y-136550000D03*
%TD*%
%TO.C,C5*%
X156700000Y-108750000D03*
X156700000Y-111250000D03*
%TD*%
D21*
%TO.C,D1*%
X141328234Y-138800000D03*
D22*
X143868234Y-138800000D03*
%TD*%
D14*
%TO.C,C1*%
X156800000Y-96050000D03*
X156800000Y-93550000D03*
%TD*%
D12*
%TO.C,D3*%
X147600000Y-136125000D03*
D13*
X147600000Y-138665000D03*
%TD*%
D15*
%TO.C,R8*%
X148795000Y-127195000D03*
D16*
X148795000Y-129095000D03*
%TD*%
D15*
%TO.C,R7*%
X156900000Y-130305000D03*
D16*
X156900000Y-128405000D03*
%TD*%
D19*
%TO.C,C2*%
X151600000Y-136727401D03*
D20*
X151600000Y-138727401D03*
%TD*%
D15*
%TO.C,R13*%
X156800000Y-90705000D03*
D16*
X156800000Y-88805000D03*
%TD*%
D15*
%TO.C,R11*%
X153700000Y-130800000D03*
D16*
X151800000Y-130800000D03*
%TD*%
D15*
%TO.C,R15*%
X156800000Y-101005000D03*
D16*
X156800000Y-99105000D03*
%TD*%
D15*
%TO.C,R5*%
X156700000Y-115245000D03*
D16*
X156700000Y-113345000D03*
%TD*%
D15*
%TO.C,R6*%
X153805000Y-127600000D03*
D16*
X151905000Y-127600000D03*
%TD*%
D15*
%TO.C,R2*%
X156700000Y-106040000D03*
D16*
X156700000Y-104140000D03*
%TD*%
D15*
%TO.C,R10*%
X142000000Y-152045000D03*
D16*
X142000000Y-150145000D03*
%TD*%
M02*
