%TF.GenerationSoftware,KiCad,Pcbnew,8.0.0*%
%TF.CreationDate,2024-04-17T19:20:43+02:00*%
%TF.ProjectId,feitw,66656974-772e-46b6-9963-61645f706362,rev?*%
%TF.SameCoordinates,Original*%
%TF.FileFunction,Legend,Top*%
%TF.FilePolarity,Positive*%
%FSLAX46Y46*%
G04 Gerber Fmt 4.6, Leading zero omitted, Abs format (unit mm)*
G04 Created by KiCad (PCBNEW 8.0.0) date 2024-04-17 19:20:43*
%MOMM*%
%LPD*%
G01*
G04 APERTURE LIST*
%ADD10C,0.100000*%
G04 APERTURE END LIST*
D10*
G36*
X92619805Y-79610251D02*
G01*
X92619805Y-80830000D01*
X92807872Y-80830000D01*
X92807872Y-79798806D01*
X94252812Y-79798806D01*
X94252812Y-79610739D01*
X92619805Y-79610251D01*
G37*
G36*
X94860000Y-78767124D02*
G01*
X94860000Y-78579546D01*
X92619805Y-78579546D01*
X92619805Y-78767124D01*
X94860000Y-78767124D01*
G37*
G36*
X96258535Y-78579546D02*
G01*
X96143962Y-78585280D01*
X96032710Y-78602110D01*
X95925341Y-78629475D01*
X95822416Y-78666817D01*
X95724497Y-78713575D01*
X95632146Y-78769191D01*
X95545925Y-78833104D01*
X95466394Y-78904755D01*
X95394116Y-78983585D01*
X95329653Y-79069033D01*
X95273567Y-79160541D01*
X95226418Y-79257549D01*
X95188769Y-79359497D01*
X95161181Y-79465825D01*
X95144217Y-79575974D01*
X95138437Y-79689385D01*
X95144217Y-79806201D01*
X95161181Y-79919598D01*
X95188769Y-80029007D01*
X95226418Y-80133862D01*
X95273567Y-80233593D01*
X95329653Y-80327632D01*
X95394116Y-80415412D01*
X95466394Y-80496364D01*
X95545925Y-80569920D01*
X95632146Y-80635512D01*
X95724497Y-80692571D01*
X95822416Y-80740530D01*
X95925341Y-80778821D01*
X96032710Y-80806875D01*
X96143962Y-80824124D01*
X96258535Y-80830000D01*
X97378632Y-80830000D01*
X97378632Y-80642421D01*
X96258535Y-80642421D01*
X96116794Y-80631376D01*
X95981696Y-80599344D01*
X95854835Y-80547982D01*
X95737805Y-80478948D01*
X95632199Y-80393897D01*
X95539612Y-80294487D01*
X95461637Y-80182374D01*
X95399868Y-80059215D01*
X95355900Y-79926666D01*
X95331325Y-79786384D01*
X95326504Y-79689385D01*
X95337264Y-79548902D01*
X95368480Y-79415081D01*
X95418559Y-79289486D01*
X95485907Y-79173679D01*
X95568930Y-79069222D01*
X95666034Y-78977679D01*
X95775625Y-78900611D01*
X95896109Y-78839581D01*
X96025893Y-78796151D01*
X96163382Y-78771884D01*
X96258535Y-78767124D01*
X97378632Y-78767124D01*
X97378632Y-78579546D01*
X96258535Y-78579546D01*
G37*
G36*
X96391891Y-79689385D02*
G01*
X96428448Y-79783552D01*
X96518196Y-79828854D01*
X96532575Y-79829581D01*
X96626963Y-79793074D01*
X96672527Y-79703679D01*
X96673259Y-79689385D01*
X96636531Y-79594804D01*
X96546874Y-79549428D01*
X96532575Y-79548702D01*
X96437994Y-79585259D01*
X96392618Y-79675006D01*
X96391891Y-79689385D01*
G37*
G36*
X97937949Y-80830000D02*
G01*
X98126016Y-80830000D01*
X98125527Y-78579057D01*
X97937949Y-78579057D01*
X97937949Y-80830000D01*
G37*
G36*
X98684843Y-78767124D02*
G01*
X99710663Y-78767124D01*
X99710663Y-80830000D01*
X99898730Y-80830000D01*
X99898730Y-78767124D01*
X100925039Y-78767124D01*
X100925039Y-78579546D01*
X98684843Y-78579546D01*
X98684843Y-78767124D01*
G37*
G36*
X103912617Y-80127557D02*
G01*
X103902179Y-80231305D01*
X103872248Y-80327943D01*
X103824904Y-80415399D01*
X103762225Y-80491601D01*
X103686287Y-80554476D01*
X103599170Y-80601953D01*
X103502950Y-80631959D01*
X103399707Y-80642421D01*
X103296464Y-80631917D01*
X103200245Y-80601800D01*
X103113127Y-80554167D01*
X103037190Y-80491113D01*
X102974510Y-80414731D01*
X102927166Y-80327119D01*
X102897236Y-80230370D01*
X102886797Y-80126580D01*
X102886797Y-78579057D01*
X102698730Y-78579057D01*
X102698730Y-80126580D01*
X102688292Y-80230370D01*
X102658361Y-80327119D01*
X102611017Y-80414731D01*
X102548338Y-80491113D01*
X102472400Y-80554167D01*
X102385283Y-80601800D01*
X102289063Y-80631917D01*
X102185820Y-80642421D01*
X102082577Y-80631917D01*
X101986358Y-80601800D01*
X101899240Y-80554167D01*
X101823303Y-80491113D01*
X101760623Y-80414731D01*
X101713279Y-80327119D01*
X101683349Y-80230370D01*
X101672910Y-80126580D01*
X101672910Y-78579057D01*
X101484843Y-78579057D01*
X101484843Y-80126580D01*
X101492915Y-80233897D01*
X101516338Y-80336066D01*
X101553928Y-80431906D01*
X101604498Y-80520236D01*
X101666864Y-80599875D01*
X101739838Y-80669643D01*
X101822236Y-80728357D01*
X101912871Y-80774839D01*
X102010558Y-80807906D01*
X102114111Y-80826377D01*
X102185820Y-80830000D01*
X102304896Y-80819932D01*
X102417401Y-80790817D01*
X102521705Y-80744287D01*
X102616174Y-80681975D01*
X102699177Y-80605513D01*
X102769080Y-80516533D01*
X102793008Y-80477801D01*
X102857182Y-80571331D01*
X102935060Y-80652997D01*
X103025030Y-80721165D01*
X103125483Y-80774203D01*
X103234810Y-80810480D01*
X103351399Y-80828363D01*
X103399707Y-80830000D01*
X103506524Y-80821914D01*
X103608287Y-80798447D01*
X103703804Y-80760777D01*
X103791886Y-80710087D01*
X103871341Y-80647556D01*
X103940979Y-80574367D01*
X103999610Y-80491700D01*
X104046042Y-80400735D01*
X104079086Y-80302654D01*
X104097551Y-80198638D01*
X104101173Y-80126580D01*
X104101173Y-78579057D01*
X103912617Y-78579057D01*
X103912617Y-80127557D01*
G37*
G36*
X96186427Y-126844588D02*
G01*
X96180254Y-126783034D01*
X96162553Y-126725760D01*
X96134547Y-126673975D01*
X96097462Y-126628891D01*
X96052523Y-126591718D01*
X96000955Y-126563667D01*
X95943984Y-126545948D01*
X95882833Y-126539773D01*
X95066330Y-126539773D01*
X95066330Y-126633562D01*
X95882833Y-126633562D01*
X95935136Y-126640223D01*
X95982629Y-126659089D01*
X96023654Y-126688483D01*
X96056549Y-126726727D01*
X96079654Y-126772145D01*
X96091310Y-126823059D01*
X96092394Y-126844588D01*
X96085784Y-126897118D01*
X96067066Y-126944834D01*
X96037905Y-126986070D01*
X95999968Y-127019159D01*
X95954920Y-127042437D01*
X95904426Y-127054237D01*
X95883078Y-127055369D01*
X95066330Y-127055369D01*
X95066330Y-127665000D01*
X95160363Y-127665000D01*
X95160363Y-127149403D01*
X95883078Y-127149403D01*
X95935282Y-127156047D01*
X95982709Y-127174866D01*
X96023690Y-127204188D01*
X96056562Y-127242342D01*
X96079657Y-127287655D01*
X96091310Y-127338457D01*
X96092394Y-127359940D01*
X96092394Y-127665000D01*
X96186427Y-127665000D01*
X96186427Y-127359940D01*
X96182384Y-127310084D01*
X96167481Y-127253759D01*
X96142662Y-127202304D01*
X96109038Y-127156830D01*
X96067720Y-127118448D01*
X96044522Y-127102264D01*
X96089271Y-127067845D01*
X96126881Y-127025778D01*
X96156242Y-126977175D01*
X96176242Y-126923146D01*
X96184956Y-126874779D01*
X96186427Y-126844588D01*
G37*
G36*
X96466330Y-127102264D02*
G01*
X96469219Y-127159862D01*
X96477702Y-127215783D01*
X96491496Y-127269744D01*
X96510320Y-127321464D01*
X96533894Y-127370663D01*
X96561938Y-127417060D01*
X96594169Y-127460372D01*
X96630308Y-127500319D01*
X96670073Y-127536619D01*
X96713184Y-127568992D01*
X96759360Y-127597156D01*
X96808319Y-127620830D01*
X96859782Y-127639732D01*
X96913466Y-127653582D01*
X96969092Y-127662098D01*
X97026379Y-127665000D01*
X97586427Y-127665000D01*
X97586427Y-127571210D01*
X97026379Y-127571210D01*
X96959796Y-127566433D01*
X96896088Y-127552544D01*
X96835914Y-127530207D01*
X96779933Y-127500087D01*
X96728804Y-127462847D01*
X96683188Y-127419152D01*
X96643742Y-127369666D01*
X96611127Y-127315053D01*
X96586002Y-127255977D01*
X96569026Y-127193102D01*
X96562561Y-127149403D01*
X97586427Y-127149403D01*
X97586427Y-127055369D01*
X96562561Y-127055369D01*
X96573739Y-126990337D01*
X96593504Y-126928671D01*
X96621200Y-126871033D01*
X96656165Y-126818086D01*
X96697740Y-126770489D01*
X96745267Y-126728907D01*
X96798086Y-126693999D01*
X96855538Y-126666428D01*
X96916964Y-126646855D01*
X96981703Y-126635943D01*
X97026379Y-126633806D01*
X97586427Y-126633806D01*
X97586427Y-126539773D01*
X97026379Y-126539773D01*
X96969092Y-126542674D01*
X96913466Y-126551190D01*
X96859782Y-126565038D01*
X96808319Y-126583939D01*
X96759360Y-126607609D01*
X96713184Y-126635767D01*
X96670073Y-126668133D01*
X96630308Y-126704423D01*
X96594169Y-126744357D01*
X96561938Y-126787653D01*
X96533894Y-126834029D01*
X96510320Y-126883205D01*
X96491496Y-126934898D01*
X96477702Y-126988826D01*
X96469219Y-127044709D01*
X96466330Y-127102264D01*
G37*
G36*
X98682833Y-127571210D02*
G01*
X97960363Y-127571210D01*
X97960363Y-126539528D01*
X97866330Y-126539528D01*
X97866330Y-127571210D01*
X97866330Y-127592948D01*
X97866330Y-127665000D01*
X98682833Y-127665000D01*
X98986427Y-127665000D01*
X98986427Y-127571210D01*
X98902164Y-127571210D01*
X98682833Y-127571210D01*
G37*
G36*
X99075820Y-127102264D02*
G01*
X99078710Y-127159862D01*
X99087192Y-127215783D01*
X99100986Y-127269744D01*
X99119811Y-127321464D01*
X99143385Y-127370663D01*
X99171428Y-127417060D01*
X99203660Y-127460372D01*
X99239799Y-127500319D01*
X99279564Y-127536619D01*
X99322675Y-127568992D01*
X99368850Y-127597156D01*
X99417810Y-127620830D01*
X99469272Y-127639732D01*
X99522957Y-127653582D01*
X99578583Y-127662098D01*
X99635869Y-127665000D01*
X100195918Y-127665000D01*
X100195918Y-127571210D01*
X99635869Y-127571210D01*
X99569286Y-127566433D01*
X99505578Y-127552544D01*
X99445404Y-127530207D01*
X99389423Y-127500087D01*
X99338295Y-127462847D01*
X99292678Y-127419152D01*
X99253233Y-127369666D01*
X99220618Y-127315053D01*
X99195493Y-127255977D01*
X99178517Y-127193102D01*
X99172052Y-127149403D01*
X100195918Y-127149403D01*
X100195918Y-127055369D01*
X99172052Y-127055369D01*
X99183229Y-126990337D01*
X99202995Y-126928671D01*
X99230690Y-126871033D01*
X99265655Y-126818086D01*
X99307231Y-126770489D01*
X99354758Y-126728907D01*
X99407577Y-126693999D01*
X99465029Y-126666428D01*
X99526454Y-126646855D01*
X99591194Y-126635943D01*
X99635869Y-126633806D01*
X100195918Y-126633806D01*
X100195918Y-126539773D01*
X99635869Y-126539773D01*
X99578583Y-126542674D01*
X99522957Y-126551190D01*
X99469272Y-126565038D01*
X99417810Y-126583939D01*
X99368850Y-126607609D01*
X99322675Y-126635767D01*
X99279564Y-126668133D01*
X99239799Y-126704423D01*
X99203660Y-126744357D01*
X99171428Y-126787653D01*
X99143385Y-126834029D01*
X99119811Y-126883205D01*
X99100986Y-126934898D01*
X99087192Y-126988826D01*
X99078710Y-127044709D01*
X99075820Y-127102264D01*
G37*
G36*
X100475576Y-127665000D02*
G01*
X100589882Y-127665000D01*
X101104990Y-126748356D01*
X101620098Y-127664755D01*
X101734648Y-127665000D01*
X101104990Y-126539528D01*
X100475576Y-127665000D01*
G37*
G36*
X102316923Y-126539773D02*
G01*
X102255783Y-126545948D01*
X102198839Y-126563667D01*
X102147310Y-126591718D01*
X102102417Y-126628891D01*
X102065377Y-126673975D01*
X102037410Y-126725760D01*
X102019736Y-126783034D01*
X102013573Y-126844588D01*
X102019736Y-126906071D01*
X102037410Y-126963313D01*
X102065377Y-127015093D01*
X102102417Y-127060193D01*
X102147310Y-127097393D01*
X102198839Y-127125475D01*
X102255783Y-127143218D01*
X102316923Y-127149403D01*
X102830077Y-127149403D01*
X102882379Y-127156048D01*
X102929873Y-127174874D01*
X102970897Y-127204213D01*
X103003792Y-127242401D01*
X103026898Y-127287771D01*
X103038553Y-127338658D01*
X103039637Y-127360184D01*
X103033027Y-127412827D01*
X103014302Y-127460645D01*
X102985124Y-127501960D01*
X102947152Y-127535095D01*
X102902047Y-127558373D01*
X102851469Y-127570118D01*
X102830077Y-127571210D01*
X102013573Y-127571210D01*
X102013573Y-127665000D01*
X102830077Y-127665000D01*
X102891227Y-127658824D01*
X102948199Y-127641106D01*
X102999767Y-127613054D01*
X103044705Y-127575881D01*
X103081790Y-127530797D01*
X103109796Y-127479012D01*
X103127498Y-127421738D01*
X103133671Y-127360184D01*
X103127498Y-127298631D01*
X103109796Y-127241356D01*
X103081790Y-127189572D01*
X103044705Y-127144487D01*
X102999767Y-127107314D01*
X102948199Y-127079263D01*
X102891227Y-127061545D01*
X102830077Y-127055369D01*
X102316923Y-127055369D01*
X102264637Y-127048708D01*
X102217184Y-127029842D01*
X102176213Y-127000448D01*
X102143374Y-126962204D01*
X102120316Y-126916786D01*
X102108688Y-126865872D01*
X102107607Y-126844344D01*
X102114201Y-126791798D01*
X102132885Y-126744048D01*
X102162010Y-126702776D01*
X102199925Y-126669665D01*
X102244983Y-126646397D01*
X102295534Y-126634655D01*
X102316923Y-126633562D01*
X103133671Y-126633562D01*
X103133671Y-126539773D01*
X102316923Y-126539773D01*
G37*
G36*
X103413573Y-127102264D02*
G01*
X103416463Y-127159862D01*
X103424945Y-127215783D01*
X103438739Y-127269744D01*
X103457564Y-127321464D01*
X103481138Y-127370663D01*
X103509181Y-127417060D01*
X103541413Y-127460372D01*
X103577552Y-127500319D01*
X103617317Y-127536619D01*
X103660428Y-127568992D01*
X103706603Y-127597156D01*
X103755563Y-127620830D01*
X103807025Y-127639732D01*
X103860710Y-127653582D01*
X103916336Y-127662098D01*
X103973622Y-127665000D01*
X104533671Y-127665000D01*
X104533671Y-127571210D01*
X103973622Y-127571210D01*
X103907039Y-127566433D01*
X103843331Y-127552544D01*
X103783157Y-127530207D01*
X103727176Y-127500087D01*
X103676048Y-127462847D01*
X103630431Y-127419152D01*
X103590986Y-127369666D01*
X103558371Y-127315053D01*
X103533246Y-127255977D01*
X103516270Y-127193102D01*
X103509805Y-127149403D01*
X104533671Y-127149403D01*
X104533671Y-127055369D01*
X103509805Y-127055369D01*
X103520982Y-126990337D01*
X103540748Y-126928671D01*
X103568443Y-126871033D01*
X103603408Y-126818086D01*
X103644984Y-126770489D01*
X103692511Y-126728907D01*
X103745330Y-126693999D01*
X103802782Y-126666428D01*
X103864207Y-126646855D01*
X103928947Y-126635943D01*
X103973622Y-126633806D01*
X104533671Y-126633806D01*
X104533671Y-126539773D01*
X103973622Y-126539773D01*
X103916336Y-126542674D01*
X103860710Y-126551190D01*
X103807025Y-126565038D01*
X103755563Y-126583939D01*
X103706603Y-126607609D01*
X103660428Y-126635767D01*
X103617317Y-126668133D01*
X103577552Y-126704423D01*
X103541413Y-126744357D01*
X103509181Y-126787653D01*
X103481138Y-126834029D01*
X103457564Y-126883205D01*
X103438739Y-126934898D01*
X103424945Y-126988826D01*
X103416463Y-127044709D01*
X103413573Y-127102264D01*
G37*
G36*
X95897243Y-113539773D02*
G01*
X95836103Y-113545948D01*
X95779159Y-113563667D01*
X95727631Y-113591718D01*
X95682737Y-113628891D01*
X95645697Y-113673975D01*
X95617730Y-113725760D01*
X95600056Y-113783034D01*
X95593894Y-113844588D01*
X95600056Y-113906071D01*
X95617730Y-113963313D01*
X95645697Y-114015093D01*
X95682737Y-114060193D01*
X95727631Y-114097393D01*
X95779159Y-114125475D01*
X95836103Y-114143218D01*
X95897243Y-114149403D01*
X96410397Y-114149403D01*
X96462700Y-114156048D01*
X96510193Y-114174874D01*
X96551218Y-114204213D01*
X96584113Y-114242401D01*
X96607218Y-114287771D01*
X96618874Y-114338658D01*
X96619958Y-114360184D01*
X96613347Y-114412827D01*
X96594623Y-114460645D01*
X96565444Y-114501960D01*
X96527472Y-114535095D01*
X96482367Y-114558373D01*
X96431789Y-114570118D01*
X96410397Y-114571210D01*
X95593894Y-114571210D01*
X95593894Y-114665000D01*
X96410397Y-114665000D01*
X96471548Y-114658824D01*
X96528519Y-114641106D01*
X96580087Y-114613054D01*
X96625026Y-114575881D01*
X96662111Y-114530797D01*
X96690117Y-114479012D01*
X96707818Y-114421738D01*
X96713991Y-114360184D01*
X96707818Y-114298631D01*
X96690117Y-114241356D01*
X96662111Y-114189572D01*
X96625026Y-114144487D01*
X96580087Y-114107314D01*
X96528519Y-114079263D01*
X96471548Y-114061545D01*
X96410397Y-114055369D01*
X95897243Y-114055369D01*
X95844957Y-114048708D01*
X95797504Y-114029842D01*
X95756534Y-114000448D01*
X95723695Y-113962204D01*
X95700637Y-113916786D01*
X95689009Y-113865872D01*
X95687927Y-113844344D01*
X95694522Y-113791798D01*
X95713206Y-113744048D01*
X95742330Y-113702776D01*
X95780246Y-113669665D01*
X95825304Y-113646397D01*
X95875854Y-113634655D01*
X95897243Y-113633562D01*
X96713991Y-113633562D01*
X96713991Y-113539773D01*
X95897243Y-113539773D01*
G37*
G36*
X98019958Y-114102508D02*
G01*
X98014578Y-114173783D01*
X97998970Y-114241719D01*
X97973930Y-114305515D01*
X97940256Y-114364367D01*
X97898745Y-114417475D01*
X97850193Y-114464037D01*
X97795398Y-114503250D01*
X97735155Y-114534314D01*
X97670264Y-114556427D01*
X97601519Y-114568785D01*
X97553943Y-114571210D01*
X97483072Y-114565799D01*
X97415523Y-114550100D01*
X97352093Y-114524915D01*
X97293578Y-114491045D01*
X97240775Y-114449293D01*
X97194481Y-114400460D01*
X97155494Y-114345348D01*
X97124609Y-114284759D01*
X97102625Y-114219495D01*
X97090338Y-114150356D01*
X97087927Y-114102508D01*
X97087927Y-113539528D01*
X96993894Y-113539528D01*
X96993894Y-114102508D01*
X96996783Y-114160063D01*
X97005266Y-114215946D01*
X97019060Y-114269875D01*
X97037884Y-114321567D01*
X97061458Y-114370743D01*
X97089502Y-114417119D01*
X97121733Y-114460415D01*
X97157872Y-114500349D01*
X97197637Y-114536640D01*
X97240748Y-114569005D01*
X97286924Y-114597163D01*
X97335883Y-114620834D01*
X97387346Y-114639734D01*
X97441030Y-114653583D01*
X97496656Y-114662098D01*
X97553943Y-114665000D01*
X97611189Y-114662098D01*
X97666785Y-114653583D01*
X97720449Y-114639734D01*
X97771899Y-114620834D01*
X97820853Y-114597163D01*
X97867029Y-114569005D01*
X97910146Y-114536640D01*
X97949921Y-114500349D01*
X97986073Y-114460415D01*
X98018319Y-114417119D01*
X98046377Y-114370743D01*
X98069967Y-114321567D01*
X98088805Y-114269875D01*
X98102609Y-114215946D01*
X98111099Y-114160063D01*
X98113991Y-114102508D01*
X98113991Y-113539528D01*
X98019958Y-113539528D01*
X98019958Y-114102508D01*
G37*
G36*
X98697243Y-113539773D02*
G01*
X98636103Y-113545948D01*
X98579159Y-113563667D01*
X98527631Y-113591718D01*
X98482737Y-113628891D01*
X98445697Y-113673975D01*
X98417730Y-113725760D01*
X98400056Y-113783034D01*
X98393894Y-113844588D01*
X98400056Y-113906071D01*
X98417730Y-113963313D01*
X98445697Y-114015093D01*
X98482737Y-114060193D01*
X98527631Y-114097393D01*
X98579159Y-114125475D01*
X98636103Y-114143218D01*
X98697243Y-114149403D01*
X99210397Y-114149403D01*
X99262700Y-114156048D01*
X99310193Y-114174874D01*
X99351218Y-114204213D01*
X99384113Y-114242401D01*
X99407218Y-114287771D01*
X99418874Y-114338658D01*
X99419958Y-114360184D01*
X99413347Y-114412827D01*
X99394623Y-114460645D01*
X99365444Y-114501960D01*
X99327472Y-114535095D01*
X99282367Y-114558373D01*
X99231789Y-114570118D01*
X99210397Y-114571210D01*
X98393894Y-114571210D01*
X98393894Y-114665000D01*
X99210397Y-114665000D01*
X99271548Y-114658824D01*
X99328519Y-114641106D01*
X99380087Y-114613054D01*
X99425026Y-114575881D01*
X99462111Y-114530797D01*
X99490117Y-114479012D01*
X99507818Y-114421738D01*
X99513991Y-114360184D01*
X99507818Y-114298631D01*
X99490117Y-114241356D01*
X99462111Y-114189572D01*
X99425026Y-114144487D01*
X99380087Y-114107314D01*
X99328519Y-114079263D01*
X99271548Y-114061545D01*
X99210397Y-114055369D01*
X98697243Y-114055369D01*
X98644957Y-114048708D01*
X98597504Y-114029842D01*
X98556534Y-114000448D01*
X98523695Y-113962204D01*
X98500637Y-113916786D01*
X98489009Y-113865872D01*
X98487927Y-113844344D01*
X98494522Y-113791798D01*
X98513206Y-113744048D01*
X98542330Y-113702776D01*
X98580246Y-113669665D01*
X98625304Y-113646397D01*
X98675854Y-113634655D01*
X98697243Y-113633562D01*
X99513991Y-113633562D01*
X99513991Y-113539773D01*
X98697243Y-113539773D01*
G37*
G36*
X99793894Y-113633562D02*
G01*
X100306804Y-113633562D01*
X100306804Y-114665000D01*
X100400837Y-114665000D01*
X100400837Y-113633562D01*
X100913991Y-113633562D01*
X100913991Y-113539773D01*
X99793894Y-113539773D01*
X99793894Y-113633562D01*
G37*
G36*
X100787229Y-114665000D02*
G01*
X100901535Y-114665000D01*
X101416643Y-113748356D01*
X101931751Y-114664755D01*
X102046301Y-114665000D01*
X101416643Y-113539528D01*
X100787229Y-114665000D01*
G37*
G36*
X102606839Y-113633562D02*
G01*
X102606839Y-113539773D01*
X102324738Y-113539773D01*
X102324738Y-113633562D01*
X102418772Y-113633562D01*
X102418772Y-114571210D01*
X102324738Y-114571210D01*
X102324738Y-114665000D01*
X102606839Y-114665000D01*
X102606839Y-114571210D01*
X102512805Y-114571210D01*
X102512805Y-113633562D01*
X102606839Y-113633562D01*
G37*
G36*
X103446057Y-113539773D02*
G01*
X103388771Y-113542671D01*
X103333145Y-113551179D01*
X103279460Y-113565016D01*
X103227998Y-113583901D01*
X103179038Y-113607552D01*
X103132863Y-113635690D01*
X103089752Y-113668033D01*
X103049987Y-113704301D01*
X103013848Y-113744212D01*
X102981616Y-113787486D01*
X102953573Y-113833842D01*
X102929999Y-113882999D01*
X102911174Y-113934676D01*
X102897380Y-113988592D01*
X102888898Y-114044467D01*
X102886008Y-114102020D01*
X102886008Y-114665000D01*
X102980042Y-114665000D01*
X102980042Y-114102020D01*
X102985421Y-114030807D01*
X103001030Y-113962922D01*
X103026069Y-113899167D01*
X103059743Y-113840345D01*
X103101254Y-113787261D01*
X103149806Y-113740715D01*
X103204602Y-113701512D01*
X103264844Y-113670454D01*
X103329736Y-113648345D01*
X103398480Y-113635987D01*
X103446057Y-113633562D01*
X103516927Y-113638973D01*
X103584476Y-113654671D01*
X103647907Y-113679852D01*
X103706422Y-113713714D01*
X103759225Y-113755454D01*
X103805518Y-113804269D01*
X103844506Y-113859355D01*
X103875390Y-113919910D01*
X103897374Y-113985131D01*
X103909662Y-114054215D01*
X103912072Y-114102020D01*
X103912072Y-114665000D01*
X104006106Y-114665000D01*
X104006106Y-114102020D01*
X104003213Y-114044467D01*
X103994724Y-113988592D01*
X103980919Y-113934676D01*
X103962081Y-113882999D01*
X103938492Y-113833842D01*
X103910433Y-113787486D01*
X103878187Y-113744212D01*
X103842036Y-113704301D01*
X103802261Y-113668033D01*
X103759144Y-113635690D01*
X103712967Y-113607552D01*
X103664013Y-113583901D01*
X103612563Y-113565016D01*
X103558899Y-113551179D01*
X103503303Y-113542671D01*
X103446057Y-113539773D01*
G37*
G36*
X97170482Y-101539773D02*
G01*
X96610433Y-101539773D01*
X96610433Y-101633562D01*
X97170482Y-101633562D01*
X97241352Y-101638973D01*
X97308901Y-101654672D01*
X97372331Y-101679857D01*
X97430846Y-101713727D01*
X97483649Y-101755479D01*
X97529943Y-101804312D01*
X97568930Y-101859424D01*
X97599815Y-101920013D01*
X97621799Y-101985278D01*
X97634086Y-102054416D01*
X97636497Y-102102264D01*
X97631117Y-102173602D01*
X97615509Y-102241588D01*
X97590469Y-102305424D01*
X97556795Y-102364307D01*
X97515284Y-102417438D01*
X97466732Y-102464016D01*
X97411937Y-102503241D01*
X97351694Y-102534310D01*
X97286803Y-102556426D01*
X97218058Y-102568785D01*
X97170482Y-102571210D01*
X96610433Y-102571210D01*
X96610433Y-102665000D01*
X97170482Y-102665000D01*
X97227728Y-102662098D01*
X97283324Y-102653582D01*
X97336988Y-102639732D01*
X97388438Y-102620830D01*
X97437392Y-102597156D01*
X97483568Y-102568992D01*
X97526685Y-102536619D01*
X97566460Y-102500319D01*
X97602612Y-102460372D01*
X97634858Y-102417060D01*
X97662916Y-102370663D01*
X97686506Y-102321464D01*
X97705344Y-102269744D01*
X97719148Y-102215783D01*
X97727638Y-102159862D01*
X97730530Y-102102264D01*
X97727638Y-102044709D01*
X97719148Y-101988826D01*
X97705344Y-101934898D01*
X97686506Y-101883205D01*
X97662916Y-101834029D01*
X97634858Y-101787653D01*
X97602612Y-101744357D01*
X97566460Y-101704423D01*
X97526685Y-101668133D01*
X97483568Y-101635767D01*
X97437392Y-101607609D01*
X97388438Y-101583939D01*
X97336988Y-101565038D01*
X97283324Y-101551190D01*
X97227728Y-101542674D01*
X97170482Y-101539773D01*
G37*
G36*
X98010433Y-102102264D02*
G01*
X98013322Y-102159862D01*
X98021805Y-102215783D01*
X98035599Y-102269744D01*
X98054423Y-102321464D01*
X98077997Y-102370663D01*
X98106041Y-102417060D01*
X98138272Y-102460372D01*
X98174411Y-102500319D01*
X98214176Y-102536619D01*
X98257287Y-102568992D01*
X98303463Y-102597156D01*
X98352422Y-102620830D01*
X98403885Y-102639732D01*
X98457569Y-102653582D01*
X98513195Y-102662098D01*
X98570482Y-102665000D01*
X99130530Y-102665000D01*
X99130530Y-102571210D01*
X98570482Y-102571210D01*
X98503899Y-102566433D01*
X98440191Y-102552544D01*
X98380017Y-102530207D01*
X98324036Y-102500087D01*
X98272907Y-102462847D01*
X98227291Y-102419152D01*
X98187845Y-102369666D01*
X98155230Y-102315053D01*
X98130105Y-102255977D01*
X98113129Y-102193102D01*
X98106664Y-102149403D01*
X99130530Y-102149403D01*
X99130530Y-102055369D01*
X98106664Y-102055369D01*
X98117842Y-101990337D01*
X98137607Y-101928671D01*
X98165303Y-101871033D01*
X98200268Y-101818086D01*
X98241843Y-101770489D01*
X98289370Y-101728907D01*
X98342189Y-101693999D01*
X98399641Y-101666428D01*
X98461067Y-101646855D01*
X98525806Y-101635943D01*
X98570482Y-101633806D01*
X99130530Y-101633806D01*
X99130530Y-101539773D01*
X98570482Y-101539773D01*
X98513195Y-101542674D01*
X98457569Y-101551190D01*
X98403885Y-101565038D01*
X98352422Y-101583939D01*
X98303463Y-101607609D01*
X98257287Y-101635767D01*
X98214176Y-101668133D01*
X98174411Y-101704423D01*
X98138272Y-101744357D01*
X98106041Y-101787653D01*
X98077997Y-101834029D01*
X98054423Y-101883205D01*
X98035599Y-101934898D01*
X98021805Y-101988826D01*
X98013322Y-102044709D01*
X98010433Y-102102264D01*
G37*
G36*
X99410433Y-102102264D02*
G01*
X99413322Y-102159862D01*
X99421805Y-102215783D01*
X99435599Y-102269744D01*
X99454423Y-102321464D01*
X99477997Y-102370663D01*
X99506041Y-102417060D01*
X99538272Y-102460372D01*
X99574411Y-102500319D01*
X99614176Y-102536619D01*
X99657287Y-102568992D01*
X99703463Y-102597156D01*
X99752422Y-102620830D01*
X99803885Y-102639732D01*
X99857569Y-102653582D01*
X99913195Y-102662098D01*
X99970482Y-102665000D01*
X100530530Y-102665000D01*
X100530530Y-102571210D01*
X99970482Y-102571210D01*
X99899611Y-102565799D01*
X99832062Y-102550098D01*
X99768632Y-102524909D01*
X99710117Y-102491032D01*
X99657314Y-102449268D01*
X99611020Y-102400417D01*
X99572033Y-102345279D01*
X99541148Y-102284656D01*
X99519164Y-102219348D01*
X99506877Y-102150155D01*
X99504466Y-102102264D01*
X99509846Y-102030989D01*
X99525454Y-101963053D01*
X99550494Y-101899258D01*
X99584168Y-101840405D01*
X99625679Y-101787297D01*
X99674231Y-101740735D01*
X99729026Y-101701522D01*
X99789269Y-101670458D01*
X99854160Y-101648346D01*
X99922905Y-101635987D01*
X99970482Y-101633562D01*
X100530530Y-101633562D01*
X100530530Y-101539773D01*
X99970482Y-101539773D01*
X99913195Y-101542674D01*
X99857569Y-101551190D01*
X99803885Y-101565038D01*
X99752422Y-101583939D01*
X99703463Y-101607609D01*
X99657287Y-101635767D01*
X99614176Y-101668133D01*
X99574411Y-101704423D01*
X99538272Y-101744357D01*
X99506041Y-101787653D01*
X99477997Y-101834029D01*
X99454423Y-101883205D01*
X99435599Y-101934898D01*
X99421805Y-101988826D01*
X99413322Y-102044709D01*
X99410433Y-102102264D01*
G37*
G36*
X100810188Y-102665000D02*
G01*
X100924494Y-102665000D01*
X101439602Y-101748356D01*
X101954710Y-102664755D01*
X102069260Y-102665000D01*
X101439602Y-101539528D01*
X100810188Y-102665000D01*
G37*
G36*
X102895534Y-101586912D02*
G01*
X102890154Y-101658181D01*
X102874546Y-101726100D01*
X102849506Y-101789871D01*
X102815832Y-101848693D01*
X102774321Y-101901768D01*
X102725769Y-101948295D01*
X102670974Y-101987476D01*
X102610731Y-102018512D01*
X102545840Y-102040602D01*
X102477095Y-102052947D01*
X102429518Y-102055369D01*
X102358648Y-102049964D01*
X102291099Y-102034282D01*
X102227669Y-102009121D01*
X102169154Y-101975282D01*
X102116351Y-101933563D01*
X102070057Y-101884764D01*
X102031070Y-101829685D01*
X102000185Y-101769124D01*
X101978201Y-101703882D01*
X101965914Y-101634757D01*
X101963503Y-101586912D01*
X101963503Y-101539528D01*
X101869470Y-101539528D01*
X101869470Y-101586912D01*
X101872074Y-101641566D01*
X101879728Y-101694726D01*
X101892190Y-101746151D01*
X101909220Y-101795602D01*
X101930578Y-101842837D01*
X101956023Y-101887616D01*
X101985315Y-101929700D01*
X102018214Y-101968846D01*
X102054478Y-102004816D01*
X102093868Y-102037368D01*
X102136143Y-102066262D01*
X102181062Y-102091258D01*
X102228386Y-102112115D01*
X102277874Y-102128593D01*
X102329285Y-102140451D01*
X102382380Y-102147449D01*
X102382380Y-102665000D01*
X102476413Y-102665000D01*
X102476413Y-102147449D01*
X102529510Y-102140451D01*
X102580929Y-102128593D01*
X102630429Y-102112115D01*
X102677768Y-102091258D01*
X102722707Y-102066262D01*
X102765002Y-102037368D01*
X102804414Y-102004816D01*
X102840701Y-101968846D01*
X102873622Y-101929700D01*
X102902936Y-101887616D01*
X102928402Y-101842837D01*
X102949779Y-101795602D01*
X102966824Y-101746151D01*
X102979299Y-101694726D01*
X102986960Y-101641566D01*
X102989567Y-101586912D01*
X102989567Y-101539528D01*
X102895534Y-101539528D01*
X102895534Y-101586912D01*
G37*
G36*
X96103385Y-89665000D02*
G01*
X96217690Y-89665000D01*
X96732798Y-88744204D01*
X97247174Y-89665000D01*
X97361968Y-89665000D01*
X96733287Y-88539528D01*
X96103385Y-89665000D01*
G37*
G36*
X97235694Y-88633562D02*
G01*
X97748604Y-88633562D01*
X97748604Y-89665000D01*
X97842638Y-89665000D01*
X97842638Y-88633562D01*
X98355792Y-88633562D01*
X98355792Y-88539773D01*
X97235694Y-88539773D01*
X97235694Y-88633562D01*
G37*
G36*
X98635694Y-88633562D02*
G01*
X99148604Y-88633562D01*
X99148604Y-89665000D01*
X99242638Y-89665000D01*
X99242638Y-88633562D01*
X99755792Y-88633562D01*
X99755792Y-88539773D01*
X98635694Y-88539773D01*
X98635694Y-88633562D01*
G37*
G36*
X99629030Y-89665000D02*
G01*
X99743336Y-89665000D01*
X100258444Y-88748356D01*
X100773552Y-89664755D01*
X100888102Y-89665000D01*
X100258444Y-88539528D01*
X99629030Y-89665000D01*
G37*
G36*
X100976518Y-89102264D02*
G01*
X100979408Y-89159862D01*
X100987890Y-89215783D01*
X101001684Y-89269744D01*
X101020508Y-89321464D01*
X101044083Y-89370663D01*
X101072126Y-89417060D01*
X101104358Y-89460372D01*
X101140496Y-89500319D01*
X101180262Y-89536619D01*
X101223373Y-89568992D01*
X101269548Y-89597156D01*
X101318508Y-89620830D01*
X101369970Y-89639732D01*
X101423655Y-89653582D01*
X101479280Y-89662098D01*
X101536567Y-89665000D01*
X102096616Y-89665000D01*
X102096616Y-89571210D01*
X101536567Y-89571210D01*
X101465696Y-89565799D01*
X101398148Y-89550098D01*
X101334717Y-89524909D01*
X101276202Y-89491032D01*
X101223399Y-89449268D01*
X101177105Y-89400417D01*
X101138118Y-89345279D01*
X101107234Y-89284656D01*
X101085249Y-89219348D01*
X101072962Y-89150155D01*
X101070551Y-89102264D01*
X101075931Y-89030989D01*
X101091539Y-88963053D01*
X101116579Y-88899258D01*
X101150253Y-88840405D01*
X101191764Y-88787297D01*
X101240316Y-88740735D01*
X101295112Y-88701522D01*
X101355354Y-88670458D01*
X101420246Y-88648346D01*
X101488990Y-88635987D01*
X101536567Y-88633562D01*
X102096616Y-88633562D01*
X102096616Y-88539773D01*
X101536567Y-88539773D01*
X101479280Y-88542674D01*
X101423655Y-88551190D01*
X101369970Y-88565038D01*
X101318508Y-88583939D01*
X101269548Y-88607609D01*
X101223373Y-88635767D01*
X101180262Y-88668133D01*
X101140496Y-88704423D01*
X101104358Y-88744357D01*
X101072126Y-88787653D01*
X101044083Y-88834029D01*
X101020508Y-88883205D01*
X101001684Y-88934898D01*
X100987890Y-88988826D01*
X100979408Y-89044709D01*
X100976518Y-89102264D01*
G37*
G36*
X103350558Y-88539528D02*
G01*
X102470307Y-89283736D01*
X102470307Y-88539528D01*
X102376274Y-88539528D01*
X102376274Y-89363115D01*
X102376274Y-89486702D01*
X102376274Y-89665000D01*
X102470307Y-89665000D01*
X102470307Y-89407079D01*
X102757781Y-89164057D01*
X103350558Y-89665000D01*
X103496616Y-89665000D01*
X102830810Y-89102508D01*
X103496616Y-88539528D01*
X103350558Y-88539528D01*
G37*
G36*
X98457246Y-183542674D02*
G01*
X98512842Y-183551190D01*
X98566506Y-183565038D01*
X98617956Y-183583939D01*
X98666910Y-183607609D01*
X98713086Y-183635767D01*
X98756203Y-183668133D01*
X98795978Y-183704423D01*
X98832130Y-183744357D01*
X98864376Y-183787653D01*
X98892434Y-183834029D01*
X98916024Y-183883205D01*
X98934862Y-183934898D01*
X98948666Y-183988826D01*
X98957156Y-184044709D01*
X98960048Y-184102264D01*
X98957156Y-184159862D01*
X98948666Y-184215783D01*
X98934862Y-184269744D01*
X98916024Y-184321464D01*
X98892434Y-184370663D01*
X98864376Y-184417060D01*
X98832130Y-184460372D01*
X98795978Y-184500319D01*
X98756203Y-184536619D01*
X98713086Y-184568992D01*
X98666910Y-184597156D01*
X98617956Y-184620830D01*
X98566506Y-184639732D01*
X98512842Y-184653582D01*
X98457246Y-184662098D01*
X98400000Y-184665000D01*
X98342713Y-184662098D01*
X98287087Y-184653582D01*
X98233403Y-184639732D01*
X98181940Y-184620830D01*
X98132981Y-184597156D01*
X98086805Y-184568992D01*
X98043694Y-184536619D01*
X98003929Y-184500319D01*
X97967790Y-184460372D01*
X97935559Y-184417060D01*
X97907515Y-184370663D01*
X97883941Y-184321464D01*
X97865117Y-184269744D01*
X97851323Y-184215783D01*
X97842840Y-184159862D01*
X97839951Y-184102264D01*
X97933984Y-184102264D01*
X97936395Y-184150155D01*
X97948682Y-184219348D01*
X97970666Y-184284656D01*
X98001551Y-184345279D01*
X98040538Y-184400417D01*
X98086832Y-184449268D01*
X98139635Y-184491032D01*
X98198150Y-184524909D01*
X98261580Y-184550098D01*
X98329129Y-184565799D01*
X98400000Y-184571210D01*
X98447576Y-184568785D01*
X98516321Y-184556426D01*
X98581212Y-184534310D01*
X98641455Y-184503241D01*
X98696250Y-184464016D01*
X98744802Y-184417438D01*
X98786313Y-184364307D01*
X98819987Y-184305424D01*
X98845027Y-184241588D01*
X98860635Y-184173602D01*
X98866015Y-184102264D01*
X98863604Y-184054416D01*
X98851317Y-183985278D01*
X98829333Y-183920013D01*
X98798448Y-183859424D01*
X98759461Y-183804312D01*
X98713167Y-183755479D01*
X98660364Y-183713727D01*
X98601849Y-183679857D01*
X98538419Y-183654672D01*
X98470870Y-183638973D01*
X98400000Y-183633562D01*
X98352423Y-183635987D01*
X98283678Y-183648346D01*
X98218787Y-183670458D01*
X98158544Y-183701522D01*
X98103749Y-183740735D01*
X98055197Y-183787297D01*
X98013686Y-183840405D01*
X97980012Y-183899258D01*
X97954972Y-183963053D01*
X97939364Y-184030989D01*
X97933984Y-184102264D01*
X97839951Y-184102264D01*
X97842840Y-184044709D01*
X97851323Y-183988826D01*
X97865117Y-183934898D01*
X97883941Y-183883205D01*
X97907515Y-183834029D01*
X97935559Y-183787653D01*
X97967790Y-183744357D01*
X98003929Y-183704423D01*
X98043694Y-183668133D01*
X98086805Y-183635767D01*
X98132981Y-183607609D01*
X98181940Y-183583939D01*
X98233403Y-183565038D01*
X98287087Y-183551190D01*
X98342713Y-183542674D01*
X98400000Y-183539773D01*
X98457246Y-183542674D01*
G37*
G36*
X100266015Y-184102508D02*
G01*
X100260635Y-184173783D01*
X100245027Y-184241719D01*
X100219987Y-184305515D01*
X100186313Y-184364367D01*
X100144802Y-184417475D01*
X100096250Y-184464037D01*
X100041455Y-184503250D01*
X99981212Y-184534314D01*
X99916321Y-184556427D01*
X99847576Y-184568785D01*
X99800000Y-184571210D01*
X99729129Y-184565799D01*
X99661580Y-184550100D01*
X99598150Y-184524915D01*
X99539635Y-184491045D01*
X99486832Y-184449293D01*
X99440538Y-184400460D01*
X99401551Y-184345348D01*
X99370666Y-184284759D01*
X99348682Y-184219495D01*
X99336395Y-184150356D01*
X99333984Y-184102508D01*
X99333984Y-183539528D01*
X99239951Y-183539528D01*
X99239951Y-184102508D01*
X99242840Y-184160063D01*
X99251323Y-184215946D01*
X99265117Y-184269875D01*
X99283941Y-184321567D01*
X99307515Y-184370743D01*
X99335559Y-184417119D01*
X99367790Y-184460415D01*
X99403929Y-184500349D01*
X99443694Y-184536640D01*
X99486805Y-184569005D01*
X99532981Y-184597163D01*
X99581940Y-184620834D01*
X99633403Y-184639734D01*
X99687087Y-184653583D01*
X99742713Y-184662098D01*
X99800000Y-184665000D01*
X99857246Y-184662098D01*
X99912842Y-184653583D01*
X99966506Y-184639734D01*
X100017956Y-184620834D01*
X100066910Y-184597163D01*
X100113086Y-184569005D01*
X100156203Y-184536640D01*
X100195978Y-184500349D01*
X100232130Y-184460415D01*
X100264376Y-184417119D01*
X100292434Y-184370743D01*
X100316024Y-184321567D01*
X100334862Y-184269875D01*
X100348666Y-184215946D01*
X100357156Y-184160063D01*
X100360048Y-184102508D01*
X100360048Y-183539528D01*
X100266015Y-183539528D01*
X100266015Y-184102508D01*
G37*
G36*
X100639951Y-183633562D02*
G01*
X101152861Y-183633562D01*
X101152861Y-184665000D01*
X101246894Y-184665000D01*
X101246894Y-183633562D01*
X101760048Y-183633562D01*
X101760048Y-183539773D01*
X100639951Y-183539773D01*
X100639951Y-183633562D01*
G37*
G36*
X95459561Y-160633562D02*
G01*
X95972471Y-160633562D01*
X95972471Y-161665000D01*
X96066504Y-161665000D01*
X96066504Y-160633562D01*
X96579658Y-160633562D01*
X96579658Y-160539773D01*
X95459561Y-160539773D01*
X95459561Y-160633562D01*
G37*
G36*
X97737215Y-160545948D02*
G01*
X97794186Y-160563667D01*
X97845754Y-160591718D01*
X97890693Y-160628891D01*
X97927778Y-160673975D01*
X97955784Y-160725760D01*
X97973485Y-160783034D01*
X97979658Y-160844588D01*
X97978187Y-160874779D01*
X97969473Y-160923146D01*
X97949473Y-160977175D01*
X97920112Y-161025778D01*
X97882502Y-161067845D01*
X97837753Y-161102264D01*
X97860951Y-161118448D01*
X97902269Y-161156830D01*
X97935893Y-161202304D01*
X97960712Y-161253759D01*
X97975615Y-161310084D01*
X97979658Y-161359940D01*
X97979658Y-161665000D01*
X97885625Y-161665000D01*
X97885625Y-161359940D01*
X97884541Y-161338457D01*
X97872888Y-161287655D01*
X97849793Y-161242342D01*
X97816921Y-161204188D01*
X97775940Y-161174866D01*
X97728513Y-161156047D01*
X97676309Y-161149403D01*
X96953594Y-161149403D01*
X96953594Y-161665000D01*
X96859561Y-161665000D01*
X96859561Y-160633562D01*
X96953350Y-160633562D01*
X96953350Y-161055369D01*
X97676309Y-161055369D01*
X97697657Y-161054237D01*
X97748151Y-161042437D01*
X97793199Y-161019159D01*
X97831136Y-160986070D01*
X97860297Y-160944834D01*
X97879015Y-160897118D01*
X97885625Y-160844588D01*
X97884541Y-160823059D01*
X97872885Y-160772145D01*
X97849780Y-160726727D01*
X97816885Y-160688483D01*
X97775860Y-160659089D01*
X97728367Y-160640223D01*
X97676064Y-160633562D01*
X96953350Y-160633562D01*
X96859561Y-160633562D01*
X96859561Y-160539773D01*
X97676064Y-160539773D01*
X97737215Y-160545948D01*
G37*
G36*
X98541173Y-160633562D02*
G01*
X98541173Y-160539773D01*
X98259072Y-160539773D01*
X98259072Y-160633562D01*
X98353106Y-160633562D01*
X98353106Y-161571210D01*
X98259072Y-161571210D01*
X98259072Y-161665000D01*
X98541173Y-161665000D01*
X98541173Y-161571210D01*
X98447139Y-161571210D01*
X98447139Y-160633562D01*
X98541173Y-160633562D01*
G37*
G36*
X98820342Y-161102264D02*
G01*
X98823232Y-161159862D01*
X98831714Y-161215783D01*
X98845508Y-161269744D01*
X98864333Y-161321464D01*
X98887907Y-161370663D01*
X98915950Y-161417060D01*
X98948182Y-161460372D01*
X98984321Y-161500319D01*
X99024086Y-161536619D01*
X99067197Y-161568992D01*
X99113372Y-161597156D01*
X99162332Y-161620830D01*
X99213794Y-161639732D01*
X99267479Y-161653582D01*
X99323105Y-161662098D01*
X99380391Y-161665000D01*
X99940440Y-161665000D01*
X99940440Y-161055369D01*
X99539149Y-161055369D01*
X99539149Y-161149403D01*
X99846406Y-161149403D01*
X99846406Y-161571210D01*
X99380391Y-161571210D01*
X99309521Y-161565793D01*
X99241972Y-161550077D01*
X99178541Y-161524868D01*
X99120026Y-161490968D01*
X99067223Y-161449182D01*
X99020930Y-161400315D01*
X98981942Y-161345171D01*
X98951058Y-161284553D01*
X98929074Y-161219266D01*
X98916786Y-161150115D01*
X98914376Y-161102264D01*
X98919756Y-161031051D01*
X98935364Y-160963166D01*
X98960403Y-160899411D01*
X98994077Y-160840590D01*
X99035589Y-160787505D01*
X99084140Y-160740959D01*
X99138936Y-160701756D01*
X99199178Y-160670698D01*
X99264070Y-160648589D01*
X99332815Y-160636231D01*
X99380391Y-160633806D01*
X99940440Y-160633806D01*
X99940440Y-160539773D01*
X99380391Y-160539773D01*
X99323105Y-160542674D01*
X99267479Y-160551190D01*
X99213794Y-160565038D01*
X99162332Y-160583939D01*
X99113372Y-160607609D01*
X99067197Y-160635767D01*
X99024086Y-160668133D01*
X98984321Y-160704423D01*
X98948182Y-160744357D01*
X98915950Y-160787653D01*
X98887907Y-160834029D01*
X98864333Y-160883205D01*
X98845508Y-160934898D01*
X98831714Y-160988826D01*
X98823232Y-161044709D01*
X98820342Y-161102264D01*
G37*
G36*
X100220342Y-161102264D02*
G01*
X100223232Y-161159862D01*
X100231714Y-161215783D01*
X100245508Y-161269744D01*
X100264333Y-161321464D01*
X100287907Y-161370663D01*
X100315950Y-161417060D01*
X100348182Y-161460372D01*
X100384321Y-161500319D01*
X100424086Y-161536619D01*
X100467197Y-161568992D01*
X100513372Y-161597156D01*
X100562332Y-161620830D01*
X100613794Y-161639732D01*
X100667479Y-161653582D01*
X100723105Y-161662098D01*
X100780391Y-161665000D01*
X101340440Y-161665000D01*
X101340440Y-161055369D01*
X100939149Y-161055369D01*
X100939149Y-161149403D01*
X101246406Y-161149403D01*
X101246406Y-161571210D01*
X100780391Y-161571210D01*
X100709521Y-161565793D01*
X100641972Y-161550077D01*
X100578541Y-161524868D01*
X100520026Y-161490968D01*
X100467223Y-161449182D01*
X100420930Y-161400315D01*
X100381942Y-161345171D01*
X100351058Y-161284553D01*
X100329074Y-161219266D01*
X100316786Y-161150115D01*
X100314376Y-161102264D01*
X100319756Y-161031051D01*
X100335364Y-160963166D01*
X100360403Y-160899411D01*
X100394077Y-160840590D01*
X100435589Y-160787505D01*
X100484140Y-160740959D01*
X100538936Y-160701756D01*
X100599178Y-160670698D01*
X100664070Y-160648589D01*
X100732815Y-160636231D01*
X100780391Y-160633806D01*
X101340440Y-160633806D01*
X101340440Y-160539773D01*
X100780391Y-160539773D01*
X100723105Y-160542674D01*
X100667479Y-160551190D01*
X100613794Y-160565038D01*
X100562332Y-160583939D01*
X100513372Y-160607609D01*
X100467197Y-160635767D01*
X100424086Y-160668133D01*
X100384321Y-160704423D01*
X100348182Y-160744357D01*
X100315950Y-160787653D01*
X100287907Y-160834029D01*
X100264333Y-160883205D01*
X100245508Y-160934898D01*
X100231714Y-160988826D01*
X100223232Y-161044709D01*
X100220342Y-161102264D01*
G37*
G36*
X101620342Y-161102264D02*
G01*
X101623232Y-161159862D01*
X101631714Y-161215783D01*
X101645508Y-161269744D01*
X101664333Y-161321464D01*
X101687907Y-161370663D01*
X101715950Y-161417060D01*
X101748182Y-161460372D01*
X101784321Y-161500319D01*
X101824086Y-161536619D01*
X101867197Y-161568992D01*
X101913372Y-161597156D01*
X101962332Y-161620830D01*
X102013794Y-161639732D01*
X102067479Y-161653582D01*
X102123105Y-161662098D01*
X102180391Y-161665000D01*
X102740440Y-161665000D01*
X102740440Y-161571210D01*
X102180391Y-161571210D01*
X102113808Y-161566433D01*
X102050100Y-161552544D01*
X101989926Y-161530207D01*
X101933945Y-161500087D01*
X101882817Y-161462847D01*
X101837200Y-161419152D01*
X101797755Y-161369666D01*
X101765140Y-161315053D01*
X101740015Y-161255977D01*
X101723039Y-161193102D01*
X101716574Y-161149403D01*
X102740440Y-161149403D01*
X102740440Y-161055369D01*
X101716574Y-161055369D01*
X101727751Y-160990337D01*
X101747517Y-160928671D01*
X101775212Y-160871033D01*
X101810177Y-160818086D01*
X101851753Y-160770489D01*
X101899280Y-160728907D01*
X101952099Y-160693999D01*
X102009551Y-160666428D01*
X102070976Y-160646855D01*
X102135716Y-160635943D01*
X102180391Y-160633806D01*
X102740440Y-160633806D01*
X102740440Y-160539773D01*
X102180391Y-160539773D01*
X102123105Y-160542674D01*
X102067479Y-160551190D01*
X102013794Y-160565038D01*
X101962332Y-160583939D01*
X101913372Y-160607609D01*
X101867197Y-160635767D01*
X101824086Y-160668133D01*
X101784321Y-160704423D01*
X101748182Y-160744357D01*
X101715950Y-160787653D01*
X101687907Y-160834029D01*
X101664333Y-160883205D01*
X101645508Y-160934898D01*
X101631714Y-160988826D01*
X101623232Y-161044709D01*
X101620342Y-161102264D01*
G37*
G36*
X103897996Y-160545948D02*
G01*
X103954968Y-160563667D01*
X104006536Y-160591718D01*
X104051474Y-160628891D01*
X104088559Y-160673975D01*
X104116565Y-160725760D01*
X104134267Y-160783034D01*
X104140440Y-160844588D01*
X104138969Y-160874779D01*
X104130254Y-160923146D01*
X104110254Y-160977175D01*
X104080894Y-161025778D01*
X104043284Y-161067845D01*
X103998535Y-161102264D01*
X104021732Y-161118448D01*
X104063051Y-161156830D01*
X104096675Y-161202304D01*
X104121494Y-161253759D01*
X104136397Y-161310084D01*
X104140440Y-161359940D01*
X104140440Y-161665000D01*
X104046406Y-161665000D01*
X104046406Y-161359940D01*
X104045322Y-161338457D01*
X104033669Y-161287655D01*
X104010574Y-161242342D01*
X103977703Y-161204188D01*
X103936721Y-161174866D01*
X103889295Y-161156047D01*
X103837090Y-161149403D01*
X103114376Y-161149403D01*
X103114376Y-161665000D01*
X103020342Y-161665000D01*
X103020342Y-160633562D01*
X103114131Y-160633562D01*
X103114131Y-161055369D01*
X103837090Y-161055369D01*
X103858439Y-161054237D01*
X103908932Y-161042437D01*
X103953981Y-161019159D01*
X103991918Y-160986070D01*
X104021079Y-160944834D01*
X104039797Y-160897118D01*
X104046406Y-160844588D01*
X104045322Y-160823059D01*
X104033667Y-160772145D01*
X104010561Y-160726727D01*
X103977666Y-160688483D01*
X103936642Y-160659089D01*
X103889148Y-160640223D01*
X103836846Y-160633562D01*
X103114131Y-160633562D01*
X103020342Y-160633562D01*
X103020342Y-160539773D01*
X103836846Y-160539773D01*
X103897996Y-160545948D01*
G37*
M02*
