%TF.GenerationSoftware,KiCad,Pcbnew,8.0.3-8.0.3-0~ubuntu22.04.1*%
%TF.CreationDate,2024-07-22T11:51:23+02:00*%
%TF.ProjectId,splt_mlt,73706c74-5f6d-46c7-942e-6b696361645f,rev?*%
%TF.SameCoordinates,Original*%
%TF.FileFunction,Copper,L1,Top*%
%TF.FilePolarity,Positive*%
%FSLAX46Y46*%
G04 Gerber Fmt 4.6, Leading zero omitted, Abs format (unit mm)*
G04 Created by KiCad (PCBNEW 8.0.3-8.0.3-0~ubuntu22.04.1) date 2024-07-22 11:51:23*
%MOMM*%
%LPD*%
G01*
G04 APERTURE LIST*
%TA.AperFunction,ComponentPad*%
%ADD10O,1.508000X3.016000*%
%TD*%
%TA.AperFunction,ComponentPad*%
%ADD11O,3.016000X1.508000*%
%TD*%
%TA.AperFunction,ComponentPad*%
%ADD12R,2.200000X2.200000*%
%TD*%
%TA.AperFunction,ComponentPad*%
%ADD13O,2.200000X2.200000*%
%TD*%
%TA.AperFunction,ComponentPad*%
%ADD14R,1.200000X1.200000*%
%TD*%
%TA.AperFunction,ComponentPad*%
%ADD15C,1.200000*%
%TD*%
%TA.AperFunction,ComponentPad*%
%ADD16O,1.700000X1.700000*%
%TD*%
%TA.AperFunction,ViaPad*%
%ADD17C,0.600000*%
%TD*%
%TA.AperFunction,Conductor*%
%ADD18C,0.200000*%
%TD*%
G04 APERTURE END LIST*
D10*
%TO.P,J8,R*%
%TO.N,unconnected-(J8-PadR)*%
X100190000Y-109000000D03*
D11*
%TO.P,J8,S*%
%TO.N,GND*%
X103390000Y-105450000D03*
D10*
%TO.P,J8,T*%
%TO.N,Net-(J8-PadT)*%
X108290000Y-109000000D03*
D11*
%TO.P,J8,TN*%
%TO.N,unconnected-(J8-PadTN)*%
X103390000Y-112550000D03*
%TD*%
D10*
%TO.P,J6,R*%
%TO.N,unconnected-(J6-PadR)*%
X108290000Y-95000000D03*
D11*
%TO.P,J6,S*%
%TO.N,GND*%
X105090000Y-98550000D03*
D10*
%TO.P,J6,T*%
%TO.N,Net-(J6-PadT)*%
X100190000Y-95000000D03*
D11*
%TO.P,J6,TN*%
%TO.N,unconnected-(J6-PadTN)*%
X105090000Y-91450000D03*
%TD*%
%TO.P,J4,R*%
%TO.N,unconnected-(J4-PadR)*%
X104240000Y-62950000D03*
D10*
%TO.P,J4,S*%
%TO.N,GND*%
X107790000Y-66150000D03*
D11*
%TO.P,J4,T*%
%TO.N,Net-(J4-PadT)*%
X104240000Y-71050000D03*
D10*
%TO.P,J4,TN*%
%TO.N,unconnected-(J4-PadTN)*%
X100690000Y-66150000D03*
%TD*%
D11*
%TO.P,J10,R*%
%TO.N,unconnected-(J10-PadR)*%
X104240000Y-132950000D03*
D10*
%TO.P,J10,S*%
%TO.N,GND*%
X107790000Y-136150000D03*
D11*
%TO.P,J10,T*%
%TO.N,Net-(J10-PadT)*%
X104240000Y-141050000D03*
D10*
%TO.P,J10,TN*%
%TO.N,unconnected-(J10-PadTN)*%
X100690000Y-136150000D03*
%TD*%
D11*
%TO.P,J17,R*%
%TO.N,Net-(J14-PadTN)*%
X90240000Y-118950000D03*
D10*
%TO.P,J17,S*%
%TO.N,GND*%
X93790000Y-122150000D03*
D11*
%TO.P,J17,T*%
%TO.N,Net-(J14-PadT)*%
X90240000Y-127050000D03*
D10*
%TO.P,J17,TN*%
%TO.N,unconnected-(J17-PadTN)*%
X86690000Y-122150000D03*
%TD*%
D11*
%TO.P,J5,R*%
%TO.N,unconnected-(J5-PadR)*%
X104240000Y-76950000D03*
D10*
%TO.P,J5,S*%
%TO.N,GND*%
X107790000Y-80150000D03*
D11*
%TO.P,J5,T*%
%TO.N,Net-(J5-PadT)*%
X104240000Y-85050000D03*
D10*
%TO.P,J5,TN*%
%TO.N,unconnected-(J5-PadTN)*%
X100690000Y-80150000D03*
%TD*%
D11*
%TO.P,J9,R*%
%TO.N,unconnected-(J9-PadR)*%
X104240000Y-118950000D03*
D10*
%TO.P,J9,S*%
%TO.N,GND*%
X107790000Y-122150000D03*
D11*
%TO.P,J9,T*%
%TO.N,Net-(J9-PadT)*%
X104240000Y-127050000D03*
D10*
%TO.P,J9,TN*%
%TO.N,unconnected-(J9-PadTN)*%
X100690000Y-122150000D03*
%TD*%
D11*
%TO.P,J16,R*%
%TO.N,Net-(J12-PadTN)*%
X90240000Y-62950000D03*
D10*
%TO.P,J16,S*%
%TO.N,GND*%
X93790000Y-66150000D03*
D11*
%TO.P,J16,T*%
%TO.N,Net-(J12-PadT)*%
X90240000Y-71050000D03*
D10*
%TO.P,J16,TN*%
%TO.N,unconnected-(J16-PadTN)*%
X86690000Y-66150000D03*
%TD*%
D11*
%TO.P,J1,R*%
%TO.N,unconnected-(J1-PadR)*%
X90240000Y-48950000D03*
D10*
%TO.P,J1,S*%
%TO.N,GND*%
X93790000Y-52150000D03*
D11*
%TO.P,J1,T*%
%TO.N,Net-(J1-PadT)*%
X90240000Y-57050000D03*
D10*
%TO.P,J1,TN*%
%TO.N,GND*%
X86690000Y-52150000D03*
%TD*%
D11*
%TO.P,J14,R*%
%TO.N,unconnected-(J14-PadR)*%
X90240000Y-132950000D03*
D10*
%TO.P,J14,S*%
%TO.N,GND*%
X93790000Y-136150000D03*
D11*
%TO.P,J14,T*%
%TO.N,Net-(J14-PadT)*%
X90240000Y-141050000D03*
D10*
%TO.P,J14,TN*%
%TO.N,Net-(J14-PadTN)*%
X86690000Y-136150000D03*
%TD*%
D11*
%TO.P,J3,R*%
%TO.N,unconnected-(J3-PadR)*%
X104240000Y-48950000D03*
D10*
%TO.P,J3,S*%
%TO.N,GND*%
X107790000Y-52150000D03*
D11*
%TO.P,J3,T*%
%TO.N,Net-(J3-PadT)*%
X104240000Y-57050000D03*
D10*
%TO.P,J3,TN*%
%TO.N,unconnected-(J3-PadTN)*%
X100690000Y-52150000D03*
%TD*%
D11*
%TO.P,J12,R*%
%TO.N,unconnected-(J12-PadR)*%
X90240000Y-76950000D03*
D10*
%TO.P,J12,S*%
%TO.N,GND*%
X93790000Y-80150000D03*
D11*
%TO.P,J12,T*%
%TO.N,Net-(J12-PadT)*%
X90240000Y-85050000D03*
D10*
%TO.P,J12,TN*%
%TO.N,Net-(J12-PadTN)*%
X86690000Y-80150000D03*
%TD*%
%TO.P,J7,R*%
%TO.N,unconnected-(J7-PadR)*%
X94290000Y-109000000D03*
D11*
%TO.P,J7,S*%
%TO.N,GND*%
X91090000Y-112550000D03*
D10*
%TO.P,J7,T*%
%TO.N,Net-(J7-PadT)*%
X86190000Y-109000000D03*
D11*
%TO.P,J7,TN*%
%TO.N,Net-(U1A-+)*%
X91090000Y-105450000D03*
%TD*%
%TO.P,J11,R*%
%TO.N,unconnected-(J11-PadR)*%
X104240000Y-146950000D03*
D10*
%TO.P,J11,S*%
%TO.N,GND*%
X107790000Y-150150000D03*
D11*
%TO.P,J11,T*%
%TO.N,Net-(J11-PadT)*%
X104240000Y-155050000D03*
D10*
%TO.P,J11,TN*%
%TO.N,unconnected-(J11-PadTN)*%
X100690000Y-150150000D03*
%TD*%
%TO.P,J13,R*%
%TO.N,unconnected-(J13-PadR)*%
X94290000Y-95000000D03*
D11*
%TO.P,J13,S*%
%TO.N,GND*%
X91090000Y-98550000D03*
D10*
%TO.P,J13,T*%
%TO.N,Net-(J12-PadTN)*%
X86190000Y-95000000D03*
D11*
%TO.P,J13,TN*%
%TO.N,Net-(J12-PadT)*%
X91090000Y-91450000D03*
%TD*%
%TO.P,J15,R*%
%TO.N,unconnected-(J15-PadR)*%
X90240000Y-146950000D03*
D10*
%TO.P,J15,S*%
%TO.N,GND*%
X93790000Y-150150000D03*
D11*
%TO.P,J15,T*%
%TO.N,Net-(J14-PadTN)*%
X90240000Y-155050000D03*
D10*
%TO.P,J15,TN*%
%TO.N,Net-(J14-PadT)*%
X86690000Y-150150000D03*
%TD*%
D12*
%TO.P,D1,1,K*%
%TO.N,Net-(D1-K)*%
X86368234Y-100828234D03*
D13*
%TO.P,D1,2,A*%
%TO.N,Net-(D1-A)*%
X86368234Y-103368234D03*
%TD*%
D14*
%TO.P,C14,1*%
%TO.N,Net-(D2-K)*%
X96540000Y-115600000D03*
D15*
%TO.P,C14,2*%
%TO.N,GND*%
X98040000Y-115600000D03*
%TD*%
D14*
%TO.P,C13,1*%
%TO.N,GND*%
X97862599Y-88099998D03*
D15*
%TO.P,C13,2*%
%TO.N,Net-(D1-A)*%
X96362599Y-88099998D03*
%TD*%
D16*
%TO.P,J2,1,Pin_1*%
%TO.N,Net-(D1-K)*%
X92160000Y-100730000D03*
%TO.P,J2,2,Pin_2*%
X92160000Y-103270000D03*
%TO.P,J2,3,Pin_3*%
%TO.N,GND*%
X94700000Y-100730000D03*
%TO.P,J2,4,Pin_4*%
X94700000Y-103270000D03*
%TO.P,J2,5,Pin_5*%
X97240000Y-100730000D03*
%TO.P,J2,6,Pin_6*%
X97240000Y-103270000D03*
%TO.P,J2,7,Pin_7*%
X99780000Y-100730000D03*
%TO.P,J2,8,Pin_8*%
X99780000Y-103270000D03*
%TO.P,J2,9,Pin_9*%
%TO.N,Net-(D2-A)*%
X102320000Y-100730000D03*
%TO.P,J2,10,Pin_10*%
X102320000Y-103270000D03*
%TD*%
D12*
%TO.P,D2,1,K*%
%TO.N,Net-(D2-K)*%
X108368234Y-100728234D03*
D13*
%TO.P,D2,2,A*%
%TO.N,Net-(D2-A)*%
X108368234Y-103268234D03*
%TD*%
D17*
%TO.N,Net-(D1-A)*%
X96340000Y-74300000D03*
X96390000Y-128700544D03*
%TO.N,GND*%
X105840000Y-109000000D03*
X107240000Y-125000000D03*
X108840000Y-130700000D03*
X104240000Y-88500000D03*
X97140000Y-59400000D03*
X103340000Y-52300000D03*
X97540000Y-66200000D03*
X90040000Y-144400000D03*
X97040000Y-105700000D03*
X104540000Y-101500000D03*
X105440000Y-130500000D03*
X92440000Y-88800000D03*
X97940000Y-135200000D03*
X88140000Y-107200000D03*
X87240000Y-63400000D03*
X87140000Y-130400000D03*
X105440000Y-65000000D03*
X89340000Y-52700000D03*
X101640000Y-97800000D03*
X93740000Y-153900000D03*
X97140000Y-110700000D03*
X97240000Y-139000000D03*
X98940000Y-144900000D03*
X96740000Y-52300000D03*
X105740000Y-59600000D03*
X88440000Y-59600000D03*
X90140000Y-124800000D03*
X90140000Y-101900000D03*
X93140000Y-115700000D03*
X85940000Y-126100000D03*
X107540000Y-139600000D03*
X106440000Y-94100000D03*
X104840000Y-144500000D03*
X89440000Y-93600000D03*
X89040000Y-129800000D03*
X101640000Y-153500000D03*
X101340000Y-115700000D03*
X97940000Y-123600000D03*
X96440000Y-132700000D03*
X92340000Y-96200000D03*
X90440000Y-75100000D03*
X97540000Y-83900000D03*
X94240000Y-144700000D03*
X86540000Y-74700000D03*
X97240000Y-97900000D03*
X107040000Y-83600000D03*
%TO.N,Net-(D2-K)*%
X97680536Y-128210522D03*
X97940000Y-74400000D03*
%TO.N,Net-(U1A-+)*%
X100640000Y-82500000D03*
X98140000Y-71900000D03*
X100940000Y-88900000D03*
X96340000Y-71900000D03*
%TO.N,Net-(U2A-+)*%
X96140000Y-130900000D03*
X98340000Y-130900000D03*
%TD*%
D18*
%TO.N,Net-(D1-A)*%
X86368234Y-103368234D02*
X86628234Y-103368234D01*
X86628234Y-103368234D02*
X87768234Y-102228234D01*
X87768234Y-102228234D02*
X87768234Y-97671766D01*
X87768234Y-97671766D02*
X96362599Y-89077401D01*
X96362599Y-89077401D02*
X96362599Y-88099998D01*
%TO.N,Net-(J12-PadTN)*%
X88032000Y-80100000D02*
X88032000Y-80000000D01*
X87982000Y-80150000D02*
X88032000Y-80100000D01*
X86690000Y-80150000D02*
X87982000Y-80150000D01*
%TO.N,Net-(J12-PadT)*%
X91090000Y-91450000D02*
X91090000Y-85900000D01*
X91090000Y-85900000D02*
X90240000Y-85050000D01*
%TO.N,Net-(J14-PadTN)*%
X86690000Y-136150000D02*
X87840000Y-135000000D01*
X87840000Y-135000000D02*
X87840000Y-121350000D01*
X87840000Y-121350000D02*
X90240000Y-118950000D01*
%TO.N,Net-(J14-PadT)*%
X90240000Y-141050000D02*
X86690000Y-144600000D01*
X86690000Y-144600000D02*
X86690000Y-150150000D01*
%TO.N,Net-(D1-A)*%
X95640000Y-127950544D02*
X96390000Y-128700544D01*
X96362599Y-74322599D02*
X96340000Y-74300000D01*
X86368234Y-103368234D02*
X95640000Y-112640000D01*
X95640000Y-112640000D02*
X95640000Y-127950544D01*
X96362599Y-88099998D02*
X96362599Y-74322599D01*
%TO.N,Net-(D2-K)*%
X98762599Y-89822599D02*
X98762599Y-75222599D01*
X108368234Y-100728234D02*
X108368234Y-99428234D01*
X98762599Y-75222599D02*
X97940000Y-74400000D01*
X105198000Y-106942000D02*
X96540000Y-115600000D01*
X108368234Y-99428234D02*
X98762599Y-89822599D01*
X108368234Y-100728234D02*
X105198000Y-103898468D01*
X96540000Y-115600000D02*
X96540000Y-127069986D01*
X105198000Y-103898468D02*
X105198000Y-106942000D01*
X96540000Y-127069986D02*
X97680536Y-128210522D01*
%TO.N,Net-(D1-K)*%
X92160000Y-100730000D02*
X92160000Y-103270000D01*
%TO.N,Net-(D2-A)*%
X108366468Y-103270000D02*
X108368234Y-103268234D01*
X102320000Y-100730000D02*
X102320000Y-103270000D01*
%TO.N,Net-(U1A-+)*%
X100940000Y-88900000D02*
X100940000Y-82800000D01*
X100940000Y-82800000D02*
X100640000Y-82500000D01*
X96340000Y-71900000D02*
X98140000Y-71900000D01*
%TO.N,Net-(J12-PadT)*%
X88432000Y-83242000D02*
X88432000Y-72858000D01*
X90240000Y-85050000D02*
X88432000Y-83242000D01*
X88432000Y-72858000D02*
X90240000Y-71050000D01*
%TO.N,Net-(J12-PadTN)*%
X88032000Y-65158000D02*
X88032000Y-93158000D01*
X88032000Y-93158000D02*
X86190000Y-95000000D01*
X90240000Y-62950000D02*
X88032000Y-65158000D01*
%TO.N,Net-(J14-PadT)*%
X88432000Y-139242000D02*
X88432000Y-128858000D01*
X90240000Y-141050000D02*
X88432000Y-139242000D01*
X88432000Y-128858000D02*
X90240000Y-127050000D01*
%TO.N,Net-(J14-PadTN)*%
X90240000Y-118950000D02*
X92048000Y-120758000D01*
X92048000Y-153242000D02*
X90240000Y-155050000D01*
X92048000Y-120758000D02*
X92048000Y-153242000D01*
%TO.N,Net-(U2A-+)*%
X98340000Y-130900000D02*
X96140000Y-130900000D01*
%TD*%
%TA.AperFunction,Conductor*%
%TO.N,GND*%
G36*
X84945703Y-104121138D02*
G01*
X84970227Y-104150061D01*
X85069394Y-104311888D01*
X85069395Y-104311890D01*
X85069398Y-104311893D01*
X85233010Y-104503458D01*
X85351974Y-104605063D01*
X85424577Y-104667072D01*
X85424580Y-104667073D01*
X85639374Y-104798700D01*
X85872121Y-104895106D01*
X85872123Y-104895107D01*
X86117086Y-104953917D01*
X86368234Y-104973683D01*
X86619382Y-104953917D01*
X86864345Y-104895107D01*
X86887194Y-104885642D01*
X86916157Y-104873646D01*
X86985626Y-104866177D01*
X87048105Y-104897452D01*
X87051291Y-104900526D01*
X95003181Y-112852416D01*
X95036666Y-112913739D01*
X95039500Y-112940097D01*
X95039500Y-120600723D01*
X95019815Y-120667762D01*
X94967011Y-120713517D01*
X94897853Y-120723461D01*
X94834297Y-120694436D01*
X94815182Y-120673608D01*
X94746503Y-120579080D01*
X94746499Y-120579075D01*
X94606924Y-120439500D01*
X94606919Y-120439496D01*
X94447242Y-120323485D01*
X94271371Y-120233873D01*
X94083642Y-120172876D01*
X94040000Y-120165963D01*
X94040000Y-121116988D01*
X93982993Y-121084075D01*
X93855826Y-121050000D01*
X93724174Y-121050000D01*
X93597007Y-121084075D01*
X93540000Y-121116988D01*
X93540000Y-120165963D01*
X93496357Y-120172876D01*
X93496356Y-120172876D01*
X93308628Y-120233873D01*
X93132757Y-120323485D01*
X92973080Y-120439496D01*
X92973075Y-120439500D01*
X92833496Y-120579079D01*
X92831601Y-120581689D01*
X92830625Y-120582441D01*
X92830330Y-120582787D01*
X92830257Y-120582724D01*
X92776270Y-120624353D01*
X92706657Y-120630331D01*
X92644863Y-120597723D01*
X92611509Y-120540892D01*
X92607768Y-120526929D01*
X92607768Y-120526928D01*
X92607577Y-120526216D01*
X92607577Y-120526215D01*
X92557293Y-120439121D01*
X92528520Y-120389284D01*
X92416716Y-120277480D01*
X92416715Y-120277479D01*
X92412385Y-120273149D01*
X92412374Y-120273139D01*
X92007085Y-119867850D01*
X91973600Y-119806527D01*
X91978584Y-119736835D01*
X91994448Y-119707284D01*
X91997316Y-119703336D01*
X92066944Y-119607501D01*
X92156591Y-119431561D01*
X92217610Y-119243763D01*
X92248500Y-119048736D01*
X92248500Y-118851263D01*
X92217610Y-118656236D01*
X92197270Y-118593637D01*
X92156591Y-118468439D01*
X92066944Y-118292499D01*
X92059486Y-118282234D01*
X91950884Y-118132753D01*
X91811246Y-117993115D01*
X91651504Y-117877058D01*
X91651503Y-117877057D01*
X91651501Y-117877056D01*
X91475561Y-117787409D01*
X91475558Y-117787408D01*
X91287763Y-117726389D01*
X91092736Y-117695500D01*
X91092731Y-117695500D01*
X89387269Y-117695500D01*
X89387264Y-117695500D01*
X89192236Y-117726389D01*
X89004441Y-117787408D01*
X88828495Y-117877058D01*
X88668753Y-117993115D01*
X88529115Y-118132753D01*
X88413058Y-118292495D01*
X88323408Y-118468441D01*
X88262389Y-118656236D01*
X88231500Y-118851263D01*
X88231500Y-119048736D01*
X88262389Y-119243763D01*
X88323408Y-119431558D01*
X88323409Y-119431561D01*
X88369908Y-119522820D01*
X88413055Y-119607500D01*
X88485551Y-119707283D01*
X88509030Y-119773090D01*
X88493204Y-119841144D01*
X88472913Y-119867849D01*
X87792128Y-120548635D01*
X87730805Y-120582120D01*
X87661114Y-120577136D01*
X87616766Y-120548635D01*
X87507246Y-120439115D01*
X87347504Y-120323058D01*
X87347503Y-120323057D01*
X87347501Y-120323056D01*
X87171561Y-120233409D01*
X87171558Y-120233408D01*
X86983763Y-120172389D01*
X86788736Y-120141500D01*
X86788731Y-120141500D01*
X86591269Y-120141500D01*
X86591264Y-120141500D01*
X86396236Y-120172389D01*
X86208441Y-120233408D01*
X86032495Y-120323058D01*
X85872753Y-120439115D01*
X85733115Y-120578753D01*
X85617058Y-120738495D01*
X85527408Y-120914441D01*
X85466389Y-121102236D01*
X85435500Y-121297263D01*
X85435500Y-123002736D01*
X85466389Y-123197763D01*
X85527348Y-123385373D01*
X85527409Y-123385561D01*
X85617056Y-123561501D01*
X85617058Y-123561504D01*
X85733115Y-123721246D01*
X85872753Y-123860884D01*
X86022234Y-123969486D01*
X86032499Y-123976944D01*
X86208439Y-124066591D01*
X86296677Y-124095261D01*
X86396236Y-124127610D01*
X86591264Y-124158500D01*
X86591269Y-124158500D01*
X86788736Y-124158500D01*
X86943203Y-124134034D01*
X86983763Y-124127610D01*
X87077183Y-124097255D01*
X87147022Y-124095261D01*
X87206855Y-124131341D01*
X87237684Y-124194042D01*
X87239500Y-124215187D01*
X87239500Y-134084812D01*
X87219815Y-134151851D01*
X87167011Y-134197606D01*
X87097853Y-134207550D01*
X87077182Y-134202743D01*
X86983764Y-134172390D01*
X86788736Y-134141500D01*
X86788731Y-134141500D01*
X86591269Y-134141500D01*
X86591264Y-134141500D01*
X86396236Y-134172389D01*
X86208441Y-134233408D01*
X86032495Y-134323058D01*
X85872753Y-134439115D01*
X85733115Y-134578753D01*
X85617058Y-134738495D01*
X85527408Y-134914441D01*
X85466389Y-135102236D01*
X85435500Y-135297263D01*
X85435500Y-137002736D01*
X85466389Y-137197763D01*
X85527348Y-137385373D01*
X85527409Y-137385561D01*
X85617056Y-137561501D01*
X85617058Y-137561504D01*
X85733115Y-137721246D01*
X85872753Y-137860884D01*
X86022234Y-137969486D01*
X86032499Y-137976944D01*
X86208439Y-138066591D01*
X86333637Y-138107270D01*
X86396236Y-138127610D01*
X86591264Y-138158500D01*
X86591269Y-138158500D01*
X86788736Y-138158500D01*
X86983763Y-138127610D01*
X86985262Y-138127123D01*
X87171561Y-138066591D01*
X87347501Y-137976944D01*
X87437192Y-137911779D01*
X87507246Y-137860884D01*
X87507248Y-137860881D01*
X87507252Y-137860879D01*
X87619819Y-137748312D01*
X87681142Y-137714827D01*
X87750834Y-137719811D01*
X87806767Y-137761683D01*
X87831184Y-137827147D01*
X87831500Y-137835993D01*
X87831500Y-139155330D01*
X87831499Y-139155348D01*
X87831499Y-139321054D01*
X87831498Y-139321054D01*
X87872423Y-139473785D01*
X87901358Y-139523900D01*
X87901359Y-139523904D01*
X87901360Y-139523904D01*
X87951479Y-139610714D01*
X87951481Y-139610717D01*
X88070349Y-139729585D01*
X88070355Y-139729590D01*
X88472914Y-140132149D01*
X88506399Y-140193472D01*
X88501415Y-140263164D01*
X88485552Y-140292714D01*
X88413057Y-140392496D01*
X88323408Y-140568441D01*
X88262389Y-140756236D01*
X88231500Y-140951263D01*
X88231500Y-141148736D01*
X88262389Y-141343763D01*
X88323408Y-141531558D01*
X88323409Y-141531561D01*
X88369908Y-141622820D01*
X88413055Y-141707500D01*
X88485552Y-141807284D01*
X88509031Y-141873091D01*
X88493205Y-141941144D01*
X88472914Y-141967850D01*
X86209481Y-144231282D01*
X86209479Y-144231285D01*
X86159361Y-144318094D01*
X86159359Y-144318096D01*
X86130425Y-144368209D01*
X86130424Y-144368210D01*
X86130423Y-144368215D01*
X86089499Y-144520943D01*
X86089499Y-144520945D01*
X86089499Y-144689046D01*
X86089500Y-144689059D01*
X86089500Y-148218682D01*
X86069815Y-148285721D01*
X86035675Y-148319139D01*
X86036440Y-148320192D01*
X85872753Y-148439115D01*
X85733115Y-148578753D01*
X85617058Y-148738495D01*
X85527408Y-148914441D01*
X85466389Y-149102236D01*
X85435500Y-149297263D01*
X85435500Y-151002736D01*
X85466389Y-151197763D01*
X85527348Y-151385373D01*
X85527409Y-151385561D01*
X85617056Y-151561501D01*
X85617058Y-151561504D01*
X85733115Y-151721246D01*
X85872753Y-151860884D01*
X86022234Y-151969486D01*
X86032499Y-151976944D01*
X86208439Y-152066591D01*
X86333637Y-152107270D01*
X86396236Y-152127610D01*
X86591264Y-152158500D01*
X86591269Y-152158500D01*
X86788736Y-152158500D01*
X86983763Y-152127610D01*
X86985262Y-152127123D01*
X87171561Y-152066591D01*
X87347501Y-151976944D01*
X87437192Y-151911779D01*
X87507246Y-151860884D01*
X87507248Y-151860881D01*
X87507252Y-151860879D01*
X87646879Y-151721252D01*
X87646881Y-151721248D01*
X87646884Y-151721246D01*
X87697779Y-151651192D01*
X87762944Y-151561501D01*
X87852591Y-151385561D01*
X87913610Y-151197763D01*
X87935904Y-151057007D01*
X87944500Y-151002736D01*
X87944500Y-149297263D01*
X87913610Y-149102236D01*
X87893270Y-149039637D01*
X87852591Y-148914439D01*
X87762944Y-148738499D01*
X87755486Y-148728234D01*
X87646884Y-148578753D01*
X87507246Y-148439115D01*
X87343560Y-148320192D01*
X87344599Y-148318761D01*
X87302833Y-148272593D01*
X87290500Y-148218682D01*
X87290500Y-144900097D01*
X87310185Y-144833058D01*
X87326819Y-144812416D01*
X89798416Y-142340819D01*
X89859739Y-142307334D01*
X89886097Y-142304500D01*
X91092736Y-142304500D01*
X91201082Y-142287338D01*
X91287763Y-142273610D01*
X91287774Y-142273606D01*
X91292498Y-142272473D01*
X91292919Y-142274229D01*
X91355009Y-142272449D01*
X91414846Y-142308523D01*
X91445681Y-142371220D01*
X91447500Y-142392379D01*
X91447500Y-145607620D01*
X91427815Y-145674659D01*
X91375011Y-145720414D01*
X91305853Y-145730358D01*
X91292568Y-145727268D01*
X91292506Y-145727528D01*
X91287766Y-145726390D01*
X91092736Y-145695500D01*
X91092731Y-145695500D01*
X89387269Y-145695500D01*
X89387264Y-145695500D01*
X89192236Y-145726389D01*
X89004441Y-145787408D01*
X88828495Y-145877058D01*
X88668753Y-145993115D01*
X88529115Y-146132753D01*
X88413058Y-146292495D01*
X88323408Y-146468441D01*
X88262389Y-146656236D01*
X88231500Y-146851263D01*
X88231500Y-147048736D01*
X88262389Y-147243763D01*
X88323408Y-147431558D01*
X88323409Y-147431561D01*
X88413056Y-147607501D01*
X88413058Y-147607504D01*
X88529115Y-147767246D01*
X88668753Y-147906884D01*
X88818234Y-148015486D01*
X88828499Y-148022944D01*
X89004439Y-148112591D01*
X89129637Y-148153270D01*
X89192236Y-148173610D01*
X89387264Y-148204500D01*
X89387269Y-148204500D01*
X91092736Y-148204500D01*
X91201082Y-148187338D01*
X91287763Y-148173610D01*
X91287774Y-148173606D01*
X91292498Y-148172473D01*
X91292919Y-148174229D01*
X91355009Y-148172449D01*
X91414846Y-148208523D01*
X91445681Y-148271220D01*
X91447500Y-148292379D01*
X91447500Y-152941903D01*
X91427815Y-153008942D01*
X91411181Y-153029584D01*
X90681584Y-153759181D01*
X90620261Y-153792666D01*
X90593903Y-153795500D01*
X89387264Y-153795500D01*
X89192236Y-153826389D01*
X89004441Y-153887408D01*
X88828495Y-153977058D01*
X88668753Y-154093115D01*
X88529115Y-154232753D01*
X88413058Y-154392495D01*
X88323408Y-154568441D01*
X88262389Y-154756236D01*
X88231500Y-154951263D01*
X88231500Y-155148736D01*
X88262389Y-155343763D01*
X88323408Y-155531558D01*
X88323409Y-155531561D01*
X88413056Y-155707501D01*
X88413058Y-155707504D01*
X88529115Y-155867246D01*
X88668753Y-156006884D01*
X88818234Y-156115486D01*
X88828499Y-156122944D01*
X89004439Y-156212591D01*
X89108495Y-156246400D01*
X89142867Y-156257569D01*
X89200543Y-156297007D01*
X89227741Y-156361365D01*
X89215826Y-156430212D01*
X89168582Y-156481687D01*
X89104549Y-156499500D01*
X84864500Y-156499500D01*
X84797461Y-156479815D01*
X84751706Y-156427011D01*
X84740500Y-156375500D01*
X84740500Y-112300000D01*
X89105964Y-112300000D01*
X90056988Y-112300000D01*
X90024075Y-112357007D01*
X89990000Y-112484174D01*
X89990000Y-112615826D01*
X90024075Y-112742993D01*
X90056988Y-112800000D01*
X89105964Y-112800000D01*
X89112876Y-112843642D01*
X89112876Y-112843643D01*
X89173873Y-113031371D01*
X89263485Y-113207242D01*
X89379496Y-113366919D01*
X89379500Y-113366924D01*
X89519075Y-113506499D01*
X89519080Y-113506503D01*
X89678757Y-113622514D01*
X89854626Y-113712126D01*
X90042353Y-113773123D01*
X90237303Y-113804000D01*
X90840000Y-113804000D01*
X90840000Y-113050000D01*
X91340000Y-113050000D01*
X91340000Y-113804000D01*
X91942697Y-113804000D01*
X92137646Y-113773123D01*
X92325373Y-113712126D01*
X92501242Y-113622514D01*
X92660919Y-113506503D01*
X92660924Y-113506499D01*
X92800499Y-113366924D01*
X92800503Y-113366919D01*
X92916514Y-113207242D01*
X93006126Y-113031371D01*
X93067123Y-112843643D01*
X93067123Y-112843642D01*
X93074036Y-112800000D01*
X92123012Y-112800000D01*
X92155925Y-112742993D01*
X92190000Y-112615826D01*
X92190000Y-112484174D01*
X92155925Y-112357007D01*
X92123012Y-112300000D01*
X93074036Y-112300000D01*
X93067123Y-112256357D01*
X93067123Y-112256356D01*
X93006126Y-112068628D01*
X92916514Y-111892757D01*
X92800503Y-111733080D01*
X92800499Y-111733075D01*
X92660924Y-111593500D01*
X92660919Y-111593496D01*
X92501242Y-111477485D01*
X92325373Y-111387873D01*
X92137646Y-111326876D01*
X91942697Y-111296000D01*
X91340000Y-111296000D01*
X91340000Y-112050000D01*
X90840000Y-112050000D01*
X90840000Y-111296000D01*
X90237303Y-111296000D01*
X90042353Y-111326876D01*
X89854626Y-111387873D01*
X89678757Y-111477485D01*
X89519080Y-111593496D01*
X89519075Y-111593500D01*
X89379500Y-111733075D01*
X89379496Y-111733080D01*
X89263485Y-111892757D01*
X89173873Y-112068628D01*
X89112876Y-112256356D01*
X89112876Y-112256357D01*
X89105964Y-112300000D01*
X84740500Y-112300000D01*
X84740500Y-110135450D01*
X84760185Y-110068411D01*
X84812989Y-110022656D01*
X84882147Y-110012712D01*
X84945703Y-110041737D01*
X84982430Y-110097131D01*
X85027409Y-110235561D01*
X85117056Y-110411501D01*
X85117058Y-110411504D01*
X85233115Y-110571246D01*
X85372753Y-110710884D01*
X85522234Y-110819486D01*
X85532499Y-110826944D01*
X85708439Y-110916591D01*
X85833637Y-110957270D01*
X85896236Y-110977610D01*
X86091264Y-111008500D01*
X86091269Y-111008500D01*
X86288736Y-111008500D01*
X86483763Y-110977610D01*
X86483766Y-110977609D01*
X86671561Y-110916591D01*
X86847501Y-110826944D01*
X86937192Y-110761779D01*
X87007246Y-110710884D01*
X87007248Y-110710881D01*
X87007252Y-110710879D01*
X87146879Y-110571252D01*
X87146881Y-110571248D01*
X87146884Y-110571246D01*
X87197779Y-110501192D01*
X87262944Y-110411501D01*
X87352591Y-110235561D01*
X87413610Y-110047763D01*
X87419162Y-110012712D01*
X87444500Y-109852736D01*
X87444500Y-108147263D01*
X87413610Y-107952236D01*
X87393270Y-107889637D01*
X87352591Y-107764439D01*
X87262944Y-107588499D01*
X87255486Y-107578234D01*
X87146884Y-107428753D01*
X87007246Y-107289115D01*
X86847504Y-107173058D01*
X86847503Y-107173057D01*
X86847501Y-107173056D01*
X86671561Y-107083409D01*
X86671558Y-107083408D01*
X86483763Y-107022389D01*
X86288736Y-106991500D01*
X86288731Y-106991500D01*
X86091269Y-106991500D01*
X86091264Y-106991500D01*
X85896236Y-107022389D01*
X85708441Y-107083408D01*
X85532495Y-107173058D01*
X85372753Y-107289115D01*
X85233115Y-107428753D01*
X85117058Y-107588495D01*
X85027408Y-107764441D01*
X84982431Y-107902867D01*
X84942993Y-107960543D01*
X84878635Y-107987741D01*
X84809788Y-107975826D01*
X84758313Y-107928582D01*
X84740500Y-107864549D01*
X84740500Y-104214851D01*
X84760185Y-104147812D01*
X84812989Y-104102057D01*
X84882147Y-104092113D01*
X84945703Y-104121138D01*
G37*
%TD.AperFunction*%
%TA.AperFunction,Conductor*%
G36*
X106697379Y-103350835D02*
G01*
X106753313Y-103392707D01*
X106777663Y-103457286D01*
X106782551Y-103519382D01*
X106785040Y-103529750D01*
X106841360Y-103764344D01*
X106937767Y-103997093D01*
X107069394Y-104211887D01*
X107069395Y-104211890D01*
X107083168Y-104228016D01*
X107233010Y-104403458D01*
X107381300Y-104530109D01*
X107424577Y-104567072D01*
X107424580Y-104567073D01*
X107639374Y-104698700D01*
X107865817Y-104792495D01*
X107872123Y-104795107D01*
X108117086Y-104853917D01*
X108368234Y-104873683D01*
X108619382Y-104853917D01*
X108864345Y-104795107D01*
X109097093Y-104698700D01*
X109311893Y-104567070D01*
X109503458Y-104403458D01*
X109521211Y-104382671D01*
X109579715Y-104344480D01*
X109649583Y-104343980D01*
X109708630Y-104381333D01*
X109738109Y-104444680D01*
X109739500Y-104463204D01*
X109739500Y-107864549D01*
X109719815Y-107931588D01*
X109667011Y-107977343D01*
X109597853Y-107987287D01*
X109534297Y-107958262D01*
X109497569Y-107902867D01*
X109485119Y-107864549D01*
X109452591Y-107764439D01*
X109362944Y-107588499D01*
X109355486Y-107578234D01*
X109246884Y-107428753D01*
X109107246Y-107289115D01*
X108947504Y-107173058D01*
X108947503Y-107173057D01*
X108947501Y-107173056D01*
X108771561Y-107083409D01*
X108771558Y-107083408D01*
X108583763Y-107022389D01*
X108388736Y-106991500D01*
X108388731Y-106991500D01*
X108191269Y-106991500D01*
X108191264Y-106991500D01*
X107996236Y-107022389D01*
X107808441Y-107083408D01*
X107632495Y-107173058D01*
X107472753Y-107289115D01*
X107333115Y-107428753D01*
X107217058Y-107588495D01*
X107127408Y-107764441D01*
X107066389Y-107952236D01*
X107035500Y-108147263D01*
X107035500Y-109852736D01*
X107066389Y-110047763D01*
X107094881Y-110135450D01*
X107127409Y-110235561D01*
X107217056Y-110411501D01*
X107217058Y-110411504D01*
X107333115Y-110571246D01*
X107472753Y-110710884D01*
X107622234Y-110819486D01*
X107632499Y-110826944D01*
X107808439Y-110916591D01*
X107933637Y-110957270D01*
X107996236Y-110977610D01*
X108191264Y-111008500D01*
X108191269Y-111008500D01*
X108388736Y-111008500D01*
X108583763Y-110977610D01*
X108583766Y-110977609D01*
X108771561Y-110916591D01*
X108947501Y-110826944D01*
X109037192Y-110761779D01*
X109107246Y-110710884D01*
X109107248Y-110710881D01*
X109107252Y-110710879D01*
X109246879Y-110571252D01*
X109246881Y-110571248D01*
X109246884Y-110571246D01*
X109297779Y-110501192D01*
X109362944Y-110411501D01*
X109452591Y-110235561D01*
X109497569Y-110097131D01*
X109537006Y-110039456D01*
X109601365Y-110012258D01*
X109670211Y-110024173D01*
X109721687Y-110071417D01*
X109739500Y-110135450D01*
X109739500Y-156375500D01*
X109719815Y-156442539D01*
X109667011Y-156488294D01*
X109615500Y-156499500D01*
X105375451Y-156499500D01*
X105308412Y-156479815D01*
X105262657Y-156427011D01*
X105252713Y-156357853D01*
X105281738Y-156294297D01*
X105337133Y-156257569D01*
X105362114Y-156249451D01*
X105475561Y-156212591D01*
X105651501Y-156122944D01*
X105741192Y-156057779D01*
X105811246Y-156006884D01*
X105811248Y-156006881D01*
X105811252Y-156006879D01*
X105950879Y-155867252D01*
X105950881Y-155867248D01*
X105950884Y-155867246D01*
X106001779Y-155797192D01*
X106066944Y-155707501D01*
X106156591Y-155531561D01*
X106217610Y-155343763D01*
X106248500Y-155148736D01*
X106248500Y-154951263D01*
X106217610Y-154756236D01*
X106197270Y-154693637D01*
X106156591Y-154568439D01*
X106066944Y-154392499D01*
X106059486Y-154382234D01*
X105950884Y-154232753D01*
X105811246Y-154093115D01*
X105651504Y-153977058D01*
X105651503Y-153977057D01*
X105651501Y-153977056D01*
X105475561Y-153887409D01*
X105475558Y-153887408D01*
X105287763Y-153826389D01*
X105092736Y-153795500D01*
X105092731Y-153795500D01*
X103387269Y-153795500D01*
X103387264Y-153795500D01*
X103192236Y-153826389D01*
X103004441Y-153887408D01*
X102828495Y-153977058D01*
X102668753Y-154093115D01*
X102529115Y-154232753D01*
X102413058Y-154392495D01*
X102323408Y-154568441D01*
X102262389Y-154756236D01*
X102231500Y-154951263D01*
X102231500Y-155148736D01*
X102262389Y-155343763D01*
X102323408Y-155531558D01*
X102323409Y-155531561D01*
X102413056Y-155707501D01*
X102413058Y-155707504D01*
X102529115Y-155867246D01*
X102668753Y-156006884D01*
X102818234Y-156115486D01*
X102828499Y-156122944D01*
X103004439Y-156212591D01*
X103108495Y-156246400D01*
X103142867Y-156257569D01*
X103200543Y-156297007D01*
X103227741Y-156361365D01*
X103215826Y-156430212D01*
X103168582Y-156481687D01*
X103104549Y-156499500D01*
X91375451Y-156499500D01*
X91308412Y-156479815D01*
X91262657Y-156427011D01*
X91252713Y-156357853D01*
X91281738Y-156294297D01*
X91337133Y-156257569D01*
X91362114Y-156249451D01*
X91475561Y-156212591D01*
X91651501Y-156122944D01*
X91741192Y-156057779D01*
X91811246Y-156006884D01*
X91811248Y-156006881D01*
X91811252Y-156006879D01*
X91950879Y-155867252D01*
X91950881Y-155867248D01*
X91950884Y-155867246D01*
X92001779Y-155797192D01*
X92066944Y-155707501D01*
X92156591Y-155531561D01*
X92217610Y-155343763D01*
X92248500Y-155148736D01*
X92248500Y-154951263D01*
X92217610Y-154756236D01*
X92197270Y-154693637D01*
X92156591Y-154568439D01*
X92066944Y-154392499D01*
X92058975Y-154381531D01*
X91994448Y-154292715D01*
X91970968Y-154226909D01*
X91986794Y-154158855D01*
X92007082Y-154132152D01*
X92416713Y-153722521D01*
X92416716Y-153722520D01*
X92528520Y-153610716D01*
X92578639Y-153523904D01*
X92607577Y-153473785D01*
X92648500Y-153321057D01*
X92648500Y-153162943D01*
X92648500Y-151835286D01*
X92668185Y-151768247D01*
X92720989Y-151722492D01*
X92790147Y-151712548D01*
X92853703Y-151741573D01*
X92860181Y-151747605D01*
X92973075Y-151860499D01*
X92973080Y-151860503D01*
X93132757Y-151976514D01*
X93308626Y-152066126D01*
X93496355Y-152127123D01*
X93539999Y-152134034D01*
X93540000Y-152134034D01*
X93540000Y-151183012D01*
X93597007Y-151215925D01*
X93724174Y-151250000D01*
X93855826Y-151250000D01*
X93982993Y-151215925D01*
X94040000Y-151183012D01*
X94040000Y-152134034D01*
X94083644Y-152127123D01*
X94271373Y-152066126D01*
X94447242Y-151976514D01*
X94606919Y-151860503D01*
X94606924Y-151860499D01*
X94746499Y-151720924D01*
X94746503Y-151720919D01*
X94862514Y-151561242D01*
X94952126Y-151385373D01*
X95013123Y-151197646D01*
X95044000Y-151002697D01*
X95044000Y-150400000D01*
X94290000Y-150400000D01*
X94290000Y-149900000D01*
X95044000Y-149900000D01*
X95044000Y-149297302D01*
X95043994Y-149297263D01*
X99435500Y-149297263D01*
X99435500Y-151002736D01*
X99466389Y-151197763D01*
X99527348Y-151385373D01*
X99527409Y-151385561D01*
X99617056Y-151561501D01*
X99617058Y-151561504D01*
X99733115Y-151721246D01*
X99872753Y-151860884D01*
X100022234Y-151969486D01*
X100032499Y-151976944D01*
X100208439Y-152066591D01*
X100333637Y-152107270D01*
X100396236Y-152127610D01*
X100591264Y-152158500D01*
X100591269Y-152158500D01*
X100788736Y-152158500D01*
X100983763Y-152127610D01*
X100985262Y-152127123D01*
X101171561Y-152066591D01*
X101347501Y-151976944D01*
X101437192Y-151911779D01*
X101507246Y-151860884D01*
X101507248Y-151860881D01*
X101507252Y-151860879D01*
X101646879Y-151721252D01*
X101646881Y-151721248D01*
X101646884Y-151721246D01*
X101697779Y-151651192D01*
X101762944Y-151561501D01*
X101852591Y-151385561D01*
X101913610Y-151197763D01*
X101935904Y-151057007D01*
X101944500Y-151002736D01*
X101944500Y-149297302D01*
X106536000Y-149297302D01*
X106536000Y-149900000D01*
X107290000Y-149900000D01*
X107290000Y-150400000D01*
X106536000Y-150400000D01*
X106536000Y-151002697D01*
X106566876Y-151197646D01*
X106627873Y-151385373D01*
X106717485Y-151561242D01*
X106833496Y-151720919D01*
X106833500Y-151720924D01*
X106973075Y-151860499D01*
X106973080Y-151860503D01*
X107132757Y-151976514D01*
X107308626Y-152066126D01*
X107496355Y-152127123D01*
X107539999Y-152134034D01*
X107540000Y-152134034D01*
X107540000Y-151183012D01*
X107597007Y-151215925D01*
X107724174Y-151250000D01*
X107855826Y-151250000D01*
X107982993Y-151215925D01*
X108040000Y-151183012D01*
X108040000Y-152134034D01*
X108083644Y-152127123D01*
X108271373Y-152066126D01*
X108447242Y-151976514D01*
X108606919Y-151860503D01*
X108606924Y-151860499D01*
X108746499Y-151720924D01*
X108746503Y-151720919D01*
X108862514Y-151561242D01*
X108952126Y-151385373D01*
X109013123Y-151197646D01*
X109044000Y-151002697D01*
X109044000Y-150400000D01*
X108290000Y-150400000D01*
X108290000Y-149900000D01*
X109044000Y-149900000D01*
X109044000Y-149297302D01*
X109013123Y-149102353D01*
X108952126Y-148914626D01*
X108862514Y-148738757D01*
X108746503Y-148579080D01*
X108746499Y-148579075D01*
X108606924Y-148439500D01*
X108606919Y-148439496D01*
X108447242Y-148323485D01*
X108271371Y-148233873D01*
X108083642Y-148172876D01*
X108040000Y-148165963D01*
X108040000Y-149116988D01*
X107982993Y-149084075D01*
X107855826Y-149050000D01*
X107724174Y-149050000D01*
X107597007Y-149084075D01*
X107540000Y-149116988D01*
X107540000Y-148165963D01*
X107496357Y-148172876D01*
X107496356Y-148172876D01*
X107308628Y-148233873D01*
X107132757Y-148323485D01*
X106973080Y-148439496D01*
X106973075Y-148439500D01*
X106833500Y-148579075D01*
X106833496Y-148579080D01*
X106717485Y-148738757D01*
X106627873Y-148914626D01*
X106566876Y-149102353D01*
X106536000Y-149297302D01*
X101944500Y-149297302D01*
X101944500Y-149297263D01*
X101913610Y-149102236D01*
X101893270Y-149039637D01*
X101852591Y-148914439D01*
X101762944Y-148738499D01*
X101755486Y-148728234D01*
X101646884Y-148578753D01*
X101507246Y-148439115D01*
X101347504Y-148323058D01*
X101347503Y-148323057D01*
X101347501Y-148323056D01*
X101171561Y-148233409D01*
X101171558Y-148233408D01*
X100983763Y-148172389D01*
X100788736Y-148141500D01*
X100788731Y-148141500D01*
X100591269Y-148141500D01*
X100591264Y-148141500D01*
X100396236Y-148172389D01*
X100208441Y-148233408D01*
X100032495Y-148323058D01*
X99872753Y-148439115D01*
X99733115Y-148578753D01*
X99617058Y-148738495D01*
X99527408Y-148914441D01*
X99466389Y-149102236D01*
X99435500Y-149297263D01*
X95043994Y-149297263D01*
X95013123Y-149102353D01*
X94952126Y-148914626D01*
X94862514Y-148738757D01*
X94746503Y-148579080D01*
X94746499Y-148579075D01*
X94606924Y-148439500D01*
X94606919Y-148439496D01*
X94447242Y-148323485D01*
X94271371Y-148233873D01*
X94083642Y-148172876D01*
X94040000Y-148165963D01*
X94040000Y-149116988D01*
X93982993Y-149084075D01*
X93855826Y-149050000D01*
X93724174Y-149050000D01*
X93597007Y-149084075D01*
X93540000Y-149116988D01*
X93540000Y-148165963D01*
X93496357Y-148172876D01*
X93496356Y-148172876D01*
X93308628Y-148233873D01*
X93132757Y-148323485D01*
X92973080Y-148439496D01*
X92973075Y-148439500D01*
X92860181Y-148552395D01*
X92798858Y-148585880D01*
X92729166Y-148580896D01*
X92673233Y-148539024D01*
X92648816Y-148473560D01*
X92648500Y-148464714D01*
X92648500Y-146851263D01*
X102231500Y-146851263D01*
X102231500Y-147048736D01*
X102262389Y-147243763D01*
X102323408Y-147431558D01*
X102323409Y-147431561D01*
X102413056Y-147607501D01*
X102413058Y-147607504D01*
X102529115Y-147767246D01*
X102668753Y-147906884D01*
X102818234Y-148015486D01*
X102828499Y-148022944D01*
X103004439Y-148112591D01*
X103129637Y-148153270D01*
X103192236Y-148173610D01*
X103387264Y-148204500D01*
X103387269Y-148204500D01*
X105092736Y-148204500D01*
X105287763Y-148173610D01*
X105311298Y-148165963D01*
X105475561Y-148112591D01*
X105651501Y-148022944D01*
X105741192Y-147957779D01*
X105811246Y-147906884D01*
X105811248Y-147906881D01*
X105811252Y-147906879D01*
X105950879Y-147767252D01*
X105950881Y-147767248D01*
X105950884Y-147767246D01*
X106001779Y-147697192D01*
X106066944Y-147607501D01*
X106156591Y-147431561D01*
X106217610Y-147243763D01*
X106248500Y-147048736D01*
X106248500Y-146851263D01*
X106217610Y-146656236D01*
X106197270Y-146593637D01*
X106156591Y-146468439D01*
X106066944Y-146292499D01*
X106059486Y-146282234D01*
X105950884Y-146132753D01*
X105811246Y-145993115D01*
X105651504Y-145877058D01*
X105651503Y-145877057D01*
X105651501Y-145877056D01*
X105475561Y-145787409D01*
X105447499Y-145778291D01*
X105287763Y-145726389D01*
X105092736Y-145695500D01*
X105092731Y-145695500D01*
X103387269Y-145695500D01*
X103387264Y-145695500D01*
X103192236Y-145726389D01*
X103004441Y-145787408D01*
X102828495Y-145877058D01*
X102668753Y-145993115D01*
X102529115Y-146132753D01*
X102413058Y-146292495D01*
X102323408Y-146468441D01*
X102262389Y-146656236D01*
X102231500Y-146851263D01*
X92648500Y-146851263D01*
X92648500Y-140951263D01*
X102231500Y-140951263D01*
X102231500Y-141148736D01*
X102262389Y-141343763D01*
X102323408Y-141531558D01*
X102323409Y-141531561D01*
X102413056Y-141707501D01*
X102413058Y-141707504D01*
X102529115Y-141867246D01*
X102668753Y-142006884D01*
X102818234Y-142115486D01*
X102828499Y-142122944D01*
X103004439Y-142212591D01*
X103129637Y-142253270D01*
X103192236Y-142273610D01*
X103387264Y-142304500D01*
X103387269Y-142304500D01*
X105092736Y-142304500D01*
X105287763Y-142273610D01*
X105291336Y-142272449D01*
X105475561Y-142212591D01*
X105651501Y-142122944D01*
X105741192Y-142057779D01*
X105811246Y-142006884D01*
X105811248Y-142006881D01*
X105811252Y-142006879D01*
X105950879Y-141867252D01*
X105950881Y-141867248D01*
X105950884Y-141867246D01*
X106001779Y-141797192D01*
X106066944Y-141707501D01*
X106156591Y-141531561D01*
X106217610Y-141343763D01*
X106248500Y-141148736D01*
X106248500Y-140951263D01*
X106217610Y-140756236D01*
X106197270Y-140693637D01*
X106156591Y-140568439D01*
X106066944Y-140392499D01*
X105994447Y-140292714D01*
X105950884Y-140232753D01*
X105811246Y-140093115D01*
X105651504Y-139977058D01*
X105651503Y-139977057D01*
X105651501Y-139977056D01*
X105475561Y-139887409D01*
X105447499Y-139878291D01*
X105287763Y-139826389D01*
X105092736Y-139795500D01*
X105092731Y-139795500D01*
X103387269Y-139795500D01*
X103387264Y-139795500D01*
X103192236Y-139826389D01*
X103004441Y-139887408D01*
X102828495Y-139977058D01*
X102668753Y-140093115D01*
X102529115Y-140232753D01*
X102413058Y-140392495D01*
X102323408Y-140568441D01*
X102262389Y-140756236D01*
X102231500Y-140951263D01*
X92648500Y-140951263D01*
X92648500Y-137835286D01*
X92668185Y-137768247D01*
X92720989Y-137722492D01*
X92790147Y-137712548D01*
X92853703Y-137741573D01*
X92860181Y-137747605D01*
X92973075Y-137860499D01*
X92973080Y-137860503D01*
X93132757Y-137976514D01*
X93308626Y-138066126D01*
X93496355Y-138127123D01*
X93539999Y-138134034D01*
X93540000Y-138134034D01*
X93540000Y-137183012D01*
X93597007Y-137215925D01*
X93724174Y-137250000D01*
X93855826Y-137250000D01*
X93982993Y-137215925D01*
X94040000Y-137183012D01*
X94040000Y-138134034D01*
X94083644Y-138127123D01*
X94271373Y-138066126D01*
X94447242Y-137976514D01*
X94606919Y-137860503D01*
X94606924Y-137860499D01*
X94746499Y-137720924D01*
X94746503Y-137720919D01*
X94862514Y-137561242D01*
X94952126Y-137385373D01*
X95013123Y-137197646D01*
X95044000Y-137002697D01*
X95044000Y-136400000D01*
X94290000Y-136400000D01*
X94290000Y-135900000D01*
X95044000Y-135900000D01*
X95044000Y-135297302D01*
X95043994Y-135297263D01*
X99435500Y-135297263D01*
X99435500Y-137002736D01*
X99466389Y-137197763D01*
X99527348Y-137385373D01*
X99527409Y-137385561D01*
X99617056Y-137561501D01*
X99617058Y-137561504D01*
X99733115Y-137721246D01*
X99872753Y-137860884D01*
X100022234Y-137969486D01*
X100032499Y-137976944D01*
X100208439Y-138066591D01*
X100333637Y-138107270D01*
X100396236Y-138127610D01*
X100591264Y-138158500D01*
X100591269Y-138158500D01*
X100788736Y-138158500D01*
X100983763Y-138127610D01*
X100985262Y-138127123D01*
X101171561Y-138066591D01*
X101347501Y-137976944D01*
X101437192Y-137911779D01*
X101507246Y-137860884D01*
X101507248Y-137860881D01*
X101507252Y-137860879D01*
X101646879Y-137721252D01*
X101646881Y-137721248D01*
X101646884Y-137721246D01*
X101697779Y-137651192D01*
X101762944Y-137561501D01*
X101852591Y-137385561D01*
X101913610Y-137197763D01*
X101935904Y-137057007D01*
X101944500Y-137002736D01*
X101944500Y-135297302D01*
X106536000Y-135297302D01*
X106536000Y-135900000D01*
X107290000Y-135900000D01*
X107290000Y-136400000D01*
X106536000Y-136400000D01*
X106536000Y-137002697D01*
X106566876Y-137197646D01*
X106627873Y-137385373D01*
X106717485Y-137561242D01*
X106833496Y-137720919D01*
X106833500Y-137720924D01*
X106973075Y-137860499D01*
X106973080Y-137860503D01*
X107132757Y-137976514D01*
X107308626Y-138066126D01*
X107496355Y-138127123D01*
X107539999Y-138134034D01*
X107540000Y-138134034D01*
X107540000Y-137183012D01*
X107597007Y-137215925D01*
X107724174Y-137250000D01*
X107855826Y-137250000D01*
X107982993Y-137215925D01*
X108040000Y-137183012D01*
X108040000Y-138134034D01*
X108083644Y-138127123D01*
X108271373Y-138066126D01*
X108447242Y-137976514D01*
X108606919Y-137860503D01*
X108606924Y-137860499D01*
X108746499Y-137720924D01*
X108746503Y-137720919D01*
X108862514Y-137561242D01*
X108952126Y-137385373D01*
X109013123Y-137197646D01*
X109044000Y-137002697D01*
X109044000Y-136400000D01*
X108290000Y-136400000D01*
X108290000Y-135900000D01*
X109044000Y-135900000D01*
X109044000Y-135297302D01*
X109013123Y-135102353D01*
X108952126Y-134914626D01*
X108862514Y-134738757D01*
X108746503Y-134579080D01*
X108746499Y-134579075D01*
X108606924Y-134439500D01*
X108606919Y-134439496D01*
X108447242Y-134323485D01*
X108271371Y-134233873D01*
X108083642Y-134172876D01*
X108040000Y-134165963D01*
X108040000Y-135116988D01*
X107982993Y-135084075D01*
X107855826Y-135050000D01*
X107724174Y-135050000D01*
X107597007Y-135084075D01*
X107540000Y-135116988D01*
X107540000Y-134165963D01*
X107496357Y-134172876D01*
X107496356Y-134172876D01*
X107308628Y-134233873D01*
X107132757Y-134323485D01*
X106973080Y-134439496D01*
X106973075Y-134439500D01*
X106833500Y-134579075D01*
X106833496Y-134579080D01*
X106717485Y-134738757D01*
X106627873Y-134914626D01*
X106566876Y-135102353D01*
X106536000Y-135297302D01*
X101944500Y-135297302D01*
X101944500Y-135297263D01*
X101913610Y-135102236D01*
X101893270Y-135039637D01*
X101852591Y-134914439D01*
X101762944Y-134738499D01*
X101755486Y-134728234D01*
X101646884Y-134578753D01*
X101507246Y-134439115D01*
X101347504Y-134323058D01*
X101347503Y-134323057D01*
X101347501Y-134323056D01*
X101171561Y-134233409D01*
X101171558Y-134233408D01*
X100983763Y-134172389D01*
X100788736Y-134141500D01*
X100788731Y-134141500D01*
X100591269Y-134141500D01*
X100591264Y-134141500D01*
X100396236Y-134172389D01*
X100208441Y-134233408D01*
X100032495Y-134323058D01*
X99872753Y-134439115D01*
X99733115Y-134578753D01*
X99617058Y-134738495D01*
X99527408Y-134914441D01*
X99466389Y-135102236D01*
X99435500Y-135297263D01*
X95043994Y-135297263D01*
X95013123Y-135102353D01*
X94952126Y-134914626D01*
X94862514Y-134738757D01*
X94746503Y-134579080D01*
X94746499Y-134579075D01*
X94606924Y-134439500D01*
X94606919Y-134439496D01*
X94447242Y-134323485D01*
X94271371Y-134233873D01*
X94083642Y-134172876D01*
X94040000Y-134165963D01*
X94040000Y-135116988D01*
X93982993Y-135084075D01*
X93855826Y-135050000D01*
X93724174Y-135050000D01*
X93597007Y-135084075D01*
X93540000Y-135116988D01*
X93540000Y-134165963D01*
X93496357Y-134172876D01*
X93496356Y-134172876D01*
X93308628Y-134233873D01*
X93132757Y-134323485D01*
X92973080Y-134439496D01*
X92973075Y-134439500D01*
X92860181Y-134552395D01*
X92798858Y-134585880D01*
X92729166Y-134580896D01*
X92673233Y-134539024D01*
X92648816Y-134473560D01*
X92648500Y-134464714D01*
X92648500Y-132851263D01*
X102231500Y-132851263D01*
X102231500Y-133048736D01*
X102262389Y-133243763D01*
X102323408Y-133431558D01*
X102323409Y-133431561D01*
X102413056Y-133607501D01*
X102413058Y-133607504D01*
X102529115Y-133767246D01*
X102668753Y-133906884D01*
X102818234Y-134015486D01*
X102828499Y-134022944D01*
X103004439Y-134112591D01*
X103125269Y-134151851D01*
X103192236Y-134173610D01*
X103387264Y-134204500D01*
X103387269Y-134204500D01*
X105092736Y-134204500D01*
X105287763Y-134173610D01*
X105311298Y-134165963D01*
X105475561Y-134112591D01*
X105651501Y-134022944D01*
X105741192Y-133957779D01*
X105811246Y-133906884D01*
X105811248Y-133906881D01*
X105811252Y-133906879D01*
X105950879Y-133767252D01*
X105950881Y-133767248D01*
X105950884Y-133767246D01*
X106001779Y-133697192D01*
X106066944Y-133607501D01*
X106156591Y-133431561D01*
X106217610Y-133243763D01*
X106248500Y-133048736D01*
X106248500Y-132851263D01*
X106217610Y-132656236D01*
X106197270Y-132593637D01*
X106156591Y-132468439D01*
X106066944Y-132292499D01*
X106059486Y-132282234D01*
X105950884Y-132132753D01*
X105811246Y-131993115D01*
X105651504Y-131877058D01*
X105651503Y-131877057D01*
X105651501Y-131877056D01*
X105475561Y-131787409D01*
X105447499Y-131778291D01*
X105287763Y-131726389D01*
X105092736Y-131695500D01*
X105092731Y-131695500D01*
X103387269Y-131695500D01*
X103387264Y-131695500D01*
X103192236Y-131726389D01*
X103004441Y-131787408D01*
X102828495Y-131877058D01*
X102668753Y-131993115D01*
X102529115Y-132132753D01*
X102413058Y-132292495D01*
X102323408Y-132468441D01*
X102262389Y-132656236D01*
X102231500Y-132851263D01*
X92648500Y-132851263D01*
X92648500Y-130899996D01*
X95334435Y-130899996D01*
X95334435Y-130900003D01*
X95354630Y-131079249D01*
X95354631Y-131079254D01*
X95414211Y-131249523D01*
X95510184Y-131402262D01*
X95637738Y-131529816D01*
X95790478Y-131625789D01*
X95960745Y-131685368D01*
X95960750Y-131685369D01*
X96139996Y-131705565D01*
X96140000Y-131705565D01*
X96140004Y-131705565D01*
X96319249Y-131685369D01*
X96319252Y-131685368D01*
X96319255Y-131685368D01*
X96489522Y-131625789D01*
X96642262Y-131529816D01*
X96642267Y-131529810D01*
X96645097Y-131527555D01*
X96647275Y-131526665D01*
X96648158Y-131526111D01*
X96648255Y-131526265D01*
X96709783Y-131501145D01*
X96722412Y-131500500D01*
X97757588Y-131500500D01*
X97824627Y-131520185D01*
X97834903Y-131527555D01*
X97837736Y-131529814D01*
X97837738Y-131529816D01*
X97990478Y-131625789D01*
X98160745Y-131685368D01*
X98160750Y-131685369D01*
X98339996Y-131705565D01*
X98340000Y-131705565D01*
X98340004Y-131705565D01*
X98519249Y-131685369D01*
X98519252Y-131685368D01*
X98519255Y-131685368D01*
X98689522Y-131625789D01*
X98842262Y-131529816D01*
X98969816Y-131402262D01*
X99065789Y-131249522D01*
X99125368Y-131079255D01*
X99145565Y-130900000D01*
X99125368Y-130720745D01*
X99065789Y-130550478D01*
X98969816Y-130397738D01*
X98842262Y-130270184D01*
X98689523Y-130174211D01*
X98519254Y-130114631D01*
X98519249Y-130114630D01*
X98340004Y-130094435D01*
X98339996Y-130094435D01*
X98160750Y-130114630D01*
X98160745Y-130114631D01*
X97990476Y-130174211D01*
X97837736Y-130270185D01*
X97834903Y-130272445D01*
X97832724Y-130273334D01*
X97831842Y-130273889D01*
X97831744Y-130273734D01*
X97770217Y-130298855D01*
X97757588Y-130299500D01*
X96722412Y-130299500D01*
X96655373Y-130279815D01*
X96645097Y-130272445D01*
X96642263Y-130270185D01*
X96642262Y-130270184D01*
X96585496Y-130234515D01*
X96489523Y-130174211D01*
X96319254Y-130114631D01*
X96319249Y-130114630D01*
X96140004Y-130094435D01*
X96139996Y-130094435D01*
X95960750Y-130114630D01*
X95960745Y-130114631D01*
X95790476Y-130174211D01*
X95637737Y-130270184D01*
X95510184Y-130397737D01*
X95414211Y-130550476D01*
X95354631Y-130720745D01*
X95354630Y-130720750D01*
X95334435Y-130899996D01*
X92648500Y-130899996D01*
X92648500Y-123835286D01*
X92668185Y-123768247D01*
X92720989Y-123722492D01*
X92790147Y-123712548D01*
X92853703Y-123741573D01*
X92860181Y-123747605D01*
X92973075Y-123860499D01*
X92973080Y-123860503D01*
X93132757Y-123976514D01*
X93308626Y-124066126D01*
X93496355Y-124127123D01*
X93539999Y-124134034D01*
X93540000Y-124134034D01*
X93540000Y-123183012D01*
X93597007Y-123215925D01*
X93724174Y-123250000D01*
X93855826Y-123250000D01*
X93982993Y-123215925D01*
X94040000Y-123183012D01*
X94040000Y-124134034D01*
X94083644Y-124127123D01*
X94271373Y-124066126D01*
X94447242Y-123976514D01*
X94606919Y-123860503D01*
X94606924Y-123860499D01*
X94746503Y-123720920D01*
X94815182Y-123626391D01*
X94870511Y-123583725D01*
X94940125Y-123577746D01*
X95001920Y-123610351D01*
X95036277Y-123671190D01*
X95039500Y-123699276D01*
X95039500Y-127863874D01*
X95039499Y-127863892D01*
X95039499Y-128029598D01*
X95039498Y-128029598D01*
X95080423Y-128182329D01*
X95097895Y-128212591D01*
X95097894Y-128212591D01*
X95097895Y-128212592D01*
X95159475Y-128319253D01*
X95159481Y-128319261D01*
X95278349Y-128438129D01*
X95278355Y-128438134D01*
X95559298Y-128719077D01*
X95592783Y-128780400D01*
X95594837Y-128792874D01*
X95604630Y-128879793D01*
X95664210Y-129050065D01*
X95732091Y-129158097D01*
X95760184Y-129202806D01*
X95887738Y-129330360D01*
X96040478Y-129426333D01*
X96210745Y-129485912D01*
X96210750Y-129485913D01*
X96389996Y-129506109D01*
X96390000Y-129506109D01*
X96390004Y-129506109D01*
X96569249Y-129485913D01*
X96569252Y-129485912D01*
X96569255Y-129485912D01*
X96739522Y-129426333D01*
X96892262Y-129330360D01*
X97019816Y-129202806D01*
X97115789Y-129050066D01*
X97135855Y-128992719D01*
X97176576Y-128935944D01*
X97241529Y-128910196D01*
X97310091Y-128923652D01*
X97318869Y-128928680D01*
X97331014Y-128936311D01*
X97492222Y-128992720D01*
X97501281Y-128995890D01*
X97501286Y-128995891D01*
X97680532Y-129016087D01*
X97680536Y-129016087D01*
X97680540Y-129016087D01*
X97859785Y-128995891D01*
X97859788Y-128995890D01*
X97859791Y-128995890D01*
X98030058Y-128936311D01*
X98182798Y-128840338D01*
X98310352Y-128712784D01*
X98406325Y-128560044D01*
X98465904Y-128389777D01*
X98467995Y-128371220D01*
X98486101Y-128210525D01*
X98486101Y-128210518D01*
X98465905Y-128031272D01*
X98465904Y-128031267D01*
X98416279Y-127889448D01*
X98406325Y-127861000D01*
X98310352Y-127708260D01*
X98182798Y-127580706D01*
X98030057Y-127484732D01*
X97859785Y-127425152D01*
X97772866Y-127415359D01*
X97708452Y-127388292D01*
X97699069Y-127379820D01*
X97270512Y-126951263D01*
X102231500Y-126951263D01*
X102231500Y-127148736D01*
X102262389Y-127343763D01*
X102323408Y-127531558D01*
X102323409Y-127531561D01*
X102410156Y-127701809D01*
X102413058Y-127707504D01*
X102529115Y-127867246D01*
X102668753Y-128006884D01*
X102818234Y-128115486D01*
X102828499Y-128122944D01*
X103004439Y-128212591D01*
X103129637Y-128253270D01*
X103192236Y-128273610D01*
X103387264Y-128304500D01*
X103387269Y-128304500D01*
X105092736Y-128304500D01*
X105287763Y-128273610D01*
X105291336Y-128272449D01*
X105475561Y-128212591D01*
X105651501Y-128122944D01*
X105779982Y-128029598D01*
X105811246Y-128006884D01*
X105811248Y-128006881D01*
X105811252Y-128006879D01*
X105950879Y-127867252D01*
X105950881Y-127867248D01*
X105950884Y-127867246D01*
X106001779Y-127797192D01*
X106066944Y-127707501D01*
X106156591Y-127531561D01*
X106217610Y-127343763D01*
X106248500Y-127148736D01*
X106248500Y-126951263D01*
X106217610Y-126756236D01*
X106197270Y-126693637D01*
X106156591Y-126568439D01*
X106066944Y-126392499D01*
X106039500Y-126354725D01*
X105950884Y-126232753D01*
X105811246Y-126093115D01*
X105651504Y-125977058D01*
X105651503Y-125977057D01*
X105651501Y-125977056D01*
X105475561Y-125887409D01*
X105447499Y-125878291D01*
X105287763Y-125826389D01*
X105092736Y-125795500D01*
X105092731Y-125795500D01*
X103387269Y-125795500D01*
X103387264Y-125795500D01*
X103192236Y-125826389D01*
X103004441Y-125887408D01*
X102828495Y-125977058D01*
X102668753Y-126093115D01*
X102529115Y-126232753D01*
X102413058Y-126392495D01*
X102323408Y-126568441D01*
X102262389Y-126756236D01*
X102231500Y-126951263D01*
X97270512Y-126951263D01*
X97176819Y-126857570D01*
X97143334Y-126796247D01*
X97140500Y-126769889D01*
X97140500Y-121297263D01*
X99435500Y-121297263D01*
X99435500Y-123002736D01*
X99466389Y-123197763D01*
X99527348Y-123385373D01*
X99527409Y-123385561D01*
X99617056Y-123561501D01*
X99617058Y-123561504D01*
X99733115Y-123721246D01*
X99872753Y-123860884D01*
X100022234Y-123969486D01*
X100032499Y-123976944D01*
X100208439Y-124066591D01*
X100296677Y-124095261D01*
X100396236Y-124127610D01*
X100591264Y-124158500D01*
X100591269Y-124158500D01*
X100788736Y-124158500D01*
X100983763Y-124127610D01*
X100985262Y-124127123D01*
X101171561Y-124066591D01*
X101347501Y-123976944D01*
X101437192Y-123911779D01*
X101507246Y-123860884D01*
X101507248Y-123860881D01*
X101507252Y-123860879D01*
X101646879Y-123721252D01*
X101646881Y-123721248D01*
X101646884Y-123721246D01*
X101715799Y-123626391D01*
X101762944Y-123561501D01*
X101852591Y-123385561D01*
X101913610Y-123197763D01*
X101935904Y-123057007D01*
X101944500Y-123002736D01*
X101944500Y-121297302D01*
X106536000Y-121297302D01*
X106536000Y-121900000D01*
X107290000Y-121900000D01*
X107290000Y-122400000D01*
X106536000Y-122400000D01*
X106536000Y-123002697D01*
X106566876Y-123197646D01*
X106627873Y-123385373D01*
X106717485Y-123561242D01*
X106833496Y-123720919D01*
X106833500Y-123720924D01*
X106973075Y-123860499D01*
X106973080Y-123860503D01*
X107132757Y-123976514D01*
X107308626Y-124066126D01*
X107496355Y-124127123D01*
X107539999Y-124134034D01*
X107540000Y-124134034D01*
X107540000Y-123183012D01*
X107597007Y-123215925D01*
X107724174Y-123250000D01*
X107855826Y-123250000D01*
X107982993Y-123215925D01*
X108040000Y-123183012D01*
X108040000Y-124134034D01*
X108083644Y-124127123D01*
X108271373Y-124066126D01*
X108447242Y-123976514D01*
X108606919Y-123860503D01*
X108606924Y-123860499D01*
X108746499Y-123720924D01*
X108746503Y-123720919D01*
X108862514Y-123561242D01*
X108952126Y-123385373D01*
X109013123Y-123197646D01*
X109044000Y-123002697D01*
X109044000Y-122400000D01*
X108290000Y-122400000D01*
X108290000Y-121900000D01*
X109044000Y-121900000D01*
X109044000Y-121297302D01*
X109013123Y-121102353D01*
X108952126Y-120914626D01*
X108862514Y-120738757D01*
X108746503Y-120579080D01*
X108746499Y-120579075D01*
X108606924Y-120439500D01*
X108606919Y-120439496D01*
X108447242Y-120323485D01*
X108271371Y-120233873D01*
X108083642Y-120172876D01*
X108040000Y-120165963D01*
X108040000Y-121116988D01*
X107982993Y-121084075D01*
X107855826Y-121050000D01*
X107724174Y-121050000D01*
X107597007Y-121084075D01*
X107540000Y-121116988D01*
X107540000Y-120165963D01*
X107496357Y-120172876D01*
X107496356Y-120172876D01*
X107308628Y-120233873D01*
X107132757Y-120323485D01*
X106973080Y-120439496D01*
X106973075Y-120439500D01*
X106833500Y-120579075D01*
X106833496Y-120579080D01*
X106717485Y-120738757D01*
X106627873Y-120914626D01*
X106566876Y-121102353D01*
X106536000Y-121297302D01*
X101944500Y-121297302D01*
X101944500Y-121297263D01*
X101913610Y-121102236D01*
X101890704Y-121031739D01*
X101852591Y-120914439D01*
X101762944Y-120738499D01*
X101730931Y-120694436D01*
X101646884Y-120578753D01*
X101507246Y-120439115D01*
X101347504Y-120323058D01*
X101347503Y-120323057D01*
X101347501Y-120323056D01*
X101171561Y-120233409D01*
X101171558Y-120233408D01*
X100983763Y-120172389D01*
X100788736Y-120141500D01*
X100788731Y-120141500D01*
X100591269Y-120141500D01*
X100591264Y-120141500D01*
X100396236Y-120172389D01*
X100208441Y-120233408D01*
X100032495Y-120323058D01*
X99872753Y-120439115D01*
X99733115Y-120578753D01*
X99617058Y-120738495D01*
X99527408Y-120914441D01*
X99466389Y-121102236D01*
X99435500Y-121297263D01*
X97140500Y-121297263D01*
X97140500Y-118851263D01*
X102231500Y-118851263D01*
X102231500Y-119048736D01*
X102262389Y-119243763D01*
X102323408Y-119431558D01*
X102323409Y-119431561D01*
X102413056Y-119607501D01*
X102413058Y-119607504D01*
X102529115Y-119767246D01*
X102668753Y-119906884D01*
X102818234Y-120015486D01*
X102828499Y-120022944D01*
X103004439Y-120112591D01*
X103129637Y-120153270D01*
X103192236Y-120173610D01*
X103387264Y-120204500D01*
X103387269Y-120204500D01*
X105092736Y-120204500D01*
X105287763Y-120173610D01*
X105311298Y-120165963D01*
X105475561Y-120112591D01*
X105651501Y-120022944D01*
X105741192Y-119957779D01*
X105811246Y-119906884D01*
X105811248Y-119906881D01*
X105811252Y-119906879D01*
X105950879Y-119767252D01*
X105950881Y-119767248D01*
X105950884Y-119767246D01*
X106001779Y-119697192D01*
X106066944Y-119607501D01*
X106156591Y-119431561D01*
X106217610Y-119243763D01*
X106248500Y-119048736D01*
X106248500Y-118851263D01*
X106217610Y-118656236D01*
X106197270Y-118593637D01*
X106156591Y-118468439D01*
X106066944Y-118292499D01*
X106059486Y-118282234D01*
X105950884Y-118132753D01*
X105811246Y-117993115D01*
X105651504Y-117877058D01*
X105651503Y-117877057D01*
X105651501Y-117877056D01*
X105475561Y-117787409D01*
X105475558Y-117787408D01*
X105287763Y-117726389D01*
X105092736Y-117695500D01*
X105092731Y-117695500D01*
X103387269Y-117695500D01*
X103387264Y-117695500D01*
X103192236Y-117726389D01*
X103004441Y-117787408D01*
X102828495Y-117877058D01*
X102668753Y-117993115D01*
X102529115Y-118132753D01*
X102413058Y-118292495D01*
X102323408Y-118468441D01*
X102262389Y-118656236D01*
X102231500Y-118851263D01*
X97140500Y-118851263D01*
X97140500Y-116816976D01*
X97160185Y-116749937D01*
X97212989Y-116704182D01*
X97240135Y-116696736D01*
X97239932Y-116695876D01*
X97247479Y-116694092D01*
X97247481Y-116694091D01*
X97247483Y-116694091D01*
X97336403Y-116660926D01*
X97382329Y-116643797D01*
X97382329Y-116643796D01*
X97382331Y-116643796D01*
X97431993Y-116606618D01*
X97497454Y-116582201D01*
X97551097Y-116590258D01*
X97737678Y-116662539D01*
X97938072Y-116700000D01*
X98141928Y-116700000D01*
X98342322Y-116662539D01*
X98532412Y-116588899D01*
X98532416Y-116588897D01*
X98620686Y-116534241D01*
X98620686Y-116534240D01*
X97981300Y-115894854D01*
X98000504Y-115900000D01*
X98079496Y-115900000D01*
X98155796Y-115879556D01*
X98224205Y-115840060D01*
X98280060Y-115784205D01*
X98319556Y-115715796D01*
X98340000Y-115639496D01*
X98340000Y-115600000D01*
X98393553Y-115600000D01*
X98977465Y-116183912D01*
X98979247Y-116181553D01*
X98979248Y-116181551D01*
X99070113Y-115999069D01*
X99070116Y-115999063D01*
X99125902Y-115802992D01*
X99125903Y-115802989D01*
X99144713Y-115600000D01*
X99144713Y-115599999D01*
X99125903Y-115397010D01*
X99125902Y-115397007D01*
X99070116Y-115200936D01*
X99070113Y-115200930D01*
X98979249Y-115018449D01*
X98979247Y-115018447D01*
X98977465Y-115016087D01*
X98393553Y-115600000D01*
X98340000Y-115600000D01*
X98340000Y-115560504D01*
X98319556Y-115484204D01*
X98280060Y-115415795D01*
X98224205Y-115359940D01*
X98155796Y-115320444D01*
X98079496Y-115300000D01*
X98000504Y-115300000D01*
X97981301Y-115305145D01*
X98040000Y-115246447D01*
X98620687Y-114665758D01*
X98570228Y-114634515D01*
X98523593Y-114582487D01*
X98512489Y-114513505D01*
X98540442Y-114449471D01*
X98547803Y-114441430D01*
X100537970Y-112451263D01*
X101381500Y-112451263D01*
X101381500Y-112648736D01*
X101412389Y-112843763D01*
X101473347Y-113031371D01*
X101473409Y-113031561D01*
X101563056Y-113207501D01*
X101563058Y-113207504D01*
X101679115Y-113367246D01*
X101818753Y-113506884D01*
X101968234Y-113615486D01*
X101978499Y-113622944D01*
X102154439Y-113712591D01*
X102279637Y-113753270D01*
X102342236Y-113773610D01*
X102537264Y-113804500D01*
X102537269Y-113804500D01*
X104242736Y-113804500D01*
X104437763Y-113773610D01*
X104439262Y-113773123D01*
X104625561Y-113712591D01*
X104801501Y-113622944D01*
X104891192Y-113557779D01*
X104961246Y-113506884D01*
X104961248Y-113506881D01*
X104961252Y-113506879D01*
X105100879Y-113367252D01*
X105100881Y-113367248D01*
X105100884Y-113367246D01*
X105151779Y-113297192D01*
X105216944Y-113207501D01*
X105306591Y-113031561D01*
X105367610Y-112843763D01*
X105367629Y-112843642D01*
X105398500Y-112648736D01*
X105398500Y-112451263D01*
X105367610Y-112256236D01*
X105336171Y-112159478D01*
X105306591Y-112068439D01*
X105216944Y-111892499D01*
X105209486Y-111882234D01*
X105100884Y-111732753D01*
X104961246Y-111593115D01*
X104801504Y-111477058D01*
X104801503Y-111477057D01*
X104801501Y-111477056D01*
X104625561Y-111387409D01*
X104625558Y-111387408D01*
X104437763Y-111326389D01*
X104242736Y-111295500D01*
X104242731Y-111295500D01*
X102537269Y-111295500D01*
X102537264Y-111295500D01*
X102342236Y-111326389D01*
X102154441Y-111387408D01*
X101978495Y-111477058D01*
X101818753Y-111593115D01*
X101679115Y-111732753D01*
X101563058Y-111892495D01*
X101473408Y-112068441D01*
X101412389Y-112256236D01*
X101381500Y-112451263D01*
X100537970Y-112451263D01*
X105566713Y-107422521D01*
X105566716Y-107422520D01*
X105678520Y-107310716D01*
X105728639Y-107223904D01*
X105757577Y-107173785D01*
X105798501Y-107021057D01*
X105798501Y-106862943D01*
X105798501Y-106855348D01*
X105798500Y-106855330D01*
X105798500Y-104198564D01*
X105818185Y-104131525D01*
X105834815Y-104110887D01*
X106566367Y-103379334D01*
X106627688Y-103345851D01*
X106697379Y-103350835D01*
G37*
%TD.AperFunction*%
%TA.AperFunction,Conductor*%
G36*
X91414846Y-128308523D02*
G01*
X91445681Y-128371220D01*
X91447500Y-128392379D01*
X91447500Y-131607620D01*
X91427815Y-131674659D01*
X91375011Y-131720414D01*
X91305853Y-131730358D01*
X91292568Y-131727268D01*
X91292506Y-131727528D01*
X91287766Y-131726390D01*
X91092736Y-131695500D01*
X91092731Y-131695500D01*
X89387269Y-131695500D01*
X89387264Y-131695500D01*
X89192233Y-131726390D01*
X89187494Y-131727528D01*
X89187072Y-131725772D01*
X89124974Y-131727545D01*
X89065142Y-131691463D01*
X89034316Y-131628762D01*
X89032500Y-131607620D01*
X89032500Y-129158097D01*
X89052185Y-129091058D01*
X89068819Y-129070416D01*
X89798416Y-128340819D01*
X89859739Y-128307334D01*
X89886097Y-128304500D01*
X91092736Y-128304500D01*
X91201082Y-128287338D01*
X91287763Y-128273610D01*
X91287774Y-128273606D01*
X91292498Y-128272473D01*
X91292919Y-128274229D01*
X91355009Y-128272449D01*
X91414846Y-128308523D01*
G37*
%TD.AperFunction*%
%TA.AperFunction,Conductor*%
G36*
X100030000Y-104600633D02*
G01*
X100243483Y-104543433D01*
X100243492Y-104543429D01*
X100457578Y-104443600D01*
X100651082Y-104308105D01*
X100818105Y-104141082D01*
X100948119Y-103955405D01*
X101002696Y-103911781D01*
X101072195Y-103904588D01*
X101134549Y-103936110D01*
X101151269Y-103955405D01*
X101281505Y-104141401D01*
X101448599Y-104308495D01*
X101554536Y-104382673D01*
X101642170Y-104444035D01*
X101646183Y-104446352D01*
X101694401Y-104496917D01*
X101707626Y-104565524D01*
X101682208Y-104629018D01*
X101682365Y-104629132D01*
X101681915Y-104629750D01*
X101681660Y-104630389D01*
X101679826Y-104632625D01*
X101563485Y-104792757D01*
X101473873Y-104968628D01*
X101412876Y-105156356D01*
X101412876Y-105156357D01*
X101405964Y-105200000D01*
X102356988Y-105200000D01*
X102324075Y-105257007D01*
X102290000Y-105384174D01*
X102290000Y-105515826D01*
X102324075Y-105642993D01*
X102356988Y-105700000D01*
X101405964Y-105700000D01*
X101412876Y-105743642D01*
X101412876Y-105743643D01*
X101473873Y-105931371D01*
X101563485Y-106107242D01*
X101679496Y-106266919D01*
X101679500Y-106266924D01*
X101819075Y-106406499D01*
X101819080Y-106406503D01*
X101978757Y-106522514D01*
X102154626Y-106612126D01*
X102342353Y-106673123D01*
X102537303Y-106704000D01*
X103140000Y-106704000D01*
X103140000Y-105950000D01*
X103640000Y-105950000D01*
X103640000Y-106704000D01*
X104242694Y-106704000D01*
X104274579Y-106698949D01*
X104343873Y-106707902D01*
X104397326Y-106752897D01*
X104417967Y-106819648D01*
X104399244Y-106886962D01*
X104381661Y-106909103D01*
X101656181Y-109634584D01*
X101594858Y-109668069D01*
X101525166Y-109663085D01*
X101469233Y-109621213D01*
X101444816Y-109555749D01*
X101444500Y-109546903D01*
X101444500Y-108147263D01*
X101413610Y-107952236D01*
X101393270Y-107889637D01*
X101352591Y-107764439D01*
X101262944Y-107588499D01*
X101255486Y-107578234D01*
X101146884Y-107428753D01*
X101007246Y-107289115D01*
X100847504Y-107173058D01*
X100847503Y-107173057D01*
X100847501Y-107173056D01*
X100671561Y-107083409D01*
X100671558Y-107083408D01*
X100483763Y-107022389D01*
X100288736Y-106991500D01*
X100288731Y-106991500D01*
X100091269Y-106991500D01*
X100091264Y-106991500D01*
X99896236Y-107022389D01*
X99708441Y-107083408D01*
X99532495Y-107173058D01*
X99372753Y-107289115D01*
X99233115Y-107428753D01*
X99117058Y-107588495D01*
X99027408Y-107764441D01*
X98966389Y-107952236D01*
X98935500Y-108147263D01*
X98935500Y-109852736D01*
X98966389Y-110047763D01*
X98994881Y-110135450D01*
X99027409Y-110235561D01*
X99117056Y-110411501D01*
X99117058Y-110411504D01*
X99233115Y-110571246D01*
X99372753Y-110710884D01*
X99522234Y-110819486D01*
X99532499Y-110826944D01*
X99708439Y-110916591D01*
X99896237Y-110977610D01*
X100015783Y-110996544D01*
X100078917Y-111026473D01*
X100115849Y-111085784D01*
X100114851Y-111155647D01*
X100084066Y-111206698D01*
X96827583Y-114463181D01*
X96766260Y-114496666D01*
X96739902Y-114499500D01*
X96364500Y-114499500D01*
X96297461Y-114479815D01*
X96251706Y-114427011D01*
X96240500Y-114375500D01*
X96240500Y-112560945D01*
X96240500Y-112560943D01*
X96199577Y-112408216D01*
X96199577Y-112408215D01*
X96199577Y-112408214D01*
X96170639Y-112358095D01*
X96170637Y-112358092D01*
X96170011Y-112357007D01*
X96120520Y-112271284D01*
X96008716Y-112159480D01*
X96008715Y-112159479D01*
X96004385Y-112155149D01*
X96004374Y-112155139D01*
X94888444Y-111039209D01*
X94854959Y-110977886D01*
X94859943Y-110908194D01*
X94901815Y-110852261D01*
X94919830Y-110841043D01*
X94947501Y-110826944D01*
X95037192Y-110761779D01*
X95107246Y-110710884D01*
X95107248Y-110710881D01*
X95107252Y-110710879D01*
X95246879Y-110571252D01*
X95246881Y-110571248D01*
X95246884Y-110571246D01*
X95297779Y-110501192D01*
X95362944Y-110411501D01*
X95452591Y-110235561D01*
X95513610Y-110047763D01*
X95519162Y-110012712D01*
X95544500Y-109852736D01*
X95544500Y-108147263D01*
X95513610Y-107952236D01*
X95493270Y-107889637D01*
X95452591Y-107764439D01*
X95362944Y-107588499D01*
X95355486Y-107578234D01*
X95246884Y-107428753D01*
X95107246Y-107289115D01*
X94947504Y-107173058D01*
X94947503Y-107173057D01*
X94947501Y-107173056D01*
X94771561Y-107083409D01*
X94771558Y-107083408D01*
X94583763Y-107022389D01*
X94388736Y-106991500D01*
X94388731Y-106991500D01*
X94191269Y-106991500D01*
X94191264Y-106991500D01*
X93996236Y-107022389D01*
X93808441Y-107083408D01*
X93632495Y-107173058D01*
X93472753Y-107289115D01*
X93333115Y-107428753D01*
X93217058Y-107588495D01*
X93127408Y-107764441D01*
X93066389Y-107952236D01*
X93035500Y-108147263D01*
X93035500Y-108886903D01*
X93015815Y-108953942D01*
X92963011Y-108999697D01*
X92893853Y-109009641D01*
X92830297Y-108980616D01*
X92823819Y-108974584D01*
X90765416Y-106916181D01*
X90731931Y-106854858D01*
X90736915Y-106785166D01*
X90778787Y-106729233D01*
X90844251Y-106704816D01*
X90853097Y-106704500D01*
X91942736Y-106704500D01*
X92137763Y-106673610D01*
X92139262Y-106673123D01*
X92325561Y-106612591D01*
X92501501Y-106522944D01*
X92591192Y-106457779D01*
X92661246Y-106406884D01*
X92661248Y-106406881D01*
X92661252Y-106406879D01*
X92800879Y-106267252D01*
X92800881Y-106267248D01*
X92800884Y-106267246D01*
X92851779Y-106197192D01*
X92916944Y-106107501D01*
X93006591Y-105931561D01*
X93067610Y-105743763D01*
X93067629Y-105743642D01*
X93098500Y-105548736D01*
X93098500Y-105351263D01*
X93067610Y-105156236D01*
X93011671Y-104984075D01*
X93006591Y-104968439D01*
X92916944Y-104792499D01*
X92848796Y-104698700D01*
X92798016Y-104628806D01*
X92799234Y-104627920D01*
X92773395Y-104570265D01*
X92783826Y-104501179D01*
X92829953Y-104448699D01*
X92834262Y-104446094D01*
X92837821Y-104444039D01*
X92837830Y-104444035D01*
X93031401Y-104308495D01*
X93198495Y-104141401D01*
X93328730Y-103955405D01*
X93383307Y-103911781D01*
X93452805Y-103904587D01*
X93515160Y-103936110D01*
X93531879Y-103955405D01*
X93661890Y-104141078D01*
X93828917Y-104308105D01*
X94022421Y-104443600D01*
X94236507Y-104543429D01*
X94236516Y-104543433D01*
X94450000Y-104600634D01*
X94450000Y-103703012D01*
X94507007Y-103735925D01*
X94634174Y-103770000D01*
X94765826Y-103770000D01*
X94892993Y-103735925D01*
X94950000Y-103703012D01*
X94950000Y-104600634D01*
X95163483Y-104543433D01*
X95163492Y-104543429D01*
X95377578Y-104443600D01*
X95571082Y-104308105D01*
X95738105Y-104141082D01*
X95868425Y-103954968D01*
X95923002Y-103911344D01*
X95992501Y-103904151D01*
X96054855Y-103935673D01*
X96071575Y-103954968D01*
X96201894Y-104141082D01*
X96368917Y-104308105D01*
X96562421Y-104443600D01*
X96776507Y-104543429D01*
X96776516Y-104543433D01*
X96990000Y-104600634D01*
X96990000Y-103703012D01*
X97047007Y-103735925D01*
X97174174Y-103770000D01*
X97305826Y-103770000D01*
X97432993Y-103735925D01*
X97490000Y-103703012D01*
X97490000Y-104600633D01*
X97703483Y-104543433D01*
X97703492Y-104543429D01*
X97917578Y-104443600D01*
X98111082Y-104308105D01*
X98278105Y-104141082D01*
X98408425Y-103954968D01*
X98463002Y-103911344D01*
X98532501Y-103904151D01*
X98594855Y-103935673D01*
X98611575Y-103954968D01*
X98741894Y-104141082D01*
X98908917Y-104308105D01*
X99102421Y-104443600D01*
X99316507Y-104543429D01*
X99316516Y-104543433D01*
X99530000Y-104600634D01*
X99530000Y-103703012D01*
X99587007Y-103735925D01*
X99714174Y-103770000D01*
X99845826Y-103770000D01*
X99972993Y-103735925D01*
X100030000Y-103703012D01*
X100030000Y-104600633D01*
G37*
%TD.AperFunction*%
%TA.AperFunction,Conductor*%
G36*
X98112599Y-89199998D02*
G01*
X98125780Y-89213179D01*
X98159265Y-89274502D01*
X98162099Y-89300860D01*
X98162099Y-89735929D01*
X98162098Y-89735947D01*
X98162098Y-89901653D01*
X98162097Y-89901653D01*
X98203022Y-90054384D01*
X98231957Y-90104499D01*
X98231958Y-90104503D01*
X98231959Y-90104503D01*
X98278025Y-90184294D01*
X98282078Y-90191313D01*
X98282080Y-90191316D01*
X98400948Y-90310184D01*
X98400954Y-90310189D01*
X105303681Y-97212916D01*
X105337166Y-97274239D01*
X105340000Y-97300597D01*
X105340000Y-98050000D01*
X104840000Y-98050000D01*
X104840000Y-97296000D01*
X104237303Y-97296000D01*
X104042353Y-97326876D01*
X103854626Y-97387873D01*
X103678757Y-97477485D01*
X103519080Y-97593496D01*
X103519075Y-97593500D01*
X103379500Y-97733075D01*
X103379496Y-97733080D01*
X103263485Y-97892757D01*
X103173873Y-98068628D01*
X103112876Y-98256356D01*
X103112876Y-98256357D01*
X103105964Y-98300000D01*
X104056988Y-98300000D01*
X104024075Y-98357007D01*
X103990000Y-98484174D01*
X103990000Y-98615826D01*
X104024075Y-98742993D01*
X104056988Y-98800000D01*
X103105964Y-98800000D01*
X103112876Y-98843642D01*
X103112876Y-98843643D01*
X103173873Y-99031371D01*
X103263485Y-99207242D01*
X103379496Y-99366919D01*
X103379500Y-99366924D01*
X103519075Y-99506499D01*
X103519080Y-99506503D01*
X103678757Y-99622514D01*
X103854626Y-99712126D01*
X104042353Y-99773123D01*
X104237303Y-99804000D01*
X104840000Y-99804000D01*
X104840000Y-99050000D01*
X105340000Y-99050000D01*
X105340000Y-99804000D01*
X105942697Y-99804000D01*
X106137646Y-99773123D01*
X106325373Y-99712126D01*
X106501242Y-99622514D01*
X106570849Y-99571943D01*
X106636655Y-99548463D01*
X106704709Y-99564288D01*
X106753404Y-99614394D01*
X106767734Y-99672261D01*
X106767734Y-101428136D01*
X106748049Y-101495175D01*
X106731415Y-101515817D01*
X104717481Y-103529750D01*
X104717475Y-103529758D01*
X104676912Y-103600017D01*
X104676912Y-103600018D01*
X104638423Y-103666683D01*
X104597499Y-103819411D01*
X104597499Y-103819413D01*
X104597499Y-103987514D01*
X104597500Y-103987527D01*
X104597500Y-104108145D01*
X104577815Y-104175184D01*
X104525011Y-104220939D01*
X104455853Y-104230883D01*
X104442451Y-104227766D01*
X104442392Y-104228016D01*
X104437646Y-104226877D01*
X104242697Y-104196000D01*
X103558466Y-104196000D01*
X103491427Y-104176315D01*
X103445672Y-104123511D01*
X103435728Y-104054353D01*
X103456890Y-104000878D01*
X103494035Y-103947830D01*
X103593903Y-103733663D01*
X103655063Y-103505408D01*
X103675659Y-103270000D01*
X103675504Y-103268234D01*
X103655063Y-103034596D01*
X103655063Y-103034592D01*
X103593903Y-102806337D01*
X103494035Y-102592171D01*
X103488731Y-102584595D01*
X103358494Y-102398597D01*
X103191402Y-102231506D01*
X103191396Y-102231501D01*
X103005842Y-102101575D01*
X102962217Y-102046998D01*
X102955023Y-101977500D01*
X102986546Y-101915145D01*
X103005842Y-101898425D01*
X103028026Y-101882891D01*
X103191401Y-101768495D01*
X103358495Y-101601401D01*
X103494035Y-101407830D01*
X103593903Y-101193663D01*
X103655063Y-100965408D01*
X103675659Y-100730000D01*
X103655063Y-100494592D01*
X103593903Y-100266337D01*
X103494035Y-100052171D01*
X103488731Y-100044595D01*
X103358494Y-99858597D01*
X103191402Y-99691506D01*
X103191395Y-99691501D01*
X102997834Y-99555967D01*
X102997830Y-99555965D01*
X102981742Y-99548463D01*
X102783663Y-99456097D01*
X102783659Y-99456096D01*
X102783655Y-99456094D01*
X102555413Y-99394938D01*
X102555403Y-99394936D01*
X102320001Y-99374341D01*
X102319999Y-99374341D01*
X102084596Y-99394936D01*
X102084586Y-99394938D01*
X101856344Y-99456094D01*
X101856335Y-99456098D01*
X101642171Y-99555964D01*
X101642169Y-99555965D01*
X101448597Y-99691505D01*
X101281508Y-99858594D01*
X101151269Y-100044595D01*
X101096692Y-100088219D01*
X101027193Y-100095412D01*
X100964839Y-100063890D01*
X100948119Y-100044594D01*
X100818113Y-99858926D01*
X100818108Y-99858920D01*
X100651082Y-99691894D01*
X100457578Y-99556399D01*
X100243492Y-99456570D01*
X100243486Y-99456567D01*
X100030000Y-99399364D01*
X100030000Y-100296988D01*
X99972993Y-100264075D01*
X99845826Y-100230000D01*
X99714174Y-100230000D01*
X99587007Y-100264075D01*
X99530000Y-100296988D01*
X99530000Y-99399364D01*
X99529999Y-99399364D01*
X99316513Y-99456567D01*
X99316507Y-99456570D01*
X99102422Y-99556399D01*
X99102420Y-99556400D01*
X98908926Y-99691886D01*
X98908920Y-99691891D01*
X98741891Y-99858920D01*
X98741890Y-99858922D01*
X98611575Y-100045031D01*
X98556998Y-100088655D01*
X98487499Y-100095848D01*
X98425145Y-100064326D01*
X98408425Y-100045031D01*
X98278109Y-99858922D01*
X98278108Y-99858920D01*
X98111082Y-99691894D01*
X97917578Y-99556399D01*
X97703492Y-99456570D01*
X97703486Y-99456567D01*
X97490000Y-99399364D01*
X97490000Y-100296988D01*
X97432993Y-100264075D01*
X97305826Y-100230000D01*
X97174174Y-100230000D01*
X97047007Y-100264075D01*
X96990000Y-100296988D01*
X96990000Y-99399364D01*
X96989999Y-99399364D01*
X96776513Y-99456567D01*
X96776507Y-99456570D01*
X96562422Y-99556399D01*
X96562420Y-99556400D01*
X96368926Y-99691886D01*
X96368920Y-99691891D01*
X96201891Y-99858920D01*
X96201890Y-99858922D01*
X96071575Y-100045031D01*
X96016998Y-100088655D01*
X95947499Y-100095848D01*
X95885145Y-100064326D01*
X95868425Y-100045031D01*
X95738109Y-99858922D01*
X95738108Y-99858920D01*
X95571082Y-99691894D01*
X95377578Y-99556399D01*
X95163492Y-99456570D01*
X95163486Y-99456567D01*
X94950000Y-99399364D01*
X94950000Y-100296988D01*
X94892993Y-100264075D01*
X94765826Y-100230000D01*
X94634174Y-100230000D01*
X94507007Y-100264075D01*
X94450000Y-100296988D01*
X94450000Y-99399364D01*
X94449999Y-99399364D01*
X94236513Y-99456567D01*
X94236507Y-99456570D01*
X94022422Y-99556399D01*
X94022420Y-99556400D01*
X93828926Y-99691886D01*
X93828920Y-99691891D01*
X93661891Y-99858920D01*
X93661890Y-99858922D01*
X93531880Y-100044595D01*
X93477303Y-100088219D01*
X93407804Y-100095412D01*
X93345450Y-100063890D01*
X93328730Y-100044594D01*
X93198494Y-99858597D01*
X93031402Y-99691506D01*
X93031395Y-99691501D01*
X93015485Y-99680361D01*
X92837830Y-99555965D01*
X92837828Y-99555964D01*
X92833812Y-99553645D01*
X92785596Y-99503078D01*
X92772373Y-99434471D01*
X92797790Y-99370981D01*
X92797634Y-99370868D01*
X92798083Y-99370249D01*
X92798341Y-99369606D01*
X92800185Y-99367356D01*
X92916514Y-99207242D01*
X93006126Y-99031371D01*
X93067123Y-98843643D01*
X93067123Y-98843642D01*
X93074036Y-98800000D01*
X92123012Y-98800000D01*
X92155925Y-98742993D01*
X92190000Y-98615826D01*
X92190000Y-98484174D01*
X92155925Y-98357007D01*
X92123012Y-98300000D01*
X93074036Y-98300000D01*
X93067123Y-98256357D01*
X93067123Y-98256356D01*
X93006126Y-98068628D01*
X92916514Y-97892757D01*
X92800503Y-97733080D01*
X92800499Y-97733075D01*
X92660924Y-97593500D01*
X92660919Y-97593496D01*
X92501242Y-97477485D01*
X92325373Y-97387873D01*
X92137646Y-97326876D01*
X91942697Y-97296000D01*
X91340000Y-97296000D01*
X91340000Y-98050000D01*
X90840000Y-98050000D01*
X90840000Y-97296000D01*
X90237303Y-97296000D01*
X90042353Y-97326876D01*
X89854626Y-97387873D01*
X89678757Y-97477485D01*
X89519080Y-97593496D01*
X89519075Y-97593500D01*
X89379500Y-97733075D01*
X89379496Y-97733080D01*
X89263485Y-97892757D01*
X89173873Y-98068628D01*
X89112876Y-98256356D01*
X89112876Y-98256357D01*
X89105964Y-98300000D01*
X90056988Y-98300000D01*
X90024075Y-98357007D01*
X89990000Y-98484174D01*
X89990000Y-98615826D01*
X90024075Y-98742993D01*
X90056988Y-98800000D01*
X89105964Y-98800000D01*
X89112876Y-98843642D01*
X89112876Y-98843643D01*
X89173873Y-99031371D01*
X89263485Y-99207242D01*
X89379496Y-99366919D01*
X89379500Y-99366924D01*
X89519075Y-99506499D01*
X89519080Y-99506503D01*
X89678757Y-99622514D01*
X89854626Y-99712126D01*
X90042353Y-99773123D01*
X90237303Y-99804000D01*
X90921534Y-99804000D01*
X90988573Y-99823685D01*
X91034328Y-99876489D01*
X91044272Y-99945647D01*
X91023109Y-99999123D01*
X90985965Y-100052169D01*
X90985964Y-100052171D01*
X90886098Y-100266335D01*
X90886094Y-100266344D01*
X90824938Y-100494586D01*
X90824936Y-100494596D01*
X90804341Y-100729999D01*
X90804341Y-100730000D01*
X90824936Y-100965403D01*
X90824938Y-100965413D01*
X90886094Y-101193655D01*
X90886096Y-101193659D01*
X90886097Y-101193663D01*
X90965801Y-101364588D01*
X90985965Y-101407830D01*
X90985967Y-101407834D01*
X91061578Y-101515817D01*
X91121504Y-101601400D01*
X91121506Y-101601402D01*
X91288597Y-101768493D01*
X91288603Y-101768498D01*
X91474158Y-101898425D01*
X91517783Y-101953002D01*
X91524977Y-102022500D01*
X91493454Y-102084855D01*
X91474158Y-102101575D01*
X91288597Y-102231505D01*
X91121505Y-102398597D01*
X90985965Y-102592169D01*
X90985964Y-102592171D01*
X90886098Y-102806335D01*
X90886094Y-102806344D01*
X90824938Y-103034586D01*
X90824936Y-103034596D01*
X90804341Y-103269999D01*
X90804341Y-103270000D01*
X90824936Y-103505403D01*
X90824938Y-103505413D01*
X90886094Y-103733655D01*
X90886096Y-103733659D01*
X90886097Y-103733663D01*
X90965801Y-103904588D01*
X90985965Y-103947830D01*
X90985969Y-103947836D01*
X91022758Y-104000376D01*
X91045086Y-104066582D01*
X91028076Y-104134349D01*
X90977129Y-104182163D01*
X90921184Y-104195500D01*
X90237264Y-104195500D01*
X90042236Y-104226389D01*
X89854441Y-104287408D01*
X89678495Y-104377058D01*
X89518753Y-104493115D01*
X89379115Y-104632753D01*
X89263058Y-104792495D01*
X89263056Y-104792499D01*
X89173409Y-104968439D01*
X89173408Y-104968441D01*
X89173407Y-104968444D01*
X89148697Y-105044490D01*
X89109259Y-105102165D01*
X89044900Y-105129362D01*
X88976054Y-105117446D01*
X88943086Y-105093851D01*
X87900526Y-104051291D01*
X87867041Y-103989968D01*
X87872025Y-103920276D01*
X87873646Y-103916157D01*
X87895106Y-103864347D01*
X87895105Y-103864347D01*
X87895107Y-103864345D01*
X87953917Y-103619382D01*
X87973683Y-103368234D01*
X87953917Y-103117086D01*
X87926509Y-103002923D01*
X87930000Y-102933145D01*
X87959400Y-102886301D01*
X88126740Y-102718962D01*
X88126745Y-102718958D01*
X88136948Y-102708754D01*
X88136950Y-102708754D01*
X88248754Y-102596950D01*
X88327811Y-102460018D01*
X88360695Y-102337293D01*
X88368734Y-102307292D01*
X88368734Y-102149177D01*
X88368734Y-97971863D01*
X88388419Y-97904824D01*
X88405053Y-97884182D01*
X92141972Y-94147263D01*
X93035500Y-94147263D01*
X93035500Y-95852736D01*
X93066389Y-96047763D01*
X93094881Y-96135450D01*
X93127409Y-96235561D01*
X93217056Y-96411501D01*
X93217058Y-96411504D01*
X93333115Y-96571246D01*
X93472753Y-96710884D01*
X93622234Y-96819486D01*
X93632499Y-96826944D01*
X93808439Y-96916591D01*
X93933637Y-96957270D01*
X93996236Y-96977610D01*
X94191264Y-97008500D01*
X94191269Y-97008500D01*
X94388736Y-97008500D01*
X94583763Y-96977610D01*
X94771561Y-96916591D01*
X94947501Y-96826944D01*
X95037192Y-96761779D01*
X95107246Y-96710884D01*
X95107248Y-96710881D01*
X95107252Y-96710879D01*
X95246879Y-96571252D01*
X95246881Y-96571248D01*
X95246884Y-96571246D01*
X95297779Y-96501192D01*
X95362944Y-96411501D01*
X95452591Y-96235561D01*
X95513610Y-96047763D01*
X95519162Y-96012712D01*
X95544500Y-95852736D01*
X95544500Y-94147263D01*
X98935500Y-94147263D01*
X98935500Y-95852736D01*
X98966389Y-96047763D01*
X98994881Y-96135450D01*
X99027409Y-96235561D01*
X99117056Y-96411501D01*
X99117058Y-96411504D01*
X99233115Y-96571246D01*
X99372753Y-96710884D01*
X99522234Y-96819486D01*
X99532499Y-96826944D01*
X99708439Y-96916591D01*
X99833637Y-96957270D01*
X99896236Y-96977610D01*
X100091264Y-97008500D01*
X100091269Y-97008500D01*
X100288736Y-97008500D01*
X100483763Y-96977610D01*
X100671561Y-96916591D01*
X100847501Y-96826944D01*
X100937192Y-96761779D01*
X101007246Y-96710884D01*
X101007248Y-96710881D01*
X101007252Y-96710879D01*
X101146879Y-96571252D01*
X101146881Y-96571248D01*
X101146884Y-96571246D01*
X101197779Y-96501192D01*
X101262944Y-96411501D01*
X101352591Y-96235561D01*
X101413610Y-96047763D01*
X101419162Y-96012712D01*
X101444500Y-95852736D01*
X101444500Y-94147263D01*
X101413610Y-93952236D01*
X101393270Y-93889637D01*
X101352591Y-93764439D01*
X101262944Y-93588499D01*
X101255486Y-93578234D01*
X101146884Y-93428753D01*
X101007246Y-93289115D01*
X100847504Y-93173058D01*
X100847503Y-93173057D01*
X100847501Y-93173056D01*
X100671561Y-93083409D01*
X100671558Y-93083408D01*
X100483763Y-93022389D01*
X100288736Y-92991500D01*
X100288731Y-92991500D01*
X100091269Y-92991500D01*
X100091264Y-92991500D01*
X99896236Y-93022389D01*
X99708441Y-93083408D01*
X99532495Y-93173058D01*
X99372753Y-93289115D01*
X99233115Y-93428753D01*
X99117058Y-93588495D01*
X99027408Y-93764441D01*
X98966389Y-93952236D01*
X98935500Y-94147263D01*
X95544500Y-94147263D01*
X95513610Y-93952236D01*
X95493270Y-93889637D01*
X95452591Y-93764439D01*
X95362944Y-93588499D01*
X95355486Y-93578234D01*
X95246884Y-93428753D01*
X95107246Y-93289115D01*
X94947504Y-93173058D01*
X94947503Y-93173057D01*
X94947501Y-93173056D01*
X94771561Y-93083409D01*
X94771558Y-93083408D01*
X94583763Y-93022389D01*
X94388736Y-92991500D01*
X94388731Y-92991500D01*
X94191269Y-92991500D01*
X94191264Y-92991500D01*
X93996236Y-93022389D01*
X93808441Y-93083408D01*
X93632495Y-93173058D01*
X93472753Y-93289115D01*
X93333115Y-93428753D01*
X93217058Y-93588495D01*
X93127408Y-93764441D01*
X93066389Y-93952236D01*
X93035500Y-94147263D01*
X92141972Y-94147263D01*
X92524796Y-93764439D01*
X96843119Y-89446117D01*
X96922176Y-89309185D01*
X96936205Y-89256827D01*
X96972569Y-89197170D01*
X97035416Y-89166641D01*
X97099313Y-89172743D01*
X97155215Y-89193593D01*
X97155226Y-89193596D01*
X97214754Y-89199997D01*
X97214771Y-89199998D01*
X97612599Y-89199998D01*
X97612599Y-88266986D01*
X97622539Y-88284203D01*
X97678394Y-88340058D01*
X97746803Y-88379554D01*
X97823103Y-88399998D01*
X97902095Y-88399998D01*
X97978395Y-88379554D01*
X98046804Y-88340058D01*
X98102659Y-88284203D01*
X98112599Y-88266986D01*
X98112599Y-89199998D01*
G37*
%TD.AperFunction*%
%TA.AperFunction,Conductor*%
G36*
X96774075Y-103077007D02*
G01*
X96740000Y-103204174D01*
X96740000Y-103335826D01*
X96774075Y-103462993D01*
X96806988Y-103520000D01*
X95133012Y-103520000D01*
X95165925Y-103462993D01*
X95200000Y-103335826D01*
X95200000Y-103204174D01*
X95165925Y-103077007D01*
X95133012Y-103020000D01*
X96806988Y-103020000D01*
X96774075Y-103077007D01*
G37*
%TD.AperFunction*%
%TA.AperFunction,Conductor*%
G36*
X99314075Y-103077007D02*
G01*
X99280000Y-103204174D01*
X99280000Y-103335826D01*
X99314075Y-103462993D01*
X99346988Y-103520000D01*
X97673012Y-103520000D01*
X97705925Y-103462993D01*
X97740000Y-103335826D01*
X97740000Y-103204174D01*
X97705925Y-103077007D01*
X97673012Y-103020000D01*
X99346988Y-103020000D01*
X99314075Y-103077007D01*
G37*
%TD.AperFunction*%
%TA.AperFunction,Conductor*%
G36*
X94950000Y-102836988D02*
G01*
X94892993Y-102804075D01*
X94765826Y-102770000D01*
X94634174Y-102770000D01*
X94507007Y-102804075D01*
X94450000Y-102836988D01*
X94450000Y-101163012D01*
X94507007Y-101195925D01*
X94634174Y-101230000D01*
X94765826Y-101230000D01*
X94892993Y-101195925D01*
X94950000Y-101163012D01*
X94950000Y-102836988D01*
G37*
%TD.AperFunction*%
%TA.AperFunction,Conductor*%
G36*
X97490000Y-102836988D02*
G01*
X97432993Y-102804075D01*
X97305826Y-102770000D01*
X97174174Y-102770000D01*
X97047007Y-102804075D01*
X96990000Y-102836988D01*
X96990000Y-101163012D01*
X97047007Y-101195925D01*
X97174174Y-101230000D01*
X97305826Y-101230000D01*
X97432993Y-101195925D01*
X97490000Y-101163012D01*
X97490000Y-102836988D01*
G37*
%TD.AperFunction*%
%TA.AperFunction,Conductor*%
G36*
X100030000Y-102836988D02*
G01*
X99972993Y-102804075D01*
X99845826Y-102770000D01*
X99714174Y-102770000D01*
X99587007Y-102804075D01*
X99530000Y-102836988D01*
X99530000Y-101163012D01*
X99587007Y-101195925D01*
X99714174Y-101230000D01*
X99845826Y-101230000D01*
X99972993Y-101195925D01*
X100030000Y-101163012D01*
X100030000Y-102836988D01*
G37*
%TD.AperFunction*%
%TA.AperFunction,Conductor*%
G36*
X96774075Y-100537007D02*
G01*
X96740000Y-100664174D01*
X96740000Y-100795826D01*
X96774075Y-100922993D01*
X96806988Y-100980000D01*
X95133012Y-100980000D01*
X95165925Y-100922993D01*
X95200000Y-100795826D01*
X95200000Y-100664174D01*
X95165925Y-100537007D01*
X95133012Y-100480000D01*
X96806988Y-100480000D01*
X96774075Y-100537007D01*
G37*
%TD.AperFunction*%
%TA.AperFunction,Conductor*%
G36*
X99314075Y-100537007D02*
G01*
X99280000Y-100664174D01*
X99280000Y-100795826D01*
X99314075Y-100922993D01*
X99346988Y-100980000D01*
X97673012Y-100980000D01*
X97705925Y-100922993D01*
X97740000Y-100795826D01*
X97740000Y-100664174D01*
X97705925Y-100537007D01*
X97673012Y-100480000D01*
X99346988Y-100480000D01*
X99314075Y-100537007D01*
G37*
%TD.AperFunction*%
%TA.AperFunction,Conductor*%
G36*
X88823780Y-86121315D02*
G01*
X88824343Y-86120398D01*
X88828490Y-86122939D01*
X88828497Y-86122942D01*
X88828499Y-86122944D01*
X89004439Y-86212591D01*
X89129637Y-86253270D01*
X89192236Y-86273610D01*
X89387264Y-86304500D01*
X89387269Y-86304500D01*
X90365500Y-86304500D01*
X90432539Y-86324185D01*
X90478294Y-86376989D01*
X90489500Y-86428500D01*
X90489500Y-90071500D01*
X90469815Y-90138539D01*
X90417011Y-90184294D01*
X90365500Y-90195500D01*
X90237264Y-90195500D01*
X90042236Y-90226389D01*
X89854441Y-90287408D01*
X89678495Y-90377058D01*
X89518753Y-90493115D01*
X89379115Y-90632753D01*
X89263058Y-90792495D01*
X89173408Y-90968441D01*
X89112389Y-91156236D01*
X89081500Y-91351263D01*
X89081500Y-91548736D01*
X89112389Y-91743763D01*
X89173408Y-91931558D01*
X89173409Y-91931561D01*
X89263056Y-92107501D01*
X89263058Y-92107504D01*
X89379115Y-92267246D01*
X89518753Y-92406884D01*
X89668234Y-92515486D01*
X89678499Y-92522944D01*
X89854439Y-92612591D01*
X89979637Y-92653270D01*
X90042236Y-92673610D01*
X90237264Y-92704500D01*
X90237269Y-92704500D01*
X91586902Y-92704500D01*
X91653941Y-92724185D01*
X91699696Y-92776989D01*
X91709640Y-92846147D01*
X91680615Y-92909703D01*
X91674583Y-92916181D01*
X87287715Y-97303048D01*
X87287713Y-97303051D01*
X87237595Y-97389860D01*
X87237593Y-97389862D01*
X87208659Y-97439975D01*
X87208658Y-97439976D01*
X87208657Y-97439981D01*
X87167733Y-97592709D01*
X87167733Y-97592711D01*
X87167733Y-97760812D01*
X87167734Y-97760825D01*
X87167734Y-99103734D01*
X87148049Y-99170773D01*
X87095245Y-99216528D01*
X87043734Y-99227734D01*
X85220363Y-99227734D01*
X85220357Y-99227735D01*
X85160750Y-99234142D01*
X85025905Y-99284436D01*
X85025903Y-99284438D01*
X84938811Y-99349635D01*
X84873347Y-99374052D01*
X84805074Y-99359200D01*
X84755668Y-99309795D01*
X84740500Y-99250368D01*
X84740500Y-96135450D01*
X84760185Y-96068411D01*
X84812989Y-96022656D01*
X84882147Y-96012712D01*
X84945703Y-96041737D01*
X84982430Y-96097131D01*
X85027409Y-96235561D01*
X85117056Y-96411501D01*
X85117058Y-96411504D01*
X85233115Y-96571246D01*
X85372753Y-96710884D01*
X85522234Y-96819486D01*
X85532499Y-96826944D01*
X85708439Y-96916591D01*
X85833637Y-96957270D01*
X85896236Y-96977610D01*
X86091264Y-97008500D01*
X86091269Y-97008500D01*
X86288736Y-97008500D01*
X86483763Y-96977610D01*
X86671561Y-96916591D01*
X86847501Y-96826944D01*
X86937192Y-96761779D01*
X87007246Y-96710884D01*
X87007248Y-96710881D01*
X87007252Y-96710879D01*
X87146879Y-96571252D01*
X87146881Y-96571248D01*
X87146884Y-96571246D01*
X87197779Y-96501192D01*
X87262944Y-96411501D01*
X87352591Y-96235561D01*
X87413610Y-96047763D01*
X87419162Y-96012712D01*
X87444500Y-95852736D01*
X87444500Y-94646096D01*
X87464185Y-94579057D01*
X87480815Y-94558419D01*
X88390506Y-93648727D01*
X88390511Y-93648724D01*
X88400714Y-93638520D01*
X88400716Y-93638520D01*
X88512520Y-93526716D01*
X88591577Y-93389784D01*
X88632500Y-93237057D01*
X88632500Y-86223906D01*
X88652185Y-86156867D01*
X88704989Y-86111112D01*
X88774147Y-86101168D01*
X88823780Y-86121315D01*
G37*
%TD.AperFunction*%
%TA.AperFunction,Conductor*%
G36*
X89171588Y-47520185D02*
G01*
X89217343Y-47572989D01*
X89227287Y-47642147D01*
X89198262Y-47705703D01*
X89142867Y-47742431D01*
X89004441Y-47787408D01*
X88828495Y-47877058D01*
X88668753Y-47993115D01*
X88529115Y-48132753D01*
X88413058Y-48292495D01*
X88323408Y-48468441D01*
X88262389Y-48656236D01*
X88231500Y-48851263D01*
X88231500Y-49048736D01*
X88262389Y-49243763D01*
X88323408Y-49431558D01*
X88323409Y-49431561D01*
X88413056Y-49607501D01*
X88413058Y-49607504D01*
X88529115Y-49767246D01*
X88668753Y-49906884D01*
X88818234Y-50015486D01*
X88828499Y-50022944D01*
X89004439Y-50112591D01*
X89129637Y-50153270D01*
X89192236Y-50173610D01*
X89387264Y-50204500D01*
X89387269Y-50204500D01*
X91092736Y-50204500D01*
X91287763Y-50173610D01*
X91311298Y-50165963D01*
X91475561Y-50112591D01*
X91651501Y-50022944D01*
X91741192Y-49957779D01*
X91811246Y-49906884D01*
X91811248Y-49906881D01*
X91811252Y-49906879D01*
X91950879Y-49767252D01*
X91950881Y-49767248D01*
X91950884Y-49767246D01*
X92001779Y-49697192D01*
X92066944Y-49607501D01*
X92156591Y-49431561D01*
X92217610Y-49243763D01*
X92248500Y-49048736D01*
X92248500Y-48851263D01*
X92217610Y-48656236D01*
X92197270Y-48593637D01*
X92156591Y-48468439D01*
X92066944Y-48292499D01*
X92059486Y-48282234D01*
X91950884Y-48132753D01*
X91811246Y-47993115D01*
X91651504Y-47877058D01*
X91651503Y-47877057D01*
X91651501Y-47877056D01*
X91475561Y-47787409D01*
X91475558Y-47787408D01*
X91337133Y-47742431D01*
X91279457Y-47702993D01*
X91252259Y-47638635D01*
X91264174Y-47569788D01*
X91311418Y-47518313D01*
X91375451Y-47500500D01*
X103104549Y-47500500D01*
X103171588Y-47520185D01*
X103217343Y-47572989D01*
X103227287Y-47642147D01*
X103198262Y-47705703D01*
X103142867Y-47742431D01*
X103004441Y-47787408D01*
X102828495Y-47877058D01*
X102668753Y-47993115D01*
X102529115Y-48132753D01*
X102413058Y-48292495D01*
X102323408Y-48468441D01*
X102262389Y-48656236D01*
X102231500Y-48851263D01*
X102231500Y-49048736D01*
X102262389Y-49243763D01*
X102323408Y-49431558D01*
X102323409Y-49431561D01*
X102413056Y-49607501D01*
X102413058Y-49607504D01*
X102529115Y-49767246D01*
X102668753Y-49906884D01*
X102818234Y-50015486D01*
X102828499Y-50022944D01*
X103004439Y-50112591D01*
X103129637Y-50153270D01*
X103192236Y-50173610D01*
X103387264Y-50204500D01*
X103387269Y-50204500D01*
X105092736Y-50204500D01*
X105287763Y-50173610D01*
X105311298Y-50165963D01*
X105475561Y-50112591D01*
X105651501Y-50022944D01*
X105741192Y-49957779D01*
X105811246Y-49906884D01*
X105811248Y-49906881D01*
X105811252Y-49906879D01*
X105950879Y-49767252D01*
X105950881Y-49767248D01*
X105950884Y-49767246D01*
X106001779Y-49697192D01*
X106066944Y-49607501D01*
X106156591Y-49431561D01*
X106217610Y-49243763D01*
X106248500Y-49048736D01*
X106248500Y-48851263D01*
X106217610Y-48656236D01*
X106197270Y-48593637D01*
X106156591Y-48468439D01*
X106066944Y-48292499D01*
X106059486Y-48282234D01*
X105950884Y-48132753D01*
X105811246Y-47993115D01*
X105651504Y-47877058D01*
X105651503Y-47877057D01*
X105651501Y-47877056D01*
X105475561Y-47787409D01*
X105475558Y-47787408D01*
X105337133Y-47742431D01*
X105279457Y-47702993D01*
X105252259Y-47638635D01*
X105264174Y-47569788D01*
X105311418Y-47518313D01*
X105375451Y-47500500D01*
X109615500Y-47500500D01*
X109682539Y-47520185D01*
X109728294Y-47572989D01*
X109739500Y-47624500D01*
X109739500Y-93864549D01*
X109719815Y-93931588D01*
X109667011Y-93977343D01*
X109597853Y-93987287D01*
X109534297Y-93958262D01*
X109497569Y-93902867D01*
X109485119Y-93864549D01*
X109452591Y-93764439D01*
X109362944Y-93588499D01*
X109355486Y-93578234D01*
X109246884Y-93428753D01*
X109107246Y-93289115D01*
X108947504Y-93173058D01*
X108947503Y-93173057D01*
X108947501Y-93173056D01*
X108771561Y-93083409D01*
X108771558Y-93083408D01*
X108583763Y-93022389D01*
X108388736Y-92991500D01*
X108388731Y-92991500D01*
X108191269Y-92991500D01*
X108191264Y-92991500D01*
X107996236Y-93022389D01*
X107808441Y-93083408D01*
X107632495Y-93173058D01*
X107472753Y-93289115D01*
X107333115Y-93428753D01*
X107217058Y-93588495D01*
X107127408Y-93764441D01*
X107066389Y-93952236D01*
X107035500Y-94147263D01*
X107035500Y-95852736D01*
X107066389Y-96047763D01*
X107094881Y-96135450D01*
X107127409Y-96235561D01*
X107217056Y-96411501D01*
X107217058Y-96411504D01*
X107333115Y-96571246D01*
X107472753Y-96710884D01*
X107622234Y-96819486D01*
X107632499Y-96826944D01*
X107808439Y-96916591D01*
X107933637Y-96957270D01*
X107996236Y-96977610D01*
X108191264Y-97008500D01*
X108191269Y-97008500D01*
X108388736Y-97008500D01*
X108583763Y-96977610D01*
X108771561Y-96916591D01*
X108947501Y-96826944D01*
X109037192Y-96761779D01*
X109107246Y-96710884D01*
X109107248Y-96710881D01*
X109107252Y-96710879D01*
X109246879Y-96571252D01*
X109246881Y-96571248D01*
X109246884Y-96571246D01*
X109297779Y-96501192D01*
X109362944Y-96411501D01*
X109452591Y-96235561D01*
X109497569Y-96097131D01*
X109537006Y-96039456D01*
X109601365Y-96012258D01*
X109670211Y-96024173D01*
X109721687Y-96071417D01*
X109739500Y-96135450D01*
X109739500Y-99016636D01*
X109719815Y-99083675D01*
X109667011Y-99129430D01*
X109597853Y-99139374D01*
X109583330Y-99135668D01*
X109583269Y-99135927D01*
X109575717Y-99134142D01*
X109516117Y-99127735D01*
X109516115Y-99127734D01*
X109516107Y-99127734D01*
X109516099Y-99127734D01*
X108959730Y-99127734D01*
X108892691Y-99108049D01*
X108852342Y-99065733D01*
X108848754Y-99059518D01*
X108736950Y-98947714D01*
X108736949Y-98947713D01*
X108732619Y-98943383D01*
X108732608Y-98943373D01*
X101140498Y-91351263D01*
X103081500Y-91351263D01*
X103081500Y-91548736D01*
X103112389Y-91743763D01*
X103173408Y-91931558D01*
X103173409Y-91931561D01*
X103263056Y-92107501D01*
X103263058Y-92107504D01*
X103379115Y-92267246D01*
X103518753Y-92406884D01*
X103668234Y-92515486D01*
X103678499Y-92522944D01*
X103854439Y-92612591D01*
X103979637Y-92653270D01*
X104042236Y-92673610D01*
X104237264Y-92704500D01*
X104237269Y-92704500D01*
X105942736Y-92704500D01*
X106137763Y-92673610D01*
X106325561Y-92612591D01*
X106501501Y-92522944D01*
X106591192Y-92457779D01*
X106661246Y-92406884D01*
X106661248Y-92406881D01*
X106661252Y-92406879D01*
X106800879Y-92267252D01*
X106800881Y-92267248D01*
X106800884Y-92267246D01*
X106851779Y-92197192D01*
X106916944Y-92107501D01*
X107006591Y-91931561D01*
X107067610Y-91743763D01*
X107098500Y-91548736D01*
X107098500Y-91351263D01*
X107067610Y-91156236D01*
X107047270Y-91093637D01*
X107006591Y-90968439D01*
X106916944Y-90792499D01*
X106909486Y-90782234D01*
X106800884Y-90632753D01*
X106661246Y-90493115D01*
X106501504Y-90377058D01*
X106501503Y-90377057D01*
X106501501Y-90377056D01*
X106325561Y-90287409D01*
X106325558Y-90287408D01*
X106137763Y-90226389D01*
X105942736Y-90195500D01*
X105942731Y-90195500D01*
X104237269Y-90195500D01*
X104237264Y-90195500D01*
X104042236Y-90226389D01*
X103854441Y-90287408D01*
X103678495Y-90377058D01*
X103518753Y-90493115D01*
X103379115Y-90632753D01*
X103263058Y-90792495D01*
X103173408Y-90968441D01*
X103112389Y-91156236D01*
X103081500Y-91351263D01*
X101140498Y-91351263D01*
X99399418Y-89610183D01*
X99365933Y-89548860D01*
X99363099Y-89522502D01*
X99363099Y-81579579D01*
X99382784Y-81512540D01*
X99435588Y-81466785D01*
X99504746Y-81456841D01*
X99568302Y-81485866D01*
X99597584Y-81523285D01*
X99617056Y-81561502D01*
X99733115Y-81721246D01*
X99733121Y-81721252D01*
X99872748Y-81860879D01*
X99932366Y-81904193D01*
X99975031Y-81959522D01*
X99981010Y-82029135D01*
X99964474Y-82070482D01*
X99914212Y-82150474D01*
X99854631Y-82320745D01*
X99854630Y-82320750D01*
X99834435Y-82499996D01*
X99834435Y-82500000D01*
X99854630Y-82679249D01*
X99854631Y-82679254D01*
X99914211Y-82849523D01*
X99972258Y-82941903D01*
X100010184Y-83002262D01*
X100137738Y-83129816D01*
X100281474Y-83220131D01*
X100327763Y-83272463D01*
X100339500Y-83325123D01*
X100339500Y-88317587D01*
X100319815Y-88384626D01*
X100312450Y-88394896D01*
X100310186Y-88397734D01*
X100214211Y-88550476D01*
X100154631Y-88720745D01*
X100154630Y-88720750D01*
X100134435Y-88899996D01*
X100134435Y-88900003D01*
X100154630Y-89079249D01*
X100154631Y-89079254D01*
X100214211Y-89249523D01*
X100310184Y-89402262D01*
X100437738Y-89529816D01*
X100590478Y-89625789D01*
X100760745Y-89685368D01*
X100760750Y-89685369D01*
X100939996Y-89705565D01*
X100940000Y-89705565D01*
X100940004Y-89705565D01*
X101119249Y-89685369D01*
X101119252Y-89685368D01*
X101119255Y-89685368D01*
X101289522Y-89625789D01*
X101442262Y-89529816D01*
X101569816Y-89402262D01*
X101665789Y-89249522D01*
X101725368Y-89079255D01*
X101736305Y-88982186D01*
X101745565Y-88900003D01*
X101745565Y-88899996D01*
X101725369Y-88720750D01*
X101725368Y-88720745D01*
X101665788Y-88550476D01*
X101569813Y-88397734D01*
X101567550Y-88394896D01*
X101566659Y-88392715D01*
X101566111Y-88391842D01*
X101566264Y-88391745D01*
X101541144Y-88330209D01*
X101540500Y-88317587D01*
X101540500Y-84951263D01*
X102231500Y-84951263D01*
X102231500Y-85148736D01*
X102262389Y-85343763D01*
X102323408Y-85531558D01*
X102323409Y-85531561D01*
X102413056Y-85707501D01*
X102413058Y-85707504D01*
X102529115Y-85867246D01*
X102668753Y-86006884D01*
X102818234Y-86115486D01*
X102828499Y-86122944D01*
X103004439Y-86212591D01*
X103129637Y-86253270D01*
X103192236Y-86273610D01*
X103387264Y-86304500D01*
X103387269Y-86304500D01*
X105092736Y-86304500D01*
X105287763Y-86273610D01*
X105475561Y-86212591D01*
X105651501Y-86122944D01*
X105741615Y-86057473D01*
X105811246Y-86006884D01*
X105811248Y-86006881D01*
X105811252Y-86006879D01*
X105950879Y-85867252D01*
X105950881Y-85867248D01*
X105950884Y-85867246D01*
X106001779Y-85797192D01*
X106066944Y-85707501D01*
X106156591Y-85531561D01*
X106217610Y-85343763D01*
X106248500Y-85148736D01*
X106248500Y-84951263D01*
X106217610Y-84756236D01*
X106197270Y-84693637D01*
X106156591Y-84568439D01*
X106066944Y-84392499D01*
X106059486Y-84382234D01*
X105950884Y-84232753D01*
X105811246Y-84093115D01*
X105651504Y-83977058D01*
X105651503Y-83977057D01*
X105651501Y-83977056D01*
X105475561Y-83887409D01*
X105475558Y-83887408D01*
X105287763Y-83826389D01*
X105092736Y-83795500D01*
X105092731Y-83795500D01*
X103387269Y-83795500D01*
X103387264Y-83795500D01*
X103192236Y-83826389D01*
X103004441Y-83887408D01*
X102828495Y-83977058D01*
X102668753Y-84093115D01*
X102529115Y-84232753D01*
X102413058Y-84392495D01*
X102323408Y-84568441D01*
X102262389Y-84756236D01*
X102231500Y-84951263D01*
X101540500Y-84951263D01*
X101540500Y-82720945D01*
X101540500Y-82720943D01*
X101499577Y-82568216D01*
X101499577Y-82568215D01*
X101499577Y-82568214D01*
X101460193Y-82500000D01*
X101454953Y-82490924D01*
X101439121Y-82442809D01*
X101425369Y-82320749D01*
X101425368Y-82320745D01*
X101365788Y-82150476D01*
X101346868Y-82120365D01*
X101327868Y-82053128D01*
X101348236Y-81986293D01*
X101378975Y-81954076D01*
X101507252Y-81860879D01*
X101646879Y-81721252D01*
X101646881Y-81721248D01*
X101646884Y-81721246D01*
X101697779Y-81651192D01*
X101762944Y-81561501D01*
X101852591Y-81385561D01*
X101913610Y-81197763D01*
X101935904Y-81057007D01*
X101944500Y-81002736D01*
X101944500Y-79297302D01*
X106536000Y-79297302D01*
X106536000Y-79900000D01*
X107290000Y-79900000D01*
X107290000Y-80400000D01*
X106536000Y-80400000D01*
X106536000Y-81002697D01*
X106566876Y-81197646D01*
X106627873Y-81385373D01*
X106717485Y-81561242D01*
X106833496Y-81720919D01*
X106833500Y-81720924D01*
X106973075Y-81860499D01*
X106973080Y-81860503D01*
X107132757Y-81976514D01*
X107308626Y-82066126D01*
X107496355Y-82127123D01*
X107539999Y-82134034D01*
X107540000Y-82134034D01*
X107540000Y-81183012D01*
X107597007Y-81215925D01*
X107724174Y-81250000D01*
X107855826Y-81250000D01*
X107982993Y-81215925D01*
X108040000Y-81183012D01*
X108040000Y-82134034D01*
X108083644Y-82127123D01*
X108271373Y-82066126D01*
X108447242Y-81976514D01*
X108606919Y-81860503D01*
X108606924Y-81860499D01*
X108746499Y-81720924D01*
X108746503Y-81720919D01*
X108862514Y-81561242D01*
X108952126Y-81385373D01*
X109013123Y-81197646D01*
X109044000Y-81002697D01*
X109044000Y-80400000D01*
X108290000Y-80400000D01*
X108290000Y-79900000D01*
X109044000Y-79900000D01*
X109044000Y-79297302D01*
X109013123Y-79102353D01*
X108952126Y-78914626D01*
X108862514Y-78738757D01*
X108746503Y-78579080D01*
X108746499Y-78579075D01*
X108606924Y-78439500D01*
X108606919Y-78439496D01*
X108447242Y-78323485D01*
X108271371Y-78233873D01*
X108083642Y-78172876D01*
X108040000Y-78165963D01*
X108040000Y-79116988D01*
X107982993Y-79084075D01*
X107855826Y-79050000D01*
X107724174Y-79050000D01*
X107597007Y-79084075D01*
X107540000Y-79116988D01*
X107540000Y-78165963D01*
X107496357Y-78172876D01*
X107496356Y-78172876D01*
X107308628Y-78233873D01*
X107132757Y-78323485D01*
X106973080Y-78439496D01*
X106973075Y-78439500D01*
X106833500Y-78579075D01*
X106833496Y-78579080D01*
X106717485Y-78738757D01*
X106627873Y-78914626D01*
X106566876Y-79102353D01*
X106536000Y-79297302D01*
X101944500Y-79297302D01*
X101944500Y-79297263D01*
X101913610Y-79102236D01*
X101893270Y-79039637D01*
X101852591Y-78914439D01*
X101762944Y-78738499D01*
X101749809Y-78720420D01*
X101646884Y-78578753D01*
X101507246Y-78439115D01*
X101347504Y-78323058D01*
X101347503Y-78323057D01*
X101347501Y-78323056D01*
X101171561Y-78233409D01*
X101171558Y-78233408D01*
X100983763Y-78172389D01*
X100788736Y-78141500D01*
X100788731Y-78141500D01*
X100591269Y-78141500D01*
X100591264Y-78141500D01*
X100396236Y-78172389D01*
X100208441Y-78233408D01*
X100032495Y-78323058D01*
X99872753Y-78439115D01*
X99733115Y-78578753D01*
X99617058Y-78738495D01*
X99597584Y-78776715D01*
X99549609Y-78827511D01*
X99481788Y-78844306D01*
X99415653Y-78821768D01*
X99372202Y-78767053D01*
X99363099Y-78720420D01*
X99363099Y-76851263D01*
X102231500Y-76851263D01*
X102231500Y-77048736D01*
X102262389Y-77243763D01*
X102323408Y-77431558D01*
X102323409Y-77431561D01*
X102413056Y-77607501D01*
X102413058Y-77607504D01*
X102529115Y-77767246D01*
X102668753Y-77906884D01*
X102818234Y-78015486D01*
X102828499Y-78022944D01*
X103004439Y-78112591D01*
X103129637Y-78153270D01*
X103192236Y-78173610D01*
X103387264Y-78204500D01*
X103387269Y-78204500D01*
X105092736Y-78204500D01*
X105287763Y-78173610D01*
X105318863Y-78163505D01*
X105475561Y-78112591D01*
X105651501Y-78022944D01*
X105741192Y-77957779D01*
X105811246Y-77906884D01*
X105811248Y-77906881D01*
X105811252Y-77906879D01*
X105950879Y-77767252D01*
X105950881Y-77767248D01*
X105950884Y-77767246D01*
X106001779Y-77697192D01*
X106066944Y-77607501D01*
X106156591Y-77431561D01*
X106217610Y-77243763D01*
X106248500Y-77048736D01*
X106248500Y-76851263D01*
X106217610Y-76656236D01*
X106197270Y-76593637D01*
X106156591Y-76468439D01*
X106066944Y-76292499D01*
X106059486Y-76282234D01*
X105950884Y-76132753D01*
X105811246Y-75993115D01*
X105651504Y-75877058D01*
X105651503Y-75877057D01*
X105651501Y-75877056D01*
X105475561Y-75787409D01*
X105447499Y-75778291D01*
X105287763Y-75726389D01*
X105092736Y-75695500D01*
X105092731Y-75695500D01*
X103387269Y-75695500D01*
X103387264Y-75695500D01*
X103192236Y-75726389D01*
X103004441Y-75787408D01*
X102828495Y-75877058D01*
X102668753Y-75993115D01*
X102529115Y-76132753D01*
X102413058Y-76292495D01*
X102323408Y-76468441D01*
X102262389Y-76656236D01*
X102231500Y-76851263D01*
X99363099Y-76851263D01*
X99363099Y-75311659D01*
X99363100Y-75311646D01*
X99363100Y-75143543D01*
X99358343Y-75125789D01*
X99322176Y-74990815D01*
X99322172Y-74990808D01*
X99243123Y-74853889D01*
X99243117Y-74853881D01*
X98770700Y-74381465D01*
X98737215Y-74320142D01*
X98735163Y-74307686D01*
X98725368Y-74220745D01*
X98665789Y-74050478D01*
X98569816Y-73897738D01*
X98442262Y-73770184D01*
X98289523Y-73674211D01*
X98119254Y-73614631D01*
X98119249Y-73614630D01*
X97940004Y-73594435D01*
X97939996Y-73594435D01*
X97760750Y-73614630D01*
X97760745Y-73614631D01*
X97590476Y-73674211D01*
X97437737Y-73770184D01*
X97310182Y-73897739D01*
X97276410Y-73951488D01*
X97224076Y-73997778D01*
X97155022Y-74008426D01*
X97091174Y-73980051D01*
X97066423Y-73951487D01*
X97032650Y-73897738D01*
X96969816Y-73797738D01*
X96842262Y-73670184D01*
X96753852Y-73614632D01*
X96689523Y-73574211D01*
X96519254Y-73514631D01*
X96519249Y-73514630D01*
X96340004Y-73494435D01*
X96339996Y-73494435D01*
X96160750Y-73514630D01*
X96160745Y-73514631D01*
X95990476Y-73574211D01*
X95837737Y-73670184D01*
X95710184Y-73797737D01*
X95614211Y-73950476D01*
X95554631Y-74120745D01*
X95554630Y-74120750D01*
X95534435Y-74299996D01*
X95534435Y-74300003D01*
X95554630Y-74479249D01*
X95554631Y-74479254D01*
X95614211Y-74649523D01*
X95710184Y-74802262D01*
X95725780Y-74817858D01*
X95759265Y-74879181D01*
X95762099Y-74905539D01*
X95762099Y-87108368D01*
X95742414Y-87175407D01*
X95703377Y-87213795D01*
X95696556Y-87218018D01*
X95545836Y-87355416D01*
X95422926Y-87518176D01*
X95332021Y-87700737D01*
X95332016Y-87700750D01*
X95276201Y-87896915D01*
X95257384Y-88099997D01*
X95257384Y-88099998D01*
X95276201Y-88303080D01*
X95332016Y-88499245D01*
X95332021Y-88499258D01*
X95357525Y-88550476D01*
X95422926Y-88681819D01*
X95545835Y-88844577D01*
X95554669Y-88852630D01*
X95590951Y-88912339D01*
X95589192Y-88982186D01*
X95558813Y-89031949D01*
X93289862Y-91300901D01*
X93228539Y-91334386D01*
X93158847Y-91329402D01*
X93102914Y-91287530D01*
X93079708Y-91232618D01*
X93067610Y-91156236D01*
X93047270Y-91093637D01*
X93006591Y-90968439D01*
X92916944Y-90792499D01*
X92909486Y-90782234D01*
X92800884Y-90632753D01*
X92661246Y-90493115D01*
X92501504Y-90377058D01*
X92501503Y-90377057D01*
X92501501Y-90377056D01*
X92325561Y-90287409D01*
X92325558Y-90287408D01*
X92137763Y-90226389D01*
X91942736Y-90195500D01*
X91942731Y-90195500D01*
X91814500Y-90195500D01*
X91747461Y-90175815D01*
X91701706Y-90123011D01*
X91690500Y-90071500D01*
X91690500Y-86157791D01*
X91710185Y-86090752D01*
X91741615Y-86057473D01*
X91811248Y-86006882D01*
X91811248Y-86006881D01*
X91811252Y-86006879D01*
X91950879Y-85867252D01*
X91950881Y-85867248D01*
X91950884Y-85867246D01*
X92001779Y-85797192D01*
X92066944Y-85707501D01*
X92156591Y-85531561D01*
X92217610Y-85343763D01*
X92248500Y-85148736D01*
X92248500Y-84951263D01*
X92217610Y-84756236D01*
X92197270Y-84693637D01*
X92156591Y-84568439D01*
X92066944Y-84392499D01*
X92059486Y-84382234D01*
X91950884Y-84232753D01*
X91811246Y-84093115D01*
X91651504Y-83977058D01*
X91651503Y-83977057D01*
X91651501Y-83977056D01*
X91475561Y-83887409D01*
X91475558Y-83887408D01*
X91287763Y-83826389D01*
X91092736Y-83795500D01*
X91092731Y-83795500D01*
X89886097Y-83795500D01*
X89819058Y-83775815D01*
X89798416Y-83759181D01*
X89068819Y-83029584D01*
X89035334Y-82968261D01*
X89032500Y-82941903D01*
X89032500Y-79297302D01*
X92536000Y-79297302D01*
X92536000Y-79900000D01*
X93290000Y-79900000D01*
X93290000Y-80400000D01*
X92536000Y-80400000D01*
X92536000Y-81002697D01*
X92566876Y-81197646D01*
X92627873Y-81385373D01*
X92717485Y-81561242D01*
X92833496Y-81720919D01*
X92833500Y-81720924D01*
X92973075Y-81860499D01*
X92973080Y-81860503D01*
X93132757Y-81976514D01*
X93308626Y-82066126D01*
X93496355Y-82127123D01*
X93539999Y-82134034D01*
X93540000Y-82134034D01*
X93540000Y-81183012D01*
X93597007Y-81215925D01*
X93724174Y-81250000D01*
X93855826Y-81250000D01*
X93982993Y-81215925D01*
X94040000Y-81183012D01*
X94040000Y-82134034D01*
X94083644Y-82127123D01*
X94271373Y-82066126D01*
X94447242Y-81976514D01*
X94606919Y-81860503D01*
X94606924Y-81860499D01*
X94746499Y-81720924D01*
X94746503Y-81720919D01*
X94862514Y-81561242D01*
X94952126Y-81385373D01*
X95013123Y-81197646D01*
X95044000Y-81002697D01*
X95044000Y-80400000D01*
X94290000Y-80400000D01*
X94290000Y-79900000D01*
X95044000Y-79900000D01*
X95044000Y-79297302D01*
X95013123Y-79102353D01*
X94952126Y-78914626D01*
X94862514Y-78738757D01*
X94746503Y-78579080D01*
X94746499Y-78579075D01*
X94606924Y-78439500D01*
X94606919Y-78439496D01*
X94447242Y-78323485D01*
X94271371Y-78233873D01*
X94083642Y-78172876D01*
X94040000Y-78165963D01*
X94040000Y-79116988D01*
X93982993Y-79084075D01*
X93855826Y-79050000D01*
X93724174Y-79050000D01*
X93597007Y-79084075D01*
X93540000Y-79116988D01*
X93540000Y-78165963D01*
X93496357Y-78172876D01*
X93496356Y-78172876D01*
X93308628Y-78233873D01*
X93132757Y-78323485D01*
X92973080Y-78439496D01*
X92973075Y-78439500D01*
X92833500Y-78579075D01*
X92833496Y-78579080D01*
X92717485Y-78738757D01*
X92627873Y-78914626D01*
X92566876Y-79102353D01*
X92536000Y-79297302D01*
X89032500Y-79297302D01*
X89032500Y-78292379D01*
X89052185Y-78225340D01*
X89104989Y-78179585D01*
X89174147Y-78169641D01*
X89187439Y-78172732D01*
X89187502Y-78172473D01*
X89192228Y-78173607D01*
X89192237Y-78173610D01*
X89265374Y-78185193D01*
X89387264Y-78204500D01*
X89387269Y-78204500D01*
X91092736Y-78204500D01*
X91287763Y-78173610D01*
X91318863Y-78163505D01*
X91475561Y-78112591D01*
X91651501Y-78022944D01*
X91741192Y-77957779D01*
X91811246Y-77906884D01*
X91811248Y-77906881D01*
X91811252Y-77906879D01*
X91950879Y-77767252D01*
X91950881Y-77767248D01*
X91950884Y-77767246D01*
X92001779Y-77697192D01*
X92066944Y-77607501D01*
X92156591Y-77431561D01*
X92217610Y-77243763D01*
X92248500Y-77048736D01*
X92248500Y-76851263D01*
X92217610Y-76656236D01*
X92197270Y-76593637D01*
X92156591Y-76468439D01*
X92066944Y-76292499D01*
X92059486Y-76282234D01*
X91950884Y-76132753D01*
X91811246Y-75993115D01*
X91651504Y-75877058D01*
X91651503Y-75877057D01*
X91651501Y-75877056D01*
X91475561Y-75787409D01*
X91447499Y-75778291D01*
X91287763Y-75726389D01*
X91092736Y-75695500D01*
X91092731Y-75695500D01*
X89387269Y-75695500D01*
X89387264Y-75695500D01*
X89192233Y-75726390D01*
X89187494Y-75727528D01*
X89187072Y-75725772D01*
X89124974Y-75727545D01*
X89065142Y-75691463D01*
X89034316Y-75628762D01*
X89032500Y-75607620D01*
X89032500Y-73158097D01*
X89052185Y-73091058D01*
X89068819Y-73070416D01*
X89798416Y-72340819D01*
X89859739Y-72307334D01*
X89886097Y-72304500D01*
X91092736Y-72304500D01*
X91287763Y-72273610D01*
X91475561Y-72212591D01*
X91651501Y-72122944D01*
X91741192Y-72057779D01*
X91811246Y-72006884D01*
X91811248Y-72006881D01*
X91811252Y-72006879D01*
X91918135Y-71899996D01*
X95534435Y-71899996D01*
X95534435Y-71900003D01*
X95554630Y-72079249D01*
X95554631Y-72079254D01*
X95614211Y-72249523D01*
X95671577Y-72340819D01*
X95710184Y-72402262D01*
X95837738Y-72529816D01*
X95990478Y-72625789D01*
X96160745Y-72685368D01*
X96160750Y-72685369D01*
X96339996Y-72705565D01*
X96340000Y-72705565D01*
X96340004Y-72705565D01*
X96519249Y-72685369D01*
X96519252Y-72685368D01*
X96519255Y-72685368D01*
X96689522Y-72625789D01*
X96842262Y-72529816D01*
X96842267Y-72529810D01*
X96845097Y-72527555D01*
X96847275Y-72526665D01*
X96848158Y-72526111D01*
X96848255Y-72526265D01*
X96909783Y-72501145D01*
X96922412Y-72500500D01*
X97557588Y-72500500D01*
X97624627Y-72520185D01*
X97634903Y-72527555D01*
X97637736Y-72529814D01*
X97637738Y-72529816D01*
X97790478Y-72625789D01*
X97960745Y-72685368D01*
X97960750Y-72685369D01*
X98139996Y-72705565D01*
X98140000Y-72705565D01*
X98140004Y-72705565D01*
X98319249Y-72685369D01*
X98319252Y-72685368D01*
X98319255Y-72685368D01*
X98489522Y-72625789D01*
X98642262Y-72529816D01*
X98769816Y-72402262D01*
X98865789Y-72249522D01*
X98925368Y-72079255D01*
X98925369Y-72079249D01*
X98945565Y-71900003D01*
X98945565Y-71899996D01*
X98925369Y-71720750D01*
X98925368Y-71720745D01*
X98865788Y-71550476D01*
X98769815Y-71397737D01*
X98642262Y-71270184D01*
X98489523Y-71174211D01*
X98319254Y-71114631D01*
X98319249Y-71114630D01*
X98140004Y-71094435D01*
X98139996Y-71094435D01*
X97960750Y-71114630D01*
X97960745Y-71114631D01*
X97790476Y-71174211D01*
X97637736Y-71270185D01*
X97634903Y-71272445D01*
X97632724Y-71273334D01*
X97631842Y-71273889D01*
X97631744Y-71273734D01*
X97570217Y-71298855D01*
X97557588Y-71299500D01*
X96922412Y-71299500D01*
X96855373Y-71279815D01*
X96845097Y-71272445D01*
X96842263Y-71270185D01*
X96842262Y-71270184D01*
X96785496Y-71234515D01*
X96689523Y-71174211D01*
X96519254Y-71114631D01*
X96519249Y-71114630D01*
X96340004Y-71094435D01*
X96339996Y-71094435D01*
X96160750Y-71114630D01*
X96160745Y-71114631D01*
X95990476Y-71174211D01*
X95837737Y-71270184D01*
X95710184Y-71397737D01*
X95614211Y-71550476D01*
X95554631Y-71720745D01*
X95554630Y-71720750D01*
X95534435Y-71899996D01*
X91918135Y-71899996D01*
X91950879Y-71867252D01*
X91950881Y-71867248D01*
X91950884Y-71867246D01*
X92001779Y-71797192D01*
X92066944Y-71707501D01*
X92156591Y-71531561D01*
X92217610Y-71343763D01*
X92224723Y-71298855D01*
X92248500Y-71148736D01*
X92248500Y-70951263D01*
X102231500Y-70951263D01*
X102231500Y-71148736D01*
X102262389Y-71343763D01*
X102279927Y-71397738D01*
X102323409Y-71531561D01*
X102333047Y-71550476D01*
X102413058Y-71707504D01*
X102529115Y-71867246D01*
X102668753Y-72006884D01*
X102818234Y-72115486D01*
X102828499Y-72122944D01*
X103004439Y-72212591D01*
X103118105Y-72249523D01*
X103192236Y-72273610D01*
X103387264Y-72304500D01*
X103387269Y-72304500D01*
X105092736Y-72304500D01*
X105287763Y-72273610D01*
X105475561Y-72212591D01*
X105651501Y-72122944D01*
X105741192Y-72057779D01*
X105811246Y-72006884D01*
X105811248Y-72006881D01*
X105811252Y-72006879D01*
X105950879Y-71867252D01*
X105950881Y-71867248D01*
X105950884Y-71867246D01*
X106001779Y-71797192D01*
X106066944Y-71707501D01*
X106156591Y-71531561D01*
X106217610Y-71343763D01*
X106224723Y-71298855D01*
X106248500Y-71148736D01*
X106248500Y-70951263D01*
X106217610Y-70756236D01*
X106197270Y-70693637D01*
X106156591Y-70568439D01*
X106066944Y-70392499D01*
X106059486Y-70382234D01*
X105950884Y-70232753D01*
X105811246Y-70093115D01*
X105651504Y-69977058D01*
X105651503Y-69977057D01*
X105651501Y-69977056D01*
X105475561Y-69887409D01*
X105440734Y-69876093D01*
X105287763Y-69826389D01*
X105092736Y-69795500D01*
X105092731Y-69795500D01*
X103387269Y-69795500D01*
X103387264Y-69795500D01*
X103192236Y-69826389D01*
X103004441Y-69887408D01*
X102828495Y-69977058D01*
X102668753Y-70093115D01*
X102529115Y-70232753D01*
X102413058Y-70392495D01*
X102323408Y-70568441D01*
X102262389Y-70756236D01*
X102231500Y-70951263D01*
X92248500Y-70951263D01*
X92217610Y-70756236D01*
X92197270Y-70693637D01*
X92156591Y-70568439D01*
X92066944Y-70392499D01*
X92059486Y-70382234D01*
X91950884Y-70232753D01*
X91811246Y-70093115D01*
X91651504Y-69977058D01*
X91651503Y-69977057D01*
X91651501Y-69977056D01*
X91475561Y-69887409D01*
X91440734Y-69876093D01*
X91287763Y-69826389D01*
X91092736Y-69795500D01*
X91092731Y-69795500D01*
X89387269Y-69795500D01*
X89387264Y-69795500D01*
X89192236Y-69826389D01*
X89004441Y-69887408D01*
X88828490Y-69977060D01*
X88824343Y-69979602D01*
X88823645Y-69978462D01*
X88763563Y-69999892D01*
X88695512Y-69984058D01*
X88646823Y-69933946D01*
X88632500Y-69876093D01*
X88632500Y-65458097D01*
X88652185Y-65391058D01*
X88668819Y-65370416D01*
X88741933Y-65297302D01*
X92536000Y-65297302D01*
X92536000Y-65900000D01*
X93290000Y-65900000D01*
X93290000Y-66400000D01*
X92536000Y-66400000D01*
X92536000Y-67002697D01*
X92566876Y-67197646D01*
X92627873Y-67385373D01*
X92717485Y-67561242D01*
X92833496Y-67720919D01*
X92833500Y-67720924D01*
X92973075Y-67860499D01*
X92973080Y-67860503D01*
X93132757Y-67976514D01*
X93308626Y-68066126D01*
X93496355Y-68127123D01*
X93539999Y-68134034D01*
X93540000Y-68134034D01*
X93540000Y-67183012D01*
X93597007Y-67215925D01*
X93724174Y-67250000D01*
X93855826Y-67250000D01*
X93982993Y-67215925D01*
X94040000Y-67183012D01*
X94040000Y-68134034D01*
X94083644Y-68127123D01*
X94271373Y-68066126D01*
X94447242Y-67976514D01*
X94606919Y-67860503D01*
X94606924Y-67860499D01*
X94746499Y-67720924D01*
X94746503Y-67720919D01*
X94862514Y-67561242D01*
X94952126Y-67385373D01*
X95013123Y-67197646D01*
X95044000Y-67002697D01*
X95044000Y-66400000D01*
X94290000Y-66400000D01*
X94290000Y-65900000D01*
X95044000Y-65900000D01*
X95044000Y-65297302D01*
X95043994Y-65297263D01*
X99435500Y-65297263D01*
X99435500Y-67002736D01*
X99466389Y-67197763D01*
X99527348Y-67385373D01*
X99527409Y-67385561D01*
X99617056Y-67561501D01*
X99617058Y-67561504D01*
X99733115Y-67721246D01*
X99872753Y-67860884D01*
X100022234Y-67969486D01*
X100032499Y-67976944D01*
X100208439Y-68066591D01*
X100333637Y-68107270D01*
X100396236Y-68127610D01*
X100591264Y-68158500D01*
X100591269Y-68158500D01*
X100788736Y-68158500D01*
X100983763Y-68127610D01*
X100985262Y-68127123D01*
X101171561Y-68066591D01*
X101347501Y-67976944D01*
X101437192Y-67911779D01*
X101507246Y-67860884D01*
X101507248Y-67860881D01*
X101507252Y-67860879D01*
X101646879Y-67721252D01*
X101646881Y-67721248D01*
X101646884Y-67721246D01*
X101697779Y-67651192D01*
X101762944Y-67561501D01*
X101852591Y-67385561D01*
X101913610Y-67197763D01*
X101935904Y-67057007D01*
X101944500Y-67002736D01*
X101944500Y-65297302D01*
X106536000Y-65297302D01*
X106536000Y-65900000D01*
X107290000Y-65900000D01*
X107290000Y-66400000D01*
X106536000Y-66400000D01*
X106536000Y-67002697D01*
X106566876Y-67197646D01*
X106627873Y-67385373D01*
X106717485Y-67561242D01*
X106833496Y-67720919D01*
X106833500Y-67720924D01*
X106973075Y-67860499D01*
X106973080Y-67860503D01*
X107132757Y-67976514D01*
X107308626Y-68066126D01*
X107496355Y-68127123D01*
X107539999Y-68134034D01*
X107540000Y-68134034D01*
X107540000Y-67183012D01*
X107597007Y-67215925D01*
X107724174Y-67250000D01*
X107855826Y-67250000D01*
X107982993Y-67215925D01*
X108040000Y-67183012D01*
X108040000Y-68134034D01*
X108083644Y-68127123D01*
X108271373Y-68066126D01*
X108447242Y-67976514D01*
X108606919Y-67860503D01*
X108606924Y-67860499D01*
X108746499Y-67720924D01*
X108746503Y-67720919D01*
X108862514Y-67561242D01*
X108952126Y-67385373D01*
X109013123Y-67197646D01*
X109044000Y-67002697D01*
X109044000Y-66400000D01*
X108290000Y-66400000D01*
X108290000Y-65900000D01*
X109044000Y-65900000D01*
X109044000Y-65297302D01*
X109013123Y-65102353D01*
X108952126Y-64914626D01*
X108862514Y-64738757D01*
X108746503Y-64579080D01*
X108746499Y-64579075D01*
X108606924Y-64439500D01*
X108606919Y-64439496D01*
X108447242Y-64323485D01*
X108271371Y-64233873D01*
X108083642Y-64172876D01*
X108040000Y-64165963D01*
X108040000Y-65116988D01*
X107982993Y-65084075D01*
X107855826Y-65050000D01*
X107724174Y-65050000D01*
X107597007Y-65084075D01*
X107540000Y-65116988D01*
X107540000Y-64165963D01*
X107496357Y-64172876D01*
X107496356Y-64172876D01*
X107308628Y-64233873D01*
X107132757Y-64323485D01*
X106973080Y-64439496D01*
X106973075Y-64439500D01*
X106833500Y-64579075D01*
X106833496Y-64579080D01*
X106717485Y-64738757D01*
X106627873Y-64914626D01*
X106566876Y-65102353D01*
X106536000Y-65297302D01*
X101944500Y-65297302D01*
X101944500Y-65297263D01*
X101913610Y-65102236D01*
X101893270Y-65039637D01*
X101852591Y-64914439D01*
X101762944Y-64738499D01*
X101695330Y-64645435D01*
X101646884Y-64578753D01*
X101507246Y-64439115D01*
X101347504Y-64323058D01*
X101347503Y-64323057D01*
X101347501Y-64323056D01*
X101171561Y-64233409D01*
X101171558Y-64233408D01*
X100983763Y-64172389D01*
X100788736Y-64141500D01*
X100788731Y-64141500D01*
X100591269Y-64141500D01*
X100591264Y-64141500D01*
X100396236Y-64172389D01*
X100208441Y-64233408D01*
X100032495Y-64323058D01*
X99872753Y-64439115D01*
X99733115Y-64578753D01*
X99617058Y-64738495D01*
X99527408Y-64914441D01*
X99466389Y-65102236D01*
X99435500Y-65297263D01*
X95043994Y-65297263D01*
X95013123Y-65102353D01*
X94952126Y-64914626D01*
X94862514Y-64738757D01*
X94746503Y-64579080D01*
X94746499Y-64579075D01*
X94606924Y-64439500D01*
X94606919Y-64439496D01*
X94447242Y-64323485D01*
X94271371Y-64233873D01*
X94083642Y-64172876D01*
X94040000Y-64165963D01*
X94040000Y-65116988D01*
X93982993Y-65084075D01*
X93855826Y-65050000D01*
X93724174Y-65050000D01*
X93597007Y-65084075D01*
X93540000Y-65116988D01*
X93540000Y-64165963D01*
X93496357Y-64172876D01*
X93496356Y-64172876D01*
X93308628Y-64233873D01*
X93132757Y-64323485D01*
X92973080Y-64439496D01*
X92973075Y-64439500D01*
X92833500Y-64579075D01*
X92833496Y-64579080D01*
X92717485Y-64738757D01*
X92627873Y-64914626D01*
X92566876Y-65102353D01*
X92536000Y-65297302D01*
X88741933Y-65297302D01*
X89798417Y-64240819D01*
X89859740Y-64207334D01*
X89886098Y-64204500D01*
X91092736Y-64204500D01*
X91287763Y-64173610D01*
X91311298Y-64165963D01*
X91475561Y-64112591D01*
X91651501Y-64022944D01*
X91741192Y-63957779D01*
X91811246Y-63906884D01*
X91811248Y-63906881D01*
X91811252Y-63906879D01*
X91950879Y-63767252D01*
X91950881Y-63767248D01*
X91950884Y-63767246D01*
X92001779Y-63697192D01*
X92066944Y-63607501D01*
X92156591Y-63431561D01*
X92217610Y-63243763D01*
X92248500Y-63048736D01*
X92248500Y-62851263D01*
X102231500Y-62851263D01*
X102231500Y-63048736D01*
X102262389Y-63243763D01*
X102323408Y-63431558D01*
X102323409Y-63431561D01*
X102413056Y-63607501D01*
X102413058Y-63607504D01*
X102529115Y-63767246D01*
X102668753Y-63906884D01*
X102818234Y-64015486D01*
X102828499Y-64022944D01*
X103004439Y-64112591D01*
X103129637Y-64153270D01*
X103192236Y-64173610D01*
X103387264Y-64204500D01*
X103387269Y-64204500D01*
X105092736Y-64204500D01*
X105287763Y-64173610D01*
X105311298Y-64165963D01*
X105475561Y-64112591D01*
X105651501Y-64022944D01*
X105741192Y-63957779D01*
X105811246Y-63906884D01*
X105811248Y-63906881D01*
X105811252Y-63906879D01*
X105950879Y-63767252D01*
X105950881Y-63767248D01*
X105950884Y-63767246D01*
X106001779Y-63697192D01*
X106066944Y-63607501D01*
X106156591Y-63431561D01*
X106217610Y-63243763D01*
X106248500Y-63048736D01*
X106248500Y-62851263D01*
X106217610Y-62656236D01*
X106197270Y-62593637D01*
X106156591Y-62468439D01*
X106066944Y-62292499D01*
X106059486Y-62282234D01*
X105950884Y-62132753D01*
X105811246Y-61993115D01*
X105651504Y-61877058D01*
X105651503Y-61877057D01*
X105651501Y-61877056D01*
X105475561Y-61787409D01*
X105475558Y-61787408D01*
X105287763Y-61726389D01*
X105092736Y-61695500D01*
X105092731Y-61695500D01*
X103387269Y-61695500D01*
X103387264Y-61695500D01*
X103192236Y-61726389D01*
X103004441Y-61787408D01*
X102828495Y-61877058D01*
X102668753Y-61993115D01*
X102529115Y-62132753D01*
X102413058Y-62292495D01*
X102323408Y-62468441D01*
X102262389Y-62656236D01*
X102231500Y-62851263D01*
X92248500Y-62851263D01*
X92217610Y-62656236D01*
X92197270Y-62593637D01*
X92156591Y-62468439D01*
X92066944Y-62292499D01*
X92059486Y-62282234D01*
X91950884Y-62132753D01*
X91811246Y-61993115D01*
X91651504Y-61877058D01*
X91651503Y-61877057D01*
X91651501Y-61877056D01*
X91475561Y-61787409D01*
X91475558Y-61787408D01*
X91287763Y-61726389D01*
X91092736Y-61695500D01*
X91092731Y-61695500D01*
X89387269Y-61695500D01*
X89387264Y-61695500D01*
X89192236Y-61726389D01*
X89004441Y-61787408D01*
X88828495Y-61877058D01*
X88668753Y-61993115D01*
X88529115Y-62132753D01*
X88413058Y-62292495D01*
X88323408Y-62468441D01*
X88262389Y-62656236D01*
X88231500Y-62851263D01*
X88231500Y-63048736D01*
X88262389Y-63243763D01*
X88323408Y-63431558D01*
X88323409Y-63431561D01*
X88369908Y-63522820D01*
X88413055Y-63607500D01*
X88485551Y-63707283D01*
X88509030Y-63773090D01*
X88493204Y-63841144D01*
X88472913Y-63867849D01*
X87792128Y-64548635D01*
X87730805Y-64582120D01*
X87661114Y-64577136D01*
X87616766Y-64548635D01*
X87507246Y-64439115D01*
X87347504Y-64323058D01*
X87347503Y-64323057D01*
X87347501Y-64323056D01*
X87171561Y-64233409D01*
X87171558Y-64233408D01*
X86983763Y-64172389D01*
X86788736Y-64141500D01*
X86788731Y-64141500D01*
X86591269Y-64141500D01*
X86591264Y-64141500D01*
X86396236Y-64172389D01*
X86208441Y-64233408D01*
X86032495Y-64323058D01*
X85872753Y-64439115D01*
X85733115Y-64578753D01*
X85617058Y-64738495D01*
X85527408Y-64914441D01*
X85466389Y-65102236D01*
X85435500Y-65297263D01*
X85435500Y-67002736D01*
X85466389Y-67197763D01*
X85527348Y-67385373D01*
X85527409Y-67385561D01*
X85617056Y-67561501D01*
X85617058Y-67561504D01*
X85733115Y-67721246D01*
X85872753Y-67860884D01*
X86022234Y-67969486D01*
X86032499Y-67976944D01*
X86208439Y-68066591D01*
X86333637Y-68107270D01*
X86396236Y-68127610D01*
X86591264Y-68158500D01*
X86591269Y-68158500D01*
X86788736Y-68158500D01*
X86983763Y-68127610D01*
X86985262Y-68127123D01*
X87171561Y-68066591D01*
X87251207Y-68026008D01*
X87319874Y-68013113D01*
X87384614Y-68039389D01*
X87424872Y-68096495D01*
X87431500Y-68136494D01*
X87431500Y-78163505D01*
X87411815Y-78230544D01*
X87359011Y-78276299D01*
X87289853Y-78286243D01*
X87251206Y-78273990D01*
X87206590Y-78251257D01*
X87171561Y-78233409D01*
X87125505Y-78218444D01*
X86983763Y-78172389D01*
X86788736Y-78141500D01*
X86788731Y-78141500D01*
X86591269Y-78141500D01*
X86591264Y-78141500D01*
X86396236Y-78172389D01*
X86208441Y-78233408D01*
X86032495Y-78323058D01*
X85872753Y-78439115D01*
X85733115Y-78578753D01*
X85617058Y-78738495D01*
X85527408Y-78914441D01*
X85466389Y-79102236D01*
X85435500Y-79297263D01*
X85435500Y-81002736D01*
X85466389Y-81197763D01*
X85527348Y-81385373D01*
X85527409Y-81385561D01*
X85617056Y-81561501D01*
X85617058Y-81561504D01*
X85733115Y-81721246D01*
X85872753Y-81860884D01*
X86001021Y-81954074D01*
X86032499Y-81976944D01*
X86208439Y-82066591D01*
X86333637Y-82107270D01*
X86396236Y-82127610D01*
X86591264Y-82158500D01*
X86591269Y-82158500D01*
X86788736Y-82158500D01*
X86983763Y-82127610D01*
X86985262Y-82127123D01*
X87171561Y-82066591D01*
X87251207Y-82026008D01*
X87319874Y-82013113D01*
X87384614Y-82039389D01*
X87424872Y-82096495D01*
X87431500Y-82136494D01*
X87431500Y-92857903D01*
X87411815Y-92924942D01*
X87395181Y-92945584D01*
X87107850Y-93232914D01*
X87046527Y-93266399D01*
X86976835Y-93261415D01*
X86947284Y-93245552D01*
X86847500Y-93173055D01*
X86762820Y-93129908D01*
X86671561Y-93083409D01*
X86671558Y-93083408D01*
X86483763Y-93022389D01*
X86288736Y-92991500D01*
X86288731Y-92991500D01*
X86091269Y-92991500D01*
X86091264Y-92991500D01*
X85896236Y-93022389D01*
X85708441Y-93083408D01*
X85532495Y-93173058D01*
X85372753Y-93289115D01*
X85233115Y-93428753D01*
X85117058Y-93588495D01*
X85027408Y-93764441D01*
X84982431Y-93902867D01*
X84942993Y-93960543D01*
X84878635Y-93987741D01*
X84809788Y-93975826D01*
X84758313Y-93928582D01*
X84740500Y-93864549D01*
X84740500Y-56951263D01*
X88231500Y-56951263D01*
X88231500Y-57148736D01*
X88262389Y-57343763D01*
X88323408Y-57531558D01*
X88323409Y-57531561D01*
X88413056Y-57707501D01*
X88413058Y-57707504D01*
X88529115Y-57867246D01*
X88668753Y-58006884D01*
X88818234Y-58115486D01*
X88828499Y-58122944D01*
X89004439Y-58212591D01*
X89129637Y-58253270D01*
X89192236Y-58273610D01*
X89387264Y-58304500D01*
X89387269Y-58304500D01*
X91092736Y-58304500D01*
X91287763Y-58273610D01*
X91475561Y-58212591D01*
X91651501Y-58122944D01*
X91741192Y-58057779D01*
X91811246Y-58006884D01*
X91811248Y-58006881D01*
X91811252Y-58006879D01*
X91950879Y-57867252D01*
X91950881Y-57867248D01*
X91950884Y-57867246D01*
X92001779Y-57797192D01*
X92066944Y-57707501D01*
X92156591Y-57531561D01*
X92217610Y-57343763D01*
X92248500Y-57148736D01*
X92248500Y-56951263D01*
X102231500Y-56951263D01*
X102231500Y-57148736D01*
X102262389Y-57343763D01*
X102323408Y-57531558D01*
X102323409Y-57531561D01*
X102413056Y-57707501D01*
X102413058Y-57707504D01*
X102529115Y-57867246D01*
X102668753Y-58006884D01*
X102818234Y-58115486D01*
X102828499Y-58122944D01*
X103004439Y-58212591D01*
X103129637Y-58253270D01*
X103192236Y-58273610D01*
X103387264Y-58304500D01*
X103387269Y-58304500D01*
X105092736Y-58304500D01*
X105287763Y-58273610D01*
X105475561Y-58212591D01*
X105651501Y-58122944D01*
X105741192Y-58057779D01*
X105811246Y-58006884D01*
X105811248Y-58006881D01*
X105811252Y-58006879D01*
X105950879Y-57867252D01*
X105950881Y-57867248D01*
X105950884Y-57867246D01*
X106001779Y-57797192D01*
X106066944Y-57707501D01*
X106156591Y-57531561D01*
X106217610Y-57343763D01*
X106248500Y-57148736D01*
X106248500Y-56951263D01*
X106217610Y-56756236D01*
X106197270Y-56693637D01*
X106156591Y-56568439D01*
X106066944Y-56392499D01*
X106059486Y-56382234D01*
X105950884Y-56232753D01*
X105811246Y-56093115D01*
X105651504Y-55977058D01*
X105651503Y-55977057D01*
X105651501Y-55977056D01*
X105475561Y-55887409D01*
X105475558Y-55887408D01*
X105287763Y-55826389D01*
X105092736Y-55795500D01*
X105092731Y-55795500D01*
X103387269Y-55795500D01*
X103387264Y-55795500D01*
X103192236Y-55826389D01*
X103004441Y-55887408D01*
X102828495Y-55977058D01*
X102668753Y-56093115D01*
X102529115Y-56232753D01*
X102413058Y-56392495D01*
X102323408Y-56568441D01*
X102262389Y-56756236D01*
X102231500Y-56951263D01*
X92248500Y-56951263D01*
X92217610Y-56756236D01*
X92197270Y-56693637D01*
X92156591Y-56568439D01*
X92066944Y-56392499D01*
X92059486Y-56382234D01*
X91950884Y-56232753D01*
X91811246Y-56093115D01*
X91651504Y-55977058D01*
X91651503Y-55977057D01*
X91651501Y-55977056D01*
X91475561Y-55887409D01*
X91475558Y-55887408D01*
X91287763Y-55826389D01*
X91092736Y-55795500D01*
X91092731Y-55795500D01*
X89387269Y-55795500D01*
X89387264Y-55795500D01*
X89192236Y-55826389D01*
X89004441Y-55887408D01*
X88828495Y-55977058D01*
X88668753Y-56093115D01*
X88529115Y-56232753D01*
X88413058Y-56392495D01*
X88323408Y-56568441D01*
X88262389Y-56756236D01*
X88231500Y-56951263D01*
X84740500Y-56951263D01*
X84740500Y-51297302D01*
X85436000Y-51297302D01*
X85436000Y-51900000D01*
X86190000Y-51900000D01*
X86190000Y-52400000D01*
X85436000Y-52400000D01*
X85436000Y-53002697D01*
X85466876Y-53197646D01*
X85527873Y-53385373D01*
X85617485Y-53561242D01*
X85733496Y-53720919D01*
X85733500Y-53720924D01*
X85873075Y-53860499D01*
X85873080Y-53860503D01*
X86032757Y-53976514D01*
X86208626Y-54066126D01*
X86396355Y-54127123D01*
X86439999Y-54134034D01*
X86440000Y-54134034D01*
X86440000Y-53183012D01*
X86497007Y-53215925D01*
X86624174Y-53250000D01*
X86755826Y-53250000D01*
X86882993Y-53215925D01*
X86940000Y-53183012D01*
X86940000Y-54134034D01*
X86983644Y-54127123D01*
X87171373Y-54066126D01*
X87347242Y-53976514D01*
X87506919Y-53860503D01*
X87506924Y-53860499D01*
X87646499Y-53720924D01*
X87646503Y-53720919D01*
X87762514Y-53561242D01*
X87852126Y-53385373D01*
X87913123Y-53197646D01*
X87944000Y-53002697D01*
X87944000Y-52400000D01*
X87190000Y-52400000D01*
X87190000Y-51900000D01*
X87944000Y-51900000D01*
X87944000Y-51297302D01*
X92536000Y-51297302D01*
X92536000Y-51900000D01*
X93290000Y-51900000D01*
X93290000Y-52400000D01*
X92536000Y-52400000D01*
X92536000Y-53002697D01*
X92566876Y-53197646D01*
X92627873Y-53385373D01*
X92717485Y-53561242D01*
X92833496Y-53720919D01*
X92833500Y-53720924D01*
X92973075Y-53860499D01*
X92973080Y-53860503D01*
X93132757Y-53976514D01*
X93308626Y-54066126D01*
X93496355Y-54127123D01*
X93540000Y-54134034D01*
X93540000Y-53183012D01*
X93597007Y-53215925D01*
X93724174Y-53250000D01*
X93855826Y-53250000D01*
X93982993Y-53215925D01*
X94040000Y-53183012D01*
X94040000Y-54134034D01*
X94083644Y-54127123D01*
X94271373Y-54066126D01*
X94447242Y-53976514D01*
X94606919Y-53860503D01*
X94606924Y-53860499D01*
X94746499Y-53720924D01*
X94746503Y-53720919D01*
X94862514Y-53561242D01*
X94952126Y-53385373D01*
X95013123Y-53197646D01*
X95044000Y-53002697D01*
X95044000Y-52400000D01*
X94290000Y-52400000D01*
X94290000Y-51900000D01*
X95044000Y-51900000D01*
X95044000Y-51297302D01*
X95043994Y-51297263D01*
X99435500Y-51297263D01*
X99435500Y-53002736D01*
X99466389Y-53197763D01*
X99527348Y-53385373D01*
X99527409Y-53385561D01*
X99617056Y-53561501D01*
X99617058Y-53561504D01*
X99733115Y-53721246D01*
X99872753Y-53860884D01*
X100022234Y-53969486D01*
X100032499Y-53976944D01*
X100208439Y-54066591D01*
X100333637Y-54107270D01*
X100396236Y-54127610D01*
X100591264Y-54158500D01*
X100591269Y-54158500D01*
X100788736Y-54158500D01*
X100983763Y-54127610D01*
X100985262Y-54127123D01*
X101171561Y-54066591D01*
X101347501Y-53976944D01*
X101437192Y-53911779D01*
X101507246Y-53860884D01*
X101507248Y-53860881D01*
X101507252Y-53860879D01*
X101646879Y-53721252D01*
X101646881Y-53721248D01*
X101646884Y-53721246D01*
X101697779Y-53651192D01*
X101762944Y-53561501D01*
X101852591Y-53385561D01*
X101913610Y-53197763D01*
X101935904Y-53057007D01*
X101944500Y-53002736D01*
X101944500Y-51297302D01*
X106536000Y-51297302D01*
X106536000Y-51900000D01*
X107290000Y-51900000D01*
X107290000Y-52400000D01*
X106536000Y-52400000D01*
X106536000Y-53002697D01*
X106566876Y-53197646D01*
X106627873Y-53385373D01*
X106717485Y-53561242D01*
X106833496Y-53720919D01*
X106833500Y-53720924D01*
X106973075Y-53860499D01*
X106973080Y-53860503D01*
X107132757Y-53976514D01*
X107308626Y-54066126D01*
X107496355Y-54127123D01*
X107539999Y-54134034D01*
X107540000Y-54134034D01*
X107540000Y-53183012D01*
X107597007Y-53215925D01*
X107724174Y-53250000D01*
X107855826Y-53250000D01*
X107982993Y-53215925D01*
X108040000Y-53183012D01*
X108040000Y-54134034D01*
X108083644Y-54127123D01*
X108271373Y-54066126D01*
X108447242Y-53976514D01*
X108606919Y-53860503D01*
X108606924Y-53860499D01*
X108746499Y-53720924D01*
X108746503Y-53720919D01*
X108862514Y-53561242D01*
X108952126Y-53385373D01*
X109013123Y-53197646D01*
X109044000Y-53002697D01*
X109044000Y-52400000D01*
X108290000Y-52400000D01*
X108290000Y-51900000D01*
X109044000Y-51900000D01*
X109044000Y-51297302D01*
X109013123Y-51102353D01*
X108952126Y-50914626D01*
X108862514Y-50738757D01*
X108746503Y-50579080D01*
X108746499Y-50579075D01*
X108606924Y-50439500D01*
X108606919Y-50439496D01*
X108447242Y-50323485D01*
X108271371Y-50233873D01*
X108083642Y-50172876D01*
X108040000Y-50165963D01*
X108040000Y-51116988D01*
X107982993Y-51084075D01*
X107855826Y-51050000D01*
X107724174Y-51050000D01*
X107597007Y-51084075D01*
X107540000Y-51116988D01*
X107540000Y-50165963D01*
X107496357Y-50172876D01*
X107496356Y-50172876D01*
X107308628Y-50233873D01*
X107132757Y-50323485D01*
X106973080Y-50439496D01*
X106973075Y-50439500D01*
X106833500Y-50579075D01*
X106833496Y-50579080D01*
X106717485Y-50738757D01*
X106627873Y-50914626D01*
X106566876Y-51102353D01*
X106536000Y-51297302D01*
X101944500Y-51297302D01*
X101944500Y-51297263D01*
X101913610Y-51102236D01*
X101893270Y-51039637D01*
X101852591Y-50914439D01*
X101762944Y-50738499D01*
X101755486Y-50728234D01*
X101646884Y-50578753D01*
X101507246Y-50439115D01*
X101347504Y-50323058D01*
X101347503Y-50323057D01*
X101347501Y-50323056D01*
X101171561Y-50233409D01*
X101171558Y-50233408D01*
X100983763Y-50172389D01*
X100788736Y-50141500D01*
X100788731Y-50141500D01*
X100591269Y-50141500D01*
X100591264Y-50141500D01*
X100396236Y-50172389D01*
X100208441Y-50233408D01*
X100032495Y-50323058D01*
X99872753Y-50439115D01*
X99733115Y-50578753D01*
X99617058Y-50738495D01*
X99527408Y-50914441D01*
X99466389Y-51102236D01*
X99435500Y-51297263D01*
X95043994Y-51297263D01*
X95013123Y-51102353D01*
X94952126Y-50914626D01*
X94862514Y-50738757D01*
X94746503Y-50579080D01*
X94746499Y-50579075D01*
X94606924Y-50439500D01*
X94606919Y-50439496D01*
X94447242Y-50323485D01*
X94271371Y-50233873D01*
X94083642Y-50172876D01*
X94040000Y-50165963D01*
X94040000Y-51116988D01*
X93982993Y-51084075D01*
X93855826Y-51050000D01*
X93724174Y-51050000D01*
X93597007Y-51084075D01*
X93540000Y-51116988D01*
X93540000Y-50165963D01*
X93496357Y-50172876D01*
X93496356Y-50172876D01*
X93308628Y-50233873D01*
X93132757Y-50323485D01*
X92973080Y-50439496D01*
X92973075Y-50439500D01*
X92833500Y-50579075D01*
X92833496Y-50579080D01*
X92717485Y-50738757D01*
X92627873Y-50914626D01*
X92566876Y-51102353D01*
X92536000Y-51297302D01*
X87944000Y-51297302D01*
X87913123Y-51102353D01*
X87852126Y-50914626D01*
X87762514Y-50738757D01*
X87646503Y-50579080D01*
X87646499Y-50579075D01*
X87506924Y-50439500D01*
X87506919Y-50439496D01*
X87347242Y-50323485D01*
X87171371Y-50233873D01*
X86983642Y-50172876D01*
X86940000Y-50165963D01*
X86940000Y-51116988D01*
X86882993Y-51084075D01*
X86755826Y-51050000D01*
X86624174Y-51050000D01*
X86497007Y-51084075D01*
X86440000Y-51116988D01*
X86440000Y-50165963D01*
X86396357Y-50172876D01*
X86396356Y-50172876D01*
X86208628Y-50233873D01*
X86032757Y-50323485D01*
X85873080Y-50439496D01*
X85873075Y-50439500D01*
X85733500Y-50579075D01*
X85733496Y-50579080D01*
X85617485Y-50738757D01*
X85527873Y-50914626D01*
X85466876Y-51102353D01*
X85436000Y-51297302D01*
X84740500Y-51297302D01*
X84740500Y-47624500D01*
X84760185Y-47557461D01*
X84812989Y-47511706D01*
X84864500Y-47500500D01*
X89104549Y-47500500D01*
X89171588Y-47520185D01*
G37*
%TD.AperFunction*%
%TA.AperFunction,Conductor*%
G36*
X97188823Y-74719947D02*
G01*
X97213576Y-74748512D01*
X97247350Y-74802262D01*
X97310184Y-74902262D01*
X97437738Y-75029816D01*
X97590478Y-75125789D01*
X97760745Y-75185368D01*
X97847669Y-75195161D01*
X97912080Y-75222226D01*
X97921465Y-75230700D01*
X98125780Y-75435015D01*
X98159265Y-75496338D01*
X98162099Y-75522696D01*
X98162099Y-86899136D01*
X98142414Y-86966175D01*
X98125780Y-86986817D01*
X98112599Y-86999998D01*
X98112599Y-87933009D01*
X98102659Y-87915793D01*
X98046804Y-87859938D01*
X97978395Y-87820442D01*
X97902095Y-87799998D01*
X97823103Y-87799998D01*
X97746803Y-87820442D01*
X97678394Y-87859938D01*
X97622539Y-87915793D01*
X97612599Y-87933009D01*
X97612599Y-86999998D01*
X97214754Y-86999998D01*
X97155226Y-87006399D01*
X97155216Y-87006401D01*
X97130431Y-87015646D01*
X97060740Y-87020630D01*
X96999417Y-86987144D01*
X96965933Y-86925821D01*
X96963099Y-86899464D01*
X96963099Y-74848675D01*
X96982103Y-74782707D01*
X97003590Y-74748509D01*
X97055921Y-74702222D01*
X97124975Y-74691572D01*
X97188823Y-74719947D01*
G37*
%TD.AperFunction*%
%TD*%
M02*
