M48
; DRILL file {KiCad 8.0.3-8.0.3-0~ubuntu22.04.1} date 2024-07-22T11:51:58+0200
; FORMAT={-:-/ absolute / inch / decimal}
; #@! TF.CreationDate,2024-07-22T11:51:58+02:00
; #@! TF.GenerationSoftware,Kicad,Pcbnew,8.0.3-8.0.3-0~ubuntu22.04.1
; #@! TF.FileFunction,Plated,1,2,PTH
FMAT,2
INCH
; #@! TA.AperFunction,Plated,PTH,ViaDrill
T1C0.0118
; #@! TA.AperFunction,Plated,PTH,ComponentDrill
T2C0.0236
; #@! TA.AperFunction,Plated,PTH,ComponentDrill
T3C0.0394
; #@! TA.AperFunction,Plated,PTH,ComponentDrill
T4C0.0433
%
G90
G05
T1
X3.3835Y-4.9646
X3.4071Y-2.9409
X3.4307Y-5.1339
X3.4346Y-2.4961
X3.4701Y-4.2205
X3.4819Y-2.3465
X3.5055Y-5.1102
X3.5173Y-2.0748
X3.5213Y-3.685
X3.5449Y-5.685
X3.5488Y-4.0118
X3.5488Y-4.9134
X3.5606Y-2.9567
X3.6354Y-3.7874
X3.6394Y-3.4961
X3.6669Y-4.5551
X3.6906Y-6.0591
X3.7102Y-5.6969
X3.785Y-5.1535
X3.7929Y-2.8307
X3.7929Y-2.9252
X3.7949Y-5.067
X3.7969Y-5.2244
X3.8087Y-2.0591
X3.8205Y-4.1614
X3.8244Y-2.3386
X3.8244Y-4.3583
X3.8283Y-3.8543
X3.8283Y-5.4724
X3.8402Y-2.6063
X3.8402Y-3.3031
X3.8457Y-5.0477
X3.8559Y-2.9291
X3.8559Y-4.8661
X3.8559Y-5.3228
X3.8638Y-2.8307
X3.8717Y-5.1535
X3.8953Y-5.7047
X3.9622Y-3.248
X3.974Y-3.5
X3.9898Y-4.5551
X4.0016Y-3.8504
X4.0016Y-6.0433
X4.0685Y-2.0591
X4.1039Y-3.4843
X4.1157Y-3.9961
X4.1276Y-5.689
X4.1512Y-2.5591
X4.1512Y-5.1378
X4.163Y-2.3465
X4.1669Y-4.2913
X4.1906Y-3.7047
X4.2142Y-3.2913
X4.222Y-4.9213
X4.2339Y-5.4961
X4.285Y-5.1457
T2
X3.7938Y-3.4685
X3.8008Y-4.5512
X3.8529Y-3.4685
X3.8598Y-4.5512
T3
X3.3933Y-3.7402
X3.3933Y-4.2913
X3.413Y-2.0531
X3.413Y-2.6043
X3.413Y-3.1555
X3.413Y-4.8091
X3.413Y-5.3602
X3.413Y-5.9114
X3.5528Y-1.9272
X3.5528Y-2.2461
X3.5528Y-2.4783
X3.5528Y-2.7972
X3.5528Y-3.0295
X3.5528Y-3.3484
X3.5528Y-4.6831
X3.5528Y-5.002
X3.5528Y-5.2343
X3.5528Y-5.5531
X3.5528Y-5.7854
X3.5528Y-6.1043
X3.5862Y-3.6004
X3.5862Y-3.8799
X3.5862Y-4.1516
X3.5862Y-4.4311
X3.6283Y-3.9657
X3.6283Y-4.0657
X3.6925Y-2.0531
X3.6925Y-2.6043
X3.6925Y-3.1555
X3.6925Y-4.8091
X3.6925Y-5.3602
X3.6925Y-5.9114
X3.7122Y-3.7402
X3.7122Y-4.2913
X3.7283Y-3.9657
X3.7283Y-4.0657
X3.8283Y-3.9657
X3.8283Y-4.0657
X3.9283Y-3.9657
X3.9283Y-4.0657
X3.9445Y-3.7402
X3.9445Y-4.2913
X3.9642Y-2.0531
X3.9642Y-2.6043
X3.9642Y-3.1555
X3.9642Y-4.8091
X3.9642Y-5.3602
X3.9642Y-5.9114
X4.0283Y-3.9657
X4.0283Y-4.0657
X4.0705Y-4.1516
X4.0705Y-4.4311
X4.1039Y-1.9272
X4.1039Y-2.2461
X4.1039Y-2.4783
X4.1039Y-2.7972
X4.1039Y-3.0295
X4.1039Y-3.3484
X4.1039Y-4.6831
X4.1039Y-5.002
X4.1039Y-5.2343
X4.1039Y-5.5531
X4.1039Y-5.7854
X4.1039Y-6.1043
X4.1374Y-3.6004
X4.1374Y-3.8799
X4.2437Y-2.0531
X4.2437Y-2.6043
X4.2437Y-3.1555
X4.2437Y-4.8091
X4.2437Y-5.3602
X4.2437Y-5.9114
X4.2634Y-3.7402
X4.2634Y-4.2913
T4
X3.4003Y-3.9696
X3.4003Y-4.0696
X4.2665Y-3.9657
X4.2665Y-4.0657
M30
