%TF.GenerationSoftware,KiCad,Pcbnew,8.0.3-8.0.3-0~ubuntu22.04.1*%
%TF.CreationDate,2024-07-22T11:51:24+02:00*%
%TF.ProjectId,splt_mlt,73706c74-5f6d-46c7-942e-6b696361645f,rev?*%
%TF.SameCoordinates,Original*%
%TF.FileFunction,Copper,L2,Bot*%
%TF.FilePolarity,Positive*%
%FSLAX46Y46*%
G04 Gerber Fmt 4.6, Leading zero omitted, Abs format (unit mm)*
G04 Created by KiCad (PCBNEW 8.0.3-8.0.3-0~ubuntu22.04.1) date 2024-07-22 11:51:24*
%MOMM*%
%LPD*%
G01*
G04 APERTURE LIST*
G04 Aperture macros list*
%AMRoundRect*
0 Rectangle with rounded corners*
0 $1 Rounding radius*
0 $2 $3 $4 $5 $6 $7 $8 $9 X,Y pos of 4 corners*
0 Add a 4 corners polygon primitive as box body*
4,1,4,$2,$3,$4,$5,$6,$7,$8,$9,$2,$3,0*
0 Add four circle primitives for the rounded corners*
1,1,$1+$1,$2,$3*
1,1,$1+$1,$4,$5*
1,1,$1+$1,$6,$7*
1,1,$1+$1,$8,$9*
0 Add four rect primitives between the rounded corners*
20,1,$1+$1,$2,$3,$4,$5,0*
20,1,$1+$1,$4,$5,$6,$7,0*
20,1,$1+$1,$6,$7,$8,$9,0*
20,1,$1+$1,$8,$9,$2,$3,0*%
G04 Aperture macros list end*
%TA.AperFunction,ComponentPad*%
%ADD10O,1.508000X3.016000*%
%TD*%
%TA.AperFunction,ComponentPad*%
%ADD11O,3.016000X1.508000*%
%TD*%
%TA.AperFunction,SMDPad,CuDef*%
%ADD12RoundRect,0.250000X-0.350000X-0.450000X0.350000X-0.450000X0.350000X0.450000X-0.350000X0.450000X0*%
%TD*%
%TA.AperFunction,SMDPad,CuDef*%
%ADD13RoundRect,0.250000X-0.475000X0.337500X-0.475000X-0.337500X0.475000X-0.337500X0.475000X0.337500X0*%
%TD*%
%TA.AperFunction,SMDPad,CuDef*%
%ADD14RoundRect,0.250000X0.475000X-0.337500X0.475000X0.337500X-0.475000X0.337500X-0.475000X-0.337500X0*%
%TD*%
%TA.AperFunction,SMDPad,CuDef*%
%ADD15RoundRect,0.150000X0.825000X0.150000X-0.825000X0.150000X-0.825000X-0.150000X0.825000X-0.150000X0*%
%TD*%
%TA.AperFunction,SMDPad,CuDef*%
%ADD16RoundRect,0.250000X0.450000X-0.350000X0.450000X0.350000X-0.450000X0.350000X-0.450000X-0.350000X0*%
%TD*%
%TA.AperFunction,SMDPad,CuDef*%
%ADD17RoundRect,0.250000X-0.450000X0.350000X-0.450000X-0.350000X0.450000X-0.350000X0.450000X0.350000X0*%
%TD*%
%TA.AperFunction,SMDPad,CuDef*%
%ADD18RoundRect,0.250000X-0.337500X-0.475000X0.337500X-0.475000X0.337500X0.475000X-0.337500X0.475000X0*%
%TD*%
%TA.AperFunction,ComponentPad*%
%ADD19R,2.200000X2.200000*%
%TD*%
%TA.AperFunction,ComponentPad*%
%ADD20O,2.200000X2.200000*%
%TD*%
%TA.AperFunction,ComponentPad*%
%ADD21R,1.200000X1.200000*%
%TD*%
%TA.AperFunction,ComponentPad*%
%ADD22C,1.200000*%
%TD*%
%TA.AperFunction,SMDPad,CuDef*%
%ADD23RoundRect,0.250000X0.350000X0.450000X-0.350000X0.450000X-0.350000X-0.450000X0.350000X-0.450000X0*%
%TD*%
%TA.AperFunction,ComponentPad*%
%ADD24O,1.700000X1.700000*%
%TD*%
%TA.AperFunction,ViaPad*%
%ADD25C,0.600000*%
%TD*%
%TA.AperFunction,Conductor*%
%ADD26C,0.200000*%
%TD*%
G04 APERTURE END LIST*
D10*
%TO.P,J8,R*%
%TO.N,unconnected-(J8-PadR)*%
X100190000Y-109000000D03*
D11*
%TO.P,J8,S*%
%TO.N,GND*%
X103390000Y-105450000D03*
D10*
%TO.P,J8,T*%
%TO.N,Net-(J8-PadT)*%
X108290000Y-109000000D03*
D11*
%TO.P,J8,TN*%
%TO.N,unconnected-(J8-PadTN)*%
X103390000Y-112550000D03*
%TD*%
D10*
%TO.P,J6,R*%
%TO.N,unconnected-(J6-PadR)*%
X108290000Y-95000000D03*
D11*
%TO.P,J6,S*%
%TO.N,GND*%
X105090000Y-98550000D03*
D10*
%TO.P,J6,T*%
%TO.N,Net-(J6-PadT)*%
X100190000Y-95000000D03*
D11*
%TO.P,J6,TN*%
%TO.N,unconnected-(J6-PadTN)*%
X105090000Y-91450000D03*
%TD*%
%TO.P,J4,R*%
%TO.N,unconnected-(J4-PadR)*%
X104240000Y-62950000D03*
D10*
%TO.P,J4,S*%
%TO.N,GND*%
X107790000Y-66150000D03*
D11*
%TO.P,J4,T*%
%TO.N,Net-(J4-PadT)*%
X104240000Y-71050000D03*
D10*
%TO.P,J4,TN*%
%TO.N,unconnected-(J4-PadTN)*%
X100690000Y-66150000D03*
%TD*%
D11*
%TO.P,J10,R*%
%TO.N,unconnected-(J10-PadR)*%
X104240000Y-132950000D03*
D10*
%TO.P,J10,S*%
%TO.N,GND*%
X107790000Y-136150000D03*
D11*
%TO.P,J10,T*%
%TO.N,Net-(J10-PadT)*%
X104240000Y-141050000D03*
D10*
%TO.P,J10,TN*%
%TO.N,unconnected-(J10-PadTN)*%
X100690000Y-136150000D03*
%TD*%
D11*
%TO.P,J17,R*%
%TO.N,Net-(J14-PadTN)*%
X90240000Y-118950000D03*
D10*
%TO.P,J17,S*%
%TO.N,GND*%
X93790000Y-122150000D03*
D11*
%TO.P,J17,T*%
%TO.N,Net-(J14-PadT)*%
X90240000Y-127050000D03*
D10*
%TO.P,J17,TN*%
%TO.N,unconnected-(J17-PadTN)*%
X86690000Y-122150000D03*
%TD*%
D11*
%TO.P,J5,R*%
%TO.N,unconnected-(J5-PadR)*%
X104240000Y-76950000D03*
D10*
%TO.P,J5,S*%
%TO.N,GND*%
X107790000Y-80150000D03*
D11*
%TO.P,J5,T*%
%TO.N,Net-(J5-PadT)*%
X104240000Y-85050000D03*
D10*
%TO.P,J5,TN*%
%TO.N,unconnected-(J5-PadTN)*%
X100690000Y-80150000D03*
%TD*%
D11*
%TO.P,J9,R*%
%TO.N,unconnected-(J9-PadR)*%
X104240000Y-118950000D03*
D10*
%TO.P,J9,S*%
%TO.N,GND*%
X107790000Y-122150000D03*
D11*
%TO.P,J9,T*%
%TO.N,Net-(J9-PadT)*%
X104240000Y-127050000D03*
D10*
%TO.P,J9,TN*%
%TO.N,unconnected-(J9-PadTN)*%
X100690000Y-122150000D03*
%TD*%
D11*
%TO.P,J16,R*%
%TO.N,Net-(J12-PadTN)*%
X90240000Y-62950000D03*
D10*
%TO.P,J16,S*%
%TO.N,GND*%
X93790000Y-66150000D03*
D11*
%TO.P,J16,T*%
%TO.N,Net-(J12-PadT)*%
X90240000Y-71050000D03*
D10*
%TO.P,J16,TN*%
%TO.N,unconnected-(J16-PadTN)*%
X86690000Y-66150000D03*
%TD*%
D11*
%TO.P,J1,R*%
%TO.N,unconnected-(J1-PadR)*%
X90240000Y-48950000D03*
D10*
%TO.P,J1,S*%
%TO.N,GND*%
X93790000Y-52150000D03*
D11*
%TO.P,J1,T*%
%TO.N,Net-(J1-PadT)*%
X90240000Y-57050000D03*
D10*
%TO.P,J1,TN*%
%TO.N,GND*%
X86690000Y-52150000D03*
%TD*%
D11*
%TO.P,J14,R*%
%TO.N,unconnected-(J14-PadR)*%
X90240000Y-132950000D03*
D10*
%TO.P,J14,S*%
%TO.N,GND*%
X93790000Y-136150000D03*
D11*
%TO.P,J14,T*%
%TO.N,Net-(J14-PadT)*%
X90240000Y-141050000D03*
D10*
%TO.P,J14,TN*%
%TO.N,Net-(J14-PadTN)*%
X86690000Y-136150000D03*
%TD*%
D11*
%TO.P,J3,R*%
%TO.N,unconnected-(J3-PadR)*%
X104240000Y-48950000D03*
D10*
%TO.P,J3,S*%
%TO.N,GND*%
X107790000Y-52150000D03*
D11*
%TO.P,J3,T*%
%TO.N,Net-(J3-PadT)*%
X104240000Y-57050000D03*
D10*
%TO.P,J3,TN*%
%TO.N,unconnected-(J3-PadTN)*%
X100690000Y-52150000D03*
%TD*%
D11*
%TO.P,J12,R*%
%TO.N,unconnected-(J12-PadR)*%
X90240000Y-76950000D03*
D10*
%TO.P,J12,S*%
%TO.N,GND*%
X93790000Y-80150000D03*
D11*
%TO.P,J12,T*%
%TO.N,Net-(J12-PadT)*%
X90240000Y-85050000D03*
D10*
%TO.P,J12,TN*%
%TO.N,Net-(J12-PadTN)*%
X86690000Y-80150000D03*
%TD*%
%TO.P,J7,R*%
%TO.N,unconnected-(J7-PadR)*%
X94290000Y-109000000D03*
D11*
%TO.P,J7,S*%
%TO.N,GND*%
X91090000Y-112550000D03*
D10*
%TO.P,J7,T*%
%TO.N,Net-(J7-PadT)*%
X86190000Y-109000000D03*
D11*
%TO.P,J7,TN*%
%TO.N,Net-(U1A-+)*%
X91090000Y-105450000D03*
%TD*%
%TO.P,J11,R*%
%TO.N,unconnected-(J11-PadR)*%
X104240000Y-146950000D03*
D10*
%TO.P,J11,S*%
%TO.N,GND*%
X107790000Y-150150000D03*
D11*
%TO.P,J11,T*%
%TO.N,Net-(J11-PadT)*%
X104240000Y-155050000D03*
D10*
%TO.P,J11,TN*%
%TO.N,unconnected-(J11-PadTN)*%
X100690000Y-150150000D03*
%TD*%
%TO.P,J13,R*%
%TO.N,unconnected-(J13-PadR)*%
X94290000Y-95000000D03*
D11*
%TO.P,J13,S*%
%TO.N,GND*%
X91090000Y-98550000D03*
D10*
%TO.P,J13,T*%
%TO.N,Net-(J12-PadTN)*%
X86190000Y-95000000D03*
D11*
%TO.P,J13,TN*%
%TO.N,Net-(J12-PadT)*%
X91090000Y-91450000D03*
%TD*%
%TO.P,J15,R*%
%TO.N,unconnected-(J15-PadR)*%
X90240000Y-146950000D03*
D10*
%TO.P,J15,S*%
%TO.N,GND*%
X93790000Y-150150000D03*
D11*
%TO.P,J15,T*%
%TO.N,Net-(J14-PadTN)*%
X90240000Y-155050000D03*
D10*
%TO.P,J15,TN*%
%TO.N,Net-(J14-PadT)*%
X86690000Y-150150000D03*
%TD*%
D12*
%TO.P,R8,1*%
%TO.N,Net-(C5-Pad2)*%
X99340000Y-85100000D03*
%TO.P,R8,2*%
%TO.N,Net-(J5-PadT)*%
X101340000Y-85100000D03*
%TD*%
D13*
%TO.P,C11,1*%
%TO.N,Net-(U2C--)*%
X89240000Y-135725000D03*
%TO.P,C11,2*%
%TO.N,Net-(C11-Pad2)*%
X89240000Y-137800000D03*
%TD*%
D14*
%TO.P,C9,1*%
%TO.N,Net-(U2A--)*%
X104940000Y-124437500D03*
%TO.P,C9,2*%
%TO.N,Net-(C9-Pad2)*%
X104940000Y-122362500D03*
%TD*%
D15*
%TO.P,U2,1*%
%TO.N,Net-(C9-Pad2)*%
X99715000Y-125867500D03*
%TO.P,U2,2,-*%
%TO.N,Net-(U2A--)*%
X99715000Y-127137500D03*
%TO.P,U2,3,+*%
%TO.N,Net-(U2A-+)*%
X99715000Y-128407500D03*
%TO.P,U2,4,V+*%
%TO.N,Net-(D2-K)*%
X99715000Y-129677500D03*
%TO.P,U2,5,+*%
%TO.N,Net-(U2A-+)*%
X99715000Y-130947500D03*
%TO.P,U2,6,-*%
%TO.N,Net-(U2B--)*%
X99715000Y-132217500D03*
%TO.P,U2,7*%
%TO.N,Net-(C10-Pad2)*%
X99715000Y-133487500D03*
%TO.P,U2,8*%
%TO.N,Net-(C11-Pad2)*%
X94765000Y-133487500D03*
%TO.P,U2,9,-*%
%TO.N,Net-(U2C--)*%
X94765000Y-132217500D03*
%TO.P,U2,10,+*%
%TO.N,Net-(U2A-+)*%
X94765000Y-130947500D03*
%TO.P,U2,11,V-*%
%TO.N,Net-(D1-A)*%
X94765000Y-129677500D03*
%TO.P,U2,12,+*%
%TO.N,Net-(U2A-+)*%
X94765000Y-128407500D03*
%TO.P,U2,13,-*%
%TO.N,Net-(U2D--)*%
X94765000Y-127137500D03*
%TO.P,U2,14*%
%TO.N,Net-(C12-Pad2)*%
X94765000Y-125867500D03*
%TD*%
D14*
%TO.P,C6,1*%
%TO.N,Net-(U1D--)*%
X89440000Y-68837500D03*
%TO.P,C6,2*%
%TO.N,Net-(C6-Pad2)*%
X89440000Y-66762500D03*
%TD*%
D16*
%TO.P,R14,1*%
%TO.N,Net-(U2D--)*%
X91440000Y-123400000D03*
%TO.P,R14,2*%
%TO.N,Net-(C12-Pad2)*%
X91440000Y-121400000D03*
%TD*%
D15*
%TO.P,U1,1*%
%TO.N,Net-(C3-Pad2)*%
X99715000Y-69390000D03*
%TO.P,U1,2,-*%
%TO.N,Net-(U1A--)*%
X99715000Y-70660000D03*
%TO.P,U1,3,+*%
%TO.N,Net-(U1A-+)*%
X99715000Y-71930000D03*
%TO.P,U1,4,V+*%
%TO.N,Net-(D2-K)*%
X99715000Y-73200000D03*
%TO.P,U1,5,+*%
%TO.N,Net-(U1A-+)*%
X99715000Y-74470000D03*
%TO.P,U1,6,-*%
%TO.N,Net-(U1B--)*%
X99715000Y-75740000D03*
%TO.P,U1,7*%
%TO.N,Net-(C4-Pad2)*%
X99715000Y-77010000D03*
%TO.P,U1,8*%
%TO.N,Net-(C5-Pad2)*%
X94765000Y-77010000D03*
%TO.P,U1,9,-*%
%TO.N,Net-(U1C--)*%
X94765000Y-75740000D03*
%TO.P,U1,10,+*%
%TO.N,Net-(U1A-+)*%
X94765000Y-74470000D03*
%TO.P,U1,11,V-*%
%TO.N,Net-(D1-A)*%
X94765000Y-73200000D03*
%TO.P,U1,12,+*%
%TO.N,Net-(U1A-+)*%
X94765000Y-71930000D03*
%TO.P,U1,13,-*%
%TO.N,Net-(U1D--)*%
X94765000Y-70660000D03*
%TO.P,U1,14*%
%TO.N,Net-(C6-Pad2)*%
X94765000Y-69390000D03*
%TD*%
D13*
%TO.P,C10,1*%
%TO.N,Net-(U2B--)*%
X105040000Y-135125000D03*
%TO.P,C10,2*%
%TO.N,Net-(C10-Pad2)*%
X105040000Y-137200000D03*
%TD*%
D17*
%TO.P,R3,1*%
%TO.N,Net-(U1B--)*%
X103240000Y-79100000D03*
%TO.P,R3,2*%
%TO.N,Net-(C4-Pad2)*%
X103240000Y-81100000D03*
%TD*%
%TO.P,R4,1*%
%TO.N,Net-(U1C--)*%
X91440000Y-79100000D03*
%TO.P,R4,2*%
%TO.N,Net-(C5-Pad2)*%
X91440000Y-81100000D03*
%TD*%
D16*
%TO.P,R15,1*%
%TO.N,Net-(C9-Pad2)*%
X108340000Y-114200000D03*
%TO.P,R15,2*%
%TO.N,Net-(J8-PadT)*%
X108340000Y-112200000D03*
%TD*%
D18*
%TO.P,C8,1*%
%TO.N,Net-(D2-K)*%
X101902500Y-129800000D03*
%TO.P,C8,2*%
%TO.N,GND*%
X103977500Y-129800000D03*
%TD*%
D12*
%TO.P,R1,1*%
%TO.N,Net-(J1-PadT)*%
X93240000Y-57000000D03*
%TO.P,R1,2*%
%TO.N,Net-(U1A-+)*%
X95240000Y-57000000D03*
%TD*%
D14*
%TO.P,C12,1*%
%TO.N,Net-(U2D--)*%
X89340000Y-123400000D03*
%TO.P,C12,2*%
%TO.N,Net-(C12-Pad2)*%
X89340000Y-121325000D03*
%TD*%
D12*
%TO.P,R10,1*%
%TO.N,Net-(J7-PadT)*%
X89240000Y-109000000D03*
%TO.P,R10,2*%
%TO.N,Net-(U2A-+)*%
X91240000Y-109000000D03*
%TD*%
%TO.P,R9,1*%
%TO.N,Net-(C6-Pad2)*%
X99840000Y-90900000D03*
%TO.P,R9,2*%
%TO.N,Net-(J6-PadT)*%
X101840000Y-90900000D03*
%TD*%
%TO.P,R7,1*%
%TO.N,Net-(C4-Pad2)*%
X106240000Y-73200000D03*
%TO.P,R7,2*%
%TO.N,Net-(J4-PadT)*%
X108240000Y-73200000D03*
%TD*%
D17*
%TO.P,R13,1*%
%TO.N,Net-(U2C--)*%
X91440000Y-135800000D03*
%TO.P,R13,2*%
%TO.N,Net-(C11-Pad2)*%
X91440000Y-137800000D03*
%TD*%
D19*
%TO.P,D1,1,K*%
%TO.N,Net-(D1-K)*%
X86368234Y-100828234D03*
D20*
%TO.P,D1,2,A*%
%TO.N,Net-(D1-A)*%
X86368234Y-103368234D03*
%TD*%
D16*
%TO.P,R5,1*%
%TO.N,Net-(U1D--)*%
X91540000Y-68800000D03*
%TO.P,R5,2*%
%TO.N,Net-(C6-Pad2)*%
X91540000Y-66800000D03*
%TD*%
D21*
%TO.P,C14,1*%
%TO.N,Net-(D2-K)*%
X96540000Y-115600000D03*
D22*
%TO.P,C14,2*%
%TO.N,GND*%
X98040000Y-115600000D03*
%TD*%
D12*
%TO.P,R6,1*%
%TO.N,Net-(C3-Pad2)*%
X99440000Y-56900000D03*
%TO.P,R6,2*%
%TO.N,Net-(J3-PadT)*%
X101440000Y-56900000D03*
%TD*%
D17*
%TO.P,R12,1*%
%TO.N,Net-(U2B--)*%
X102640000Y-135200000D03*
%TO.P,R12,2*%
%TO.N,Net-(C10-Pad2)*%
X102640000Y-137200000D03*
%TD*%
D23*
%TO.P,R16,1*%
%TO.N,Net-(C10-Pad2)*%
X109340000Y-127000000D03*
%TO.P,R16,2*%
%TO.N,Net-(J9-PadT)*%
X107340000Y-127000000D03*
%TD*%
D13*
%TO.P,C5,1*%
%TO.N,Net-(U1C--)*%
X89340000Y-79062500D03*
%TO.P,C5,2*%
%TO.N,Net-(C5-Pad2)*%
X89340000Y-81137500D03*
%TD*%
D12*
%TO.P,R17,1*%
%TO.N,Net-(C11-Pad2)*%
X99340000Y-141000000D03*
%TO.P,R17,2*%
%TO.N,Net-(J10-PadT)*%
X101340000Y-141000000D03*
%TD*%
D21*
%TO.P,C13,1*%
%TO.N,GND*%
X97862599Y-88099998D03*
D22*
%TO.P,C13,2*%
%TO.N,Net-(D1-A)*%
X96362599Y-88099998D03*
%TD*%
D16*
%TO.P,R11,1*%
%TO.N,Net-(U2A--)*%
X102840000Y-124400000D03*
%TO.P,R11,2*%
%TO.N,Net-(C9-Pad2)*%
X102840000Y-122400000D03*
%TD*%
D14*
%TO.P,C3,1*%
%TO.N,Net-(U1A--)*%
X104940000Y-68937500D03*
%TO.P,C3,2*%
%TO.N,Net-(C3-Pad2)*%
X104940000Y-66862500D03*
%TD*%
D24*
%TO.P,J2,1,Pin_1*%
%TO.N,Net-(D1-K)*%
X92160000Y-100730000D03*
%TO.P,J2,2,Pin_2*%
X92160000Y-103270000D03*
%TO.P,J2,3,Pin_3*%
%TO.N,GND*%
X94700000Y-100730000D03*
%TO.P,J2,4,Pin_4*%
X94700000Y-103270000D03*
%TO.P,J2,5,Pin_5*%
X97240000Y-100730000D03*
%TO.P,J2,6,Pin_6*%
X97240000Y-103270000D03*
%TO.P,J2,7,Pin_7*%
X99780000Y-100730000D03*
%TO.P,J2,8,Pin_8*%
X99780000Y-103270000D03*
%TO.P,J2,9,Pin_9*%
%TO.N,Net-(D2-A)*%
X102320000Y-100730000D03*
%TO.P,J2,10,Pin_10*%
X102320000Y-103270000D03*
%TD*%
D12*
%TO.P,R18,1*%
%TO.N,Net-(C12-Pad2)*%
X103240000Y-151000000D03*
%TO.P,R18,2*%
%TO.N,Net-(J11-PadT)*%
X105240000Y-151000000D03*
%TD*%
D19*
%TO.P,D2,1,K*%
%TO.N,Net-(D2-K)*%
X108368234Y-100728234D03*
D20*
%TO.P,D2,2,A*%
%TO.N,Net-(D2-A)*%
X108368234Y-103268234D03*
%TD*%
D16*
%TO.P,R2,1*%
%TO.N,Net-(U1A--)*%
X102840000Y-68900000D03*
%TO.P,R2,2*%
%TO.N,Net-(C3-Pad2)*%
X102840000Y-66900000D03*
%TD*%
D18*
%TO.P,C1,1*%
%TO.N,GND*%
X90502500Y-73200000D03*
%TO.P,C1,2*%
%TO.N,Net-(D1-A)*%
X92577500Y-73200000D03*
%TD*%
%TO.P,C7,1*%
%TO.N,GND*%
X90602500Y-129700000D03*
%TO.P,C7,2*%
%TO.N,Net-(D1-A)*%
X92677500Y-129700000D03*
%TD*%
%TO.P,C2,1*%
%TO.N,Net-(D2-K)*%
X102002500Y-73200000D03*
%TO.P,C2,2*%
%TO.N,GND*%
X104077500Y-73200000D03*
%TD*%
D13*
%TO.P,C4,1*%
%TO.N,Net-(U1B--)*%
X105340000Y-79062500D03*
%TO.P,C4,2*%
%TO.N,Net-(C4-Pad2)*%
X105340000Y-81137500D03*
%TD*%
D25*
%TO.N,Net-(D1-A)*%
X96340000Y-74300000D03*
X96390000Y-128700544D03*
%TO.N,GND*%
X105840000Y-109000000D03*
X107240000Y-125000000D03*
X108840000Y-130700000D03*
X104240000Y-88500000D03*
X97140000Y-59400000D03*
X103340000Y-52300000D03*
X97540000Y-66200000D03*
X90040000Y-144400000D03*
X97040000Y-105700000D03*
X104540000Y-101500000D03*
X105440000Y-130500000D03*
X92440000Y-88800000D03*
X97940000Y-135200000D03*
X88140000Y-107200000D03*
X87240000Y-63400000D03*
X87140000Y-130400000D03*
X105440000Y-65000000D03*
X89340000Y-52700000D03*
X101640000Y-97800000D03*
X93740000Y-153900000D03*
X97140000Y-110700000D03*
X97240000Y-139000000D03*
X98940000Y-144900000D03*
X96740000Y-52300000D03*
X105740000Y-59600000D03*
X88440000Y-59600000D03*
X90140000Y-124800000D03*
X90140000Y-101900000D03*
X93140000Y-115700000D03*
X85940000Y-126100000D03*
X107540000Y-139600000D03*
X106440000Y-94100000D03*
X104840000Y-144500000D03*
X89440000Y-93600000D03*
X89040000Y-129800000D03*
X101640000Y-153500000D03*
X101340000Y-115700000D03*
X97940000Y-123600000D03*
X96440000Y-132700000D03*
X92340000Y-96200000D03*
X90440000Y-75100000D03*
X97540000Y-83900000D03*
X94240000Y-144700000D03*
X86540000Y-74700000D03*
X97240000Y-97900000D03*
X107040000Y-83600000D03*
%TO.N,Net-(D2-K)*%
X97680536Y-128210522D03*
X97940000Y-74400000D03*
%TO.N,Net-(U1A-+)*%
X100640000Y-82500000D03*
X98140000Y-71900000D03*
X100940000Y-88900000D03*
X96340000Y-71900000D03*
%TO.N,Net-(U2A-+)*%
X96140000Y-130900000D03*
X98340000Y-130900000D03*
%TD*%
D26*
%TO.N,Net-(J11-PadT)*%
X105240000Y-151000000D02*
X105240000Y-154050000D01*
X105240000Y-154050000D02*
X104240000Y-155050000D01*
%TO.N,Net-(D1-A)*%
X92577500Y-73200000D02*
X94765000Y-73200000D01*
X95240000Y-73200000D02*
X96340000Y-74300000D01*
X94765000Y-129677500D02*
X95413044Y-129677500D01*
X95413044Y-129677500D02*
X96390000Y-128700544D01*
X94765000Y-129677500D02*
X92700000Y-129677500D01*
X94765000Y-73200000D02*
X95240000Y-73200000D01*
X92700000Y-129677500D02*
X92677500Y-129700000D01*
%TO.N,Net-(D2-K)*%
X99715000Y-129677500D02*
X99147514Y-129677500D01*
X99715000Y-73200000D02*
X99140000Y-73200000D01*
X102002500Y-73200000D02*
X99715000Y-73200000D01*
X99140000Y-73200000D02*
X97940000Y-74400000D01*
X99147514Y-129677500D02*
X97680536Y-128210522D01*
X99837500Y-129800000D02*
X99715000Y-129677500D01*
X101902500Y-129800000D02*
X99837500Y-129800000D01*
%TO.N,Net-(C3-Pad2)*%
X102432000Y-59892000D02*
X99440000Y-56900000D01*
X102432000Y-66492000D02*
X102432000Y-59892000D01*
X102205000Y-66900000D02*
X102840000Y-66900000D01*
X104940000Y-66862500D02*
X102877500Y-66862500D01*
X102877500Y-66862500D02*
X102840000Y-66900000D01*
X99715000Y-69390000D02*
X102205000Y-66900000D01*
X102840000Y-66900000D02*
X102432000Y-66492000D01*
%TO.N,Net-(U1A--)*%
X99715000Y-70660000D02*
X101080000Y-70660000D01*
X101080000Y-70660000D02*
X102840000Y-68900000D01*
X102877500Y-68937500D02*
X102840000Y-68900000D01*
X104940000Y-68937500D02*
X102877500Y-68937500D01*
%TO.N,Net-(U1B--)*%
X100480000Y-75740000D02*
X99715000Y-75740000D01*
X105340000Y-79062500D02*
X103277500Y-79062500D01*
X103240000Y-78500000D02*
X100480000Y-75740000D01*
X103277500Y-79062500D02*
X103240000Y-79100000D01*
X103240000Y-79100000D02*
X103240000Y-78500000D01*
%TO.N,Net-(C4-Pad2)*%
X106365000Y-73325000D02*
X106365000Y-80112500D01*
X105340000Y-81137500D02*
X103692756Y-81137500D01*
X102240000Y-78560001D02*
X102240000Y-80100000D01*
X106240000Y-73200000D02*
X106365000Y-73325000D01*
X106240000Y-73200000D02*
X105745419Y-73200000D01*
X100689999Y-77010000D02*
X102240000Y-78560001D01*
X99715000Y-77010000D02*
X100689999Y-77010000D01*
X106365000Y-80112500D02*
X105340000Y-81137500D01*
X102240000Y-80100000D02*
X103240000Y-81100000D01*
%TO.N,Net-(C5-Pad2)*%
X94230000Y-77010000D02*
X94765000Y-77010000D01*
X96495419Y-85100000D02*
X92495419Y-81100000D01*
X92640000Y-78600000D02*
X94230000Y-77010000D01*
X99340000Y-85100000D02*
X96495419Y-85100000D01*
X89340000Y-81137500D02*
X90987244Y-81137500D01*
X92640000Y-79484744D02*
X92640000Y-78600000D01*
X90987244Y-81137500D02*
X92640000Y-79484744D01*
X92495419Y-81100000D02*
X91440000Y-81100000D01*
%TO.N,Net-(U1C--)*%
X94419448Y-75740000D02*
X94765000Y-75740000D01*
X91096948Y-79062500D02*
X94419448Y-75740000D01*
X89340000Y-79062500D02*
X91096948Y-79062500D01*
%TO.N,Net-(U1D--)*%
X94765000Y-70660000D02*
X93790001Y-70660000D01*
X91967501Y-68837500D02*
X89440000Y-68837500D01*
X93790001Y-70660000D02*
X91967501Y-68837500D01*
%TO.N,Net-(C6-Pad2)*%
X89477500Y-66800000D02*
X89440000Y-66762500D01*
X100240000Y-90500000D02*
X99840000Y-90900000D01*
X91540000Y-66800000D02*
X89477500Y-66800000D01*
X94765000Y-69390000D02*
X95739999Y-69390000D01*
X97340000Y-70990001D02*
X97340000Y-81515256D01*
X92175000Y-66800000D02*
X91540000Y-66800000D01*
X94765000Y-69390000D02*
X92175000Y-66800000D01*
X100240000Y-84415256D02*
X100240000Y-90500000D01*
X95739999Y-69390000D02*
X97340000Y-70990001D01*
X97340000Y-81515256D02*
X100240000Y-84415256D01*
%TO.N,Net-(U2A--)*%
X102940000Y-124400000D02*
X102977500Y-124437500D01*
X102840000Y-124987499D02*
X102840000Y-124400000D01*
X102977500Y-124437500D02*
X104940000Y-124437500D01*
X100689999Y-127137500D02*
X102840000Y-124987499D01*
X99715000Y-127137500D02*
X100689999Y-127137500D01*
X102840000Y-124400000D02*
X102940000Y-124400000D01*
%TO.N,Net-(C9-Pad2)*%
X103220000Y-122362500D02*
X99715000Y-125867500D01*
X104940000Y-122362500D02*
X103220000Y-122362500D01*
X104940000Y-122362500D02*
X108340000Y-118962500D01*
X108340000Y-118962500D02*
X108340000Y-114200000D01*
X104940000Y-122362500D02*
X102877500Y-122362500D01*
X102877500Y-122362500D02*
X102840000Y-122400000D01*
%TO.N,Net-(U2B--)*%
X102968052Y-135125000D02*
X100060552Y-132217500D01*
X102715000Y-135125000D02*
X102640000Y-135200000D01*
X105040000Y-135125000D02*
X102715000Y-135125000D01*
X105040000Y-135125000D02*
X102968052Y-135125000D01*
X100060552Y-132217500D02*
X99715000Y-132217500D01*
%TO.N,Net-(C10-Pad2)*%
X105040000Y-137200000D02*
X106736000Y-135504000D01*
X99415000Y-137119581D02*
X100253419Y-137958000D01*
X99715000Y-133487500D02*
X99415000Y-133787500D01*
X101882000Y-137958000D02*
X102640000Y-137200000D01*
X99415000Y-133787500D02*
X99415000Y-137119581D01*
X106736000Y-129604000D02*
X109340000Y-127000000D01*
X105040000Y-137200000D02*
X102640000Y-137200000D01*
X100253419Y-137958000D02*
X101882000Y-137958000D01*
X106736000Y-135504000D02*
X106736000Y-129604000D01*
%TO.N,Net-(U2C--)*%
X89240000Y-135725000D02*
X90911948Y-135725000D01*
X94419448Y-132217500D02*
X94765000Y-132217500D01*
X90911948Y-135725000D02*
X94419448Y-132217500D01*
%TO.N,Net-(C11-Pad2)*%
X94640000Y-141000000D02*
X91440000Y-137800000D01*
X99340000Y-141000000D02*
X94640000Y-141000000D01*
X89240000Y-137800000D02*
X91440000Y-137800000D01*
X93852500Y-133487500D02*
X94765000Y-133487500D01*
X92736000Y-136504000D02*
X92736000Y-134604000D01*
X92736000Y-134604000D02*
X93852500Y-133487500D01*
X91440000Y-137800000D02*
X92736000Y-136504000D01*
%TO.N,Net-(U2D--)*%
X91440000Y-124787499D02*
X91440000Y-123400000D01*
X94765000Y-127137500D02*
X93790001Y-127137500D01*
X93790001Y-127137500D02*
X91440000Y-124787499D01*
X91440000Y-123400000D02*
X89340000Y-123400000D01*
%TO.N,Net-(C12-Pad2)*%
X94765000Y-125867500D02*
X95739999Y-125867500D01*
X92440000Y-123542500D02*
X92440000Y-122400000D01*
X92736000Y-122696000D02*
X91365000Y-121325000D01*
X97040000Y-136915256D02*
X100440000Y-140315256D01*
X91365000Y-121325000D02*
X89340000Y-121325000D01*
X103240000Y-150300000D02*
X103240000Y-151000000D01*
X92736000Y-123838500D02*
X92736000Y-122696000D01*
X100440000Y-147500000D02*
X103240000Y-150300000D01*
X94765000Y-125867500D02*
X92440000Y-123542500D01*
X95739999Y-125867500D02*
X97040000Y-127167501D01*
X94765000Y-125867500D02*
X92736000Y-123838500D01*
X92440000Y-122400000D02*
X91440000Y-121400000D01*
X100440000Y-140315256D02*
X100440000Y-147500000D01*
X97040000Y-127167501D02*
X97040000Y-136915256D01*
%TO.N,Net-(D1-K)*%
X86466468Y-100730000D02*
X86368234Y-100828234D01*
X92160000Y-100730000D02*
X86466468Y-100730000D01*
%TO.N,Net-(D2-A)*%
X102320000Y-103270000D02*
X108366468Y-103270000D01*
X108366468Y-103270000D02*
X108368234Y-103268234D01*
%TO.N,Net-(J1-PadT)*%
X93240000Y-57000000D02*
X90290000Y-57000000D01*
X90290000Y-57000000D02*
X90240000Y-57050000D01*
%TO.N,Net-(J3-PadT)*%
X104090000Y-56900000D02*
X104240000Y-57050000D01*
X101440000Y-56900000D02*
X104090000Y-56900000D01*
%TO.N,Net-(J4-PadT)*%
X108240000Y-73200000D02*
X106090000Y-71050000D01*
X106090000Y-71050000D02*
X104240000Y-71050000D01*
%TO.N,Net-(J5-PadT)*%
X101340000Y-85100000D02*
X104190000Y-85100000D01*
X104190000Y-85100000D02*
X104240000Y-85050000D01*
%TO.N,Net-(J6-PadT)*%
X101840000Y-93350000D02*
X100190000Y-95000000D01*
X101840000Y-90900000D02*
X101840000Y-93350000D01*
%TO.N,Net-(J7-PadT)*%
X89240000Y-109000000D02*
X86190000Y-109000000D01*
%TO.N,Net-(U1A-+)*%
X89001256Y-69996000D02*
X91936000Y-69996000D01*
X100740000Y-82500000D02*
X100640000Y-82500000D01*
X103140000Y-73659744D02*
X102329744Y-74470000D01*
X100940000Y-91384744D02*
X100940000Y-90215256D01*
X96340000Y-71900000D02*
X96310000Y-71930000D01*
X100640000Y-82500000D02*
X98440000Y-80300000D01*
X98140000Y-71900000D02*
X98110000Y-71930000D01*
X92210000Y-74470000D02*
X94765000Y-74470000D01*
X91090000Y-105450000D02*
X91606346Y-105450000D01*
X98740001Y-74470000D02*
X99715000Y-74470000D01*
X98440000Y-80300000D02*
X98440000Y-74770001D01*
X88415000Y-66190256D02*
X88415000Y-69409744D01*
X93310000Y-99014744D02*
X100940000Y-91384744D01*
X91540000Y-73800000D02*
X92210000Y-74470000D01*
X98440000Y-74770001D02*
X98740001Y-74470000D01*
X95240000Y-60784744D02*
X90149744Y-65875000D01*
X91936000Y-69996000D02*
X93870000Y-71930000D01*
X94765000Y-71930000D02*
X91950256Y-71930000D01*
X96370000Y-71930000D02*
X96340000Y-71900000D01*
X93310000Y-103746346D02*
X93310000Y-99014744D01*
X100940000Y-90215256D02*
X100940000Y-88900000D01*
X90149744Y-65875000D02*
X88730256Y-65875000D01*
X91540000Y-72340256D02*
X91540000Y-73800000D01*
X91950256Y-71930000D02*
X91540000Y-72340256D01*
X102570000Y-71930000D02*
X103140000Y-72500000D01*
X99715000Y-71930000D02*
X102570000Y-71930000D01*
X102329744Y-74470000D02*
X99715000Y-74470000D01*
X93870000Y-71930000D02*
X94765000Y-71930000D01*
X98170000Y-71930000D02*
X98140000Y-71900000D01*
X96310000Y-71930000D02*
X94765000Y-71930000D01*
X99715000Y-71930000D02*
X98170000Y-71930000D01*
X103140000Y-72500000D02*
X103140000Y-73659744D01*
X100940000Y-88900000D02*
X100940000Y-89000000D01*
X88730256Y-65875000D02*
X88415000Y-66190256D01*
X95240000Y-57000000D02*
X95240000Y-60784744D01*
X91606346Y-105450000D02*
X93310000Y-103746346D01*
X95110552Y-71930000D02*
X94765000Y-71930000D01*
X88415000Y-69409744D02*
X89001256Y-69996000D01*
%TO.N,Net-(J8-PadT)*%
X108340000Y-112200000D02*
X108340000Y-109050000D01*
X108340000Y-109050000D02*
X108290000Y-109000000D01*
%TO.N,Net-(J9-PadT)*%
X104290000Y-127000000D02*
X104240000Y-127050000D01*
X107340000Y-127000000D02*
X104290000Y-127000000D01*
%TO.N,Net-(J10-PadT)*%
X104190000Y-141000000D02*
X104240000Y-141050000D01*
X101340000Y-141000000D02*
X104190000Y-141000000D01*
%TO.N,Net-(U2A-+)*%
X98387500Y-130947500D02*
X99715000Y-130947500D01*
X93847500Y-128407500D02*
X94765000Y-128407500D01*
X92372756Y-128407500D02*
X94765000Y-128407500D01*
X87744000Y-112496000D02*
X87744000Y-124004000D01*
X91790000Y-130409744D02*
X91790000Y-128990256D01*
X91436000Y-125996000D02*
X93847500Y-128407500D01*
X87744000Y-124004000D02*
X89736000Y-125996000D01*
X89736000Y-125996000D02*
X91436000Y-125996000D01*
X102790000Y-129090256D02*
X102107244Y-128407500D01*
X102352244Y-130947500D02*
X102790000Y-130509744D01*
X96140000Y-130900000D02*
X96187500Y-130947500D01*
X102107244Y-128407500D02*
X99715000Y-128407500D01*
X94765000Y-130947500D02*
X92327756Y-130947500D01*
X96092500Y-130947500D02*
X96140000Y-130900000D01*
X91240000Y-109000000D02*
X87744000Y-112496000D01*
X95739999Y-128407500D02*
X94765000Y-128407500D01*
X91790000Y-128990256D02*
X92372756Y-128407500D01*
X92327756Y-130947500D02*
X91790000Y-130409744D01*
X98340000Y-130900000D02*
X98387500Y-130947500D01*
X99715000Y-130947500D02*
X102352244Y-130947500D01*
X94765000Y-130947500D02*
X96092500Y-130947500D01*
X98292500Y-130947500D02*
X98340000Y-130900000D01*
X102790000Y-130509744D02*
X102790000Y-129090256D01*
%TD*%
%TA.AperFunction,Conductor*%
%TO.N,GND*%
G36*
X88126738Y-109620185D02*
G01*
X88172493Y-109672989D01*
X88177403Y-109685492D01*
X88205186Y-109769334D01*
X88297288Y-109918656D01*
X88421344Y-110042712D01*
X88570666Y-110134814D01*
X88737203Y-110189999D01*
X88839991Y-110200500D01*
X88890901Y-110200499D01*
X88957939Y-110220182D01*
X89003694Y-110272985D01*
X89013639Y-110342144D01*
X88984615Y-110405700D01*
X88978582Y-110412180D01*
X87375286Y-112015478D01*
X87263481Y-112127282D01*
X87263480Y-112127284D01*
X87217521Y-112206889D01*
X87213361Y-112214094D01*
X87213359Y-112214096D01*
X87184425Y-112264209D01*
X87184424Y-112264210D01*
X87184423Y-112264215D01*
X87143499Y-112416943D01*
X87143499Y-112416945D01*
X87143499Y-112585046D01*
X87143500Y-112585059D01*
X87143500Y-120053620D01*
X87123815Y-120120659D01*
X87071011Y-120166414D01*
X87001853Y-120176358D01*
X86988568Y-120173268D01*
X86988506Y-120173528D01*
X86983766Y-120172390D01*
X86788736Y-120141500D01*
X86788731Y-120141500D01*
X86591269Y-120141500D01*
X86591264Y-120141500D01*
X86396236Y-120172389D01*
X86208441Y-120233408D01*
X86208439Y-120233408D01*
X86208439Y-120233409D01*
X86180782Y-120247501D01*
X86032495Y-120323058D01*
X85872753Y-120439115D01*
X85733115Y-120578753D01*
X85617058Y-120738495D01*
X85527408Y-120914441D01*
X85466389Y-121102236D01*
X85435500Y-121297263D01*
X85435500Y-123002736D01*
X85466389Y-123197763D01*
X85527107Y-123384632D01*
X85527409Y-123385561D01*
X85617056Y-123561501D01*
X85617058Y-123561504D01*
X85733115Y-123721246D01*
X85872753Y-123860884D01*
X86022234Y-123969486D01*
X86032499Y-123976944D01*
X86208439Y-124066591D01*
X86333637Y-124107270D01*
X86396236Y-124127610D01*
X86591264Y-124158500D01*
X86591269Y-124158500D01*
X86788736Y-124158500D01*
X86897082Y-124141338D01*
X86983763Y-124127610D01*
X87017414Y-124116675D01*
X87087253Y-124114679D01*
X87147086Y-124150759D01*
X87175506Y-124202510D01*
X87184422Y-124235783D01*
X87184423Y-124235785D01*
X87198594Y-124260330D01*
X87213358Y-124285900D01*
X87213359Y-124285904D01*
X87213360Y-124285904D01*
X87258108Y-124363412D01*
X87263479Y-124372714D01*
X87263481Y-124372717D01*
X87382349Y-124491585D01*
X87382355Y-124491590D01*
X88748611Y-125857846D01*
X88782096Y-125919169D01*
X88777112Y-125988861D01*
X88735240Y-126044794D01*
X88733816Y-126045844D01*
X88668756Y-126093113D01*
X88668749Y-126093119D01*
X88529115Y-126232753D01*
X88413058Y-126392495D01*
X88323408Y-126568441D01*
X88262389Y-126756236D01*
X88231500Y-126951263D01*
X88231500Y-127148736D01*
X88262389Y-127343763D01*
X88315173Y-127506213D01*
X88323409Y-127531561D01*
X88411515Y-127704476D01*
X88413058Y-127707504D01*
X88529115Y-127867246D01*
X88668753Y-128006884D01*
X88818234Y-128115486D01*
X88828499Y-128122944D01*
X89004439Y-128212591D01*
X89118188Y-128249550D01*
X89192236Y-128273610D01*
X89387264Y-128304500D01*
X89892959Y-128304500D01*
X89959998Y-128324185D01*
X90005753Y-128376989D01*
X90015697Y-128446147D01*
X89986672Y-128509703D01*
X89951604Y-128536169D01*
X89952025Y-128536851D01*
X89796654Y-128632684D01*
X89672684Y-128756654D01*
X89580643Y-128905875D01*
X89580641Y-128905880D01*
X89525494Y-129072302D01*
X89525493Y-129072309D01*
X89515000Y-129175013D01*
X89515000Y-129450000D01*
X90728500Y-129450000D01*
X90795539Y-129469685D01*
X90841294Y-129522489D01*
X90852500Y-129574000D01*
X90852500Y-130924999D01*
X90989972Y-130924999D01*
X90989986Y-130924998D01*
X91092697Y-130914505D01*
X91259119Y-130859358D01*
X91265670Y-130856304D01*
X91266514Y-130858116D01*
X91324229Y-130842315D01*
X91390896Y-130863227D01*
X91409633Y-130878613D01*
X91428349Y-130897329D01*
X91428355Y-130897334D01*
X91842895Y-131311874D01*
X91842905Y-131311885D01*
X91847235Y-131316215D01*
X91847236Y-131316216D01*
X91959040Y-131428020D01*
X92045851Y-131478139D01*
X92045853Y-131478141D01*
X92083907Y-131500111D01*
X92095971Y-131507077D01*
X92248699Y-131548001D01*
X92248702Y-131548001D01*
X92414409Y-131548001D01*
X92414425Y-131548000D01*
X93274093Y-131548000D01*
X93341132Y-131567685D01*
X93386887Y-131620489D01*
X93396831Y-131689647D01*
X93380825Y-131735120D01*
X93338257Y-131807099D01*
X93338254Y-131807106D01*
X93292402Y-131964926D01*
X93292401Y-131964932D01*
X93289500Y-132001798D01*
X93289500Y-132433211D01*
X93289759Y-132436495D01*
X93275387Y-132504871D01*
X93253821Y-132533890D01*
X92425405Y-133362306D01*
X92364082Y-133395791D01*
X92294390Y-133390807D01*
X92238457Y-133348935D01*
X92214040Y-133283471D01*
X92216910Y-133248584D01*
X92216848Y-133248575D01*
X92216980Y-133247739D01*
X92217150Y-133245678D01*
X92217604Y-133243779D01*
X92217610Y-133243763D01*
X92241402Y-133093548D01*
X92248500Y-133048736D01*
X92248500Y-132851263D01*
X92217610Y-132656236D01*
X92184036Y-132552906D01*
X92156591Y-132468439D01*
X92066944Y-132292499D01*
X92059486Y-132282234D01*
X91950884Y-132132753D01*
X91811246Y-131993115D01*
X91651504Y-131877058D01*
X91651503Y-131877057D01*
X91651501Y-131877056D01*
X91475561Y-131787409D01*
X91426029Y-131771315D01*
X91287763Y-131726389D01*
X91092736Y-131695500D01*
X91092731Y-131695500D01*
X89387269Y-131695500D01*
X89387264Y-131695500D01*
X89192236Y-131726389D01*
X89004441Y-131787408D01*
X88828495Y-131877058D01*
X88668753Y-131993115D01*
X88529115Y-132132753D01*
X88413058Y-132292495D01*
X88323408Y-132468441D01*
X88262389Y-132656236D01*
X88231500Y-132851263D01*
X88231500Y-133048736D01*
X88262389Y-133243763D01*
X88312535Y-133398094D01*
X88323409Y-133431561D01*
X88344500Y-133472953D01*
X88413058Y-133607504D01*
X88529115Y-133767246D01*
X88668753Y-133906884D01*
X88818234Y-134015486D01*
X88828499Y-134022944D01*
X89004439Y-134112591D01*
X89129637Y-134153270D01*
X89192236Y-134173610D01*
X89387264Y-134204500D01*
X89387269Y-134204500D01*
X91092736Y-134204500D01*
X91181381Y-134190459D01*
X91287763Y-134173610D01*
X91287779Y-134173604D01*
X91289678Y-134173150D01*
X91290430Y-134173187D01*
X91292575Y-134172848D01*
X91292646Y-134173298D01*
X91359460Y-134176641D01*
X91416278Y-134217305D01*
X91442091Y-134282231D01*
X91428705Y-134350806D01*
X91406306Y-134381405D01*
X91124530Y-134663181D01*
X91063207Y-134696666D01*
X91036850Y-134699500D01*
X90939999Y-134699500D01*
X90939980Y-134699501D01*
X90837203Y-134710000D01*
X90837200Y-134710001D01*
X90670668Y-134765185D01*
X90670663Y-134765187D01*
X90521342Y-134857289D01*
X90471431Y-134907201D01*
X90410108Y-134940686D01*
X90340416Y-134935702D01*
X90296069Y-134907201D01*
X90183657Y-134794789D01*
X90183656Y-134794788D01*
X90034334Y-134702686D01*
X89867797Y-134647501D01*
X89867795Y-134647500D01*
X89765010Y-134637000D01*
X88714998Y-134637000D01*
X88714980Y-134637001D01*
X88612203Y-134647500D01*
X88612200Y-134647501D01*
X88445668Y-134702685D01*
X88445663Y-134702687D01*
X88296342Y-134794789D01*
X88172289Y-134918842D01*
X88104500Y-135028746D01*
X88052552Y-135075471D01*
X87983589Y-135086692D01*
X87919507Y-135058849D01*
X87881030Y-135001967D01*
X87852591Y-134914439D01*
X87762944Y-134738499D01*
X87742239Y-134710001D01*
X87646884Y-134578753D01*
X87507246Y-134439115D01*
X87347504Y-134323058D01*
X87347503Y-134323057D01*
X87347501Y-134323056D01*
X87171561Y-134233409D01*
X87171558Y-134233408D01*
X86983763Y-134172389D01*
X86788736Y-134141500D01*
X86788731Y-134141500D01*
X86591269Y-134141500D01*
X86591264Y-134141500D01*
X86396236Y-134172389D01*
X86208441Y-134233408D01*
X86032495Y-134323058D01*
X85872753Y-134439115D01*
X85733115Y-134578753D01*
X85617058Y-134738495D01*
X85527408Y-134914441D01*
X85466389Y-135102236D01*
X85435500Y-135297263D01*
X85435500Y-137002736D01*
X85466389Y-137197763D01*
X85494401Y-137283973D01*
X85527409Y-137385561D01*
X85617056Y-137561501D01*
X85617058Y-137561504D01*
X85733115Y-137721246D01*
X85872753Y-137860884D01*
X86022234Y-137969486D01*
X86032499Y-137976944D01*
X86208439Y-138066591D01*
X86333637Y-138107270D01*
X86396236Y-138127610D01*
X86591264Y-138158500D01*
X86591269Y-138158500D01*
X86788736Y-138158500D01*
X86983763Y-138127610D01*
X86987918Y-138126260D01*
X87171561Y-138066591D01*
X87347501Y-137976944D01*
X87495615Y-137869334D01*
X87507246Y-137860884D01*
X87507248Y-137860881D01*
X87507252Y-137860879D01*
X87646879Y-137721252D01*
X87646881Y-137721248D01*
X87646884Y-137721246D01*
X87762943Y-137561502D01*
X87763076Y-137561242D01*
X87780015Y-137527996D01*
X87827988Y-137477201D01*
X87895809Y-137460405D01*
X87961944Y-137482942D01*
X88005396Y-137537656D01*
X88014500Y-137584291D01*
X88014500Y-138187501D01*
X88014501Y-138187519D01*
X88025000Y-138290296D01*
X88025001Y-138290299D01*
X88074117Y-138438518D01*
X88080186Y-138456834D01*
X88172288Y-138606156D01*
X88296344Y-138730212D01*
X88445666Y-138822314D01*
X88612203Y-138877499D01*
X88714991Y-138888000D01*
X89765008Y-138887999D01*
X89765016Y-138887998D01*
X89765019Y-138887998D01*
X89821302Y-138882248D01*
X89867797Y-138877499D01*
X90034334Y-138822314D01*
X90183656Y-138730212D01*
X90258569Y-138655299D01*
X90319892Y-138621814D01*
X90389584Y-138626798D01*
X90433931Y-138655299D01*
X90521344Y-138742712D01*
X90670666Y-138834814D01*
X90837203Y-138889999D01*
X90939991Y-138900500D01*
X91639902Y-138900499D01*
X91706941Y-138920183D01*
X91727583Y-138936818D01*
X94155139Y-141364374D01*
X94155149Y-141364385D01*
X94159479Y-141368715D01*
X94159480Y-141368716D01*
X94271284Y-141480520D01*
X94271286Y-141480521D01*
X94271290Y-141480524D01*
X94359685Y-141531558D01*
X94408216Y-141559577D01*
X94520019Y-141589534D01*
X94560942Y-141600500D01*
X94560943Y-141600500D01*
X98159699Y-141600500D01*
X98226738Y-141620185D01*
X98272493Y-141672989D01*
X98277403Y-141685492D01*
X98305186Y-141769334D01*
X98397288Y-141918656D01*
X98521344Y-142042712D01*
X98670666Y-142134814D01*
X98837203Y-142189999D01*
X98939991Y-142200500D01*
X99715500Y-142200499D01*
X99782539Y-142220183D01*
X99828294Y-142272987D01*
X99839500Y-142324499D01*
X99839500Y-147413330D01*
X99839499Y-147413348D01*
X99839499Y-147579054D01*
X99839498Y-147579054D01*
X99880424Y-147731789D01*
X99880425Y-147731790D01*
X99900899Y-147767251D01*
X99900900Y-147767252D01*
X99959477Y-147868712D01*
X99959481Y-147868717D01*
X100078349Y-147987585D01*
X100078355Y-147987590D01*
X100164426Y-148073661D01*
X100197911Y-148134984D01*
X100192927Y-148204676D01*
X100151055Y-148260609D01*
X100133041Y-148271826D01*
X100032497Y-148323056D01*
X99872753Y-148439115D01*
X99733115Y-148578753D01*
X99617058Y-148738495D01*
X99527408Y-148914441D01*
X99466389Y-149102236D01*
X99435500Y-149297263D01*
X99435500Y-151002736D01*
X99466389Y-151197763D01*
X99494356Y-151283835D01*
X99527409Y-151385561D01*
X99617056Y-151561501D01*
X99617058Y-151561504D01*
X99733115Y-151721246D01*
X99872753Y-151860884D01*
X100022234Y-151969486D01*
X100032499Y-151976944D01*
X100208439Y-152066591D01*
X100333637Y-152107270D01*
X100396236Y-152127610D01*
X100591264Y-152158500D01*
X100591269Y-152158500D01*
X100788736Y-152158500D01*
X100983763Y-152127610D01*
X100985262Y-152127123D01*
X101171561Y-152066591D01*
X101347501Y-151976944D01*
X101437192Y-151911779D01*
X101507246Y-151860884D01*
X101507248Y-151860881D01*
X101507252Y-151860879D01*
X101646879Y-151721252D01*
X101646881Y-151721248D01*
X101646884Y-151721246D01*
X101732939Y-151602799D01*
X101762944Y-151561501D01*
X101852591Y-151385561D01*
X101897570Y-151247127D01*
X101937006Y-151189455D01*
X102001365Y-151162256D01*
X102070211Y-151174170D01*
X102121687Y-151221414D01*
X102139500Y-151285447D01*
X102139500Y-151500000D01*
X102139501Y-151500019D01*
X102150000Y-151602796D01*
X102150001Y-151602799D01*
X102189143Y-151720919D01*
X102205186Y-151769334D01*
X102297288Y-151918656D01*
X102421344Y-152042712D01*
X102570666Y-152134814D01*
X102737203Y-152189999D01*
X102839991Y-152200500D01*
X103640008Y-152200499D01*
X103640016Y-152200498D01*
X103640019Y-152200498D01*
X103696302Y-152194748D01*
X103742797Y-152189999D01*
X103909334Y-152134814D01*
X104058656Y-152042712D01*
X104152319Y-151949049D01*
X104213642Y-151915564D01*
X104283334Y-151920548D01*
X104327681Y-151949049D01*
X104421344Y-152042712D01*
X104570666Y-152134814D01*
X104570667Y-152134814D01*
X104576813Y-152138605D01*
X104575706Y-152140399D01*
X104620337Y-152179687D01*
X104639500Y-152245908D01*
X104639500Y-153671500D01*
X104619815Y-153738539D01*
X104567011Y-153784294D01*
X104515500Y-153795500D01*
X103387264Y-153795500D01*
X103192236Y-153826389D01*
X103004441Y-153887408D01*
X102828495Y-153977058D01*
X102668753Y-154093115D01*
X102529115Y-154232753D01*
X102413058Y-154392495D01*
X102323408Y-154568441D01*
X102262389Y-154756236D01*
X102231500Y-154951263D01*
X102231500Y-155148736D01*
X102262389Y-155343763D01*
X102323408Y-155531558D01*
X102323409Y-155531561D01*
X102413056Y-155707501D01*
X102413058Y-155707504D01*
X102529115Y-155867246D01*
X102668753Y-156006884D01*
X102818234Y-156115486D01*
X102828499Y-156122944D01*
X103004439Y-156212591D01*
X103108495Y-156246400D01*
X103142867Y-156257569D01*
X103200543Y-156297007D01*
X103227741Y-156361365D01*
X103215826Y-156430212D01*
X103168582Y-156481687D01*
X103104549Y-156499500D01*
X91375451Y-156499500D01*
X91308412Y-156479815D01*
X91262657Y-156427011D01*
X91252713Y-156357853D01*
X91281738Y-156294297D01*
X91337133Y-156257569D01*
X91362114Y-156249451D01*
X91475561Y-156212591D01*
X91651501Y-156122944D01*
X91741192Y-156057779D01*
X91811246Y-156006884D01*
X91811248Y-156006881D01*
X91811252Y-156006879D01*
X91950879Y-155867252D01*
X91950881Y-155867248D01*
X91950884Y-155867246D01*
X92001779Y-155797192D01*
X92066944Y-155707501D01*
X92156591Y-155531561D01*
X92217610Y-155343763D01*
X92248500Y-155148736D01*
X92248500Y-154951263D01*
X92217610Y-154756236D01*
X92197270Y-154693637D01*
X92156591Y-154568439D01*
X92066944Y-154392499D01*
X92059486Y-154382234D01*
X91950884Y-154232753D01*
X91811246Y-154093115D01*
X91651504Y-153977058D01*
X91651503Y-153977057D01*
X91651501Y-153977056D01*
X91475561Y-153887409D01*
X91475558Y-153887408D01*
X91287763Y-153826389D01*
X91092736Y-153795500D01*
X91092731Y-153795500D01*
X89387269Y-153795500D01*
X89387264Y-153795500D01*
X89192236Y-153826389D01*
X89004441Y-153887408D01*
X88828495Y-153977058D01*
X88668753Y-154093115D01*
X88529115Y-154232753D01*
X88413058Y-154392495D01*
X88323408Y-154568441D01*
X88262389Y-154756236D01*
X88231500Y-154951263D01*
X88231500Y-155148736D01*
X88262389Y-155343763D01*
X88323408Y-155531558D01*
X88323409Y-155531561D01*
X88413056Y-155707501D01*
X88413058Y-155707504D01*
X88529115Y-155867246D01*
X88668753Y-156006884D01*
X88818234Y-156115486D01*
X88828499Y-156122944D01*
X89004439Y-156212591D01*
X89108495Y-156246400D01*
X89142867Y-156257569D01*
X89200543Y-156297007D01*
X89227741Y-156361365D01*
X89215826Y-156430212D01*
X89168582Y-156481687D01*
X89104549Y-156499500D01*
X84864500Y-156499500D01*
X84797461Y-156479815D01*
X84751706Y-156427011D01*
X84740500Y-156375500D01*
X84740500Y-149297263D01*
X85435500Y-149297263D01*
X85435500Y-151002736D01*
X85466389Y-151197763D01*
X85494356Y-151283835D01*
X85527409Y-151385561D01*
X85617056Y-151561501D01*
X85617058Y-151561504D01*
X85733115Y-151721246D01*
X85872753Y-151860884D01*
X86022234Y-151969486D01*
X86032499Y-151976944D01*
X86208439Y-152066591D01*
X86333637Y-152107270D01*
X86396236Y-152127610D01*
X86591264Y-152158500D01*
X86591269Y-152158500D01*
X86788736Y-152158500D01*
X86983763Y-152127610D01*
X86985262Y-152127123D01*
X87171561Y-152066591D01*
X87347501Y-151976944D01*
X87437192Y-151911779D01*
X87507246Y-151860884D01*
X87507248Y-151860881D01*
X87507252Y-151860879D01*
X87646879Y-151721252D01*
X87646881Y-151721248D01*
X87646884Y-151721246D01*
X87732939Y-151602799D01*
X87762944Y-151561501D01*
X87852591Y-151385561D01*
X87913610Y-151197763D01*
X87919234Y-151162256D01*
X87944500Y-151002736D01*
X87944500Y-149297302D01*
X92536000Y-149297302D01*
X92536000Y-149900000D01*
X93290000Y-149900000D01*
X93290000Y-150400000D01*
X92536000Y-150400000D01*
X92536000Y-151002697D01*
X92566876Y-151197646D01*
X92627873Y-151385373D01*
X92717485Y-151561242D01*
X92833496Y-151720919D01*
X92833500Y-151720924D01*
X92973075Y-151860499D01*
X92973080Y-151860503D01*
X93132757Y-151976514D01*
X93308626Y-152066126D01*
X93496355Y-152127123D01*
X93539999Y-152134034D01*
X93540000Y-152134034D01*
X93540000Y-151183012D01*
X93597007Y-151215925D01*
X93724174Y-151250000D01*
X93855826Y-151250000D01*
X93982993Y-151215925D01*
X94040000Y-151183012D01*
X94040000Y-152134034D01*
X94083644Y-152127123D01*
X94271373Y-152066126D01*
X94447242Y-151976514D01*
X94606919Y-151860503D01*
X94606924Y-151860499D01*
X94746499Y-151720924D01*
X94746503Y-151720919D01*
X94862514Y-151561242D01*
X94952126Y-151385373D01*
X95013123Y-151197646D01*
X95044000Y-151002697D01*
X95044000Y-150400000D01*
X94290000Y-150400000D01*
X94290000Y-149900000D01*
X95044000Y-149900000D01*
X95044000Y-149297302D01*
X95013123Y-149102353D01*
X94952126Y-148914626D01*
X94862514Y-148738757D01*
X94746503Y-148579080D01*
X94746499Y-148579075D01*
X94606924Y-148439500D01*
X94606919Y-148439496D01*
X94447242Y-148323485D01*
X94271371Y-148233873D01*
X94083642Y-148172876D01*
X94040000Y-148165963D01*
X94040000Y-149116988D01*
X93982993Y-149084075D01*
X93855826Y-149050000D01*
X93724174Y-149050000D01*
X93597007Y-149084075D01*
X93540000Y-149116988D01*
X93540000Y-148165963D01*
X93496357Y-148172876D01*
X93496356Y-148172876D01*
X93308628Y-148233873D01*
X93132757Y-148323485D01*
X92973080Y-148439496D01*
X92973075Y-148439500D01*
X92833500Y-148579075D01*
X92833496Y-148579080D01*
X92717485Y-148738757D01*
X92627873Y-148914626D01*
X92566876Y-149102353D01*
X92536000Y-149297302D01*
X87944500Y-149297302D01*
X87944500Y-149297263D01*
X87913610Y-149102236D01*
X87893270Y-149039637D01*
X87852591Y-148914439D01*
X87762944Y-148738499D01*
X87755486Y-148728234D01*
X87646884Y-148578753D01*
X87507246Y-148439115D01*
X87347504Y-148323058D01*
X87347503Y-148323057D01*
X87347501Y-148323056D01*
X87171561Y-148233409D01*
X87171558Y-148233408D01*
X86983763Y-148172389D01*
X86788736Y-148141500D01*
X86788731Y-148141500D01*
X86591269Y-148141500D01*
X86591264Y-148141500D01*
X86396236Y-148172389D01*
X86208441Y-148233408D01*
X86032495Y-148323058D01*
X85872753Y-148439115D01*
X85733115Y-148578753D01*
X85617058Y-148738495D01*
X85527408Y-148914441D01*
X85466389Y-149102236D01*
X85435500Y-149297263D01*
X84740500Y-149297263D01*
X84740500Y-146851263D01*
X88231500Y-146851263D01*
X88231500Y-147048736D01*
X88262389Y-147243763D01*
X88317485Y-147413330D01*
X88323409Y-147431561D01*
X88398563Y-147579057D01*
X88413058Y-147607504D01*
X88529115Y-147767246D01*
X88668753Y-147906884D01*
X88770108Y-147980521D01*
X88828499Y-148022944D01*
X89004439Y-148112591D01*
X89129637Y-148153270D01*
X89192236Y-148173610D01*
X89387264Y-148204500D01*
X89387269Y-148204500D01*
X91092736Y-148204500D01*
X91287763Y-148173610D01*
X91311298Y-148165963D01*
X91475561Y-148112591D01*
X91651501Y-148022944D01*
X91741192Y-147957779D01*
X91811246Y-147906884D01*
X91811248Y-147906881D01*
X91811252Y-147906879D01*
X91950879Y-147767252D01*
X91950881Y-147767248D01*
X91950884Y-147767246D01*
X92001779Y-147697192D01*
X92066944Y-147607501D01*
X92156591Y-147431561D01*
X92217610Y-147243763D01*
X92224557Y-147199903D01*
X92248500Y-147048736D01*
X92248500Y-146851263D01*
X92217610Y-146656236D01*
X92197270Y-146593637D01*
X92156591Y-146468439D01*
X92066944Y-146292499D01*
X92059486Y-146282234D01*
X91950884Y-146132753D01*
X91811246Y-145993115D01*
X91651504Y-145877058D01*
X91651503Y-145877057D01*
X91651501Y-145877056D01*
X91475561Y-145787409D01*
X91475558Y-145787408D01*
X91287763Y-145726389D01*
X91092736Y-145695500D01*
X91092731Y-145695500D01*
X89387269Y-145695500D01*
X89387264Y-145695500D01*
X89192236Y-145726389D01*
X89004441Y-145787408D01*
X88828495Y-145877058D01*
X88668753Y-145993115D01*
X88529115Y-146132753D01*
X88413058Y-146292495D01*
X88323408Y-146468441D01*
X88262389Y-146656236D01*
X88231500Y-146851263D01*
X84740500Y-146851263D01*
X84740500Y-140951263D01*
X88231500Y-140951263D01*
X88231500Y-141148736D01*
X88262389Y-141343763D01*
X88306825Y-141480520D01*
X88323409Y-141531561D01*
X88401844Y-141685496D01*
X88413058Y-141707504D01*
X88529115Y-141867246D01*
X88668753Y-142006884D01*
X88818234Y-142115486D01*
X88828499Y-142122944D01*
X89004439Y-142212591D01*
X89129637Y-142253270D01*
X89192236Y-142273610D01*
X89387264Y-142304500D01*
X89387269Y-142304500D01*
X91092736Y-142304500D01*
X91287763Y-142273610D01*
X91289680Y-142272987D01*
X91475561Y-142212591D01*
X91651501Y-142122944D01*
X91761932Y-142042712D01*
X91811246Y-142006884D01*
X91811248Y-142006881D01*
X91811252Y-142006879D01*
X91950879Y-141867252D01*
X91950881Y-141867248D01*
X91950884Y-141867246D01*
X92001779Y-141797192D01*
X92066944Y-141707501D01*
X92156591Y-141531561D01*
X92217610Y-141343763D01*
X92248500Y-141148736D01*
X92248500Y-140951263D01*
X92217610Y-140756236D01*
X92197270Y-140693637D01*
X92156591Y-140568439D01*
X92066944Y-140392499D01*
X92052014Y-140371949D01*
X91950884Y-140232753D01*
X91811246Y-140093115D01*
X91651504Y-139977058D01*
X91651503Y-139977057D01*
X91651501Y-139977056D01*
X91475561Y-139887409D01*
X91475558Y-139887408D01*
X91287763Y-139826389D01*
X91092736Y-139795500D01*
X91092731Y-139795500D01*
X89387269Y-139795500D01*
X89387264Y-139795500D01*
X89192236Y-139826389D01*
X89004441Y-139887408D01*
X88828495Y-139977058D01*
X88668753Y-140093115D01*
X88529115Y-140232753D01*
X88413058Y-140392495D01*
X88323408Y-140568441D01*
X88262389Y-140756236D01*
X88231500Y-140951263D01*
X84740500Y-140951263D01*
X84740500Y-130224986D01*
X89515001Y-130224986D01*
X89525494Y-130327697D01*
X89580641Y-130494119D01*
X89580643Y-130494124D01*
X89672684Y-130643345D01*
X89796654Y-130767315D01*
X89945875Y-130859356D01*
X89945880Y-130859358D01*
X90112302Y-130914505D01*
X90112309Y-130914506D01*
X90215019Y-130924999D01*
X90352499Y-130924999D01*
X90352500Y-130924998D01*
X90352500Y-129950000D01*
X89515001Y-129950000D01*
X89515001Y-130224986D01*
X84740500Y-130224986D01*
X84740500Y-110135450D01*
X84760185Y-110068411D01*
X84812989Y-110022656D01*
X84882147Y-110012712D01*
X84945703Y-110041737D01*
X84982430Y-110097131D01*
X85027409Y-110235561D01*
X85117056Y-110411501D01*
X85117058Y-110411504D01*
X85233115Y-110571246D01*
X85372753Y-110710884D01*
X85522234Y-110819486D01*
X85532499Y-110826944D01*
X85708439Y-110916591D01*
X85833637Y-110957270D01*
X85896236Y-110977610D01*
X86091264Y-111008500D01*
X86091269Y-111008500D01*
X86288736Y-111008500D01*
X86483763Y-110977610D01*
X86671561Y-110916591D01*
X86847501Y-110826944D01*
X86937192Y-110761779D01*
X87007246Y-110710884D01*
X87007248Y-110710881D01*
X87007252Y-110710879D01*
X87146879Y-110571252D01*
X87146881Y-110571248D01*
X87146884Y-110571246D01*
X87197779Y-110501192D01*
X87262944Y-110411501D01*
X87352591Y-110235561D01*
X87413610Y-110047763D01*
X87419162Y-110012712D01*
X87444500Y-109852736D01*
X87444500Y-109724500D01*
X87464185Y-109657461D01*
X87516989Y-109611706D01*
X87568500Y-109600500D01*
X88059699Y-109600500D01*
X88126738Y-109620185D01*
G37*
%TD.AperFunction*%
%TA.AperFunction,Conductor*%
G36*
X109682539Y-128220184D02*
G01*
X109728294Y-128272988D01*
X109739500Y-128324499D01*
X109739500Y-156375500D01*
X109719815Y-156442539D01*
X109667011Y-156488294D01*
X109615500Y-156499500D01*
X105375451Y-156499500D01*
X105308412Y-156479815D01*
X105262657Y-156427011D01*
X105252713Y-156357853D01*
X105281738Y-156294297D01*
X105337133Y-156257569D01*
X105362114Y-156249451D01*
X105475561Y-156212591D01*
X105651501Y-156122944D01*
X105741192Y-156057779D01*
X105811246Y-156006884D01*
X105811248Y-156006881D01*
X105811252Y-156006879D01*
X105950879Y-155867252D01*
X105950881Y-155867248D01*
X105950884Y-155867246D01*
X106001779Y-155797192D01*
X106066944Y-155707501D01*
X106156591Y-155531561D01*
X106217610Y-155343763D01*
X106248500Y-155148736D01*
X106248500Y-154951263D01*
X106217610Y-154756236D01*
X106197270Y-154693637D01*
X106156591Y-154568439D01*
X106066944Y-154392499D01*
X106059486Y-154382234D01*
X105950884Y-154232753D01*
X105876820Y-154158689D01*
X105843335Y-154097366D01*
X105840501Y-154071008D01*
X105840501Y-153963347D01*
X105840500Y-153963329D01*
X105840500Y-152245908D01*
X105860185Y-152178869D01*
X105904271Y-152140363D01*
X105903187Y-152138605D01*
X105909332Y-152134814D01*
X105909334Y-152134814D01*
X106058656Y-152042712D01*
X106182712Y-151918656D01*
X106274814Y-151769334D01*
X106329999Y-151602797D01*
X106340500Y-151500009D01*
X106340499Y-151283832D01*
X106360183Y-151216795D01*
X106412987Y-151171040D01*
X106482145Y-151161096D01*
X106545701Y-151190121D01*
X106582430Y-151245515D01*
X106627873Y-151385372D01*
X106717485Y-151561242D01*
X106833496Y-151720919D01*
X106833500Y-151720924D01*
X106973075Y-151860499D01*
X106973080Y-151860503D01*
X107132757Y-151976514D01*
X107308626Y-152066126D01*
X107496355Y-152127123D01*
X107540000Y-152134034D01*
X107540000Y-151183012D01*
X107597007Y-151215925D01*
X107724174Y-151250000D01*
X107855826Y-151250000D01*
X107982993Y-151215925D01*
X108040000Y-151183012D01*
X108040000Y-152134034D01*
X108083644Y-152127123D01*
X108271373Y-152066126D01*
X108447242Y-151976514D01*
X108606919Y-151860503D01*
X108606924Y-151860499D01*
X108746499Y-151720924D01*
X108746503Y-151720919D01*
X108862514Y-151561242D01*
X108952126Y-151385373D01*
X109013123Y-151197646D01*
X109044000Y-151002697D01*
X109044000Y-150400000D01*
X108290000Y-150400000D01*
X108290000Y-149900000D01*
X109044000Y-149900000D01*
X109044000Y-149297302D01*
X109013123Y-149102353D01*
X108952126Y-148914626D01*
X108862514Y-148738757D01*
X108746503Y-148579080D01*
X108746499Y-148579075D01*
X108606924Y-148439500D01*
X108606919Y-148439496D01*
X108447242Y-148323485D01*
X108271371Y-148233873D01*
X108083642Y-148172876D01*
X108040000Y-148165963D01*
X108040000Y-149116988D01*
X107982993Y-149084075D01*
X107855826Y-149050000D01*
X107724174Y-149050000D01*
X107597007Y-149084075D01*
X107540000Y-149116988D01*
X107540000Y-148165963D01*
X107496357Y-148172876D01*
X107496356Y-148172876D01*
X107308628Y-148233873D01*
X107132757Y-148323485D01*
X106973080Y-148439496D01*
X106973075Y-148439500D01*
X106833500Y-148579075D01*
X106833496Y-148579080D01*
X106717485Y-148738757D01*
X106627873Y-148914626D01*
X106566876Y-149102353D01*
X106536000Y-149297302D01*
X106536000Y-149900000D01*
X107290000Y-149900000D01*
X107290000Y-150400000D01*
X106535999Y-150400000D01*
X106524118Y-150411881D01*
X106462795Y-150445365D01*
X106393103Y-150440380D01*
X106337170Y-150398508D01*
X106318732Y-150363203D01*
X106274814Y-150230666D01*
X106182712Y-150081344D01*
X106058656Y-149957288D01*
X105909334Y-149865186D01*
X105742797Y-149810001D01*
X105742795Y-149810000D01*
X105640010Y-149799500D01*
X104839998Y-149799500D01*
X104839980Y-149799501D01*
X104737203Y-149810000D01*
X104737200Y-149810001D01*
X104570668Y-149865185D01*
X104570663Y-149865187D01*
X104421342Y-149957289D01*
X104327681Y-150050951D01*
X104266358Y-150084436D01*
X104196666Y-150079452D01*
X104152319Y-150050951D01*
X104058657Y-149957289D01*
X104058656Y-149957288D01*
X103909334Y-149865186D01*
X103742797Y-149810001D01*
X103742795Y-149810000D01*
X103640016Y-149799500D01*
X103636861Y-149799340D01*
X103636869Y-149799179D01*
X103636868Y-149799179D01*
X103636870Y-149799155D01*
X103636900Y-149798561D01*
X103573058Y-149779815D01*
X103552416Y-149763181D01*
X101076819Y-147287584D01*
X101043334Y-147226261D01*
X101040500Y-147199903D01*
X101040500Y-146851263D01*
X102231500Y-146851263D01*
X102231500Y-147048736D01*
X102262389Y-147243763D01*
X102317485Y-147413330D01*
X102323409Y-147431561D01*
X102398563Y-147579057D01*
X102413058Y-147607504D01*
X102529115Y-147767246D01*
X102668753Y-147906884D01*
X102770108Y-147980521D01*
X102828499Y-148022944D01*
X103004439Y-148112591D01*
X103129637Y-148153270D01*
X103192236Y-148173610D01*
X103387264Y-148204500D01*
X103387269Y-148204500D01*
X105092736Y-148204500D01*
X105287763Y-148173610D01*
X105311298Y-148165963D01*
X105475561Y-148112591D01*
X105651501Y-148022944D01*
X105741192Y-147957779D01*
X105811246Y-147906884D01*
X105811248Y-147906881D01*
X105811252Y-147906879D01*
X105950879Y-147767252D01*
X105950881Y-147767248D01*
X105950884Y-147767246D01*
X106001779Y-147697192D01*
X106066944Y-147607501D01*
X106156591Y-147431561D01*
X106217610Y-147243763D01*
X106224557Y-147199903D01*
X106248500Y-147048736D01*
X106248500Y-146851263D01*
X106217610Y-146656236D01*
X106197270Y-146593637D01*
X106156591Y-146468439D01*
X106066944Y-146292499D01*
X106059486Y-146282234D01*
X105950884Y-146132753D01*
X105811246Y-145993115D01*
X105651504Y-145877058D01*
X105651503Y-145877057D01*
X105651501Y-145877056D01*
X105475561Y-145787409D01*
X105475558Y-145787408D01*
X105287763Y-145726389D01*
X105092736Y-145695500D01*
X105092731Y-145695500D01*
X103387269Y-145695500D01*
X103387264Y-145695500D01*
X103192236Y-145726389D01*
X103004441Y-145787408D01*
X102828495Y-145877058D01*
X102668753Y-145993115D01*
X102529115Y-146132753D01*
X102413058Y-146292495D01*
X102323408Y-146468441D01*
X102262389Y-146656236D01*
X102231500Y-146851263D01*
X101040500Y-146851263D01*
X101040500Y-142324499D01*
X101060185Y-142257460D01*
X101112989Y-142211705D01*
X101164500Y-142200499D01*
X101740002Y-142200499D01*
X101740008Y-142200499D01*
X101842797Y-142189999D01*
X102009334Y-142134814D01*
X102158656Y-142042712D01*
X102282712Y-141918656D01*
X102315882Y-141864877D01*
X102367826Y-141818156D01*
X102436789Y-141806932D01*
X102500871Y-141834774D01*
X102521735Y-141857088D01*
X102529115Y-141867245D01*
X102529119Y-141867250D01*
X102668753Y-142006884D01*
X102818234Y-142115486D01*
X102828499Y-142122944D01*
X103004439Y-142212591D01*
X103129637Y-142253270D01*
X103192236Y-142273610D01*
X103387264Y-142304500D01*
X103387269Y-142304500D01*
X105092736Y-142304500D01*
X105287763Y-142273610D01*
X105289680Y-142272987D01*
X105475561Y-142212591D01*
X105651501Y-142122944D01*
X105761932Y-142042712D01*
X105811246Y-142006884D01*
X105811248Y-142006881D01*
X105811252Y-142006879D01*
X105950879Y-141867252D01*
X105950881Y-141867248D01*
X105950884Y-141867246D01*
X106001779Y-141797192D01*
X106066944Y-141707501D01*
X106156591Y-141531561D01*
X106217610Y-141343763D01*
X106248500Y-141148736D01*
X106248500Y-140951263D01*
X106217610Y-140756236D01*
X106197270Y-140693637D01*
X106156591Y-140568439D01*
X106066944Y-140392499D01*
X106052014Y-140371949D01*
X105950884Y-140232753D01*
X105811246Y-140093115D01*
X105651504Y-139977058D01*
X105651503Y-139977057D01*
X105651501Y-139977056D01*
X105475561Y-139887409D01*
X105475558Y-139887408D01*
X105287763Y-139826389D01*
X105092736Y-139795500D01*
X105092731Y-139795500D01*
X103387269Y-139795500D01*
X103387264Y-139795500D01*
X103192236Y-139826389D01*
X103004441Y-139887408D01*
X102828495Y-139977058D01*
X102668755Y-140093114D01*
X102545367Y-140216502D01*
X102484044Y-140249986D01*
X102414352Y-140245002D01*
X102358419Y-140203130D01*
X102352147Y-140193917D01*
X102282712Y-140081344D01*
X102158656Y-139957288D01*
X102065888Y-139900069D01*
X102009336Y-139865187D01*
X102009331Y-139865185D01*
X102007862Y-139864698D01*
X101842797Y-139810001D01*
X101842795Y-139810000D01*
X101740010Y-139799500D01*
X100939998Y-139799500D01*
X100939980Y-139799501D01*
X100847530Y-139808946D01*
X100778838Y-139796176D01*
X100747248Y-139773269D01*
X97676819Y-136702840D01*
X97643334Y-136641517D01*
X97640500Y-136615159D01*
X97640500Y-131630012D01*
X97660185Y-131562973D01*
X97712989Y-131517218D01*
X97782147Y-131507274D01*
X97830532Y-131528194D01*
X97831842Y-131526111D01*
X97837737Y-131529815D01*
X97837738Y-131529816D01*
X97990478Y-131625789D01*
X98160745Y-131685368D01*
X98172200Y-131686658D01*
X98236614Y-131713722D01*
X98276172Y-131771315D01*
X98278313Y-131841152D01*
X98277398Y-131844473D01*
X98242401Y-131964932D01*
X98239500Y-132001798D01*
X98239500Y-132433201D01*
X98242401Y-132470067D01*
X98242402Y-132470073D01*
X98288254Y-132627893D01*
X98288255Y-132627896D01*
X98371917Y-132769362D01*
X98376702Y-132775531D01*
X98374256Y-132777427D01*
X98400857Y-132826142D01*
X98395873Y-132895834D01*
X98375069Y-132928203D01*
X98376702Y-132929469D01*
X98371917Y-132935637D01*
X98288255Y-133077103D01*
X98288254Y-133077106D01*
X98242402Y-133234926D01*
X98242401Y-133234932D01*
X98239500Y-133271798D01*
X98239500Y-133703201D01*
X98242401Y-133740067D01*
X98242402Y-133740073D01*
X98288254Y-133897893D01*
X98288255Y-133897896D01*
X98371917Y-134039362D01*
X98371923Y-134039370D01*
X98488129Y-134155576D01*
X98488133Y-134155579D01*
X98488135Y-134155581D01*
X98629602Y-134239244D01*
X98725097Y-134266988D01*
X98783980Y-134304592D01*
X98813187Y-134368064D01*
X98814500Y-134386063D01*
X98814500Y-137032911D01*
X98814499Y-137032929D01*
X98814499Y-137198635D01*
X98814498Y-137198635D01*
X98855422Y-137351364D01*
X98858966Y-137357501D01*
X98858969Y-137357508D01*
X98934475Y-137488290D01*
X98934481Y-137488298D01*
X99053349Y-137607166D01*
X99053354Y-137607170D01*
X99884703Y-138438520D01*
X99884705Y-138438521D01*
X99884709Y-138438524D01*
X100021628Y-138517573D01*
X100021635Y-138517577D01*
X100174362Y-138558501D01*
X100174364Y-138558501D01*
X100340073Y-138558501D01*
X100340089Y-138558500D01*
X101795331Y-138558500D01*
X101795347Y-138558501D01*
X101802943Y-138558501D01*
X101961054Y-138558501D01*
X101961057Y-138558501D01*
X102113785Y-138517577D01*
X102163904Y-138488639D01*
X102250716Y-138438520D01*
X102352419Y-138336816D01*
X102413740Y-138303333D01*
X102440099Y-138300499D01*
X103140002Y-138300499D01*
X103140008Y-138300499D01*
X103242797Y-138289999D01*
X103409334Y-138234814D01*
X103558656Y-138142712D01*
X103682712Y-138018656D01*
X103725816Y-137948773D01*
X103777764Y-137902048D01*
X103846726Y-137890825D01*
X103910809Y-137918669D01*
X103936894Y-137948773D01*
X103972288Y-138006156D01*
X104096344Y-138130212D01*
X104245666Y-138222314D01*
X104412203Y-138277499D01*
X104514991Y-138288000D01*
X105565008Y-138287999D01*
X105565016Y-138287998D01*
X105565019Y-138287998D01*
X105621302Y-138282248D01*
X105667797Y-138277499D01*
X105834334Y-138222314D01*
X105983656Y-138130212D01*
X106107712Y-138006156D01*
X106199814Y-137856834D01*
X106254999Y-137690297D01*
X106265500Y-137587509D01*
X106265499Y-136875095D01*
X106285183Y-136808057D01*
X106301815Y-136787418D01*
X106324321Y-136764913D01*
X106385645Y-136731429D01*
X106455336Y-136736415D01*
X106511269Y-136778288D01*
X106535684Y-136843753D01*
X106536000Y-136852596D01*
X106536000Y-137002697D01*
X106566876Y-137197646D01*
X106627873Y-137385373D01*
X106717485Y-137561242D01*
X106833496Y-137720919D01*
X106833500Y-137720924D01*
X106973075Y-137860499D01*
X106973080Y-137860503D01*
X107132757Y-137976514D01*
X107308626Y-138066126D01*
X107496355Y-138127123D01*
X107540000Y-138134034D01*
X107540000Y-137183012D01*
X107597007Y-137215925D01*
X107724174Y-137250000D01*
X107855826Y-137250000D01*
X107982993Y-137215925D01*
X108040000Y-137183012D01*
X108040000Y-138134034D01*
X108083644Y-138127123D01*
X108271373Y-138066126D01*
X108447242Y-137976514D01*
X108606919Y-137860503D01*
X108606924Y-137860499D01*
X108746499Y-137720924D01*
X108746503Y-137720919D01*
X108862514Y-137561242D01*
X108952126Y-137385373D01*
X109013123Y-137197646D01*
X109044000Y-137002697D01*
X109044000Y-136400000D01*
X108290000Y-136400000D01*
X108290000Y-135900000D01*
X109044000Y-135900000D01*
X109044000Y-135297302D01*
X109013123Y-135102353D01*
X108952126Y-134914626D01*
X108862514Y-134738757D01*
X108746503Y-134579080D01*
X108746499Y-134579075D01*
X108606924Y-134439500D01*
X108606919Y-134439496D01*
X108447242Y-134323485D01*
X108271371Y-134233873D01*
X108083642Y-134172876D01*
X108040000Y-134165963D01*
X108040000Y-135116988D01*
X107982993Y-135084075D01*
X107855826Y-135050000D01*
X107724174Y-135050000D01*
X107597007Y-135084075D01*
X107540000Y-135116988D01*
X107540000Y-134165963D01*
X107496350Y-134172877D01*
X107491611Y-134174015D01*
X107491197Y-134172294D01*
X107428973Y-134174070D01*
X107369141Y-134137988D01*
X107338315Y-134075286D01*
X107336500Y-134054145D01*
X107336500Y-129904096D01*
X107356185Y-129837057D01*
X107372814Y-129816420D01*
X108952416Y-128236817D01*
X109013739Y-128203333D01*
X109040097Y-128200499D01*
X109615500Y-128200499D01*
X109682539Y-128220184D01*
G37*
%TD.AperFunction*%
%TA.AperFunction,Conductor*%
G36*
X96366688Y-133803445D02*
G01*
X96419623Y-133849048D01*
X96439499Y-133916031D01*
X96439500Y-133916386D01*
X96439500Y-136828586D01*
X96439499Y-136828604D01*
X96439499Y-136994310D01*
X96439498Y-136994310D01*
X96480423Y-137147041D01*
X96509358Y-137197156D01*
X96509359Y-137197160D01*
X96509360Y-137197160D01*
X96559479Y-137283970D01*
X96559481Y-137283973D01*
X96678349Y-137402841D01*
X96678355Y-137402846D01*
X98881555Y-139606046D01*
X98915040Y-139667369D01*
X98910056Y-139737061D01*
X98868184Y-139792994D01*
X98832879Y-139811433D01*
X98670666Y-139865186D01*
X98670663Y-139865187D01*
X98521342Y-139957289D01*
X98397289Y-140081342D01*
X98305187Y-140230663D01*
X98305185Y-140230668D01*
X98277405Y-140314504D01*
X98237632Y-140371949D01*
X98173116Y-140398772D01*
X98159699Y-140399500D01*
X94940097Y-140399500D01*
X94873058Y-140379815D01*
X94852416Y-140363181D01*
X92676818Y-138187583D01*
X92643333Y-138126260D01*
X92640499Y-138099902D01*
X92640499Y-137827285D01*
X92660184Y-137760246D01*
X92712988Y-137714491D01*
X92782146Y-137704547D01*
X92845702Y-137733572D01*
X92852180Y-137739604D01*
X92973075Y-137860499D01*
X92973080Y-137860503D01*
X93132757Y-137976514D01*
X93308626Y-138066126D01*
X93496355Y-138127123D01*
X93540000Y-138134034D01*
X93540000Y-137183012D01*
X93597007Y-137215925D01*
X93724174Y-137250000D01*
X93855826Y-137250000D01*
X93982993Y-137215925D01*
X94040000Y-137183012D01*
X94040000Y-138134034D01*
X94083644Y-138127123D01*
X94271373Y-138066126D01*
X94447242Y-137976514D01*
X94606919Y-137860503D01*
X94606924Y-137860499D01*
X94746499Y-137720924D01*
X94746503Y-137720919D01*
X94862514Y-137561242D01*
X94952126Y-137385373D01*
X95013123Y-137197646D01*
X95044000Y-137002697D01*
X95044000Y-136400000D01*
X94290000Y-136400000D01*
X94290000Y-135900000D01*
X95044000Y-135900000D01*
X95044000Y-135297302D01*
X95013123Y-135102353D01*
X94952126Y-134914626D01*
X94862514Y-134738757D01*
X94746503Y-134579080D01*
X94746499Y-134579075D01*
X94667105Y-134499681D01*
X94633620Y-134438358D01*
X94638604Y-134368666D01*
X94680476Y-134312733D01*
X94745940Y-134288316D01*
X94754786Y-134288000D01*
X95655686Y-134288000D01*
X95655694Y-134288000D01*
X95692569Y-134285098D01*
X95692571Y-134285097D01*
X95692573Y-134285097D01*
X95754910Y-134266986D01*
X95850398Y-134239244D01*
X95991865Y-134155581D01*
X96108081Y-134039365D01*
X96191744Y-133897898D01*
X96196423Y-133881791D01*
X96234029Y-133822906D01*
X96297502Y-133793699D01*
X96366688Y-133803445D01*
G37*
%TD.AperFunction*%
%TA.AperFunction,Conductor*%
G36*
X106253699Y-127673820D02*
G01*
X106292234Y-127730250D01*
X106305186Y-127769334D01*
X106397288Y-127918656D01*
X106521344Y-128042712D01*
X106670666Y-128134814D01*
X106837203Y-128189999D01*
X106939991Y-128200500D01*
X106990902Y-128200499D01*
X107057940Y-128220182D01*
X107103695Y-128272985D01*
X107113640Y-128342144D01*
X107084616Y-128405700D01*
X107078583Y-128412180D01*
X106367286Y-129123478D01*
X106255481Y-129235282D01*
X106255477Y-129235287D01*
X106206870Y-129319479D01*
X106206870Y-129319480D01*
X106176423Y-129372214D01*
X106176423Y-129372215D01*
X106135499Y-129524943D01*
X106135499Y-129524945D01*
X106135499Y-129693046D01*
X106135500Y-129693059D01*
X106135500Y-132018007D01*
X106115815Y-132085046D01*
X106063011Y-132130801D01*
X105993853Y-132140745D01*
X105930297Y-132111720D01*
X105923819Y-132105688D01*
X105811246Y-131993115D01*
X105651504Y-131877058D01*
X105651503Y-131877057D01*
X105651501Y-131877056D01*
X105475561Y-131787409D01*
X105426029Y-131771315D01*
X105287763Y-131726389D01*
X105092736Y-131695500D01*
X105092731Y-131695500D01*
X103387269Y-131695500D01*
X103387264Y-131695500D01*
X103192236Y-131726389D01*
X103004441Y-131787408D01*
X102828495Y-131877058D01*
X102668753Y-131993115D01*
X102529115Y-132132753D01*
X102413058Y-132292495D01*
X102323408Y-132468441D01*
X102262389Y-132656236D01*
X102231500Y-132851263D01*
X102231500Y-133048736D01*
X102262389Y-133243761D01*
X102262852Y-133245688D01*
X102262814Y-133246442D01*
X102263152Y-133248575D01*
X102262703Y-133248645D01*
X102259356Y-133315470D01*
X102218689Y-133372285D01*
X102153761Y-133398094D01*
X102085186Y-133384703D01*
X102054595Y-133362308D01*
X101226178Y-132533891D01*
X101192693Y-132472568D01*
X101190242Y-132436476D01*
X101190326Y-132435397D01*
X101190500Y-132433194D01*
X101190500Y-132001806D01*
X101187598Y-131964931D01*
X101141744Y-131807102D01*
X101120580Y-131771315D01*
X101099175Y-131735120D01*
X101081992Y-131667396D01*
X101104152Y-131601134D01*
X101158619Y-131557371D01*
X101205907Y-131548000D01*
X102265575Y-131548000D01*
X102265591Y-131548001D01*
X102273187Y-131548001D01*
X102431298Y-131548001D01*
X102431301Y-131548001D01*
X102584029Y-131507077D01*
X102634148Y-131478139D01*
X102720960Y-131428020D01*
X102832764Y-131316216D01*
X102832764Y-131316214D01*
X102842972Y-131306007D01*
X102842974Y-131306004D01*
X103148504Y-131000473D01*
X103148514Y-131000466D01*
X103158716Y-130990264D01*
X103170364Y-130978615D01*
X103231683Y-130945129D01*
X103301375Y-130950110D01*
X103314276Y-130956419D01*
X103314330Y-130956304D01*
X103320880Y-130959358D01*
X103487302Y-131014505D01*
X103487309Y-131014506D01*
X103590019Y-131024999D01*
X103727499Y-131024999D01*
X104227500Y-131024999D01*
X104364972Y-131024999D01*
X104364986Y-131024998D01*
X104467697Y-131014505D01*
X104634119Y-130959358D01*
X104634124Y-130959356D01*
X104783345Y-130867315D01*
X104907315Y-130743345D01*
X104999356Y-130594124D01*
X104999358Y-130594119D01*
X105054505Y-130427697D01*
X105054506Y-130427690D01*
X105064999Y-130324986D01*
X105065000Y-130324973D01*
X105065000Y-130050000D01*
X104227500Y-130050000D01*
X104227500Y-131024999D01*
X103727499Y-131024999D01*
X103727500Y-131024998D01*
X103727500Y-129550000D01*
X104227500Y-129550000D01*
X105064999Y-129550000D01*
X105064999Y-129275028D01*
X105064998Y-129275013D01*
X105054505Y-129172302D01*
X104999358Y-129005880D01*
X104999356Y-129005875D01*
X104907315Y-128856654D01*
X104783345Y-128732684D01*
X104634124Y-128640643D01*
X104634119Y-128640641D01*
X104467697Y-128585494D01*
X104467690Y-128585493D01*
X104364986Y-128575000D01*
X104227500Y-128575000D01*
X104227500Y-129550000D01*
X103727500Y-129550000D01*
X103727500Y-128575000D01*
X103590027Y-128575000D01*
X103590012Y-128575001D01*
X103487302Y-128585494D01*
X103320878Y-128640642D01*
X103314334Y-128643694D01*
X103313493Y-128641890D01*
X103255718Y-128657683D01*
X103189060Y-128636743D01*
X103170370Y-128621390D01*
X103009892Y-128460912D01*
X102976409Y-128399592D01*
X102981393Y-128329901D01*
X103023264Y-128273967D01*
X103088729Y-128249550D01*
X103135893Y-128255303D01*
X103192236Y-128273610D01*
X103387264Y-128304500D01*
X103387269Y-128304500D01*
X105092736Y-128304500D01*
X105287763Y-128273610D01*
X105344106Y-128255303D01*
X105475561Y-128212591D01*
X105651501Y-128122944D01*
X105761932Y-128042712D01*
X105811246Y-128006884D01*
X105811248Y-128006881D01*
X105811252Y-128006879D01*
X105950879Y-127867252D01*
X105950881Y-127867248D01*
X105950884Y-127867246D01*
X106047320Y-127734511D01*
X106066944Y-127707501D01*
X106066951Y-127707486D01*
X106068797Y-127704476D01*
X106069805Y-127703563D01*
X106069808Y-127703560D01*
X106120605Y-127657596D01*
X106189534Y-127646168D01*
X106253699Y-127673820D01*
G37*
%TD.AperFunction*%
%TA.AperFunction,Conductor*%
G36*
X96366688Y-132533445D02*
G01*
X96419623Y-132579048D01*
X96439499Y-132646031D01*
X96439500Y-132646386D01*
X96439500Y-133058613D01*
X96419815Y-133125652D01*
X96367011Y-133171407D01*
X96297853Y-133181351D01*
X96234297Y-133152326D01*
X96196523Y-133093548D01*
X96196424Y-133093209D01*
X96191745Y-133077104D01*
X96191744Y-133077103D01*
X96191744Y-133077102D01*
X96108081Y-132935635D01*
X96108078Y-132935632D01*
X96103298Y-132929469D01*
X96105750Y-132927566D01*
X96079155Y-132878921D01*
X96084104Y-132809226D01*
X96104940Y-132776804D01*
X96103298Y-132775531D01*
X96108075Y-132769370D01*
X96108081Y-132769365D01*
X96191744Y-132627898D01*
X96196423Y-132611791D01*
X96234029Y-132552906D01*
X96297502Y-132523699D01*
X96366688Y-132533445D01*
G37*
%TD.AperFunction*%
%TA.AperFunction,Conductor*%
G36*
X90937948Y-101350185D02*
G01*
X90983292Y-101402097D01*
X90985965Y-101407830D01*
X91121504Y-101601400D01*
X91121506Y-101601402D01*
X91288597Y-101768493D01*
X91288603Y-101768498D01*
X91474158Y-101898425D01*
X91517783Y-101953002D01*
X91524977Y-102022500D01*
X91493454Y-102084855D01*
X91474158Y-102101575D01*
X91288597Y-102231505D01*
X91121505Y-102398597D01*
X90985965Y-102592169D01*
X90985964Y-102592171D01*
X90886098Y-102806335D01*
X90886094Y-102806344D01*
X90824938Y-103034586D01*
X90824936Y-103034596D01*
X90804341Y-103269999D01*
X90804341Y-103270000D01*
X90824936Y-103505403D01*
X90824938Y-103505413D01*
X90886094Y-103733655D01*
X90886096Y-103733659D01*
X90886097Y-103733663D01*
X90958839Y-103889658D01*
X90985965Y-103947830D01*
X90985969Y-103947836D01*
X91022758Y-104000376D01*
X91045086Y-104066582D01*
X91028076Y-104134349D01*
X90977129Y-104182163D01*
X90921184Y-104195500D01*
X90237264Y-104195500D01*
X90042236Y-104226389D01*
X89854441Y-104287408D01*
X89678495Y-104377058D01*
X89518753Y-104493115D01*
X89379115Y-104632753D01*
X89263058Y-104792495D01*
X89173408Y-104968441D01*
X89112389Y-105156236D01*
X89081500Y-105351263D01*
X89081500Y-105548736D01*
X89112389Y-105743763D01*
X89173347Y-105931371D01*
X89173409Y-105931561D01*
X89263056Y-106107501D01*
X89263058Y-106107504D01*
X89379115Y-106267246D01*
X89518753Y-106406884D01*
X89668234Y-106515486D01*
X89678499Y-106522944D01*
X89854439Y-106612591D01*
X89979637Y-106653270D01*
X90042236Y-106673610D01*
X90237264Y-106704500D01*
X90237269Y-106704500D01*
X91942736Y-106704500D01*
X92137763Y-106673610D01*
X92139262Y-106673123D01*
X92325561Y-106612591D01*
X92501501Y-106522944D01*
X92591192Y-106457779D01*
X92661246Y-106406884D01*
X92661248Y-106406881D01*
X92661252Y-106406879D01*
X92800879Y-106267252D01*
X92800881Y-106267248D01*
X92800884Y-106267246D01*
X92851779Y-106197192D01*
X92916944Y-106107501D01*
X93006591Y-105931561D01*
X93067610Y-105743763D01*
X93067629Y-105743642D01*
X93098500Y-105548736D01*
X93098500Y-105351263D01*
X93067610Y-105156238D01*
X93067610Y-105156237D01*
X93013039Y-104988286D01*
X93011045Y-104918448D01*
X93043288Y-104862292D01*
X93625518Y-104280062D01*
X93686838Y-104246580D01*
X93756530Y-104251564D01*
X93800877Y-104280065D01*
X93828917Y-104308105D01*
X94022421Y-104443600D01*
X94236507Y-104543429D01*
X94236516Y-104543433D01*
X94450000Y-104600634D01*
X94450000Y-103703012D01*
X94507007Y-103735925D01*
X94634174Y-103770000D01*
X94765826Y-103770000D01*
X94892993Y-103735925D01*
X94950000Y-103703012D01*
X94950000Y-104600633D01*
X95163483Y-104543433D01*
X95163492Y-104543429D01*
X95377578Y-104443600D01*
X95571082Y-104308105D01*
X95738105Y-104141082D01*
X95868425Y-103954968D01*
X95923002Y-103911344D01*
X95992501Y-103904151D01*
X96054855Y-103935673D01*
X96071575Y-103954968D01*
X96201894Y-104141082D01*
X96368917Y-104308105D01*
X96562421Y-104443600D01*
X96776507Y-104543429D01*
X96776516Y-104543433D01*
X96990000Y-104600634D01*
X96990000Y-103703012D01*
X97047007Y-103735925D01*
X97174174Y-103770000D01*
X97305826Y-103770000D01*
X97432993Y-103735925D01*
X97490000Y-103703012D01*
X97490000Y-104600633D01*
X97703483Y-104543433D01*
X97703492Y-104543429D01*
X97917578Y-104443600D01*
X98111082Y-104308105D01*
X98278105Y-104141082D01*
X98408425Y-103954968D01*
X98463002Y-103911344D01*
X98532501Y-103904151D01*
X98594855Y-103935673D01*
X98611575Y-103954968D01*
X98741894Y-104141082D01*
X98908917Y-104308105D01*
X99102421Y-104443600D01*
X99316507Y-104543429D01*
X99316516Y-104543433D01*
X99530000Y-104600634D01*
X99530000Y-103703012D01*
X99587007Y-103735925D01*
X99714174Y-103770000D01*
X99845826Y-103770000D01*
X99972993Y-103735925D01*
X100030000Y-103703012D01*
X100030000Y-104600633D01*
X100243483Y-104543433D01*
X100243492Y-104543429D01*
X100457578Y-104443600D01*
X100651082Y-104308105D01*
X100818105Y-104141082D01*
X100948119Y-103955405D01*
X101002696Y-103911781D01*
X101072195Y-103904588D01*
X101134549Y-103936110D01*
X101151269Y-103955405D01*
X101281505Y-104141401D01*
X101448599Y-104308495D01*
X101554536Y-104382673D01*
X101642170Y-104444035D01*
X101646183Y-104446352D01*
X101694401Y-104496917D01*
X101707626Y-104565524D01*
X101682208Y-104629018D01*
X101682365Y-104629132D01*
X101681915Y-104629750D01*
X101681660Y-104630389D01*
X101679826Y-104632625D01*
X101563485Y-104792757D01*
X101473873Y-104968628D01*
X101412876Y-105156356D01*
X101412876Y-105156357D01*
X101405964Y-105200000D01*
X102356988Y-105200000D01*
X102324075Y-105257007D01*
X102290000Y-105384174D01*
X102290000Y-105515826D01*
X102324075Y-105642993D01*
X102356988Y-105700000D01*
X101405964Y-105700000D01*
X101412876Y-105743642D01*
X101412876Y-105743643D01*
X101473873Y-105931371D01*
X101563485Y-106107242D01*
X101679496Y-106266919D01*
X101679500Y-106266924D01*
X101819075Y-106406499D01*
X101819080Y-106406503D01*
X101978757Y-106522514D01*
X102154626Y-106612126D01*
X102342353Y-106673123D01*
X102537303Y-106704000D01*
X103140000Y-106704000D01*
X103140000Y-105950000D01*
X103640000Y-105950000D01*
X103640000Y-106704000D01*
X104242697Y-106704000D01*
X104437646Y-106673123D01*
X104625373Y-106612126D01*
X104801242Y-106522514D01*
X104960919Y-106406503D01*
X104960924Y-106406499D01*
X105100499Y-106266924D01*
X105100503Y-106266919D01*
X105216514Y-106107242D01*
X105306126Y-105931371D01*
X105367123Y-105743643D01*
X105367123Y-105743642D01*
X105374036Y-105700000D01*
X104423012Y-105700000D01*
X104455925Y-105642993D01*
X104490000Y-105515826D01*
X104490000Y-105384174D01*
X104455925Y-105257007D01*
X104423012Y-105200000D01*
X105374036Y-105200000D01*
X105367123Y-105156357D01*
X105367123Y-105156356D01*
X105306126Y-104968628D01*
X105216514Y-104792757D01*
X105100503Y-104633080D01*
X105100499Y-104633075D01*
X104960924Y-104493500D01*
X104960919Y-104493496D01*
X104801242Y-104377485D01*
X104625373Y-104287873D01*
X104437646Y-104226876D01*
X104242697Y-104196000D01*
X103558466Y-104196000D01*
X103491427Y-104176315D01*
X103445672Y-104123511D01*
X103435728Y-104054353D01*
X103456890Y-104000878D01*
X103494035Y-103947830D01*
X103496707Y-103942097D01*
X103542878Y-103889658D01*
X103609091Y-103870500D01*
X106802477Y-103870500D01*
X106869516Y-103890185D01*
X106915271Y-103942989D01*
X106917038Y-103947047D01*
X106937767Y-103997093D01*
X107069394Y-104211887D01*
X107069395Y-104211890D01*
X107103280Y-104251564D01*
X107233010Y-104403458D01*
X107350094Y-104503457D01*
X107424577Y-104567072D01*
X107424580Y-104567073D01*
X107639374Y-104698700D01*
X107865817Y-104792495D01*
X107872123Y-104795107D01*
X108117086Y-104853917D01*
X108368234Y-104873683D01*
X108619382Y-104853917D01*
X108864345Y-104795107D01*
X109097093Y-104698700D01*
X109311893Y-104567070D01*
X109503458Y-104403458D01*
X109521211Y-104382671D01*
X109579715Y-104344480D01*
X109649583Y-104343980D01*
X109708630Y-104381333D01*
X109738109Y-104444680D01*
X109739500Y-104463204D01*
X109739500Y-107864549D01*
X109719815Y-107931588D01*
X109667011Y-107977343D01*
X109597853Y-107987287D01*
X109534297Y-107958262D01*
X109497569Y-107902867D01*
X109467395Y-107810001D01*
X109452591Y-107764439D01*
X109362944Y-107588499D01*
X109355486Y-107578234D01*
X109246884Y-107428753D01*
X109107246Y-107289115D01*
X108947504Y-107173058D01*
X108947503Y-107173057D01*
X108947501Y-107173056D01*
X108771561Y-107083409D01*
X108771558Y-107083408D01*
X108583763Y-107022389D01*
X108388736Y-106991500D01*
X108388731Y-106991500D01*
X108191269Y-106991500D01*
X108191264Y-106991500D01*
X107996236Y-107022389D01*
X107808441Y-107083408D01*
X107632495Y-107173058D01*
X107472753Y-107289115D01*
X107333115Y-107428753D01*
X107217058Y-107588495D01*
X107127408Y-107764441D01*
X107066389Y-107952236D01*
X107035500Y-108147263D01*
X107035500Y-109852736D01*
X107066389Y-110047763D01*
X107122412Y-110220182D01*
X107127409Y-110235561D01*
X107217056Y-110411501D01*
X107217058Y-110411504D01*
X107333115Y-110571246D01*
X107472753Y-110710884D01*
X107632497Y-110826943D01*
X107671794Y-110846966D01*
X107722591Y-110894940D01*
X107739500Y-110957451D01*
X107739500Y-111019699D01*
X107719815Y-111086738D01*
X107667011Y-111132493D01*
X107654507Y-111137403D01*
X107621962Y-111148188D01*
X107570668Y-111165185D01*
X107570663Y-111165187D01*
X107421342Y-111257289D01*
X107297289Y-111381342D01*
X107205187Y-111530663D01*
X107205185Y-111530668D01*
X107184492Y-111593115D01*
X107150001Y-111697203D01*
X107150001Y-111697204D01*
X107150000Y-111697204D01*
X107139500Y-111799983D01*
X107139500Y-112600001D01*
X107139501Y-112600019D01*
X107150000Y-112702796D01*
X107150001Y-112702799D01*
X107205185Y-112869331D01*
X107205187Y-112869336D01*
X107297289Y-113018657D01*
X107390951Y-113112319D01*
X107424436Y-113173642D01*
X107419452Y-113243334D01*
X107390951Y-113287681D01*
X107297289Y-113381342D01*
X107205187Y-113530663D01*
X107205185Y-113530668D01*
X107182206Y-113600016D01*
X107150001Y-113697203D01*
X107150001Y-113697204D01*
X107150000Y-113697204D01*
X107139500Y-113799983D01*
X107139500Y-114600001D01*
X107139501Y-114600019D01*
X107150000Y-114702796D01*
X107150001Y-114702799D01*
X107182205Y-114799983D01*
X107205186Y-114869334D01*
X107297288Y-115018656D01*
X107421344Y-115142712D01*
X107570666Y-115234814D01*
X107654505Y-115262595D01*
X107711948Y-115302366D01*
X107738772Y-115366882D01*
X107739500Y-115380300D01*
X107739500Y-118662402D01*
X107719815Y-118729441D01*
X107703181Y-118750083D01*
X105215082Y-121238181D01*
X105153759Y-121271666D01*
X105127401Y-121274500D01*
X104414998Y-121274500D01*
X104414980Y-121274501D01*
X104312203Y-121285000D01*
X104312200Y-121285001D01*
X104145668Y-121340185D01*
X104145663Y-121340187D01*
X103996342Y-121432289D01*
X103952681Y-121475951D01*
X103891358Y-121509436D01*
X103821666Y-121504452D01*
X103777319Y-121475951D01*
X103758657Y-121457289D01*
X103758656Y-121457288D01*
X103609334Y-121365186D01*
X103442797Y-121310001D01*
X103442795Y-121310000D01*
X103340010Y-121299500D01*
X102339998Y-121299500D01*
X102339980Y-121299501D01*
X102237203Y-121310000D01*
X102237200Y-121310001D01*
X102099643Y-121355584D01*
X102029815Y-121357986D01*
X101969773Y-121322254D01*
X101938580Y-121259734D01*
X101938166Y-121257276D01*
X101913628Y-121102353D01*
X101913610Y-121102237D01*
X101852591Y-120914439D01*
X101762944Y-120738499D01*
X101728857Y-120691582D01*
X101646884Y-120578753D01*
X101507246Y-120439115D01*
X101347504Y-120323058D01*
X101347503Y-120323057D01*
X101347501Y-120323056D01*
X101171561Y-120233409D01*
X101143499Y-120224291D01*
X100983763Y-120172389D01*
X100788736Y-120141500D01*
X100788731Y-120141500D01*
X100591269Y-120141500D01*
X100591264Y-120141500D01*
X100396236Y-120172389D01*
X100208441Y-120233408D01*
X100208439Y-120233408D01*
X100208439Y-120233409D01*
X100180782Y-120247501D01*
X100032495Y-120323058D01*
X99872753Y-120439115D01*
X99733115Y-120578753D01*
X99617058Y-120738495D01*
X99527408Y-120914441D01*
X99466389Y-121102236D01*
X99435500Y-121297263D01*
X99435500Y-123002736D01*
X99466389Y-123197763D01*
X99527107Y-123384632D01*
X99527409Y-123385561D01*
X99617056Y-123561501D01*
X99617058Y-123561504D01*
X99733115Y-123721246D01*
X99872753Y-123860884D01*
X100022234Y-123969486D01*
X100032499Y-123976944D01*
X100208439Y-124066591D01*
X100361852Y-124116437D01*
X100419526Y-124155874D01*
X100446725Y-124220233D01*
X100434810Y-124289079D01*
X100411214Y-124322049D01*
X99702584Y-125030681D01*
X99641261Y-125064166D01*
X99614903Y-125067000D01*
X98824298Y-125067000D01*
X98787432Y-125069901D01*
X98787426Y-125069902D01*
X98629606Y-125115754D01*
X98629603Y-125115755D01*
X98488137Y-125199417D01*
X98488129Y-125199423D01*
X98371923Y-125315629D01*
X98371917Y-125315637D01*
X98288255Y-125457103D01*
X98288254Y-125457106D01*
X98242402Y-125614926D01*
X98242401Y-125614932D01*
X98239500Y-125651798D01*
X98239500Y-126083201D01*
X98242401Y-126120067D01*
X98242402Y-126120073D01*
X98288254Y-126277893D01*
X98288255Y-126277896D01*
X98371917Y-126419362D01*
X98376702Y-126425531D01*
X98374256Y-126427427D01*
X98400857Y-126476142D01*
X98395873Y-126545834D01*
X98375069Y-126578203D01*
X98376702Y-126579469D01*
X98371917Y-126585637D01*
X98288255Y-126727103D01*
X98288254Y-126727106D01*
X98242402Y-126884926D01*
X98242402Y-126884930D01*
X98239500Y-126921798D01*
X98239500Y-127353209D01*
X98241924Y-127384011D01*
X98227558Y-127452388D01*
X98178505Y-127502143D01*
X98110339Y-127517480D01*
X98052333Y-127498729D01*
X98030060Y-127484733D01*
X97859790Y-127425153D01*
X97859786Y-127425152D01*
X97750616Y-127412852D01*
X97686202Y-127385785D01*
X97646647Y-127328190D01*
X97640500Y-127289632D01*
X97640500Y-127256560D01*
X97640501Y-127256547D01*
X97640501Y-127088446D01*
X97640501Y-127088444D01*
X97599577Y-126935716D01*
X97599575Y-126935713D01*
X97599575Y-126935711D01*
X97599574Y-126935710D01*
X97570257Y-126884932D01*
X97570255Y-126884930D01*
X97520521Y-126798787D01*
X97520520Y-126798785D01*
X97408716Y-126686981D01*
X97408715Y-126686980D01*
X97404385Y-126682650D01*
X97404374Y-126682640D01*
X96227589Y-125505855D01*
X96227587Y-125505852D01*
X96218316Y-125496581D01*
X96195955Y-125463675D01*
X96195716Y-125463817D01*
X96193460Y-125460003D01*
X96192189Y-125458132D01*
X96191745Y-125457106D01*
X96191744Y-125457102D01*
X96178601Y-125434879D01*
X96108083Y-125315638D01*
X96108076Y-125315629D01*
X95991870Y-125199423D01*
X95991862Y-125199417D01*
X95850396Y-125115755D01*
X95850393Y-125115754D01*
X95692573Y-125069902D01*
X95692567Y-125069901D01*
X95655701Y-125067000D01*
X95655694Y-125067000D01*
X94865098Y-125067000D01*
X94798059Y-125047315D01*
X94777417Y-125030681D01*
X94068389Y-124321653D01*
X94034904Y-124260330D01*
X94039888Y-124190638D01*
X94081760Y-124134705D01*
X94117752Y-124116041D01*
X94271371Y-124066126D01*
X94447242Y-123976514D01*
X94606919Y-123860503D01*
X94606924Y-123860499D01*
X94746499Y-123720924D01*
X94746503Y-123720919D01*
X94862514Y-123561242D01*
X94952126Y-123385373D01*
X95013123Y-123197646D01*
X95044000Y-123002697D01*
X95044000Y-122400000D01*
X94290000Y-122400000D01*
X94290000Y-121900000D01*
X95044000Y-121900000D01*
X95044000Y-121297302D01*
X95013123Y-121102353D01*
X94952126Y-120914626D01*
X94862514Y-120738757D01*
X94746503Y-120579080D01*
X94746499Y-120579075D01*
X94606924Y-120439500D01*
X94606919Y-120439496D01*
X94447242Y-120323485D01*
X94271371Y-120233873D01*
X94083642Y-120172876D01*
X94040000Y-120165963D01*
X94040000Y-121116988D01*
X93982993Y-121084075D01*
X93855826Y-121050000D01*
X93724174Y-121050000D01*
X93597007Y-121084075D01*
X93540000Y-121116988D01*
X93540000Y-120165963D01*
X93496357Y-120172876D01*
X93496356Y-120172876D01*
X93308628Y-120233873D01*
X93132757Y-120323485D01*
X92973080Y-120439496D01*
X92973075Y-120439500D01*
X92833500Y-120579075D01*
X92751759Y-120691582D01*
X92696429Y-120734247D01*
X92626815Y-120740226D01*
X92565020Y-120707620D01*
X92545902Y-120683792D01*
X92482712Y-120581344D01*
X92358657Y-120457289D01*
X92358656Y-120457288D01*
X92209334Y-120365186D01*
X92042797Y-120310001D01*
X92042795Y-120310000D01*
X91940016Y-120299500D01*
X91625226Y-120299500D01*
X91558187Y-120279815D01*
X91512432Y-120227011D01*
X91502488Y-120157853D01*
X91531513Y-120094297D01*
X91568930Y-120065016D01*
X91651501Y-120022944D01*
X91699283Y-119988228D01*
X91811246Y-119906884D01*
X91811248Y-119906881D01*
X91811252Y-119906879D01*
X91950879Y-119767252D01*
X91950881Y-119767248D01*
X91950884Y-119767246D01*
X92001779Y-119697192D01*
X92066944Y-119607501D01*
X92156591Y-119431561D01*
X92217610Y-119243763D01*
X92225447Y-119194284D01*
X92248500Y-119048736D01*
X92248500Y-118851263D01*
X102231500Y-118851263D01*
X102231500Y-119048736D01*
X102262389Y-119243763D01*
X102290805Y-119331216D01*
X102323409Y-119431561D01*
X102344500Y-119472953D01*
X102413058Y-119607504D01*
X102529115Y-119767246D01*
X102668753Y-119906884D01*
X102802557Y-120004096D01*
X102828499Y-120022944D01*
X103004439Y-120112591D01*
X103100008Y-120143643D01*
X103192236Y-120173610D01*
X103387264Y-120204500D01*
X103387269Y-120204500D01*
X105092736Y-120204500D01*
X105287763Y-120173610D01*
X105291521Y-120172389D01*
X105475561Y-120112591D01*
X105651501Y-120022944D01*
X105741192Y-119957779D01*
X105811246Y-119906884D01*
X105811248Y-119906881D01*
X105811252Y-119906879D01*
X105950879Y-119767252D01*
X105950881Y-119767248D01*
X105950884Y-119767246D01*
X106001779Y-119697192D01*
X106066944Y-119607501D01*
X106156591Y-119431561D01*
X106217610Y-119243763D01*
X106225447Y-119194284D01*
X106248500Y-119048736D01*
X106248500Y-118851263D01*
X106217610Y-118656236D01*
X106197270Y-118593637D01*
X106156591Y-118468439D01*
X106066944Y-118292499D01*
X106059486Y-118282234D01*
X105950884Y-118132753D01*
X105811246Y-117993115D01*
X105651504Y-117877058D01*
X105651503Y-117877057D01*
X105651501Y-117877056D01*
X105475561Y-117787409D01*
X105475558Y-117787408D01*
X105287763Y-117726389D01*
X105092736Y-117695500D01*
X105092731Y-117695500D01*
X103387269Y-117695500D01*
X103387264Y-117695500D01*
X103192236Y-117726389D01*
X103004441Y-117787408D01*
X102828495Y-117877058D01*
X102668753Y-117993115D01*
X102529115Y-118132753D01*
X102413058Y-118292495D01*
X102323408Y-118468441D01*
X102262389Y-118656236D01*
X102231500Y-118851263D01*
X92248500Y-118851263D01*
X92217610Y-118656236D01*
X92197270Y-118593637D01*
X92156591Y-118468439D01*
X92066944Y-118292499D01*
X92059486Y-118282234D01*
X91950884Y-118132753D01*
X91811246Y-117993115D01*
X91651504Y-117877058D01*
X91651503Y-117877057D01*
X91651501Y-117877056D01*
X91475561Y-117787409D01*
X91475558Y-117787408D01*
X91287763Y-117726389D01*
X91092736Y-117695500D01*
X91092731Y-117695500D01*
X89387269Y-117695500D01*
X89387264Y-117695500D01*
X89192236Y-117726389D01*
X89004441Y-117787408D01*
X88828495Y-117877058D01*
X88668753Y-117993115D01*
X88668749Y-117993119D01*
X88556181Y-118105688D01*
X88494858Y-118139173D01*
X88425166Y-118134189D01*
X88369233Y-118092317D01*
X88344816Y-118026853D01*
X88344500Y-118018007D01*
X88344500Y-114952135D01*
X95439500Y-114952135D01*
X95439500Y-116247870D01*
X95439501Y-116247876D01*
X95445908Y-116307483D01*
X95496202Y-116442328D01*
X95496206Y-116442335D01*
X95582452Y-116557544D01*
X95582455Y-116557547D01*
X95697664Y-116643793D01*
X95697671Y-116643797D01*
X95832517Y-116694091D01*
X95832516Y-116694091D01*
X95839444Y-116694835D01*
X95892127Y-116700500D01*
X97187872Y-116700499D01*
X97247483Y-116694091D01*
X97382329Y-116643797D01*
X97382329Y-116643796D01*
X97382331Y-116643796D01*
X97431993Y-116606618D01*
X97497454Y-116582201D01*
X97551097Y-116590258D01*
X97737678Y-116662539D01*
X97938072Y-116700000D01*
X98141928Y-116700000D01*
X98342322Y-116662539D01*
X98532412Y-116588899D01*
X98532416Y-116588897D01*
X98620686Y-116534241D01*
X98620686Y-116534240D01*
X97981300Y-115894854D01*
X98000504Y-115900000D01*
X98079496Y-115900000D01*
X98155796Y-115879556D01*
X98224205Y-115840060D01*
X98280060Y-115784205D01*
X98319556Y-115715796D01*
X98340000Y-115639496D01*
X98340000Y-115600000D01*
X98393553Y-115600000D01*
X98977465Y-116183912D01*
X98979247Y-116181553D01*
X98979248Y-116181551D01*
X99070113Y-115999069D01*
X99070116Y-115999063D01*
X99125902Y-115802992D01*
X99125903Y-115802989D01*
X99144713Y-115600000D01*
X99144713Y-115599999D01*
X99125903Y-115397010D01*
X99125902Y-115397007D01*
X99070116Y-115200936D01*
X99070113Y-115200930D01*
X98979249Y-115018449D01*
X98979247Y-115018447D01*
X98977465Y-115016087D01*
X98393553Y-115600000D01*
X98340000Y-115600000D01*
X98340000Y-115560504D01*
X98319556Y-115484204D01*
X98280060Y-115415795D01*
X98224205Y-115359940D01*
X98155796Y-115320444D01*
X98079496Y-115300000D01*
X98000504Y-115300000D01*
X97981301Y-115305145D01*
X98040000Y-115246447D01*
X98620687Y-114665758D01*
X98532413Y-114611101D01*
X98532411Y-114611100D01*
X98342321Y-114537460D01*
X98141928Y-114500000D01*
X97938072Y-114500000D01*
X97737677Y-114537460D01*
X97551098Y-114609741D01*
X97481474Y-114615603D01*
X97431993Y-114593381D01*
X97382331Y-114556204D01*
X97382329Y-114556203D01*
X97382328Y-114556202D01*
X97247482Y-114505908D01*
X97247483Y-114505908D01*
X97187883Y-114499501D01*
X97187881Y-114499500D01*
X97187873Y-114499500D01*
X97187864Y-114499500D01*
X95892129Y-114499500D01*
X95892123Y-114499501D01*
X95832516Y-114505908D01*
X95697671Y-114556202D01*
X95697664Y-114556206D01*
X95582455Y-114642452D01*
X95582452Y-114642455D01*
X95496206Y-114757664D01*
X95496202Y-114757671D01*
X95445908Y-114892517D01*
X95439501Y-114952116D01*
X95439500Y-114952135D01*
X88344500Y-114952135D01*
X88344500Y-112796096D01*
X88364185Y-112729057D01*
X88380814Y-112708420D01*
X88895717Y-112193516D01*
X88957037Y-112160034D01*
X89026728Y-112165018D01*
X89082662Y-112206889D01*
X89107079Y-112272354D01*
X89105897Y-112299923D01*
X89105963Y-112300000D01*
X90056988Y-112300000D01*
X90024075Y-112357007D01*
X89990000Y-112484174D01*
X89990000Y-112615826D01*
X90024075Y-112742993D01*
X90056988Y-112800000D01*
X89105964Y-112800000D01*
X89112876Y-112843642D01*
X89112876Y-112843643D01*
X89173873Y-113031371D01*
X89263485Y-113207242D01*
X89379496Y-113366919D01*
X89379500Y-113366924D01*
X89519075Y-113506499D01*
X89519080Y-113506503D01*
X89678757Y-113622514D01*
X89854626Y-113712126D01*
X90042353Y-113773123D01*
X90237303Y-113804000D01*
X90840000Y-113804000D01*
X90840000Y-113050000D01*
X91340000Y-113050000D01*
X91340000Y-113804000D01*
X91942697Y-113804000D01*
X92137646Y-113773123D01*
X92325373Y-113712126D01*
X92501242Y-113622514D01*
X92660919Y-113506503D01*
X92660924Y-113506499D01*
X92800499Y-113366924D01*
X92800503Y-113366919D01*
X92916514Y-113207242D01*
X93006126Y-113031371D01*
X93067123Y-112843643D01*
X93067123Y-112843642D01*
X93074036Y-112800000D01*
X92123012Y-112800000D01*
X92155925Y-112742993D01*
X92190000Y-112615826D01*
X92190000Y-112484174D01*
X92181181Y-112451263D01*
X101381500Y-112451263D01*
X101381500Y-112648736D01*
X101412389Y-112843763D01*
X101469216Y-113018656D01*
X101473409Y-113031561D01*
X101563056Y-113207501D01*
X101563058Y-113207504D01*
X101679115Y-113367246D01*
X101818753Y-113506884D01*
X101946941Y-113600016D01*
X101978499Y-113622944D01*
X102154439Y-113712591D01*
X102279637Y-113753270D01*
X102342236Y-113773610D01*
X102537264Y-113804500D01*
X102537269Y-113804500D01*
X104242736Y-113804500D01*
X104437763Y-113773610D01*
X104439262Y-113773123D01*
X104625561Y-113712591D01*
X104801501Y-113622944D01*
X104928516Y-113530663D01*
X104961246Y-113506884D01*
X104961248Y-113506881D01*
X104961252Y-113506879D01*
X105100879Y-113367252D01*
X105100881Y-113367248D01*
X105100884Y-113367246D01*
X105190910Y-113243334D01*
X105216944Y-113207501D01*
X105306591Y-113031561D01*
X105367610Y-112843763D01*
X105368366Y-112838987D01*
X105398500Y-112648736D01*
X105398500Y-112451263D01*
X105367610Y-112256236D01*
X105325711Y-112127285D01*
X105306591Y-112068439D01*
X105216944Y-111892499D01*
X105209486Y-111882234D01*
X105100884Y-111732753D01*
X104961246Y-111593115D01*
X104801504Y-111477058D01*
X104801503Y-111477057D01*
X104801501Y-111477056D01*
X104625561Y-111387409D01*
X104606889Y-111381342D01*
X104437763Y-111326389D01*
X104242736Y-111295500D01*
X104242731Y-111295500D01*
X102537269Y-111295500D01*
X102537264Y-111295500D01*
X102342236Y-111326389D01*
X102154441Y-111387408D01*
X101978495Y-111477058D01*
X101818753Y-111593115D01*
X101679115Y-111732753D01*
X101563058Y-111892495D01*
X101473408Y-112068441D01*
X101412389Y-112256236D01*
X101381500Y-112451263D01*
X92181181Y-112451263D01*
X92155925Y-112357007D01*
X92123012Y-112300000D01*
X93074036Y-112300000D01*
X93067123Y-112256357D01*
X93067123Y-112256356D01*
X93006126Y-112068628D01*
X92916514Y-111892757D01*
X92800503Y-111733080D01*
X92800499Y-111733075D01*
X92660924Y-111593500D01*
X92660919Y-111593496D01*
X92501242Y-111477485D01*
X92325373Y-111387873D01*
X92137646Y-111326876D01*
X91942697Y-111296000D01*
X91340000Y-111296000D01*
X91340000Y-112050000D01*
X90840000Y-112050000D01*
X90840000Y-111296000D01*
X90237303Y-111296000D01*
X90086598Y-111319869D01*
X90017304Y-111310914D01*
X89963852Y-111265918D01*
X89943213Y-111199166D01*
X89961938Y-111131853D01*
X89979519Y-111109715D01*
X90852416Y-110236818D01*
X90913739Y-110203333D01*
X90940097Y-110200499D01*
X91640002Y-110200499D01*
X91640008Y-110200499D01*
X91742797Y-110189999D01*
X91909334Y-110134814D01*
X92058656Y-110042712D01*
X92182712Y-109918656D01*
X92274814Y-109769334D01*
X92329999Y-109602797D01*
X92340500Y-109500009D01*
X92340499Y-108499992D01*
X92329999Y-108397203D01*
X92274814Y-108230666D01*
X92223371Y-108147263D01*
X93035500Y-108147263D01*
X93035500Y-109852736D01*
X93066389Y-110047763D01*
X93122412Y-110220182D01*
X93127409Y-110235561D01*
X93217056Y-110411501D01*
X93217058Y-110411504D01*
X93333115Y-110571246D01*
X93472753Y-110710884D01*
X93622234Y-110819486D01*
X93632499Y-110826944D01*
X93808439Y-110916591D01*
X93933637Y-110957270D01*
X93996236Y-110977610D01*
X94191264Y-111008500D01*
X94191269Y-111008500D01*
X94388736Y-111008500D01*
X94583763Y-110977610D01*
X94771561Y-110916591D01*
X94947501Y-110826944D01*
X95037192Y-110761779D01*
X95107246Y-110710884D01*
X95107248Y-110710881D01*
X95107252Y-110710879D01*
X95246879Y-110571252D01*
X95246881Y-110571248D01*
X95246884Y-110571246D01*
X95297779Y-110501192D01*
X95362944Y-110411501D01*
X95452591Y-110235561D01*
X95513610Y-110047763D01*
X95519162Y-110012712D01*
X95544500Y-109852736D01*
X95544500Y-108147263D01*
X98935500Y-108147263D01*
X98935500Y-109852736D01*
X98966389Y-110047763D01*
X99022412Y-110220182D01*
X99027409Y-110235561D01*
X99117056Y-110411501D01*
X99117058Y-110411504D01*
X99233115Y-110571246D01*
X99372753Y-110710884D01*
X99522234Y-110819486D01*
X99532499Y-110826944D01*
X99708439Y-110916591D01*
X99833637Y-110957270D01*
X99896236Y-110977610D01*
X100091264Y-111008500D01*
X100091269Y-111008500D01*
X100288736Y-111008500D01*
X100483763Y-110977610D01*
X100671561Y-110916591D01*
X100847501Y-110826944D01*
X100937192Y-110761779D01*
X101007246Y-110710884D01*
X101007248Y-110710881D01*
X101007252Y-110710879D01*
X101146879Y-110571252D01*
X101146881Y-110571248D01*
X101146884Y-110571246D01*
X101197779Y-110501192D01*
X101262944Y-110411501D01*
X101352591Y-110235561D01*
X101413610Y-110047763D01*
X101419162Y-110012712D01*
X101444500Y-109852736D01*
X101444500Y-108147263D01*
X101413610Y-107952236D01*
X101385326Y-107865187D01*
X101352591Y-107764439D01*
X101262944Y-107588499D01*
X101255486Y-107578234D01*
X101146884Y-107428753D01*
X101007246Y-107289115D01*
X100847504Y-107173058D01*
X100847503Y-107173057D01*
X100847501Y-107173056D01*
X100671561Y-107083409D01*
X100671558Y-107083408D01*
X100483763Y-107022389D01*
X100288736Y-106991500D01*
X100288731Y-106991500D01*
X100091269Y-106991500D01*
X100091264Y-106991500D01*
X99896236Y-107022389D01*
X99708441Y-107083408D01*
X99532495Y-107173058D01*
X99372753Y-107289115D01*
X99233115Y-107428753D01*
X99117058Y-107588495D01*
X99027408Y-107764441D01*
X98966389Y-107952236D01*
X98935500Y-108147263D01*
X95544500Y-108147263D01*
X95513610Y-107952236D01*
X95485326Y-107865187D01*
X95452591Y-107764439D01*
X95362944Y-107588499D01*
X95355486Y-107578234D01*
X95246884Y-107428753D01*
X95107246Y-107289115D01*
X94947504Y-107173058D01*
X94947503Y-107173057D01*
X94947501Y-107173056D01*
X94771561Y-107083409D01*
X94771558Y-107083408D01*
X94583763Y-107022389D01*
X94388736Y-106991500D01*
X94388731Y-106991500D01*
X94191269Y-106991500D01*
X94191264Y-106991500D01*
X93996236Y-107022389D01*
X93808441Y-107083408D01*
X93632495Y-107173058D01*
X93472753Y-107289115D01*
X93333115Y-107428753D01*
X93217058Y-107588495D01*
X93127408Y-107764441D01*
X93066389Y-107952236D01*
X93035500Y-108147263D01*
X92223371Y-108147263D01*
X92182712Y-108081344D01*
X92058656Y-107957288D01*
X91909334Y-107865186D01*
X91742797Y-107810001D01*
X91742795Y-107810000D01*
X91640010Y-107799500D01*
X90839998Y-107799500D01*
X90839980Y-107799501D01*
X90737203Y-107810000D01*
X90737200Y-107810001D01*
X90570668Y-107865185D01*
X90570663Y-107865187D01*
X90421342Y-107957289D01*
X90327681Y-108050951D01*
X90266358Y-108084436D01*
X90196666Y-108079452D01*
X90152319Y-108050951D01*
X90058657Y-107957289D01*
X90058656Y-107957288D01*
X89909334Y-107865186D01*
X89742797Y-107810001D01*
X89742795Y-107810000D01*
X89640010Y-107799500D01*
X88839998Y-107799500D01*
X88839980Y-107799501D01*
X88737203Y-107810000D01*
X88737200Y-107810001D01*
X88570668Y-107865185D01*
X88570663Y-107865187D01*
X88421342Y-107957289D01*
X88297289Y-108081342D01*
X88205187Y-108230663D01*
X88205185Y-108230668D01*
X88177405Y-108314504D01*
X88137632Y-108371949D01*
X88073116Y-108398772D01*
X88059699Y-108399500D01*
X87568500Y-108399500D01*
X87501461Y-108379815D01*
X87455706Y-108327011D01*
X87444500Y-108275500D01*
X87444500Y-108147263D01*
X87413610Y-107952236D01*
X87385326Y-107865187D01*
X87352591Y-107764439D01*
X87262944Y-107588499D01*
X87255486Y-107578234D01*
X87146884Y-107428753D01*
X87007246Y-107289115D01*
X86847504Y-107173058D01*
X86847503Y-107173057D01*
X86847501Y-107173056D01*
X86671561Y-107083409D01*
X86671558Y-107083408D01*
X86483763Y-107022389D01*
X86288736Y-106991500D01*
X86288731Y-106991500D01*
X86091269Y-106991500D01*
X86091264Y-106991500D01*
X85896236Y-107022389D01*
X85708441Y-107083408D01*
X85532495Y-107173058D01*
X85372753Y-107289115D01*
X85233115Y-107428753D01*
X85117058Y-107588495D01*
X85027408Y-107764441D01*
X84982431Y-107902867D01*
X84942993Y-107960543D01*
X84878635Y-107987741D01*
X84809788Y-107975826D01*
X84758313Y-107928582D01*
X84740500Y-107864549D01*
X84740500Y-104214851D01*
X84760185Y-104147812D01*
X84812989Y-104102057D01*
X84882147Y-104092113D01*
X84945703Y-104121138D01*
X84970227Y-104150061D01*
X85069394Y-104311888D01*
X85069395Y-104311890D01*
X85069398Y-104311893D01*
X85233010Y-104503458D01*
X85351974Y-104605063D01*
X85424577Y-104667072D01*
X85424580Y-104667073D01*
X85639374Y-104798700D01*
X85872123Y-104895107D01*
X86117086Y-104953917D01*
X86368234Y-104973683D01*
X86619382Y-104953917D01*
X86864345Y-104895107D01*
X87097093Y-104798700D01*
X87311893Y-104667070D01*
X87503458Y-104503458D01*
X87667070Y-104311893D01*
X87798700Y-104097093D01*
X87895107Y-103864345D01*
X87953917Y-103619382D01*
X87973683Y-103368234D01*
X87953917Y-103117086D01*
X87895107Y-102872123D01*
X87866921Y-102804075D01*
X87798700Y-102639374D01*
X87717713Y-102507217D01*
X87699468Y-102439772D01*
X87720584Y-102373169D01*
X87749125Y-102343163D01*
X87825780Y-102285780D01*
X87912030Y-102170565D01*
X87962325Y-102035717D01*
X87968734Y-101976107D01*
X87968734Y-101454500D01*
X87988419Y-101387461D01*
X88041223Y-101341706D01*
X88092734Y-101330500D01*
X90870909Y-101330500D01*
X90937948Y-101350185D01*
G37*
%TD.AperFunction*%
%TA.AperFunction,Conductor*%
G36*
X109670858Y-114728030D02*
G01*
X109722058Y-114775573D01*
X109739500Y-114838987D01*
X109739500Y-125675500D01*
X109719815Y-125742539D01*
X109667011Y-125788294D01*
X109615500Y-125799500D01*
X108939998Y-125799500D01*
X108939980Y-125799501D01*
X108837203Y-125810000D01*
X108837200Y-125810001D01*
X108670668Y-125865185D01*
X108670663Y-125865187D01*
X108521342Y-125957289D01*
X108427681Y-126050951D01*
X108366358Y-126084436D01*
X108296666Y-126079452D01*
X108252319Y-126050951D01*
X108158657Y-125957289D01*
X108158656Y-125957288D01*
X108065888Y-125900069D01*
X108009336Y-125865187D01*
X108009331Y-125865185D01*
X107987183Y-125857846D01*
X107842797Y-125810001D01*
X107842795Y-125810000D01*
X107740010Y-125799500D01*
X106939998Y-125799500D01*
X106939980Y-125799501D01*
X106837203Y-125810000D01*
X106837200Y-125810001D01*
X106670668Y-125865185D01*
X106670663Y-125865187D01*
X106521342Y-125957289D01*
X106397289Y-126081342D01*
X106305187Y-126230663D01*
X106305185Y-126230668D01*
X106277405Y-126314504D01*
X106237632Y-126371949D01*
X106173116Y-126398772D01*
X106159699Y-126399500D01*
X106135212Y-126399500D01*
X106068173Y-126379815D01*
X106034894Y-126348386D01*
X105950879Y-126232748D01*
X105811252Y-126093121D01*
X105811246Y-126093115D01*
X105651504Y-125977058D01*
X105651503Y-125977057D01*
X105651501Y-125977056D01*
X105475561Y-125887409D01*
X105475558Y-125887408D01*
X105287763Y-125826389D01*
X105092736Y-125795500D01*
X105092731Y-125795500D01*
X103387269Y-125795500D01*
X103387264Y-125795500D01*
X103192235Y-125826390D01*
X103177003Y-125831339D01*
X103107162Y-125833332D01*
X103047330Y-125797250D01*
X103016504Y-125734549D01*
X103024470Y-125665135D01*
X103051003Y-125625730D01*
X103139918Y-125536815D01*
X103201240Y-125503333D01*
X103227597Y-125500499D01*
X103340002Y-125500499D01*
X103340008Y-125500499D01*
X103442797Y-125489999D01*
X103609334Y-125434814D01*
X103758656Y-125342712D01*
X103777317Y-125324051D01*
X103838639Y-125290564D01*
X103908331Y-125295547D01*
X103952681Y-125324049D01*
X103996344Y-125367712D01*
X104145666Y-125459814D01*
X104312203Y-125514999D01*
X104414991Y-125525500D01*
X105465008Y-125525499D01*
X105465016Y-125525498D01*
X105465019Y-125525498D01*
X105521302Y-125519748D01*
X105567797Y-125514999D01*
X105734334Y-125459814D01*
X105883656Y-125367712D01*
X106007712Y-125243656D01*
X106099814Y-125094334D01*
X106154999Y-124927797D01*
X106165500Y-124825009D01*
X106165499Y-124049992D01*
X106154999Y-123947203D01*
X106099814Y-123780666D01*
X106007712Y-123631344D01*
X105883656Y-123507288D01*
X105880819Y-123505538D01*
X105879283Y-123503830D01*
X105877989Y-123502807D01*
X105878163Y-123502585D01*
X105834096Y-123453594D01*
X105822872Y-123384632D01*
X105850713Y-123320549D01*
X105880817Y-123294462D01*
X105883656Y-123292712D01*
X106007712Y-123168656D01*
X106099814Y-123019334D01*
X106154999Y-122852797D01*
X106165500Y-122750009D01*
X106165499Y-122037595D01*
X106185183Y-121970557D01*
X106201809Y-121949924D01*
X106324321Y-121827412D01*
X106385642Y-121793930D01*
X106455334Y-121798914D01*
X106511267Y-121840786D01*
X106531778Y-121895778D01*
X106536000Y-121900000D01*
X107290000Y-121900000D01*
X107290000Y-122400000D01*
X106536000Y-122400000D01*
X106536000Y-123002697D01*
X106566876Y-123197646D01*
X106627873Y-123385373D01*
X106717485Y-123561242D01*
X106833496Y-123720919D01*
X106833500Y-123720924D01*
X106973075Y-123860499D01*
X106973080Y-123860503D01*
X107132757Y-123976514D01*
X107308626Y-124066126D01*
X107496355Y-124127123D01*
X107539999Y-124134034D01*
X107540000Y-124134034D01*
X107540000Y-123183012D01*
X107597007Y-123215925D01*
X107724174Y-123250000D01*
X107855826Y-123250000D01*
X107982993Y-123215925D01*
X108040000Y-123183012D01*
X108040000Y-124134034D01*
X108083644Y-124127123D01*
X108271373Y-124066126D01*
X108447242Y-123976514D01*
X108606919Y-123860503D01*
X108606924Y-123860499D01*
X108746499Y-123720924D01*
X108746503Y-123720919D01*
X108862514Y-123561242D01*
X108952126Y-123385373D01*
X109013123Y-123197646D01*
X109044000Y-123002697D01*
X109044000Y-122400000D01*
X108290000Y-122400000D01*
X108290000Y-121900000D01*
X109044000Y-121900000D01*
X109044000Y-121297302D01*
X109013123Y-121102353D01*
X108952126Y-120914626D01*
X108862514Y-120738757D01*
X108746503Y-120579080D01*
X108746499Y-120579075D01*
X108606924Y-120439500D01*
X108606919Y-120439496D01*
X108447242Y-120323485D01*
X108271371Y-120233873D01*
X108196999Y-120209708D01*
X108139323Y-120170270D01*
X108112125Y-120105912D01*
X108124040Y-120037066D01*
X108147630Y-120004103D01*
X108698506Y-119453228D01*
X108698511Y-119453224D01*
X108708714Y-119443020D01*
X108708716Y-119443020D01*
X108820520Y-119331216D01*
X108872124Y-119241835D01*
X108899577Y-119194285D01*
X108940500Y-119041557D01*
X108940500Y-118883443D01*
X108940500Y-115380300D01*
X108960185Y-115313261D01*
X109012989Y-115267506D01*
X109025482Y-115262599D01*
X109109334Y-115234814D01*
X109258656Y-115142712D01*
X109382712Y-115018656D01*
X109474814Y-114869334D01*
X109497795Y-114799981D01*
X109537566Y-114742538D01*
X109602082Y-114715715D01*
X109670858Y-114728030D01*
G37*
%TD.AperFunction*%
%TA.AperFunction,Conductor*%
G36*
X96774075Y-103077007D02*
G01*
X96740000Y-103204174D01*
X96740000Y-103335826D01*
X96774075Y-103462993D01*
X96806988Y-103520000D01*
X95133012Y-103520000D01*
X95165925Y-103462993D01*
X95200000Y-103335826D01*
X95200000Y-103204174D01*
X95165925Y-103077007D01*
X95133012Y-103020000D01*
X96806988Y-103020000D01*
X96774075Y-103077007D01*
G37*
%TD.AperFunction*%
%TA.AperFunction,Conductor*%
G36*
X99314075Y-103077007D02*
G01*
X99280000Y-103204174D01*
X99280000Y-103335826D01*
X99314075Y-103462993D01*
X99346988Y-103520000D01*
X97673012Y-103520000D01*
X97705925Y-103462993D01*
X97740000Y-103335826D01*
X97740000Y-103204174D01*
X97705925Y-103077007D01*
X97673012Y-103020000D01*
X99346988Y-103020000D01*
X99314075Y-103077007D01*
G37*
%TD.AperFunction*%
%TA.AperFunction,Conductor*%
G36*
X94950000Y-102836988D02*
G01*
X94892993Y-102804075D01*
X94765826Y-102770000D01*
X94634174Y-102770000D01*
X94507007Y-102804075D01*
X94450000Y-102836988D01*
X94450000Y-101163012D01*
X94507007Y-101195925D01*
X94634174Y-101230000D01*
X94765826Y-101230000D01*
X94892993Y-101195925D01*
X94950000Y-101163012D01*
X94950000Y-102836988D01*
G37*
%TD.AperFunction*%
%TA.AperFunction,Conductor*%
G36*
X97490000Y-102836988D02*
G01*
X97432993Y-102804075D01*
X97305826Y-102770000D01*
X97174174Y-102770000D01*
X97047007Y-102804075D01*
X96990000Y-102836988D01*
X96990000Y-101163012D01*
X97047007Y-101195925D01*
X97174174Y-101230000D01*
X97305826Y-101230000D01*
X97432993Y-101195925D01*
X97490000Y-101163012D01*
X97490000Y-102836988D01*
G37*
%TD.AperFunction*%
%TA.AperFunction,Conductor*%
G36*
X100030000Y-102836988D02*
G01*
X99972993Y-102804075D01*
X99845826Y-102770000D01*
X99714174Y-102770000D01*
X99587007Y-102804075D01*
X99530000Y-102836988D01*
X99530000Y-101163012D01*
X99587007Y-101195925D01*
X99714174Y-101230000D01*
X99845826Y-101230000D01*
X99972993Y-101195925D01*
X100030000Y-101163012D01*
X100030000Y-102836988D01*
G37*
%TD.AperFunction*%
%TA.AperFunction,Conductor*%
G36*
X89171588Y-47520185D02*
G01*
X89217343Y-47572989D01*
X89227287Y-47642147D01*
X89198262Y-47705703D01*
X89142867Y-47742431D01*
X89004441Y-47787408D01*
X88828495Y-47877058D01*
X88668753Y-47993115D01*
X88529115Y-48132753D01*
X88413058Y-48292495D01*
X88323408Y-48468441D01*
X88262389Y-48656236D01*
X88231500Y-48851263D01*
X88231500Y-49048736D01*
X88262389Y-49243763D01*
X88323408Y-49431558D01*
X88323409Y-49431561D01*
X88413056Y-49607501D01*
X88413058Y-49607504D01*
X88529115Y-49767246D01*
X88668753Y-49906884D01*
X88818234Y-50015486D01*
X88828499Y-50022944D01*
X89004439Y-50112591D01*
X89129637Y-50153270D01*
X89192236Y-50173610D01*
X89387264Y-50204500D01*
X89387269Y-50204500D01*
X91092736Y-50204500D01*
X91287763Y-50173610D01*
X91311298Y-50165963D01*
X91475561Y-50112591D01*
X91651501Y-50022944D01*
X91741192Y-49957779D01*
X91811246Y-49906884D01*
X91811248Y-49906881D01*
X91811252Y-49906879D01*
X91950879Y-49767252D01*
X91950881Y-49767248D01*
X91950884Y-49767246D01*
X92001779Y-49697192D01*
X92066944Y-49607501D01*
X92156591Y-49431561D01*
X92217610Y-49243763D01*
X92248500Y-49048736D01*
X92248500Y-48851263D01*
X92217610Y-48656236D01*
X92197270Y-48593637D01*
X92156591Y-48468439D01*
X92066944Y-48292499D01*
X92059486Y-48282234D01*
X91950884Y-48132753D01*
X91811246Y-47993115D01*
X91651504Y-47877058D01*
X91651503Y-47877057D01*
X91651501Y-47877056D01*
X91475561Y-47787409D01*
X91475558Y-47787408D01*
X91337133Y-47742431D01*
X91279457Y-47702993D01*
X91252259Y-47638635D01*
X91264174Y-47569788D01*
X91311418Y-47518313D01*
X91375451Y-47500500D01*
X103104549Y-47500500D01*
X103171588Y-47520185D01*
X103217343Y-47572989D01*
X103227287Y-47642147D01*
X103198262Y-47705703D01*
X103142867Y-47742431D01*
X103004441Y-47787408D01*
X102828495Y-47877058D01*
X102668753Y-47993115D01*
X102529115Y-48132753D01*
X102413058Y-48292495D01*
X102323408Y-48468441D01*
X102262389Y-48656236D01*
X102231500Y-48851263D01*
X102231500Y-49048736D01*
X102262389Y-49243763D01*
X102323408Y-49431558D01*
X102323409Y-49431561D01*
X102413056Y-49607501D01*
X102413058Y-49607504D01*
X102529115Y-49767246D01*
X102668753Y-49906884D01*
X102818234Y-50015486D01*
X102828499Y-50022944D01*
X103004439Y-50112591D01*
X103129637Y-50153270D01*
X103192236Y-50173610D01*
X103387264Y-50204500D01*
X103387269Y-50204500D01*
X105092736Y-50204500D01*
X105287763Y-50173610D01*
X105311298Y-50165963D01*
X105475561Y-50112591D01*
X105651501Y-50022944D01*
X105741192Y-49957779D01*
X105811246Y-49906884D01*
X105811248Y-49906881D01*
X105811252Y-49906879D01*
X105950879Y-49767252D01*
X105950881Y-49767248D01*
X105950884Y-49767246D01*
X106001779Y-49697192D01*
X106066944Y-49607501D01*
X106156591Y-49431561D01*
X106217610Y-49243763D01*
X106248500Y-49048736D01*
X106248500Y-48851263D01*
X106217610Y-48656236D01*
X106197270Y-48593637D01*
X106156591Y-48468439D01*
X106066944Y-48292499D01*
X106059486Y-48282234D01*
X105950884Y-48132753D01*
X105811246Y-47993115D01*
X105651504Y-47877058D01*
X105651503Y-47877057D01*
X105651501Y-47877056D01*
X105475561Y-47787409D01*
X105475558Y-47787408D01*
X105337133Y-47742431D01*
X105279457Y-47702993D01*
X105252259Y-47638635D01*
X105264174Y-47569788D01*
X105311418Y-47518313D01*
X105375451Y-47500500D01*
X109615500Y-47500500D01*
X109682539Y-47520185D01*
X109728294Y-47572989D01*
X109739500Y-47624500D01*
X109739500Y-93864549D01*
X109719815Y-93931588D01*
X109667011Y-93977343D01*
X109597853Y-93987287D01*
X109534297Y-93958262D01*
X109497569Y-93902867D01*
X109474062Y-93830520D01*
X109452591Y-93764439D01*
X109362944Y-93588499D01*
X109355486Y-93578234D01*
X109246884Y-93428753D01*
X109107246Y-93289115D01*
X108947504Y-93173058D01*
X108947503Y-93173057D01*
X108947501Y-93173056D01*
X108771561Y-93083409D01*
X108771558Y-93083408D01*
X108583763Y-93022389D01*
X108388736Y-92991500D01*
X108388731Y-92991500D01*
X108191269Y-92991500D01*
X108191264Y-92991500D01*
X107996236Y-93022389D01*
X107808441Y-93083408D01*
X107632495Y-93173058D01*
X107472753Y-93289115D01*
X107333115Y-93428753D01*
X107217058Y-93588495D01*
X107127408Y-93764441D01*
X107066389Y-93952236D01*
X107035500Y-94147263D01*
X107035500Y-95852736D01*
X107066389Y-96047763D01*
X107094881Y-96135450D01*
X107127409Y-96235561D01*
X107217056Y-96411501D01*
X107217058Y-96411504D01*
X107333115Y-96571246D01*
X107472753Y-96710884D01*
X107622234Y-96819486D01*
X107632499Y-96826944D01*
X107808439Y-96916591D01*
X107933637Y-96957270D01*
X107996236Y-96977610D01*
X108191264Y-97008500D01*
X108191269Y-97008500D01*
X108388736Y-97008500D01*
X108583763Y-96977610D01*
X108583766Y-96977609D01*
X108771561Y-96916591D01*
X108947501Y-96826944D01*
X109037192Y-96761779D01*
X109107246Y-96710884D01*
X109107248Y-96710881D01*
X109107252Y-96710879D01*
X109246879Y-96571252D01*
X109246881Y-96571248D01*
X109246884Y-96571246D01*
X109297779Y-96501192D01*
X109362944Y-96411501D01*
X109452591Y-96235561D01*
X109497569Y-96097131D01*
X109537006Y-96039456D01*
X109601365Y-96012258D01*
X109670211Y-96024173D01*
X109721687Y-96071417D01*
X109739500Y-96135450D01*
X109739500Y-99016636D01*
X109719815Y-99083675D01*
X109667011Y-99129430D01*
X109597853Y-99139374D01*
X109583330Y-99135668D01*
X109583269Y-99135927D01*
X109575717Y-99134142D01*
X109516117Y-99127735D01*
X109516115Y-99127734D01*
X109516107Y-99127734D01*
X109516098Y-99127734D01*
X107220363Y-99127734D01*
X107220355Y-99127735D01*
X107156270Y-99134624D01*
X107087511Y-99122217D01*
X107036375Y-99074605D01*
X107019097Y-99006906D01*
X107025087Y-98973015D01*
X107067123Y-98843640D01*
X107074036Y-98800000D01*
X106123012Y-98800000D01*
X106155925Y-98742993D01*
X106190000Y-98615826D01*
X106190000Y-98484174D01*
X106155925Y-98357007D01*
X106123012Y-98300000D01*
X107074036Y-98300000D01*
X107067123Y-98256357D01*
X107067123Y-98256356D01*
X107006126Y-98068628D01*
X106916514Y-97892757D01*
X106800503Y-97733080D01*
X106800499Y-97733075D01*
X106660924Y-97593500D01*
X106660919Y-97593496D01*
X106501242Y-97477485D01*
X106325373Y-97387873D01*
X106137646Y-97326876D01*
X105942697Y-97296000D01*
X105340000Y-97296000D01*
X105340000Y-98050000D01*
X104840000Y-98050000D01*
X104840000Y-97296000D01*
X104237303Y-97296000D01*
X104042353Y-97326876D01*
X103854626Y-97387873D01*
X103678757Y-97477485D01*
X103519080Y-97593496D01*
X103519075Y-97593500D01*
X103379500Y-97733075D01*
X103379496Y-97733080D01*
X103263485Y-97892757D01*
X103173873Y-98068628D01*
X103112876Y-98256356D01*
X103112876Y-98256357D01*
X103105964Y-98300000D01*
X104056988Y-98300000D01*
X104024075Y-98357007D01*
X103990000Y-98484174D01*
X103990000Y-98615826D01*
X104024075Y-98742993D01*
X104056988Y-98800000D01*
X103105964Y-98800000D01*
X103112876Y-98843642D01*
X103112876Y-98843643D01*
X103173873Y-99031371D01*
X103263485Y-99207242D01*
X103379496Y-99366919D01*
X103379500Y-99366924D01*
X103519075Y-99506499D01*
X103519080Y-99506503D01*
X103678757Y-99622514D01*
X103854626Y-99712126D01*
X104042353Y-99773123D01*
X104237303Y-99804000D01*
X104840000Y-99804000D01*
X104840000Y-99050000D01*
X105340000Y-99050000D01*
X105340000Y-99804000D01*
X105942697Y-99804000D01*
X106137646Y-99773123D01*
X106325373Y-99712126D01*
X106501242Y-99622514D01*
X106570849Y-99571943D01*
X106636655Y-99548463D01*
X106704709Y-99564288D01*
X106753404Y-99614394D01*
X106767734Y-99672261D01*
X106767734Y-101876104D01*
X106767735Y-101876110D01*
X106774142Y-101935717D01*
X106824436Y-102070562D01*
X106824440Y-102070569D01*
X106910686Y-102185778D01*
X106910689Y-102185781D01*
X106987338Y-102243161D01*
X107029209Y-102299095D01*
X107034193Y-102368786D01*
X107018754Y-102407217D01*
X106937767Y-102539374D01*
X106915575Y-102592953D01*
X106871734Y-102647356D01*
X106805440Y-102669421D01*
X106801014Y-102669500D01*
X103609091Y-102669500D01*
X103542052Y-102649815D01*
X103496711Y-102597909D01*
X103494037Y-102592175D01*
X103494034Y-102592170D01*
X103494033Y-102592169D01*
X103376684Y-102424575D01*
X103358494Y-102398597D01*
X103191402Y-102231506D01*
X103191396Y-102231501D01*
X103005842Y-102101575D01*
X102962217Y-102046998D01*
X102955023Y-101977500D01*
X102986546Y-101915145D01*
X103005842Y-101898425D01*
X103037720Y-101876104D01*
X103191401Y-101768495D01*
X103358495Y-101601401D01*
X103494035Y-101407830D01*
X103593903Y-101193663D01*
X103655063Y-100965408D01*
X103675659Y-100730000D01*
X103655063Y-100494592D01*
X103593903Y-100266337D01*
X103494035Y-100052171D01*
X103494034Y-100052169D01*
X103358494Y-99858597D01*
X103191402Y-99691506D01*
X103191395Y-99691501D01*
X103175488Y-99680363D01*
X103090354Y-99620751D01*
X102997834Y-99555967D01*
X102997830Y-99555965D01*
X102934280Y-99526331D01*
X102783663Y-99456097D01*
X102783659Y-99456096D01*
X102783655Y-99456094D01*
X102555413Y-99394938D01*
X102555403Y-99394936D01*
X102320001Y-99374341D01*
X102319999Y-99374341D01*
X102084596Y-99394936D01*
X102084586Y-99394938D01*
X101856344Y-99456094D01*
X101856335Y-99456098D01*
X101642171Y-99555964D01*
X101642169Y-99555965D01*
X101448597Y-99691505D01*
X101281508Y-99858594D01*
X101151269Y-100044595D01*
X101096692Y-100088219D01*
X101027193Y-100095412D01*
X100964839Y-100063890D01*
X100948119Y-100044594D01*
X100818113Y-99858926D01*
X100818108Y-99858920D01*
X100651082Y-99691894D01*
X100457578Y-99556399D01*
X100243492Y-99456570D01*
X100243486Y-99456567D01*
X100030000Y-99399364D01*
X100030000Y-100296988D01*
X99972993Y-100264075D01*
X99845826Y-100230000D01*
X99714174Y-100230000D01*
X99587007Y-100264075D01*
X99530000Y-100296988D01*
X99530000Y-99399364D01*
X99529999Y-99399364D01*
X99316513Y-99456567D01*
X99316507Y-99456570D01*
X99102422Y-99556399D01*
X99102420Y-99556400D01*
X98908926Y-99691886D01*
X98908920Y-99691891D01*
X98741891Y-99858920D01*
X98741890Y-99858922D01*
X98611575Y-100045031D01*
X98556998Y-100088655D01*
X98487499Y-100095848D01*
X98425145Y-100064326D01*
X98408425Y-100045031D01*
X98278109Y-99858922D01*
X98278108Y-99858920D01*
X98111082Y-99691894D01*
X97917578Y-99556399D01*
X97703492Y-99456570D01*
X97703486Y-99456567D01*
X97490000Y-99399364D01*
X97490000Y-100296988D01*
X97432993Y-100264075D01*
X97305826Y-100230000D01*
X97174174Y-100230000D01*
X97047007Y-100264075D01*
X96990000Y-100296988D01*
X96990000Y-99399364D01*
X96989999Y-99399364D01*
X96776513Y-99456567D01*
X96776507Y-99456570D01*
X96562422Y-99556399D01*
X96562420Y-99556400D01*
X96368926Y-99691886D01*
X96368920Y-99691891D01*
X96201891Y-99858920D01*
X96201890Y-99858922D01*
X96071575Y-100045031D01*
X96016998Y-100088655D01*
X95947499Y-100095848D01*
X95885145Y-100064326D01*
X95868425Y-100045031D01*
X95738109Y-99858922D01*
X95738108Y-99858920D01*
X95571082Y-99691894D01*
X95377578Y-99556399D01*
X95163492Y-99456570D01*
X95163486Y-99456567D01*
X94950000Y-99399364D01*
X94950000Y-100296988D01*
X94892993Y-100264075D01*
X94765826Y-100230000D01*
X94634174Y-100230000D01*
X94507007Y-100264075D01*
X94450000Y-100296988D01*
X94450000Y-99399364D01*
X94449999Y-99399364D01*
X94236513Y-99456567D01*
X94236507Y-99456570D01*
X94086905Y-99526331D01*
X94017827Y-99536823D01*
X93954043Y-99508303D01*
X93915804Y-99449827D01*
X93910500Y-99413949D01*
X93910500Y-99314841D01*
X93930185Y-99247802D01*
X93946819Y-99227160D01*
X98723819Y-94450160D01*
X98785142Y-94416675D01*
X98854834Y-94421659D01*
X98910767Y-94463531D01*
X98935184Y-94528995D01*
X98935500Y-94537841D01*
X98935500Y-95852736D01*
X98966389Y-96047763D01*
X98994881Y-96135450D01*
X99027409Y-96235561D01*
X99117056Y-96411501D01*
X99117058Y-96411504D01*
X99233115Y-96571246D01*
X99372753Y-96710884D01*
X99522234Y-96819486D01*
X99532499Y-96826944D01*
X99708439Y-96916591D01*
X99833637Y-96957270D01*
X99896236Y-96977610D01*
X100091264Y-97008500D01*
X100091269Y-97008500D01*
X100288736Y-97008500D01*
X100483763Y-96977610D01*
X100483766Y-96977609D01*
X100671561Y-96916591D01*
X100847501Y-96826944D01*
X100937192Y-96761779D01*
X101007246Y-96710884D01*
X101007248Y-96710881D01*
X101007252Y-96710879D01*
X101146879Y-96571252D01*
X101146881Y-96571248D01*
X101146884Y-96571246D01*
X101197779Y-96501192D01*
X101262944Y-96411501D01*
X101352591Y-96235561D01*
X101413610Y-96047763D01*
X101419162Y-96012712D01*
X101444500Y-95852736D01*
X101444500Y-94646096D01*
X101464185Y-94579057D01*
X101480815Y-94558419D01*
X102198506Y-93840727D01*
X102198511Y-93840724D01*
X102208714Y-93830520D01*
X102208716Y-93830520D01*
X102320520Y-93718716D01*
X102399577Y-93581784D01*
X102429534Y-93469981D01*
X102440500Y-93429058D01*
X102440500Y-93270943D01*
X102440500Y-92145908D01*
X102460185Y-92078869D01*
X102504271Y-92040363D01*
X102503187Y-92038605D01*
X102509332Y-92034814D01*
X102509334Y-92034814D01*
X102658656Y-91942712D01*
X102782712Y-91818656D01*
X102874814Y-91669334D01*
X102874815Y-91669331D01*
X102878605Y-91663187D01*
X102881343Y-91664876D01*
X102917891Y-91623185D01*
X102985043Y-91603887D01*
X103051968Y-91623957D01*
X103097418Y-91677024D01*
X103106802Y-91708485D01*
X103112390Y-91743765D01*
X103136724Y-91818656D01*
X103173409Y-91931561D01*
X103263056Y-92107501D01*
X103263058Y-92107504D01*
X103379115Y-92267246D01*
X103518753Y-92406884D01*
X103668234Y-92515486D01*
X103678499Y-92522944D01*
X103854439Y-92612591D01*
X103979637Y-92653270D01*
X104042236Y-92673610D01*
X104237264Y-92704500D01*
X104237269Y-92704500D01*
X105942736Y-92704500D01*
X106137763Y-92673610D01*
X106325561Y-92612591D01*
X106501501Y-92522944D01*
X106591192Y-92457779D01*
X106661246Y-92406884D01*
X106661248Y-92406881D01*
X106661252Y-92406879D01*
X106800879Y-92267252D01*
X106800881Y-92267248D01*
X106800884Y-92267246D01*
X106879143Y-92159530D01*
X106916944Y-92107501D01*
X107006591Y-91931561D01*
X107067610Y-91743763D01*
X107098500Y-91548736D01*
X107098500Y-91351263D01*
X107067610Y-91156236D01*
X107020225Y-91010401D01*
X107006591Y-90968439D01*
X106916944Y-90792499D01*
X106909486Y-90782234D01*
X106800884Y-90632753D01*
X106661246Y-90493115D01*
X106501504Y-90377058D01*
X106501503Y-90377057D01*
X106501501Y-90377056D01*
X106325561Y-90287409D01*
X106325558Y-90287408D01*
X106137763Y-90226389D01*
X105942736Y-90195500D01*
X105942731Y-90195500D01*
X104237269Y-90195500D01*
X104237264Y-90195500D01*
X104042236Y-90226389D01*
X103854441Y-90287408D01*
X103678495Y-90377058D01*
X103518753Y-90493115D01*
X103379115Y-90632753D01*
X103263058Y-90792495D01*
X103174984Y-90965348D01*
X103127009Y-91016144D01*
X103059188Y-91032939D01*
X102993053Y-91010401D01*
X102949602Y-90955686D01*
X102940499Y-90909055D01*
X102940499Y-90399992D01*
X102929999Y-90297203D01*
X102874814Y-90130666D01*
X102782712Y-89981344D01*
X102658656Y-89857288D01*
X102509334Y-89765186D01*
X102342797Y-89710001D01*
X102342795Y-89710000D01*
X102240016Y-89699500D01*
X102240009Y-89699500D01*
X101664500Y-89699500D01*
X101597461Y-89679815D01*
X101551706Y-89627011D01*
X101540500Y-89575500D01*
X101540500Y-89482412D01*
X101560185Y-89415373D01*
X101567555Y-89405097D01*
X101569810Y-89402267D01*
X101569816Y-89402262D01*
X101665789Y-89249522D01*
X101725368Y-89079255D01*
X101725369Y-89079249D01*
X101745565Y-88900003D01*
X101745565Y-88899996D01*
X101725369Y-88720750D01*
X101725368Y-88720745D01*
X101665788Y-88550476D01*
X101569815Y-88397737D01*
X101442262Y-88270184D01*
X101289523Y-88174211D01*
X101119254Y-88114631D01*
X101119250Y-88114630D01*
X100950616Y-88095630D01*
X100886202Y-88068563D01*
X100846647Y-88010968D01*
X100840500Y-87972410D01*
X100840500Y-86424499D01*
X100860185Y-86357460D01*
X100912989Y-86311705D01*
X100964495Y-86300499D01*
X101740008Y-86300499D01*
X101740016Y-86300498D01*
X101740019Y-86300498D01*
X101796302Y-86294748D01*
X101842797Y-86289999D01*
X102009334Y-86234814D01*
X102158656Y-86142712D01*
X102282712Y-86018656D01*
X102352147Y-85906082D01*
X102404095Y-85859358D01*
X102473057Y-85848135D01*
X102537139Y-85875978D01*
X102545367Y-85883498D01*
X102668753Y-86006884D01*
X102818234Y-86115486D01*
X102828499Y-86122944D01*
X103004439Y-86212591D01*
X103129637Y-86253270D01*
X103192236Y-86273610D01*
X103387264Y-86304500D01*
X103387269Y-86304500D01*
X105092736Y-86304500D01*
X105287763Y-86273610D01*
X105475561Y-86212591D01*
X105651501Y-86122944D01*
X105741192Y-86057779D01*
X105811246Y-86006884D01*
X105811248Y-86006881D01*
X105811252Y-86006879D01*
X105950879Y-85867252D01*
X105950881Y-85867248D01*
X105950884Y-85867246D01*
X106010278Y-85785496D01*
X106066944Y-85707501D01*
X106156591Y-85531561D01*
X106217610Y-85343763D01*
X106248500Y-85148736D01*
X106248500Y-84951263D01*
X106217610Y-84756236D01*
X106197270Y-84693637D01*
X106156591Y-84568439D01*
X106066944Y-84392499D01*
X106059486Y-84382234D01*
X105950884Y-84232753D01*
X105811246Y-84093115D01*
X105651504Y-83977058D01*
X105651503Y-83977057D01*
X105651501Y-83977056D01*
X105475561Y-83887409D01*
X105473810Y-83886840D01*
X105287763Y-83826389D01*
X105092736Y-83795500D01*
X105092731Y-83795500D01*
X103387269Y-83795500D01*
X103387264Y-83795500D01*
X103192236Y-83826389D01*
X103004441Y-83887408D01*
X102828495Y-83977058D01*
X102668753Y-84093115D01*
X102529119Y-84232749D01*
X102529115Y-84232754D01*
X102521733Y-84242914D01*
X102466400Y-84285577D01*
X102396786Y-84291552D01*
X102334993Y-84258942D01*
X102315880Y-84235119D01*
X102314421Y-84232754D01*
X102282712Y-84181344D01*
X102158656Y-84057288D01*
X102028582Y-83977058D01*
X102009336Y-83965187D01*
X102009331Y-83965185D01*
X101960391Y-83948968D01*
X101842797Y-83910001D01*
X101842795Y-83910000D01*
X101740010Y-83899500D01*
X100939998Y-83899500D01*
X100939980Y-83899501D01*
X100837203Y-83910000D01*
X100837200Y-83910001D01*
X100719607Y-83948968D01*
X100649778Y-83951370D01*
X100592922Y-83918943D01*
X100017408Y-83343429D01*
X99983923Y-83282106D01*
X99988907Y-83212414D01*
X100030779Y-83156481D01*
X100096243Y-83132064D01*
X100164516Y-83146916D01*
X100171055Y-83150750D01*
X100290478Y-83225789D01*
X100451423Y-83282106D01*
X100460745Y-83285368D01*
X100460750Y-83285369D01*
X100639996Y-83305565D01*
X100640000Y-83305565D01*
X100640004Y-83305565D01*
X100819249Y-83285369D01*
X100819252Y-83285368D01*
X100819255Y-83285368D01*
X100989522Y-83225789D01*
X101142262Y-83129816D01*
X101269816Y-83002262D01*
X101365789Y-82849522D01*
X101425368Y-82679255D01*
X101435162Y-82592330D01*
X101445565Y-82500003D01*
X101445565Y-82499996D01*
X101425369Y-82320750D01*
X101425368Y-82320745D01*
X101392040Y-82225499D01*
X101365789Y-82150478D01*
X101355947Y-82134814D01*
X101346868Y-82120365D01*
X101327868Y-82053128D01*
X101348236Y-81986293D01*
X101378975Y-81954076D01*
X101507252Y-81860879D01*
X101646879Y-81721252D01*
X101646881Y-81721248D01*
X101646884Y-81721246D01*
X101762943Y-81561502D01*
X101762944Y-81561501D01*
X101807476Y-81474102D01*
X101855449Y-81423307D01*
X101923270Y-81406512D01*
X101989405Y-81429049D01*
X102032857Y-81483764D01*
X102041318Y-81517797D01*
X102050000Y-81602796D01*
X102050001Y-81602799D01*
X102068245Y-81657855D01*
X102105186Y-81769334D01*
X102197288Y-81918656D01*
X102321344Y-82042712D01*
X102470666Y-82134814D01*
X102637203Y-82189999D01*
X102739991Y-82200500D01*
X103740008Y-82200499D01*
X103740016Y-82200498D01*
X103740019Y-82200498D01*
X103796302Y-82194748D01*
X103842797Y-82189999D01*
X104009334Y-82134814D01*
X104158656Y-82042712D01*
X104177317Y-82024051D01*
X104238639Y-81990564D01*
X104308331Y-81995547D01*
X104352681Y-82024049D01*
X104396344Y-82067712D01*
X104545666Y-82159814D01*
X104712203Y-82214999D01*
X104814991Y-82225500D01*
X105865008Y-82225499D01*
X105865016Y-82225498D01*
X105865019Y-82225498D01*
X105921302Y-82219748D01*
X105967797Y-82214999D01*
X106134334Y-82159814D01*
X106283656Y-82067712D01*
X106407712Y-81943656D01*
X106499814Y-81794334D01*
X106545039Y-81657852D01*
X106584810Y-81600410D01*
X106649326Y-81573587D01*
X106718102Y-81585902D01*
X106763062Y-81623974D01*
X106833496Y-81720920D01*
X106973075Y-81860499D01*
X106973080Y-81860503D01*
X107132757Y-81976514D01*
X107308626Y-82066126D01*
X107496355Y-82127123D01*
X107540000Y-82134034D01*
X107540000Y-81183012D01*
X107597007Y-81215925D01*
X107724174Y-81250000D01*
X107855826Y-81250000D01*
X107982993Y-81215925D01*
X108040000Y-81183012D01*
X108040000Y-82134034D01*
X108083644Y-82127123D01*
X108271373Y-82066126D01*
X108447242Y-81976514D01*
X108606919Y-81860503D01*
X108606924Y-81860499D01*
X108746499Y-81720924D01*
X108746503Y-81720919D01*
X108862514Y-81561242D01*
X108952126Y-81385373D01*
X109013123Y-81197646D01*
X109044000Y-81002697D01*
X109044000Y-80400000D01*
X108290000Y-80400000D01*
X108290000Y-79900000D01*
X109044000Y-79900000D01*
X109044000Y-79297302D01*
X109013123Y-79102353D01*
X108952126Y-78914626D01*
X108862514Y-78738757D01*
X108746503Y-78579080D01*
X108746499Y-78579075D01*
X108606924Y-78439500D01*
X108606919Y-78439496D01*
X108447242Y-78323485D01*
X108271371Y-78233873D01*
X108083642Y-78172876D01*
X108040000Y-78165963D01*
X108040000Y-79116988D01*
X107982993Y-79084075D01*
X107855826Y-79050000D01*
X107724174Y-79050000D01*
X107597007Y-79084075D01*
X107540000Y-79116988D01*
X107540000Y-78165963D01*
X107496357Y-78172876D01*
X107496356Y-78172876D01*
X107308628Y-78233873D01*
X107145795Y-78316841D01*
X107077126Y-78329737D01*
X107012385Y-78303461D01*
X106972128Y-78246354D01*
X106965500Y-78206356D01*
X106965500Y-74369377D01*
X106985185Y-74302338D01*
X107024406Y-74263837D01*
X107058654Y-74242713D01*
X107058653Y-74242713D01*
X107058656Y-74242712D01*
X107152319Y-74149049D01*
X107213642Y-74115564D01*
X107283334Y-74120548D01*
X107327681Y-74149049D01*
X107421344Y-74242712D01*
X107570666Y-74334814D01*
X107737203Y-74389999D01*
X107839991Y-74400500D01*
X108640008Y-74400499D01*
X108640016Y-74400498D01*
X108640019Y-74400498D01*
X108715504Y-74392787D01*
X108742797Y-74389999D01*
X108909334Y-74334814D01*
X109058656Y-74242712D01*
X109182712Y-74118656D01*
X109274814Y-73969334D01*
X109329999Y-73802797D01*
X109340500Y-73700009D01*
X109340499Y-72699992D01*
X109340212Y-72697186D01*
X109329999Y-72597203D01*
X109329998Y-72597200D01*
X109321747Y-72572299D01*
X109274814Y-72430666D01*
X109182712Y-72281344D01*
X109058656Y-72157288D01*
X108909334Y-72065186D01*
X108742797Y-72010001D01*
X108742795Y-72010000D01*
X108640016Y-71999500D01*
X108640009Y-71999500D01*
X107940097Y-71999500D01*
X107873058Y-71979815D01*
X107852416Y-71963181D01*
X106577590Y-70688355D01*
X106577588Y-70688352D01*
X106458717Y-70569481D01*
X106458709Y-70569475D01*
X106354795Y-70509481D01*
X106354794Y-70509480D01*
X106354794Y-70509481D01*
X106321785Y-70490423D01*
X106169054Y-70449498D01*
X106160997Y-70448438D01*
X106161246Y-70446541D01*
X106104278Y-70429814D01*
X106070863Y-70395673D01*
X106069808Y-70396440D01*
X105950884Y-70232753D01*
X105810348Y-70092217D01*
X105776863Y-70030894D01*
X105781847Y-69961202D01*
X105823719Y-69905269D01*
X105832912Y-69899010D01*
X105883656Y-69867712D01*
X106007712Y-69743656D01*
X106099814Y-69594334D01*
X106154999Y-69427797D01*
X106165500Y-69325009D01*
X106165499Y-68549992D01*
X106154999Y-68447203D01*
X106099814Y-68280666D01*
X106007712Y-68131344D01*
X105883656Y-68007288D01*
X105880819Y-68005538D01*
X105879283Y-68003830D01*
X105877989Y-68002807D01*
X105878163Y-68002585D01*
X105834096Y-67953594D01*
X105822872Y-67884632D01*
X105850713Y-67820549D01*
X105880817Y-67794462D01*
X105883656Y-67792712D01*
X106007712Y-67668656D01*
X106099814Y-67519334D01*
X106154999Y-67352797D01*
X106165500Y-67250009D01*
X106165499Y-66474992D01*
X106157838Y-66400000D01*
X106154999Y-66372203D01*
X106154998Y-66372200D01*
X106099814Y-66205666D01*
X106007712Y-66056344D01*
X105883656Y-65932288D01*
X105734334Y-65840186D01*
X105567797Y-65785001D01*
X105567795Y-65785000D01*
X105465010Y-65774500D01*
X104414998Y-65774500D01*
X104414980Y-65774501D01*
X104312203Y-65785000D01*
X104312200Y-65785001D01*
X104145668Y-65840185D01*
X104145663Y-65840187D01*
X103996342Y-65932289D01*
X103952681Y-65975951D01*
X103891358Y-66009436D01*
X103821666Y-66004452D01*
X103777319Y-65975951D01*
X103758657Y-65957289D01*
X103758656Y-65957288D01*
X103609334Y-65865186D01*
X103442797Y-65810001D01*
X103442795Y-65810000D01*
X103340016Y-65799500D01*
X103340009Y-65799500D01*
X103156500Y-65799500D01*
X103089461Y-65779815D01*
X103043706Y-65727011D01*
X103032500Y-65675500D01*
X103032500Y-65297302D01*
X106536000Y-65297302D01*
X106536000Y-65900000D01*
X107290000Y-65900000D01*
X107290000Y-66400000D01*
X106536000Y-66400000D01*
X106536000Y-67002697D01*
X106566876Y-67197646D01*
X106627873Y-67385373D01*
X106717485Y-67561242D01*
X106833496Y-67720919D01*
X106833500Y-67720924D01*
X106973075Y-67860499D01*
X106973080Y-67860503D01*
X107132757Y-67976514D01*
X107308626Y-68066126D01*
X107496355Y-68127123D01*
X107539999Y-68134034D01*
X107540000Y-68134034D01*
X107540000Y-67183012D01*
X107597007Y-67215925D01*
X107724174Y-67250000D01*
X107855826Y-67250000D01*
X107982993Y-67215925D01*
X108040000Y-67183012D01*
X108040000Y-68134034D01*
X108083644Y-68127123D01*
X108271373Y-68066126D01*
X108447242Y-67976514D01*
X108606919Y-67860503D01*
X108606924Y-67860499D01*
X108746499Y-67720924D01*
X108746503Y-67720919D01*
X108862514Y-67561242D01*
X108952126Y-67385373D01*
X109013123Y-67197646D01*
X109044000Y-67002697D01*
X109044000Y-66400000D01*
X108290000Y-66400000D01*
X108290000Y-65900000D01*
X109044000Y-65900000D01*
X109044000Y-65297302D01*
X109013123Y-65102353D01*
X108952126Y-64914626D01*
X108862514Y-64738757D01*
X108746503Y-64579080D01*
X108746499Y-64579075D01*
X108606924Y-64439500D01*
X108606919Y-64439496D01*
X108447242Y-64323485D01*
X108271371Y-64233873D01*
X108083642Y-64172876D01*
X108040000Y-64165963D01*
X108040000Y-65116988D01*
X107982993Y-65084075D01*
X107855826Y-65050000D01*
X107724174Y-65050000D01*
X107597007Y-65084075D01*
X107540000Y-65116988D01*
X107540000Y-64165963D01*
X107496357Y-64172876D01*
X107496356Y-64172876D01*
X107308628Y-64233873D01*
X107132757Y-64323485D01*
X106973080Y-64439496D01*
X106973075Y-64439500D01*
X106833500Y-64579075D01*
X106833496Y-64579080D01*
X106717485Y-64738757D01*
X106627873Y-64914626D01*
X106566876Y-65102353D01*
X106536000Y-65297302D01*
X103032500Y-65297302D01*
X103032500Y-64292379D01*
X103052185Y-64225340D01*
X103104989Y-64179585D01*
X103174147Y-64169641D01*
X103187439Y-64172732D01*
X103187502Y-64172473D01*
X103192228Y-64173607D01*
X103192237Y-64173610D01*
X103265374Y-64185193D01*
X103387264Y-64204500D01*
X103387269Y-64204500D01*
X105092736Y-64204500D01*
X105287763Y-64173610D01*
X105311298Y-64165963D01*
X105475561Y-64112591D01*
X105651501Y-64022944D01*
X105741192Y-63957779D01*
X105811246Y-63906884D01*
X105811248Y-63906881D01*
X105811252Y-63906879D01*
X105950879Y-63767252D01*
X105950881Y-63767248D01*
X105950884Y-63767246D01*
X106001779Y-63697192D01*
X106066944Y-63607501D01*
X106156591Y-63431561D01*
X106217610Y-63243763D01*
X106248500Y-63048736D01*
X106248500Y-62851263D01*
X106217610Y-62656236D01*
X106197270Y-62593637D01*
X106156591Y-62468439D01*
X106066944Y-62292499D01*
X106059486Y-62282234D01*
X105950884Y-62132753D01*
X105811246Y-61993115D01*
X105651504Y-61877058D01*
X105651503Y-61877057D01*
X105651501Y-61877056D01*
X105475561Y-61787409D01*
X105447499Y-61778291D01*
X105287763Y-61726389D01*
X105092736Y-61695500D01*
X105092731Y-61695500D01*
X103387269Y-61695500D01*
X103387264Y-61695500D01*
X103192233Y-61726390D01*
X103187494Y-61727528D01*
X103187072Y-61725772D01*
X103124974Y-61727545D01*
X103065142Y-61691463D01*
X103034316Y-61628762D01*
X103032500Y-61607620D01*
X103032500Y-59981059D01*
X103032501Y-59981046D01*
X103032501Y-59812945D01*
X103032501Y-59812943D01*
X102991577Y-59660215D01*
X102962639Y-59610095D01*
X102912520Y-59523284D01*
X102800716Y-59411480D01*
X102800715Y-59411479D01*
X102796385Y-59407149D01*
X102796374Y-59407139D01*
X101701415Y-58312180D01*
X101667930Y-58250857D01*
X101672914Y-58181165D01*
X101714786Y-58125232D01*
X101780250Y-58100815D01*
X101789096Y-58100499D01*
X101840002Y-58100499D01*
X101840008Y-58100499D01*
X101942797Y-58089999D01*
X102109334Y-58034814D01*
X102258656Y-57942712D01*
X102344442Y-57856925D01*
X102405761Y-57823443D01*
X102475453Y-57828427D01*
X102526412Y-57864079D01*
X102529116Y-57867245D01*
X102529121Y-57867252D01*
X102529127Y-57867258D01*
X102668753Y-58006884D01*
X102797604Y-58100498D01*
X102828499Y-58122944D01*
X103004439Y-58212591D01*
X103106979Y-58245908D01*
X103192236Y-58273610D01*
X103387264Y-58304500D01*
X103387269Y-58304500D01*
X105092736Y-58304500D01*
X105287763Y-58273610D01*
X105475561Y-58212591D01*
X105651501Y-58122944D01*
X105761932Y-58042712D01*
X105811246Y-58006884D01*
X105811248Y-58006881D01*
X105811252Y-58006879D01*
X105950879Y-57867252D01*
X105950881Y-57867248D01*
X105950884Y-57867246D01*
X106012345Y-57782650D01*
X106066944Y-57707501D01*
X106156591Y-57531561D01*
X106217610Y-57343763D01*
X106248500Y-57148736D01*
X106248500Y-56951263D01*
X106217610Y-56756236D01*
X106197270Y-56693637D01*
X106156591Y-56568439D01*
X106066944Y-56392499D01*
X106059486Y-56382234D01*
X105950884Y-56232753D01*
X105811246Y-56093115D01*
X105651504Y-55977058D01*
X105651503Y-55977057D01*
X105651501Y-55977056D01*
X105475561Y-55887409D01*
X105475558Y-55887408D01*
X105287763Y-55826389D01*
X105092736Y-55795500D01*
X105092731Y-55795500D01*
X103387269Y-55795500D01*
X103387264Y-55795500D01*
X103192236Y-55826389D01*
X103004441Y-55887408D01*
X102828495Y-55977058D01*
X102668754Y-56093115D01*
X102645366Y-56116503D01*
X102584042Y-56149987D01*
X102514350Y-56145001D01*
X102458418Y-56103129D01*
X102452147Y-56093917D01*
X102440000Y-56074223D01*
X102382712Y-55981344D01*
X102258656Y-55857288D01*
X102109334Y-55765186D01*
X101942797Y-55710001D01*
X101942795Y-55710000D01*
X101840010Y-55699500D01*
X101039998Y-55699500D01*
X101039980Y-55699501D01*
X100937203Y-55710000D01*
X100937200Y-55710001D01*
X100770668Y-55765185D01*
X100770663Y-55765187D01*
X100621342Y-55857289D01*
X100527681Y-55950951D01*
X100466358Y-55984436D01*
X100396666Y-55979452D01*
X100352319Y-55950951D01*
X100258657Y-55857289D01*
X100258656Y-55857288D01*
X100109334Y-55765186D01*
X99942797Y-55710001D01*
X99942795Y-55710000D01*
X99840010Y-55699500D01*
X99039998Y-55699500D01*
X99039980Y-55699501D01*
X98937203Y-55710000D01*
X98937200Y-55710001D01*
X98770668Y-55765185D01*
X98770663Y-55765187D01*
X98621342Y-55857289D01*
X98497289Y-55981342D01*
X98405187Y-56130663D01*
X98405185Y-56130668D01*
X98377349Y-56214670D01*
X98350001Y-56297203D01*
X98350001Y-56297204D01*
X98350000Y-56297204D01*
X98339500Y-56399983D01*
X98339500Y-57400001D01*
X98339501Y-57400019D01*
X98350000Y-57502796D01*
X98350001Y-57502799D01*
X98383137Y-57602795D01*
X98405186Y-57669334D01*
X98497288Y-57818656D01*
X98621344Y-57942712D01*
X98770666Y-58034814D01*
X98937203Y-58089999D01*
X99039991Y-58100500D01*
X99739902Y-58100499D01*
X99806941Y-58120183D01*
X99827583Y-58136818D01*
X101795181Y-60104416D01*
X101828666Y-60165739D01*
X101831500Y-60192097D01*
X101831500Y-64464007D01*
X101811815Y-64531046D01*
X101759011Y-64576801D01*
X101689853Y-64586745D01*
X101626297Y-64557720D01*
X101619819Y-64551688D01*
X101507246Y-64439115D01*
X101347504Y-64323058D01*
X101347503Y-64323057D01*
X101347501Y-64323056D01*
X101171561Y-64233409D01*
X101171558Y-64233408D01*
X100983763Y-64172389D01*
X100788736Y-64141500D01*
X100788731Y-64141500D01*
X100591269Y-64141500D01*
X100591264Y-64141500D01*
X100396236Y-64172389D01*
X100208441Y-64233408D01*
X100032495Y-64323058D01*
X99872753Y-64439115D01*
X99733115Y-64578753D01*
X99617058Y-64738495D01*
X99527408Y-64914441D01*
X99466389Y-65102236D01*
X99435500Y-65297263D01*
X99435500Y-67002736D01*
X99466389Y-67197763D01*
X99516763Y-67352795D01*
X99527409Y-67385561D01*
X99617056Y-67561501D01*
X99617058Y-67561504D01*
X99733115Y-67721246D01*
X99872753Y-67860884D01*
X100032497Y-67976943D01*
X100043607Y-67982604D01*
X100094403Y-68030578D01*
X100111199Y-68098398D01*
X100088662Y-68164534D01*
X100074994Y-68180770D01*
X99702584Y-68553181D01*
X99641261Y-68586666D01*
X99614903Y-68589500D01*
X98824298Y-68589500D01*
X98787432Y-68592401D01*
X98787426Y-68592402D01*
X98629606Y-68638254D01*
X98629603Y-68638255D01*
X98488137Y-68721917D01*
X98488129Y-68721923D01*
X98371923Y-68838129D01*
X98371917Y-68838137D01*
X98288255Y-68979603D01*
X98288254Y-68979606D01*
X98242402Y-69137426D01*
X98242401Y-69137432D01*
X98239500Y-69174298D01*
X98239500Y-69605701D01*
X98242401Y-69642567D01*
X98242402Y-69642573D01*
X98288254Y-69800393D01*
X98288255Y-69800396D01*
X98371917Y-69941862D01*
X98376702Y-69948031D01*
X98374256Y-69949927D01*
X98400857Y-69998642D01*
X98395873Y-70068334D01*
X98375069Y-70100703D01*
X98376702Y-70101969D01*
X98371917Y-70108137D01*
X98288255Y-70249603D01*
X98288254Y-70249606D01*
X98242402Y-70407426D01*
X98242401Y-70407432D01*
X98239500Y-70444298D01*
X98239500Y-70875701D01*
X98242401Y-70912567D01*
X98242402Y-70912573D01*
X98249256Y-70936164D01*
X98249055Y-71006033D01*
X98211112Y-71064702D01*
X98147473Y-71093544D01*
X98144062Y-71093976D01*
X98078383Y-71101376D01*
X98009561Y-71089321D01*
X97958182Y-71041972D01*
X97940500Y-70978156D01*
X97940500Y-70910946D01*
X97940500Y-70910944D01*
X97915654Y-70818216D01*
X97899577Y-70758216D01*
X97898434Y-70756237D01*
X97859242Y-70688355D01*
X97855160Y-70681284D01*
X97820520Y-70621285D01*
X97708716Y-70509481D01*
X97708715Y-70509480D01*
X97704385Y-70505150D01*
X97704374Y-70505140D01*
X96227589Y-69028355D01*
X96227587Y-69028352D01*
X96218316Y-69019081D01*
X96195955Y-68986175D01*
X96195716Y-68986317D01*
X96193460Y-68982503D01*
X96192189Y-68980632D01*
X96191745Y-68979606D01*
X96191744Y-68979602D01*
X96166901Y-68937595D01*
X96108083Y-68838138D01*
X96108076Y-68838129D01*
X95991870Y-68721923D01*
X95991862Y-68721917D01*
X95850396Y-68638255D01*
X95850393Y-68638254D01*
X95692573Y-68592402D01*
X95692567Y-68592401D01*
X95655701Y-68589500D01*
X95655694Y-68589500D01*
X94865097Y-68589500D01*
X94798058Y-68569815D01*
X94777416Y-68553181D01*
X94404634Y-68180399D01*
X94371149Y-68119076D01*
X94376133Y-68049384D01*
X94418005Y-67993451D01*
X94436021Y-67982233D01*
X94447240Y-67976516D01*
X94606919Y-67860503D01*
X94606924Y-67860499D01*
X94746499Y-67720924D01*
X94746503Y-67720919D01*
X94862514Y-67561242D01*
X94952126Y-67385373D01*
X95013123Y-67197646D01*
X95044000Y-67002697D01*
X95044000Y-66400000D01*
X94290000Y-66400000D01*
X94290000Y-65900000D01*
X95044000Y-65900000D01*
X95044000Y-65297302D01*
X95013123Y-65102353D01*
X94952126Y-64914626D01*
X94862514Y-64738757D01*
X94746503Y-64579080D01*
X94746499Y-64579075D01*
X94606924Y-64439500D01*
X94606919Y-64439496D01*
X94447242Y-64323485D01*
X94271371Y-64233873D01*
X94083642Y-64172876D01*
X94040000Y-64165963D01*
X94040000Y-65116988D01*
X93982993Y-65084075D01*
X93855826Y-65050000D01*
X93724174Y-65050000D01*
X93597007Y-65084075D01*
X93540000Y-65116988D01*
X93540000Y-64165963D01*
X93496357Y-64172876D01*
X93496356Y-64172876D01*
X93308628Y-64233873D01*
X93132757Y-64323485D01*
X92973080Y-64439496D01*
X92973075Y-64439500D01*
X92833500Y-64579075D01*
X92833496Y-64579080D01*
X92717485Y-64738757D01*
X92627873Y-64914626D01*
X92566876Y-65102353D01*
X92536000Y-65297302D01*
X92536000Y-65682820D01*
X92516315Y-65749859D01*
X92463511Y-65795614D01*
X92394353Y-65805558D01*
X92346904Y-65788359D01*
X92309340Y-65765189D01*
X92309335Y-65765187D01*
X92309334Y-65765186D01*
X92142797Y-65710001D01*
X92142795Y-65710000D01*
X92040016Y-65699500D01*
X92040009Y-65699500D01*
X91473840Y-65699500D01*
X91406801Y-65679815D01*
X91361046Y-65627011D01*
X91351102Y-65557853D01*
X91380127Y-65494297D01*
X91386159Y-65487819D01*
X93442420Y-63431558D01*
X95608713Y-61265265D01*
X95608716Y-61265264D01*
X95720520Y-61153460D01*
X95770639Y-61066648D01*
X95799577Y-61016529D01*
X95840500Y-60863801D01*
X95840500Y-60705687D01*
X95840500Y-58245908D01*
X95860185Y-58178869D01*
X95904271Y-58140363D01*
X95903187Y-58138605D01*
X95909332Y-58134814D01*
X95909334Y-58134814D01*
X96058656Y-58042712D01*
X96182712Y-57918656D01*
X96274814Y-57769334D01*
X96329999Y-57602797D01*
X96340500Y-57500009D01*
X96340499Y-56499992D01*
X96329999Y-56397203D01*
X96274814Y-56230666D01*
X96182712Y-56081344D01*
X96058656Y-55957288D01*
X95965888Y-55900069D01*
X95909336Y-55865187D01*
X95909331Y-55865185D01*
X95885499Y-55857288D01*
X95742797Y-55810001D01*
X95742795Y-55810000D01*
X95640010Y-55799500D01*
X94839998Y-55799500D01*
X94839980Y-55799501D01*
X94737203Y-55810000D01*
X94737200Y-55810001D01*
X94570668Y-55865185D01*
X94570663Y-55865187D01*
X94421342Y-55957289D01*
X94327681Y-56050951D01*
X94266358Y-56084436D01*
X94196666Y-56079452D01*
X94152319Y-56050951D01*
X94058657Y-55957289D01*
X94058656Y-55957288D01*
X93965888Y-55900069D01*
X93909336Y-55865187D01*
X93909331Y-55865185D01*
X93885499Y-55857288D01*
X93742797Y-55810001D01*
X93742795Y-55810000D01*
X93640010Y-55799500D01*
X92839998Y-55799500D01*
X92839980Y-55799501D01*
X92737203Y-55810000D01*
X92737200Y-55810001D01*
X92570668Y-55865185D01*
X92570663Y-55865187D01*
X92421342Y-55957289D01*
X92297289Y-56081342D01*
X92205187Y-56230663D01*
X92205184Y-56230671D01*
X92201057Y-56243126D01*
X92161284Y-56300570D01*
X92096768Y-56327392D01*
X92027992Y-56315076D01*
X91983033Y-56277005D01*
X91950882Y-56232753D01*
X91950879Y-56232748D01*
X91811252Y-56093121D01*
X91811246Y-56093115D01*
X91651504Y-55977058D01*
X91651503Y-55977057D01*
X91651501Y-55977056D01*
X91475561Y-55887409D01*
X91475558Y-55887408D01*
X91287763Y-55826389D01*
X91092736Y-55795500D01*
X91092731Y-55795500D01*
X89387269Y-55795500D01*
X89387264Y-55795500D01*
X89192236Y-55826389D01*
X89004441Y-55887408D01*
X88828495Y-55977058D01*
X88668753Y-56093115D01*
X88529115Y-56232753D01*
X88413058Y-56392495D01*
X88323408Y-56568441D01*
X88262389Y-56756236D01*
X88231500Y-56951263D01*
X88231500Y-57148736D01*
X88262389Y-57343763D01*
X88313157Y-57500009D01*
X88323409Y-57531561D01*
X88393609Y-57669334D01*
X88413058Y-57707504D01*
X88529115Y-57867246D01*
X88668753Y-58006884D01*
X88797604Y-58100498D01*
X88828499Y-58122944D01*
X89004439Y-58212591D01*
X89106979Y-58245908D01*
X89192236Y-58273610D01*
X89387264Y-58304500D01*
X89387269Y-58304500D01*
X91092736Y-58304500D01*
X91287763Y-58273610D01*
X91475561Y-58212591D01*
X91651501Y-58122944D01*
X91761932Y-58042712D01*
X91811246Y-58006884D01*
X91811248Y-58006881D01*
X91811252Y-58006879D01*
X91950879Y-57867252D01*
X92012346Y-57782649D01*
X92067674Y-57739983D01*
X92137288Y-57734003D01*
X92199083Y-57766609D01*
X92218203Y-57790438D01*
X92295380Y-57915564D01*
X92297288Y-57918656D01*
X92421344Y-58042712D01*
X92570666Y-58134814D01*
X92737203Y-58189999D01*
X92839991Y-58200500D01*
X93640008Y-58200499D01*
X93640016Y-58200498D01*
X93640019Y-58200498D01*
X93696302Y-58194748D01*
X93742797Y-58189999D01*
X93909334Y-58134814D01*
X94058656Y-58042712D01*
X94152319Y-57949049D01*
X94213642Y-57915564D01*
X94283334Y-57920548D01*
X94327681Y-57949049D01*
X94421344Y-58042712D01*
X94570666Y-58134814D01*
X94570667Y-58134814D01*
X94576813Y-58138605D01*
X94575706Y-58140399D01*
X94620337Y-58179687D01*
X94639500Y-58245908D01*
X94639500Y-60484647D01*
X94619815Y-60551686D01*
X94603181Y-60572328D01*
X92430939Y-62744569D01*
X92369616Y-62778054D01*
X92299924Y-62773070D01*
X92243991Y-62731198D01*
X92220785Y-62676286D01*
X92217610Y-62656237D01*
X92156591Y-62468439D01*
X92066944Y-62292499D01*
X92059486Y-62282234D01*
X91950884Y-62132753D01*
X91811246Y-61993115D01*
X91651504Y-61877058D01*
X91651503Y-61877057D01*
X91651501Y-61877056D01*
X91475561Y-61787409D01*
X91447499Y-61778291D01*
X91287763Y-61726389D01*
X91092736Y-61695500D01*
X91092731Y-61695500D01*
X89387269Y-61695500D01*
X89387264Y-61695500D01*
X89192236Y-61726389D01*
X89004441Y-61787408D01*
X88828495Y-61877058D01*
X88668753Y-61993115D01*
X88529115Y-62132753D01*
X88413058Y-62292495D01*
X88323408Y-62468441D01*
X88262389Y-62656236D01*
X88231500Y-62851263D01*
X88231500Y-63048736D01*
X88262389Y-63243763D01*
X88323408Y-63431558D01*
X88323409Y-63431561D01*
X88413056Y-63607501D01*
X88413058Y-63607504D01*
X88529115Y-63767246D01*
X88668753Y-63906884D01*
X88818234Y-64015486D01*
X88828499Y-64022944D01*
X89004439Y-64112591D01*
X89129637Y-64153270D01*
X89192236Y-64173610D01*
X89387264Y-64204500D01*
X89387269Y-64204500D01*
X90671647Y-64204500D01*
X90738686Y-64224185D01*
X90784441Y-64276989D01*
X90794385Y-64346147D01*
X90765360Y-64409703D01*
X90759328Y-64416181D01*
X89937328Y-65238181D01*
X89876005Y-65271666D01*
X89849647Y-65274500D01*
X88809313Y-65274500D01*
X88651198Y-65274500D01*
X88498471Y-65315423D01*
X88498470Y-65315423D01*
X88498468Y-65315424D01*
X88498465Y-65315425D01*
X88448352Y-65344359D01*
X88448351Y-65344360D01*
X88426446Y-65357007D01*
X88361541Y-65394479D01*
X88361538Y-65394481D01*
X88156181Y-65599839D01*
X88094858Y-65633324D01*
X88025166Y-65628340D01*
X87969233Y-65586468D01*
X87944816Y-65521004D01*
X87944500Y-65512158D01*
X87944500Y-65297263D01*
X87913610Y-65102236D01*
X87893270Y-65039637D01*
X87852591Y-64914439D01*
X87762944Y-64738499D01*
X87755486Y-64728234D01*
X87646884Y-64578753D01*
X87507246Y-64439115D01*
X87347504Y-64323058D01*
X87347503Y-64323057D01*
X87347501Y-64323056D01*
X87171561Y-64233409D01*
X87171558Y-64233408D01*
X86983763Y-64172389D01*
X86788736Y-64141500D01*
X86788731Y-64141500D01*
X86591269Y-64141500D01*
X86591264Y-64141500D01*
X86396236Y-64172389D01*
X86208441Y-64233408D01*
X86032495Y-64323058D01*
X85872753Y-64439115D01*
X85733115Y-64578753D01*
X85617058Y-64738495D01*
X85527408Y-64914441D01*
X85466389Y-65102236D01*
X85435500Y-65297263D01*
X85435500Y-67002736D01*
X85466389Y-67197763D01*
X85516763Y-67352795D01*
X85527409Y-67385561D01*
X85617056Y-67561501D01*
X85617058Y-67561504D01*
X85733115Y-67721246D01*
X85872753Y-67860884D01*
X86022234Y-67969486D01*
X86032499Y-67976944D01*
X86208439Y-68066591D01*
X86329177Y-68105821D01*
X86396236Y-68127610D01*
X86591264Y-68158500D01*
X86591269Y-68158500D01*
X86788736Y-68158500D01*
X86983763Y-68127610D01*
X87010028Y-68119076D01*
X87171561Y-68066591D01*
X87347501Y-67976944D01*
X87453406Y-67900000D01*
X87507246Y-67860884D01*
X87507248Y-67860881D01*
X87507252Y-67860879D01*
X87602819Y-67765312D01*
X87664142Y-67731827D01*
X87733834Y-67736811D01*
X87789767Y-67778683D01*
X87814184Y-67844147D01*
X87814500Y-67852993D01*
X87814500Y-69323074D01*
X87814499Y-69323092D01*
X87814499Y-69488798D01*
X87814498Y-69488798D01*
X87855423Y-69641529D01*
X87884358Y-69691644D01*
X87884359Y-69691648D01*
X87884360Y-69691648D01*
X87934479Y-69778458D01*
X87934481Y-69778461D01*
X88053349Y-69897329D01*
X88053355Y-69897334D01*
X88395404Y-70239383D01*
X88428889Y-70300706D01*
X88423905Y-70370398D01*
X88415256Y-70388151D01*
X88415268Y-70388158D01*
X88414930Y-70388820D01*
X88413459Y-70391841D01*
X88413057Y-70392496D01*
X88323408Y-70568441D01*
X88262389Y-70756236D01*
X88231500Y-70951263D01*
X88231500Y-71148736D01*
X88262389Y-71343763D01*
X88323408Y-71531558D01*
X88323409Y-71531561D01*
X88413056Y-71707501D01*
X88413058Y-71707504D01*
X88529115Y-71867246D01*
X88668753Y-72006884D01*
X88818234Y-72115486D01*
X88828499Y-72122944D01*
X89004439Y-72212591D01*
X89129637Y-72253270D01*
X89192236Y-72273610D01*
X89363658Y-72300761D01*
X89426793Y-72330690D01*
X89463724Y-72390002D01*
X89462726Y-72459864D01*
X89461966Y-72462237D01*
X89425495Y-72572299D01*
X89425493Y-72572309D01*
X89415000Y-72675013D01*
X89415000Y-72950000D01*
X90628500Y-72950000D01*
X90695539Y-72969685D01*
X90741294Y-73022489D01*
X90752500Y-73074000D01*
X90752500Y-74424999D01*
X90889972Y-74424999D01*
X90889986Y-74424998D01*
X90992697Y-74414505D01*
X91154871Y-74360766D01*
X91224699Y-74358364D01*
X91281556Y-74390791D01*
X91725139Y-74834374D01*
X91725149Y-74834385D01*
X91729479Y-74838715D01*
X91729480Y-74838716D01*
X91841284Y-74950520D01*
X91841286Y-74950521D01*
X91841290Y-74950524D01*
X91927853Y-75000501D01*
X91927854Y-75000501D01*
X91978215Y-75029577D01*
X92130943Y-75070500D01*
X92289057Y-75070500D01*
X93274093Y-75070500D01*
X93341132Y-75090185D01*
X93386887Y-75142989D01*
X93396831Y-75212147D01*
X93380825Y-75257620D01*
X93338257Y-75329599D01*
X93338254Y-75329606D01*
X93292402Y-75487426D01*
X93292401Y-75487432D01*
X93289500Y-75524298D01*
X93289500Y-75955706D01*
X93289759Y-75958992D01*
X93275387Y-76027368D01*
X93253821Y-76056389D01*
X92449357Y-76860853D01*
X92388034Y-76894338D01*
X92318342Y-76889354D01*
X92262409Y-76847482D01*
X92239203Y-76792570D01*
X92233638Y-76757432D01*
X92217610Y-76656237D01*
X92156591Y-76468439D01*
X92066944Y-76292499D01*
X92059486Y-76282234D01*
X91950884Y-76132753D01*
X91811246Y-75993115D01*
X91651504Y-75877058D01*
X91651503Y-75877057D01*
X91651501Y-75877056D01*
X91475561Y-75787409D01*
X91475558Y-75787408D01*
X91287763Y-75726389D01*
X91092736Y-75695500D01*
X91092731Y-75695500D01*
X89387269Y-75695500D01*
X89387264Y-75695500D01*
X89192236Y-75726389D01*
X89004441Y-75787408D01*
X88828495Y-75877058D01*
X88668753Y-75993115D01*
X88529115Y-76132753D01*
X88413058Y-76292495D01*
X88323408Y-76468441D01*
X88262389Y-76656236D01*
X88231500Y-76851263D01*
X88231500Y-77048736D01*
X88262389Y-77243763D01*
X88319780Y-77420393D01*
X88323409Y-77431561D01*
X88389803Y-77561865D01*
X88413058Y-77607504D01*
X88529115Y-77767246D01*
X88596089Y-77834220D01*
X88629574Y-77895543D01*
X88624590Y-77965235D01*
X88582718Y-78021168D01*
X88552196Y-78037109D01*
X88552209Y-78037136D01*
X88551623Y-78037408D01*
X88547423Y-78039603D01*
X88545676Y-78040181D01*
X88545663Y-78040187D01*
X88396342Y-78132289D01*
X88272289Y-78256342D01*
X88180187Y-78405663D01*
X88180185Y-78405668D01*
X88152349Y-78489670D01*
X88125001Y-78572203D01*
X88125001Y-78572204D01*
X88125000Y-78572204D01*
X88114500Y-78674983D01*
X88114500Y-78937608D01*
X88094815Y-79004647D01*
X88042011Y-79050402D01*
X87972853Y-79060346D01*
X87909297Y-79031321D01*
X87872569Y-78975926D01*
X87860119Y-78937608D01*
X87852591Y-78914439D01*
X87762944Y-78738499D01*
X87755486Y-78728234D01*
X87646884Y-78578753D01*
X87507246Y-78439115D01*
X87347504Y-78323058D01*
X87347503Y-78323057D01*
X87347501Y-78323056D01*
X87171561Y-78233409D01*
X87171558Y-78233408D01*
X86983763Y-78172389D01*
X86788736Y-78141500D01*
X86788731Y-78141500D01*
X86591269Y-78141500D01*
X86591264Y-78141500D01*
X86396236Y-78172389D01*
X86208441Y-78233408D01*
X86032495Y-78323058D01*
X85872753Y-78439115D01*
X85733115Y-78578753D01*
X85617058Y-78738495D01*
X85527408Y-78914441D01*
X85466389Y-79102236D01*
X85435500Y-79297263D01*
X85435500Y-81002736D01*
X85466389Y-81197763D01*
X85500531Y-81302840D01*
X85527409Y-81385561D01*
X85617056Y-81561501D01*
X85617058Y-81561504D01*
X85733115Y-81721246D01*
X85872753Y-81860884D01*
X85986683Y-81943657D01*
X86032499Y-81976944D01*
X86208439Y-82066591D01*
X86333637Y-82107270D01*
X86396236Y-82127610D01*
X86591264Y-82158500D01*
X86591269Y-82158500D01*
X86788736Y-82158500D01*
X86983763Y-82127610D01*
X87006061Y-82120365D01*
X87171561Y-82066591D01*
X87347501Y-81976944D01*
X87475467Y-81883972D01*
X87507246Y-81860884D01*
X87507248Y-81860881D01*
X87507252Y-81860879D01*
X87646879Y-81721252D01*
X87646881Y-81721248D01*
X87646884Y-81721246D01*
X87714776Y-81627799D01*
X87762944Y-81561501D01*
X87852591Y-81385561D01*
X87872570Y-81324071D01*
X87912006Y-81266397D01*
X87976364Y-81239198D01*
X88045210Y-81251112D01*
X88096687Y-81298356D01*
X88114500Y-81362389D01*
X88114500Y-81525000D01*
X88114501Y-81525019D01*
X88125000Y-81627796D01*
X88125001Y-81627799D01*
X88164515Y-81747043D01*
X88180186Y-81794334D01*
X88272288Y-81943656D01*
X88396344Y-82067712D01*
X88545666Y-82159814D01*
X88712203Y-82214999D01*
X88814991Y-82225500D01*
X89865008Y-82225499D01*
X89865016Y-82225498D01*
X89865019Y-82225498D01*
X89921302Y-82219748D01*
X89967797Y-82214999D01*
X90134334Y-82159814D01*
X90283656Y-82067712D01*
X90327319Y-82024049D01*
X90388642Y-81990564D01*
X90458334Y-81995548D01*
X90502681Y-82024049D01*
X90521344Y-82042712D01*
X90670666Y-82134814D01*
X90837203Y-82189999D01*
X90939991Y-82200500D01*
X91940008Y-82200499D01*
X91940016Y-82200498D01*
X91940019Y-82200498D01*
X91996302Y-82194748D01*
X92042797Y-82189999D01*
X92209334Y-82134814D01*
X92358656Y-82042712D01*
X92386095Y-82015273D01*
X92447418Y-81981788D01*
X92517110Y-81986772D01*
X92561457Y-82015273D01*
X96010558Y-85464374D01*
X96010568Y-85464385D01*
X96014898Y-85468715D01*
X96014899Y-85468716D01*
X96126703Y-85580520D01*
X96213514Y-85630639D01*
X96213516Y-85630641D01*
X96263632Y-85659576D01*
X96263634Y-85659577D01*
X96416361Y-85700500D01*
X96416362Y-85700500D01*
X98159699Y-85700500D01*
X98226738Y-85720185D01*
X98272493Y-85772989D01*
X98277403Y-85785492D01*
X98305186Y-85869334D01*
X98397288Y-86018656D01*
X98521344Y-86142712D01*
X98670666Y-86234814D01*
X98837203Y-86289999D01*
X98939991Y-86300500D01*
X99515500Y-86300499D01*
X99582539Y-86320183D01*
X99628294Y-86372987D01*
X99639500Y-86424499D01*
X99639500Y-89575500D01*
X99619815Y-89642539D01*
X99567011Y-89688294D01*
X99515502Y-89699500D01*
X99439999Y-89699500D01*
X99439980Y-89699501D01*
X99337203Y-89710000D01*
X99337200Y-89710001D01*
X99170668Y-89765185D01*
X99170663Y-89765187D01*
X99021342Y-89857289D01*
X98897289Y-89981342D01*
X98805187Y-90130663D01*
X98805186Y-90130666D01*
X98750001Y-90297203D01*
X98750001Y-90297204D01*
X98750000Y-90297204D01*
X98739500Y-90399983D01*
X98739500Y-91400001D01*
X98739501Y-91400019D01*
X98750000Y-91502796D01*
X98750001Y-91502799D01*
X98803149Y-91663187D01*
X98805186Y-91669334D01*
X98897288Y-91818656D01*
X99021344Y-91942712D01*
X99170666Y-92034814D01*
X99170671Y-92034815D01*
X99170672Y-92034816D01*
X99182658Y-92038788D01*
X99240102Y-92078561D01*
X99266924Y-92143078D01*
X99254608Y-92211853D01*
X99231333Y-92244174D01*
X95756181Y-95719327D01*
X95694858Y-95752812D01*
X95625166Y-95747828D01*
X95569233Y-95705956D01*
X95544816Y-95640492D01*
X95544500Y-95631646D01*
X95544500Y-94147263D01*
X95513610Y-93952236D01*
X95493270Y-93889637D01*
X95452591Y-93764439D01*
X95362944Y-93588499D01*
X95355486Y-93578234D01*
X95246884Y-93428753D01*
X95107246Y-93289115D01*
X94947504Y-93173058D01*
X94947503Y-93173057D01*
X94947501Y-93173056D01*
X94771561Y-93083409D01*
X94771558Y-93083408D01*
X94583763Y-93022389D01*
X94388736Y-92991500D01*
X94388731Y-92991500D01*
X94191269Y-92991500D01*
X94191264Y-92991500D01*
X93996236Y-93022389D01*
X93808441Y-93083408D01*
X93632495Y-93173058D01*
X93472753Y-93289115D01*
X93333115Y-93428753D01*
X93217058Y-93588495D01*
X93127408Y-93764441D01*
X93066389Y-93952236D01*
X93035500Y-94147263D01*
X93035500Y-95852736D01*
X93066389Y-96047763D01*
X93094881Y-96135450D01*
X93127409Y-96235561D01*
X93217056Y-96411501D01*
X93217058Y-96411504D01*
X93333115Y-96571246D01*
X93472753Y-96710884D01*
X93622234Y-96819486D01*
X93632499Y-96826944D01*
X93808439Y-96916591D01*
X93996237Y-96977610D01*
X94179462Y-97006629D01*
X94188939Y-97008131D01*
X94252074Y-97038060D01*
X94289005Y-97097372D01*
X94288007Y-97167234D01*
X94257222Y-97218285D01*
X93247489Y-98228018D01*
X93186166Y-98261503D01*
X93116474Y-98256519D01*
X93060541Y-98214647D01*
X93041877Y-98178655D01*
X93006126Y-98068628D01*
X92916514Y-97892757D01*
X92800503Y-97733080D01*
X92800499Y-97733075D01*
X92660924Y-97593500D01*
X92660919Y-97593496D01*
X92501242Y-97477485D01*
X92325373Y-97387873D01*
X92137646Y-97326876D01*
X91942697Y-97296000D01*
X91340000Y-97296000D01*
X91340000Y-98050000D01*
X90840000Y-98050000D01*
X90840000Y-97296000D01*
X90237303Y-97296000D01*
X90042353Y-97326876D01*
X89854626Y-97387873D01*
X89678757Y-97477485D01*
X89519080Y-97593496D01*
X89519075Y-97593500D01*
X89379500Y-97733075D01*
X89379496Y-97733080D01*
X89263485Y-97892757D01*
X89173873Y-98068628D01*
X89112876Y-98256356D01*
X89112876Y-98256357D01*
X89105964Y-98300000D01*
X90056988Y-98300000D01*
X90024075Y-98357007D01*
X89990000Y-98484174D01*
X89990000Y-98615826D01*
X90024075Y-98742993D01*
X90056988Y-98800000D01*
X89105964Y-98800000D01*
X89112876Y-98843642D01*
X89112876Y-98843643D01*
X89173873Y-99031371D01*
X89263485Y-99207242D01*
X89379496Y-99366919D01*
X89379500Y-99366924D01*
X89519075Y-99506499D01*
X89519080Y-99506503D01*
X89678757Y-99622514D01*
X89854626Y-99712126D01*
X90042353Y-99773123D01*
X90237303Y-99804000D01*
X90921535Y-99804000D01*
X90988574Y-99823685D01*
X91034329Y-99876489D01*
X91044273Y-99945647D01*
X91023110Y-99999121D01*
X91006807Y-100022405D01*
X90985965Y-100052170D01*
X90985962Y-100052175D01*
X90983289Y-100057909D01*
X90937115Y-100110346D01*
X90870909Y-100129500D01*
X88092733Y-100129500D01*
X88025694Y-100109815D01*
X87979939Y-100057011D01*
X87968733Y-100005500D01*
X87968733Y-99680363D01*
X87968732Y-99680357D01*
X87962325Y-99620750D01*
X87912031Y-99485905D01*
X87912027Y-99485898D01*
X87825781Y-99370689D01*
X87825778Y-99370686D01*
X87710569Y-99284440D01*
X87710562Y-99284436D01*
X87575716Y-99234142D01*
X87575717Y-99234142D01*
X87516117Y-99227735D01*
X87516115Y-99227734D01*
X87516107Y-99227734D01*
X87516098Y-99227734D01*
X85220363Y-99227734D01*
X85220357Y-99227735D01*
X85160750Y-99234142D01*
X85025905Y-99284436D01*
X85025903Y-99284438D01*
X84938811Y-99349635D01*
X84873347Y-99374052D01*
X84805074Y-99359200D01*
X84755668Y-99309795D01*
X84740500Y-99250368D01*
X84740500Y-96135450D01*
X84760185Y-96068411D01*
X84812989Y-96022656D01*
X84882147Y-96012712D01*
X84945703Y-96041737D01*
X84982430Y-96097131D01*
X85027409Y-96235561D01*
X85117056Y-96411501D01*
X85117058Y-96411504D01*
X85233115Y-96571246D01*
X85372753Y-96710884D01*
X85522234Y-96819486D01*
X85532499Y-96826944D01*
X85708439Y-96916591D01*
X85833637Y-96957270D01*
X85896236Y-96977610D01*
X86091264Y-97008500D01*
X86091269Y-97008500D01*
X86288736Y-97008500D01*
X86483763Y-96977610D01*
X86483766Y-96977609D01*
X86671561Y-96916591D01*
X86847501Y-96826944D01*
X86937192Y-96761779D01*
X87007246Y-96710884D01*
X87007248Y-96710881D01*
X87007252Y-96710879D01*
X87146879Y-96571252D01*
X87146881Y-96571248D01*
X87146884Y-96571246D01*
X87197779Y-96501192D01*
X87262944Y-96411501D01*
X87352591Y-96235561D01*
X87413610Y-96047763D01*
X87419162Y-96012712D01*
X87444500Y-95852736D01*
X87444500Y-94147263D01*
X87413610Y-93952236D01*
X87393270Y-93889637D01*
X87352591Y-93764439D01*
X87262944Y-93588499D01*
X87255486Y-93578234D01*
X87146884Y-93428753D01*
X87007246Y-93289115D01*
X86847504Y-93173058D01*
X86847503Y-93173057D01*
X86847501Y-93173056D01*
X86671561Y-93083409D01*
X86671558Y-93083408D01*
X86483763Y-93022389D01*
X86288736Y-92991500D01*
X86288731Y-92991500D01*
X86091269Y-92991500D01*
X86091264Y-92991500D01*
X85896236Y-93022389D01*
X85708441Y-93083408D01*
X85532495Y-93173058D01*
X85372753Y-93289115D01*
X85233115Y-93428753D01*
X85117058Y-93588495D01*
X85027408Y-93764441D01*
X84982431Y-93902867D01*
X84942993Y-93960543D01*
X84878635Y-93987741D01*
X84809788Y-93975826D01*
X84758313Y-93928582D01*
X84740500Y-93864549D01*
X84740500Y-91351263D01*
X89081500Y-91351263D01*
X89081500Y-91548736D01*
X89112389Y-91743763D01*
X89136724Y-91818657D01*
X89173409Y-91931561D01*
X89263056Y-92107501D01*
X89263058Y-92107504D01*
X89379115Y-92267246D01*
X89518753Y-92406884D01*
X89668234Y-92515486D01*
X89678499Y-92522944D01*
X89854439Y-92612591D01*
X89979637Y-92653270D01*
X90042236Y-92673610D01*
X90237264Y-92704500D01*
X90237269Y-92704500D01*
X91942736Y-92704500D01*
X92137763Y-92673610D01*
X92325561Y-92612591D01*
X92501501Y-92522944D01*
X92591192Y-92457779D01*
X92661246Y-92406884D01*
X92661248Y-92406881D01*
X92661252Y-92406879D01*
X92800879Y-92267252D01*
X92800881Y-92267248D01*
X92800884Y-92267246D01*
X92879143Y-92159530D01*
X92916944Y-92107501D01*
X93006591Y-91931561D01*
X93067610Y-91743763D01*
X93098500Y-91548736D01*
X93098500Y-91351263D01*
X93067610Y-91156236D01*
X93020225Y-91010401D01*
X93006591Y-90968439D01*
X92916944Y-90792499D01*
X92909486Y-90782234D01*
X92800884Y-90632753D01*
X92661246Y-90493115D01*
X92501504Y-90377058D01*
X92501503Y-90377057D01*
X92501501Y-90377056D01*
X92325561Y-90287409D01*
X92325558Y-90287408D01*
X92137763Y-90226389D01*
X91942736Y-90195500D01*
X91942731Y-90195500D01*
X90237269Y-90195500D01*
X90237264Y-90195500D01*
X90042236Y-90226389D01*
X89854441Y-90287408D01*
X89678495Y-90377058D01*
X89518753Y-90493115D01*
X89379115Y-90632753D01*
X89263058Y-90792495D01*
X89173408Y-90968441D01*
X89112389Y-91156236D01*
X89081500Y-91351263D01*
X84740500Y-91351263D01*
X84740500Y-88099997D01*
X95257384Y-88099997D01*
X95257384Y-88099998D01*
X95276201Y-88303080D01*
X95332016Y-88499245D01*
X95332021Y-88499258D01*
X95422926Y-88681819D01*
X95545836Y-88844579D01*
X95696557Y-88981978D01*
X95696559Y-88981980D01*
X95795740Y-89043390D01*
X95869962Y-89089346D01*
X96060143Y-89163022D01*
X96260623Y-89200498D01*
X96260625Y-89200498D01*
X96464573Y-89200498D01*
X96464575Y-89200498D01*
X96665055Y-89163022D01*
X96852523Y-89090396D01*
X96922145Y-89084535D01*
X96971627Y-89106757D01*
X97020510Y-89143351D01*
X97020512Y-89143352D01*
X97155219Y-89193594D01*
X97155226Y-89193596D01*
X97214754Y-89199997D01*
X97214771Y-89199998D01*
X97612599Y-89199998D01*
X98112599Y-89199998D01*
X98510427Y-89199998D01*
X98510443Y-89199997D01*
X98569971Y-89193596D01*
X98569978Y-89193594D01*
X98704685Y-89143352D01*
X98704692Y-89143348D01*
X98819786Y-89057188D01*
X98819789Y-89057185D01*
X98905949Y-88942091D01*
X98905953Y-88942084D01*
X98956195Y-88807377D01*
X98956197Y-88807370D01*
X98962598Y-88747842D01*
X98962599Y-88747825D01*
X98962599Y-88349998D01*
X98112599Y-88349998D01*
X98112599Y-89199998D01*
X97612599Y-89199998D01*
X97612599Y-88266986D01*
X97622539Y-88284203D01*
X97678394Y-88340058D01*
X97746803Y-88379554D01*
X97823103Y-88399998D01*
X97902095Y-88399998D01*
X97978395Y-88379554D01*
X98046804Y-88340058D01*
X98102659Y-88284203D01*
X98142155Y-88215794D01*
X98162599Y-88139494D01*
X98162599Y-88060502D01*
X98142155Y-87984202D01*
X98102659Y-87915793D01*
X98046804Y-87859938D01*
X98029587Y-87849998D01*
X98112599Y-87849998D01*
X98962599Y-87849998D01*
X98962599Y-87452170D01*
X98962598Y-87452153D01*
X98956197Y-87392625D01*
X98956195Y-87392618D01*
X98905953Y-87257911D01*
X98905949Y-87257904D01*
X98819789Y-87142810D01*
X98819786Y-87142807D01*
X98704692Y-87056647D01*
X98704685Y-87056643D01*
X98569978Y-87006401D01*
X98569971Y-87006399D01*
X98510443Y-86999998D01*
X98112599Y-86999998D01*
X98112599Y-87849998D01*
X98029587Y-87849998D01*
X97978395Y-87820442D01*
X97902095Y-87799998D01*
X97823103Y-87799998D01*
X97746803Y-87820442D01*
X97678394Y-87859938D01*
X97622539Y-87915793D01*
X97612599Y-87933009D01*
X97612599Y-86999998D01*
X97214754Y-86999998D01*
X97155226Y-87006399D01*
X97155219Y-87006401D01*
X97020512Y-87056643D01*
X97020511Y-87056644D01*
X96971623Y-87093240D01*
X96906158Y-87117655D01*
X96852521Y-87109598D01*
X96665058Y-87036975D01*
X96665057Y-87036974D01*
X96665055Y-87036974D01*
X96464575Y-86999498D01*
X96260623Y-86999498D01*
X96060143Y-87036974D01*
X96060140Y-87036974D01*
X96060140Y-87036975D01*
X95869963Y-87110649D01*
X95869956Y-87110653D01*
X95696559Y-87218015D01*
X95696557Y-87218017D01*
X95545836Y-87355416D01*
X95422926Y-87518176D01*
X95332021Y-87700737D01*
X95332016Y-87700750D01*
X95276201Y-87896915D01*
X95257384Y-88099997D01*
X84740500Y-88099997D01*
X84740500Y-84951263D01*
X88231500Y-84951263D01*
X88231500Y-85148736D01*
X88262389Y-85343763D01*
X88323408Y-85531558D01*
X88323409Y-85531561D01*
X88413056Y-85707501D01*
X88413058Y-85707504D01*
X88529115Y-85867246D01*
X88668753Y-86006884D01*
X88818234Y-86115486D01*
X88828499Y-86122944D01*
X89004439Y-86212591D01*
X89129637Y-86253270D01*
X89192236Y-86273610D01*
X89387264Y-86304500D01*
X89387269Y-86304500D01*
X91092736Y-86304500D01*
X91287763Y-86273610D01*
X91475561Y-86212591D01*
X91651501Y-86122944D01*
X91741192Y-86057779D01*
X91811246Y-86006884D01*
X91811248Y-86006881D01*
X91811252Y-86006879D01*
X91950879Y-85867252D01*
X91950881Y-85867248D01*
X91950884Y-85867246D01*
X92010278Y-85785496D01*
X92066944Y-85707501D01*
X92156591Y-85531561D01*
X92217610Y-85343763D01*
X92248500Y-85148736D01*
X92248500Y-84951263D01*
X92217610Y-84756236D01*
X92197270Y-84693637D01*
X92156591Y-84568439D01*
X92066944Y-84392499D01*
X92059486Y-84382234D01*
X91950884Y-84232753D01*
X91811246Y-84093115D01*
X91651504Y-83977058D01*
X91651503Y-83977057D01*
X91651501Y-83977056D01*
X91475561Y-83887409D01*
X91473810Y-83886840D01*
X91287763Y-83826389D01*
X91092736Y-83795500D01*
X91092731Y-83795500D01*
X89387269Y-83795500D01*
X89387264Y-83795500D01*
X89192236Y-83826389D01*
X89004441Y-83887408D01*
X88828495Y-83977058D01*
X88668753Y-84093115D01*
X88529115Y-84232753D01*
X88413058Y-84392495D01*
X88323408Y-84568441D01*
X88262389Y-84756236D01*
X88231500Y-84951263D01*
X84740500Y-84951263D01*
X84740500Y-73724986D01*
X89415001Y-73724986D01*
X89425494Y-73827697D01*
X89480641Y-73994119D01*
X89480643Y-73994124D01*
X89572684Y-74143345D01*
X89696654Y-74267315D01*
X89845875Y-74359356D01*
X89845880Y-74359358D01*
X90012302Y-74414505D01*
X90012309Y-74414506D01*
X90115019Y-74424999D01*
X90252499Y-74424999D01*
X90252500Y-74424998D01*
X90252500Y-73450000D01*
X89415001Y-73450000D01*
X89415001Y-73724986D01*
X84740500Y-73724986D01*
X84740500Y-51297302D01*
X85436000Y-51297302D01*
X85436000Y-51900000D01*
X86190000Y-51900000D01*
X86190000Y-52400000D01*
X85436000Y-52400000D01*
X85436000Y-53002697D01*
X85466876Y-53197646D01*
X85527873Y-53385373D01*
X85617485Y-53561242D01*
X85733496Y-53720919D01*
X85733500Y-53720924D01*
X85873075Y-53860499D01*
X85873080Y-53860503D01*
X86032757Y-53976514D01*
X86208626Y-54066126D01*
X86396355Y-54127123D01*
X86439999Y-54134034D01*
X86440000Y-54134034D01*
X86440000Y-53183012D01*
X86497007Y-53215925D01*
X86624174Y-53250000D01*
X86755826Y-53250000D01*
X86882993Y-53215925D01*
X86940000Y-53183012D01*
X86940000Y-54134034D01*
X86983644Y-54127123D01*
X87171373Y-54066126D01*
X87347242Y-53976514D01*
X87506919Y-53860503D01*
X87506924Y-53860499D01*
X87646499Y-53720924D01*
X87646503Y-53720919D01*
X87762514Y-53561242D01*
X87852126Y-53385373D01*
X87913123Y-53197646D01*
X87944000Y-53002697D01*
X87944000Y-52400000D01*
X87190000Y-52400000D01*
X87190000Y-51900000D01*
X87944000Y-51900000D01*
X87944000Y-51297302D01*
X92536000Y-51297302D01*
X92536000Y-51900000D01*
X93290000Y-51900000D01*
X93290000Y-52400000D01*
X92536000Y-52400000D01*
X92536000Y-53002697D01*
X92566876Y-53197646D01*
X92627873Y-53385373D01*
X92717485Y-53561242D01*
X92833496Y-53720919D01*
X92833500Y-53720924D01*
X92973075Y-53860499D01*
X92973080Y-53860503D01*
X93132757Y-53976514D01*
X93308626Y-54066126D01*
X93496355Y-54127123D01*
X93540000Y-54134034D01*
X93540000Y-53183012D01*
X93597007Y-53215925D01*
X93724174Y-53250000D01*
X93855826Y-53250000D01*
X93982993Y-53215925D01*
X94040000Y-53183012D01*
X94040000Y-54134034D01*
X94083644Y-54127123D01*
X94271373Y-54066126D01*
X94447242Y-53976514D01*
X94606919Y-53860503D01*
X94606924Y-53860499D01*
X94746499Y-53720924D01*
X94746503Y-53720919D01*
X94862514Y-53561242D01*
X94952126Y-53385373D01*
X95013123Y-53197646D01*
X95044000Y-53002697D01*
X95044000Y-52400000D01*
X94290000Y-52400000D01*
X94290000Y-51900000D01*
X95044000Y-51900000D01*
X95044000Y-51297302D01*
X95043994Y-51297263D01*
X99435500Y-51297263D01*
X99435500Y-53002736D01*
X99466389Y-53197763D01*
X99527348Y-53385373D01*
X99527409Y-53385561D01*
X99617056Y-53561501D01*
X99617058Y-53561504D01*
X99733115Y-53721246D01*
X99872753Y-53860884D01*
X100022234Y-53969486D01*
X100032499Y-53976944D01*
X100208439Y-54066591D01*
X100333637Y-54107270D01*
X100396236Y-54127610D01*
X100591264Y-54158500D01*
X100591269Y-54158500D01*
X100788736Y-54158500D01*
X100983763Y-54127610D01*
X100985262Y-54127123D01*
X101171561Y-54066591D01*
X101347501Y-53976944D01*
X101437192Y-53911779D01*
X101507246Y-53860884D01*
X101507248Y-53860881D01*
X101507252Y-53860879D01*
X101646879Y-53721252D01*
X101646881Y-53721248D01*
X101646884Y-53721246D01*
X101697779Y-53651192D01*
X101762944Y-53561501D01*
X101852591Y-53385561D01*
X101913610Y-53197763D01*
X101935904Y-53057007D01*
X101944500Y-53002736D01*
X101944500Y-51297302D01*
X106536000Y-51297302D01*
X106536000Y-51900000D01*
X107290000Y-51900000D01*
X107290000Y-52400000D01*
X106536000Y-52400000D01*
X106536000Y-53002697D01*
X106566876Y-53197646D01*
X106627873Y-53385373D01*
X106717485Y-53561242D01*
X106833496Y-53720919D01*
X106833500Y-53720924D01*
X106973075Y-53860499D01*
X106973080Y-53860503D01*
X107132757Y-53976514D01*
X107308626Y-54066126D01*
X107496355Y-54127123D01*
X107539999Y-54134034D01*
X107540000Y-54134034D01*
X107540000Y-53183012D01*
X107597007Y-53215925D01*
X107724174Y-53250000D01*
X107855826Y-53250000D01*
X107982993Y-53215925D01*
X108040000Y-53183012D01*
X108040000Y-54134034D01*
X108083644Y-54127123D01*
X108271373Y-54066126D01*
X108447242Y-53976514D01*
X108606919Y-53860503D01*
X108606924Y-53860499D01*
X108746499Y-53720924D01*
X108746503Y-53720919D01*
X108862514Y-53561242D01*
X108952126Y-53385373D01*
X109013123Y-53197646D01*
X109044000Y-53002697D01*
X109044000Y-52400000D01*
X108290000Y-52400000D01*
X108290000Y-51900000D01*
X109044000Y-51900000D01*
X109044000Y-51297302D01*
X109013123Y-51102353D01*
X108952126Y-50914626D01*
X108862514Y-50738757D01*
X108746503Y-50579080D01*
X108746499Y-50579075D01*
X108606924Y-50439500D01*
X108606919Y-50439496D01*
X108447242Y-50323485D01*
X108271371Y-50233873D01*
X108083642Y-50172876D01*
X108040000Y-50165963D01*
X108040000Y-51116988D01*
X107982993Y-51084075D01*
X107855826Y-51050000D01*
X107724174Y-51050000D01*
X107597007Y-51084075D01*
X107540000Y-51116988D01*
X107540000Y-50165963D01*
X107496357Y-50172876D01*
X107496356Y-50172876D01*
X107308628Y-50233873D01*
X107132757Y-50323485D01*
X106973080Y-50439496D01*
X106973075Y-50439500D01*
X106833500Y-50579075D01*
X106833496Y-50579080D01*
X106717485Y-50738757D01*
X106627873Y-50914626D01*
X106566876Y-51102353D01*
X106536000Y-51297302D01*
X101944500Y-51297302D01*
X101944500Y-51297263D01*
X101913610Y-51102236D01*
X101893270Y-51039637D01*
X101852591Y-50914439D01*
X101762944Y-50738499D01*
X101755486Y-50728234D01*
X101646884Y-50578753D01*
X101507246Y-50439115D01*
X101347504Y-50323058D01*
X101347503Y-50323057D01*
X101347501Y-50323056D01*
X101171561Y-50233409D01*
X101171558Y-50233408D01*
X100983763Y-50172389D01*
X100788736Y-50141500D01*
X100788731Y-50141500D01*
X100591269Y-50141500D01*
X100591264Y-50141500D01*
X100396236Y-50172389D01*
X100208441Y-50233408D01*
X100032495Y-50323058D01*
X99872753Y-50439115D01*
X99733115Y-50578753D01*
X99617058Y-50738495D01*
X99527408Y-50914441D01*
X99466389Y-51102236D01*
X99435500Y-51297263D01*
X95043994Y-51297263D01*
X95013123Y-51102353D01*
X94952126Y-50914626D01*
X94862514Y-50738757D01*
X94746503Y-50579080D01*
X94746499Y-50579075D01*
X94606924Y-50439500D01*
X94606919Y-50439496D01*
X94447242Y-50323485D01*
X94271371Y-50233873D01*
X94083642Y-50172876D01*
X94040000Y-50165963D01*
X94040000Y-51116988D01*
X93982993Y-51084075D01*
X93855826Y-51050000D01*
X93724174Y-51050000D01*
X93597007Y-51084075D01*
X93540000Y-51116988D01*
X93540000Y-50165963D01*
X93496357Y-50172876D01*
X93496356Y-50172876D01*
X93308628Y-50233873D01*
X93132757Y-50323485D01*
X92973080Y-50439496D01*
X92973075Y-50439500D01*
X92833500Y-50579075D01*
X92833496Y-50579080D01*
X92717485Y-50738757D01*
X92627873Y-50914626D01*
X92566876Y-51102353D01*
X92536000Y-51297302D01*
X87944000Y-51297302D01*
X87913123Y-51102353D01*
X87852126Y-50914626D01*
X87762514Y-50738757D01*
X87646503Y-50579080D01*
X87646499Y-50579075D01*
X87506924Y-50439500D01*
X87506919Y-50439496D01*
X87347242Y-50323485D01*
X87171371Y-50233873D01*
X86983642Y-50172876D01*
X86940000Y-50165963D01*
X86940000Y-51116988D01*
X86882993Y-51084075D01*
X86755826Y-51050000D01*
X86624174Y-51050000D01*
X86497007Y-51084075D01*
X86440000Y-51116988D01*
X86440000Y-50165963D01*
X86396357Y-50172876D01*
X86396356Y-50172876D01*
X86208628Y-50233873D01*
X86032757Y-50323485D01*
X85873080Y-50439496D01*
X85873075Y-50439500D01*
X85733500Y-50579075D01*
X85733496Y-50579080D01*
X85617485Y-50738757D01*
X85527873Y-50914626D01*
X85466876Y-51102353D01*
X85436000Y-51297302D01*
X84740500Y-51297302D01*
X84740500Y-47624500D01*
X84760185Y-47557461D01*
X84812989Y-47511706D01*
X84864500Y-47500500D01*
X89104549Y-47500500D01*
X89171588Y-47520185D01*
G37*
%TD.AperFunction*%
%TA.AperFunction,Conductor*%
G36*
X96774075Y-100537007D02*
G01*
X96740000Y-100664174D01*
X96740000Y-100795826D01*
X96774075Y-100922993D01*
X96806988Y-100980000D01*
X95133012Y-100980000D01*
X95165925Y-100922993D01*
X95200000Y-100795826D01*
X95200000Y-100664174D01*
X95165925Y-100537007D01*
X95133012Y-100480000D01*
X96806988Y-100480000D01*
X96774075Y-100537007D01*
G37*
%TD.AperFunction*%
%TA.AperFunction,Conductor*%
G36*
X99314075Y-100537007D02*
G01*
X99280000Y-100664174D01*
X99280000Y-100795826D01*
X99314075Y-100922993D01*
X99346988Y-100980000D01*
X97673012Y-100980000D01*
X97705925Y-100922993D01*
X97740000Y-100795826D01*
X97740000Y-100664174D01*
X97705925Y-100537007D01*
X97673012Y-100480000D01*
X99346988Y-100480000D01*
X99314075Y-100537007D01*
G37*
%TD.AperFunction*%
%TA.AperFunction,Conductor*%
G36*
X96704950Y-75097186D02*
G01*
X96737178Y-75159179D01*
X96739500Y-75183062D01*
X96739500Y-81428586D01*
X96739499Y-81428604D01*
X96739499Y-81594310D01*
X96739498Y-81594310D01*
X96780424Y-81747043D01*
X96793293Y-81769332D01*
X96793294Y-81769334D01*
X96859477Y-81883968D01*
X96859481Y-81883973D01*
X96978349Y-82002841D01*
X96978355Y-82002846D01*
X98731334Y-83755825D01*
X98764819Y-83817148D01*
X98759835Y-83886840D01*
X98717963Y-83942773D01*
X98682663Y-83961210D01*
X98670671Y-83965184D01*
X98670663Y-83965187D01*
X98521342Y-84057289D01*
X98397289Y-84181342D01*
X98305187Y-84330663D01*
X98305185Y-84330668D01*
X98277405Y-84414504D01*
X98237632Y-84471949D01*
X98173116Y-84498772D01*
X98159699Y-84499500D01*
X96795516Y-84499500D01*
X96728477Y-84479815D01*
X96707835Y-84463181D01*
X94418160Y-82173506D01*
X94384675Y-82112183D01*
X94389659Y-82042491D01*
X94431531Y-81986558D01*
X94443222Y-81979282D01*
X94443087Y-81979062D01*
X94447238Y-81976517D01*
X94606919Y-81860503D01*
X94606924Y-81860499D01*
X94746499Y-81720924D01*
X94746503Y-81720919D01*
X94862514Y-81561242D01*
X94952126Y-81385373D01*
X95013123Y-81197646D01*
X95044000Y-81002697D01*
X95044000Y-80400000D01*
X94290000Y-80400000D01*
X94290000Y-79900000D01*
X95044000Y-79900000D01*
X95044000Y-79297302D01*
X95013123Y-79102353D01*
X94952126Y-78914626D01*
X94862514Y-78738757D01*
X94746503Y-78579080D01*
X94746499Y-78579075D01*
X94606924Y-78439500D01*
X94606919Y-78439496D01*
X94447242Y-78323485D01*
X94271373Y-78233873D01*
X94149828Y-78194381D01*
X94092153Y-78154943D01*
X94064955Y-78090584D01*
X94076870Y-78021738D01*
X94100461Y-77988774D01*
X94242419Y-77846816D01*
X94303740Y-77813334D01*
X94330098Y-77810500D01*
X95655686Y-77810500D01*
X95655694Y-77810500D01*
X95692569Y-77807598D01*
X95692571Y-77807597D01*
X95692573Y-77807597D01*
X95734191Y-77795505D01*
X95850398Y-77761744D01*
X95991865Y-77678081D01*
X96108081Y-77561865D01*
X96191744Y-77420398D01*
X96237598Y-77262569D01*
X96240500Y-77225694D01*
X96240500Y-76794306D01*
X96237598Y-76757431D01*
X96191744Y-76599602D01*
X96108081Y-76458135D01*
X96108078Y-76458132D01*
X96103298Y-76451969D01*
X96105750Y-76450066D01*
X96079155Y-76401421D01*
X96084104Y-76331726D01*
X96104940Y-76299304D01*
X96103298Y-76298031D01*
X96108075Y-76291870D01*
X96108081Y-76291865D01*
X96191744Y-76150398D01*
X96237438Y-75993121D01*
X96237597Y-75992573D01*
X96237598Y-75992567D01*
X96240500Y-75955694D01*
X96240500Y-75524306D01*
X96237598Y-75487431D01*
X96191744Y-75329602D01*
X96165884Y-75285876D01*
X96148703Y-75218153D01*
X96170863Y-75151891D01*
X96225330Y-75108128D01*
X96286501Y-75099537D01*
X96328050Y-75104218D01*
X96339999Y-75105565D01*
X96340000Y-75105565D01*
X96340004Y-75105565D01*
X96519249Y-75085369D01*
X96519250Y-75085368D01*
X96519255Y-75085368D01*
X96574545Y-75066020D01*
X96644322Y-75062458D01*
X96704950Y-75097186D01*
G37*
%TD.AperFunction*%
%TA.AperFunction,Conductor*%
G36*
X104270539Y-72969685D02*
G01*
X104316294Y-73022489D01*
X104327500Y-73074000D01*
X104327500Y-74424999D01*
X104464972Y-74424999D01*
X104464986Y-74424998D01*
X104567697Y-74414505D01*
X104734119Y-74359358D01*
X104734124Y-74359356D01*
X104883345Y-74267315D01*
X105007317Y-74143343D01*
X105054377Y-74067047D01*
X105106325Y-74020322D01*
X105175287Y-74009099D01*
X105239369Y-74036942D01*
X105265454Y-74067045D01*
X105297288Y-74118656D01*
X105421344Y-74242712D01*
X105570666Y-74334814D01*
X105679505Y-74370879D01*
X105736949Y-74410652D01*
X105763772Y-74475167D01*
X105764500Y-74488585D01*
X105764500Y-75732281D01*
X105744815Y-75799320D01*
X105692011Y-75845075D01*
X105622853Y-75855019D01*
X105584206Y-75842766D01*
X105475561Y-75787409D01*
X105287763Y-75726389D01*
X105092736Y-75695500D01*
X105092731Y-75695500D01*
X103387269Y-75695500D01*
X103387264Y-75695500D01*
X103192236Y-75726389D01*
X103004441Y-75787408D01*
X102828495Y-75877058D01*
X102668753Y-75993115D01*
X102529115Y-76132753D01*
X102413058Y-76292495D01*
X102323407Y-76468443D01*
X102320768Y-76476566D01*
X102281328Y-76534239D01*
X102216968Y-76561434D01*
X102148122Y-76549517D01*
X102115158Y-76525923D01*
X101226819Y-75637584D01*
X101193334Y-75576261D01*
X101190500Y-75549903D01*
X101190500Y-75524313D01*
X101190499Y-75524298D01*
X101187598Y-75487432D01*
X101187597Y-75487426D01*
X101141745Y-75329606D01*
X101141745Y-75329605D01*
X101141744Y-75329602D01*
X101132871Y-75314598D01*
X101099175Y-75257620D01*
X101081992Y-75189896D01*
X101104152Y-75123634D01*
X101158619Y-75079871D01*
X101205907Y-75070500D01*
X102243075Y-75070500D01*
X102243091Y-75070501D01*
X102250687Y-75070501D01*
X102408798Y-75070501D01*
X102408801Y-75070501D01*
X102561529Y-75029577D01*
X102611890Y-75000501D01*
X102611891Y-75000501D01*
X102698453Y-74950524D01*
X102698452Y-74950524D01*
X102698460Y-74950520D01*
X102810264Y-74838716D01*
X102810264Y-74838714D01*
X102820468Y-74828511D01*
X102820472Y-74828506D01*
X103270368Y-74378609D01*
X103331687Y-74345127D01*
X103401378Y-74350111D01*
X103414276Y-74356418D01*
X103414330Y-74356304D01*
X103420880Y-74359358D01*
X103587302Y-74414505D01*
X103587309Y-74414506D01*
X103690019Y-74424999D01*
X103827499Y-74424999D01*
X103827500Y-74424998D01*
X103827500Y-73074000D01*
X103847185Y-73006961D01*
X103899989Y-72961206D01*
X103951500Y-72950000D01*
X104203500Y-72950000D01*
X104270539Y-72969685D01*
G37*
%TD.AperFunction*%
%TD*%
M02*
