%TF.GenerationSoftware,KiCad,Pcbnew,8.0.3-8.0.3-0~ubuntu22.04.1*%
%TF.CreationDate,2024-07-22T11:51:42+02:00*%
%TF.ProjectId,splt_mlt,73706c74-5f6d-46c7-942e-6b696361645f,rev?*%
%TF.SameCoordinates,Original*%
%TF.FileFunction,Soldermask,Bot*%
%TF.FilePolarity,Negative*%
%FSLAX46Y46*%
G04 Gerber Fmt 4.6, Leading zero omitted, Abs format (unit mm)*
G04 Created by KiCad (PCBNEW 8.0.3-8.0.3-0~ubuntu22.04.1) date 2024-07-22 11:51:42*
%MOMM*%
%LPD*%
G01*
G04 APERTURE LIST*
G04 Aperture macros list*
%AMRoundRect*
0 Rectangle with rounded corners*
0 $1 Rounding radius*
0 $2 $3 $4 $5 $6 $7 $8 $9 X,Y pos of 4 corners*
0 Add a 4 corners polygon primitive as box body*
4,1,4,$2,$3,$4,$5,$6,$7,$8,$9,$2,$3,0*
0 Add four circle primitives for the rounded corners*
1,1,$1+$1,$2,$3*
1,1,$1+$1,$4,$5*
1,1,$1+$1,$6,$7*
1,1,$1+$1,$8,$9*
0 Add four rect primitives between the rounded corners*
20,1,$1+$1,$2,$3,$4,$5,0*
20,1,$1+$1,$4,$5,$6,$7,0*
20,1,$1+$1,$6,$7,$8,$9,0*
20,1,$1+$1,$8,$9,$2,$3,0*%
G04 Aperture macros list end*
%ADD10O,1.508000X3.016000*%
%ADD11O,3.016000X1.508000*%
%ADD12RoundRect,0.250000X-0.350000X-0.450000X0.350000X-0.450000X0.350000X0.450000X-0.350000X0.450000X0*%
%ADD13RoundRect,0.250000X-0.475000X0.337500X-0.475000X-0.337500X0.475000X-0.337500X0.475000X0.337500X0*%
%ADD14RoundRect,0.250000X0.475000X-0.337500X0.475000X0.337500X-0.475000X0.337500X-0.475000X-0.337500X0*%
%ADD15RoundRect,0.150000X0.825000X0.150000X-0.825000X0.150000X-0.825000X-0.150000X0.825000X-0.150000X0*%
%ADD16RoundRect,0.250000X0.450000X-0.350000X0.450000X0.350000X-0.450000X0.350000X-0.450000X-0.350000X0*%
%ADD17RoundRect,0.250000X-0.450000X0.350000X-0.450000X-0.350000X0.450000X-0.350000X0.450000X0.350000X0*%
%ADD18RoundRect,0.250000X-0.337500X-0.475000X0.337500X-0.475000X0.337500X0.475000X-0.337500X0.475000X0*%
%ADD19R,2.200000X2.200000*%
%ADD20O,2.200000X2.200000*%
%ADD21R,1.200000X1.200000*%
%ADD22C,1.200000*%
%ADD23RoundRect,0.250000X0.350000X0.450000X-0.350000X0.450000X-0.350000X-0.450000X0.350000X-0.450000X0*%
%ADD24O,1.700000X1.700000*%
G04 APERTURE END LIST*
D10*
%TO.C,J8*%
X100190000Y-109000000D03*
D11*
X103390000Y-105450000D03*
D10*
X108290000Y-109000000D03*
D11*
X103390000Y-112550000D03*
%TD*%
D10*
%TO.C,J6*%
X108290000Y-95000000D03*
D11*
X105090000Y-98550000D03*
D10*
X100190000Y-95000000D03*
D11*
X105090000Y-91450000D03*
%TD*%
%TO.C,J4*%
X104240000Y-62950000D03*
D10*
X107790000Y-66150000D03*
D11*
X104240000Y-71050000D03*
D10*
X100690000Y-66150000D03*
%TD*%
D11*
%TO.C,J10*%
X104240000Y-132950000D03*
D10*
X107790000Y-136150000D03*
D11*
X104240000Y-141050000D03*
D10*
X100690000Y-136150000D03*
%TD*%
D11*
%TO.C,J17*%
X90240000Y-118950000D03*
D10*
X93790000Y-122150000D03*
D11*
X90240000Y-127050000D03*
D10*
X86690000Y-122150000D03*
%TD*%
D11*
%TO.C,J5*%
X104240000Y-76950000D03*
D10*
X107790000Y-80150000D03*
D11*
X104240000Y-85050000D03*
D10*
X100690000Y-80150000D03*
%TD*%
D11*
%TO.C,J9*%
X104240000Y-118950000D03*
D10*
X107790000Y-122150000D03*
D11*
X104240000Y-127050000D03*
D10*
X100690000Y-122150000D03*
%TD*%
D11*
%TO.C,J16*%
X90240000Y-62950000D03*
D10*
X93790000Y-66150000D03*
D11*
X90240000Y-71050000D03*
D10*
X86690000Y-66150000D03*
%TD*%
D11*
%TO.C,J1*%
X90240000Y-48950000D03*
D10*
X93790000Y-52150000D03*
D11*
X90240000Y-57050000D03*
D10*
X86690000Y-52150000D03*
%TD*%
D11*
%TO.C,J14*%
X90240000Y-132950000D03*
D10*
X93790000Y-136150000D03*
D11*
X90240000Y-141050000D03*
D10*
X86690000Y-136150000D03*
%TD*%
D11*
%TO.C,J3*%
X104240000Y-48950000D03*
D10*
X107790000Y-52150000D03*
D11*
X104240000Y-57050000D03*
D10*
X100690000Y-52150000D03*
%TD*%
D11*
%TO.C,J12*%
X90240000Y-76950000D03*
D10*
X93790000Y-80150000D03*
D11*
X90240000Y-85050000D03*
D10*
X86690000Y-80150000D03*
%TD*%
%TO.C,J7*%
X94290000Y-109000000D03*
D11*
X91090000Y-112550000D03*
D10*
X86190000Y-109000000D03*
D11*
X91090000Y-105450000D03*
%TD*%
%TO.C,J11*%
X104240000Y-146950000D03*
D10*
X107790000Y-150150000D03*
D11*
X104240000Y-155050000D03*
D10*
X100690000Y-150150000D03*
%TD*%
%TO.C,J13*%
X94290000Y-95000000D03*
D11*
X91090000Y-98550000D03*
D10*
X86190000Y-95000000D03*
D11*
X91090000Y-91450000D03*
%TD*%
%TO.C,J15*%
X90240000Y-146950000D03*
D10*
X93790000Y-150150000D03*
D11*
X90240000Y-155050000D03*
D10*
X86690000Y-150150000D03*
%TD*%
D12*
%TO.C,R8*%
X99340000Y-85100000D03*
X101340000Y-85100000D03*
%TD*%
D13*
%TO.C,C11*%
X89240000Y-135725000D03*
X89240000Y-137800000D03*
%TD*%
D14*
%TO.C,C9*%
X104940000Y-124437500D03*
X104940000Y-122362500D03*
%TD*%
D15*
%TO.C,U2*%
X99715000Y-125867500D03*
X99715000Y-127137500D03*
X99715000Y-128407500D03*
X99715000Y-129677500D03*
X99715000Y-130947500D03*
X99715000Y-132217500D03*
X99715000Y-133487500D03*
X94765000Y-133487500D03*
X94765000Y-132217500D03*
X94765000Y-130947500D03*
X94765000Y-129677500D03*
X94765000Y-128407500D03*
X94765000Y-127137500D03*
X94765000Y-125867500D03*
%TD*%
D14*
%TO.C,C6*%
X89440000Y-68837500D03*
X89440000Y-66762500D03*
%TD*%
D16*
%TO.C,R14*%
X91440000Y-123400000D03*
X91440000Y-121400000D03*
%TD*%
D15*
%TO.C,U1*%
X99715000Y-69390000D03*
X99715000Y-70660000D03*
X99715000Y-71930000D03*
X99715000Y-73200000D03*
X99715000Y-74470000D03*
X99715000Y-75740000D03*
X99715000Y-77010000D03*
X94765000Y-77010000D03*
X94765000Y-75740000D03*
X94765000Y-74470000D03*
X94765000Y-73200000D03*
X94765000Y-71930000D03*
X94765000Y-70660000D03*
X94765000Y-69390000D03*
%TD*%
D13*
%TO.C,C10*%
X105040000Y-135125000D03*
X105040000Y-137200000D03*
%TD*%
D17*
%TO.C,R3*%
X103240000Y-79100000D03*
X103240000Y-81100000D03*
%TD*%
%TO.C,R4*%
X91440000Y-79100000D03*
X91440000Y-81100000D03*
%TD*%
D16*
%TO.C,R15*%
X108340000Y-114200000D03*
X108340000Y-112200000D03*
%TD*%
D18*
%TO.C,C8*%
X101902500Y-129800000D03*
X103977500Y-129800000D03*
%TD*%
D12*
%TO.C,R1*%
X93240000Y-57000000D03*
X95240000Y-57000000D03*
%TD*%
D14*
%TO.C,C12*%
X89340000Y-123400000D03*
X89340000Y-121325000D03*
%TD*%
D12*
%TO.C,R10*%
X89240000Y-109000000D03*
X91240000Y-109000000D03*
%TD*%
%TO.C,R9*%
X99840000Y-90900000D03*
X101840000Y-90900000D03*
%TD*%
%TO.C,R7*%
X106240000Y-73200000D03*
X108240000Y-73200000D03*
%TD*%
D17*
%TO.C,R13*%
X91440000Y-135800000D03*
X91440000Y-137800000D03*
%TD*%
D19*
%TO.C,D1*%
X86368234Y-100828234D03*
D20*
X86368234Y-103368234D03*
%TD*%
D16*
%TO.C,R5*%
X91540000Y-68800000D03*
X91540000Y-66800000D03*
%TD*%
D21*
%TO.C,C14*%
X96540000Y-115600000D03*
D22*
X98040000Y-115600000D03*
%TD*%
D12*
%TO.C,R6*%
X99440000Y-56900000D03*
X101440000Y-56900000D03*
%TD*%
D17*
%TO.C,R12*%
X102640000Y-135200000D03*
X102640000Y-137200000D03*
%TD*%
D23*
%TO.C,R16*%
X109340000Y-127000000D03*
X107340000Y-127000000D03*
%TD*%
D13*
%TO.C,C5*%
X89340000Y-79062500D03*
X89340000Y-81137500D03*
%TD*%
D12*
%TO.C,R17*%
X99340000Y-141000000D03*
X101340000Y-141000000D03*
%TD*%
D21*
%TO.C,C13*%
X97862599Y-88099998D03*
D22*
X96362599Y-88099998D03*
%TD*%
D16*
%TO.C,R11*%
X102840000Y-124400000D03*
X102840000Y-122400000D03*
%TD*%
D14*
%TO.C,C3*%
X104940000Y-68937500D03*
X104940000Y-66862500D03*
%TD*%
D24*
%TO.C,J2*%
X92160000Y-100730000D03*
X92160000Y-103270000D03*
X94700000Y-100730000D03*
X94700000Y-103270000D03*
X97240000Y-100730000D03*
X97240000Y-103270000D03*
X99780000Y-100730000D03*
X99780000Y-103270000D03*
X102320000Y-100730000D03*
X102320000Y-103270000D03*
%TD*%
D12*
%TO.C,R18*%
X103240000Y-151000000D03*
X105240000Y-151000000D03*
%TD*%
D19*
%TO.C,D2*%
X108368234Y-100728234D03*
D20*
X108368234Y-103268234D03*
%TD*%
D16*
%TO.C,R2*%
X102840000Y-68900000D03*
X102840000Y-66900000D03*
%TD*%
D18*
%TO.C,C1*%
X90502500Y-73200000D03*
X92577500Y-73200000D03*
%TD*%
%TO.C,C7*%
X90602500Y-129700000D03*
X92677500Y-129700000D03*
%TD*%
%TO.C,C2*%
X102002500Y-73200000D03*
X104077500Y-73200000D03*
%TD*%
D13*
%TO.C,C4*%
X105340000Y-79062500D03*
X105340000Y-81137500D03*
%TD*%
M02*
