%TF.GenerationSoftware,KiCad,Pcbnew,8.0.0*%
%TF.CreationDate,2024-04-17T20:03:05+02:00*%
%TF.ProjectId,Vader_Fader_panel,56616465-725f-4466-9164-65725f70616e,rev?*%
%TF.SameCoordinates,Original*%
%TF.FileFunction,Copper,L2,Bot*%
%TF.FilePolarity,Positive*%
%FSLAX46Y46*%
G04 Gerber Fmt 4.6, Leading zero omitted, Abs format (unit mm)*
G04 Created by KiCad (PCBNEW 8.0.0) date 2024-04-17 20:03:05*
%MOMM*%
%LPD*%
G01*
G04 APERTURE LIST*
%ADD10C,0.300000*%
%TA.AperFunction,NonConductor*%
%ADD11C,0.300000*%
%TD*%
%TA.AperFunction,NonConductor*%
%ADD12C,0.200000*%
%TD*%
%TA.AperFunction,ComponentPad*%
%ADD13O,3.000000X73.000000*%
%TD*%
%TA.AperFunction,ViaPad*%
%ADD14C,4.000000*%
%TD*%
%TA.AperFunction,ViaPad*%
%ADD15C,7.000000*%
%TD*%
G04 APERTURE END LIST*
D10*
D11*
X120439286Y-163428328D02*
X121439286Y-163428328D01*
X121439286Y-163428328D02*
X120796429Y-164928328D01*
X122082143Y-164856900D02*
X122082143Y-164928328D01*
X122082143Y-164928328D02*
X122010714Y-165071185D01*
X122010714Y-165071185D02*
X121939286Y-165142614D01*
X123367858Y-163928328D02*
X123367858Y-164928328D01*
X123010715Y-163356900D02*
X122653572Y-164428328D01*
X122653572Y-164428328D02*
X123582143Y-164428328D01*
X124867857Y-163428328D02*
X124153571Y-163428328D01*
X124153571Y-163428328D02*
X124082143Y-164142614D01*
X124082143Y-164142614D02*
X124153571Y-164071185D01*
X124153571Y-164071185D02*
X124296429Y-163999757D01*
X124296429Y-163999757D02*
X124653571Y-163999757D01*
X124653571Y-163999757D02*
X124796429Y-164071185D01*
X124796429Y-164071185D02*
X124867857Y-164142614D01*
X124867857Y-164142614D02*
X124939286Y-164285471D01*
X124939286Y-164285471D02*
X124939286Y-164642614D01*
X124939286Y-164642614D02*
X124867857Y-164785471D01*
X124867857Y-164785471D02*
X124796429Y-164856900D01*
X124796429Y-164856900D02*
X124653571Y-164928328D01*
X124653571Y-164928328D02*
X124296429Y-164928328D01*
X124296429Y-164928328D02*
X124153571Y-164856900D01*
X124153571Y-164856900D02*
X124082143Y-164785471D01*
X125867857Y-163428328D02*
X126010714Y-163428328D01*
X126010714Y-163428328D02*
X126153571Y-163499757D01*
X126153571Y-163499757D02*
X126225000Y-163571185D01*
X126225000Y-163571185D02*
X126296428Y-163714042D01*
X126296428Y-163714042D02*
X126367857Y-163999757D01*
X126367857Y-163999757D02*
X126367857Y-164356900D01*
X126367857Y-164356900D02*
X126296428Y-164642614D01*
X126296428Y-164642614D02*
X126225000Y-164785471D01*
X126225000Y-164785471D02*
X126153571Y-164856900D01*
X126153571Y-164856900D02*
X126010714Y-164928328D01*
X126010714Y-164928328D02*
X125867857Y-164928328D01*
X125867857Y-164928328D02*
X125725000Y-164856900D01*
X125725000Y-164856900D02*
X125653571Y-164785471D01*
X125653571Y-164785471D02*
X125582142Y-164642614D01*
X125582142Y-164642614D02*
X125510714Y-164356900D01*
X125510714Y-164356900D02*
X125510714Y-163999757D01*
X125510714Y-163999757D02*
X125582142Y-163714042D01*
X125582142Y-163714042D02*
X125653571Y-163571185D01*
X125653571Y-163571185D02*
X125725000Y-163499757D01*
X125725000Y-163499757D02*
X125867857Y-163428328D01*
X127296428Y-163428328D02*
X127439285Y-163428328D01*
X127439285Y-163428328D02*
X127582142Y-163499757D01*
X127582142Y-163499757D02*
X127653571Y-163571185D01*
X127653571Y-163571185D02*
X127724999Y-163714042D01*
X127724999Y-163714042D02*
X127796428Y-163999757D01*
X127796428Y-163999757D02*
X127796428Y-164356900D01*
X127796428Y-164356900D02*
X127724999Y-164642614D01*
X127724999Y-164642614D02*
X127653571Y-164785471D01*
X127653571Y-164785471D02*
X127582142Y-164856900D01*
X127582142Y-164856900D02*
X127439285Y-164928328D01*
X127439285Y-164928328D02*
X127296428Y-164928328D01*
X127296428Y-164928328D02*
X127153571Y-164856900D01*
X127153571Y-164856900D02*
X127082142Y-164785471D01*
X127082142Y-164785471D02*
X127010713Y-164642614D01*
X127010713Y-164642614D02*
X126939285Y-164356900D01*
X126939285Y-164356900D02*
X126939285Y-163999757D01*
X126939285Y-163999757D02*
X127010713Y-163714042D01*
X127010713Y-163714042D02*
X127082142Y-163571185D01*
X127082142Y-163571185D02*
X127153571Y-163499757D01*
X127153571Y-163499757D02*
X127296428Y-163428328D01*
X129582141Y-164928328D02*
X129582141Y-163928328D01*
X129582141Y-164071185D02*
X129653570Y-163999757D01*
X129653570Y-163999757D02*
X129796427Y-163928328D01*
X129796427Y-163928328D02*
X130010713Y-163928328D01*
X130010713Y-163928328D02*
X130153570Y-163999757D01*
X130153570Y-163999757D02*
X130224999Y-164142614D01*
X130224999Y-164142614D02*
X130224999Y-164928328D01*
X130224999Y-164142614D02*
X130296427Y-163999757D01*
X130296427Y-163999757D02*
X130439284Y-163928328D01*
X130439284Y-163928328D02*
X130653570Y-163928328D01*
X130653570Y-163928328D02*
X130796427Y-163999757D01*
X130796427Y-163999757D02*
X130867856Y-164142614D01*
X130867856Y-164142614D02*
X130867856Y-164928328D01*
X131582141Y-164928328D02*
X131582141Y-163928328D01*
X131582141Y-164071185D02*
X131653570Y-163999757D01*
X131653570Y-163999757D02*
X131796427Y-163928328D01*
X131796427Y-163928328D02*
X132010713Y-163928328D01*
X132010713Y-163928328D02*
X132153570Y-163999757D01*
X132153570Y-163999757D02*
X132224999Y-164142614D01*
X132224999Y-164142614D02*
X132224999Y-164928328D01*
X132224999Y-164142614D02*
X132296427Y-163999757D01*
X132296427Y-163999757D02*
X132439284Y-163928328D01*
X132439284Y-163928328D02*
X132653570Y-163928328D01*
X132653570Y-163928328D02*
X132796427Y-163999757D01*
X132796427Y-163999757D02*
X132867856Y-164142614D01*
X132867856Y-164142614D02*
X132867856Y-164928328D01*
D12*
X123000000Y-33500000D02*
X123000000Y-166636420D01*
X130450000Y-33500000D02*
X130450000Y-166636420D01*
X123000000Y-166050000D02*
X130450000Y-166050000D01*
X123000000Y-166050000D02*
X130450000Y-166050000D01*
X123000000Y-166050000D02*
X124126504Y-165463579D01*
X123000000Y-166050000D02*
X124126504Y-166636421D01*
X130450000Y-166050000D02*
X129323496Y-166636421D01*
X130450000Y-166050000D02*
X129323496Y-165463579D01*
D13*
%TO.P,,S*%
%TO.N,GND*%
X133160000Y-97250000D03*
%TD*%
D14*
%TO.N,GND*%
X130450000Y-36000000D03*
X130450000Y-158500000D03*
D15*
X133160000Y-53250000D03*
X133325000Y-141250000D03*
%TD*%
M02*
