%TF.GenerationSoftware,KiCad,Pcbnew,8.0.0*%
%TF.CreationDate,2024-03-24T11:12:39+01:00*%
%TF.ProjectId,Vader_Fader,56616465-725f-4466-9164-65722e6b6963,rev?*%
%TF.SameCoordinates,Original*%
%TF.FileFunction,Legend,Top*%
%TF.FilePolarity,Positive*%
%FSLAX46Y46*%
G04 Gerber Fmt 4.6, Leading zero omitted, Abs format (unit mm)*
G04 Created by KiCad (PCBNEW 8.0.0) date 2024-03-24 11:12:39*
%MOMM*%
%LPD*%
G01*
G04 APERTURE LIST*
%ADD10C,0.150000*%
%ADD11C,0.100000*%
%ADD12C,0.200000*%
%ADD13C,0.120000*%
G04 APERTURE END LIST*
D10*
G36*
X105876475Y-87962525D02*
G01*
X106189106Y-87941276D01*
X106189106Y-87962525D01*
X106138866Y-87979825D01*
X106094206Y-87999665D01*
X106049158Y-88026026D01*
X106006977Y-88060387D01*
X105985652Y-88084158D01*
X105958404Y-88125588D01*
X105938941Y-88170987D01*
X105927263Y-88220354D01*
X105923370Y-88273691D01*
X105927099Y-88324487D01*
X105938285Y-88372463D01*
X105956929Y-88417618D01*
X105970509Y-88441486D01*
X106001331Y-88481014D01*
X106041040Y-88515520D01*
X106083798Y-88541974D01*
X106120474Y-88559211D01*
X106167868Y-88575960D01*
X106220077Y-88588596D01*
X106268661Y-88596152D01*
X106320782Y-88600686D01*
X106376441Y-88602197D01*
X106430084Y-88600257D01*
X106480525Y-88594437D01*
X106534251Y-88583034D01*
X106583794Y-88566563D01*
X106595526Y-88561653D01*
X106639124Y-88538832D01*
X106681748Y-88507063D01*
X106717571Y-88468842D01*
X106737676Y-88439776D01*
X106761525Y-88392092D01*
X106777569Y-88340815D01*
X106785278Y-88292218D01*
X106787013Y-88253907D01*
X106783980Y-88204499D01*
X106773494Y-88153590D01*
X106755520Y-88106879D01*
X106748667Y-88093684D01*
X106717130Y-88048995D01*
X106681218Y-88011320D01*
X106642007Y-87976953D01*
X106602612Y-87946453D01*
X106595526Y-87941276D01*
X106609204Y-87920027D01*
X106652873Y-87947138D01*
X106697981Y-87980851D01*
X106736802Y-88016808D01*
X106769334Y-88055009D01*
X106788722Y-88083670D01*
X106813620Y-88132518D01*
X106829570Y-88178867D01*
X106840074Y-88228582D01*
X106845131Y-88281663D01*
X106845631Y-88305442D01*
X106842960Y-88361641D01*
X106834945Y-88414588D01*
X106821588Y-88464284D01*
X106802889Y-88510728D01*
X106778846Y-88553921D01*
X106749460Y-88593863D01*
X106714732Y-88630552D01*
X106674661Y-88663991D01*
X106633868Y-88691292D01*
X106582005Y-88717945D01*
X106526964Y-88737934D01*
X106478670Y-88749502D01*
X106428170Y-88756443D01*
X106375464Y-88758757D01*
X106324230Y-88756559D01*
X106274576Y-88749964D01*
X106226502Y-88738973D01*
X106180008Y-88723586D01*
X106135094Y-88703802D01*
X106120474Y-88696231D01*
X106072123Y-88666632D01*
X106028798Y-88632544D01*
X105990498Y-88593969D01*
X105957224Y-88550906D01*
X105940467Y-88524284D01*
X105915533Y-88475335D01*
X105896723Y-88424447D01*
X105884037Y-88371618D01*
X105877475Y-88316849D01*
X105876475Y-88284682D01*
X105879467Y-88234413D01*
X105888443Y-88184481D01*
X105903403Y-88134884D01*
X105924347Y-88085624D01*
X105939002Y-88044347D01*
X105926301Y-88012107D01*
X105882350Y-87988215D01*
X105876475Y-87986705D01*
X105876475Y-87962525D01*
G37*
G36*
X105845212Y-87616189D02*
G01*
X106684431Y-87616189D01*
X106733951Y-87614052D01*
X106763321Y-87607640D01*
X106792630Y-87581262D01*
X106802292Y-87531737D01*
X106802644Y-87514584D01*
X106830000Y-87514584D01*
X106830000Y-87823063D01*
X106802644Y-87823063D01*
X106797561Y-87773512D01*
X106793607Y-87763956D01*
X106764054Y-87739287D01*
X106714527Y-87730965D01*
X106684431Y-87730250D01*
X106109727Y-87730250D01*
X106056082Y-87730637D01*
X106004871Y-87732354D01*
X105978325Y-87735135D01*
X105944863Y-87750523D01*
X105935826Y-87777633D01*
X105946817Y-87823063D01*
X105922637Y-87834542D01*
X105845212Y-87647208D01*
X105845212Y-87616189D01*
G37*
G36*
X106783169Y-86899452D02*
G01*
X106816749Y-86936744D01*
X106840734Y-86982158D01*
X106845631Y-87013153D01*
X106828939Y-87060056D01*
X106822184Y-87066643D01*
X106774474Y-87084841D01*
X106742561Y-87087159D01*
X106772243Y-87126121D01*
X106801545Y-87166049D01*
X106828228Y-87207179D01*
X106829023Y-87208792D01*
X106843295Y-87257106D01*
X106845631Y-87287927D01*
X106838133Y-87337123D01*
X106813289Y-87381629D01*
X106800202Y-87395393D01*
X106758534Y-87422751D01*
X106707353Y-87436162D01*
X106680523Y-87437647D01*
X106631905Y-87431079D01*
X106599434Y-87416887D01*
X106559003Y-87384362D01*
X106525984Y-87343833D01*
X106510041Y-87319190D01*
X106484981Y-87272594D01*
X106463513Y-87226255D01*
X106443735Y-87179504D01*
X106422686Y-87126261D01*
X106407948Y-87087159D01*
X106450935Y-87087159D01*
X106470291Y-87134466D01*
X106490193Y-87180676D01*
X106510041Y-87221248D01*
X106537483Y-87262802D01*
X106572189Y-87297422D01*
X106574277Y-87298917D01*
X106620715Y-87319379D01*
X106647306Y-87322121D01*
X106695749Y-87313780D01*
X106730593Y-87292567D01*
X106758929Y-87252191D01*
X106763565Y-87224668D01*
X106752077Y-87176758D01*
X106727605Y-87132499D01*
X106698239Y-87092454D01*
X106693956Y-87087159D01*
X106450935Y-87087159D01*
X106407948Y-87087159D01*
X106382791Y-87087159D01*
X106333943Y-87089535D01*
X106283540Y-87100097D01*
X106252121Y-87117201D01*
X106223287Y-87159301D01*
X106216461Y-87203907D01*
X106226980Y-87253184D01*
X106240886Y-87272784D01*
X106283521Y-87297667D01*
X106297062Y-87298917D01*
X106338827Y-87297452D01*
X106386596Y-87310691D01*
X106390118Y-87313572D01*
X106407948Y-87355826D01*
X106389385Y-87397347D01*
X106342316Y-87413404D01*
X106338339Y-87413467D01*
X106289983Y-87403511D01*
X106248280Y-87376646D01*
X106225254Y-87353139D01*
X106197949Y-87310535D01*
X106182020Y-87264075D01*
X106174284Y-87209925D01*
X106173475Y-87183391D01*
X106176289Y-87133989D01*
X106187097Y-87082515D01*
X106202295Y-87046126D01*
X106234555Y-87007237D01*
X106270439Y-86986287D01*
X106320281Y-86976567D01*
X106371632Y-86974025D01*
X106394026Y-86973830D01*
X106612135Y-86973830D01*
X106662720Y-86973496D01*
X106712480Y-86971743D01*
X106724975Y-86970411D01*
X106752819Y-86959176D01*
X106759658Y-86940857D01*
X106755017Y-86921562D01*
X106721219Y-86882797D01*
X106704703Y-86866119D01*
X106743293Y-86866119D01*
X106783169Y-86899452D01*
G37*
G36*
X106306587Y-86638973D02*
G01*
X106268239Y-86604654D01*
X106230801Y-86564148D01*
X106198953Y-86517824D01*
X106179844Y-86472505D01*
X106173475Y-86428192D01*
X106180850Y-86377503D01*
X106199609Y-86339532D01*
X106236629Y-86304360D01*
X106281402Y-86281813D01*
X106285094Y-86280425D01*
X106333963Y-86269556D01*
X106387045Y-86265651D01*
X106412833Y-86265282D01*
X106683942Y-86265282D01*
X106734562Y-86262900D01*
X106765764Y-86255756D01*
X106792875Y-86231332D01*
X106802406Y-86182549D01*
X106802644Y-86169050D01*
X106830000Y-86169050D01*
X106830000Y-86480215D01*
X106802644Y-86480215D01*
X106802644Y-86467271D01*
X106795705Y-86417700D01*
X106789211Y-86405721D01*
X106749399Y-86381297D01*
X106700204Y-86378676D01*
X106684187Y-86378610D01*
X106424312Y-86378610D01*
X106374901Y-86380805D01*
X106324501Y-86390219D01*
X106298771Y-86401081D01*
X106265938Y-86438237D01*
X106259448Y-86476063D01*
X106268250Y-86527130D01*
X106291221Y-86572968D01*
X106323610Y-86613615D01*
X106349574Y-86638973D01*
X106684187Y-86638973D01*
X106733796Y-86637310D01*
X106763810Y-86631402D01*
X106793363Y-86605024D01*
X106802318Y-86554742D01*
X106802644Y-86536636D01*
X106830000Y-86536636D01*
X106830000Y-86847801D01*
X106802644Y-86847801D01*
X106802644Y-86834123D01*
X106793008Y-86786191D01*
X106777976Y-86769155D01*
X106729681Y-86754672D01*
X106683942Y-86752302D01*
X106448248Y-86752302D01*
X106396575Y-86752623D01*
X106347741Y-86753925D01*
X106308785Y-86757431D01*
X106274836Y-86773307D01*
X106265799Y-86801883D01*
X106276057Y-86847801D01*
X106251144Y-86858059D01*
X106173475Y-86668527D01*
X106173475Y-86638973D01*
X106306587Y-86638973D01*
G37*
G36*
X106845631Y-85646859D02*
G01*
X106845631Y-85678366D01*
X106755505Y-85678366D01*
X106790125Y-85715510D01*
X106818951Y-85757467D01*
X106824626Y-85768492D01*
X106841016Y-85817133D01*
X106845631Y-85863258D01*
X106840212Y-85913160D01*
X106823954Y-85959795D01*
X106796859Y-86003163D01*
X106758925Y-86043265D01*
X106718535Y-86073243D01*
X106673447Y-86095858D01*
X106623660Y-86111110D01*
X106569175Y-86118999D01*
X106535931Y-86120202D01*
X106485639Y-86117205D01*
X106436978Y-86108215D01*
X106389949Y-86093231D01*
X106344552Y-86072254D01*
X106300785Y-86045283D01*
X106286559Y-86034961D01*
X106248128Y-86001287D01*
X106213341Y-85957681D01*
X106189377Y-85909424D01*
X106176236Y-85856515D01*
X106174039Y-85824179D01*
X106216461Y-85824179D01*
X106226933Y-85874488D01*
X106255411Y-85916767D01*
X106271172Y-85931890D01*
X106317093Y-85962115D01*
X106366736Y-85980678D01*
X106416985Y-85990509D01*
X106473592Y-85994355D01*
X106482198Y-85994416D01*
X106532387Y-85992296D01*
X106585145Y-85984460D01*
X106637799Y-85968435D01*
X106682301Y-85944870D01*
X106696887Y-85934088D01*
X106732897Y-85898935D01*
X106759087Y-85857337D01*
X106771090Y-85808494D01*
X106771381Y-85799266D01*
X106760981Y-85749149D01*
X106732920Y-85704104D01*
X106708367Y-85678366D01*
X106380837Y-85678366D01*
X106330433Y-85688292D01*
X106294863Y-85703279D01*
X106255464Y-85732378D01*
X106236245Y-85757745D01*
X106218393Y-85803733D01*
X106216461Y-85824179D01*
X106174039Y-85824179D01*
X106173475Y-85815875D01*
X106178651Y-85766659D01*
X106196300Y-85719078D01*
X106226475Y-85678366D01*
X106110216Y-85678366D01*
X106056197Y-85678772D01*
X106004608Y-85680575D01*
X105977836Y-85683495D01*
X105944131Y-85699615D01*
X105935094Y-85727215D01*
X105946085Y-85774598D01*
X105922149Y-85783635D01*
X105845212Y-85596056D01*
X105845212Y-85565038D01*
X106575743Y-85565038D01*
X106625904Y-85564717D01*
X106677229Y-85563229D01*
X106711542Y-85559908D01*
X106745736Y-85543544D01*
X106755261Y-85516922D01*
X106743538Y-85467585D01*
X106767718Y-85460013D01*
X106845631Y-85646859D01*
G37*
G36*
X106646064Y-84895320D02*
G01*
X106695646Y-84916467D01*
X106737480Y-84942563D01*
X106767473Y-84966643D01*
X106801667Y-85003508D01*
X106828458Y-85050200D01*
X106842883Y-85102418D01*
X106845631Y-85140299D01*
X106840075Y-85194933D01*
X106823405Y-85245507D01*
X106795622Y-85292020D01*
X106762196Y-85329388D01*
X106756727Y-85334472D01*
X106714909Y-85365878D01*
X106667248Y-85389570D01*
X106613743Y-85405548D01*
X106563230Y-85413105D01*
X106517857Y-85415072D01*
X106468848Y-85413051D01*
X106414649Y-85405289D01*
X106365481Y-85391705D01*
X106314479Y-85368498D01*
X106270326Y-85337368D01*
X106264577Y-85332274D01*
X106229079Y-85294040D01*
X106202300Y-85251785D01*
X106184240Y-85205509D01*
X106176347Y-85163014D01*
X106220369Y-85163014D01*
X106230351Y-85213790D01*
X106257680Y-85256532D01*
X106265799Y-85265107D01*
X106308595Y-85295454D01*
X106358546Y-85312519D01*
X106392316Y-85317620D01*
X106392316Y-85026238D01*
X106342206Y-85031107D01*
X106304877Y-85040648D01*
X106262307Y-85068812D01*
X106243084Y-85091939D01*
X106223053Y-85137866D01*
X106220369Y-85163014D01*
X106176347Y-85163014D01*
X106174898Y-85155213D01*
X106173475Y-85124668D01*
X106177871Y-85074048D01*
X106193327Y-85022795D01*
X106219911Y-84977569D01*
X106243817Y-84950767D01*
X106286995Y-84917944D01*
X106331668Y-84897787D01*
X106382265Y-84886116D01*
X106431395Y-84882867D01*
X106431395Y-85317620D01*
X106482022Y-85315447D01*
X106535704Y-85306727D01*
X106583589Y-85291344D01*
X106631216Y-85265607D01*
X106652191Y-85249476D01*
X106687240Y-85213648D01*
X106714700Y-85169730D01*
X106729486Y-85121986D01*
X106732302Y-85088031D01*
X106725711Y-85037047D01*
X106705936Y-84992235D01*
X106697864Y-84980564D01*
X106661781Y-84945914D01*
X106618592Y-84920435D01*
X106579895Y-84904116D01*
X106593817Y-84882867D01*
X106646064Y-84895320D01*
G37*
G36*
X106173475Y-84395359D02*
G01*
X106392316Y-84395359D01*
X106392316Y-84418073D01*
X106344231Y-84432056D01*
X106295888Y-84452111D01*
X106255130Y-84479954D01*
X106250167Y-84484996D01*
X106223169Y-84528172D01*
X106212884Y-84577380D01*
X106212554Y-84589043D01*
X106220668Y-84637300D01*
X106238199Y-84666712D01*
X106279827Y-84694419D01*
X106295108Y-84696266D01*
X106343310Y-84685876D01*
X106361786Y-84674284D01*
X106394939Y-84636391D01*
X106420133Y-84591626D01*
X106422114Y-84587578D01*
X106471451Y-84487438D01*
X106498734Y-84440043D01*
X106534470Y-84397141D01*
X106574415Y-84367587D01*
X106625217Y-84350155D01*
X106652679Y-84347975D01*
X106703603Y-84354320D01*
X106752071Y-84375955D01*
X106789270Y-84408947D01*
X106792630Y-84412944D01*
X106820580Y-84454947D01*
X106839368Y-84504732D01*
X106845579Y-84553246D01*
X106845631Y-84558269D01*
X106841237Y-84607843D01*
X106829382Y-84658470D01*
X106819009Y-84690160D01*
X106812170Y-84727040D01*
X106830000Y-84751953D01*
X106830000Y-84774423D01*
X106611158Y-84774423D01*
X106611158Y-84751953D01*
X106661933Y-84738337D01*
X106709513Y-84716727D01*
X106751106Y-84685077D01*
X106757459Y-84678436D01*
X106787375Y-84635915D01*
X106803484Y-84589684D01*
X106806552Y-84556803D01*
X106796650Y-84506735D01*
X106778464Y-84479622D01*
X106736655Y-84453130D01*
X106710809Y-84449580D01*
X106661822Y-84460168D01*
X106630453Y-84483042D01*
X106598496Y-84524822D01*
X106571606Y-84570236D01*
X106547655Y-84615910D01*
X106523230Y-84661431D01*
X106494417Y-84706224D01*
X106459813Y-84744345D01*
X106457285Y-84746335D01*
X106412527Y-84769600D01*
X106361140Y-84777324D01*
X106357390Y-84777354D01*
X106306519Y-84771063D01*
X106257935Y-84749848D01*
X106226231Y-84724109D01*
X106196195Y-84683809D01*
X106178627Y-84636121D01*
X106173475Y-84586356D01*
X106178985Y-84536674D01*
X106189106Y-84496231D01*
X106199609Y-84449580D01*
X106194724Y-84432483D01*
X106173475Y-84418073D01*
X106173475Y-84395359D01*
G37*
G36*
X105985896Y-84075156D02*
G01*
X106189106Y-84075156D01*
X106189106Y-83928122D01*
X106236001Y-83928122D01*
X106236001Y-84075156D01*
X106656587Y-84075156D01*
X106706647Y-84071292D01*
X106741584Y-84057571D01*
X106763565Y-84012630D01*
X106749644Y-83968666D01*
X106711276Y-83937196D01*
X106707878Y-83935693D01*
X106707878Y-83908827D01*
X106754051Y-83929744D01*
X106793763Y-83958683D01*
X106810704Y-83976971D01*
X106836899Y-84021606D01*
X106845631Y-84067585D01*
X106834600Y-84116069D01*
X106827557Y-84129378D01*
X106793627Y-84164713D01*
X106776022Y-84174075D01*
X106726588Y-84185727D01*
X106676564Y-84188471D01*
X106672219Y-84188485D01*
X106236001Y-84188485D01*
X106236001Y-84288136D01*
X106213775Y-84288136D01*
X106190522Y-84245082D01*
X106163461Y-84210955D01*
X106127415Y-84175739D01*
X106085680Y-84144280D01*
X106079685Y-84140369D01*
X106034249Y-84117211D01*
X105985896Y-84096405D01*
X105985896Y-84075156D01*
G37*
G36*
X105845212Y-83709036D02*
G01*
X105863244Y-83662511D01*
X105865729Y-83659943D01*
X105911682Y-83639750D01*
X105915310Y-83639671D01*
X105962508Y-83657488D01*
X105965136Y-83659943D01*
X105985815Y-83705467D01*
X105985896Y-83709036D01*
X105967650Y-83755991D01*
X105965136Y-83758617D01*
X105920687Y-83778953D01*
X105915310Y-83779134D01*
X105868298Y-83761316D01*
X105865729Y-83758862D01*
X105845292Y-83712694D01*
X105845212Y-83709036D01*
G37*
G36*
X106173475Y-83651883D02*
G01*
X106683942Y-83651883D01*
X106733768Y-83649746D01*
X106763565Y-83643335D01*
X106792875Y-83617934D01*
X106802406Y-83569672D01*
X106802644Y-83556384D01*
X106830000Y-83556384D01*
X106830000Y-83862176D01*
X106802644Y-83862176D01*
X106798373Y-83813134D01*
X106793607Y-83800383D01*
X106763810Y-83775226D01*
X106714157Y-83766679D01*
X106683942Y-83765945D01*
X106439211Y-83765945D01*
X106386854Y-83766428D01*
X106334956Y-83768574D01*
X106305366Y-83772051D01*
X106274591Y-83787194D01*
X106265799Y-83815526D01*
X106276057Y-83862176D01*
X106251144Y-83871702D01*
X106173475Y-83682169D01*
X106173475Y-83651883D01*
G37*
G36*
X106306587Y-83296754D02*
G01*
X106268239Y-83262435D01*
X106230801Y-83221929D01*
X106198953Y-83175605D01*
X106179844Y-83130286D01*
X106173475Y-83085973D01*
X106180850Y-83035283D01*
X106199609Y-82997312D01*
X106236629Y-82962141D01*
X106281402Y-82939594D01*
X106285094Y-82938206D01*
X106333963Y-82927336D01*
X106387045Y-82923432D01*
X106412833Y-82923063D01*
X106683942Y-82923063D01*
X106734562Y-82920681D01*
X106765764Y-82913537D01*
X106792875Y-82889113D01*
X106802406Y-82840330D01*
X106802644Y-82826831D01*
X106830000Y-82826831D01*
X106830000Y-83137996D01*
X106802644Y-83137996D01*
X106802644Y-83125051D01*
X106795705Y-83075481D01*
X106789211Y-83063502D01*
X106749399Y-83039078D01*
X106700204Y-83036457D01*
X106684187Y-83036391D01*
X106424312Y-83036391D01*
X106374901Y-83038586D01*
X106324501Y-83048000D01*
X106298771Y-83058862D01*
X106265938Y-83096018D01*
X106259448Y-83133844D01*
X106268250Y-83184911D01*
X106291221Y-83230749D01*
X106323610Y-83271396D01*
X106349574Y-83296754D01*
X106684187Y-83296754D01*
X106733796Y-83295091D01*
X106763810Y-83289183D01*
X106793363Y-83262804D01*
X106802318Y-83212523D01*
X106802644Y-83194416D01*
X106830000Y-83194416D01*
X106830000Y-83505582D01*
X106802644Y-83505582D01*
X106802644Y-83491904D01*
X106793008Y-83443972D01*
X106777976Y-83426936D01*
X106729681Y-83412453D01*
X106683942Y-83410083D01*
X106448248Y-83410083D01*
X106396575Y-83410403D01*
X106347741Y-83411706D01*
X106308785Y-83415212D01*
X106274836Y-83431088D01*
X106265799Y-83459664D01*
X106276057Y-83505582D01*
X106251144Y-83515840D01*
X106173475Y-83326308D01*
X106173475Y-83296754D01*
X106306587Y-83296754D01*
G37*
G36*
X106646064Y-82252612D02*
G01*
X106695646Y-82273759D01*
X106737480Y-82299855D01*
X106767473Y-82323935D01*
X106801667Y-82360800D01*
X106828458Y-82407492D01*
X106842883Y-82459710D01*
X106845631Y-82497592D01*
X106840075Y-82552226D01*
X106823405Y-82602799D01*
X106795622Y-82649312D01*
X106762196Y-82686680D01*
X106756727Y-82691765D01*
X106714909Y-82723170D01*
X106667248Y-82746862D01*
X106613743Y-82762841D01*
X106563230Y-82770397D01*
X106517857Y-82772365D01*
X106468848Y-82770343D01*
X106414649Y-82762581D01*
X106365481Y-82748997D01*
X106314479Y-82725791D01*
X106270326Y-82694661D01*
X106264577Y-82689566D01*
X106229079Y-82651332D01*
X106202300Y-82609077D01*
X106184240Y-82562802D01*
X106176347Y-82520306D01*
X106220369Y-82520306D01*
X106230351Y-82571082D01*
X106257680Y-82613824D01*
X106265799Y-82622400D01*
X106308595Y-82652747D01*
X106358546Y-82669811D01*
X106392316Y-82674912D01*
X106392316Y-82383530D01*
X106342206Y-82388400D01*
X106304877Y-82397941D01*
X106262307Y-82426105D01*
X106243084Y-82449232D01*
X106223053Y-82495158D01*
X106220369Y-82520306D01*
X106176347Y-82520306D01*
X106174898Y-82512506D01*
X106173475Y-82481960D01*
X106177871Y-82431341D01*
X106193327Y-82380087D01*
X106219911Y-82334861D01*
X106243817Y-82308059D01*
X106286995Y-82275237D01*
X106331668Y-82255079D01*
X106382265Y-82243409D01*
X106431395Y-82240160D01*
X106431395Y-82674912D01*
X106482022Y-82672739D01*
X106535704Y-82664019D01*
X106583589Y-82648637D01*
X106631216Y-82622900D01*
X106652191Y-82606768D01*
X106687240Y-82570941D01*
X106714700Y-82527022D01*
X106729486Y-82479278D01*
X106732302Y-82445324D01*
X106725711Y-82394340D01*
X106705936Y-82349527D01*
X106697864Y-82337857D01*
X106661781Y-82303206D01*
X106618592Y-82277727D01*
X106579895Y-82261409D01*
X106593817Y-82240160D01*
X106646064Y-82252612D01*
G37*
G36*
X105876475Y-81006489D02*
G01*
X106189106Y-80985240D01*
X106189106Y-81006489D01*
X106138866Y-81023788D01*
X106094206Y-81043629D01*
X106049158Y-81069989D01*
X106006977Y-81104351D01*
X105985652Y-81128122D01*
X105958404Y-81169552D01*
X105938941Y-81214950D01*
X105927263Y-81264318D01*
X105923370Y-81317654D01*
X105927099Y-81368451D01*
X105938285Y-81416427D01*
X105956929Y-81461582D01*
X105970509Y-81485449D01*
X106001331Y-81524978D01*
X106041040Y-81559483D01*
X106083798Y-81585938D01*
X106120474Y-81603174D01*
X106167868Y-81619924D01*
X106220077Y-81632560D01*
X106268661Y-81640116D01*
X106320782Y-81644650D01*
X106376441Y-81646161D01*
X106430084Y-81644221D01*
X106480525Y-81638401D01*
X106534251Y-81626998D01*
X106583794Y-81610526D01*
X106595526Y-81605617D01*
X106639124Y-81582795D01*
X106681748Y-81551027D01*
X106717571Y-81512805D01*
X106737676Y-81483740D01*
X106761525Y-81436056D01*
X106777569Y-81384778D01*
X106785278Y-81336182D01*
X106787013Y-81297871D01*
X106783980Y-81248463D01*
X106773494Y-81197554D01*
X106755520Y-81150842D01*
X106748667Y-81137647D01*
X106717130Y-81092959D01*
X106681218Y-81055284D01*
X106642007Y-81020917D01*
X106602612Y-80990417D01*
X106595526Y-80985240D01*
X106609204Y-80963991D01*
X106652873Y-80991102D01*
X106697981Y-81024815D01*
X106736802Y-81060772D01*
X106769334Y-81098973D01*
X106788722Y-81127633D01*
X106813620Y-81176482D01*
X106829570Y-81222831D01*
X106840074Y-81272546D01*
X106845131Y-81325627D01*
X106845631Y-81349406D01*
X106842960Y-81405605D01*
X106834945Y-81458552D01*
X106821588Y-81508248D01*
X106802889Y-81554692D01*
X106778846Y-81597885D01*
X106749460Y-81637826D01*
X106714732Y-81674516D01*
X106674661Y-81707954D01*
X106633868Y-81735255D01*
X106582005Y-81761908D01*
X106526964Y-81781898D01*
X106478670Y-81793466D01*
X106428170Y-81800407D01*
X106375464Y-81802721D01*
X106324230Y-81800523D01*
X106274576Y-81793928D01*
X106226502Y-81782937D01*
X106180008Y-81767550D01*
X106135094Y-81747766D01*
X106120474Y-81740195D01*
X106072123Y-81710595D01*
X106028798Y-81676508D01*
X105990498Y-81637933D01*
X105957224Y-81594870D01*
X105940467Y-81568248D01*
X105915533Y-81519299D01*
X105896723Y-81468410D01*
X105884037Y-81415582D01*
X105877475Y-81360813D01*
X105876475Y-81328645D01*
X105879467Y-81278377D01*
X105888443Y-81228445D01*
X105903403Y-81178848D01*
X105924347Y-81129587D01*
X105939002Y-81088310D01*
X105926301Y-81056070D01*
X105882350Y-81032179D01*
X105876475Y-81030669D01*
X105876475Y-81006489D01*
G37*
G36*
X105845212Y-80716573D02*
G01*
X105863244Y-80670047D01*
X105865729Y-80667480D01*
X105911682Y-80647287D01*
X105915310Y-80647208D01*
X105962508Y-80665025D01*
X105965136Y-80667480D01*
X105985815Y-80713004D01*
X105985896Y-80716573D01*
X105967650Y-80763527D01*
X105965136Y-80766154D01*
X105920687Y-80786490D01*
X105915310Y-80786670D01*
X105868298Y-80768853D01*
X105865729Y-80766398D01*
X105845292Y-80720231D01*
X105845212Y-80716573D01*
G37*
G36*
X106173475Y-80659420D02*
G01*
X106683942Y-80659420D01*
X106733768Y-80657283D01*
X106763565Y-80650871D01*
X106792875Y-80625470D01*
X106802406Y-80577209D01*
X106802644Y-80563921D01*
X106830000Y-80563921D01*
X106830000Y-80869713D01*
X106802644Y-80869713D01*
X106798373Y-80820671D01*
X106793607Y-80807920D01*
X106763810Y-80782763D01*
X106714157Y-80774216D01*
X106683942Y-80773481D01*
X106439211Y-80773481D01*
X106386854Y-80773964D01*
X106334956Y-80776111D01*
X106305366Y-80779587D01*
X106274591Y-80794730D01*
X106265799Y-80823063D01*
X106276057Y-80869713D01*
X106251144Y-80879238D01*
X106173475Y-80689706D01*
X106173475Y-80659420D01*
G37*
G36*
X106173475Y-80303558D02*
G01*
X106314891Y-80303558D01*
X106266832Y-80273820D01*
X106223330Y-80238734D01*
X106190185Y-80198121D01*
X106174027Y-80151775D01*
X106173475Y-80141381D01*
X106185588Y-80093999D01*
X106196922Y-80079099D01*
X106239464Y-80055062D01*
X106250655Y-80054186D01*
X106296329Y-80072260D01*
X106314891Y-80114758D01*
X106296752Y-80161321D01*
X106291200Y-80168736D01*
X106267287Y-80212028D01*
X106267264Y-80212944D01*
X106281186Y-80239811D01*
X106318738Y-80271135D01*
X106362828Y-80297395D01*
X106374731Y-80303558D01*
X106679302Y-80303558D01*
X106730341Y-80299462D01*
X106758925Y-80290613D01*
X106790188Y-80259106D01*
X106802048Y-80211390D01*
X106802644Y-80193649D01*
X106830000Y-80193649D01*
X106830000Y-80515805D01*
X106802644Y-80515805D01*
X106796729Y-80465392D01*
X106787501Y-80444486D01*
X106752086Y-80420306D01*
X106700940Y-80416970D01*
X106684675Y-80416887D01*
X106438478Y-80416887D01*
X106388637Y-80417177D01*
X106338401Y-80418523D01*
X106306343Y-80421527D01*
X106275568Y-80437892D01*
X106265799Y-80467689D01*
X106276057Y-80515805D01*
X106251144Y-80522644D01*
X106173475Y-80332379D01*
X106173475Y-80303558D01*
G37*
G36*
X106589420Y-79487299D02*
G01*
X106640660Y-79500749D01*
X106686452Y-79518875D01*
X106732118Y-79545314D01*
X106770670Y-79577859D01*
X106779197Y-79586950D01*
X106811311Y-79629853D01*
X106832915Y-79675306D01*
X106844009Y-79723310D01*
X106845631Y-79751081D01*
X106839968Y-79802967D01*
X106822978Y-79851404D01*
X106794661Y-79896390D01*
X106760592Y-79932923D01*
X106755017Y-79937927D01*
X106712228Y-79968952D01*
X106663361Y-79992356D01*
X106608417Y-80008141D01*
X106556485Y-80015606D01*
X106509797Y-80017550D01*
X106455718Y-80014450D01*
X106405589Y-80005151D01*
X106352098Y-79986466D01*
X106303982Y-79959343D01*
X106267020Y-79929378D01*
X106230570Y-79889013D01*
X106203073Y-79845282D01*
X106184528Y-79798185D01*
X106174936Y-79747722D01*
X106173475Y-79717375D01*
X106177242Y-79667796D01*
X106190265Y-79618871D01*
X106215335Y-79572547D01*
X106221102Y-79564968D01*
X106257338Y-79528503D01*
X106304081Y-79506589D01*
X106320020Y-79505128D01*
X106361053Y-79521981D01*
X106376685Y-79569120D01*
X106363815Y-79616957D01*
X106351772Y-79630181D01*
X106303987Y-79645293D01*
X106299260Y-79645812D01*
X106251449Y-79662711D01*
X106240153Y-79673412D01*
X106221606Y-79719894D01*
X106220369Y-79740090D01*
X106228875Y-79791460D01*
X106254391Y-79834042D01*
X106271905Y-79850732D01*
X106313576Y-79877533D01*
X106362202Y-79895563D01*
X106411264Y-79904226D01*
X106451667Y-79906175D01*
X106507019Y-79902725D01*
X106559012Y-79892375D01*
X106607647Y-79875126D01*
X106652923Y-79850976D01*
X106695073Y-79816836D01*
X106723429Y-79776513D01*
X106738756Y-79724458D01*
X106740118Y-79701499D01*
X106733661Y-79653013D01*
X106712092Y-79604750D01*
X106694200Y-79580599D01*
X106656814Y-79548015D01*
X106613665Y-79522872D01*
X106579895Y-79507082D01*
X106589420Y-79487299D01*
G37*
G36*
X106189106Y-78848848D02*
G01*
X106575010Y-78848848D01*
X106624958Y-78848527D01*
X106676088Y-78847039D01*
X106710321Y-78843719D01*
X106744759Y-78827110D01*
X106754528Y-78800732D01*
X106742805Y-78752616D01*
X106766985Y-78742846D01*
X106845631Y-78931158D01*
X106845631Y-78962176D01*
X106712274Y-78962176D01*
X106752162Y-79000217D01*
X106787293Y-79037320D01*
X106818084Y-79077414D01*
X106822916Y-79085763D01*
X106840640Y-79132296D01*
X106845631Y-79175645D01*
X106837937Y-79225104D01*
X106814856Y-79267480D01*
X106777005Y-79302055D01*
X106735478Y-79321458D01*
X106685235Y-79331642D01*
X106634936Y-79335643D01*
X106597969Y-79336356D01*
X106314159Y-79336356D01*
X106265410Y-79340974D01*
X106251877Y-79346126D01*
X106225254Y-79374703D01*
X106216547Y-79425418D01*
X106216461Y-79442846D01*
X106189106Y-79442846D01*
X106189106Y-79222539D01*
X106615066Y-79222539D01*
X106664668Y-79219558D01*
X106714076Y-79205366D01*
X106731814Y-79192009D01*
X106755742Y-79148675D01*
X106759658Y-79118003D01*
X106749216Y-79069277D01*
X106741095Y-79051081D01*
X106713801Y-79010170D01*
X106679125Y-78971715D01*
X106669532Y-78962176D01*
X106310006Y-78962176D01*
X106260333Y-78968359D01*
X106236978Y-78981716D01*
X106219095Y-79028554D01*
X106216461Y-79063049D01*
X106189106Y-79063049D01*
X106189106Y-78848848D01*
G37*
G36*
X105985896Y-78518143D02*
G01*
X106189106Y-78518143D01*
X106189106Y-78371109D01*
X106236001Y-78371109D01*
X106236001Y-78518143D01*
X106656587Y-78518143D01*
X106706647Y-78514279D01*
X106741584Y-78500557D01*
X106763565Y-78455617D01*
X106749644Y-78411653D01*
X106711276Y-78380183D01*
X106707878Y-78378680D01*
X106707878Y-78351814D01*
X106754051Y-78372731D01*
X106793763Y-78401670D01*
X106810704Y-78419957D01*
X106836899Y-78464593D01*
X106845631Y-78510571D01*
X106834600Y-78559056D01*
X106827557Y-78572365D01*
X106793627Y-78607700D01*
X106776022Y-78617061D01*
X106726588Y-78628713D01*
X106676564Y-78631457D01*
X106672219Y-78631472D01*
X106236001Y-78631472D01*
X106236001Y-78731123D01*
X106213775Y-78731123D01*
X106190522Y-78688069D01*
X106163461Y-78653942D01*
X106127415Y-78618726D01*
X106085680Y-78587266D01*
X106079685Y-78583356D01*
X106034249Y-78560198D01*
X105985896Y-78539392D01*
X105985896Y-78518143D01*
G37*
G36*
X106173475Y-78127843D02*
G01*
X106314891Y-78127843D01*
X106266832Y-78098104D01*
X106223330Y-78063019D01*
X106190185Y-78022406D01*
X106174027Y-77976059D01*
X106173475Y-77965666D01*
X106185588Y-77918284D01*
X106196922Y-77903384D01*
X106239464Y-77879347D01*
X106250655Y-77878471D01*
X106296329Y-77896545D01*
X106314891Y-77939043D01*
X106296752Y-77985606D01*
X106291200Y-77993021D01*
X106267287Y-78036313D01*
X106267264Y-78037229D01*
X106281186Y-78064095D01*
X106318738Y-78095420D01*
X106362828Y-78121680D01*
X106374731Y-78127843D01*
X106679302Y-78127843D01*
X106730341Y-78123747D01*
X106758925Y-78114898D01*
X106790188Y-78083391D01*
X106802048Y-78035675D01*
X106802644Y-78017934D01*
X106830000Y-78017934D01*
X106830000Y-78340090D01*
X106802644Y-78340090D01*
X106796729Y-78289677D01*
X106787501Y-78268771D01*
X106752086Y-78244591D01*
X106700940Y-78241255D01*
X106684675Y-78241172D01*
X106438478Y-78241172D01*
X106388637Y-78241462D01*
X106338401Y-78242808D01*
X106306343Y-78245812D01*
X106275568Y-78262176D01*
X106265799Y-78291974D01*
X106276057Y-78340090D01*
X106251144Y-78346929D01*
X106173475Y-78156663D01*
X106173475Y-78127843D01*
G37*
G36*
X106189106Y-77881646D02*
G01*
X106189106Y-77588310D01*
X106216461Y-77588310D01*
X106216461Y-77602721D01*
X106229895Y-77649127D01*
X106263356Y-77664514D01*
X106312477Y-77652906D01*
X106337606Y-77642044D01*
X106655366Y-77488659D01*
X106307320Y-77347975D01*
X106258487Y-77336435D01*
X106251632Y-77336252D01*
X106233070Y-77341137D01*
X106221102Y-77358234D01*
X106216461Y-77399511D01*
X106189106Y-77399511D01*
X106189106Y-77194835D01*
X106216461Y-77194835D01*
X106227452Y-77233914D01*
X106258471Y-77264200D01*
X106303660Y-77284294D01*
X106311472Y-77287403D01*
X106941618Y-77543614D01*
X106989603Y-77566332D01*
X107034626Y-77595880D01*
X107070919Y-77629959D01*
X107080104Y-77641067D01*
X107108681Y-77685477D01*
X107124755Y-77732115D01*
X107126999Y-77756594D01*
X107116147Y-77805531D01*
X107104040Y-77823272D01*
X107060602Y-77848768D01*
X107051528Y-77849406D01*
X107005610Y-77830599D01*
X106988421Y-77784636D01*
X106988269Y-77778576D01*
X106998876Y-77728659D01*
X107003168Y-77716782D01*
X107013670Y-77682588D01*
X106991933Y-77637647D01*
X106951826Y-77608471D01*
X106907913Y-77588310D01*
X106796782Y-77543614D01*
X106320997Y-77769783D01*
X106277663Y-77795961D01*
X106267997Y-77802756D01*
X106235757Y-77830844D01*
X106217510Y-77877355D01*
X106216461Y-77881646D01*
X106189106Y-77881646D01*
G37*
X108419819Y-125328570D02*
X107419819Y-125328570D01*
X107753152Y-124852380D02*
X108419819Y-124852380D01*
X107848390Y-124852380D02*
X107800771Y-124804761D01*
X107800771Y-124804761D02*
X107753152Y-124709523D01*
X107753152Y-124709523D02*
X107753152Y-124566666D01*
X107753152Y-124566666D02*
X107800771Y-124471428D01*
X107800771Y-124471428D02*
X107896009Y-124423809D01*
X107896009Y-124423809D02*
X108419819Y-124423809D01*
X108419819Y-123423809D02*
X108419819Y-123995237D01*
X108419819Y-123709523D02*
X107419819Y-123709523D01*
X107419819Y-123709523D02*
X107562676Y-123804761D01*
X107562676Y-123804761D02*
X107657914Y-123899999D01*
X107657914Y-123899999D02*
X107705533Y-123995237D01*
X107254819Y-37709523D02*
X107254819Y-37519047D01*
X107254819Y-37519047D02*
X107302438Y-37423809D01*
X107302438Y-37423809D02*
X107397676Y-37328571D01*
X107397676Y-37328571D02*
X107588152Y-37280952D01*
X107588152Y-37280952D02*
X107921485Y-37280952D01*
X107921485Y-37280952D02*
X108111961Y-37328571D01*
X108111961Y-37328571D02*
X108207200Y-37423809D01*
X108207200Y-37423809D02*
X108254819Y-37519047D01*
X108254819Y-37519047D02*
X108254819Y-37709523D01*
X108254819Y-37709523D02*
X108207200Y-37804761D01*
X108207200Y-37804761D02*
X108111961Y-37899999D01*
X108111961Y-37899999D02*
X107921485Y-37947618D01*
X107921485Y-37947618D02*
X107588152Y-37947618D01*
X107588152Y-37947618D02*
X107397676Y-37899999D01*
X107397676Y-37899999D02*
X107302438Y-37804761D01*
X107302438Y-37804761D02*
X107254819Y-37709523D01*
X107588152Y-36423809D02*
X108254819Y-36423809D01*
X107588152Y-36852380D02*
X108111961Y-36852380D01*
X108111961Y-36852380D02*
X108207200Y-36804761D01*
X108207200Y-36804761D02*
X108254819Y-36709523D01*
X108254819Y-36709523D02*
X108254819Y-36566666D01*
X108254819Y-36566666D02*
X108207200Y-36471428D01*
X108207200Y-36471428D02*
X108159580Y-36423809D01*
X107588152Y-36090475D02*
X107588152Y-35709523D01*
X107254819Y-35947618D02*
X108111961Y-35947618D01*
X108111961Y-35947618D02*
X108207200Y-35899999D01*
X108207200Y-35899999D02*
X108254819Y-35804761D01*
X108254819Y-35804761D02*
X108254819Y-35709523D01*
X108254819Y-34852380D02*
X108254819Y-35423808D01*
X108254819Y-35138094D02*
X107254819Y-35138094D01*
X107254819Y-35138094D02*
X107397676Y-35233332D01*
X107397676Y-35233332D02*
X107492914Y-35328570D01*
X107492914Y-35328570D02*
X107540533Y-35423808D01*
D11*
X107457419Y-115595238D02*
X106981228Y-115928571D01*
X107457419Y-116166666D02*
X106457419Y-116166666D01*
X106457419Y-116166666D02*
X106457419Y-115785714D01*
X106457419Y-115785714D02*
X106505038Y-115690476D01*
X106505038Y-115690476D02*
X106552657Y-115642857D01*
X106552657Y-115642857D02*
X106647895Y-115595238D01*
X106647895Y-115595238D02*
X106790752Y-115595238D01*
X106790752Y-115595238D02*
X106885990Y-115642857D01*
X106885990Y-115642857D02*
X106933609Y-115690476D01*
X106933609Y-115690476D02*
X106981228Y-115785714D01*
X106981228Y-115785714D02*
X106981228Y-116166666D01*
X106457419Y-115309523D02*
X107457419Y-114976190D01*
X107457419Y-114976190D02*
X106457419Y-114642857D01*
X107457419Y-113785714D02*
X107457419Y-114357142D01*
X107457419Y-114071428D02*
X106457419Y-114071428D01*
X106457419Y-114071428D02*
X106600276Y-114166666D01*
X106600276Y-114166666D02*
X106695514Y-114261904D01*
X106695514Y-114261904D02*
X106743133Y-114357142D01*
D12*
%TO.C,In1*%
X96665000Y-122500000D02*
X96665000Y-125500000D01*
X96665000Y-122500000D02*
X107165000Y-122500000D01*
X96665000Y-128500000D02*
X96665000Y-131500000D01*
X96665000Y-131500000D02*
X107165000Y-131500000D01*
X107165000Y-122500000D02*
X107165000Y-125400000D01*
X107165000Y-128600000D02*
X107165000Y-131500000D01*
D13*
X98576424Y-125703737D02*
G75*
G02*
X104060000Y-127000000I2588576J-1296263D01*
G01*
X104060000Y-127000000D02*
G75*
G02*
X98576424Y-128296263I-2895000J0D01*
G01*
X102965000Y-127000000D02*
G75*
G02*
X99365000Y-127000000I-1800000J0D01*
G01*
X99365000Y-127000000D02*
G75*
G02*
X102965000Y-127000000I1800000J0D01*
G01*
D12*
%TO.C,Out1*%
X96500000Y-34500000D02*
X96500000Y-37500000D01*
X96500000Y-34500000D02*
X107000000Y-34500000D01*
X96500000Y-40500000D02*
X96500000Y-43500000D01*
X96500000Y-43500000D02*
X107000000Y-43500000D01*
X107000000Y-34500000D02*
X107000000Y-37400000D01*
X107000000Y-40600000D02*
X107000000Y-43500000D01*
D13*
X98411424Y-37703737D02*
G75*
G02*
X103895000Y-39000000I2588576J-1296263D01*
G01*
X103895000Y-39000000D02*
G75*
G02*
X98411424Y-40296263I-2895000J0D01*
G01*
X102800000Y-39000000D02*
G75*
G02*
X99200000Y-39000000I-1800000J0D01*
G01*
X99200000Y-39000000D02*
G75*
G02*
X102800000Y-39000000I1800000J0D01*
G01*
%TO.C,RV1*%
D11*
X96500000Y-45500000D02*
X105500000Y-45500000D01*
X105500000Y-120500000D01*
X96500000Y-120500000D01*
X96500000Y-45500000D01*
X100000000Y-47500000D02*
X102000000Y-47500000D01*
X102000000Y-118500000D01*
X100000000Y-118500000D01*
X100000000Y-47500000D01*
%TD*%
M02*
