%TF.GenerationSoftware,KiCad,Pcbnew,8.0.0*%
%TF.CreationDate,2024-03-24T11:12:39+01:00*%
%TF.ProjectId,Vader_Fader,56616465-725f-4466-9164-65722e6b6963,rev?*%
%TF.SameCoordinates,Original*%
%TF.FileFunction,Copper,L1,Top*%
%TF.FilePolarity,Positive*%
%FSLAX46Y46*%
G04 Gerber Fmt 4.6, Leading zero omitted, Abs format (unit mm)*
G04 Created by KiCad (PCBNEW 8.0.0) date 2024-03-24 11:12:39*
%MOMM*%
%LPD*%
G01*
G04 APERTURE LIST*
G04 Aperture macros list*
%AMRoundRect*
0 Rectangle with rounded corners*
0 $1 Rounding radius*
0 $2 $3 $4 $5 $6 $7 $8 $9 X,Y pos of 4 corners*
0 Add a 4 corners polygon primitive as box body*
4,1,4,$2,$3,$4,$5,$6,$7,$8,$9,$2,$3,0*
0 Add four circle primitives for the rounded corners*
1,1,$1+$1,$2,$3*
1,1,$1+$1,$4,$5*
1,1,$1+$1,$6,$7*
1,1,$1+$1,$8,$9*
0 Add four rect primitives between the rounded corners*
20,1,$1+$1,$2,$3,$4,$5,0*
20,1,$1+$1,$4,$5,$6,$7,0*
20,1,$1+$1,$6,$7,$8,$9,0*
20,1,$1+$1,$8,$9,$2,$3,0*%
G04 Aperture macros list end*
%TA.AperFunction,ComponentPad*%
%ADD10RoundRect,0.650000X-0.650000X0.650000X-0.650000X-0.650000X0.650000X-0.650000X0.650000X0.650000X0*%
%TD*%
%TA.AperFunction,ComponentPad*%
%ADD11O,2.100000X3.100000*%
%TD*%
%TA.AperFunction,ComponentPad*%
%ADD12C,2.600000*%
%TD*%
%TA.AperFunction,ComponentPad*%
%ADD13C,1.700000*%
%TD*%
%TA.AperFunction,Conductor*%
%ADD14C,0.200000*%
%TD*%
G04 APERTURE END LIST*
D10*
%TO.P,In1,R*%
%TO.N,Net-(In1-PadR)*%
X97785000Y-127000000D03*
D11*
%TO.P,In1,S*%
%TO.N,GND*%
X94685000Y-127000000D03*
D10*
%TO.P,In1,T*%
%TO.N,Net-(In1-PadT)*%
X106085000Y-127000000D03*
%TD*%
%TO.P,Out1,R*%
%TO.N,Net-(Out1-PadR)*%
X97620000Y-39000000D03*
D11*
%TO.P,Out1,S*%
%TO.N,GND*%
X94520000Y-39000000D03*
D10*
%TO.P,Out1,T*%
%TO.N,Net-(Out1-PadT)*%
X105920000Y-39000000D03*
%TD*%
D12*
%TO.P,RV1,0*%
%TO.N,N/C*%
X101000000Y-58000000D03*
X101000000Y-105500000D03*
D13*
%TO.P,RV1,1,1*%
%TO.N,GND*%
X97250000Y-48000000D03*
%TO.P,RV1,2,2*%
%TO.N,Net-(Out1-PadR)*%
X99750000Y-48000000D03*
%TO.P,RV1,3,3*%
%TO.N,Net-(In1-PadR)*%
X97250000Y-118000000D03*
%TO.P,RV1,4,4*%
%TO.N,GND*%
X102250000Y-48000000D03*
%TO.P,RV1,5,5*%
%TO.N,Net-(Out1-PadT)*%
X104750000Y-48000000D03*
%TO.P,RV1,6,6*%
%TO.N,Net-(In1-PadT)*%
X104750000Y-118000000D03*
%TD*%
D14*
%TO.N,Net-(In1-PadR)*%
X97250000Y-118000000D02*
X97250000Y-126465000D01*
X97250000Y-126465000D02*
X97785000Y-127000000D01*
%TO.N,Net-(In1-PadT)*%
X104750000Y-118000000D02*
X104750000Y-125665000D01*
X104750000Y-125665000D02*
X106085000Y-127000000D01*
%TO.N,Net-(Out1-PadT)*%
X105920000Y-46830000D02*
X104750000Y-48000000D01*
X105920000Y-39000000D02*
X105920000Y-46830000D01*
%TO.N,Net-(Out1-PadR)*%
X97620000Y-45870000D02*
X99750000Y-48000000D01*
X97620000Y-39000000D02*
X97620000Y-45870000D01*
%TD*%
%TA.AperFunction,Conductor*%
%TO.N,GND*%
G36*
X108442539Y-33520185D02*
G01*
X108488294Y-33572989D01*
X108499500Y-33624500D01*
X108499500Y-132375500D01*
X108479815Y-132442539D01*
X108427011Y-132488294D01*
X108375500Y-132499500D01*
X93624500Y-132499500D01*
X93557461Y-132479815D01*
X93511706Y-132427011D01*
X93500500Y-132375500D01*
X93500500Y-128798679D01*
X93520185Y-128731640D01*
X93572989Y-128685885D01*
X93642147Y-128675941D01*
X93697386Y-128698361D01*
X93872622Y-128825678D01*
X94090001Y-128936439D01*
X94322041Y-129011834D01*
X94434999Y-129029724D01*
X94435000Y-129029724D01*
X94435000Y-127666988D01*
X94444940Y-127684205D01*
X94500795Y-127740060D01*
X94569204Y-127779556D01*
X94645504Y-127800000D01*
X94724496Y-127800000D01*
X94800796Y-127779556D01*
X94869205Y-127740060D01*
X94925060Y-127684205D01*
X94935000Y-127666988D01*
X94935000Y-129029724D01*
X95047957Y-129011834D01*
X95047958Y-129011834D01*
X95279998Y-128936439D01*
X95497377Y-128825678D01*
X95694759Y-128682271D01*
X95867271Y-128509759D01*
X95867276Y-128509753D01*
X96001834Y-128324551D01*
X96057164Y-128281885D01*
X96126777Y-128275906D01*
X96188572Y-128308512D01*
X96204452Y-128327360D01*
X96246084Y-128388137D01*
X96246093Y-128388147D01*
X96396852Y-128538906D01*
X96396858Y-128538911D01*
X96572763Y-128659409D01*
X96767815Y-128745532D01*
X96767821Y-128745533D01*
X96767823Y-128745534D01*
X96975359Y-128794347D01*
X96975364Y-128794347D01*
X96975370Y-128794349D01*
X97024602Y-128797766D01*
X97063984Y-128800500D01*
X97063988Y-128800500D01*
X98506016Y-128800500D01*
X98541459Y-128798039D01*
X98594630Y-128794349D01*
X98594636Y-128794347D01*
X98594640Y-128794347D01*
X98802176Y-128745534D01*
X98802174Y-128745534D01*
X98802185Y-128745532D01*
X98997237Y-128659409D01*
X99173142Y-128538911D01*
X99323911Y-128388142D01*
X99444409Y-128212237D01*
X99530532Y-128017185D01*
X99579349Y-127809630D01*
X99585500Y-127721012D01*
X99585500Y-126278988D01*
X99579349Y-126190370D01*
X99579347Y-126190364D01*
X99579347Y-126190359D01*
X99530534Y-125982823D01*
X99530532Y-125982817D01*
X99530532Y-125982815D01*
X99444409Y-125787763D01*
X99323911Y-125611858D01*
X99323906Y-125611852D01*
X99173147Y-125461093D01*
X99173141Y-125461088D01*
X98997238Y-125340592D01*
X98997239Y-125340592D01*
X98997237Y-125340591D01*
X98802185Y-125254468D01*
X98802183Y-125254467D01*
X98802182Y-125254467D01*
X98802176Y-125254465D01*
X98594640Y-125205652D01*
X98594624Y-125205650D01*
X98506016Y-125199500D01*
X98506012Y-125199500D01*
X97974500Y-125199500D01*
X97907461Y-125179815D01*
X97861706Y-125127011D01*
X97850500Y-125075500D01*
X97850500Y-119289090D01*
X97870185Y-119222051D01*
X97922101Y-119176706D01*
X97927830Y-119174035D01*
X98121401Y-119038495D01*
X98288495Y-118871401D01*
X98424035Y-118677830D01*
X98523903Y-118463663D01*
X98585063Y-118235408D01*
X98605659Y-118000000D01*
X103394341Y-118000000D01*
X103414936Y-118235403D01*
X103414938Y-118235413D01*
X103476094Y-118463655D01*
X103476096Y-118463659D01*
X103476097Y-118463663D01*
X103575965Y-118677830D01*
X103575967Y-118677834D01*
X103684281Y-118832521D01*
X103711505Y-118871401D01*
X103878599Y-119038495D01*
X103975384Y-119106265D01*
X104072165Y-119174032D01*
X104072167Y-119174033D01*
X104072170Y-119174035D01*
X104077898Y-119176706D01*
X104130339Y-119222872D01*
X104149500Y-119289090D01*
X104149500Y-125578330D01*
X104149499Y-125578348D01*
X104149499Y-125744054D01*
X104149498Y-125744054D01*
X104190423Y-125896785D01*
X104219358Y-125946900D01*
X104219359Y-125946904D01*
X104219360Y-125946904D01*
X104269480Y-126033716D01*
X104269482Y-126033718D01*
X104274426Y-126040161D01*
X104272821Y-126041391D01*
X104301094Y-126093168D01*
X104300635Y-126147912D01*
X104290652Y-126190359D01*
X104290650Y-126190376D01*
X104284500Y-126278984D01*
X104284500Y-127721015D01*
X104290650Y-127809624D01*
X104290652Y-127809640D01*
X104339465Y-128017176D01*
X104339467Y-128017182D01*
X104339468Y-128017185D01*
X104425591Y-128212237D01*
X104425592Y-128212238D01*
X104546088Y-128388141D01*
X104546093Y-128388147D01*
X104696852Y-128538906D01*
X104696858Y-128538911D01*
X104872763Y-128659409D01*
X105067815Y-128745532D01*
X105067821Y-128745533D01*
X105067823Y-128745534D01*
X105275359Y-128794347D01*
X105275364Y-128794347D01*
X105275370Y-128794349D01*
X105324602Y-128797766D01*
X105363984Y-128800500D01*
X105363988Y-128800500D01*
X106806016Y-128800500D01*
X106841459Y-128798039D01*
X106894630Y-128794349D01*
X106894636Y-128794347D01*
X106894640Y-128794347D01*
X107102176Y-128745534D01*
X107102174Y-128745534D01*
X107102185Y-128745532D01*
X107297237Y-128659409D01*
X107473142Y-128538911D01*
X107623911Y-128388142D01*
X107744409Y-128212237D01*
X107830532Y-128017185D01*
X107879349Y-127809630D01*
X107885500Y-127721012D01*
X107885500Y-126278988D01*
X107879349Y-126190370D01*
X107879347Y-126190364D01*
X107879347Y-126190359D01*
X107830534Y-125982823D01*
X107830532Y-125982817D01*
X107830532Y-125982815D01*
X107744409Y-125787763D01*
X107623911Y-125611858D01*
X107623906Y-125611852D01*
X107473147Y-125461093D01*
X107473141Y-125461088D01*
X107297238Y-125340592D01*
X107297239Y-125340592D01*
X107297237Y-125340591D01*
X107102185Y-125254468D01*
X107102183Y-125254467D01*
X107102182Y-125254467D01*
X107102176Y-125254465D01*
X106894640Y-125205652D01*
X106894624Y-125205650D01*
X106806016Y-125199500D01*
X106806012Y-125199500D01*
X105474500Y-125199500D01*
X105407461Y-125179815D01*
X105361706Y-125127011D01*
X105350500Y-125075500D01*
X105350500Y-119289090D01*
X105370185Y-119222051D01*
X105422101Y-119176706D01*
X105427830Y-119174035D01*
X105621401Y-119038495D01*
X105788495Y-118871401D01*
X105924035Y-118677830D01*
X106023903Y-118463663D01*
X106085063Y-118235408D01*
X106105659Y-118000000D01*
X106085063Y-117764592D01*
X106023903Y-117536337D01*
X105924035Y-117322171D01*
X105788495Y-117128599D01*
X105788494Y-117128597D01*
X105621402Y-116961506D01*
X105621395Y-116961501D01*
X105427834Y-116825967D01*
X105427830Y-116825965D01*
X105427828Y-116825964D01*
X105213663Y-116726097D01*
X105213659Y-116726096D01*
X105213655Y-116726094D01*
X104985413Y-116664938D01*
X104985403Y-116664936D01*
X104750001Y-116644341D01*
X104749999Y-116644341D01*
X104514596Y-116664936D01*
X104514586Y-116664938D01*
X104286344Y-116726094D01*
X104286335Y-116726098D01*
X104072171Y-116825964D01*
X104072169Y-116825965D01*
X103878597Y-116961505D01*
X103711505Y-117128597D01*
X103575965Y-117322169D01*
X103575964Y-117322171D01*
X103476098Y-117536335D01*
X103476094Y-117536344D01*
X103414938Y-117764586D01*
X103414936Y-117764596D01*
X103394341Y-117999999D01*
X103394341Y-118000000D01*
X98605659Y-118000000D01*
X98585063Y-117764592D01*
X98523903Y-117536337D01*
X98424035Y-117322171D01*
X98288495Y-117128599D01*
X98288494Y-117128597D01*
X98121402Y-116961506D01*
X98121395Y-116961501D01*
X97927834Y-116825967D01*
X97927830Y-116825965D01*
X97927828Y-116825964D01*
X97713663Y-116726097D01*
X97713659Y-116726096D01*
X97713655Y-116726094D01*
X97485413Y-116664938D01*
X97485403Y-116664936D01*
X97250001Y-116644341D01*
X97249999Y-116644341D01*
X97014596Y-116664936D01*
X97014586Y-116664938D01*
X96786344Y-116726094D01*
X96786335Y-116726098D01*
X96572171Y-116825964D01*
X96572169Y-116825965D01*
X96378597Y-116961505D01*
X96211505Y-117128597D01*
X96075965Y-117322169D01*
X96075964Y-117322171D01*
X95976098Y-117536335D01*
X95976094Y-117536344D01*
X95914938Y-117764586D01*
X95914936Y-117764596D01*
X95894341Y-117999999D01*
X95894341Y-118000000D01*
X95914936Y-118235403D01*
X95914938Y-118235413D01*
X95976094Y-118463655D01*
X95976096Y-118463659D01*
X95976097Y-118463663D01*
X96075965Y-118677830D01*
X96075967Y-118677834D01*
X96184281Y-118832521D01*
X96211505Y-118871401D01*
X96378599Y-119038495D01*
X96475384Y-119106265D01*
X96572165Y-119174032D01*
X96572167Y-119174033D01*
X96572170Y-119174035D01*
X96577898Y-119176706D01*
X96630339Y-119222872D01*
X96649500Y-119289090D01*
X96649500Y-125225909D01*
X96629815Y-125292948D01*
X96577011Y-125338703D01*
X96575594Y-125339340D01*
X96572770Y-125340586D01*
X96396858Y-125461088D01*
X96396852Y-125461093D01*
X96246093Y-125611852D01*
X96246088Y-125611858D01*
X96204452Y-125672640D01*
X96150325Y-125716823D01*
X96080904Y-125724729D01*
X96018229Y-125693848D01*
X96001834Y-125675449D01*
X95867271Y-125490241D01*
X95867271Y-125490240D01*
X95694759Y-125317728D01*
X95497377Y-125174321D01*
X95279998Y-125063560D01*
X95047959Y-124988165D01*
X94935000Y-124970274D01*
X94935000Y-126333011D01*
X94925060Y-126315795D01*
X94869205Y-126259940D01*
X94800796Y-126220444D01*
X94724496Y-126200000D01*
X94645504Y-126200000D01*
X94569204Y-126220444D01*
X94500795Y-126259940D01*
X94444940Y-126315795D01*
X94435000Y-126333011D01*
X94435000Y-124970274D01*
X94322040Y-124988165D01*
X94090001Y-125063560D01*
X93872619Y-125174323D01*
X93697385Y-125301638D01*
X93631579Y-125325118D01*
X93563525Y-125309292D01*
X93514830Y-125259187D01*
X93500500Y-125201320D01*
X93500500Y-105500004D01*
X99194451Y-105500004D01*
X99214616Y-105769101D01*
X99274664Y-106032188D01*
X99274666Y-106032195D01*
X99373257Y-106283398D01*
X99508185Y-106517102D01*
X99644080Y-106687509D01*
X99676442Y-106728089D01*
X99863183Y-106901358D01*
X99874259Y-106911635D01*
X100097226Y-107063651D01*
X100340359Y-107180738D01*
X100598228Y-107260280D01*
X100598229Y-107260280D01*
X100598232Y-107260281D01*
X100865063Y-107300499D01*
X100865068Y-107300499D01*
X100865071Y-107300500D01*
X100865072Y-107300500D01*
X101134928Y-107300500D01*
X101134929Y-107300500D01*
X101134936Y-107300499D01*
X101401767Y-107260281D01*
X101401768Y-107260280D01*
X101401772Y-107260280D01*
X101659641Y-107180738D01*
X101902775Y-107063651D01*
X102125741Y-106911635D01*
X102323561Y-106728085D01*
X102491815Y-106517102D01*
X102626743Y-106283398D01*
X102725334Y-106032195D01*
X102785383Y-105769103D01*
X102805549Y-105500000D01*
X102785383Y-105230897D01*
X102725334Y-104967805D01*
X102626743Y-104716602D01*
X102491815Y-104482898D01*
X102323561Y-104271915D01*
X102323560Y-104271914D01*
X102323557Y-104271910D01*
X102125741Y-104088365D01*
X101902775Y-103936349D01*
X101902769Y-103936346D01*
X101902768Y-103936345D01*
X101902767Y-103936344D01*
X101659643Y-103819263D01*
X101659645Y-103819263D01*
X101401773Y-103739720D01*
X101401767Y-103739718D01*
X101134936Y-103699500D01*
X101134929Y-103699500D01*
X100865071Y-103699500D01*
X100865063Y-103699500D01*
X100598232Y-103739718D01*
X100598226Y-103739720D01*
X100340358Y-103819262D01*
X100097230Y-103936346D01*
X99874258Y-104088365D01*
X99676442Y-104271910D01*
X99508185Y-104482898D01*
X99373258Y-104716599D01*
X99373256Y-104716603D01*
X99274666Y-104967804D01*
X99274664Y-104967811D01*
X99214616Y-105230898D01*
X99194451Y-105499995D01*
X99194451Y-105500004D01*
X93500500Y-105500004D01*
X93500500Y-58000004D01*
X99194451Y-58000004D01*
X99214616Y-58269101D01*
X99274664Y-58532188D01*
X99274666Y-58532195D01*
X99373257Y-58783398D01*
X99508185Y-59017102D01*
X99644080Y-59187509D01*
X99676442Y-59228089D01*
X99863183Y-59401358D01*
X99874259Y-59411635D01*
X100097226Y-59563651D01*
X100340359Y-59680738D01*
X100598228Y-59760280D01*
X100598229Y-59760280D01*
X100598232Y-59760281D01*
X100865063Y-59800499D01*
X100865068Y-59800499D01*
X100865071Y-59800500D01*
X100865072Y-59800500D01*
X101134928Y-59800500D01*
X101134929Y-59800500D01*
X101134936Y-59800499D01*
X101401767Y-59760281D01*
X101401768Y-59760280D01*
X101401772Y-59760280D01*
X101659641Y-59680738D01*
X101902775Y-59563651D01*
X102125741Y-59411635D01*
X102323561Y-59228085D01*
X102491815Y-59017102D01*
X102626743Y-58783398D01*
X102725334Y-58532195D01*
X102785383Y-58269103D01*
X102805549Y-58000000D01*
X102785383Y-57730897D01*
X102725334Y-57467805D01*
X102626743Y-57216602D01*
X102491815Y-56982898D01*
X102323561Y-56771915D01*
X102323560Y-56771914D01*
X102323557Y-56771910D01*
X102125741Y-56588365D01*
X101902775Y-56436349D01*
X101902769Y-56436346D01*
X101902768Y-56436345D01*
X101902767Y-56436344D01*
X101659643Y-56319263D01*
X101659645Y-56319263D01*
X101401773Y-56239720D01*
X101401767Y-56239718D01*
X101134936Y-56199500D01*
X101134929Y-56199500D01*
X100865071Y-56199500D01*
X100865063Y-56199500D01*
X100598232Y-56239718D01*
X100598226Y-56239720D01*
X100340358Y-56319262D01*
X100097230Y-56436346D01*
X99874258Y-56588365D01*
X99676442Y-56771910D01*
X99508185Y-56982898D01*
X99373258Y-57216599D01*
X99373256Y-57216603D01*
X99274666Y-57467804D01*
X99274664Y-57467811D01*
X99214616Y-57730898D01*
X99194451Y-57999995D01*
X99194451Y-58000004D01*
X93500500Y-58000004D01*
X93500500Y-40918559D01*
X93520185Y-40851520D01*
X93572989Y-40805765D01*
X93642147Y-40795821D01*
X93697387Y-40818242D01*
X93707621Y-40825678D01*
X93925001Y-40936439D01*
X94157041Y-41011834D01*
X94269999Y-41029724D01*
X94270000Y-41029724D01*
X94270000Y-39666988D01*
X94279940Y-39684205D01*
X94335795Y-39740060D01*
X94404204Y-39779556D01*
X94480504Y-39800000D01*
X94559496Y-39800000D01*
X94635796Y-39779556D01*
X94704205Y-39740060D01*
X94760060Y-39684205D01*
X94770000Y-39666988D01*
X94770000Y-41029724D01*
X94882957Y-41011834D01*
X94882958Y-41011834D01*
X95114998Y-40936439D01*
X95332377Y-40825678D01*
X95529759Y-40682271D01*
X95702271Y-40509759D01*
X95702276Y-40509753D01*
X95836834Y-40324551D01*
X95892164Y-40281885D01*
X95961777Y-40275906D01*
X96023572Y-40308512D01*
X96039452Y-40327360D01*
X96081084Y-40388137D01*
X96081093Y-40388147D01*
X96231852Y-40538906D01*
X96231858Y-40538911D01*
X96407763Y-40659409D01*
X96602815Y-40745532D01*
X96602821Y-40745533D01*
X96602823Y-40745534D01*
X96810359Y-40794347D01*
X96810364Y-40794347D01*
X96810370Y-40794349D01*
X96877566Y-40799013D01*
X96898972Y-40800499D01*
X96898975Y-40800499D01*
X96898988Y-40800500D01*
X96899001Y-40800500D01*
X96899778Y-40800527D01*
X96899885Y-40800562D01*
X96901131Y-40800649D01*
X96901108Y-40800968D01*
X96966098Y-40822512D01*
X97010004Y-40876863D01*
X97019500Y-40924453D01*
X97019500Y-45783330D01*
X97019499Y-45783348D01*
X97019499Y-45949054D01*
X97019498Y-45949054D01*
X97060423Y-46101785D01*
X97089358Y-46151900D01*
X97089359Y-46151904D01*
X97089360Y-46151904D01*
X97139479Y-46238714D01*
X97139481Y-46238717D01*
X97258349Y-46357585D01*
X97258355Y-46357590D01*
X97333927Y-46433162D01*
X97367412Y-46494485D01*
X97362428Y-46564177D01*
X97320556Y-46620110D01*
X97255092Y-46644527D01*
X97252587Y-46644616D01*
X97014684Y-46665430D01*
X97014673Y-46665432D01*
X96786516Y-46726566D01*
X96786507Y-46726570D01*
X96572419Y-46826401D01*
X96488625Y-46885072D01*
X97079765Y-47476212D01*
X97037708Y-47487482D01*
X96912292Y-47559890D01*
X96809890Y-47662292D01*
X96737482Y-47787708D01*
X96726212Y-47829765D01*
X96135072Y-47238625D01*
X96076401Y-47322419D01*
X95976570Y-47536507D01*
X95976566Y-47536516D01*
X95915432Y-47764673D01*
X95915430Y-47764684D01*
X95894843Y-47999998D01*
X95894843Y-48000001D01*
X95915430Y-48235315D01*
X95915432Y-48235326D01*
X95976566Y-48463483D01*
X95976570Y-48463492D01*
X96076400Y-48677579D01*
X96076402Y-48677583D01*
X96135072Y-48761373D01*
X96135073Y-48761373D01*
X96726212Y-48170234D01*
X96737482Y-48212292D01*
X96809890Y-48337708D01*
X96912292Y-48440110D01*
X97037708Y-48512518D01*
X97079765Y-48523787D01*
X96488625Y-49114925D01*
X96572421Y-49173599D01*
X96786507Y-49273429D01*
X96786516Y-49273433D01*
X97014673Y-49334567D01*
X97014684Y-49334569D01*
X97249998Y-49355157D01*
X97250002Y-49355157D01*
X97485315Y-49334569D01*
X97485326Y-49334567D01*
X97713483Y-49273433D01*
X97713492Y-49273429D01*
X97927578Y-49173600D01*
X97927582Y-49173598D01*
X98011373Y-49114926D01*
X98011373Y-49114925D01*
X97420234Y-48523787D01*
X97462292Y-48512518D01*
X97587708Y-48440110D01*
X97690110Y-48337708D01*
X97762518Y-48212292D01*
X97773787Y-48170234D01*
X98364925Y-48761373D01*
X98398119Y-48713968D01*
X98452696Y-48670343D01*
X98522194Y-48663149D01*
X98584549Y-48694672D01*
X98601269Y-48713968D01*
X98711500Y-48871395D01*
X98711505Y-48871401D01*
X98878599Y-49038495D01*
X98975384Y-49106265D01*
X99072165Y-49174032D01*
X99072167Y-49174033D01*
X99072170Y-49174035D01*
X99286337Y-49273903D01*
X99514592Y-49335063D01*
X99702918Y-49351539D01*
X99749999Y-49355659D01*
X99750000Y-49355659D01*
X99750001Y-49355659D01*
X99789234Y-49352226D01*
X99985408Y-49335063D01*
X100213663Y-49273903D01*
X100427830Y-49174035D01*
X100621401Y-49038495D01*
X100788495Y-48871401D01*
X100898730Y-48713968D01*
X100953307Y-48670344D01*
X101022805Y-48663150D01*
X101085160Y-48694673D01*
X101101880Y-48713969D01*
X101135072Y-48761373D01*
X101135073Y-48761373D01*
X101726212Y-48170234D01*
X101737482Y-48212292D01*
X101809890Y-48337708D01*
X101912292Y-48440110D01*
X102037708Y-48512518D01*
X102079765Y-48523787D01*
X101488625Y-49114925D01*
X101572421Y-49173599D01*
X101786507Y-49273429D01*
X101786516Y-49273433D01*
X102014673Y-49334567D01*
X102014684Y-49334569D01*
X102249998Y-49355157D01*
X102250002Y-49355157D01*
X102485315Y-49334569D01*
X102485326Y-49334567D01*
X102713483Y-49273433D01*
X102713492Y-49273429D01*
X102927578Y-49173600D01*
X102927582Y-49173598D01*
X103011373Y-49114926D01*
X103011373Y-49114925D01*
X102420234Y-48523787D01*
X102462292Y-48512518D01*
X102587708Y-48440110D01*
X102690110Y-48337708D01*
X102762518Y-48212292D01*
X102773787Y-48170235D01*
X103364925Y-48761373D01*
X103398119Y-48713968D01*
X103452696Y-48670343D01*
X103522194Y-48663149D01*
X103584549Y-48694672D01*
X103601269Y-48713968D01*
X103711500Y-48871395D01*
X103711505Y-48871401D01*
X103878599Y-49038495D01*
X103975384Y-49106265D01*
X104072165Y-49174032D01*
X104072167Y-49174033D01*
X104072170Y-49174035D01*
X104286337Y-49273903D01*
X104514592Y-49335063D01*
X104702918Y-49351539D01*
X104749999Y-49355659D01*
X104750000Y-49355659D01*
X104750001Y-49355659D01*
X104789234Y-49352226D01*
X104985408Y-49335063D01*
X105213663Y-49273903D01*
X105427830Y-49174035D01*
X105621401Y-49038495D01*
X105788495Y-48871401D01*
X105924035Y-48677830D01*
X106023903Y-48463663D01*
X106085063Y-48235408D01*
X106105659Y-48000000D01*
X106085063Y-47764592D01*
X106050671Y-47636239D01*
X106052334Y-47566393D01*
X106082763Y-47516470D01*
X106278506Y-47320728D01*
X106278511Y-47320724D01*
X106288714Y-47310520D01*
X106288716Y-47310520D01*
X106400520Y-47198716D01*
X106475377Y-47069059D01*
X106479577Y-47061785D01*
X106520501Y-46909057D01*
X106520501Y-46750943D01*
X106520501Y-46743348D01*
X106520500Y-46743330D01*
X106520500Y-40924453D01*
X106540185Y-40857414D01*
X106592989Y-40811659D01*
X106638882Y-40800842D01*
X106638869Y-40800649D01*
X106640053Y-40800566D01*
X106640222Y-40800527D01*
X106640998Y-40800500D01*
X106641012Y-40800500D01*
X106641025Y-40800499D01*
X106641027Y-40800499D01*
X106648994Y-40799945D01*
X106729630Y-40794349D01*
X106729636Y-40794347D01*
X106729640Y-40794347D01*
X106937176Y-40745534D01*
X106937174Y-40745534D01*
X106937185Y-40745532D01*
X107132237Y-40659409D01*
X107308142Y-40538911D01*
X107458911Y-40388142D01*
X107579409Y-40212237D01*
X107665532Y-40017185D01*
X107714349Y-39809630D01*
X107720500Y-39721012D01*
X107720500Y-38278988D01*
X107714349Y-38190370D01*
X107714347Y-38190364D01*
X107714347Y-38190359D01*
X107665534Y-37982823D01*
X107665532Y-37982817D01*
X107665532Y-37982815D01*
X107579409Y-37787763D01*
X107458911Y-37611858D01*
X107458906Y-37611852D01*
X107308147Y-37461093D01*
X107308141Y-37461088D01*
X107132238Y-37340592D01*
X107132239Y-37340592D01*
X107132237Y-37340591D01*
X106937185Y-37254468D01*
X106937183Y-37254467D01*
X106937182Y-37254467D01*
X106937176Y-37254465D01*
X106729640Y-37205652D01*
X106729624Y-37205650D01*
X106641016Y-37199500D01*
X106641012Y-37199500D01*
X105198988Y-37199500D01*
X105198984Y-37199500D01*
X105110375Y-37205650D01*
X105110359Y-37205652D01*
X104902823Y-37254465D01*
X104902817Y-37254467D01*
X104707761Y-37340592D01*
X104531858Y-37461088D01*
X104531852Y-37461093D01*
X104381093Y-37611852D01*
X104381088Y-37611858D01*
X104260592Y-37787761D01*
X104174467Y-37982817D01*
X104174465Y-37982823D01*
X104125652Y-38190359D01*
X104125650Y-38190375D01*
X104119500Y-38278984D01*
X104119500Y-39721015D01*
X104125650Y-39809624D01*
X104125652Y-39809640D01*
X104174465Y-40017176D01*
X104174467Y-40017182D01*
X104174468Y-40017185D01*
X104260591Y-40212237D01*
X104260592Y-40212238D01*
X104381088Y-40388141D01*
X104381093Y-40388147D01*
X104531852Y-40538906D01*
X104531858Y-40538911D01*
X104707763Y-40659409D01*
X104902815Y-40745532D01*
X104902821Y-40745533D01*
X104902823Y-40745534D01*
X105110359Y-40794347D01*
X105110364Y-40794347D01*
X105110370Y-40794349D01*
X105177566Y-40799013D01*
X105198972Y-40800499D01*
X105198975Y-40800499D01*
X105198988Y-40800500D01*
X105199001Y-40800500D01*
X105199778Y-40800527D01*
X105199885Y-40800562D01*
X105201131Y-40800649D01*
X105201108Y-40800968D01*
X105266098Y-40822512D01*
X105310004Y-40876863D01*
X105319500Y-40924453D01*
X105319500Y-46529901D01*
X105299815Y-46596940D01*
X105283181Y-46617582D01*
X105233530Y-46667233D01*
X105172207Y-46700718D01*
X105113756Y-46699327D01*
X104985413Y-46664938D01*
X104985403Y-46664936D01*
X104750001Y-46644341D01*
X104749999Y-46644341D01*
X104514596Y-46664936D01*
X104514586Y-46664938D01*
X104286344Y-46726094D01*
X104286335Y-46726098D01*
X104072171Y-46825964D01*
X104072169Y-46825965D01*
X103878597Y-46961505D01*
X103711508Y-47128594D01*
X103601269Y-47286032D01*
X103546692Y-47329656D01*
X103477193Y-47336849D01*
X103414839Y-47305327D01*
X103398119Y-47286031D01*
X103364926Y-47238626D01*
X103364925Y-47238625D01*
X102773787Y-47829764D01*
X102762518Y-47787708D01*
X102690110Y-47662292D01*
X102587708Y-47559890D01*
X102462292Y-47487482D01*
X102420234Y-47476212D01*
X103011373Y-46885073D01*
X103011373Y-46885072D01*
X102927583Y-46826402D01*
X102927579Y-46826400D01*
X102713492Y-46726570D01*
X102713483Y-46726566D01*
X102485326Y-46665432D01*
X102485315Y-46665430D01*
X102250002Y-46644843D01*
X102249998Y-46644843D01*
X102014684Y-46665430D01*
X102014673Y-46665432D01*
X101786516Y-46726566D01*
X101786507Y-46726570D01*
X101572419Y-46826401D01*
X101488625Y-46885072D01*
X102079765Y-47476212D01*
X102037708Y-47487482D01*
X101912292Y-47559890D01*
X101809890Y-47662292D01*
X101737482Y-47787708D01*
X101726212Y-47829765D01*
X101135072Y-47238625D01*
X101135071Y-47238626D01*
X101101879Y-47286031D01*
X101047302Y-47329656D01*
X100977804Y-47336850D01*
X100915449Y-47305327D01*
X100898730Y-47286032D01*
X100788495Y-47128599D01*
X100621401Y-46961505D01*
X100546498Y-46909057D01*
X100427834Y-46825967D01*
X100427830Y-46825965D01*
X100427828Y-46825964D01*
X100213663Y-46726097D01*
X100213659Y-46726096D01*
X100213655Y-46726094D01*
X99985413Y-46664938D01*
X99985403Y-46664936D01*
X99750001Y-46644341D01*
X99749999Y-46644341D01*
X99514596Y-46664936D01*
X99514583Y-46664939D01*
X99386241Y-46699327D01*
X99316392Y-46697664D01*
X99266468Y-46667233D01*
X98256819Y-45657584D01*
X98223334Y-45596261D01*
X98220500Y-45569903D01*
X98220500Y-40924453D01*
X98240185Y-40857414D01*
X98292989Y-40811659D01*
X98338882Y-40800842D01*
X98338869Y-40800649D01*
X98340053Y-40800566D01*
X98340222Y-40800527D01*
X98340998Y-40800500D01*
X98341012Y-40800500D01*
X98341025Y-40800499D01*
X98341027Y-40800499D01*
X98348994Y-40799945D01*
X98429630Y-40794349D01*
X98429636Y-40794347D01*
X98429640Y-40794347D01*
X98637176Y-40745534D01*
X98637174Y-40745534D01*
X98637185Y-40745532D01*
X98832237Y-40659409D01*
X99008142Y-40538911D01*
X99158911Y-40388142D01*
X99279409Y-40212237D01*
X99365532Y-40017185D01*
X99414349Y-39809630D01*
X99420500Y-39721012D01*
X99420500Y-38278988D01*
X99414349Y-38190370D01*
X99414347Y-38190364D01*
X99414347Y-38190359D01*
X99365534Y-37982823D01*
X99365532Y-37982817D01*
X99365532Y-37982815D01*
X99279409Y-37787763D01*
X99158911Y-37611858D01*
X99158906Y-37611852D01*
X99008147Y-37461093D01*
X99008141Y-37461088D01*
X98832238Y-37340592D01*
X98832239Y-37340592D01*
X98832237Y-37340591D01*
X98637185Y-37254468D01*
X98637183Y-37254467D01*
X98637182Y-37254467D01*
X98637176Y-37254465D01*
X98429640Y-37205652D01*
X98429624Y-37205650D01*
X98341016Y-37199500D01*
X98341012Y-37199500D01*
X96898988Y-37199500D01*
X96898984Y-37199500D01*
X96810375Y-37205650D01*
X96810359Y-37205652D01*
X96602823Y-37254465D01*
X96602817Y-37254467D01*
X96407761Y-37340592D01*
X96231858Y-37461088D01*
X96231852Y-37461093D01*
X96081093Y-37611852D01*
X96081088Y-37611858D01*
X96039452Y-37672640D01*
X95985325Y-37716823D01*
X95915904Y-37724729D01*
X95853229Y-37693848D01*
X95836834Y-37675449D01*
X95702271Y-37490241D01*
X95702271Y-37490240D01*
X95529759Y-37317728D01*
X95332377Y-37174321D01*
X95114998Y-37063560D01*
X94882959Y-36988165D01*
X94770000Y-36970274D01*
X94770000Y-38333011D01*
X94760060Y-38315795D01*
X94704205Y-38259940D01*
X94635796Y-38220444D01*
X94559496Y-38200000D01*
X94480504Y-38200000D01*
X94404204Y-38220444D01*
X94335795Y-38259940D01*
X94279940Y-38315795D01*
X94270000Y-38333011D01*
X94270000Y-36970274D01*
X94157040Y-36988165D01*
X93925001Y-37063560D01*
X93707617Y-37174323D01*
X93697382Y-37181760D01*
X93631575Y-37205238D01*
X93563522Y-37189411D01*
X93514829Y-37139303D01*
X93500500Y-37081440D01*
X93500500Y-33624500D01*
X93520185Y-33557461D01*
X93572989Y-33511706D01*
X93624500Y-33500500D01*
X108375500Y-33500500D01*
X108442539Y-33520185D01*
G37*
%TD.AperFunction*%
%TD*%
M02*
