M48
; DRILL file {KiCad 8.0.0} date 2024-07-20T14:50:39+0200
; FORMAT={-:-/ absolute / metric / decimal}
; #@! TF.CreationDate,2024-07-20T14:50:39+02:00
; #@! TF.GenerationSoftware,Kicad,Pcbnew,8.0.0
; #@! TF.FileFunction,Plated,1,2,PTH
FMAT,2
METRIC
; #@! TA.AperFunction,Plated,PTH,ViaDrill
T1C3.000
; #@! TA.AperFunction,Plated,PTH,ViaDrill
T2C4.000
; #@! TA.AperFunction,Plated,PTH,ViaDrill
T3C6.000
; #@! TA.AperFunction,Plated,PTH,ViaDrill
T4C6.500
; #@! TA.AperFunction,Plated,PTH,ViaDrill
T5C7.000
%
G90
G05
T1
X44.241Y-43.754
X44.241Y-165.754
X62.151Y-60.16
X79.801Y-43.754
X79.801Y-165.754
T2
X45.401Y-100.068
T3
X43.901Y-125.348
X43.901Y-139.098
X43.901Y-152.686
X56.068Y-125.348
X56.068Y-139.098
X56.068Y-152.686
X68.234Y-125.348
X68.234Y-139.098
X68.234Y-152.686
X78.901Y-100.068
X80.401Y-125.348
X80.401Y-139.098
X80.401Y-152.686
T4
X62.15Y-102.818
T5
X47.901Y-63.788
X47.901Y-82.897
X76.401Y-63.788
X76.401Y-82.897
M30
