%TF.GenerationSoftware,KiCad,Pcbnew,8.0.5-8.0.5-0~ubuntu22.04.1*%
%TF.CreationDate,2024-09-23T11:55:14+02:00*%
%TF.ProjectId,links_v40_panel,6c696e6b-735f-4763-9430-5f70616e656c,rev?*%
%TF.SameCoordinates,Original*%
%TF.FileFunction,Legend,Top*%
%TF.FilePolarity,Positive*%
%FSLAX46Y46*%
G04 Gerber Fmt 4.6, Leading zero omitted, Abs format (unit mm)*
G04 Created by KiCad (PCBNEW 8.0.5-8.0.5-0~ubuntu22.04.1) date 2024-09-23 11:55:14*
%MOMM*%
%LPD*%
G01*
G04 APERTURE LIST*
%ADD10C,0.150000*%
%ADD11C,0.250000*%
%ADD12C,2.000000*%
%ADD13C,0.100000*%
G04 APERTURE END LIST*
D10*
G36*
X65508423Y-57893946D02*
G01*
X65950014Y-57893946D01*
X66119030Y-57893946D01*
X66119030Y-58082502D01*
X65508423Y-58082502D01*
X63868088Y-58082502D01*
X63868088Y-57935956D01*
X63868088Y-57893946D01*
X63868088Y-55831559D01*
X64056644Y-55831559D01*
X64056644Y-57893946D01*
X65508423Y-57893946D01*
G37*
G36*
X67233755Y-56020115D02*
G01*
X67045199Y-56020115D01*
X67045199Y-57893946D01*
X67233755Y-57893946D01*
X67233755Y-58082502D01*
X66668088Y-58082502D01*
X66668088Y-57893946D01*
X66856644Y-57893946D01*
X66856644Y-56020115D01*
X66668088Y-56020115D01*
X66668088Y-55831559D01*
X67233755Y-55831559D01*
X67233755Y-56020115D01*
G37*
G36*
X68118891Y-56160799D02*
G01*
X68203353Y-56083633D01*
X68292120Y-56016757D01*
X68385192Y-55960169D01*
X68482568Y-55913869D01*
X68584250Y-55877859D01*
X68690236Y-55852137D01*
X68800527Y-55836704D01*
X68915122Y-55831559D01*
X69029718Y-55836704D01*
X69140009Y-55852137D01*
X69245995Y-55877859D01*
X69347677Y-55913869D01*
X69445053Y-55960169D01*
X69538125Y-56016757D01*
X69626892Y-56083633D01*
X69711354Y-56160799D01*
X69788520Y-56245261D01*
X69855396Y-56334028D01*
X69911984Y-56427100D01*
X69958284Y-56524476D01*
X69994294Y-56626158D01*
X70020016Y-56732144D01*
X70035449Y-56842435D01*
X70040593Y-56957030D01*
X70040593Y-58082502D01*
X69852038Y-58082502D01*
X69852038Y-56957030D01*
X69846031Y-56848081D01*
X69828009Y-56742637D01*
X69797972Y-56640699D01*
X69755921Y-56542268D01*
X69726497Y-56487596D01*
X69667392Y-56397102D01*
X69599499Y-56315397D01*
X69522816Y-56242481D01*
X69437344Y-56178354D01*
X69384557Y-56145656D01*
X69288129Y-56096739D01*
X69188195Y-56059837D01*
X69084755Y-56034949D01*
X68977809Y-56022076D01*
X68915122Y-56020115D01*
X68806149Y-56026122D01*
X68700635Y-56044144D01*
X68598581Y-56074181D01*
X68499986Y-56116232D01*
X68445199Y-56145656D01*
X68354872Y-56204761D01*
X68273241Y-56272654D01*
X68200305Y-56349337D01*
X68136064Y-56434809D01*
X68103259Y-56487596D01*
X68054533Y-56584023D01*
X68017774Y-56683957D01*
X67992984Y-56787398D01*
X67980161Y-56894344D01*
X67978207Y-56957030D01*
X67978207Y-58082502D01*
X67789651Y-58082502D01*
X67789651Y-56957030D01*
X67794796Y-56842435D01*
X67810229Y-56732144D01*
X67835951Y-56626158D01*
X67871961Y-56524476D01*
X67918261Y-56427100D01*
X67974849Y-56334028D01*
X68041725Y-56245261D01*
X68118891Y-56160799D01*
G37*
G36*
X72547991Y-55831559D02*
G01*
X72840593Y-55831559D01*
X71504097Y-56957030D01*
X72840593Y-58082502D01*
X72547991Y-58082502D01*
X71355108Y-57080617D01*
X70778207Y-57567638D01*
X70778207Y-58082502D01*
X70589651Y-58082502D01*
X70589651Y-57724930D01*
X70589651Y-57477756D01*
X70589651Y-55831559D01*
X70778207Y-55831559D01*
X70778207Y-57319975D01*
X72547991Y-55831559D01*
G37*
G36*
X74000259Y-55831559D02*
G01*
X75640593Y-55831559D01*
X75640593Y-56020115D01*
X74000259Y-56020115D01*
X73896179Y-56032232D01*
X73801926Y-56068582D01*
X73717500Y-56129166D01*
X73701794Y-56144190D01*
X73636621Y-56226393D01*
X73595586Y-56318519D01*
X73578690Y-56420566D01*
X73578207Y-56442167D01*
X73590276Y-56546103D01*
X73626483Y-56639927D01*
X73686828Y-56723637D01*
X73701794Y-56739166D01*
X73784254Y-56803566D01*
X73876542Y-56844114D01*
X73978656Y-56860810D01*
X74000259Y-56861287D01*
X75029986Y-56861287D01*
X75137136Y-56869842D01*
X75237181Y-56895508D01*
X75330119Y-56938284D01*
X75415951Y-56998170D01*
X75461808Y-57040073D01*
X75531471Y-57121845D01*
X75584025Y-57210722D01*
X75619467Y-57306706D01*
X75637800Y-57409796D01*
X75640593Y-57471894D01*
X75632038Y-57579044D01*
X75606373Y-57679089D01*
X75563597Y-57772027D01*
X75503711Y-57857859D01*
X75461808Y-57903716D01*
X75380036Y-57973379D01*
X75291158Y-58025933D01*
X75195175Y-58061375D01*
X75092085Y-58079708D01*
X75029986Y-58082502D01*
X73389651Y-58082502D01*
X73389651Y-57893946D01*
X75029986Y-57893946D01*
X75134019Y-57881877D01*
X75228128Y-57845670D01*
X75312316Y-57785325D01*
X75327963Y-57770359D01*
X75393393Y-57687899D01*
X75434590Y-57595611D01*
X75451553Y-57493497D01*
X75452038Y-57471894D01*
X75439921Y-57368005D01*
X75403571Y-57274325D01*
X75342987Y-57190853D01*
X75327963Y-57175384D01*
X75245760Y-57110726D01*
X75153634Y-57070016D01*
X75051587Y-57053253D01*
X75029986Y-57052774D01*
X74000259Y-57052774D01*
X73893108Y-57044218D01*
X73793064Y-57018553D01*
X73700126Y-56975777D01*
X73614294Y-56915891D01*
X73568437Y-56873988D01*
X73498774Y-56792216D01*
X73446220Y-56703338D01*
X73410777Y-56607355D01*
X73392445Y-56504265D01*
X73389651Y-56442167D01*
X73398207Y-56335016D01*
X73423872Y-56234972D01*
X73466648Y-56142034D01*
X73526534Y-56056202D01*
X73568437Y-56010345D01*
X73650209Y-55940682D01*
X73739087Y-55888128D01*
X73835070Y-55852685D01*
X73938160Y-55834353D01*
X74000259Y-55831559D01*
G37*
G36*
X64428820Y-135602028D02*
G01*
X64482146Y-135605669D01*
X64532398Y-135616591D01*
X64579576Y-135634795D01*
X64623680Y-135660280D01*
X64664710Y-135693047D01*
X64677704Y-135705587D01*
X64712649Y-135745790D01*
X64740363Y-135788912D01*
X64760848Y-135834954D01*
X64774103Y-135883915D01*
X64780128Y-135935796D01*
X64780530Y-135953738D01*
X64780530Y-136727500D01*
X64686252Y-136727500D01*
X64686252Y-135953738D01*
X64681550Y-135902829D01*
X64667445Y-135855614D01*
X64643937Y-135812093D01*
X64611025Y-135772266D01*
X64571427Y-135739033D01*
X64527861Y-135715296D01*
X64480325Y-135701054D01*
X64428820Y-135696306D01*
X64377315Y-135701054D01*
X64329780Y-135715296D01*
X64286213Y-135739033D01*
X64246615Y-135772266D01*
X64213703Y-135812093D01*
X64190195Y-135855614D01*
X64176090Y-135902829D01*
X64171388Y-135953738D01*
X64171388Y-136727500D01*
X64077110Y-136727500D01*
X64077110Y-135953738D01*
X64072363Y-135902829D01*
X64058121Y-135855614D01*
X64034383Y-135812093D01*
X64001151Y-135772266D01*
X63961278Y-135739033D01*
X63917620Y-135715296D01*
X63870176Y-135701054D01*
X63818946Y-135696306D01*
X63767716Y-135701054D01*
X63720272Y-135715296D01*
X63676613Y-135739033D01*
X63636741Y-135772266D01*
X63603508Y-135812093D01*
X63579771Y-135855614D01*
X63565529Y-135902829D01*
X63560781Y-135953738D01*
X63560781Y-136727500D01*
X63466503Y-136727500D01*
X63466503Y-135953738D01*
X63470136Y-135900884D01*
X63481032Y-135850950D01*
X63499193Y-135803935D01*
X63524618Y-135759840D01*
X63557307Y-135718664D01*
X63569818Y-135705587D01*
X63610104Y-135670394D01*
X63653292Y-135642481D01*
X63699382Y-135621850D01*
X63748375Y-135608501D01*
X63800270Y-135602433D01*
X63818213Y-135602028D01*
X63871480Y-135605815D01*
X63922198Y-135617175D01*
X63970364Y-135636109D01*
X63996022Y-135649900D01*
X64038891Y-135679494D01*
X64076273Y-135714420D01*
X64108168Y-135754679D01*
X64123517Y-135779349D01*
X64152402Y-135736128D01*
X64186852Y-135698239D01*
X64226866Y-135665683D01*
X64251500Y-135649900D01*
X64298508Y-135626759D01*
X64347756Y-135611191D01*
X64399246Y-135603197D01*
X64428820Y-135602028D01*
G37*
G36*
X65336915Y-135696306D02*
G01*
X65242637Y-135696306D01*
X65242637Y-136633222D01*
X65336915Y-136633222D01*
X65336915Y-136727500D01*
X65054082Y-136727500D01*
X65054082Y-136633222D01*
X65148360Y-136633222D01*
X65148360Y-135696306D01*
X65054082Y-135696306D01*
X65054082Y-135602028D01*
X65336915Y-135602028D01*
X65336915Y-135696306D01*
G37*
G36*
X66606734Y-135602028D02*
G01*
X66740335Y-135602028D01*
X66243789Y-136164764D01*
X66740335Y-136727500D01*
X66606734Y-136727500D01*
X66177599Y-136240724D01*
X65748464Y-136727500D01*
X65614863Y-136727500D01*
X66111409Y-136164764D01*
X65614863Y-135602028D01*
X65748464Y-135602028D01*
X66177599Y-136088804D01*
X66606734Y-135602028D01*
G37*
G36*
X63071809Y-102448802D02*
G01*
X63704887Y-101323330D01*
X64336499Y-102448802D01*
X64221216Y-102448802D01*
X63704887Y-101527273D01*
X63187092Y-102448802D01*
X63071809Y-102448802D01*
G37*
G36*
X65172298Y-101323330D02*
G01*
X65229596Y-101325903D01*
X65284741Y-101333619D01*
X65337734Y-101346480D01*
X65388575Y-101364485D01*
X65437263Y-101387635D01*
X65483799Y-101415929D01*
X65528183Y-101449367D01*
X65570414Y-101487950D01*
X65608996Y-101530181D01*
X65642435Y-101574565D01*
X65670729Y-101621101D01*
X65693878Y-101669789D01*
X65711884Y-101720630D01*
X65724745Y-101773623D01*
X65732461Y-101828768D01*
X65735033Y-101886066D01*
X65732461Y-101943364D01*
X65724745Y-101998509D01*
X65711884Y-102051502D01*
X65693878Y-102102343D01*
X65670729Y-102151031D01*
X65642435Y-102197567D01*
X65608996Y-102241951D01*
X65570414Y-102284182D01*
X65528183Y-102322765D01*
X65483799Y-102356203D01*
X65437263Y-102384497D01*
X65388575Y-102407647D01*
X65337734Y-102425652D01*
X65284741Y-102438513D01*
X65229596Y-102446229D01*
X65172298Y-102448802D01*
X64609562Y-102448802D01*
X64609562Y-101838194D01*
X64703840Y-101838194D01*
X64703840Y-102354524D01*
X65172298Y-102354524D01*
X65226773Y-102351532D01*
X65279495Y-102342556D01*
X65330463Y-102327596D01*
X65379679Y-102306652D01*
X65407015Y-102291998D01*
X65452262Y-102262362D01*
X65493115Y-102228378D01*
X65529573Y-102190047D01*
X65561636Y-102147368D01*
X65577985Y-102121028D01*
X65602444Y-102072719D01*
X65620895Y-102022680D01*
X65633338Y-101970911D01*
X65639775Y-101917413D01*
X65640756Y-101886066D01*
X65637752Y-101831591D01*
X65628741Y-101778869D01*
X65613723Y-101727900D01*
X65592697Y-101678685D01*
X65577985Y-101651349D01*
X65548433Y-101606102D01*
X65514486Y-101565249D01*
X65476145Y-101528791D01*
X65433409Y-101496728D01*
X65407015Y-101480379D01*
X65358801Y-101455920D01*
X65308834Y-101437469D01*
X65257114Y-101425025D01*
X65203641Y-101418589D01*
X65172298Y-101417608D01*
X64609562Y-101417608D01*
X64609562Y-101323330D01*
X65172298Y-101323330D01*
G37*
G36*
X66572298Y-101323330D02*
G01*
X66629596Y-101325903D01*
X66684741Y-101333619D01*
X66737734Y-101346480D01*
X66788575Y-101364485D01*
X66837263Y-101387635D01*
X66883799Y-101415929D01*
X66928183Y-101449367D01*
X66970414Y-101487950D01*
X67008996Y-101530181D01*
X67042435Y-101574565D01*
X67070729Y-101621101D01*
X67093878Y-101669789D01*
X67111884Y-101720630D01*
X67124745Y-101773623D01*
X67132461Y-101828768D01*
X67135033Y-101886066D01*
X67132461Y-101943364D01*
X67124745Y-101998509D01*
X67111884Y-102051502D01*
X67093878Y-102102343D01*
X67070729Y-102151031D01*
X67042435Y-102197567D01*
X67008996Y-102241951D01*
X66970414Y-102284182D01*
X66928183Y-102322765D01*
X66883799Y-102356203D01*
X66837263Y-102384497D01*
X66788575Y-102407647D01*
X66737734Y-102425652D01*
X66684741Y-102438513D01*
X66629596Y-102446229D01*
X66572298Y-102448802D01*
X66009562Y-102448802D01*
X66009562Y-101838194D01*
X66103840Y-101838194D01*
X66103840Y-102354524D01*
X66572298Y-102354524D01*
X66626773Y-102351532D01*
X66679495Y-102342556D01*
X66730463Y-102327596D01*
X66779679Y-102306652D01*
X66807015Y-102291998D01*
X66852262Y-102262362D01*
X66893115Y-102228378D01*
X66929573Y-102190047D01*
X66961636Y-102147368D01*
X66977985Y-102121028D01*
X67002444Y-102072719D01*
X67020895Y-102022680D01*
X67033338Y-101970911D01*
X67039775Y-101917413D01*
X67040756Y-101886066D01*
X67037752Y-101831591D01*
X67028741Y-101778869D01*
X67013723Y-101727900D01*
X66992697Y-101678685D01*
X66977985Y-101651349D01*
X66948433Y-101606102D01*
X66914486Y-101565249D01*
X66876145Y-101528791D01*
X66833409Y-101496728D01*
X66807015Y-101480379D01*
X66758801Y-101455920D01*
X66708834Y-101437469D01*
X66657114Y-101425025D01*
X66603641Y-101418589D01*
X66572298Y-101417608D01*
X66009562Y-101417608D01*
X66009562Y-101323330D01*
X66572298Y-101323330D01*
G37*
G36*
X62472442Y-67023330D02*
G01*
X63292609Y-67023330D01*
X63292609Y-67117608D01*
X62472442Y-67117608D01*
X62420402Y-67123667D01*
X62373276Y-67141842D01*
X62331063Y-67172134D01*
X62323210Y-67179646D01*
X62290623Y-67220747D01*
X62270106Y-67266810D01*
X62261657Y-67317834D01*
X62261416Y-67328634D01*
X62267451Y-67380602D01*
X62285554Y-67427514D01*
X62315727Y-67469369D01*
X62323210Y-67477134D01*
X62364440Y-67509334D01*
X62410584Y-67529608D01*
X62461641Y-67537956D01*
X62472442Y-67538194D01*
X62987306Y-67538194D01*
X63040881Y-67542472D01*
X63090903Y-67555305D01*
X63137372Y-67576693D01*
X63180288Y-67606636D01*
X63203217Y-67627587D01*
X63238048Y-67668473D01*
X63264325Y-67712912D01*
X63282046Y-67760904D01*
X63291213Y-67812449D01*
X63292609Y-67843498D01*
X63288332Y-67897073D01*
X63275499Y-67947095D01*
X63254111Y-67993564D01*
X63224168Y-68036480D01*
X63203217Y-68059409D01*
X63162331Y-68094240D01*
X63117892Y-68120517D01*
X63069900Y-68138238D01*
X63018355Y-68147405D01*
X62987306Y-68148802D01*
X62167138Y-68148802D01*
X62167138Y-68054524D01*
X62987306Y-68054524D01*
X63039322Y-68048489D01*
X63086377Y-68030386D01*
X63128471Y-68000213D01*
X63136294Y-67992730D01*
X63169009Y-67951500D01*
X63189608Y-67905356D01*
X63198089Y-67854299D01*
X63198332Y-67843498D01*
X63192273Y-67791553D01*
X63174098Y-67744713D01*
X63143806Y-67702977D01*
X63136294Y-67695243D01*
X63095193Y-67662914D01*
X63049130Y-67642559D01*
X62998106Y-67634177D01*
X62987306Y-67633938D01*
X62472442Y-67633938D01*
X62418867Y-67629660D01*
X62368845Y-67616827D01*
X62322376Y-67595439D01*
X62279460Y-67565496D01*
X62256531Y-67544545D01*
X62221699Y-67503659D01*
X62195423Y-67459220D01*
X62177701Y-67411228D01*
X62168535Y-67359683D01*
X62167138Y-67328634D01*
X62171416Y-67275059D01*
X62184249Y-67225037D01*
X62205637Y-67178568D01*
X62235580Y-67135652D01*
X62256531Y-67112723D01*
X62297417Y-67077892D01*
X62341856Y-67051615D01*
X62389848Y-67033893D01*
X62441393Y-67024727D01*
X62472442Y-67023330D01*
G37*
G36*
X64440881Y-67027608D02*
G01*
X64490903Y-67040441D01*
X64537372Y-67061829D01*
X64580288Y-67091772D01*
X64603217Y-67112723D01*
X64638048Y-67153609D01*
X64664325Y-67198048D01*
X64682046Y-67246040D01*
X64691213Y-67297585D01*
X64692609Y-67328634D01*
X64688332Y-67382209D01*
X64675499Y-67432231D01*
X64654111Y-67478700D01*
X64624168Y-67521616D01*
X64603217Y-67544545D01*
X64562331Y-67579376D01*
X64517892Y-67605653D01*
X64469900Y-67623375D01*
X64418355Y-67632541D01*
X64387306Y-67633938D01*
X63661416Y-67633938D01*
X63661416Y-68148802D01*
X63567138Y-68148802D01*
X63567138Y-67538194D01*
X63661416Y-67538194D01*
X64387306Y-67538194D01*
X64435258Y-67527795D01*
X64469616Y-67511572D01*
X64510508Y-67483389D01*
X64545550Y-67448846D01*
X64558276Y-67433414D01*
X64584210Y-67391377D01*
X64597706Y-67341972D01*
X64598332Y-67328634D01*
X64592273Y-67276618D01*
X64574098Y-67229563D01*
X64543806Y-67187469D01*
X64536294Y-67179646D01*
X64495193Y-67146931D01*
X64449130Y-67126332D01*
X64398106Y-67117851D01*
X64387306Y-67117608D01*
X63661416Y-67117608D01*
X63661416Y-67538194D01*
X63567138Y-67538194D01*
X63567138Y-67023330D01*
X64387306Y-67023330D01*
X64440881Y-67027608D01*
G37*
G36*
X65787306Y-68054524D02*
G01*
X66008101Y-68054524D01*
X66092609Y-68054524D01*
X66092609Y-68148802D01*
X65787306Y-68148802D01*
X64967138Y-68148802D01*
X64967138Y-68075529D01*
X64967138Y-68054524D01*
X64967138Y-67023330D01*
X65061416Y-67023330D01*
X65061416Y-68054524D01*
X65787306Y-68054524D01*
G37*
G36*
X66649972Y-67117608D02*
G01*
X66555694Y-67117608D01*
X66555694Y-68054524D01*
X66649972Y-68054524D01*
X66649972Y-68148802D01*
X66367138Y-68148802D01*
X66367138Y-68054524D01*
X66461416Y-68054524D01*
X66461416Y-67117608D01*
X66367138Y-67117608D01*
X66367138Y-67023330D01*
X66649972Y-67023330D01*
X66649972Y-67117608D01*
G37*
G36*
X66927920Y-67117608D02*
G01*
X66927920Y-67023330D01*
X68053391Y-67023330D01*
X68053391Y-67117608D01*
X67538527Y-67117608D01*
X67538527Y-68148802D01*
X67442784Y-68148802D01*
X67442784Y-67117608D01*
X66927920Y-67117608D01*
G37*
G36*
X63583164Y-162617500D02*
G01*
X63583164Y-160366557D01*
X63771720Y-160366557D01*
X63771720Y-162617500D01*
X63583164Y-162617500D01*
G37*
G36*
X64658810Y-160695797D02*
G01*
X64743272Y-160618631D01*
X64832039Y-160551755D01*
X64925111Y-160495167D01*
X65022487Y-160448867D01*
X65124169Y-160412857D01*
X65230155Y-160387135D01*
X65340446Y-160371702D01*
X65455041Y-160366557D01*
X65569637Y-160371702D01*
X65679928Y-160387135D01*
X65785914Y-160412857D01*
X65887596Y-160448867D01*
X65984972Y-160495167D01*
X66078044Y-160551755D01*
X66166811Y-160618631D01*
X66251273Y-160695797D01*
X66328439Y-160780259D01*
X66395315Y-160869026D01*
X66451903Y-160962098D01*
X66498203Y-161059474D01*
X66534213Y-161161156D01*
X66559935Y-161267142D01*
X66575368Y-161377433D01*
X66580512Y-161492028D01*
X66580512Y-162617500D01*
X66391957Y-162617500D01*
X66391957Y-161492028D01*
X66385950Y-161383079D01*
X66367928Y-161277635D01*
X66337891Y-161175697D01*
X66295840Y-161077266D01*
X66266416Y-161022594D01*
X66207311Y-160932100D01*
X66139418Y-160850395D01*
X66062735Y-160777479D01*
X65977263Y-160713352D01*
X65924476Y-160680654D01*
X65828048Y-160631737D01*
X65728114Y-160594835D01*
X65624674Y-160569947D01*
X65517728Y-160557074D01*
X65455041Y-160555113D01*
X65346068Y-160561120D01*
X65240554Y-160579142D01*
X65138500Y-160609179D01*
X65039905Y-160651230D01*
X64985118Y-160680654D01*
X64894791Y-160739759D01*
X64813160Y-160807652D01*
X64740224Y-160884335D01*
X64675983Y-160969807D01*
X64643178Y-161022594D01*
X64594452Y-161119021D01*
X64557693Y-161218955D01*
X64532903Y-161322396D01*
X64520080Y-161429342D01*
X64518126Y-161492028D01*
X64518126Y-162617500D01*
X64329570Y-162617500D01*
X64329570Y-161492028D01*
X64334715Y-161377433D01*
X64350148Y-161267142D01*
X64375870Y-161161156D01*
X64411880Y-161059474D01*
X64458180Y-160962098D01*
X64514768Y-160869026D01*
X64581644Y-160780259D01*
X64658810Y-160695797D01*
G37*
D11*
G36*
X71707025Y-160557074D02*
G01*
X71813971Y-160569947D01*
X71917411Y-160594835D01*
X72017345Y-160631737D01*
X72113773Y-160680654D01*
X72166560Y-160713352D01*
X72252032Y-160777479D01*
X72328714Y-160850395D01*
X72396608Y-160932100D01*
X72455713Y-161022594D01*
X72485137Y-161077266D01*
X72527188Y-161175697D01*
X72557225Y-161277635D01*
X72575247Y-161383079D01*
X72581254Y-161492028D01*
X72579292Y-161554723D01*
X72566419Y-161661719D01*
X72541532Y-161765256D01*
X72504630Y-161865334D01*
X72455713Y-161961952D01*
X72423015Y-162014632D01*
X72358888Y-162099990D01*
X72285972Y-162176653D01*
X72204267Y-162244620D01*
X72113773Y-162303892D01*
X72059101Y-162333201D01*
X71960670Y-162375088D01*
X71858732Y-162405008D01*
X71753288Y-162422960D01*
X71644338Y-162428944D01*
X71581644Y-162426990D01*
X71474648Y-162414167D01*
X71371111Y-162389377D01*
X71271033Y-162352618D01*
X71174415Y-162303892D01*
X71121735Y-162271087D01*
X71036377Y-162206846D01*
X70959714Y-162133910D01*
X70891747Y-162052279D01*
X70832475Y-161961952D01*
X70803166Y-161907165D01*
X70761278Y-161808570D01*
X70731359Y-161706516D01*
X70713407Y-161601002D01*
X70707423Y-161492028D01*
X70709377Y-161429342D01*
X70722199Y-161322396D01*
X70746990Y-161218955D01*
X70783749Y-161119021D01*
X70832475Y-161022594D01*
X70865280Y-160969807D01*
X70929521Y-160884335D01*
X71002457Y-160807652D01*
X71084088Y-160739759D01*
X71174415Y-160680654D01*
X71229202Y-160651230D01*
X71327797Y-160609179D01*
X71429851Y-160579142D01*
X71535365Y-160561120D01*
X71644338Y-160555113D01*
X71707025Y-160557074D01*
G37*
G36*
X78592031Y-162839722D02*
G01*
X70296645Y-162839722D01*
X70296645Y-161492028D01*
X70518867Y-161492028D01*
X70524012Y-161606624D01*
X70539445Y-161716915D01*
X70565167Y-161822901D01*
X70601177Y-161924583D01*
X70647476Y-162021959D01*
X70704064Y-162115031D01*
X70770941Y-162203798D01*
X70848107Y-162288260D01*
X70932569Y-162365426D01*
X71021336Y-162432302D01*
X71114408Y-162488890D01*
X71211784Y-162535190D01*
X71313466Y-162571200D01*
X71419452Y-162596922D01*
X71529743Y-162612355D01*
X71644338Y-162617500D01*
X71758934Y-162612355D01*
X71869225Y-162596922D01*
X71975211Y-162571200D01*
X72076892Y-162535190D01*
X72174269Y-162488890D01*
X72267341Y-162432302D01*
X72356108Y-162365426D01*
X72440570Y-162288260D01*
X72517735Y-162203798D01*
X72584612Y-162115031D01*
X72641200Y-162021959D01*
X72687500Y-161924583D01*
X72723510Y-161822901D01*
X72749232Y-161716915D01*
X72764665Y-161606624D01*
X72769809Y-161492028D01*
X73318867Y-161492028D01*
X73324012Y-161606624D01*
X73339445Y-161716915D01*
X73365167Y-161822901D01*
X73401177Y-161924583D01*
X73447476Y-162021959D01*
X73504064Y-162115031D01*
X73570941Y-162203798D01*
X73648107Y-162288260D01*
X73732569Y-162365426D01*
X73821336Y-162432302D01*
X73914408Y-162488890D01*
X74011784Y-162535190D01*
X74113466Y-162571200D01*
X74219452Y-162596922D01*
X74329743Y-162612355D01*
X74444338Y-162617500D01*
X74558934Y-162612355D01*
X74669225Y-162596922D01*
X74775211Y-162571200D01*
X74876892Y-162535190D01*
X74974269Y-162488890D01*
X75067341Y-162432302D01*
X75156108Y-162365426D01*
X75240570Y-162288260D01*
X75317735Y-162203798D01*
X75384612Y-162115031D01*
X75441200Y-162021959D01*
X75487500Y-161924583D01*
X75523510Y-161822901D01*
X75549232Y-161716915D01*
X75564665Y-161606624D01*
X75569809Y-161492028D01*
X75569809Y-160555113D01*
X76118867Y-160555113D01*
X77148595Y-160555113D01*
X77148595Y-162617500D01*
X77340081Y-162617500D01*
X77340081Y-160555113D01*
X78369809Y-160555113D01*
X78369809Y-160366557D01*
X76118867Y-160366557D01*
X76118867Y-160555113D01*
X75569809Y-160555113D01*
X75569809Y-160366557D01*
X75381254Y-160366557D01*
X75381254Y-161492028D01*
X75379292Y-161554723D01*
X75366419Y-161661719D01*
X75341532Y-161765256D01*
X75304630Y-161865334D01*
X75255713Y-161961952D01*
X75223015Y-162014632D01*
X75158888Y-162099990D01*
X75085972Y-162176653D01*
X75004267Y-162244620D01*
X74913773Y-162303892D01*
X74859101Y-162333201D01*
X74760670Y-162375088D01*
X74658732Y-162405008D01*
X74553288Y-162422960D01*
X74444338Y-162428944D01*
X74381644Y-162426990D01*
X74274648Y-162414167D01*
X74171111Y-162389377D01*
X74071033Y-162352618D01*
X73974415Y-162303892D01*
X73921735Y-162271087D01*
X73836377Y-162206846D01*
X73759714Y-162133910D01*
X73691747Y-162052279D01*
X73632475Y-161961952D01*
X73603166Y-161907165D01*
X73561278Y-161808570D01*
X73531359Y-161706516D01*
X73513407Y-161601002D01*
X73507423Y-161492028D01*
X73507423Y-160366557D01*
X73318867Y-160366557D01*
X73318867Y-161492028D01*
X72769809Y-161492028D01*
X72764665Y-161377433D01*
X72749232Y-161267142D01*
X72723510Y-161161156D01*
X72687500Y-161059474D01*
X72641200Y-160962098D01*
X72584612Y-160869026D01*
X72517735Y-160780259D01*
X72440570Y-160695797D01*
X72356108Y-160618631D01*
X72267341Y-160551755D01*
X72174269Y-160495167D01*
X72076892Y-160448867D01*
X71975211Y-160412857D01*
X71869225Y-160387135D01*
X71758934Y-160371702D01*
X71644338Y-160366557D01*
X71529743Y-160371702D01*
X71419452Y-160387135D01*
X71313466Y-160412857D01*
X71211784Y-160448867D01*
X71114408Y-160495167D01*
X71021336Y-160551755D01*
X70932569Y-160618631D01*
X70848107Y-160695797D01*
X70770941Y-160780259D01*
X70704064Y-160869026D01*
X70647476Y-160962098D01*
X70601177Y-161059474D01*
X70565167Y-161161156D01*
X70539445Y-161267142D01*
X70524012Y-161377433D01*
X70518867Y-161492028D01*
X70296645Y-161492028D01*
X70296645Y-160144335D01*
X78592031Y-160144335D01*
X78592031Y-162839722D01*
G37*
D10*
G36*
X63608164Y-149917500D02*
G01*
X63608164Y-147666557D01*
X63796720Y-147666557D01*
X63796720Y-149917500D01*
X63608164Y-149917500D01*
G37*
G36*
X64683810Y-147995797D02*
G01*
X64768272Y-147918631D01*
X64857039Y-147851755D01*
X64950111Y-147795167D01*
X65047487Y-147748867D01*
X65149169Y-147712857D01*
X65255155Y-147687135D01*
X65365446Y-147671702D01*
X65480041Y-147666557D01*
X65594637Y-147671702D01*
X65704928Y-147687135D01*
X65810914Y-147712857D01*
X65912596Y-147748867D01*
X66009972Y-147795167D01*
X66103044Y-147851755D01*
X66191811Y-147918631D01*
X66276273Y-147995797D01*
X66353439Y-148080259D01*
X66420315Y-148169026D01*
X66476903Y-148262098D01*
X66523203Y-148359474D01*
X66559213Y-148461156D01*
X66584935Y-148567142D01*
X66600368Y-148677433D01*
X66605512Y-148792028D01*
X66605512Y-149917500D01*
X66416957Y-149917500D01*
X66416957Y-148792028D01*
X66410950Y-148683079D01*
X66392928Y-148577635D01*
X66362891Y-148475697D01*
X66320840Y-148377266D01*
X66291416Y-148322594D01*
X66232311Y-148232100D01*
X66164418Y-148150395D01*
X66087735Y-148077479D01*
X66002263Y-148013352D01*
X65949476Y-147980654D01*
X65853048Y-147931737D01*
X65753114Y-147894835D01*
X65649674Y-147869947D01*
X65542728Y-147857074D01*
X65480041Y-147855113D01*
X65371068Y-147861120D01*
X65265554Y-147879142D01*
X65163500Y-147909179D01*
X65064905Y-147951230D01*
X65010118Y-147980654D01*
X64919791Y-148039759D01*
X64838160Y-148107652D01*
X64765224Y-148184335D01*
X64700983Y-148269807D01*
X64668178Y-148322594D01*
X64619452Y-148419021D01*
X64582693Y-148518955D01*
X64557903Y-148622396D01*
X64545080Y-148729342D01*
X64543126Y-148792028D01*
X64543126Y-149917500D01*
X64354570Y-149917500D01*
X64354570Y-148792028D01*
X64359715Y-148677433D01*
X64375148Y-148567142D01*
X64400870Y-148461156D01*
X64436880Y-148359474D01*
X64483180Y-148262098D01*
X64539768Y-148169026D01*
X64606644Y-148080259D01*
X64683810Y-147995797D01*
G37*
G36*
X72970664Y-149917500D02*
G01*
X72970664Y-147666557D01*
X73159220Y-147666557D01*
X73159220Y-149917500D01*
X72970664Y-149917500D01*
G37*
G36*
X74046310Y-147995797D02*
G01*
X74130772Y-147918631D01*
X74219539Y-147851755D01*
X74312611Y-147795167D01*
X74409987Y-147748867D01*
X74511669Y-147712857D01*
X74617655Y-147687135D01*
X74727946Y-147671702D01*
X74842541Y-147666557D01*
X74957137Y-147671702D01*
X75067428Y-147687135D01*
X75173414Y-147712857D01*
X75275096Y-147748867D01*
X75372472Y-147795167D01*
X75465544Y-147851755D01*
X75554311Y-147918631D01*
X75638773Y-147995797D01*
X75715939Y-148080259D01*
X75782815Y-148169026D01*
X75839403Y-148262098D01*
X75885703Y-148359474D01*
X75921713Y-148461156D01*
X75947435Y-148567142D01*
X75962868Y-148677433D01*
X75968012Y-148792028D01*
X75968012Y-149917500D01*
X75779457Y-149917500D01*
X75779457Y-148792028D01*
X75773450Y-148683079D01*
X75755428Y-148577635D01*
X75725391Y-148475697D01*
X75683340Y-148377266D01*
X75653916Y-148322594D01*
X75594811Y-148232100D01*
X75526918Y-148150395D01*
X75450235Y-148077479D01*
X75364763Y-148013352D01*
X75311976Y-147980654D01*
X75215548Y-147931737D01*
X75115614Y-147894835D01*
X75012174Y-147869947D01*
X74905228Y-147857074D01*
X74842541Y-147855113D01*
X74733568Y-147861120D01*
X74628054Y-147879142D01*
X74526000Y-147909179D01*
X74427405Y-147951230D01*
X74372618Y-147980654D01*
X74282291Y-148039759D01*
X74200660Y-148107652D01*
X74127724Y-148184335D01*
X74063483Y-148269807D01*
X74030678Y-148322594D01*
X73981952Y-148419021D01*
X73945193Y-148518955D01*
X73920403Y-148622396D01*
X73907580Y-148729342D01*
X73905626Y-148792028D01*
X73905626Y-149917500D01*
X73717070Y-149917500D01*
X73717070Y-148792028D01*
X73722215Y-148677433D01*
X73737648Y-148567142D01*
X73763370Y-148461156D01*
X73799380Y-148359474D01*
X73845680Y-148262098D01*
X73902268Y-148169026D01*
X73969144Y-148080259D01*
X74046310Y-147995797D01*
G37*
D11*
G36*
X62351368Y-126182074D02*
G01*
X62458314Y-126194947D01*
X62561754Y-126219835D01*
X62661688Y-126256737D01*
X62758116Y-126305654D01*
X62810903Y-126338352D01*
X62896375Y-126402479D01*
X62973057Y-126475395D01*
X63040951Y-126557100D01*
X63100056Y-126647594D01*
X63129480Y-126702266D01*
X63171531Y-126800697D01*
X63201568Y-126902635D01*
X63219590Y-127008079D01*
X63225597Y-127117028D01*
X63223635Y-127179723D01*
X63210762Y-127286719D01*
X63185875Y-127390256D01*
X63148973Y-127490334D01*
X63100056Y-127586952D01*
X63067358Y-127639632D01*
X63003231Y-127724990D01*
X62930315Y-127801653D01*
X62848610Y-127869620D01*
X62758116Y-127928892D01*
X62703444Y-127958201D01*
X62605013Y-128000088D01*
X62503075Y-128030008D01*
X62397631Y-128047960D01*
X62288681Y-128053944D01*
X62225987Y-128051990D01*
X62118991Y-128039167D01*
X62015454Y-128014377D01*
X61915376Y-127977618D01*
X61818758Y-127928892D01*
X61766078Y-127896087D01*
X61680720Y-127831846D01*
X61604057Y-127758910D01*
X61536090Y-127677279D01*
X61476818Y-127586952D01*
X61447509Y-127532165D01*
X61405621Y-127433570D01*
X61375702Y-127331516D01*
X61357750Y-127226002D01*
X61351766Y-127117028D01*
X61353720Y-127054342D01*
X61366542Y-126947396D01*
X61391333Y-126843955D01*
X61428092Y-126744021D01*
X61476818Y-126647594D01*
X61509623Y-126594807D01*
X61573864Y-126509335D01*
X61646800Y-126432652D01*
X61728431Y-126364759D01*
X61818758Y-126305654D01*
X61873545Y-126276230D01*
X61972140Y-126234179D01*
X62074194Y-126204142D01*
X62179708Y-126186120D01*
X62288681Y-126180113D01*
X62351368Y-126182074D01*
G37*
G36*
X69236374Y-128464722D02*
G01*
X60940988Y-128464722D01*
X60940988Y-127117028D01*
X61163210Y-127117028D01*
X61168355Y-127231624D01*
X61183788Y-127341915D01*
X61209510Y-127447901D01*
X61245520Y-127549583D01*
X61291819Y-127646959D01*
X61348407Y-127740031D01*
X61415284Y-127828798D01*
X61492450Y-127913260D01*
X61576912Y-127990426D01*
X61665679Y-128057302D01*
X61758751Y-128113890D01*
X61856127Y-128160190D01*
X61957809Y-128196200D01*
X62063795Y-128221922D01*
X62174086Y-128237355D01*
X62288681Y-128242500D01*
X62403277Y-128237355D01*
X62513568Y-128221922D01*
X62619554Y-128196200D01*
X62721235Y-128160190D01*
X62818612Y-128113890D01*
X62911684Y-128057302D01*
X63000451Y-127990426D01*
X63084913Y-127913260D01*
X63162078Y-127828798D01*
X63228955Y-127740031D01*
X63285543Y-127646959D01*
X63331843Y-127549583D01*
X63367853Y-127447901D01*
X63393575Y-127341915D01*
X63409008Y-127231624D01*
X63414152Y-127117028D01*
X63963210Y-127117028D01*
X63968355Y-127231624D01*
X63983788Y-127341915D01*
X64009510Y-127447901D01*
X64045520Y-127549583D01*
X64091819Y-127646959D01*
X64148407Y-127740031D01*
X64215284Y-127828798D01*
X64292450Y-127913260D01*
X64376912Y-127990426D01*
X64465679Y-128057302D01*
X64558751Y-128113890D01*
X64656127Y-128160190D01*
X64757809Y-128196200D01*
X64863795Y-128221922D01*
X64974086Y-128237355D01*
X65088681Y-128242500D01*
X65203277Y-128237355D01*
X65313568Y-128221922D01*
X65419554Y-128196200D01*
X65521235Y-128160190D01*
X65618612Y-128113890D01*
X65711684Y-128057302D01*
X65800451Y-127990426D01*
X65884913Y-127913260D01*
X65962078Y-127828798D01*
X66028955Y-127740031D01*
X66085543Y-127646959D01*
X66131843Y-127549583D01*
X66167853Y-127447901D01*
X66193575Y-127341915D01*
X66209008Y-127231624D01*
X66214152Y-127117028D01*
X66214152Y-126180113D01*
X66763210Y-126180113D01*
X67792938Y-126180113D01*
X67792938Y-128242500D01*
X67984424Y-128242500D01*
X67984424Y-126180113D01*
X69014152Y-126180113D01*
X69014152Y-125991557D01*
X66763210Y-125991557D01*
X66763210Y-126180113D01*
X66214152Y-126180113D01*
X66214152Y-125991557D01*
X66025597Y-125991557D01*
X66025597Y-127117028D01*
X66023635Y-127179723D01*
X66010762Y-127286719D01*
X65985875Y-127390256D01*
X65948973Y-127490334D01*
X65900056Y-127586952D01*
X65867358Y-127639632D01*
X65803231Y-127724990D01*
X65730315Y-127801653D01*
X65648610Y-127869620D01*
X65558116Y-127928892D01*
X65503444Y-127958201D01*
X65405013Y-128000088D01*
X65303075Y-128030008D01*
X65197631Y-128047960D01*
X65088681Y-128053944D01*
X65025987Y-128051990D01*
X64918991Y-128039167D01*
X64815454Y-128014377D01*
X64715376Y-127977618D01*
X64618758Y-127928892D01*
X64566078Y-127896087D01*
X64480720Y-127831846D01*
X64404057Y-127758910D01*
X64336090Y-127677279D01*
X64276818Y-127586952D01*
X64247509Y-127532165D01*
X64205621Y-127433570D01*
X64175702Y-127331516D01*
X64157750Y-127226002D01*
X64151766Y-127117028D01*
X64151766Y-125991557D01*
X63963210Y-125991557D01*
X63963210Y-127117028D01*
X63414152Y-127117028D01*
X63409008Y-127002433D01*
X63393575Y-126892142D01*
X63367853Y-126786156D01*
X63331843Y-126684474D01*
X63285543Y-126587098D01*
X63228955Y-126494026D01*
X63162078Y-126405259D01*
X63084913Y-126320797D01*
X63000451Y-126243631D01*
X62911684Y-126176755D01*
X62818612Y-126120167D01*
X62721235Y-126073867D01*
X62619554Y-126037857D01*
X62513568Y-126012135D01*
X62403277Y-125996702D01*
X62288681Y-125991557D01*
X62174086Y-125996702D01*
X62063795Y-126012135D01*
X61957809Y-126037857D01*
X61856127Y-126073867D01*
X61758751Y-126120167D01*
X61665679Y-126176755D01*
X61576912Y-126243631D01*
X61492450Y-126320797D01*
X61415284Y-126405259D01*
X61348407Y-126494026D01*
X61291819Y-126587098D01*
X61245520Y-126684474D01*
X61209510Y-126786156D01*
X61183788Y-126892142D01*
X61168355Y-127002433D01*
X61163210Y-127117028D01*
X60940988Y-127117028D01*
X60940988Y-125769335D01*
X69236374Y-125769335D01*
X69236374Y-128464722D01*
G37*
G36*
X71713868Y-126182074D02*
G01*
X71820814Y-126194947D01*
X71924254Y-126219835D01*
X72024188Y-126256737D01*
X72120616Y-126305654D01*
X72173403Y-126338352D01*
X72258875Y-126402479D01*
X72335557Y-126475395D01*
X72403451Y-126557100D01*
X72462556Y-126647594D01*
X72491980Y-126702266D01*
X72534031Y-126800697D01*
X72564068Y-126902635D01*
X72582090Y-127008079D01*
X72588097Y-127117028D01*
X72586135Y-127179723D01*
X72573262Y-127286719D01*
X72548375Y-127390256D01*
X72511473Y-127490334D01*
X72462556Y-127586952D01*
X72429858Y-127639632D01*
X72365731Y-127724990D01*
X72292815Y-127801653D01*
X72211110Y-127869620D01*
X72120616Y-127928892D01*
X72065944Y-127958201D01*
X71967513Y-128000088D01*
X71865575Y-128030008D01*
X71760131Y-128047960D01*
X71651181Y-128053944D01*
X71588487Y-128051990D01*
X71481491Y-128039167D01*
X71377954Y-128014377D01*
X71277876Y-127977618D01*
X71181258Y-127928892D01*
X71128578Y-127896087D01*
X71043220Y-127831846D01*
X70966557Y-127758910D01*
X70898590Y-127677279D01*
X70839318Y-127586952D01*
X70810009Y-127532165D01*
X70768121Y-127433570D01*
X70738202Y-127331516D01*
X70720250Y-127226002D01*
X70714266Y-127117028D01*
X70716220Y-127054342D01*
X70729042Y-126947396D01*
X70753833Y-126843955D01*
X70790592Y-126744021D01*
X70839318Y-126647594D01*
X70872123Y-126594807D01*
X70936364Y-126509335D01*
X71009300Y-126432652D01*
X71090931Y-126364759D01*
X71181258Y-126305654D01*
X71236045Y-126276230D01*
X71334640Y-126234179D01*
X71436694Y-126204142D01*
X71542208Y-126186120D01*
X71651181Y-126180113D01*
X71713868Y-126182074D01*
G37*
G36*
X78598874Y-128464722D02*
G01*
X70303488Y-128464722D01*
X70303488Y-127117028D01*
X70525710Y-127117028D01*
X70530855Y-127231624D01*
X70546288Y-127341915D01*
X70572010Y-127447901D01*
X70608020Y-127549583D01*
X70654319Y-127646959D01*
X70710907Y-127740031D01*
X70777784Y-127828798D01*
X70854950Y-127913260D01*
X70939412Y-127990426D01*
X71028179Y-128057302D01*
X71121251Y-128113890D01*
X71218627Y-128160190D01*
X71320309Y-128196200D01*
X71426295Y-128221922D01*
X71536586Y-128237355D01*
X71651181Y-128242500D01*
X71765777Y-128237355D01*
X71876068Y-128221922D01*
X71982054Y-128196200D01*
X72083735Y-128160190D01*
X72181112Y-128113890D01*
X72274184Y-128057302D01*
X72362951Y-127990426D01*
X72447413Y-127913260D01*
X72524578Y-127828798D01*
X72591455Y-127740031D01*
X72648043Y-127646959D01*
X72694343Y-127549583D01*
X72730353Y-127447901D01*
X72756075Y-127341915D01*
X72771508Y-127231624D01*
X72776652Y-127117028D01*
X73325710Y-127117028D01*
X73330855Y-127231624D01*
X73346288Y-127341915D01*
X73372010Y-127447901D01*
X73408020Y-127549583D01*
X73454319Y-127646959D01*
X73510907Y-127740031D01*
X73577784Y-127828798D01*
X73654950Y-127913260D01*
X73739412Y-127990426D01*
X73828179Y-128057302D01*
X73921251Y-128113890D01*
X74018627Y-128160190D01*
X74120309Y-128196200D01*
X74226295Y-128221922D01*
X74336586Y-128237355D01*
X74451181Y-128242500D01*
X74565777Y-128237355D01*
X74676068Y-128221922D01*
X74782054Y-128196200D01*
X74883735Y-128160190D01*
X74981112Y-128113890D01*
X75074184Y-128057302D01*
X75162951Y-127990426D01*
X75247413Y-127913260D01*
X75324578Y-127828798D01*
X75391455Y-127740031D01*
X75448043Y-127646959D01*
X75494343Y-127549583D01*
X75530353Y-127447901D01*
X75556075Y-127341915D01*
X75571508Y-127231624D01*
X75576652Y-127117028D01*
X75576652Y-126180113D01*
X76125710Y-126180113D01*
X77155438Y-126180113D01*
X77155438Y-128242500D01*
X77346924Y-128242500D01*
X77346924Y-126180113D01*
X78376652Y-126180113D01*
X78376652Y-125991557D01*
X76125710Y-125991557D01*
X76125710Y-126180113D01*
X75576652Y-126180113D01*
X75576652Y-125991557D01*
X75388097Y-125991557D01*
X75388097Y-127117028D01*
X75386135Y-127179723D01*
X75373262Y-127286719D01*
X75348375Y-127390256D01*
X75311473Y-127490334D01*
X75262556Y-127586952D01*
X75229858Y-127639632D01*
X75165731Y-127724990D01*
X75092815Y-127801653D01*
X75011110Y-127869620D01*
X74920616Y-127928892D01*
X74865944Y-127958201D01*
X74767513Y-128000088D01*
X74665575Y-128030008D01*
X74560131Y-128047960D01*
X74451181Y-128053944D01*
X74388487Y-128051990D01*
X74281491Y-128039167D01*
X74177954Y-128014377D01*
X74077876Y-127977618D01*
X73981258Y-127928892D01*
X73928578Y-127896087D01*
X73843220Y-127831846D01*
X73766557Y-127758910D01*
X73698590Y-127677279D01*
X73639318Y-127586952D01*
X73610009Y-127532165D01*
X73568121Y-127433570D01*
X73538202Y-127331516D01*
X73520250Y-127226002D01*
X73514266Y-127117028D01*
X73514266Y-125991557D01*
X73325710Y-125991557D01*
X73325710Y-127117028D01*
X72776652Y-127117028D01*
X72771508Y-127002433D01*
X72756075Y-126892142D01*
X72730353Y-126786156D01*
X72694343Y-126684474D01*
X72648043Y-126587098D01*
X72591455Y-126494026D01*
X72524578Y-126405259D01*
X72447413Y-126320797D01*
X72362951Y-126243631D01*
X72274184Y-126176755D01*
X72181112Y-126120167D01*
X72083735Y-126073867D01*
X71982054Y-126037857D01*
X71876068Y-126012135D01*
X71765777Y-125996702D01*
X71651181Y-125991557D01*
X71536586Y-125996702D01*
X71426295Y-126012135D01*
X71320309Y-126037857D01*
X71218627Y-126073867D01*
X71121251Y-126120167D01*
X71028179Y-126176755D01*
X70939412Y-126243631D01*
X70854950Y-126320797D01*
X70777784Y-126405259D01*
X70710907Y-126494026D01*
X70654319Y-126587098D01*
X70608020Y-126684474D01*
X70572010Y-126786156D01*
X70546288Y-126892142D01*
X70530855Y-127002433D01*
X70525710Y-127117028D01*
X70303488Y-127117028D01*
X70303488Y-125769335D01*
X78598874Y-125769335D01*
X78598874Y-128464722D01*
G37*
D10*
G36*
X63615007Y-115542500D02*
G01*
X63615007Y-113291557D01*
X63803563Y-113291557D01*
X63803563Y-115542500D01*
X63615007Y-115542500D01*
G37*
G36*
X64690653Y-113620797D02*
G01*
X64775115Y-113543631D01*
X64863882Y-113476755D01*
X64956954Y-113420167D01*
X65054330Y-113373867D01*
X65156012Y-113337857D01*
X65261998Y-113312135D01*
X65372289Y-113296702D01*
X65486884Y-113291557D01*
X65601480Y-113296702D01*
X65711771Y-113312135D01*
X65817757Y-113337857D01*
X65919439Y-113373867D01*
X66016815Y-113420167D01*
X66109887Y-113476755D01*
X66198654Y-113543631D01*
X66283116Y-113620797D01*
X66360282Y-113705259D01*
X66427158Y-113794026D01*
X66483746Y-113887098D01*
X66530046Y-113984474D01*
X66566056Y-114086156D01*
X66591778Y-114192142D01*
X66607211Y-114302433D01*
X66612355Y-114417028D01*
X66612355Y-115542500D01*
X66423800Y-115542500D01*
X66423800Y-114417028D01*
X66417793Y-114308079D01*
X66399771Y-114202635D01*
X66369734Y-114100697D01*
X66327683Y-114002266D01*
X66298259Y-113947594D01*
X66239154Y-113857100D01*
X66171261Y-113775395D01*
X66094578Y-113702479D01*
X66009106Y-113638352D01*
X65956319Y-113605654D01*
X65859891Y-113556737D01*
X65759957Y-113519835D01*
X65656517Y-113494947D01*
X65549571Y-113482074D01*
X65486884Y-113480113D01*
X65377911Y-113486120D01*
X65272397Y-113504142D01*
X65170343Y-113534179D01*
X65071748Y-113576230D01*
X65016961Y-113605654D01*
X64926634Y-113664759D01*
X64845003Y-113732652D01*
X64772067Y-113809335D01*
X64707826Y-113894807D01*
X64675021Y-113947594D01*
X64626295Y-114044021D01*
X64589536Y-114143955D01*
X64564746Y-114247396D01*
X64551923Y-114354342D01*
X64549969Y-114417028D01*
X64549969Y-115542500D01*
X64361413Y-115542500D01*
X64361413Y-114417028D01*
X64366558Y-114302433D01*
X64381991Y-114192142D01*
X64407713Y-114086156D01*
X64443723Y-113984474D01*
X64490023Y-113887098D01*
X64546611Y-113794026D01*
X64613487Y-113705259D01*
X64690653Y-113620797D01*
G37*
G36*
X72977507Y-115542500D02*
G01*
X72977507Y-113291557D01*
X73166063Y-113291557D01*
X73166063Y-115542500D01*
X72977507Y-115542500D01*
G37*
G36*
X74053153Y-113620797D02*
G01*
X74137615Y-113543631D01*
X74226382Y-113476755D01*
X74319454Y-113420167D01*
X74416830Y-113373867D01*
X74518512Y-113337857D01*
X74624498Y-113312135D01*
X74734789Y-113296702D01*
X74849384Y-113291557D01*
X74963980Y-113296702D01*
X75074271Y-113312135D01*
X75180257Y-113337857D01*
X75281939Y-113373867D01*
X75379315Y-113420167D01*
X75472387Y-113476755D01*
X75561154Y-113543631D01*
X75645616Y-113620797D01*
X75722782Y-113705259D01*
X75789658Y-113794026D01*
X75846246Y-113887098D01*
X75892546Y-113984474D01*
X75928556Y-114086156D01*
X75954278Y-114192142D01*
X75969711Y-114302433D01*
X75974855Y-114417028D01*
X75974855Y-115542500D01*
X75786300Y-115542500D01*
X75786300Y-114417028D01*
X75780293Y-114308079D01*
X75762271Y-114202635D01*
X75732234Y-114100697D01*
X75690183Y-114002266D01*
X75660759Y-113947594D01*
X75601654Y-113857100D01*
X75533761Y-113775395D01*
X75457078Y-113702479D01*
X75371606Y-113638352D01*
X75318819Y-113605654D01*
X75222391Y-113556737D01*
X75122457Y-113519835D01*
X75019017Y-113494947D01*
X74912071Y-113482074D01*
X74849384Y-113480113D01*
X74740411Y-113486120D01*
X74634897Y-113504142D01*
X74532843Y-113534179D01*
X74434248Y-113576230D01*
X74379461Y-113605654D01*
X74289134Y-113664759D01*
X74207503Y-113732652D01*
X74134567Y-113809335D01*
X74070326Y-113894807D01*
X74037521Y-113947594D01*
X73988795Y-114044021D01*
X73952036Y-114143955D01*
X73927246Y-114247396D01*
X73914423Y-114354342D01*
X73912469Y-114417028D01*
X73912469Y-115542500D01*
X73723913Y-115542500D01*
X73723913Y-114417028D01*
X73729058Y-114302433D01*
X73744491Y-114192142D01*
X73770213Y-114086156D01*
X73806223Y-113984474D01*
X73852523Y-113887098D01*
X73909111Y-113794026D01*
X73975987Y-113705259D01*
X74053153Y-113620797D01*
G37*
D11*
G36*
X71713870Y-79203376D02*
G01*
X71820816Y-79216249D01*
X71924256Y-79241137D01*
X72024190Y-79278039D01*
X72120618Y-79326956D01*
X72173405Y-79359654D01*
X72258877Y-79423781D01*
X72335559Y-79496697D01*
X72403453Y-79578402D01*
X72462558Y-79668896D01*
X72491982Y-79723568D01*
X72534033Y-79821999D01*
X72564070Y-79923937D01*
X72582092Y-80029381D01*
X72588099Y-80138330D01*
X72586137Y-80201025D01*
X72573264Y-80308021D01*
X72548377Y-80411558D01*
X72511475Y-80511636D01*
X72462558Y-80608254D01*
X72429860Y-80660934D01*
X72365733Y-80746292D01*
X72292817Y-80822955D01*
X72211112Y-80890922D01*
X72120618Y-80950194D01*
X72065946Y-80979503D01*
X71967515Y-81021390D01*
X71865577Y-81051310D01*
X71760133Y-81069262D01*
X71651183Y-81075246D01*
X71588489Y-81073292D01*
X71481493Y-81060469D01*
X71377956Y-81035679D01*
X71277878Y-80998920D01*
X71181260Y-80950194D01*
X71128580Y-80917389D01*
X71043222Y-80853148D01*
X70966559Y-80780212D01*
X70898592Y-80698581D01*
X70839320Y-80608254D01*
X70810011Y-80553467D01*
X70768123Y-80454872D01*
X70738204Y-80352818D01*
X70720252Y-80247304D01*
X70714268Y-80138330D01*
X70716222Y-80075644D01*
X70729044Y-79968698D01*
X70753835Y-79865257D01*
X70790594Y-79765323D01*
X70839320Y-79668896D01*
X70872125Y-79616109D01*
X70936366Y-79530637D01*
X71009302Y-79453954D01*
X71090933Y-79386061D01*
X71181260Y-79326956D01*
X71236047Y-79297532D01*
X71334642Y-79255481D01*
X71436696Y-79225444D01*
X71542210Y-79207422D01*
X71651183Y-79201415D01*
X71713870Y-79203376D01*
G37*
G36*
X78598876Y-81486024D02*
G01*
X70303490Y-81486024D01*
X70303490Y-80138330D01*
X70525712Y-80138330D01*
X70530857Y-80252926D01*
X70546290Y-80363217D01*
X70572012Y-80469203D01*
X70608022Y-80570885D01*
X70654321Y-80668261D01*
X70710909Y-80761333D01*
X70777786Y-80850100D01*
X70854952Y-80934562D01*
X70939414Y-81011728D01*
X71028181Y-81078604D01*
X71121253Y-81135192D01*
X71218629Y-81181492D01*
X71320311Y-81217502D01*
X71426297Y-81243224D01*
X71536588Y-81258657D01*
X71651183Y-81263802D01*
X71765779Y-81258657D01*
X71876070Y-81243224D01*
X71982056Y-81217502D01*
X72083737Y-81181492D01*
X72181114Y-81135192D01*
X72274186Y-81078604D01*
X72362953Y-81011728D01*
X72447415Y-80934562D01*
X72524580Y-80850100D01*
X72591457Y-80761333D01*
X72648045Y-80668261D01*
X72694345Y-80570885D01*
X72730355Y-80469203D01*
X72756077Y-80363217D01*
X72771510Y-80252926D01*
X72776654Y-80138330D01*
X73325712Y-80138330D01*
X73330857Y-80252926D01*
X73346290Y-80363217D01*
X73372012Y-80469203D01*
X73408022Y-80570885D01*
X73454321Y-80668261D01*
X73510909Y-80761333D01*
X73577786Y-80850100D01*
X73654952Y-80934562D01*
X73739414Y-81011728D01*
X73828181Y-81078604D01*
X73921253Y-81135192D01*
X74018629Y-81181492D01*
X74120311Y-81217502D01*
X74226297Y-81243224D01*
X74336588Y-81258657D01*
X74451183Y-81263802D01*
X74565779Y-81258657D01*
X74676070Y-81243224D01*
X74782056Y-81217502D01*
X74883737Y-81181492D01*
X74981114Y-81135192D01*
X75074186Y-81078604D01*
X75162953Y-81011728D01*
X75247415Y-80934562D01*
X75324580Y-80850100D01*
X75391457Y-80761333D01*
X75448045Y-80668261D01*
X75494345Y-80570885D01*
X75530355Y-80469203D01*
X75556077Y-80363217D01*
X75571510Y-80252926D01*
X75576654Y-80138330D01*
X75576654Y-79201415D01*
X76125712Y-79201415D01*
X77155440Y-79201415D01*
X77155440Y-81263802D01*
X77346926Y-81263802D01*
X77346926Y-79201415D01*
X78376654Y-79201415D01*
X78376654Y-79012859D01*
X76125712Y-79012859D01*
X76125712Y-79201415D01*
X75576654Y-79201415D01*
X75576654Y-79012859D01*
X75388099Y-79012859D01*
X75388099Y-80138330D01*
X75386137Y-80201025D01*
X75373264Y-80308021D01*
X75348377Y-80411558D01*
X75311475Y-80511636D01*
X75262558Y-80608254D01*
X75229860Y-80660934D01*
X75165733Y-80746292D01*
X75092817Y-80822955D01*
X75011112Y-80890922D01*
X74920618Y-80950194D01*
X74865946Y-80979503D01*
X74767515Y-81021390D01*
X74665577Y-81051310D01*
X74560133Y-81069262D01*
X74451183Y-81075246D01*
X74388489Y-81073292D01*
X74281493Y-81060469D01*
X74177956Y-81035679D01*
X74077878Y-80998920D01*
X73981260Y-80950194D01*
X73928580Y-80917389D01*
X73843222Y-80853148D01*
X73766559Y-80780212D01*
X73698592Y-80698581D01*
X73639320Y-80608254D01*
X73610011Y-80553467D01*
X73568123Y-80454872D01*
X73538204Y-80352818D01*
X73520252Y-80247304D01*
X73514268Y-80138330D01*
X73514268Y-79012859D01*
X73325712Y-79012859D01*
X73325712Y-80138330D01*
X72776654Y-80138330D01*
X72771510Y-80023735D01*
X72756077Y-79913444D01*
X72730355Y-79807458D01*
X72694345Y-79705776D01*
X72648045Y-79608400D01*
X72591457Y-79515328D01*
X72524580Y-79426561D01*
X72447415Y-79342099D01*
X72362953Y-79264933D01*
X72274186Y-79198057D01*
X72181114Y-79141469D01*
X72083737Y-79095169D01*
X71982056Y-79059159D01*
X71876070Y-79033437D01*
X71765779Y-79018004D01*
X71651183Y-79012859D01*
X71536588Y-79018004D01*
X71426297Y-79033437D01*
X71320311Y-79059159D01*
X71218629Y-79095169D01*
X71121253Y-79141469D01*
X71028181Y-79198057D01*
X70939414Y-79264933D01*
X70854952Y-79342099D01*
X70777786Y-79426561D01*
X70710909Y-79515328D01*
X70654321Y-79608400D01*
X70608022Y-79705776D01*
X70572012Y-79807458D01*
X70546290Y-79913444D01*
X70530857Y-80023735D01*
X70525712Y-80138330D01*
X70303490Y-80138330D01*
X70303490Y-78790637D01*
X78598876Y-78790637D01*
X78598876Y-81486024D01*
G37*
G36*
X71688870Y-91903376D02*
G01*
X71795816Y-91916249D01*
X71899256Y-91941137D01*
X71999190Y-91978039D01*
X72095618Y-92026956D01*
X72148405Y-92059654D01*
X72233877Y-92123781D01*
X72310559Y-92196697D01*
X72378453Y-92278402D01*
X72437558Y-92368896D01*
X72466982Y-92423568D01*
X72509033Y-92521999D01*
X72539070Y-92623937D01*
X72557092Y-92729381D01*
X72563099Y-92838330D01*
X72561137Y-92901025D01*
X72548264Y-93008021D01*
X72523377Y-93111558D01*
X72486475Y-93211636D01*
X72437558Y-93308254D01*
X72404860Y-93360934D01*
X72340733Y-93446292D01*
X72267817Y-93522955D01*
X72186112Y-93590922D01*
X72095618Y-93650194D01*
X72040946Y-93679503D01*
X71942515Y-93721390D01*
X71840577Y-93751310D01*
X71735133Y-93769262D01*
X71626183Y-93775246D01*
X71563489Y-93773292D01*
X71456493Y-93760469D01*
X71352956Y-93735679D01*
X71252878Y-93698920D01*
X71156260Y-93650194D01*
X71103580Y-93617389D01*
X71018222Y-93553148D01*
X70941559Y-93480212D01*
X70873592Y-93398581D01*
X70814320Y-93308254D01*
X70785011Y-93253467D01*
X70743123Y-93154872D01*
X70713204Y-93052818D01*
X70695252Y-92947304D01*
X70689268Y-92838330D01*
X70691222Y-92775644D01*
X70704044Y-92668698D01*
X70728835Y-92565257D01*
X70765594Y-92465323D01*
X70814320Y-92368896D01*
X70847125Y-92316109D01*
X70911366Y-92230637D01*
X70984302Y-92153954D01*
X71065933Y-92086061D01*
X71156260Y-92026956D01*
X71211047Y-91997532D01*
X71309642Y-91955481D01*
X71411696Y-91925444D01*
X71517210Y-91907422D01*
X71626183Y-91901415D01*
X71688870Y-91903376D01*
G37*
G36*
X78573876Y-94186024D02*
G01*
X70278490Y-94186024D01*
X70278490Y-92838330D01*
X70500712Y-92838330D01*
X70505857Y-92952926D01*
X70521290Y-93063217D01*
X70547012Y-93169203D01*
X70583022Y-93270885D01*
X70629321Y-93368261D01*
X70685909Y-93461333D01*
X70752786Y-93550100D01*
X70829952Y-93634562D01*
X70914414Y-93711728D01*
X71003181Y-93778604D01*
X71096253Y-93835192D01*
X71193629Y-93881492D01*
X71295311Y-93917502D01*
X71401297Y-93943224D01*
X71511588Y-93958657D01*
X71626183Y-93963802D01*
X71740779Y-93958657D01*
X71851070Y-93943224D01*
X71957056Y-93917502D01*
X72058737Y-93881492D01*
X72156114Y-93835192D01*
X72249186Y-93778604D01*
X72337953Y-93711728D01*
X72422415Y-93634562D01*
X72499580Y-93550100D01*
X72566457Y-93461333D01*
X72623045Y-93368261D01*
X72669345Y-93270885D01*
X72705355Y-93169203D01*
X72731077Y-93063217D01*
X72746510Y-92952926D01*
X72751654Y-92838330D01*
X73300712Y-92838330D01*
X73305857Y-92952926D01*
X73321290Y-93063217D01*
X73347012Y-93169203D01*
X73383022Y-93270885D01*
X73429321Y-93368261D01*
X73485909Y-93461333D01*
X73552786Y-93550100D01*
X73629952Y-93634562D01*
X73714414Y-93711728D01*
X73803181Y-93778604D01*
X73896253Y-93835192D01*
X73993629Y-93881492D01*
X74095311Y-93917502D01*
X74201297Y-93943224D01*
X74311588Y-93958657D01*
X74426183Y-93963802D01*
X74540779Y-93958657D01*
X74651070Y-93943224D01*
X74757056Y-93917502D01*
X74858737Y-93881492D01*
X74956114Y-93835192D01*
X75049186Y-93778604D01*
X75137953Y-93711728D01*
X75222415Y-93634562D01*
X75299580Y-93550100D01*
X75366457Y-93461333D01*
X75423045Y-93368261D01*
X75469345Y-93270885D01*
X75505355Y-93169203D01*
X75531077Y-93063217D01*
X75546510Y-92952926D01*
X75551654Y-92838330D01*
X75551654Y-91901415D01*
X76100712Y-91901415D01*
X77130440Y-91901415D01*
X77130440Y-93963802D01*
X77321926Y-93963802D01*
X77321926Y-91901415D01*
X78351654Y-91901415D01*
X78351654Y-91712859D01*
X76100712Y-91712859D01*
X76100712Y-91901415D01*
X75551654Y-91901415D01*
X75551654Y-91712859D01*
X75363099Y-91712859D01*
X75363099Y-92838330D01*
X75361137Y-92901025D01*
X75348264Y-93008021D01*
X75323377Y-93111558D01*
X75286475Y-93211636D01*
X75237558Y-93308254D01*
X75204860Y-93360934D01*
X75140733Y-93446292D01*
X75067817Y-93522955D01*
X74986112Y-93590922D01*
X74895618Y-93650194D01*
X74840946Y-93679503D01*
X74742515Y-93721390D01*
X74640577Y-93751310D01*
X74535133Y-93769262D01*
X74426183Y-93775246D01*
X74363489Y-93773292D01*
X74256493Y-93760469D01*
X74152956Y-93735679D01*
X74052878Y-93698920D01*
X73956260Y-93650194D01*
X73903580Y-93617389D01*
X73818222Y-93553148D01*
X73741559Y-93480212D01*
X73673592Y-93398581D01*
X73614320Y-93308254D01*
X73585011Y-93253467D01*
X73543123Y-93154872D01*
X73513204Y-93052818D01*
X73495252Y-92947304D01*
X73489268Y-92838330D01*
X73489268Y-91712859D01*
X73300712Y-91712859D01*
X73300712Y-92838330D01*
X72751654Y-92838330D01*
X72746510Y-92723735D01*
X72731077Y-92613444D01*
X72705355Y-92507458D01*
X72669345Y-92405776D01*
X72623045Y-92308400D01*
X72566457Y-92215328D01*
X72499580Y-92126561D01*
X72422415Y-92042099D01*
X72337953Y-91964933D01*
X72249186Y-91898057D01*
X72156114Y-91841469D01*
X72058737Y-91795169D01*
X71957056Y-91759159D01*
X71851070Y-91733437D01*
X71740779Y-91718004D01*
X71626183Y-91712859D01*
X71511588Y-91718004D01*
X71401297Y-91733437D01*
X71295311Y-91759159D01*
X71193629Y-91795169D01*
X71096253Y-91841469D01*
X71003181Y-91898057D01*
X70914414Y-91964933D01*
X70829952Y-92042099D01*
X70752786Y-92126561D01*
X70685909Y-92215328D01*
X70629321Y-92308400D01*
X70583022Y-92405776D01*
X70547012Y-92507458D01*
X70521290Y-92613444D01*
X70505857Y-92723735D01*
X70500712Y-92838330D01*
X70278490Y-92838330D01*
X70278490Y-91490637D01*
X78573876Y-91490637D01*
X78573876Y-94186024D01*
G37*
G36*
X62326370Y-91903376D02*
G01*
X62433316Y-91916249D01*
X62536756Y-91941137D01*
X62636690Y-91978039D01*
X62733118Y-92026956D01*
X62785905Y-92059654D01*
X62871377Y-92123781D01*
X62948059Y-92196697D01*
X63015953Y-92278402D01*
X63075058Y-92368896D01*
X63104482Y-92423568D01*
X63146533Y-92521999D01*
X63176570Y-92623937D01*
X63194592Y-92729381D01*
X63200599Y-92838330D01*
X63198637Y-92901025D01*
X63185764Y-93008021D01*
X63160877Y-93111558D01*
X63123975Y-93211636D01*
X63075058Y-93308254D01*
X63042360Y-93360934D01*
X62978233Y-93446292D01*
X62905317Y-93522955D01*
X62823612Y-93590922D01*
X62733118Y-93650194D01*
X62678446Y-93679503D01*
X62580015Y-93721390D01*
X62478077Y-93751310D01*
X62372633Y-93769262D01*
X62263683Y-93775246D01*
X62200989Y-93773292D01*
X62093993Y-93760469D01*
X61990456Y-93735679D01*
X61890378Y-93698920D01*
X61793760Y-93650194D01*
X61741080Y-93617389D01*
X61655722Y-93553148D01*
X61579059Y-93480212D01*
X61511092Y-93398581D01*
X61451820Y-93308254D01*
X61422511Y-93253467D01*
X61380623Y-93154872D01*
X61350704Y-93052818D01*
X61332752Y-92947304D01*
X61326768Y-92838330D01*
X61328722Y-92775644D01*
X61341544Y-92668698D01*
X61366335Y-92565257D01*
X61403094Y-92465323D01*
X61451820Y-92368896D01*
X61484625Y-92316109D01*
X61548866Y-92230637D01*
X61621802Y-92153954D01*
X61703433Y-92086061D01*
X61793760Y-92026956D01*
X61848547Y-91997532D01*
X61947142Y-91955481D01*
X62049196Y-91925444D01*
X62154710Y-91907422D01*
X62263683Y-91901415D01*
X62326370Y-91903376D01*
G37*
G36*
X69211376Y-94186024D02*
G01*
X60915990Y-94186024D01*
X60915990Y-92838330D01*
X61138212Y-92838330D01*
X61143357Y-92952926D01*
X61158790Y-93063217D01*
X61184512Y-93169203D01*
X61220522Y-93270885D01*
X61266821Y-93368261D01*
X61323409Y-93461333D01*
X61390286Y-93550100D01*
X61467452Y-93634562D01*
X61551914Y-93711728D01*
X61640681Y-93778604D01*
X61733753Y-93835192D01*
X61831129Y-93881492D01*
X61932811Y-93917502D01*
X62038797Y-93943224D01*
X62149088Y-93958657D01*
X62263683Y-93963802D01*
X62378279Y-93958657D01*
X62488570Y-93943224D01*
X62594556Y-93917502D01*
X62696237Y-93881492D01*
X62793614Y-93835192D01*
X62886686Y-93778604D01*
X62975453Y-93711728D01*
X63059915Y-93634562D01*
X63137080Y-93550100D01*
X63203957Y-93461333D01*
X63260545Y-93368261D01*
X63306845Y-93270885D01*
X63342855Y-93169203D01*
X63368577Y-93063217D01*
X63384010Y-92952926D01*
X63389154Y-92838330D01*
X63938212Y-92838330D01*
X63943357Y-92952926D01*
X63958790Y-93063217D01*
X63984512Y-93169203D01*
X64020522Y-93270885D01*
X64066821Y-93368261D01*
X64123409Y-93461333D01*
X64190286Y-93550100D01*
X64267452Y-93634562D01*
X64351914Y-93711728D01*
X64440681Y-93778604D01*
X64533753Y-93835192D01*
X64631129Y-93881492D01*
X64732811Y-93917502D01*
X64838797Y-93943224D01*
X64949088Y-93958657D01*
X65063683Y-93963802D01*
X65178279Y-93958657D01*
X65288570Y-93943224D01*
X65394556Y-93917502D01*
X65496237Y-93881492D01*
X65593614Y-93835192D01*
X65686686Y-93778604D01*
X65775453Y-93711728D01*
X65859915Y-93634562D01*
X65937080Y-93550100D01*
X66003957Y-93461333D01*
X66060545Y-93368261D01*
X66106845Y-93270885D01*
X66142855Y-93169203D01*
X66168577Y-93063217D01*
X66184010Y-92952926D01*
X66189154Y-92838330D01*
X66189154Y-91901415D01*
X66738212Y-91901415D01*
X67767940Y-91901415D01*
X67767940Y-93963802D01*
X67959426Y-93963802D01*
X67959426Y-91901415D01*
X68989154Y-91901415D01*
X68989154Y-91712859D01*
X66738212Y-91712859D01*
X66738212Y-91901415D01*
X66189154Y-91901415D01*
X66189154Y-91712859D01*
X66000599Y-91712859D01*
X66000599Y-92838330D01*
X65998637Y-92901025D01*
X65985764Y-93008021D01*
X65960877Y-93111558D01*
X65923975Y-93211636D01*
X65875058Y-93308254D01*
X65842360Y-93360934D01*
X65778233Y-93446292D01*
X65705317Y-93522955D01*
X65623612Y-93590922D01*
X65533118Y-93650194D01*
X65478446Y-93679503D01*
X65380015Y-93721390D01*
X65278077Y-93751310D01*
X65172633Y-93769262D01*
X65063683Y-93775246D01*
X65000989Y-93773292D01*
X64893993Y-93760469D01*
X64790456Y-93735679D01*
X64690378Y-93698920D01*
X64593760Y-93650194D01*
X64541080Y-93617389D01*
X64455722Y-93553148D01*
X64379059Y-93480212D01*
X64311092Y-93398581D01*
X64251820Y-93308254D01*
X64222511Y-93253467D01*
X64180623Y-93154872D01*
X64150704Y-93052818D01*
X64132752Y-92947304D01*
X64126768Y-92838330D01*
X64126768Y-91712859D01*
X63938212Y-91712859D01*
X63938212Y-92838330D01*
X63389154Y-92838330D01*
X63384010Y-92723735D01*
X63368577Y-92613444D01*
X63342855Y-92507458D01*
X63306845Y-92405776D01*
X63260545Y-92308400D01*
X63203957Y-92215328D01*
X63137080Y-92126561D01*
X63059915Y-92042099D01*
X62975453Y-91964933D01*
X62886686Y-91898057D01*
X62793614Y-91841469D01*
X62696237Y-91795169D01*
X62594556Y-91759159D01*
X62488570Y-91733437D01*
X62378279Y-91718004D01*
X62263683Y-91712859D01*
X62149088Y-91718004D01*
X62038797Y-91733437D01*
X61932811Y-91759159D01*
X61831129Y-91795169D01*
X61733753Y-91841469D01*
X61640681Y-91898057D01*
X61551914Y-91964933D01*
X61467452Y-92042099D01*
X61390286Y-92126561D01*
X61323409Y-92215328D01*
X61266821Y-92308400D01*
X61220522Y-92405776D01*
X61184512Y-92507458D01*
X61158790Y-92613444D01*
X61143357Y-92723735D01*
X61138212Y-92838330D01*
X60915990Y-92838330D01*
X60915990Y-91490637D01*
X69211376Y-91490637D01*
X69211376Y-94186024D01*
G37*
D10*
G36*
X63590009Y-81263802D02*
G01*
X63590009Y-79012859D01*
X63778565Y-79012859D01*
X63778565Y-81263802D01*
X63590009Y-81263802D01*
G37*
G36*
X64665655Y-79342099D02*
G01*
X64750117Y-79264933D01*
X64838884Y-79198057D01*
X64931956Y-79141469D01*
X65029332Y-79095169D01*
X65131014Y-79059159D01*
X65237000Y-79033437D01*
X65347291Y-79018004D01*
X65461886Y-79012859D01*
X65576482Y-79018004D01*
X65686773Y-79033437D01*
X65792759Y-79059159D01*
X65894441Y-79095169D01*
X65991817Y-79141469D01*
X66084889Y-79198057D01*
X66173656Y-79264933D01*
X66258118Y-79342099D01*
X66335284Y-79426561D01*
X66402160Y-79515328D01*
X66458748Y-79608400D01*
X66505048Y-79705776D01*
X66541058Y-79807458D01*
X66566780Y-79913444D01*
X66582213Y-80023735D01*
X66587357Y-80138330D01*
X66587357Y-81263802D01*
X66398802Y-81263802D01*
X66398802Y-80138330D01*
X66392795Y-80029381D01*
X66374773Y-79923937D01*
X66344736Y-79821999D01*
X66302685Y-79723568D01*
X66273261Y-79668896D01*
X66214156Y-79578402D01*
X66146263Y-79496697D01*
X66069580Y-79423781D01*
X65984108Y-79359654D01*
X65931321Y-79326956D01*
X65834893Y-79278039D01*
X65734959Y-79241137D01*
X65631519Y-79216249D01*
X65524573Y-79203376D01*
X65461886Y-79201415D01*
X65352913Y-79207422D01*
X65247399Y-79225444D01*
X65145345Y-79255481D01*
X65046750Y-79297532D01*
X64991963Y-79326956D01*
X64901636Y-79386061D01*
X64820005Y-79453954D01*
X64747069Y-79530637D01*
X64682828Y-79616109D01*
X64650023Y-79668896D01*
X64601297Y-79765323D01*
X64564538Y-79865257D01*
X64539748Y-79968698D01*
X64526925Y-80075644D01*
X64524971Y-80138330D01*
X64524971Y-81263802D01*
X64336415Y-81263802D01*
X64336415Y-80138330D01*
X64341560Y-80023735D01*
X64356993Y-79913444D01*
X64382715Y-79807458D01*
X64418725Y-79705776D01*
X64465025Y-79608400D01*
X64521613Y-79515328D01*
X64588489Y-79426561D01*
X64665655Y-79342099D01*
G37*
D12*
X59590000Y-51250000D02*
X59590000Y-163750000D01*
X79910000Y-51250000D02*
X79910000Y-163750000D01*
D13*
X59590000Y-51250000D02*
X79910000Y-51250000D01*
X59590000Y-163750000D02*
X79910000Y-163750000D01*
M02*
