%TF.GenerationSoftware,KiCad,Pcbnew,8.0.0*%
%TF.CreationDate,2024-06-15T01:20:11+02:00*%
%TF.ProjectId,feitw_panel,66656974-775f-4706-916e-656c2e6b6963,rev?*%
%TF.SameCoordinates,Original*%
%TF.FileFunction,Legend,Top*%
%TF.FilePolarity,Positive*%
%FSLAX46Y46*%
G04 Gerber Fmt 4.6, Leading zero omitted, Abs format (unit mm)*
G04 Created by KiCad (PCBNEW 8.0.0) date 2024-06-15 01:20:11*
%MOMM*%
%LPD*%
G01*
G04 APERTURE LIST*
%ADD10C,0.100000*%
G04 APERTURE END LIST*
D10*
X134148749Y-62752165D02*
G75*
G02*
X122600000Y-62750000I-5772500J9999999D01*
G01*
X122598749Y-62752166D02*
G75*
G02*
X134148749Y-62752166I5775000J-10000000D01*
G01*
X134035000Y-122749999D02*
G75*
G02*
X122485000Y-122749999I-5775000J10000000D01*
G01*
X122485000Y-122750000D02*
G75*
G02*
X134033749Y-122752165I5772500J-10000000D01*
G01*
X122588751Y-42747836D02*
G75*
G02*
X134138751Y-42747836I5775000J-10000000D01*
G01*
X134138751Y-42747835D02*
G75*
G02*
X122590002Y-42745670I-5772500J10000000D01*
G01*
X116825000Y-52750001D02*
G75*
G02*
X128375000Y-52750001I5775000J-10000000D01*
G01*
X128375000Y-52750000D02*
G75*
G02*
X116826251Y-52747835I-5772500J10000000D01*
G01*
X128362500Y-52750001D02*
G75*
G02*
X139912500Y-52750001I5775000J-10000000D01*
G01*
X139912500Y-52750000D02*
G75*
G02*
X128363751Y-52747835I-5772500J10000000D01*
G01*
X140110000Y-112750000D02*
X116410000Y-112750000D01*
X128360000Y-72750001D02*
G75*
G02*
X139910000Y-72750001I5775000J-10000000D01*
G01*
X139910000Y-72750000D02*
G75*
G02*
X128361251Y-72747835I-5772500J10000000D01*
G01*
X116811251Y-72747836D02*
G75*
G02*
X128361251Y-72747836I5775000J-10000000D01*
G01*
X128361251Y-72747835D02*
G75*
G02*
X116812502Y-72745670I-5772500J10000000D01*
G01*
X116812498Y-92752166D02*
G75*
G02*
X128362498Y-92752166I5775000J-10000000D01*
G01*
X128362498Y-92752165D02*
G75*
G02*
X116813749Y-92750000I-5772500J10000000D01*
G01*
X128362498Y-92752166D02*
G75*
G02*
X139912498Y-92752166I5775000J-10000000D01*
G01*
X139912498Y-92752165D02*
G75*
G02*
X128363749Y-92750000I-5772500J10000000D01*
G01*
X122587498Y-102752166D02*
G75*
G02*
X134137498Y-102752166I5775000J-10000000D01*
G01*
X134137498Y-102752165D02*
G75*
G02*
X122588749Y-102750000I-5772500J9999999D01*
G01*
X134135000Y-82750000D02*
G75*
G02*
X122586251Y-82747835I-5772500J10000000D01*
G01*
X122585000Y-82750000D02*
G75*
G02*
X134135000Y-82750000I5775000J-10000000D01*
G01*
X116810000Y-92750000D02*
X134035000Y-122750000D01*
X139910000Y-92750000D02*
X122485000Y-122750000D01*
X128360000Y-72750000D02*
X139910000Y-92750000D01*
X128360000Y-72750000D02*
X116810000Y-92750000D01*
X128360000Y-72750000D02*
X116485000Y-52150000D01*
X128360000Y-72750000D02*
X140135000Y-52325000D01*
X116825000Y-72750000D02*
X140175000Y-113225000D01*
X139900000Y-72750000D02*
X116700000Y-112950000D01*
X128375000Y-52750000D02*
X116825000Y-72750000D01*
X128375000Y-52750000D02*
X139900000Y-72750000D01*
X128375000Y-52750000D02*
X122590002Y-42745670D01*
X128375000Y-52750000D02*
X134138751Y-42747835D01*
G36*
X120269862Y-138592843D02*
G01*
X120325783Y-138601333D01*
X120379744Y-138615137D01*
X120431464Y-138633975D01*
X120480663Y-138657565D01*
X120527060Y-138685623D01*
X120570372Y-138717869D01*
X120610319Y-138754021D01*
X120646619Y-138793796D01*
X120678992Y-138836913D01*
X120707156Y-138883089D01*
X120730830Y-138932043D01*
X120749732Y-138983493D01*
X120763582Y-139037157D01*
X120772098Y-139092753D01*
X120775000Y-139150000D01*
X120772098Y-139207286D01*
X120763582Y-139262912D01*
X120749732Y-139316596D01*
X120730830Y-139368059D01*
X120707156Y-139417018D01*
X120678992Y-139463194D01*
X120646619Y-139506305D01*
X120610319Y-139546070D01*
X120570372Y-139582209D01*
X120527060Y-139614440D01*
X120480663Y-139642484D01*
X120431464Y-139666058D01*
X120379744Y-139684882D01*
X120325783Y-139698676D01*
X120269862Y-139707159D01*
X120212264Y-139710048D01*
X120154709Y-139707159D01*
X120098826Y-139698676D01*
X120044898Y-139684882D01*
X119993205Y-139666058D01*
X119944029Y-139642484D01*
X119897653Y-139614440D01*
X119854357Y-139582209D01*
X119814423Y-139546070D01*
X119778133Y-139506305D01*
X119745767Y-139463194D01*
X119717609Y-139417018D01*
X119693939Y-139368059D01*
X119675038Y-139316596D01*
X119661190Y-139262912D01*
X119652674Y-139207286D01*
X119649773Y-139150000D01*
X119743562Y-139150000D01*
X119745987Y-139197576D01*
X119758346Y-139266321D01*
X119780458Y-139331212D01*
X119811522Y-139391455D01*
X119850735Y-139446250D01*
X119897297Y-139494802D01*
X119950405Y-139536313D01*
X120009258Y-139569987D01*
X120073053Y-139595027D01*
X120140989Y-139610635D01*
X120212264Y-139616015D01*
X120260155Y-139613604D01*
X120329348Y-139601317D01*
X120394656Y-139579333D01*
X120455279Y-139548448D01*
X120510417Y-139509461D01*
X120559268Y-139463167D01*
X120601032Y-139410364D01*
X120634909Y-139351849D01*
X120660098Y-139288419D01*
X120675799Y-139220870D01*
X120681210Y-139150000D01*
X120678785Y-139102423D01*
X120666426Y-139033678D01*
X120644310Y-138968787D01*
X120613241Y-138908544D01*
X120574016Y-138853749D01*
X120527438Y-138805197D01*
X120474307Y-138763686D01*
X120415424Y-138730012D01*
X120351588Y-138704972D01*
X120283602Y-138689364D01*
X120212264Y-138683984D01*
X120164416Y-138686395D01*
X120095278Y-138698682D01*
X120030013Y-138720666D01*
X119969424Y-138751551D01*
X119914312Y-138790538D01*
X119865479Y-138836832D01*
X119823727Y-138889635D01*
X119789857Y-138948150D01*
X119764672Y-139011580D01*
X119748973Y-139079129D01*
X119743562Y-139150000D01*
X119649773Y-139150000D01*
X119652674Y-139092753D01*
X119661190Y-139037157D01*
X119675038Y-138983493D01*
X119693939Y-138932043D01*
X119717609Y-138883089D01*
X119745767Y-138836913D01*
X119778133Y-138793796D01*
X119814423Y-138754021D01*
X119854357Y-138717869D01*
X119897653Y-138685623D01*
X119944029Y-138657565D01*
X119993205Y-138633975D01*
X120044898Y-138615137D01*
X120098826Y-138601333D01*
X120154709Y-138592843D01*
X120212264Y-138589951D01*
X120269862Y-138592843D01*
G37*
G36*
X120212508Y-137283984D02*
G01*
X120283783Y-137289364D01*
X120351719Y-137304972D01*
X120415515Y-137330012D01*
X120474367Y-137363686D01*
X120527475Y-137405197D01*
X120574037Y-137453749D01*
X120613250Y-137508544D01*
X120644314Y-137568787D01*
X120666427Y-137633678D01*
X120678785Y-137702423D01*
X120681210Y-137750000D01*
X120675799Y-137820870D01*
X120660100Y-137888419D01*
X120634915Y-137951849D01*
X120601045Y-138010364D01*
X120559293Y-138063167D01*
X120510460Y-138109461D01*
X120455348Y-138148448D01*
X120394759Y-138179333D01*
X120329495Y-138201317D01*
X120260356Y-138213604D01*
X120212508Y-138216015D01*
X119649528Y-138216015D01*
X119649528Y-138310048D01*
X120212508Y-138310048D01*
X120270063Y-138307159D01*
X120325946Y-138298676D01*
X120379875Y-138284882D01*
X120431567Y-138266058D01*
X120480743Y-138242484D01*
X120527119Y-138214440D01*
X120570415Y-138182209D01*
X120610349Y-138146070D01*
X120646640Y-138106305D01*
X120679005Y-138063194D01*
X120707163Y-138017018D01*
X120730834Y-137968059D01*
X120749734Y-137916596D01*
X120763583Y-137862912D01*
X120772098Y-137807286D01*
X120775000Y-137750000D01*
X120772098Y-137692753D01*
X120763583Y-137637157D01*
X120749734Y-137583493D01*
X120730834Y-137532043D01*
X120707163Y-137483089D01*
X120679005Y-137436913D01*
X120646640Y-137393796D01*
X120610349Y-137354021D01*
X120570415Y-137317869D01*
X120527119Y-137285623D01*
X120480743Y-137257565D01*
X120431567Y-137233975D01*
X120379875Y-137215137D01*
X120325946Y-137201333D01*
X120270063Y-137192843D01*
X120212508Y-137189951D01*
X119649528Y-137189951D01*
X119649528Y-137283984D01*
X120212508Y-137283984D01*
G37*
G36*
X119743562Y-136910048D02*
G01*
X119743562Y-136397138D01*
X120775000Y-136397138D01*
X120775000Y-136303105D01*
X119743562Y-136303105D01*
X119743562Y-135789951D01*
X119649773Y-135789951D01*
X119649773Y-136910048D01*
X119743562Y-136910048D01*
G37*
G36*
X119743562Y-132090438D02*
G01*
X119743562Y-131577528D01*
X120775000Y-131577528D01*
X120775000Y-131483495D01*
X119743562Y-131483495D01*
X119743562Y-130970341D01*
X119649773Y-130970341D01*
X119649773Y-132090438D01*
X119743562Y-132090438D01*
G37*
G36*
X120775000Y-129664374D02*
G01*
X120469940Y-129664374D01*
X120448457Y-129665458D01*
X120397655Y-129677111D01*
X120352342Y-129700206D01*
X120314188Y-129733078D01*
X120284866Y-129774059D01*
X120266047Y-129821486D01*
X120259403Y-129873690D01*
X120259403Y-130596405D01*
X120775000Y-130596405D01*
X120775000Y-130690438D01*
X119649773Y-130690438D01*
X119649773Y-130596649D01*
X119743562Y-130596649D01*
X120165369Y-130596649D01*
X120165369Y-129873690D01*
X120164237Y-129852342D01*
X120152437Y-129801848D01*
X120129159Y-129756800D01*
X120096070Y-129718863D01*
X120054834Y-129689702D01*
X120007118Y-129670984D01*
X119954588Y-129664374D01*
X119933059Y-129665458D01*
X119882145Y-129677114D01*
X119836727Y-129700219D01*
X119798483Y-129733114D01*
X119769089Y-129774139D01*
X119750223Y-129821632D01*
X119743562Y-129873935D01*
X119743562Y-130596649D01*
X119649773Y-130596649D01*
X119649773Y-129873935D01*
X119655948Y-129812784D01*
X119673667Y-129755813D01*
X119701718Y-129704245D01*
X119738891Y-129659306D01*
X119783975Y-129622221D01*
X119835760Y-129594215D01*
X119893034Y-129576514D01*
X119954588Y-129570341D01*
X119984779Y-129571812D01*
X120033146Y-129580526D01*
X120087175Y-129600526D01*
X120135778Y-129629887D01*
X120177845Y-129667497D01*
X120212264Y-129712246D01*
X120228448Y-129689048D01*
X120266830Y-129647730D01*
X120312304Y-129614106D01*
X120363759Y-129589287D01*
X120420084Y-129574384D01*
X120469940Y-129570341D01*
X120775000Y-129570341D01*
X120775000Y-129664374D01*
G37*
G36*
X119743562Y-129008826D02*
G01*
X119649773Y-129008826D01*
X119649773Y-129290927D01*
X119743562Y-129290927D01*
X119743562Y-129196893D01*
X120681210Y-129196893D01*
X120681210Y-129290927D01*
X120775000Y-129290927D01*
X120775000Y-129008826D01*
X120681210Y-129008826D01*
X120681210Y-129102860D01*
X119743562Y-129102860D01*
X119743562Y-129008826D01*
G37*
G36*
X120212264Y-128729657D02*
G01*
X120269862Y-128726767D01*
X120325783Y-128718285D01*
X120379744Y-128704491D01*
X120431464Y-128685666D01*
X120480663Y-128662092D01*
X120527060Y-128634049D01*
X120570372Y-128601817D01*
X120610319Y-128565678D01*
X120646619Y-128525913D01*
X120678992Y-128482802D01*
X120707156Y-128436627D01*
X120730830Y-128387667D01*
X120749732Y-128336205D01*
X120763582Y-128282520D01*
X120772098Y-128226894D01*
X120775000Y-128169608D01*
X120775000Y-127609559D01*
X120165369Y-127609559D01*
X120165369Y-128010850D01*
X120259403Y-128010850D01*
X120259403Y-127703593D01*
X120681210Y-127703593D01*
X120681210Y-128169608D01*
X120675793Y-128240478D01*
X120660077Y-128308027D01*
X120634868Y-128371458D01*
X120600968Y-128429973D01*
X120559182Y-128482776D01*
X120510315Y-128529069D01*
X120455171Y-128568057D01*
X120394553Y-128598941D01*
X120329266Y-128620925D01*
X120260115Y-128633213D01*
X120212264Y-128635623D01*
X120141051Y-128630243D01*
X120073166Y-128614635D01*
X120009411Y-128589596D01*
X119950590Y-128555922D01*
X119897505Y-128514410D01*
X119850959Y-128465859D01*
X119811756Y-128411063D01*
X119780698Y-128350821D01*
X119758589Y-128285929D01*
X119746231Y-128217184D01*
X119743806Y-128169608D01*
X119743806Y-127609559D01*
X119649773Y-127609559D01*
X119649773Y-128169608D01*
X119652674Y-128226894D01*
X119661190Y-128282520D01*
X119675038Y-128336205D01*
X119693939Y-128387667D01*
X119717609Y-128436627D01*
X119745767Y-128482802D01*
X119778133Y-128525913D01*
X119814423Y-128565678D01*
X119854357Y-128601817D01*
X119897653Y-128634049D01*
X119944029Y-128662092D01*
X119993205Y-128685666D01*
X120044898Y-128704491D01*
X120098826Y-128718285D01*
X120154709Y-128726767D01*
X120212264Y-128729657D01*
G37*
G36*
X120212264Y-127329657D02*
G01*
X120269862Y-127326767D01*
X120325783Y-127318285D01*
X120379744Y-127304491D01*
X120431464Y-127285666D01*
X120480663Y-127262092D01*
X120527060Y-127234049D01*
X120570372Y-127201817D01*
X120610319Y-127165678D01*
X120646619Y-127125913D01*
X120678992Y-127082802D01*
X120707156Y-127036627D01*
X120730830Y-126987667D01*
X120749732Y-126936205D01*
X120763582Y-126882520D01*
X120772098Y-126826894D01*
X120775000Y-126769608D01*
X120775000Y-126209559D01*
X120165369Y-126209559D01*
X120165369Y-126610850D01*
X120259403Y-126610850D01*
X120259403Y-126303593D01*
X120681210Y-126303593D01*
X120681210Y-126769608D01*
X120675793Y-126840478D01*
X120660077Y-126908027D01*
X120634868Y-126971458D01*
X120600968Y-127029973D01*
X120559182Y-127082776D01*
X120510315Y-127129069D01*
X120455171Y-127168057D01*
X120394553Y-127198941D01*
X120329266Y-127220925D01*
X120260115Y-127233213D01*
X120212264Y-127235623D01*
X120141051Y-127230243D01*
X120073166Y-127214635D01*
X120009411Y-127189596D01*
X119950590Y-127155922D01*
X119897505Y-127114410D01*
X119850959Y-127065859D01*
X119811756Y-127011063D01*
X119780698Y-126950821D01*
X119758589Y-126885929D01*
X119746231Y-126817184D01*
X119743806Y-126769608D01*
X119743806Y-126209559D01*
X119649773Y-126209559D01*
X119649773Y-126769608D01*
X119652674Y-126826894D01*
X119661190Y-126882520D01*
X119675038Y-126936205D01*
X119693939Y-126987667D01*
X119717609Y-127036627D01*
X119745767Y-127082802D01*
X119778133Y-127125913D01*
X119814423Y-127165678D01*
X119854357Y-127201817D01*
X119897653Y-127234049D01*
X119944029Y-127262092D01*
X119993205Y-127285666D01*
X120044898Y-127304491D01*
X120098826Y-127318285D01*
X120154709Y-127326767D01*
X120212264Y-127329657D01*
G37*
G36*
X120212264Y-125929657D02*
G01*
X120269862Y-125926767D01*
X120325783Y-125918285D01*
X120379744Y-125904491D01*
X120431464Y-125885666D01*
X120480663Y-125862092D01*
X120527060Y-125834049D01*
X120570372Y-125801817D01*
X120610319Y-125765678D01*
X120646619Y-125725913D01*
X120678992Y-125682802D01*
X120707156Y-125636627D01*
X120730830Y-125587667D01*
X120749732Y-125536205D01*
X120763582Y-125482520D01*
X120772098Y-125426894D01*
X120775000Y-125369608D01*
X120775000Y-124809559D01*
X120681210Y-124809559D01*
X120681210Y-125369608D01*
X120676433Y-125436191D01*
X120662544Y-125499899D01*
X120640207Y-125560073D01*
X120610087Y-125616054D01*
X120572847Y-125667182D01*
X120529152Y-125712799D01*
X120479666Y-125752244D01*
X120425053Y-125784859D01*
X120365977Y-125809984D01*
X120303102Y-125826960D01*
X120259403Y-125833425D01*
X120259403Y-124809559D01*
X120165369Y-124809559D01*
X120165369Y-125833425D01*
X120100337Y-125822248D01*
X120038671Y-125802482D01*
X119981033Y-125774787D01*
X119928086Y-125739822D01*
X119880489Y-125698246D01*
X119838907Y-125650719D01*
X119803999Y-125597900D01*
X119776428Y-125540448D01*
X119756855Y-125479023D01*
X119745943Y-125414283D01*
X119743806Y-125369608D01*
X119743806Y-124809559D01*
X119649773Y-124809559D01*
X119649773Y-125369608D01*
X119652674Y-125426894D01*
X119661190Y-125482520D01*
X119675038Y-125536205D01*
X119693939Y-125587667D01*
X119717609Y-125636627D01*
X119745767Y-125682802D01*
X119778133Y-125725913D01*
X119814423Y-125765678D01*
X119854357Y-125801817D01*
X119897653Y-125834049D01*
X119944029Y-125862092D01*
X119993205Y-125885666D01*
X120044898Y-125904491D01*
X120098826Y-125918285D01*
X120154709Y-125926767D01*
X120212264Y-125929657D01*
G37*
G36*
X120775000Y-123503593D02*
G01*
X120469940Y-123503593D01*
X120448457Y-123504677D01*
X120397655Y-123516330D01*
X120352342Y-123539425D01*
X120314188Y-123572296D01*
X120284866Y-123613278D01*
X120266047Y-123660704D01*
X120259403Y-123712909D01*
X120259403Y-124435623D01*
X120775000Y-124435623D01*
X120775000Y-124529657D01*
X119649773Y-124529657D01*
X119649773Y-124435868D01*
X119743562Y-124435868D01*
X120165369Y-124435868D01*
X120165369Y-123712909D01*
X120164237Y-123691560D01*
X120152437Y-123641067D01*
X120129159Y-123596018D01*
X120096070Y-123558081D01*
X120054834Y-123528920D01*
X120007118Y-123510202D01*
X119954588Y-123503593D01*
X119933059Y-123504677D01*
X119882145Y-123516332D01*
X119836727Y-123539438D01*
X119798483Y-123572333D01*
X119769089Y-123613357D01*
X119750223Y-123660851D01*
X119743562Y-123713153D01*
X119743562Y-124435868D01*
X119649773Y-124435868D01*
X119649773Y-123713153D01*
X119655948Y-123652003D01*
X119673667Y-123595031D01*
X119701718Y-123543463D01*
X119738891Y-123498525D01*
X119783975Y-123461440D01*
X119835760Y-123433434D01*
X119893034Y-123415732D01*
X119954588Y-123409559D01*
X119984779Y-123411030D01*
X120033146Y-123419745D01*
X120087175Y-123439745D01*
X120135778Y-123469105D01*
X120177845Y-123506715D01*
X120212264Y-123551464D01*
X120228448Y-123528267D01*
X120266830Y-123486948D01*
X120312304Y-123453324D01*
X120363759Y-123428505D01*
X120420084Y-123413602D01*
X120469940Y-123409559D01*
X120775000Y-123409559D01*
X120775000Y-123503593D01*
G37*
G36*
X136954588Y-127363572D02*
G01*
X136893034Y-127369745D01*
X136835760Y-127387446D01*
X136783975Y-127415452D01*
X136738891Y-127452537D01*
X136701718Y-127497476D01*
X136673667Y-127549044D01*
X136655948Y-127606015D01*
X136649773Y-127667166D01*
X136649773Y-128483669D01*
X136743562Y-128483669D01*
X136743562Y-127667166D01*
X136750223Y-127614863D01*
X136769089Y-127567370D01*
X136798483Y-127526345D01*
X136836727Y-127493450D01*
X136882145Y-127470345D01*
X136933059Y-127458689D01*
X136954588Y-127457605D01*
X137007118Y-127464215D01*
X137054834Y-127482933D01*
X137096070Y-127512094D01*
X137129159Y-127550031D01*
X137152437Y-127595079D01*
X137164237Y-127645573D01*
X137165369Y-127666921D01*
X137165369Y-128483669D01*
X137775000Y-128483669D01*
X137775000Y-128389636D01*
X137259403Y-128389636D01*
X137259403Y-127666921D01*
X137266047Y-127614717D01*
X137284866Y-127567290D01*
X137314188Y-127526309D01*
X137352342Y-127493437D01*
X137397655Y-127470342D01*
X137448457Y-127458689D01*
X137469940Y-127457605D01*
X137775000Y-127457605D01*
X137775000Y-127363572D01*
X137469940Y-127363572D01*
X137420084Y-127367615D01*
X137363759Y-127382518D01*
X137312304Y-127407337D01*
X137266830Y-127440961D01*
X137228448Y-127482279D01*
X137212264Y-127505477D01*
X137177845Y-127460728D01*
X137135778Y-127423118D01*
X137087175Y-127393757D01*
X137033146Y-127373757D01*
X136984779Y-127365043D01*
X136954588Y-127363572D01*
G37*
G36*
X137212264Y-127083669D02*
G01*
X137269862Y-127080780D01*
X137325783Y-127072297D01*
X137379744Y-127058503D01*
X137431464Y-127039679D01*
X137480663Y-127016105D01*
X137527060Y-126988061D01*
X137570372Y-126955830D01*
X137610319Y-126919691D01*
X137646619Y-126879926D01*
X137678992Y-126836815D01*
X137707156Y-126790639D01*
X137730830Y-126741680D01*
X137749732Y-126690217D01*
X137763582Y-126636533D01*
X137772098Y-126580907D01*
X137775000Y-126523621D01*
X137775000Y-125963572D01*
X137681210Y-125963572D01*
X137681210Y-126523621D01*
X137676433Y-126590203D01*
X137662544Y-126653911D01*
X137640207Y-126714085D01*
X137610087Y-126770066D01*
X137572847Y-126821195D01*
X137529152Y-126866811D01*
X137479666Y-126906257D01*
X137425053Y-126938872D01*
X137365977Y-126963997D01*
X137303102Y-126980973D01*
X137259403Y-126987438D01*
X137259403Y-125963572D01*
X137165369Y-125963572D01*
X137165369Y-126987438D01*
X137100337Y-126976260D01*
X137038671Y-126956495D01*
X136981033Y-126928799D01*
X136928086Y-126893834D01*
X136880489Y-126852259D01*
X136838907Y-126804732D01*
X136803999Y-126751913D01*
X136776428Y-126694461D01*
X136756855Y-126633035D01*
X136745943Y-126568296D01*
X136743806Y-126523621D01*
X136743806Y-125963572D01*
X136649773Y-125963572D01*
X136649773Y-126523621D01*
X136652674Y-126580907D01*
X136661190Y-126636533D01*
X136675038Y-126690217D01*
X136693939Y-126741680D01*
X136717609Y-126790639D01*
X136745767Y-126836815D01*
X136778133Y-126879926D01*
X136814423Y-126919691D01*
X136854357Y-126955830D01*
X136897653Y-126988061D01*
X136944029Y-127016105D01*
X136993205Y-127039679D01*
X137044898Y-127058503D01*
X137098826Y-127072297D01*
X137154709Y-127080780D01*
X137212264Y-127083669D01*
G37*
G36*
X137681210Y-124867166D02*
G01*
X137681210Y-125589636D01*
X136649528Y-125589636D01*
X136649528Y-125683669D01*
X137681210Y-125683669D01*
X137702948Y-125683669D01*
X137775000Y-125683669D01*
X137775000Y-124867166D01*
X137775000Y-124563572D01*
X137681210Y-124563572D01*
X137681210Y-124647835D01*
X137681210Y-124867166D01*
G37*
G36*
X137212264Y-124474179D02*
G01*
X137269862Y-124471289D01*
X137325783Y-124462807D01*
X137379744Y-124449013D01*
X137431464Y-124430188D01*
X137480663Y-124406614D01*
X137527060Y-124378571D01*
X137570372Y-124346339D01*
X137610319Y-124310200D01*
X137646619Y-124270435D01*
X137678992Y-124227324D01*
X137707156Y-124181149D01*
X137730830Y-124132189D01*
X137749732Y-124080727D01*
X137763582Y-124027042D01*
X137772098Y-123971416D01*
X137775000Y-123914130D01*
X137775000Y-123354081D01*
X137681210Y-123354081D01*
X137681210Y-123914130D01*
X137676433Y-123980713D01*
X137662544Y-124044421D01*
X137640207Y-124104595D01*
X137610087Y-124160576D01*
X137572847Y-124211704D01*
X137529152Y-124257321D01*
X137479666Y-124296766D01*
X137425053Y-124329381D01*
X137365977Y-124354506D01*
X137303102Y-124371482D01*
X137259403Y-124377947D01*
X137259403Y-123354081D01*
X137165369Y-123354081D01*
X137165369Y-124377947D01*
X137100337Y-124366770D01*
X137038671Y-124347004D01*
X136981033Y-124319309D01*
X136928086Y-124284344D01*
X136880489Y-124242768D01*
X136838907Y-124195241D01*
X136803999Y-124142422D01*
X136776428Y-124084970D01*
X136756855Y-124023545D01*
X136745943Y-123958805D01*
X136743806Y-123914130D01*
X136743806Y-123354081D01*
X136649773Y-123354081D01*
X136649773Y-123914130D01*
X136652674Y-123971416D01*
X136661190Y-124027042D01*
X136675038Y-124080727D01*
X136693939Y-124132189D01*
X136717609Y-124181149D01*
X136745767Y-124227324D01*
X136778133Y-124270435D01*
X136814423Y-124310200D01*
X136854357Y-124346339D01*
X136897653Y-124378571D01*
X136944029Y-124406614D01*
X136993205Y-124430188D01*
X137044898Y-124449013D01*
X137098826Y-124462807D01*
X137154709Y-124471289D01*
X137212264Y-124474179D01*
G37*
G36*
X137775000Y-123074423D02*
G01*
X137775000Y-122960117D01*
X136858356Y-122445009D01*
X137774755Y-121929901D01*
X137775000Y-121815351D01*
X136649528Y-122445009D01*
X137775000Y-123074423D01*
G37*
G36*
X136649773Y-121233076D02*
G01*
X136655948Y-121294216D01*
X136673667Y-121351160D01*
X136701718Y-121402689D01*
X136738891Y-121447582D01*
X136783975Y-121484622D01*
X136835760Y-121512589D01*
X136893034Y-121530263D01*
X136954588Y-121536426D01*
X137016071Y-121530263D01*
X137073313Y-121512589D01*
X137125093Y-121484622D01*
X137170193Y-121447582D01*
X137207393Y-121402689D01*
X137235475Y-121351160D01*
X137253218Y-121294216D01*
X137259403Y-121233076D01*
X137259403Y-120719922D01*
X137266048Y-120667620D01*
X137284874Y-120620126D01*
X137314213Y-120579102D01*
X137352401Y-120546207D01*
X137397771Y-120523101D01*
X137448658Y-120511446D01*
X137470184Y-120510362D01*
X137522827Y-120516972D01*
X137570645Y-120535697D01*
X137611960Y-120564875D01*
X137645095Y-120602847D01*
X137668373Y-120647952D01*
X137680118Y-120698530D01*
X137681210Y-120719922D01*
X137681210Y-121536426D01*
X137775000Y-121536426D01*
X137775000Y-120719922D01*
X137768824Y-120658772D01*
X137751106Y-120601800D01*
X137723054Y-120550232D01*
X137685881Y-120505294D01*
X137640797Y-120468209D01*
X137589012Y-120440203D01*
X137531738Y-120422501D01*
X137470184Y-120416328D01*
X137408631Y-120422501D01*
X137351356Y-120440203D01*
X137299572Y-120468209D01*
X137254487Y-120505294D01*
X137217314Y-120550232D01*
X137189263Y-120601800D01*
X137171545Y-120658772D01*
X137165369Y-120719922D01*
X137165369Y-121233076D01*
X137158708Y-121285362D01*
X137139842Y-121332815D01*
X137110448Y-121373786D01*
X137072204Y-121406625D01*
X137026786Y-121429683D01*
X136975872Y-121441311D01*
X136954344Y-121442392D01*
X136901798Y-121435798D01*
X136854048Y-121417114D01*
X136812776Y-121387989D01*
X136779665Y-121350074D01*
X136756397Y-121305016D01*
X136744655Y-121254465D01*
X136743562Y-121233076D01*
X136743562Y-120416328D01*
X136649773Y-120416328D01*
X136649773Y-121233076D01*
G37*
G36*
X137212264Y-120136426D02*
G01*
X137269862Y-120133536D01*
X137325783Y-120125054D01*
X137379744Y-120111260D01*
X137431464Y-120092435D01*
X137480663Y-120068861D01*
X137527060Y-120040818D01*
X137570372Y-120008586D01*
X137610319Y-119972447D01*
X137646619Y-119932682D01*
X137678992Y-119889571D01*
X137707156Y-119843396D01*
X137730830Y-119794436D01*
X137749732Y-119742974D01*
X137763582Y-119689289D01*
X137772098Y-119633663D01*
X137775000Y-119576377D01*
X137775000Y-119016328D01*
X137681210Y-119016328D01*
X137681210Y-119576377D01*
X137676433Y-119642960D01*
X137662544Y-119706668D01*
X137640207Y-119766842D01*
X137610087Y-119822823D01*
X137572847Y-119873951D01*
X137529152Y-119919568D01*
X137479666Y-119959013D01*
X137425053Y-119991628D01*
X137365977Y-120016753D01*
X137303102Y-120033729D01*
X137259403Y-120040194D01*
X137259403Y-119016328D01*
X137165369Y-119016328D01*
X137165369Y-120040194D01*
X137100337Y-120029017D01*
X137038671Y-120009251D01*
X136981033Y-119981556D01*
X136928086Y-119946591D01*
X136880489Y-119905015D01*
X136838907Y-119857488D01*
X136803999Y-119804669D01*
X136776428Y-119747217D01*
X136756855Y-119685792D01*
X136745943Y-119621052D01*
X136743806Y-119576377D01*
X136743806Y-119016328D01*
X136649773Y-119016328D01*
X136649773Y-119576377D01*
X136652674Y-119633663D01*
X136661190Y-119689289D01*
X136675038Y-119742974D01*
X136693939Y-119794436D01*
X136717609Y-119843396D01*
X136745767Y-119889571D01*
X136778133Y-119932682D01*
X136814423Y-119972447D01*
X136854357Y-120008586D01*
X136897653Y-120040818D01*
X136944029Y-120068861D01*
X136993205Y-120092435D01*
X137044898Y-120111260D01*
X137098826Y-120125054D01*
X137154709Y-120133536D01*
X137212264Y-120136426D01*
G37*
G36*
X136649773Y-106652756D02*
G01*
X136655948Y-106713896D01*
X136673667Y-106770840D01*
X136701718Y-106822368D01*
X136738891Y-106867262D01*
X136783975Y-106904302D01*
X136835760Y-106932269D01*
X136893034Y-106949943D01*
X136954588Y-106956105D01*
X137016071Y-106949943D01*
X137073313Y-106932269D01*
X137125093Y-106904302D01*
X137170193Y-106867262D01*
X137207393Y-106822368D01*
X137235475Y-106770840D01*
X137253218Y-106713896D01*
X137259403Y-106652756D01*
X137259403Y-106139602D01*
X137266048Y-106087299D01*
X137284874Y-106039806D01*
X137314213Y-105998781D01*
X137352401Y-105965886D01*
X137397771Y-105942781D01*
X137448658Y-105931125D01*
X137470184Y-105930041D01*
X137522827Y-105936652D01*
X137570645Y-105955376D01*
X137611960Y-105984555D01*
X137645095Y-106022527D01*
X137668373Y-106067632D01*
X137680118Y-106118210D01*
X137681210Y-106139602D01*
X137681210Y-106956105D01*
X137775000Y-106956105D01*
X137775000Y-106139602D01*
X137768824Y-106078451D01*
X137751106Y-106021480D01*
X137723054Y-105969912D01*
X137685881Y-105924973D01*
X137640797Y-105887888D01*
X137589012Y-105859882D01*
X137531738Y-105842181D01*
X137470184Y-105836008D01*
X137408631Y-105842181D01*
X137351356Y-105859882D01*
X137299572Y-105887888D01*
X137254487Y-105924973D01*
X137217314Y-105969912D01*
X137189263Y-106021480D01*
X137171545Y-106078451D01*
X137165369Y-106139602D01*
X137165369Y-106652756D01*
X137158708Y-106705042D01*
X137139842Y-106752495D01*
X137110448Y-106793465D01*
X137072204Y-106826304D01*
X137026786Y-106849362D01*
X136975872Y-106860990D01*
X136954344Y-106862072D01*
X136901798Y-106855477D01*
X136854048Y-106836793D01*
X136812776Y-106807669D01*
X136779665Y-106769753D01*
X136756397Y-106724695D01*
X136744655Y-106674145D01*
X136743562Y-106652756D01*
X136743562Y-105836008D01*
X136649773Y-105836008D01*
X136649773Y-106652756D01*
G37*
G36*
X137212508Y-104530041D02*
G01*
X137283783Y-104535421D01*
X137351719Y-104551029D01*
X137415515Y-104576069D01*
X137474367Y-104609743D01*
X137527475Y-104651254D01*
X137574037Y-104699806D01*
X137613250Y-104754601D01*
X137644314Y-104814844D01*
X137666427Y-104879735D01*
X137678785Y-104948480D01*
X137681210Y-104996057D01*
X137675799Y-105066927D01*
X137660100Y-105134476D01*
X137634915Y-105197906D01*
X137601045Y-105256421D01*
X137559293Y-105309224D01*
X137510460Y-105355518D01*
X137455348Y-105394505D01*
X137394759Y-105425390D01*
X137329495Y-105447374D01*
X137260356Y-105459661D01*
X137212508Y-105462072D01*
X136649528Y-105462072D01*
X136649528Y-105556105D01*
X137212508Y-105556105D01*
X137270063Y-105553216D01*
X137325946Y-105544733D01*
X137379875Y-105530939D01*
X137431567Y-105512115D01*
X137480743Y-105488541D01*
X137527119Y-105460497D01*
X137570415Y-105428266D01*
X137610349Y-105392127D01*
X137646640Y-105352362D01*
X137679005Y-105309251D01*
X137707163Y-105263075D01*
X137730834Y-105214116D01*
X137749734Y-105162653D01*
X137763583Y-105108969D01*
X137772098Y-105053343D01*
X137775000Y-104996057D01*
X137772098Y-104938810D01*
X137763583Y-104883214D01*
X137749734Y-104829550D01*
X137730834Y-104778100D01*
X137707163Y-104729146D01*
X137679005Y-104682970D01*
X137646640Y-104639853D01*
X137610349Y-104600078D01*
X137570415Y-104563926D01*
X137527119Y-104531680D01*
X137480743Y-104503622D01*
X137431567Y-104480032D01*
X137379875Y-104461194D01*
X137325946Y-104447390D01*
X137270063Y-104438900D01*
X137212508Y-104436008D01*
X136649528Y-104436008D01*
X136649528Y-104530041D01*
X137212508Y-104530041D01*
G37*
G36*
X136649773Y-103852756D02*
G01*
X136655948Y-103913896D01*
X136673667Y-103970840D01*
X136701718Y-104022368D01*
X136738891Y-104067262D01*
X136783975Y-104104302D01*
X136835760Y-104132269D01*
X136893034Y-104149943D01*
X136954588Y-104156105D01*
X137016071Y-104149943D01*
X137073313Y-104132269D01*
X137125093Y-104104302D01*
X137170193Y-104067262D01*
X137207393Y-104022368D01*
X137235475Y-103970840D01*
X137253218Y-103913896D01*
X137259403Y-103852756D01*
X137259403Y-103339602D01*
X137266048Y-103287299D01*
X137284874Y-103239806D01*
X137314213Y-103198781D01*
X137352401Y-103165886D01*
X137397771Y-103142781D01*
X137448658Y-103131125D01*
X137470184Y-103130041D01*
X137522827Y-103136652D01*
X137570645Y-103155376D01*
X137611960Y-103184555D01*
X137645095Y-103222527D01*
X137668373Y-103267632D01*
X137680118Y-103318210D01*
X137681210Y-103339602D01*
X137681210Y-104156105D01*
X137775000Y-104156105D01*
X137775000Y-103339602D01*
X137768824Y-103278451D01*
X137751106Y-103221480D01*
X137723054Y-103169912D01*
X137685881Y-103124973D01*
X137640797Y-103087888D01*
X137589012Y-103059882D01*
X137531738Y-103042181D01*
X137470184Y-103036008D01*
X137408631Y-103042181D01*
X137351356Y-103059882D01*
X137299572Y-103087888D01*
X137254487Y-103124973D01*
X137217314Y-103169912D01*
X137189263Y-103221480D01*
X137171545Y-103278451D01*
X137165369Y-103339602D01*
X137165369Y-103852756D01*
X137158708Y-103905042D01*
X137139842Y-103952495D01*
X137110448Y-103993465D01*
X137072204Y-104026304D01*
X137026786Y-104049362D01*
X136975872Y-104060990D01*
X136954344Y-104062072D01*
X136901798Y-104055477D01*
X136854048Y-104036793D01*
X136812776Y-104007669D01*
X136779665Y-103969753D01*
X136756397Y-103924695D01*
X136744655Y-103874145D01*
X136743562Y-103852756D01*
X136743562Y-103036008D01*
X136649773Y-103036008D01*
X136649773Y-103852756D01*
G37*
G36*
X136743562Y-102756105D02*
G01*
X136743562Y-102243195D01*
X137775000Y-102243195D01*
X137775000Y-102149162D01*
X136743562Y-102149162D01*
X136743562Y-101636008D01*
X136649773Y-101636008D01*
X136649773Y-102756105D01*
X136743562Y-102756105D01*
G37*
G36*
X137775000Y-101762770D02*
G01*
X137775000Y-101648464D01*
X136858356Y-101133356D01*
X137774755Y-100618248D01*
X137775000Y-100503698D01*
X136649528Y-101133356D01*
X137775000Y-101762770D01*
G37*
G36*
X136743562Y-99943160D02*
G01*
X136649773Y-99943160D01*
X136649773Y-100225261D01*
X136743562Y-100225261D01*
X136743562Y-100131227D01*
X137681210Y-100131227D01*
X137681210Y-100225261D01*
X137775000Y-100225261D01*
X137775000Y-99943160D01*
X137681210Y-99943160D01*
X137681210Y-100037194D01*
X136743562Y-100037194D01*
X136743562Y-99943160D01*
G37*
G36*
X136649773Y-99103942D02*
G01*
X136652671Y-99161228D01*
X136661179Y-99216854D01*
X136675016Y-99270539D01*
X136693901Y-99322001D01*
X136717552Y-99370961D01*
X136745690Y-99417136D01*
X136778033Y-99460247D01*
X136814301Y-99500012D01*
X136854212Y-99536151D01*
X136897486Y-99568383D01*
X136943842Y-99596426D01*
X136992999Y-99620000D01*
X137044676Y-99638825D01*
X137098592Y-99652619D01*
X137154467Y-99661101D01*
X137212020Y-99663991D01*
X137775000Y-99663991D01*
X137775000Y-99569957D01*
X137212020Y-99569957D01*
X137140807Y-99564578D01*
X137072922Y-99548969D01*
X137009167Y-99523930D01*
X136950345Y-99490256D01*
X136897261Y-99448745D01*
X136850715Y-99400193D01*
X136811512Y-99345397D01*
X136780454Y-99285155D01*
X136758345Y-99220263D01*
X136745987Y-99151519D01*
X136743562Y-99103942D01*
X136748973Y-99033072D01*
X136764671Y-98965523D01*
X136789852Y-98902092D01*
X136823714Y-98843577D01*
X136865454Y-98790774D01*
X136914269Y-98744481D01*
X136969355Y-98705493D01*
X137029910Y-98674609D01*
X137095131Y-98652625D01*
X137164215Y-98640337D01*
X137212020Y-98637927D01*
X137775000Y-98637927D01*
X137775000Y-98543893D01*
X137212020Y-98543893D01*
X137154467Y-98546786D01*
X137098592Y-98555275D01*
X137044676Y-98569080D01*
X136992999Y-98587918D01*
X136943842Y-98611507D01*
X136897486Y-98639566D01*
X136854212Y-98671812D01*
X136814301Y-98707963D01*
X136778033Y-98747738D01*
X136745690Y-98790855D01*
X136717552Y-98837032D01*
X136693901Y-98885986D01*
X136675016Y-98937436D01*
X136661179Y-98991100D01*
X136652671Y-99046696D01*
X136649773Y-99103942D01*
G37*
G36*
X136649773Y-85379518D02*
G01*
X136649773Y-85939566D01*
X136743562Y-85939566D01*
X136743562Y-85379518D01*
X136748973Y-85308647D01*
X136764672Y-85241098D01*
X136789857Y-85177668D01*
X136823727Y-85119153D01*
X136865479Y-85066350D01*
X136914312Y-85020056D01*
X136969424Y-84981069D01*
X137030013Y-84950184D01*
X137095278Y-84928200D01*
X137164416Y-84915913D01*
X137212264Y-84913502D01*
X137283602Y-84918882D01*
X137351588Y-84934490D01*
X137415424Y-84959530D01*
X137474307Y-84993204D01*
X137527438Y-85034715D01*
X137574016Y-85083267D01*
X137613241Y-85138062D01*
X137644310Y-85198305D01*
X137666426Y-85263196D01*
X137678785Y-85331941D01*
X137681210Y-85379518D01*
X137681210Y-85939566D01*
X137775000Y-85939566D01*
X137775000Y-85379518D01*
X137772098Y-85322271D01*
X137763582Y-85266675D01*
X137749732Y-85213011D01*
X137730830Y-85161561D01*
X137707156Y-85112607D01*
X137678992Y-85066431D01*
X137646619Y-85023314D01*
X137610319Y-84983539D01*
X137570372Y-84947387D01*
X137527060Y-84915141D01*
X137480663Y-84887083D01*
X137431464Y-84863493D01*
X137379744Y-84844655D01*
X137325783Y-84830851D01*
X137269862Y-84822361D01*
X137212264Y-84819469D01*
X137154709Y-84822361D01*
X137098826Y-84830851D01*
X137044898Y-84844655D01*
X136993205Y-84863493D01*
X136944029Y-84887083D01*
X136897653Y-84915141D01*
X136854357Y-84947387D01*
X136814423Y-84983539D01*
X136778133Y-85023314D01*
X136745767Y-85066431D01*
X136717609Y-85112607D01*
X136693939Y-85161561D01*
X136675038Y-85213011D01*
X136661190Y-85266675D01*
X136652674Y-85322271D01*
X136649773Y-85379518D01*
G37*
G36*
X137212264Y-84539566D02*
G01*
X137269862Y-84536677D01*
X137325783Y-84528194D01*
X137379744Y-84514400D01*
X137431464Y-84495576D01*
X137480663Y-84472002D01*
X137527060Y-84443958D01*
X137570372Y-84411727D01*
X137610319Y-84375588D01*
X137646619Y-84335823D01*
X137678992Y-84292712D01*
X137707156Y-84246536D01*
X137730830Y-84197577D01*
X137749732Y-84146114D01*
X137763582Y-84092430D01*
X137772098Y-84036804D01*
X137775000Y-83979518D01*
X137775000Y-83419469D01*
X137681210Y-83419469D01*
X137681210Y-83979518D01*
X137676433Y-84046100D01*
X137662544Y-84109808D01*
X137640207Y-84169982D01*
X137610087Y-84225963D01*
X137572847Y-84277092D01*
X137529152Y-84322708D01*
X137479666Y-84362154D01*
X137425053Y-84394769D01*
X137365977Y-84419894D01*
X137303102Y-84436870D01*
X137259403Y-84443335D01*
X137259403Y-83419469D01*
X137165369Y-83419469D01*
X137165369Y-84443335D01*
X137100337Y-84432157D01*
X137038671Y-84412392D01*
X136981033Y-84384696D01*
X136928086Y-84349731D01*
X136880489Y-84308156D01*
X136838907Y-84260629D01*
X136803999Y-84207810D01*
X136776428Y-84150358D01*
X136756855Y-84088932D01*
X136745943Y-84024193D01*
X136743806Y-83979518D01*
X136743806Y-83419469D01*
X136649773Y-83419469D01*
X136649773Y-83979518D01*
X136652674Y-84036804D01*
X136661190Y-84092430D01*
X136675038Y-84146114D01*
X136693939Y-84197577D01*
X136717609Y-84246536D01*
X136745767Y-84292712D01*
X136778133Y-84335823D01*
X136814423Y-84375588D01*
X136854357Y-84411727D01*
X136897653Y-84443958D01*
X136944029Y-84472002D01*
X136993205Y-84495576D01*
X137044898Y-84514400D01*
X137098826Y-84528194D01*
X137154709Y-84536677D01*
X137212264Y-84539566D01*
G37*
G36*
X137212264Y-83139566D02*
G01*
X137269862Y-83136677D01*
X137325783Y-83128194D01*
X137379744Y-83114400D01*
X137431464Y-83095576D01*
X137480663Y-83072002D01*
X137527060Y-83043958D01*
X137570372Y-83011727D01*
X137610319Y-82975588D01*
X137646619Y-82935823D01*
X137678992Y-82892712D01*
X137707156Y-82846536D01*
X137730830Y-82797577D01*
X137749732Y-82746114D01*
X137763582Y-82692430D01*
X137772098Y-82636804D01*
X137775000Y-82579518D01*
X137775000Y-82019469D01*
X137681210Y-82019469D01*
X137681210Y-82579518D01*
X137675799Y-82650388D01*
X137660098Y-82717937D01*
X137634909Y-82781367D01*
X137601032Y-82839882D01*
X137559268Y-82892685D01*
X137510417Y-82938979D01*
X137455279Y-82977966D01*
X137394656Y-83008851D01*
X137329348Y-83030835D01*
X137260155Y-83043122D01*
X137212264Y-83045533D01*
X137140989Y-83040153D01*
X137073053Y-83024545D01*
X137009258Y-82999505D01*
X136950405Y-82965831D01*
X136897297Y-82924320D01*
X136850735Y-82875768D01*
X136811522Y-82820973D01*
X136780458Y-82760730D01*
X136758346Y-82695839D01*
X136745987Y-82627094D01*
X136743562Y-82579518D01*
X136743562Y-82019469D01*
X136649773Y-82019469D01*
X136649773Y-82579518D01*
X136652674Y-82636804D01*
X136661190Y-82692430D01*
X136675038Y-82746114D01*
X136693939Y-82797577D01*
X136717609Y-82846536D01*
X136745767Y-82892712D01*
X136778133Y-82935823D01*
X136814423Y-82975588D01*
X136854357Y-83011727D01*
X136897653Y-83043958D01*
X136944029Y-83072002D01*
X136993205Y-83095576D01*
X137044898Y-83114400D01*
X137098826Y-83128194D01*
X137154709Y-83136677D01*
X137212264Y-83139566D01*
G37*
G36*
X137775000Y-81739811D02*
G01*
X137775000Y-81625505D01*
X136858356Y-81110397D01*
X137774755Y-80595289D01*
X137775000Y-80480739D01*
X136649528Y-81110397D01*
X137775000Y-81739811D01*
G37*
G36*
X136696912Y-79654465D02*
G01*
X136768181Y-79659845D01*
X136836100Y-79675453D01*
X136899871Y-79700493D01*
X136958693Y-79734167D01*
X137011768Y-79775678D01*
X137058295Y-79824230D01*
X137097476Y-79879025D01*
X137128512Y-79939268D01*
X137150602Y-80004159D01*
X137162947Y-80072904D01*
X137165369Y-80120481D01*
X137159964Y-80191351D01*
X137144282Y-80258900D01*
X137119121Y-80322330D01*
X137085282Y-80380845D01*
X137043563Y-80433648D01*
X136994764Y-80479942D01*
X136939685Y-80518929D01*
X136879124Y-80549814D01*
X136813882Y-80571798D01*
X136744757Y-80584085D01*
X136696912Y-80586496D01*
X136649528Y-80586496D01*
X136649528Y-80680529D01*
X136696912Y-80680529D01*
X136751566Y-80677925D01*
X136804726Y-80670271D01*
X136856151Y-80657809D01*
X136905602Y-80640779D01*
X136952837Y-80619421D01*
X136997616Y-80593976D01*
X137039700Y-80564684D01*
X137078846Y-80531785D01*
X137114816Y-80495521D01*
X137147368Y-80456131D01*
X137176262Y-80413856D01*
X137201258Y-80368937D01*
X137222115Y-80321613D01*
X137238593Y-80272125D01*
X137250451Y-80220714D01*
X137257449Y-80167619D01*
X137775000Y-80167619D01*
X137775000Y-80073586D01*
X137257449Y-80073586D01*
X137250451Y-80020489D01*
X137238593Y-79969070D01*
X137222115Y-79919570D01*
X137201258Y-79872231D01*
X137176262Y-79827292D01*
X137147368Y-79784997D01*
X137114816Y-79745585D01*
X137078846Y-79709298D01*
X137039700Y-79676377D01*
X136997616Y-79647063D01*
X136952837Y-79621597D01*
X136905602Y-79600220D01*
X136856151Y-79583175D01*
X136804726Y-79570700D01*
X136751566Y-79563039D01*
X136696912Y-79560432D01*
X136649528Y-79560432D01*
X136649528Y-79654465D01*
X136696912Y-79654465D01*
G37*
G36*
X137775000Y-66446614D02*
G01*
X137775000Y-66332309D01*
X136854204Y-65817201D01*
X137775000Y-65302825D01*
X137775000Y-65188031D01*
X136649528Y-65816712D01*
X137775000Y-66446614D01*
G37*
G36*
X136743562Y-65314305D02*
G01*
X136743562Y-64801395D01*
X137775000Y-64801395D01*
X137775000Y-64707361D01*
X136743562Y-64707361D01*
X136743562Y-64194207D01*
X136649773Y-64194207D01*
X136649773Y-65314305D01*
X136743562Y-65314305D01*
G37*
G36*
X136743562Y-63914305D02*
G01*
X136743562Y-63401395D01*
X137775000Y-63401395D01*
X137775000Y-63307361D01*
X136743562Y-63307361D01*
X136743562Y-62794207D01*
X136649773Y-62794207D01*
X136649773Y-63914305D01*
X136743562Y-63914305D01*
G37*
G36*
X137775000Y-62920969D02*
G01*
X137775000Y-62806663D01*
X136858356Y-62291555D01*
X137774755Y-61776447D01*
X137775000Y-61661897D01*
X136649528Y-62291555D01*
X137775000Y-62920969D01*
G37*
G36*
X137212264Y-61573481D02*
G01*
X137269862Y-61570591D01*
X137325783Y-61562109D01*
X137379744Y-61548315D01*
X137431464Y-61529491D01*
X137480663Y-61505916D01*
X137527060Y-61477873D01*
X137570372Y-61445641D01*
X137610319Y-61409503D01*
X137646619Y-61369737D01*
X137678992Y-61326626D01*
X137707156Y-61280451D01*
X137730830Y-61231491D01*
X137749732Y-61180029D01*
X137763582Y-61126344D01*
X137772098Y-61070719D01*
X137775000Y-61013432D01*
X137775000Y-60453383D01*
X137681210Y-60453383D01*
X137681210Y-61013432D01*
X137675799Y-61084303D01*
X137660098Y-61151851D01*
X137634909Y-61215282D01*
X137601032Y-61273797D01*
X137559268Y-61326600D01*
X137510417Y-61372894D01*
X137455279Y-61411881D01*
X137394656Y-61442765D01*
X137329348Y-61464750D01*
X137260155Y-61477037D01*
X137212264Y-61479448D01*
X137140989Y-61474068D01*
X137073053Y-61458460D01*
X137009258Y-61433420D01*
X136950405Y-61399746D01*
X136897297Y-61358235D01*
X136850735Y-61309683D01*
X136811522Y-61254887D01*
X136780458Y-61194645D01*
X136758346Y-61129753D01*
X136745987Y-61061009D01*
X136743562Y-61013432D01*
X136743562Y-60453383D01*
X136649773Y-60453383D01*
X136649773Y-61013432D01*
X136652674Y-61070719D01*
X136661190Y-61126344D01*
X136675038Y-61180029D01*
X136693939Y-61231491D01*
X136717609Y-61280451D01*
X136745767Y-61326626D01*
X136778133Y-61369737D01*
X136814423Y-61409503D01*
X136854357Y-61445641D01*
X136897653Y-61477873D01*
X136944029Y-61505916D01*
X136993205Y-61529491D01*
X137044898Y-61548315D01*
X137098826Y-61562109D01*
X137154709Y-61570591D01*
X137212264Y-61573481D01*
G37*
G36*
X136649528Y-59199441D02*
G01*
X137393736Y-60079692D01*
X136649528Y-60079692D01*
X136649528Y-60173725D01*
X137473115Y-60173725D01*
X137596702Y-60173725D01*
X137775000Y-60173725D01*
X137775000Y-60079692D01*
X137517079Y-60079692D01*
X137274057Y-59792218D01*
X137775000Y-59199441D01*
X137775000Y-59053383D01*
X137212508Y-59719189D01*
X136649528Y-59053383D01*
X136649528Y-59199441D01*
G37*
G36*
X119749707Y-37915376D02*
G01*
X119749707Y-39745000D01*
X120031807Y-39745000D01*
X120031807Y-38198210D01*
X122199218Y-38198210D01*
X122199218Y-37916109D01*
X119749707Y-37915376D01*
G37*
G36*
X123110000Y-36650687D02*
G01*
X123110000Y-36369319D01*
X119749707Y-36369319D01*
X119749707Y-36650687D01*
X123110000Y-36650687D01*
G37*
G36*
X125207802Y-36369319D02*
G01*
X125035943Y-36377920D01*
X124869065Y-36403165D01*
X124708011Y-36444213D01*
X124553624Y-36500226D01*
X124406746Y-36570363D01*
X124268219Y-36653787D01*
X124138887Y-36749656D01*
X124019591Y-36857133D01*
X123911174Y-36975378D01*
X123814480Y-37103550D01*
X123730350Y-37240812D01*
X123659627Y-37386323D01*
X123603153Y-37539245D01*
X123561772Y-37698738D01*
X123536325Y-37863962D01*
X123527655Y-38034078D01*
X123536325Y-38209302D01*
X123561772Y-38379397D01*
X123603153Y-38543511D01*
X123659627Y-38700793D01*
X123730350Y-38850389D01*
X123814480Y-38991448D01*
X123911174Y-39123118D01*
X124019591Y-39244546D01*
X124138887Y-39354880D01*
X124268219Y-39453268D01*
X124406746Y-39538857D01*
X124553624Y-39610796D01*
X124708011Y-39668232D01*
X124869065Y-39710312D01*
X125035943Y-39736186D01*
X125207802Y-39745000D01*
X126887948Y-39745000D01*
X126887948Y-39463632D01*
X125207802Y-39463632D01*
X124995191Y-39447064D01*
X124792544Y-39399016D01*
X124602253Y-39321974D01*
X124426708Y-39218422D01*
X124268299Y-39090846D01*
X124129418Y-38941731D01*
X124012456Y-38773562D01*
X123919802Y-38588823D01*
X123853850Y-38389999D01*
X123816988Y-38179577D01*
X123809756Y-38034078D01*
X123825895Y-37823353D01*
X123872720Y-37622622D01*
X123947838Y-37434229D01*
X124048860Y-37260519D01*
X124173394Y-37103834D01*
X124319050Y-36966518D01*
X124483437Y-36850916D01*
X124664163Y-36759371D01*
X124858839Y-36694227D01*
X125065072Y-36657827D01*
X125207802Y-36650687D01*
X126887948Y-36650687D01*
X126887948Y-36369319D01*
X125207802Y-36369319D01*
G37*
G36*
X125407837Y-38034078D02*
G01*
X125462672Y-38175328D01*
X125597293Y-38243282D01*
X125618863Y-38244371D01*
X125760444Y-38189611D01*
X125828790Y-38055519D01*
X125829888Y-38034078D01*
X125774796Y-37892206D01*
X125640311Y-37824143D01*
X125618863Y-37823053D01*
X125476990Y-37877888D01*
X125408927Y-38012509D01*
X125407837Y-38034078D01*
G37*
G36*
X127726923Y-39745000D02*
G01*
X128009023Y-39745000D01*
X128008290Y-36368586D01*
X127726923Y-36368586D01*
X127726923Y-39745000D01*
G37*
G36*
X128847265Y-36650687D02*
G01*
X130385994Y-36650687D01*
X130385994Y-39745000D01*
X130668095Y-39745000D01*
X130668095Y-36650687D01*
X132207558Y-36650687D01*
X132207558Y-36369319D01*
X128847265Y-36369319D01*
X128847265Y-36650687D01*
G37*
G36*
X136688925Y-38691336D02*
G01*
X136673268Y-38846958D01*
X136628372Y-38991915D01*
X136557356Y-39123099D01*
X136463337Y-39237402D01*
X136349430Y-39331715D01*
X136218754Y-39402930D01*
X136074425Y-39447938D01*
X135919560Y-39463632D01*
X135764696Y-39447875D01*
X135620367Y-39402701D01*
X135489691Y-39331251D01*
X135375784Y-39236669D01*
X135281765Y-39122097D01*
X135210749Y-38990678D01*
X135165853Y-38845555D01*
X135150195Y-38689870D01*
X135150195Y-36368586D01*
X134868095Y-36368586D01*
X134868095Y-38689870D01*
X134852437Y-38845555D01*
X134807542Y-38990678D01*
X134736526Y-39122097D01*
X134642506Y-39236669D01*
X134528600Y-39331251D01*
X134397924Y-39402701D01*
X134253595Y-39447875D01*
X134098730Y-39463632D01*
X133943865Y-39447875D01*
X133799536Y-39402701D01*
X133668860Y-39331251D01*
X133554954Y-39236669D01*
X133460934Y-39122097D01*
X133389918Y-38990678D01*
X133345023Y-38845555D01*
X133329365Y-38689870D01*
X133329365Y-36368586D01*
X133047265Y-36368586D01*
X133047265Y-38689870D01*
X133059372Y-38850846D01*
X133094507Y-39004099D01*
X133150892Y-39147859D01*
X133226747Y-39280354D01*
X133320295Y-39399813D01*
X133429757Y-39504464D01*
X133553353Y-39592536D01*
X133689306Y-39662258D01*
X133835837Y-39711859D01*
X133991167Y-39739566D01*
X134098730Y-39745000D01*
X134277343Y-39729898D01*
X134446102Y-39686226D01*
X134602557Y-39616431D01*
X134744261Y-39522963D01*
X134868765Y-39408269D01*
X134973620Y-39274799D01*
X135009512Y-39216702D01*
X135105773Y-39356997D01*
X135222590Y-39479495D01*
X135357545Y-39581747D01*
X135508225Y-39661305D01*
X135672214Y-39715720D01*
X135847098Y-39742544D01*
X135919560Y-39745000D01*
X136079786Y-39732872D01*
X136232430Y-39697670D01*
X136375706Y-39641166D01*
X136507828Y-39565130D01*
X136627011Y-39471335D01*
X136731469Y-39361551D01*
X136819415Y-39237550D01*
X136889063Y-39101103D01*
X136938629Y-38953982D01*
X136966326Y-38797958D01*
X136971759Y-38689870D01*
X136971759Y-36368586D01*
X136688925Y-36368586D01*
X136688925Y-38691336D01*
G37*
M02*
