%TF.GenerationSoftware,KiCad,Pcbnew,8.0.0*%
%TF.CreationDate,2024-06-15T01:22:53+02:00*%
%TF.ProjectId,feitw,66656974-772e-46b6-9963-61645f706362,rev?*%
%TF.SameCoordinates,Original*%
%TF.FileFunction,Legend,Top*%
%TF.FilePolarity,Positive*%
%FSLAX46Y46*%
G04 Gerber Fmt 4.6, Leading zero omitted, Abs format (unit mm)*
G04 Created by KiCad (PCBNEW 8.0.0) date 2024-06-15 01:22:53*
%MOMM*%
%LPD*%
G01*
G04 APERTURE LIST*
%ADD10C,0.150000*%
%ADD11C,0.152400*%
%ADD12C,0.120000*%
%ADD13C,0.127000*%
%ADD14C,0.254000*%
G04 APERTURE END LIST*
D10*
X123414819Y-113745238D02*
X122938628Y-114078571D01*
X123414819Y-114316666D02*
X122414819Y-114316666D01*
X122414819Y-114316666D02*
X122414819Y-113935714D01*
X122414819Y-113935714D02*
X122462438Y-113840476D01*
X122462438Y-113840476D02*
X122510057Y-113792857D01*
X122510057Y-113792857D02*
X122605295Y-113745238D01*
X122605295Y-113745238D02*
X122748152Y-113745238D01*
X122748152Y-113745238D02*
X122843390Y-113792857D01*
X122843390Y-113792857D02*
X122891009Y-113840476D01*
X122891009Y-113840476D02*
X122938628Y-113935714D01*
X122938628Y-113935714D02*
X122938628Y-114316666D01*
X122414819Y-113459523D02*
X123414819Y-113126190D01*
X123414819Y-113126190D02*
X122414819Y-112792857D01*
X122748152Y-112030952D02*
X123414819Y-112030952D01*
X122367200Y-112269047D02*
X123081485Y-112507142D01*
X123081485Y-112507142D02*
X123081485Y-111888095D01*
X115774761Y-91564819D02*
X115441428Y-91088628D01*
X115203333Y-91564819D02*
X115203333Y-90564819D01*
X115203333Y-90564819D02*
X115584285Y-90564819D01*
X115584285Y-90564819D02*
X115679523Y-90612438D01*
X115679523Y-90612438D02*
X115727142Y-90660057D01*
X115727142Y-90660057D02*
X115774761Y-90755295D01*
X115774761Y-90755295D02*
X115774761Y-90898152D01*
X115774761Y-90898152D02*
X115727142Y-90993390D01*
X115727142Y-90993390D02*
X115679523Y-91041009D01*
X115679523Y-91041009D02*
X115584285Y-91088628D01*
X115584285Y-91088628D02*
X115203333Y-91088628D01*
X116060476Y-90564819D02*
X116393809Y-91564819D01*
X116393809Y-91564819D02*
X116727142Y-90564819D01*
X116965238Y-90564819D02*
X117584285Y-90564819D01*
X117584285Y-90564819D02*
X117250952Y-90945771D01*
X117250952Y-90945771D02*
X117393809Y-90945771D01*
X117393809Y-90945771D02*
X117489047Y-90993390D01*
X117489047Y-90993390D02*
X117536666Y-91041009D01*
X117536666Y-91041009D02*
X117584285Y-91136247D01*
X117584285Y-91136247D02*
X117584285Y-91374342D01*
X117584285Y-91374342D02*
X117536666Y-91469580D01*
X117536666Y-91469580D02*
X117489047Y-91517200D01*
X117489047Y-91517200D02*
X117393809Y-91564819D01*
X117393809Y-91564819D02*
X117108095Y-91564819D01*
X117108095Y-91564819D02*
X117012857Y-91517200D01*
X117012857Y-91517200D02*
X116965238Y-91469580D01*
X115774761Y-71564819D02*
X115441428Y-71088628D01*
X115203333Y-71564819D02*
X115203333Y-70564819D01*
X115203333Y-70564819D02*
X115584285Y-70564819D01*
X115584285Y-70564819D02*
X115679523Y-70612438D01*
X115679523Y-70612438D02*
X115727142Y-70660057D01*
X115727142Y-70660057D02*
X115774761Y-70755295D01*
X115774761Y-70755295D02*
X115774761Y-70898152D01*
X115774761Y-70898152D02*
X115727142Y-70993390D01*
X115727142Y-70993390D02*
X115679523Y-71041009D01*
X115679523Y-71041009D02*
X115584285Y-71088628D01*
X115584285Y-71088628D02*
X115203333Y-71088628D01*
X116060476Y-70564819D02*
X116393809Y-71564819D01*
X116393809Y-71564819D02*
X116727142Y-70564819D01*
X117012857Y-70660057D02*
X117060476Y-70612438D01*
X117060476Y-70612438D02*
X117155714Y-70564819D01*
X117155714Y-70564819D02*
X117393809Y-70564819D01*
X117393809Y-70564819D02*
X117489047Y-70612438D01*
X117489047Y-70612438D02*
X117536666Y-70660057D01*
X117536666Y-70660057D02*
X117584285Y-70755295D01*
X117584285Y-70755295D02*
X117584285Y-70850533D01*
X117584285Y-70850533D02*
X117536666Y-70993390D01*
X117536666Y-70993390D02*
X116965238Y-71564819D01*
X116965238Y-71564819D02*
X117584285Y-71564819D01*
X115774761Y-51564819D02*
X115441428Y-51088628D01*
X115203333Y-51564819D02*
X115203333Y-50564819D01*
X115203333Y-50564819D02*
X115584285Y-50564819D01*
X115584285Y-50564819D02*
X115679523Y-50612438D01*
X115679523Y-50612438D02*
X115727142Y-50660057D01*
X115727142Y-50660057D02*
X115774761Y-50755295D01*
X115774761Y-50755295D02*
X115774761Y-50898152D01*
X115774761Y-50898152D02*
X115727142Y-50993390D01*
X115727142Y-50993390D02*
X115679523Y-51041009D01*
X115679523Y-51041009D02*
X115584285Y-51088628D01*
X115584285Y-51088628D02*
X115203333Y-51088628D01*
X116060476Y-50564819D02*
X116393809Y-51564819D01*
X116393809Y-51564819D02*
X116727142Y-50564819D01*
X117584285Y-51564819D02*
X117012857Y-51564819D01*
X117298571Y-51564819D02*
X117298571Y-50564819D01*
X117298571Y-50564819D02*
X117203333Y-50707676D01*
X117203333Y-50707676D02*
X117108095Y-50802914D01*
X117108095Y-50802914D02*
X117012857Y-50850533D01*
X122994819Y-117471666D02*
X122518628Y-117804999D01*
X122994819Y-118043094D02*
X121994819Y-118043094D01*
X121994819Y-118043094D02*
X121994819Y-117662142D01*
X121994819Y-117662142D02*
X122042438Y-117566904D01*
X122042438Y-117566904D02*
X122090057Y-117519285D01*
X122090057Y-117519285D02*
X122185295Y-117471666D01*
X122185295Y-117471666D02*
X122328152Y-117471666D01*
X122328152Y-117471666D02*
X122423390Y-117519285D01*
X122423390Y-117519285D02*
X122471009Y-117566904D01*
X122471009Y-117566904D02*
X122518628Y-117662142D01*
X122518628Y-117662142D02*
X122518628Y-118043094D01*
X121994819Y-117138332D02*
X121994819Y-116519285D01*
X121994819Y-116519285D02*
X122375771Y-116852618D01*
X122375771Y-116852618D02*
X122375771Y-116709761D01*
X122375771Y-116709761D02*
X122423390Y-116614523D01*
X122423390Y-116614523D02*
X122471009Y-116566904D01*
X122471009Y-116566904D02*
X122566247Y-116519285D01*
X122566247Y-116519285D02*
X122804342Y-116519285D01*
X122804342Y-116519285D02*
X122899580Y-116566904D01*
X122899580Y-116566904D02*
X122947200Y-116614523D01*
X122947200Y-116614523D02*
X122994819Y-116709761D01*
X122994819Y-116709761D02*
X122994819Y-116995475D01*
X122994819Y-116995475D02*
X122947200Y-117090713D01*
X122947200Y-117090713D02*
X122899580Y-117138332D01*
D11*
X108892239Y-133887922D02*
X108892239Y-134749708D01*
X108892239Y-134749708D02*
X108834786Y-134922065D01*
X108834786Y-134922065D02*
X108719882Y-135036970D01*
X108719882Y-135036970D02*
X108547524Y-135094422D01*
X108547524Y-135094422D02*
X108432620Y-135094422D01*
X109351858Y-133887922D02*
X110098739Y-133887922D01*
X110098739Y-133887922D02*
X109696572Y-134347541D01*
X109696572Y-134347541D02*
X109868929Y-134347541D01*
X109868929Y-134347541D02*
X109983834Y-134404993D01*
X109983834Y-134404993D02*
X110041286Y-134462446D01*
X110041286Y-134462446D02*
X110098739Y-134577350D01*
X110098739Y-134577350D02*
X110098739Y-134864612D01*
X110098739Y-134864612D02*
X110041286Y-134979517D01*
X110041286Y-134979517D02*
X109983834Y-135036970D01*
X109983834Y-135036970D02*
X109868929Y-135094422D01*
X109868929Y-135094422D02*
X109524215Y-135094422D01*
X109524215Y-135094422D02*
X109409310Y-135036970D01*
X109409310Y-135036970D02*
X109351858Y-134979517D01*
D10*
X108353922Y-136119819D02*
X108925350Y-136119819D01*
X108639636Y-137119819D02*
X108639636Y-136119819D01*
X109258684Y-137119819D02*
X109258684Y-136453152D01*
X109258684Y-136643628D02*
X109306303Y-136548390D01*
X109306303Y-136548390D02*
X109353922Y-136500771D01*
X109353922Y-136500771D02*
X109449160Y-136453152D01*
X109449160Y-136453152D02*
X109544398Y-136453152D01*
X109877732Y-137119819D02*
X109877732Y-136453152D01*
X109877732Y-136119819D02*
X109830113Y-136167438D01*
X109830113Y-136167438D02*
X109877732Y-136215057D01*
X109877732Y-136215057D02*
X109925351Y-136167438D01*
X109925351Y-136167438D02*
X109877732Y-136119819D01*
X109877732Y-136119819D02*
X109877732Y-136215057D01*
X110782493Y-136453152D02*
X110782493Y-137262676D01*
X110782493Y-137262676D02*
X110734874Y-137357914D01*
X110734874Y-137357914D02*
X110687255Y-137405533D01*
X110687255Y-137405533D02*
X110592017Y-137453152D01*
X110592017Y-137453152D02*
X110449160Y-137453152D01*
X110449160Y-137453152D02*
X110353922Y-137405533D01*
X110782493Y-137072200D02*
X110687255Y-137119819D01*
X110687255Y-137119819D02*
X110496779Y-137119819D01*
X110496779Y-137119819D02*
X110401541Y-137072200D01*
X110401541Y-137072200D02*
X110353922Y-137024580D01*
X110353922Y-137024580D02*
X110306303Y-136929342D01*
X110306303Y-136929342D02*
X110306303Y-136643628D01*
X110306303Y-136643628D02*
X110353922Y-136548390D01*
X110353922Y-136548390D02*
X110401541Y-136500771D01*
X110401541Y-136500771D02*
X110496779Y-136453152D01*
X110496779Y-136453152D02*
X110687255Y-136453152D01*
X110687255Y-136453152D02*
X110782493Y-136500771D01*
D11*
X108892239Y-143887922D02*
X108892239Y-144749708D01*
X108892239Y-144749708D02*
X108834786Y-144922065D01*
X108834786Y-144922065D02*
X108719882Y-145036970D01*
X108719882Y-145036970D02*
X108547524Y-145094422D01*
X108547524Y-145094422D02*
X108432620Y-145094422D01*
X110098739Y-145094422D02*
X109409310Y-145094422D01*
X109754024Y-145094422D02*
X109754024Y-143887922D01*
X109754024Y-143887922D02*
X109639120Y-144060279D01*
X109639120Y-144060279D02*
X109524215Y-144175184D01*
X109524215Y-144175184D02*
X109409310Y-144232636D01*
D10*
X108687255Y-146119819D02*
X108877731Y-146119819D01*
X108877731Y-146119819D02*
X108972969Y-146167438D01*
X108972969Y-146167438D02*
X109068207Y-146262676D01*
X109068207Y-146262676D02*
X109115826Y-146453152D01*
X109115826Y-146453152D02*
X109115826Y-146786485D01*
X109115826Y-146786485D02*
X109068207Y-146976961D01*
X109068207Y-146976961D02*
X108972969Y-147072200D01*
X108972969Y-147072200D02*
X108877731Y-147119819D01*
X108877731Y-147119819D02*
X108687255Y-147119819D01*
X108687255Y-147119819D02*
X108592017Y-147072200D01*
X108592017Y-147072200D02*
X108496779Y-146976961D01*
X108496779Y-146976961D02*
X108449160Y-146786485D01*
X108449160Y-146786485D02*
X108449160Y-146453152D01*
X108449160Y-146453152D02*
X108496779Y-146262676D01*
X108496779Y-146262676D02*
X108592017Y-146167438D01*
X108592017Y-146167438D02*
X108687255Y-146119819D01*
X109972969Y-146453152D02*
X109972969Y-147119819D01*
X109544398Y-146453152D02*
X109544398Y-146976961D01*
X109544398Y-146976961D02*
X109592017Y-147072200D01*
X109592017Y-147072200D02*
X109687255Y-147119819D01*
X109687255Y-147119819D02*
X109830112Y-147119819D01*
X109830112Y-147119819D02*
X109925350Y-147072200D01*
X109925350Y-147072200D02*
X109972969Y-147024580D01*
X110306303Y-146453152D02*
X110687255Y-146453152D01*
X110449160Y-146119819D02*
X110449160Y-146976961D01*
X110449160Y-146976961D02*
X110496779Y-147072200D01*
X110496779Y-147072200D02*
X110592017Y-147119819D01*
X110592017Y-147119819D02*
X110687255Y-147119819D01*
X122589819Y-138993094D02*
X121589819Y-138993094D01*
X121589819Y-138993094D02*
X121589819Y-138754999D01*
X121589819Y-138754999D02*
X121637438Y-138612142D01*
X121637438Y-138612142D02*
X121732676Y-138516904D01*
X121732676Y-138516904D02*
X121827914Y-138469285D01*
X121827914Y-138469285D02*
X122018390Y-138421666D01*
X122018390Y-138421666D02*
X122161247Y-138421666D01*
X122161247Y-138421666D02*
X122351723Y-138469285D01*
X122351723Y-138469285D02*
X122446961Y-138516904D01*
X122446961Y-138516904D02*
X122542200Y-138612142D01*
X122542200Y-138612142D02*
X122589819Y-138754999D01*
X122589819Y-138754999D02*
X122589819Y-138993094D01*
X121685057Y-138040713D02*
X121637438Y-137993094D01*
X121637438Y-137993094D02*
X121589819Y-137897856D01*
X121589819Y-137897856D02*
X121589819Y-137659761D01*
X121589819Y-137659761D02*
X121637438Y-137564523D01*
X121637438Y-137564523D02*
X121685057Y-137516904D01*
X121685057Y-137516904D02*
X121780295Y-137469285D01*
X121780295Y-137469285D02*
X121875533Y-137469285D01*
X121875533Y-137469285D02*
X122018390Y-137516904D01*
X122018390Y-137516904D02*
X122589819Y-138088332D01*
X122589819Y-138088332D02*
X122589819Y-137469285D01*
D12*
%TO.C,RV4*%
X110540000Y-113370000D02*
X115260000Y-113370000D01*
X110540000Y-114560000D02*
X110540000Y-113380000D01*
X110540000Y-117460000D02*
X110540000Y-116930000D01*
X110540000Y-119910000D02*
X110540000Y-119080000D01*
X110540000Y-123120000D02*
X110540000Y-121630000D01*
X110540000Y-123120000D02*
X115260000Y-123120000D01*
X119070000Y-113380000D02*
X122130000Y-113380000D01*
X119070000Y-123120000D02*
X122130000Y-123120000D01*
X122130000Y-123120000D02*
X122130000Y-113380000D01*
%TO.C,RV3*%
X110540000Y-93370000D02*
X115260000Y-93370000D01*
X110540000Y-94560000D02*
X110540000Y-93380000D01*
X110540000Y-97460000D02*
X110540000Y-96930000D01*
X110540000Y-99910000D02*
X110540000Y-99080000D01*
X110540000Y-103120000D02*
X110540000Y-101630000D01*
X110540000Y-103120000D02*
X115260000Y-103120000D01*
X119070000Y-93380000D02*
X122130000Y-93380000D01*
X119070000Y-103120000D02*
X122130000Y-103120000D01*
X122130000Y-103120000D02*
X122130000Y-93380000D01*
%TO.C,RV2*%
X110540000Y-73370000D02*
X115260000Y-73370000D01*
X110540000Y-74560000D02*
X110540000Y-73380000D01*
X110540000Y-77460000D02*
X110540000Y-76930000D01*
X110540000Y-79910000D02*
X110540000Y-79080000D01*
X110540000Y-83120000D02*
X110540000Y-81630000D01*
X110540000Y-83120000D02*
X115260000Y-83120000D01*
X119070000Y-73380000D02*
X122130000Y-73380000D01*
X119070000Y-83120000D02*
X122130000Y-83120000D01*
X122130000Y-83120000D02*
X122130000Y-73380000D01*
%TO.C,RV1*%
X110540000Y-53370000D02*
X115260000Y-53370000D01*
X110540000Y-54560000D02*
X110540000Y-53380000D01*
X110540000Y-57460000D02*
X110540000Y-56930000D01*
X110540000Y-59910000D02*
X110540000Y-59080000D01*
X110540000Y-63120000D02*
X110540000Y-61630000D01*
X110540000Y-63120000D02*
X115260000Y-63120000D01*
X119070000Y-53380000D02*
X122130000Y-53380000D01*
X119070000Y-63120000D02*
X122130000Y-63120000D01*
X122130000Y-63120000D02*
X122130000Y-53380000D01*
%TO.C,R3*%
X125209358Y-117934905D02*
G75*
G02*
X123760001Y-117837867I-749358J-320095D01*
G01*
D13*
%TO.C,J3*%
X119433300Y-133250000D02*
G75*
G02*
X114861300Y-133250000I-2286000J0D01*
G01*
X114861300Y-133250000D02*
G75*
G02*
X119433300Y-133250000I2286000J0D01*
G01*
X118722100Y-133250000D02*
G75*
G02*
X115572500Y-133250000I-1574800J0D01*
G01*
X115572500Y-133250000D02*
G75*
G02*
X118722100Y-133250000I1574800J0D01*
G01*
D14*
X121655800Y-137695000D02*
X121655800Y-128805000D01*
X121655800Y-128805000D02*
X110987800Y-128805000D01*
X110987800Y-137695000D02*
X121655800Y-137695000D01*
X110987800Y-128805000D02*
X110987800Y-137695000D01*
D13*
%TO.C,J1*%
X119433300Y-143250000D02*
G75*
G02*
X114861300Y-143250000I-2286000J0D01*
G01*
X114861300Y-143250000D02*
G75*
G02*
X119433300Y-143250000I2286000J0D01*
G01*
X118722100Y-143250000D02*
G75*
G02*
X115572500Y-143250000I-1574800J0D01*
G01*
X115572500Y-143250000D02*
G75*
G02*
X118722100Y-143250000I1574800J0D01*
G01*
D14*
X121655800Y-147695000D02*
X121655800Y-138805000D01*
X121655800Y-138805000D02*
X110987800Y-138805000D01*
X110987800Y-147695000D02*
X121655800Y-147695000D01*
X110987800Y-138805000D02*
X110987800Y-147695000D01*
D12*
%TO.C,D2*%
X125490000Y-136545000D02*
X125655000Y-136545000D01*
X123135000Y-136545000D02*
X123300000Y-136545000D01*
X125475000Y-139725000D02*
X125655000Y-139725000D01*
X123135000Y-139725000D02*
X123315000Y-139725000D01*
X125475000Y-139845000D02*
X125655000Y-139845000D01*
X123135000Y-139845000D02*
X123315000Y-139845000D01*
X125655000Y-139965000D02*
X125655000Y-136545000D01*
X125475000Y-139965000D02*
X125655000Y-139965000D01*
X123135000Y-139965000D02*
X123135000Y-136545000D01*
X123135000Y-139965000D02*
X123315000Y-139965000D01*
%TD*%
M02*
