%TF.GenerationSoftware,KiCad,Pcbnew,8.0.0*%
%TF.CreationDate,2024-06-15T01:22:53+02:00*%
%TF.ProjectId,feitw,66656974-772e-46b6-9963-61645f706362,rev?*%
%TF.SameCoordinates,Original*%
%TF.FileFunction,Soldermask,Top*%
%TF.FilePolarity,Negative*%
%FSLAX46Y46*%
G04 Gerber Fmt 4.6, Leading zero omitted, Abs format (unit mm)*
G04 Created by KiCad (PCBNEW 8.0.0) date 2024-06-15 01:22:53*
%MOMM*%
%LPD*%
G01*
G04 APERTURE LIST*
%ADD10O,1.700000X1.700000*%
%ADD11R,1.700000X1.700000*%
%ADD12O,3.240000X2.720000*%
%ADD13R,1.800000X1.800000*%
%ADD14C,1.800000*%
%ADD15O,1.400000X1.400000*%
%ADD16C,1.400000*%
%ADD17C,1.930400*%
%ADD18O,2.200000X2.200000*%
%ADD19R,2.200000X2.200000*%
%ADD20C,1.200000*%
%ADD21R,1.200000X1.200000*%
G04 APERTURE END LIST*
D10*
%TO.C,J2*%
X110300000Y-109590000D03*
X110300000Y-107050000D03*
X112840000Y-109590000D03*
X112840000Y-107050000D03*
X115380000Y-109590000D03*
X115380000Y-107050000D03*
X117920000Y-109590000D03*
X117920000Y-107050000D03*
X120460000Y-109590000D03*
D11*
X120460000Y-107050000D03*
%TD*%
D12*
%TO.C,RV4*%
X117160000Y-113450000D03*
X117160000Y-123050000D03*
D13*
X109660000Y-115750000D03*
D14*
X109660000Y-118250000D03*
X109660000Y-120750000D03*
%TD*%
D12*
%TO.C,RV3*%
X117160000Y-93450000D03*
X117160000Y-103050000D03*
D13*
X109660000Y-95750000D03*
D14*
X109660000Y-98250000D03*
X109660000Y-100750000D03*
%TD*%
D12*
%TO.C,RV2*%
X117160000Y-73450000D03*
X117160000Y-83050000D03*
D13*
X109660000Y-75750000D03*
D14*
X109660000Y-78250000D03*
X109660000Y-80750000D03*
%TD*%
D12*
%TO.C,RV1*%
X117160000Y-53450000D03*
X117160000Y-63050000D03*
D13*
X109660000Y-55750000D03*
D14*
X109660000Y-58250000D03*
X109660000Y-60750000D03*
%TD*%
D15*
%TO.C,R3*%
X124460000Y-116355000D03*
D16*
X124460000Y-118255000D03*
%TD*%
D17*
%TO.C,J3*%
X120512800Y-133250000D03*
X111953000Y-133250000D03*
X122925800Y-133250000D03*
%TD*%
%TO.C,J1*%
X120512800Y-143250000D03*
X111953000Y-143250000D03*
X122925800Y-143250000D03*
%TD*%
D14*
%TO.C,D2*%
X124395000Y-136985000D03*
D13*
X124395000Y-139525000D03*
%TD*%
D18*
%TO.C,D1*%
X124460000Y-109913532D03*
D19*
X124460000Y-112453532D03*
%TD*%
D20*
%TO.C,C6*%
X123787400Y-100822598D03*
D21*
X123787400Y-102822598D03*
%TD*%
D20*
%TO.C,C2*%
X123587400Y-123077398D03*
D21*
X123587400Y-121077398D03*
%TD*%
M02*
