M48
; DRILL file {KiCad 8.0.0} date 2024-06-15T01:22:55+0200
; FORMAT={-:-/ absolute / metric / decimal}
; #@! TF.CreationDate,2024-06-15T01:22:55+02:00
; #@! TF.GenerationSoftware,Kicad,Pcbnew,8.0.0
; #@! TF.FileFunction,Plated,1,2,PTH
FMAT,2
METRIC
; #@! TA.AperFunction,Plated,PTH,ViaDrill
T1C0.300
; #@! TA.AperFunction,Plated,PTH,ComponentDrill
T2C0.600
; #@! TA.AperFunction,Plated,PTH,ComponentDrill
T3C0.700
; #@! TA.AperFunction,Plated,PTH,ComponentDrill
T4C0.889
; #@! TA.AperFunction,Plated,PTH,ComponentDrill
T5C0.900
; #@! TA.AperFunction,Plated,PTH,ComponentDrill
T6C1.000
; #@! TA.AperFunction,Plated,PTH,ComponentDrill
T7C1.100
; #@! TA.AperFunction,Plated,PTH,ComponentDrill
T8C1.143
%
G90
G05
T1
X108.86Y-124.45
X109.66Y-92.575
X109.81Y-82.825
X109.86Y-72.95
X110.36Y-111.6
X110.41Y-103.675
X110.66Y-87.05
X111.06Y-70.85
X111.96Y-51.65
X111.96Y-64.85
X112.26Y-77.45
X112.46Y-80.05
X112.76Y-112.35
X112.76Y-122.15
X112.835Y-94.25
X113.26Y-101.55
X113.36Y-82.95
X113.96Y-87.95
X114.26Y-135.95
X114.46Y-75.25
X114.76Y-64.65
X114.86Y-85.95
X115.46Y-91.15
X116.36Y-98.55
X116.46Y-57.05
X116.56Y-78.05
X116.96Y-70.45
X116.96Y-80.25
X117.26Y-96.65
X118.16Y-77.45
X118.46Y-89.05
X120.06Y-86.95
X120.36Y-75.15
X120.46Y-102.25
X120.56Y-118.15
X121.26Y-90.15
X121.36Y-71.25
X121.96Y-56.85
X122.16Y-86.35
X122.26Y-93.05
X122.835Y-98.55
X122.96Y-106.05
X123.26Y-80.15
X123.56Y-73.85
X123.66Y-89.45
X124.66Y-67.35
X125.26Y-69.55
X125.36Y-84.55
T2
X123.587Y-121.077
X123.587Y-123.077
X123.787Y-100.823
X123.787Y-102.823
T3
X124.46Y-116.355
X124.46Y-118.255
T4
X122.926Y-133.25
X122.926Y-143.25
T5
X124.395Y-136.985
X124.395Y-139.525
T6
X109.66Y-55.75
X109.66Y-58.25
X109.66Y-60.75
X109.66Y-75.75
X109.66Y-78.25
X109.66Y-80.75
X109.66Y-95.75
X109.66Y-98.25
X109.66Y-100.75
X109.66Y-115.75
X109.66Y-118.25
X109.66Y-120.75
X110.3Y-107.05
X110.3Y-109.59
X112.84Y-107.05
X112.84Y-109.59
X115.38Y-107.05
X115.38Y-109.59
X117.92Y-107.05
X117.92Y-109.59
X120.46Y-107.05
X120.46Y-109.59
T7
X124.46Y-109.914
X124.46Y-112.454
T8
X111.953Y-133.25
X111.953Y-143.25
X120.513Y-133.25
X120.513Y-143.25
T7
G00X116.81Y-53.45
M15
G01X117.51Y-53.45
M16
G05
G00X116.81Y-63.05
M15
G01X117.51Y-63.05
M16
G05
G00X116.81Y-73.45
M15
G01X117.51Y-73.45
M16
G05
G00X116.81Y-83.05
M15
G01X117.51Y-83.05
M16
G05
G00X116.81Y-93.45
M15
G01X117.51Y-93.45
M16
G05
G00X116.81Y-103.05
M15
G01X117.51Y-103.05
M16
G05
G00X116.81Y-113.45
M15
G01X117.51Y-113.45
M16
G05
G00X116.81Y-123.05
M15
G01X117.51Y-123.05
M16
G05
M30
