%TF.GenerationSoftware,KiCad,Pcbnew,8.0.0*%
%TF.CreationDate,2024-06-15T01:22:53+02:00*%
%TF.ProjectId,feitw,66656974-772e-46b6-9963-61645f706362,rev?*%
%TF.SameCoordinates,Original*%
%TF.FileFunction,Copper,L1,Top*%
%TF.FilePolarity,Positive*%
%FSLAX46Y46*%
G04 Gerber Fmt 4.6, Leading zero omitted, Abs format (unit mm)*
G04 Created by KiCad (PCBNEW 8.0.0) date 2024-06-15 01:22:53*
%MOMM*%
%LPD*%
G01*
G04 APERTURE LIST*
%TA.AperFunction,ComponentPad*%
%ADD10O,1.700000X1.700000*%
%TD*%
%TA.AperFunction,ComponentPad*%
%ADD11R,1.700000X1.700000*%
%TD*%
%TA.AperFunction,ComponentPad*%
%ADD12O,3.240000X2.720000*%
%TD*%
%TA.AperFunction,ComponentPad*%
%ADD13R,1.800000X1.800000*%
%TD*%
%TA.AperFunction,ComponentPad*%
%ADD14C,1.800000*%
%TD*%
%TA.AperFunction,ComponentPad*%
%ADD15O,1.400000X1.400000*%
%TD*%
%TA.AperFunction,ComponentPad*%
%ADD16C,1.400000*%
%TD*%
%TA.AperFunction,ComponentPad*%
%ADD17C,1.930400*%
%TD*%
%TA.AperFunction,ComponentPad*%
%ADD18O,2.200000X2.200000*%
%TD*%
%TA.AperFunction,ComponentPad*%
%ADD19R,2.200000X2.200000*%
%TD*%
%TA.AperFunction,ComponentPad*%
%ADD20C,1.200000*%
%TD*%
%TA.AperFunction,ComponentPad*%
%ADD21R,1.200000X1.200000*%
%TD*%
%TA.AperFunction,ViaPad*%
%ADD22C,0.600000*%
%TD*%
%TA.AperFunction,Conductor*%
%ADD23C,0.200000*%
%TD*%
G04 APERTURE END LIST*
D10*
%TO.P,J2,10,-12V*%
%TO.N,unconnected-(J2--12V-Pad10)*%
X110300000Y-109590000D03*
%TO.P,J2,9,-12V*%
%TO.N,unconnected-(J2--12V-Pad9)*%
X110300000Y-107050000D03*
%TO.P,J2,8,GND*%
%TO.N,GND*%
X112840000Y-109590000D03*
%TO.P,J2,7,GND*%
X112840000Y-107050000D03*
%TO.P,J2,6,GND*%
X115380000Y-109590000D03*
%TO.P,J2,5,GND*%
X115380000Y-107050000D03*
%TO.P,J2,4,GND*%
X117920000Y-109590000D03*
%TO.P,J2,3,GND*%
X117920000Y-107050000D03*
%TO.P,J2,2,+12V*%
%TO.N,Net-(D1-A)*%
X120460000Y-109590000D03*
D11*
%TO.P,J2,1,+12V*%
X120460000Y-107050000D03*
%TD*%
D12*
%TO.P,RV4,*%
%TO.N,*%
X117160000Y-113450000D03*
X117160000Y-123050000D03*
D13*
%TO.P,RV4,1,1*%
%TO.N,Net-(R14-Pad2)*%
X109660000Y-115750000D03*
D14*
%TO.P,RV4,2,2*%
%TO.N,Net-(D8-K)*%
X109660000Y-118250000D03*
%TO.P,RV4,3,3*%
X109660000Y-120750000D03*
%TD*%
D12*
%TO.P,RV3,*%
%TO.N,*%
X117160000Y-93450000D03*
X117160000Y-103050000D03*
D13*
%TO.P,RV3,1,1*%
%TO.N,Net-(U1-DIS)*%
X109660000Y-95750000D03*
D14*
%TO.P,RV3,2,2*%
%TO.N,Net-(U2A-+)*%
X109660000Y-98250000D03*
%TO.P,RV3,3,3*%
%TO.N,Net-(R15-Pad1)*%
X109660000Y-100750000D03*
%TD*%
D12*
%TO.P,RV2,*%
%TO.N,*%
X117160000Y-73450000D03*
X117160000Y-83050000D03*
D13*
%TO.P,RV2,1,1*%
%TO.N,Net-(R13-Pad2)*%
X109660000Y-75750000D03*
D14*
%TO.P,RV2,2,2*%
%TO.N,Net-(D7-K)*%
X109660000Y-78250000D03*
%TO.P,RV2,3,3*%
X109660000Y-80750000D03*
%TD*%
D12*
%TO.P,RV1,*%
%TO.N,*%
X117160000Y-53450000D03*
X117160000Y-63050000D03*
D13*
%TO.P,RV1,1,1*%
%TO.N,Net-(R1-Pad2)*%
X109660000Y-55750000D03*
D14*
%TO.P,RV1,2,2*%
%TO.N,Net-(D6-A)*%
X109660000Y-58250000D03*
%TO.P,RV1,3,3*%
X109660000Y-60750000D03*
%TD*%
D15*
%TO.P,R3,2*%
%TO.N,Net-(D1-K)*%
X124460000Y-116355000D03*
D16*
%TO.P,R3,1*%
%TO.N,+12V*%
X124460000Y-118255000D03*
%TD*%
D17*
%TO.P,J3,TN*%
%TO.N,unconnected-(J3-PadTN)*%
X120512800Y-133250000D03*
%TO.P,J3,T*%
%TO.N,Net-(J3-PadT)*%
X111953000Y-133250000D03*
%TO.P,J3,S*%
%TO.N,GND*%
X122925800Y-133250000D03*
%TD*%
%TO.P,J1,TN*%
%TO.N,unconnected-(J1-PadTN)*%
X120512800Y-143250000D03*
%TO.P,J1,T*%
%TO.N,Net-(Q4-B)*%
X111953000Y-143250000D03*
%TO.P,J1,S*%
%TO.N,GND*%
X122925800Y-143250000D03*
%TD*%
D14*
%TO.P,D2,2,A*%
%TO.N,+12V*%
X124395000Y-136985000D03*
D13*
%TO.P,D2,1,K*%
%TO.N,Net-(D2-K)*%
X124395000Y-139525000D03*
%TD*%
D18*
%TO.P,D1,2,A*%
%TO.N,Net-(D1-A)*%
X124460000Y-109913532D03*
D19*
%TO.P,D1,1,K*%
%TO.N,Net-(D1-K)*%
X124460000Y-112453532D03*
%TD*%
D20*
%TO.P,C6,2*%
%TO.N,GND*%
X123787400Y-100822598D03*
D21*
%TO.P,C6,1*%
%TO.N,Net-(D6-K)*%
X123787400Y-102822598D03*
%TD*%
D20*
%TO.P,C2,2*%
%TO.N,GND*%
X123587400Y-123077398D03*
D21*
%TO.P,C2,1*%
%TO.N,+12V*%
X123587400Y-121077398D03*
%TD*%
D22*
%TO.N,GND*%
X124660000Y-67350000D03*
X109810000Y-82825000D03*
X109660000Y-92575000D03*
X122835000Y-98550000D03*
X110410000Y-103675000D03*
X110360000Y-111600000D03*
X112760000Y-112350000D03*
X111960000Y-51650000D03*
X121960000Y-56850000D03*
X114760000Y-64650000D03*
X116960000Y-80250000D03*
X120360000Y-75150000D03*
X123560000Y-73850000D03*
X123260000Y-80150000D03*
X122160000Y-86350000D03*
X123660000Y-89450000D03*
X115460000Y-91150000D03*
X113360000Y-82950000D03*
X108860000Y-124450000D03*
X112760000Y-122150000D03*
X120560000Y-118150000D03*
X120460000Y-102250000D03*
X122960000Y-106050000D03*
X117260000Y-96650000D03*
X109860000Y-72950000D03*
X116960000Y-70450000D03*
X125360000Y-84550000D03*
X120060000Y-86950000D03*
X114860000Y-85950000D03*
%TO.N,Net-(U2B--)*%
X114260000Y-135950000D03*
X116360000Y-98550000D03*
%TO.N,Net-(R13-Pad2)*%
X110660000Y-87050000D03*
X113960000Y-87950000D03*
X122260000Y-93050000D03*
%TO.N,Net-(D6-K)*%
X113260000Y-101550000D03*
X112460000Y-80050000D03*
%TO.N,Net-(U1-DIS)*%
X112835000Y-94250000D03*
X116560000Y-78050000D03*
%TO.N,Net-(Q1-C)*%
X118460000Y-89050000D03*
X118160000Y-77450000D03*
%TO.N,Net-(U1-Q)*%
X121360000Y-71250000D03*
X116460000Y-57050000D03*
%TO.N,Net-(J3-PadT)*%
X111060000Y-70850000D03*
%TO.N,Net-(D6-K)*%
X112260000Y-77450000D03*
X111960000Y-64850000D03*
%TO.N,+12V*%
X125260000Y-69550000D03*
X114460000Y-75250000D03*
X121260000Y-90150000D03*
%TD*%
D23*
%TO.N,Net-(U1-DIS)*%
X112660000Y-81450000D02*
X116060000Y-78050000D01*
X112660000Y-94075000D02*
X112660000Y-81450000D01*
X116060000Y-78050000D02*
X116560000Y-78050000D01*
X112835000Y-94250000D02*
X112660000Y-94075000D01*
%TO.N,Net-(U2B--)*%
X114360000Y-135950000D02*
X114260000Y-135850000D01*
X114260000Y-135950000D02*
X114360000Y-135950000D01*
X114260000Y-135850000D02*
X114260000Y-135950000D01*
X114230000Y-135820000D02*
X114260000Y-135850000D01*
X114230000Y-100680000D02*
X114230000Y-135820000D01*
X116360000Y-98550000D02*
X114230000Y-100680000D01*
%TO.N,Net-(D6-A)*%
X109660000Y-60750000D02*
X109660000Y-58250000D01*
%TO.N,Net-(R13-Pad2)*%
X110860000Y-76950000D02*
X109660000Y-75750000D01*
X110860000Y-86850000D02*
X110860000Y-76950000D01*
X110660000Y-87050000D02*
X110860000Y-86850000D01*
X117800000Y-91790000D02*
X113960000Y-87950000D01*
X121000000Y-91790000D02*
X117800000Y-91790000D01*
X122260000Y-93050000D02*
X121000000Y-91790000D01*
%TO.N,+12V*%
X114600000Y-75110000D02*
X118900000Y-75110000D01*
X114460000Y-75250000D02*
X114600000Y-75110000D01*
X121260000Y-90150000D02*
X121260000Y-77470000D01*
X118900000Y-75110000D02*
X124460000Y-69550000D01*
X121260000Y-77470000D02*
X118900000Y-75110000D01*
X124460000Y-69550000D02*
X125260000Y-69550000D01*
%TO.N,Net-(Q1-C)*%
X119080000Y-88430000D02*
X118460000Y-89050000D01*
X119080000Y-78370000D02*
X119080000Y-88430000D01*
X118160000Y-77450000D02*
X119080000Y-78370000D01*
%TO.N,Net-(D6-K)*%
X112235000Y-100525000D02*
X113260000Y-101550000D01*
X112460000Y-80050000D02*
X112235000Y-80275000D01*
X112235000Y-80275000D02*
X112235000Y-100525000D01*
%TO.N,Net-(U1-Q)*%
X121360000Y-61950000D02*
X121360000Y-71250000D01*
X116460000Y-57050000D02*
X121360000Y-61950000D01*
%TO.N,Net-(J3-PadT)*%
X111450000Y-132747000D02*
X111953000Y-133250000D01*
X111450000Y-71240000D02*
X111450000Y-132747000D01*
X111060000Y-70850000D02*
X111450000Y-71240000D01*
%TO.N,Net-(D6-K)*%
X112260000Y-77450000D02*
X112160000Y-77350000D01*
X111960000Y-77150000D02*
X112260000Y-77450000D01*
X111960000Y-64850000D02*
X111960000Y-77150000D01*
%TO.N,+12V*%
X125260000Y-69550000D02*
X125160000Y-69650000D01*
%TO.N,Net-(D7-K)*%
X109660000Y-78250000D02*
X109660000Y-80750000D01*
%TO.N,+12V*%
X125295000Y-136085000D02*
X125295000Y-122784998D01*
X124395000Y-136985000D02*
X125295000Y-136085000D01*
X125295000Y-122784998D02*
X123587400Y-121077398D01*
%TO.N,Net-(D8-K)*%
X109660000Y-119650000D02*
X109660000Y-120750000D01*
X109660000Y-118250000D02*
X109660000Y-119650000D01*
%TO.N,+12V*%
X125860000Y-94750000D02*
X121260000Y-90150000D01*
X124460000Y-118255000D02*
X125860000Y-116855000D01*
X125860000Y-116855000D02*
X125860000Y-94750000D01*
%TO.N,Net-(D1-K)*%
X124460000Y-112453532D02*
X124460000Y-116355000D01*
%TO.N,Net-(D1-A)*%
X124136468Y-109590000D02*
X124460000Y-109913532D01*
X120460000Y-109590000D02*
X124136468Y-109590000D01*
X120460000Y-107050000D02*
X120460000Y-109590000D01*
%TO.N,+12V*%
X123587400Y-119127600D02*
X124460000Y-118255000D01*
X123587400Y-121077398D02*
X123587400Y-119127600D01*
%TD*%
%TA.AperFunction,Conductor*%
%TO.N,GND*%
G36*
X118170000Y-110920633D02*
G01*
X118383483Y-110863433D01*
X118383492Y-110863429D01*
X118597578Y-110763600D01*
X118791082Y-110628105D01*
X118958105Y-110461082D01*
X119088119Y-110275405D01*
X119142696Y-110231781D01*
X119212195Y-110224588D01*
X119274549Y-110256110D01*
X119291269Y-110275405D01*
X119421505Y-110461401D01*
X119588599Y-110628495D01*
X119608445Y-110642391D01*
X119782165Y-110764032D01*
X119782167Y-110764033D01*
X119782170Y-110764035D01*
X119996337Y-110863903D01*
X120224592Y-110925063D01*
X120412918Y-110941539D01*
X120459999Y-110945659D01*
X120460000Y-110945659D01*
X120460001Y-110945659D01*
X120499234Y-110942226D01*
X120695408Y-110925063D01*
X120923663Y-110863903D01*
X121137830Y-110764035D01*
X121331401Y-110628495D01*
X121498495Y-110461401D01*
X121634035Y-110267830D01*
X121636707Y-110262097D01*
X121682878Y-110209658D01*
X121749091Y-110190500D01*
X122782762Y-110190500D01*
X122849801Y-110210185D01*
X122895556Y-110262989D01*
X122903336Y-110285553D01*
X122933126Y-110409642D01*
X123029533Y-110642391D01*
X123110520Y-110774548D01*
X123128765Y-110841994D01*
X123107649Y-110908596D01*
X123079105Y-110938604D01*
X123002452Y-110995987D01*
X122916206Y-111111196D01*
X122916202Y-111111203D01*
X122865908Y-111246049D01*
X122859501Y-111305648D01*
X122859500Y-111305667D01*
X122859500Y-113601402D01*
X122859501Y-113601408D01*
X122865908Y-113661015D01*
X122916202Y-113795860D01*
X122916206Y-113795867D01*
X123002452Y-113911076D01*
X123002455Y-113911079D01*
X123117664Y-113997325D01*
X123117671Y-113997329D01*
X123162618Y-114014093D01*
X123252517Y-114047623D01*
X123312127Y-114054032D01*
X123735500Y-114054031D01*
X123802539Y-114073715D01*
X123848294Y-114126519D01*
X123859500Y-114178031D01*
X123859500Y-115245754D01*
X123839815Y-115312793D01*
X123800778Y-115351181D01*
X123733436Y-115392877D01*
X123569020Y-115542761D01*
X123434943Y-115720308D01*
X123434938Y-115720316D01*
X123335775Y-115919461D01*
X123335769Y-115919476D01*
X123274885Y-116133462D01*
X123274884Y-116133464D01*
X123254357Y-116354999D01*
X123254357Y-116355000D01*
X123274884Y-116576535D01*
X123274885Y-116576537D01*
X123335769Y-116790523D01*
X123335775Y-116790538D01*
X123434938Y-116989683D01*
X123434943Y-116989691D01*
X123569021Y-117167238D01*
X123569026Y-117167243D01*
X123619617Y-117213364D01*
X123655898Y-117273076D01*
X123654137Y-117342923D01*
X123619617Y-117396636D01*
X123569026Y-117442756D01*
X123569021Y-117442761D01*
X123434943Y-117620308D01*
X123434938Y-117620316D01*
X123335775Y-117819461D01*
X123335769Y-117819476D01*
X123274885Y-118033462D01*
X123274884Y-118033464D01*
X123254357Y-118254999D01*
X123254357Y-118255000D01*
X123274885Y-118476537D01*
X123280270Y-118495463D01*
X123279683Y-118565330D01*
X123248687Y-118617077D01*
X123218686Y-118647078D01*
X123106881Y-118758882D01*
X123106879Y-118758884D01*
X123104039Y-118763804D01*
X123074726Y-118814577D01*
X123027823Y-118895815D01*
X122986899Y-119048543D01*
X122986899Y-119048545D01*
X122986899Y-119216646D01*
X122986900Y-119216659D01*
X122986900Y-119860421D01*
X122967215Y-119927460D01*
X122914411Y-119973215D01*
X122887265Y-119980664D01*
X122887468Y-119981522D01*
X122879920Y-119983305D01*
X122745071Y-120033600D01*
X122745064Y-120033604D01*
X122629855Y-120119850D01*
X122629852Y-120119853D01*
X122543606Y-120235062D01*
X122543602Y-120235069D01*
X122493308Y-120369915D01*
X122486901Y-120429514D01*
X122486901Y-120429521D01*
X122486900Y-120429533D01*
X122486900Y-121725268D01*
X122486901Y-121725274D01*
X122493308Y-121784881D01*
X122543602Y-121919726D01*
X122543606Y-121919733D01*
X122629852Y-122034942D01*
X122629855Y-122034945D01*
X122745064Y-122121191D01*
X122745071Y-122121195D01*
X122879916Y-122171489D01*
X122905819Y-122174273D01*
X122939527Y-122177898D01*
X122990092Y-122177897D01*
X123057129Y-122197580D01*
X123077772Y-122214216D01*
X123587400Y-122723845D01*
X123646098Y-122782543D01*
X123626896Y-122777398D01*
X123547904Y-122777398D01*
X123471604Y-122797842D01*
X123403195Y-122837338D01*
X123347340Y-122893193D01*
X123307844Y-122961602D01*
X123287400Y-123037902D01*
X123287400Y-123116894D01*
X123307844Y-123193194D01*
X123347340Y-123261603D01*
X123403195Y-123317458D01*
X123471604Y-123356954D01*
X123547904Y-123377398D01*
X123626896Y-123377398D01*
X123703196Y-123356954D01*
X123771605Y-123317458D01*
X123827460Y-123261603D01*
X123866956Y-123193194D01*
X123887400Y-123116894D01*
X123887400Y-123037902D01*
X123882254Y-123018699D01*
X124524865Y-123661310D01*
X124561927Y-123658742D01*
X124630167Y-123673744D01*
X124679463Y-123723259D01*
X124694500Y-123782445D01*
X124694500Y-135468705D01*
X124674815Y-135535744D01*
X124622011Y-135581499D01*
X124552853Y-135591443D01*
X124550093Y-135591014D01*
X124511051Y-135584500D01*
X124511049Y-135584500D01*
X124278951Y-135584500D01*
X124239915Y-135591014D01*
X124050015Y-135622702D01*
X123830504Y-135698061D01*
X123830495Y-135698064D01*
X123626371Y-135808531D01*
X123626365Y-135808535D01*
X123443222Y-135951081D01*
X123443219Y-135951084D01*
X123286016Y-136121852D01*
X123159075Y-136316151D01*
X123065842Y-136528699D01*
X123008866Y-136753691D01*
X123008864Y-136753702D01*
X122989700Y-136984993D01*
X122989700Y-136985006D01*
X123008864Y-137216297D01*
X123008866Y-137216308D01*
X123065842Y-137441300D01*
X123159075Y-137653848D01*
X123286016Y-137848147D01*
X123286019Y-137848151D01*
X123286021Y-137848153D01*
X123380803Y-137951114D01*
X123411724Y-138013767D01*
X123403864Y-138083193D01*
X123359716Y-138137348D01*
X123332906Y-138151277D01*
X123252669Y-138181203D01*
X123252664Y-138181206D01*
X123137455Y-138267452D01*
X123137452Y-138267455D01*
X123051206Y-138382664D01*
X123051202Y-138382671D01*
X123000908Y-138517517D01*
X122994501Y-138577116D01*
X122994501Y-138577123D01*
X122994500Y-138577135D01*
X122994500Y-140472870D01*
X122994501Y-140472876D01*
X123000908Y-140532483D01*
X123051202Y-140667328D01*
X123051206Y-140667335D01*
X123137452Y-140782544D01*
X123137455Y-140782547D01*
X123252664Y-140868793D01*
X123252671Y-140868797D01*
X123387517Y-140919091D01*
X123387516Y-140919091D01*
X123394444Y-140919835D01*
X123447127Y-140925500D01*
X125342872Y-140925499D01*
X125402483Y-140919091D01*
X125537331Y-140868796D01*
X125652546Y-140782546D01*
X125738796Y-140667331D01*
X125789091Y-140532483D01*
X125795500Y-140472873D01*
X125795499Y-138577128D01*
X125789091Y-138517517D01*
X125738796Y-138382669D01*
X125738795Y-138382668D01*
X125738793Y-138382664D01*
X125652547Y-138267455D01*
X125652544Y-138267452D01*
X125537335Y-138181206D01*
X125537328Y-138181202D01*
X125457094Y-138151277D01*
X125401160Y-138109406D01*
X125376743Y-138043941D01*
X125391595Y-137975668D01*
X125409190Y-137951121D01*
X125503979Y-137848153D01*
X125630924Y-137653849D01*
X125724157Y-137441300D01*
X125781134Y-137216305D01*
X125800300Y-136985000D01*
X125800300Y-136984993D01*
X125781135Y-136753702D01*
X125781131Y-136753682D01*
X125736680Y-136578153D01*
X125739304Y-136508333D01*
X125769207Y-136460027D01*
X125775520Y-136453716D01*
X125825639Y-136366904D01*
X125854577Y-136316785D01*
X125895500Y-136164058D01*
X125895500Y-136005943D01*
X125895500Y-122705941D01*
X125854577Y-122553214D01*
X125854577Y-122553213D01*
X125854577Y-122553212D01*
X125825639Y-122503093D01*
X125825637Y-122503090D01*
X125821452Y-122495841D01*
X125775520Y-122416282D01*
X125663716Y-122304478D01*
X125663715Y-122304477D01*
X125659385Y-122300147D01*
X125659374Y-122300137D01*
X124724218Y-121364981D01*
X124690733Y-121303658D01*
X124687899Y-121277300D01*
X124687899Y-120429527D01*
X124687898Y-120429521D01*
X124687897Y-120429514D01*
X124681491Y-120369915D01*
X124631196Y-120235067D01*
X124631195Y-120235066D01*
X124631193Y-120235062D01*
X124544947Y-120119853D01*
X124544944Y-120119850D01*
X124429735Y-120033604D01*
X124429728Y-120033600D01*
X124294882Y-119983306D01*
X124287338Y-119981524D01*
X124287874Y-119979251D01*
X124234088Y-119956969D01*
X124194243Y-119899575D01*
X124187900Y-119860422D01*
X124187900Y-119574758D01*
X124207585Y-119507719D01*
X124260389Y-119461964D01*
X124329547Y-119452020D01*
X124334657Y-119452864D01*
X124348757Y-119455500D01*
X124348760Y-119455500D01*
X124571241Y-119455500D01*
X124571243Y-119455500D01*
X124789940Y-119414618D01*
X124997401Y-119334247D01*
X125186562Y-119217124D01*
X125350981Y-119067236D01*
X125485058Y-118889689D01*
X125584229Y-118690528D01*
X125645115Y-118476536D01*
X125665643Y-118255000D01*
X125645115Y-118033464D01*
X125639729Y-118014534D01*
X125640315Y-117944669D01*
X125671312Y-117892921D01*
X125957820Y-117606414D01*
X126019142Y-117572930D01*
X126088834Y-117577914D01*
X126144767Y-117619786D01*
X126169184Y-117685250D01*
X126169500Y-117694096D01*
X126169500Y-147575500D01*
X126149815Y-147642539D01*
X126097011Y-147688294D01*
X126045500Y-147699500D01*
X108274500Y-147699500D01*
X108207461Y-147679815D01*
X108161706Y-147627011D01*
X108150500Y-147575500D01*
X108150500Y-143250005D01*
X110482277Y-143250005D01*
X110502335Y-143492069D01*
X110561965Y-143727543D01*
X110659537Y-143949986D01*
X110792390Y-144153334D01*
X110792393Y-144153337D01*
X110956906Y-144332046D01*
X110956909Y-144332048D01*
X110956912Y-144332051D01*
X111148582Y-144481234D01*
X111148588Y-144481238D01*
X111148591Y-144481240D01*
X111323873Y-144576098D01*
X111361372Y-144596392D01*
X111362217Y-144596849D01*
X111591959Y-144675719D01*
X111831549Y-144715700D01*
X111831550Y-144715700D01*
X112074450Y-144715700D01*
X112074451Y-144715700D01*
X112314041Y-144675719D01*
X112543783Y-144596849D01*
X112757409Y-144481240D01*
X112757944Y-144480824D01*
X112821776Y-144431140D01*
X112949094Y-144332046D01*
X113113607Y-144153337D01*
X113246462Y-143949987D01*
X113344035Y-143727543D01*
X113403664Y-143492073D01*
X113423723Y-143250005D01*
X119042077Y-143250005D01*
X119062135Y-143492069D01*
X119121765Y-143727543D01*
X119219337Y-143949986D01*
X119352190Y-144153334D01*
X119352193Y-144153337D01*
X119516706Y-144332046D01*
X119516709Y-144332048D01*
X119516712Y-144332051D01*
X119708382Y-144481234D01*
X119708388Y-144481238D01*
X119708391Y-144481240D01*
X119883673Y-144576098D01*
X119921172Y-144596392D01*
X119922017Y-144596849D01*
X120151759Y-144675719D01*
X120391349Y-144715700D01*
X120391350Y-144715700D01*
X120634250Y-144715700D01*
X120634251Y-144715700D01*
X120873841Y-144675719D01*
X121103583Y-144596849D01*
X121317209Y-144481240D01*
X121317744Y-144480824D01*
X121381576Y-144431140D01*
X121508894Y-144332046D01*
X121673407Y-144153337D01*
X121674847Y-144151132D01*
X121690977Y-144131269D01*
X122488152Y-143334094D01*
X122511592Y-143421571D01*
X122570111Y-143522930D01*
X122652870Y-143605689D01*
X122754229Y-143664208D01*
X122841705Y-143687647D01*
X122080540Y-144448811D01*
X122121667Y-144480822D01*
X122121670Y-144480824D01*
X122335212Y-144596386D01*
X122335226Y-144596392D01*
X122564879Y-144675233D01*
X122804390Y-144715200D01*
X123047210Y-144715200D01*
X123286720Y-144675233D01*
X123516373Y-144596392D01*
X123516387Y-144596386D01*
X123729931Y-144480823D01*
X123729937Y-144480818D01*
X123771058Y-144448812D01*
X123771059Y-144448811D01*
X123009894Y-143687647D01*
X123097371Y-143664208D01*
X123198730Y-143605689D01*
X123281489Y-143522930D01*
X123340008Y-143421571D01*
X123363447Y-143334094D01*
X124124092Y-144094740D01*
X124218821Y-143949749D01*
X124316361Y-143727378D01*
X124375969Y-143491994D01*
X124375971Y-143491982D01*
X124396022Y-143250005D01*
X124396022Y-143249994D01*
X124375971Y-143008017D01*
X124375969Y-143008005D01*
X124316361Y-142772621D01*
X124218823Y-142550255D01*
X124124092Y-142405258D01*
X123363447Y-143165904D01*
X123340008Y-143078429D01*
X123281489Y-142977070D01*
X123198730Y-142894311D01*
X123097371Y-142835792D01*
X123009894Y-142812352D01*
X123771058Y-142051187D01*
X123771058Y-142051185D01*
X123729943Y-142019184D01*
X123729932Y-142019177D01*
X123516387Y-141903613D01*
X123516373Y-141903607D01*
X123286720Y-141824766D01*
X123047210Y-141784800D01*
X122804390Y-141784800D01*
X122564879Y-141824766D01*
X122335226Y-141903607D01*
X122335212Y-141903613D01*
X122121668Y-142019177D01*
X122121665Y-142019179D01*
X122080539Y-142051187D01*
X122841705Y-142812352D01*
X122754229Y-142835792D01*
X122652870Y-142894311D01*
X122570111Y-142977070D01*
X122511592Y-143078429D01*
X122488152Y-143165904D01*
X121690973Y-142368725D01*
X121674848Y-142348869D01*
X121673407Y-142346663D01*
X121508894Y-142167954D01*
X121508889Y-142167950D01*
X121508887Y-142167948D01*
X121317217Y-142018765D01*
X121317211Y-142018761D01*
X121103584Y-141903151D01*
X121103579Y-141903149D01*
X120873843Y-141824281D01*
X120714114Y-141797627D01*
X120634251Y-141784300D01*
X120391349Y-141784300D01*
X120331451Y-141794295D01*
X120151756Y-141824281D01*
X119922020Y-141903149D01*
X119922015Y-141903151D01*
X119708388Y-142018761D01*
X119708382Y-142018765D01*
X119516712Y-142167948D01*
X119516709Y-142167951D01*
X119352190Y-142346665D01*
X119219337Y-142550013D01*
X119121765Y-142772456D01*
X119062135Y-143007930D01*
X119042077Y-143249994D01*
X119042077Y-143250005D01*
X113423723Y-143250005D01*
X113423723Y-143250000D01*
X113403664Y-143007927D01*
X113344035Y-142772457D01*
X113246462Y-142550013D01*
X113115046Y-142348865D01*
X113113609Y-142346665D01*
X113094901Y-142326343D01*
X112949094Y-142167954D01*
X112949089Y-142167950D01*
X112949087Y-142167948D01*
X112757417Y-142018765D01*
X112757411Y-142018761D01*
X112543784Y-141903151D01*
X112543779Y-141903149D01*
X112314043Y-141824281D01*
X112154314Y-141797627D01*
X112074451Y-141784300D01*
X111831549Y-141784300D01*
X111771651Y-141794295D01*
X111591956Y-141824281D01*
X111362220Y-141903149D01*
X111362215Y-141903151D01*
X111148588Y-142018761D01*
X111148582Y-142018765D01*
X110956912Y-142167948D01*
X110956909Y-142167951D01*
X110792390Y-142346665D01*
X110659537Y-142550013D01*
X110561965Y-142772456D01*
X110502335Y-143007930D01*
X110482277Y-143249994D01*
X110482277Y-143250005D01*
X108150500Y-143250005D01*
X108150500Y-121386542D01*
X108170185Y-121319503D01*
X108222989Y-121273748D01*
X108292147Y-121263804D01*
X108355703Y-121292829D01*
X108388056Y-121336732D01*
X108424075Y-121418848D01*
X108551016Y-121613147D01*
X108551019Y-121613151D01*
X108551021Y-121613153D01*
X108708216Y-121783913D01*
X108708219Y-121783915D01*
X108708222Y-121783918D01*
X108891365Y-121926464D01*
X108891371Y-121926468D01*
X108891374Y-121926470D01*
X109095497Y-122036936D01*
X109209487Y-122076068D01*
X109315015Y-122112297D01*
X109315017Y-122112297D01*
X109315019Y-122112298D01*
X109543951Y-122150500D01*
X109543952Y-122150500D01*
X109776048Y-122150500D01*
X109776049Y-122150500D01*
X110004981Y-122112298D01*
X110224503Y-122036936D01*
X110428626Y-121926470D01*
X110611784Y-121783913D01*
X110634270Y-121759486D01*
X110694155Y-121723495D01*
X110763993Y-121725594D01*
X110821610Y-121765117D01*
X110848713Y-121829516D01*
X110849500Y-121843468D01*
X110849500Y-132236243D01*
X110829815Y-132303282D01*
X110816733Y-132320222D01*
X110792393Y-132346663D01*
X110792391Y-132346664D01*
X110792388Y-132346669D01*
X110659537Y-132550013D01*
X110561965Y-132772456D01*
X110502335Y-133007930D01*
X110482277Y-133249994D01*
X110482277Y-133250005D01*
X110502335Y-133492069D01*
X110561965Y-133727543D01*
X110659537Y-133949986D01*
X110792390Y-134153334D01*
X110792393Y-134153337D01*
X110956906Y-134332046D01*
X110956909Y-134332048D01*
X110956912Y-134332051D01*
X111148582Y-134481234D01*
X111148588Y-134481238D01*
X111148591Y-134481240D01*
X111323873Y-134576098D01*
X111361372Y-134596392D01*
X111362217Y-134596849D01*
X111591959Y-134675719D01*
X111831549Y-134715700D01*
X111831550Y-134715700D01*
X112074450Y-134715700D01*
X112074451Y-134715700D01*
X112314041Y-134675719D01*
X112543783Y-134596849D01*
X112757409Y-134481240D01*
X112757944Y-134480824D01*
X112821776Y-134431140D01*
X112949094Y-134332046D01*
X113113607Y-134153337D01*
X113246462Y-133949987D01*
X113344035Y-133727543D01*
X113385294Y-133564613D01*
X113420834Y-133504458D01*
X113483254Y-133473066D01*
X113552737Y-133480404D01*
X113607223Y-133524143D01*
X113629412Y-133590395D01*
X113629500Y-133595054D01*
X113629500Y-135413101D01*
X113610494Y-135479073D01*
X113534211Y-135600477D01*
X113534209Y-135600481D01*
X113474633Y-135770737D01*
X113474630Y-135770750D01*
X113454435Y-135949996D01*
X113454435Y-135950003D01*
X113474630Y-136129249D01*
X113474631Y-136129254D01*
X113534211Y-136299523D01*
X113545057Y-136316784D01*
X113630184Y-136452262D01*
X113757738Y-136579816D01*
X113910478Y-136675789D01*
X114080745Y-136735368D01*
X114080750Y-136735369D01*
X114259996Y-136755565D01*
X114260000Y-136755565D01*
X114260004Y-136755565D01*
X114439249Y-136735369D01*
X114439252Y-136735368D01*
X114439255Y-136735368D01*
X114609522Y-136675789D01*
X114762262Y-136579816D01*
X114889816Y-136452262D01*
X114985789Y-136299522D01*
X115045368Y-136129255D01*
X115065443Y-135951084D01*
X115065565Y-135950003D01*
X115065565Y-135949996D01*
X115045369Y-135770750D01*
X115045368Y-135770745D01*
X115019935Y-135698061D01*
X114985789Y-135600478D01*
X114979842Y-135591014D01*
X114902990Y-135468705D01*
X114889816Y-135447738D01*
X114866819Y-135424741D01*
X114833334Y-135363418D01*
X114830500Y-135337060D01*
X114830500Y-133250005D01*
X119042077Y-133250005D01*
X119062135Y-133492069D01*
X119121765Y-133727543D01*
X119219337Y-133949986D01*
X119352190Y-134153334D01*
X119352193Y-134153337D01*
X119516706Y-134332046D01*
X119516709Y-134332048D01*
X119516712Y-134332051D01*
X119708382Y-134481234D01*
X119708388Y-134481238D01*
X119708391Y-134481240D01*
X119883673Y-134576098D01*
X119921172Y-134596392D01*
X119922017Y-134596849D01*
X120151759Y-134675719D01*
X120391349Y-134715700D01*
X120391350Y-134715700D01*
X120634250Y-134715700D01*
X120634251Y-134715700D01*
X120873841Y-134675719D01*
X121103583Y-134596849D01*
X121317209Y-134481240D01*
X121317744Y-134480824D01*
X121381576Y-134431140D01*
X121508894Y-134332046D01*
X121673407Y-134153337D01*
X121674847Y-134151132D01*
X121690977Y-134131269D01*
X122488152Y-133334094D01*
X122511592Y-133421571D01*
X122570111Y-133522930D01*
X122652870Y-133605689D01*
X122754229Y-133664208D01*
X122841705Y-133687647D01*
X122080540Y-134448811D01*
X122121667Y-134480822D01*
X122121670Y-134480824D01*
X122335212Y-134596386D01*
X122335226Y-134596392D01*
X122564879Y-134675233D01*
X122804390Y-134715200D01*
X123047210Y-134715200D01*
X123286720Y-134675233D01*
X123516373Y-134596392D01*
X123516387Y-134596386D01*
X123729931Y-134480823D01*
X123729937Y-134480818D01*
X123771058Y-134448812D01*
X123771059Y-134448811D01*
X123009894Y-133687647D01*
X123097371Y-133664208D01*
X123198730Y-133605689D01*
X123281489Y-133522930D01*
X123340008Y-133421571D01*
X123363447Y-133334094D01*
X124124092Y-134094740D01*
X124218821Y-133949749D01*
X124316361Y-133727378D01*
X124375969Y-133491994D01*
X124375971Y-133491982D01*
X124396022Y-133250005D01*
X124396022Y-133249994D01*
X124375971Y-133008017D01*
X124375969Y-133008005D01*
X124316361Y-132772621D01*
X124218823Y-132550255D01*
X124124092Y-132405258D01*
X123363447Y-133165904D01*
X123340008Y-133078429D01*
X123281489Y-132977070D01*
X123198730Y-132894311D01*
X123097371Y-132835792D01*
X123009894Y-132812352D01*
X123771058Y-132051187D01*
X123771058Y-132051185D01*
X123729943Y-132019184D01*
X123729932Y-132019177D01*
X123516387Y-131903613D01*
X123516373Y-131903607D01*
X123286720Y-131824766D01*
X123047210Y-131784800D01*
X122804390Y-131784800D01*
X122564879Y-131824766D01*
X122335226Y-131903607D01*
X122335212Y-131903613D01*
X122121668Y-132019177D01*
X122121665Y-132019179D01*
X122080539Y-132051187D01*
X122841705Y-132812352D01*
X122754229Y-132835792D01*
X122652870Y-132894311D01*
X122570111Y-132977070D01*
X122511592Y-133078429D01*
X122488152Y-133165904D01*
X121690973Y-132368725D01*
X121674848Y-132348869D01*
X121673407Y-132346663D01*
X121508894Y-132167954D01*
X121508889Y-132167950D01*
X121508887Y-132167948D01*
X121317217Y-132018765D01*
X121317211Y-132018761D01*
X121103584Y-131903151D01*
X121103579Y-131903149D01*
X120873843Y-131824281D01*
X120713887Y-131797589D01*
X120634251Y-131784300D01*
X120391349Y-131784300D01*
X120331451Y-131794295D01*
X120151756Y-131824281D01*
X119922020Y-131903149D01*
X119922015Y-131903151D01*
X119708388Y-132018761D01*
X119708382Y-132018765D01*
X119516712Y-132167948D01*
X119516709Y-132167951D01*
X119352190Y-132346665D01*
X119219337Y-132550013D01*
X119121765Y-132772456D01*
X119062135Y-133007930D01*
X119042077Y-133249994D01*
X119042077Y-133250005D01*
X114830500Y-133250005D01*
X114830500Y-123456810D01*
X114850185Y-123389771D01*
X114902989Y-123344016D01*
X114972147Y-123334072D01*
X115035703Y-123363097D01*
X115073477Y-123421875D01*
X115074256Y-123424652D01*
X115134456Y-123649320D01*
X115134459Y-123649330D01*
X115227786Y-123874640D01*
X115227791Y-123874651D01*
X115349727Y-124085848D01*
X115349738Y-124085864D01*
X115498199Y-124279343D01*
X115498205Y-124279350D01*
X115670649Y-124451794D01*
X115670655Y-124451799D01*
X115864144Y-124600268D01*
X115864151Y-124600272D01*
X116075348Y-124722208D01*
X116075353Y-124722210D01*
X116075356Y-124722212D01*
X116300679Y-124815544D01*
X116536256Y-124878666D01*
X116778056Y-124910500D01*
X116778063Y-124910500D01*
X117541937Y-124910500D01*
X117541944Y-124910500D01*
X117783744Y-124878666D01*
X118019321Y-124815544D01*
X118244644Y-124722212D01*
X118455856Y-124600268D01*
X118649345Y-124451799D01*
X118821799Y-124279345D01*
X118970268Y-124085856D01*
X119013118Y-124011638D01*
X123006711Y-124011638D01*
X123094985Y-124066295D01*
X123285078Y-124139937D01*
X123485472Y-124177398D01*
X123689328Y-124177398D01*
X123889722Y-124139937D01*
X124079812Y-124066297D01*
X124079816Y-124066295D01*
X124168086Y-124011639D01*
X124168086Y-124011638D01*
X123587401Y-123430951D01*
X123587400Y-123430951D01*
X123006711Y-124011638D01*
X119013118Y-124011638D01*
X119092212Y-123874644D01*
X119185544Y-123649321D01*
X119248666Y-123413744D01*
X119280500Y-123171944D01*
X119280500Y-123077398D01*
X122482687Y-123077398D01*
X122501496Y-123280387D01*
X122501497Y-123280390D01*
X122557283Y-123476461D01*
X122557286Y-123476467D01*
X122648151Y-123658949D01*
X122649933Y-123661309D01*
X123233846Y-123077398D01*
X123233846Y-123077397D01*
X122649933Y-122493485D01*
X122648155Y-122495840D01*
X122648154Y-122495841D01*
X122557286Y-122678328D01*
X122557283Y-122678334D01*
X122501497Y-122874405D01*
X122501496Y-122874408D01*
X122482687Y-123077397D01*
X122482687Y-123077398D01*
X119280500Y-123077398D01*
X119280500Y-122928056D01*
X119248666Y-122686256D01*
X119185544Y-122450679D01*
X119092212Y-122225356D01*
X119092210Y-122225353D01*
X119092208Y-122225348D01*
X118970272Y-122014151D01*
X118970268Y-122014144D01*
X118821799Y-121820655D01*
X118821794Y-121820649D01*
X118649350Y-121648205D01*
X118649343Y-121648199D01*
X118455864Y-121499738D01*
X118455862Y-121499736D01*
X118455856Y-121499732D01*
X118455851Y-121499729D01*
X118455848Y-121499727D01*
X118244651Y-121377791D01*
X118244640Y-121377786D01*
X118019330Y-121284459D01*
X118019323Y-121284457D01*
X118019321Y-121284456D01*
X117783744Y-121221334D01*
X117743333Y-121216013D01*
X117541951Y-121189500D01*
X117541944Y-121189500D01*
X116778056Y-121189500D01*
X116778048Y-121189500D01*
X116547896Y-121219801D01*
X116536256Y-121221334D01*
X116377754Y-121263804D01*
X116300679Y-121284456D01*
X116300669Y-121284459D01*
X116075359Y-121377786D01*
X116075348Y-121377791D01*
X115864151Y-121499727D01*
X115864135Y-121499738D01*
X115670656Y-121648199D01*
X115670649Y-121648205D01*
X115498205Y-121820649D01*
X115498199Y-121820656D01*
X115349738Y-122014135D01*
X115349727Y-122014151D01*
X115227791Y-122225348D01*
X115227786Y-122225359D01*
X115134459Y-122450669D01*
X115134456Y-122450679D01*
X115074274Y-122675283D01*
X115037910Y-122734943D01*
X114975063Y-122765472D01*
X114905688Y-122757177D01*
X114851810Y-122712692D01*
X114830535Y-122646140D01*
X114830500Y-122643189D01*
X114830500Y-113856810D01*
X114850185Y-113789771D01*
X114902989Y-113744016D01*
X114972147Y-113734072D01*
X115035703Y-113763097D01*
X115073477Y-113821875D01*
X115074256Y-113824652D01*
X115134001Y-114047623D01*
X115134456Y-114049320D01*
X115134459Y-114049330D01*
X115227786Y-114274640D01*
X115227791Y-114274651D01*
X115349727Y-114485848D01*
X115349738Y-114485864D01*
X115498199Y-114679343D01*
X115498205Y-114679350D01*
X115670649Y-114851794D01*
X115670655Y-114851799D01*
X115864144Y-115000268D01*
X115864151Y-115000272D01*
X116075348Y-115122208D01*
X116075353Y-115122210D01*
X116075356Y-115122212D01*
X116300679Y-115215544D01*
X116536256Y-115278666D01*
X116778056Y-115310500D01*
X116778063Y-115310500D01*
X117541937Y-115310500D01*
X117541944Y-115310500D01*
X117783744Y-115278666D01*
X118019321Y-115215544D01*
X118244644Y-115122212D01*
X118455856Y-115000268D01*
X118649345Y-114851799D01*
X118821799Y-114679345D01*
X118970268Y-114485856D01*
X119092212Y-114274644D01*
X119185544Y-114049321D01*
X119248666Y-113813744D01*
X119280500Y-113571944D01*
X119280500Y-113328056D01*
X119248666Y-113086256D01*
X119185544Y-112850679D01*
X119092212Y-112625356D01*
X119092210Y-112625353D01*
X119092208Y-112625348D01*
X118970272Y-112414151D01*
X118970268Y-112414144D01*
X118821799Y-112220655D01*
X118821794Y-112220649D01*
X118649350Y-112048205D01*
X118649343Y-112048199D01*
X118455864Y-111899738D01*
X118455862Y-111899736D01*
X118455856Y-111899732D01*
X118455851Y-111899729D01*
X118455848Y-111899727D01*
X118244651Y-111777791D01*
X118244640Y-111777786D01*
X118019330Y-111684459D01*
X118019323Y-111684457D01*
X118019321Y-111684456D01*
X117783744Y-111621334D01*
X117743333Y-111616013D01*
X117541951Y-111589500D01*
X117541944Y-111589500D01*
X116778056Y-111589500D01*
X116778048Y-111589500D01*
X116547896Y-111619801D01*
X116536256Y-111621334D01*
X116300679Y-111684456D01*
X116300669Y-111684459D01*
X116075359Y-111777786D01*
X116075348Y-111777791D01*
X115864151Y-111899727D01*
X115864135Y-111899738D01*
X115670656Y-112048199D01*
X115670649Y-112048205D01*
X115498205Y-112220649D01*
X115498199Y-112220656D01*
X115349738Y-112414135D01*
X115349727Y-112414151D01*
X115227791Y-112625348D01*
X115227786Y-112625359D01*
X115134459Y-112850669D01*
X115134456Y-112850679D01*
X115074274Y-113075283D01*
X115037910Y-113134943D01*
X114975063Y-113165472D01*
X114905688Y-113157177D01*
X114851810Y-113112692D01*
X114830535Y-113046140D01*
X114830500Y-113043189D01*
X114830500Y-111001984D01*
X114850185Y-110934945D01*
X114902989Y-110889190D01*
X114972147Y-110879246D01*
X114986593Y-110882209D01*
X115130000Y-110920634D01*
X115130000Y-110023012D01*
X115187007Y-110055925D01*
X115314174Y-110090000D01*
X115445826Y-110090000D01*
X115572993Y-110055925D01*
X115630000Y-110023012D01*
X115630000Y-110920633D01*
X115843483Y-110863433D01*
X115843492Y-110863429D01*
X116057578Y-110763600D01*
X116251082Y-110628105D01*
X116418105Y-110461082D01*
X116548425Y-110274968D01*
X116603002Y-110231344D01*
X116672501Y-110224151D01*
X116734855Y-110255673D01*
X116751575Y-110274968D01*
X116881894Y-110461082D01*
X117048917Y-110628105D01*
X117242421Y-110763600D01*
X117456507Y-110863429D01*
X117456516Y-110863433D01*
X117670000Y-110920634D01*
X117670000Y-110023012D01*
X117727007Y-110055925D01*
X117854174Y-110090000D01*
X117985826Y-110090000D01*
X118112993Y-110055925D01*
X118170000Y-110023012D01*
X118170000Y-110920633D01*
G37*
%TD.AperFunction*%
%TA.AperFunction,Conductor*%
G36*
X113090000Y-110920633D02*
G01*
X113303483Y-110863433D01*
X113303492Y-110863429D01*
X113453095Y-110793669D01*
X113522173Y-110783177D01*
X113585957Y-110811697D01*
X113624196Y-110870173D01*
X113629500Y-110906051D01*
X113629500Y-132904945D01*
X113609815Y-132971984D01*
X113557011Y-133017739D01*
X113487853Y-133027683D01*
X113424297Y-132998658D01*
X113386523Y-132939880D01*
X113385294Y-132935385D01*
X113375433Y-132896447D01*
X113344035Y-132772457D01*
X113246462Y-132550013D01*
X113115046Y-132348865D01*
X113113609Y-132346665D01*
X113011958Y-132236243D01*
X112949094Y-132167954D01*
X112949089Y-132167950D01*
X112949087Y-132167948D01*
X112757417Y-132018765D01*
X112757411Y-132018761D01*
X112543784Y-131903151D01*
X112543779Y-131903149D01*
X112314043Y-131824281D01*
X112154090Y-131797589D01*
X112091205Y-131767138D01*
X112054765Y-131707523D01*
X112050500Y-131675280D01*
X112050500Y-110906051D01*
X112070185Y-110839012D01*
X112122989Y-110793257D01*
X112192147Y-110783313D01*
X112226905Y-110793669D01*
X112376507Y-110863429D01*
X112376516Y-110863433D01*
X112590000Y-110920634D01*
X112590000Y-110023012D01*
X112647007Y-110055925D01*
X112774174Y-110090000D01*
X112905826Y-110090000D01*
X113032993Y-110055925D01*
X113090000Y-110023012D01*
X113090000Y-110920633D01*
G37*
%TD.AperFunction*%
%TA.AperFunction,Conductor*%
G36*
X108355703Y-101292829D02*
G01*
X108388056Y-101336732D01*
X108424075Y-101418848D01*
X108551016Y-101613147D01*
X108551019Y-101613151D01*
X108551021Y-101613153D01*
X108708216Y-101783913D01*
X108708219Y-101783915D01*
X108708222Y-101783918D01*
X108891365Y-101926464D01*
X108891371Y-101926468D01*
X108891374Y-101926470D01*
X109095497Y-102036936D01*
X109209487Y-102076068D01*
X109315015Y-102112297D01*
X109315017Y-102112297D01*
X109315019Y-102112298D01*
X109543951Y-102150500D01*
X109543952Y-102150500D01*
X109776048Y-102150500D01*
X109776049Y-102150500D01*
X110004981Y-102112298D01*
X110224503Y-102036936D01*
X110428626Y-101926470D01*
X110611784Y-101783913D01*
X110634270Y-101759486D01*
X110694155Y-101723495D01*
X110763993Y-101725594D01*
X110821610Y-101765117D01*
X110848713Y-101829516D01*
X110849500Y-101843468D01*
X110849500Y-105637496D01*
X110829815Y-105704535D01*
X110777011Y-105750290D01*
X110707853Y-105760234D01*
X110693408Y-105757271D01*
X110535416Y-105714939D01*
X110535412Y-105714938D01*
X110535408Y-105714937D01*
X110535406Y-105714936D01*
X110535403Y-105714936D01*
X110300001Y-105694341D01*
X110299999Y-105694341D01*
X110064596Y-105714936D01*
X110064586Y-105714938D01*
X109836344Y-105776094D01*
X109836335Y-105776098D01*
X109622171Y-105875964D01*
X109622169Y-105875965D01*
X109428597Y-106011505D01*
X109261505Y-106178597D01*
X109125965Y-106372169D01*
X109125964Y-106372171D01*
X109026098Y-106586335D01*
X109026094Y-106586344D01*
X108964938Y-106814586D01*
X108964936Y-106814596D01*
X108944341Y-107049999D01*
X108944341Y-107050000D01*
X108964936Y-107285403D01*
X108964938Y-107285413D01*
X109026094Y-107513655D01*
X109026096Y-107513659D01*
X109026097Y-107513663D01*
X109105597Y-107684151D01*
X109125965Y-107727830D01*
X109125967Y-107727834D01*
X109261501Y-107921395D01*
X109261506Y-107921402D01*
X109428597Y-108088493D01*
X109428603Y-108088498D01*
X109614158Y-108218425D01*
X109657783Y-108273002D01*
X109664977Y-108342500D01*
X109633454Y-108404855D01*
X109614158Y-108421575D01*
X109428597Y-108551505D01*
X109261505Y-108718597D01*
X109125965Y-108912169D01*
X109125964Y-108912171D01*
X109026098Y-109126335D01*
X109026094Y-109126344D01*
X108964938Y-109354586D01*
X108964936Y-109354596D01*
X108944341Y-109589999D01*
X108944341Y-109590000D01*
X108964936Y-109825403D01*
X108964938Y-109825413D01*
X109026094Y-110053655D01*
X109026096Y-110053659D01*
X109026097Y-110053663D01*
X109098839Y-110209658D01*
X109125965Y-110267830D01*
X109125967Y-110267834D01*
X109225263Y-110409642D01*
X109261505Y-110461401D01*
X109428599Y-110628495D01*
X109448445Y-110642391D01*
X109622165Y-110764032D01*
X109622167Y-110764033D01*
X109622170Y-110764035D01*
X109836337Y-110863903D01*
X110064592Y-110925063D01*
X110252918Y-110941539D01*
X110299999Y-110945659D01*
X110300000Y-110945659D01*
X110300001Y-110945659D01*
X110339234Y-110942226D01*
X110535408Y-110925063D01*
X110658072Y-110892195D01*
X110693407Y-110882728D01*
X110763257Y-110884391D01*
X110821119Y-110923554D01*
X110848623Y-110987782D01*
X110849500Y-111002503D01*
X110849500Y-114245203D01*
X110829815Y-114312242D01*
X110777011Y-114357997D01*
X110707853Y-114367941D01*
X110682170Y-114361386D01*
X110667484Y-114355909D01*
X110667483Y-114355908D01*
X110607883Y-114349501D01*
X110607881Y-114349500D01*
X110607873Y-114349500D01*
X110607864Y-114349500D01*
X108712129Y-114349500D01*
X108712123Y-114349501D01*
X108652516Y-114355908D01*
X108517671Y-114406202D01*
X108517664Y-114406206D01*
X108402455Y-114492452D01*
X108373766Y-114530776D01*
X108317832Y-114572646D01*
X108248140Y-114577630D01*
X108186818Y-114544144D01*
X108153333Y-114482820D01*
X108150500Y-114456464D01*
X108150500Y-101386542D01*
X108170185Y-101319503D01*
X108222989Y-101273748D01*
X108292147Y-101263804D01*
X108355703Y-101292829D01*
G37*
%TD.AperFunction*%
%TA.AperFunction,Conductor*%
G36*
X113572539Y-109359685D02*
G01*
X113618294Y-109412489D01*
X113629500Y-109464000D01*
X113629500Y-109716000D01*
X113609815Y-109783039D01*
X113557011Y-109828794D01*
X113505500Y-109840000D01*
X113273012Y-109840000D01*
X113305925Y-109782993D01*
X113340000Y-109655826D01*
X113340000Y-109524174D01*
X113305925Y-109397007D01*
X113273012Y-109340000D01*
X113505500Y-109340000D01*
X113572539Y-109359685D01*
G37*
%TD.AperFunction*%
%TA.AperFunction,Conductor*%
G36*
X117454075Y-109397007D02*
G01*
X117420000Y-109524174D01*
X117420000Y-109655826D01*
X117454075Y-109782993D01*
X117486988Y-109840000D01*
X115813012Y-109840000D01*
X115845925Y-109782993D01*
X115880000Y-109655826D01*
X115880000Y-109524174D01*
X115845925Y-109397007D01*
X115813012Y-109340000D01*
X117486988Y-109340000D01*
X117454075Y-109397007D01*
G37*
%TD.AperFunction*%
%TA.AperFunction,Conductor*%
G36*
X114914075Y-109397007D02*
G01*
X114880000Y-109524174D01*
X114880000Y-109655826D01*
X114914075Y-109782993D01*
X114945454Y-109837343D01*
X114887461Y-109820315D01*
X114841706Y-109767511D01*
X114830500Y-109716000D01*
X114830500Y-109464000D01*
X114850185Y-109396961D01*
X114902989Y-109351206D01*
X114945908Y-109341868D01*
X114914075Y-109397007D01*
G37*
%TD.AperFunction*%
%TA.AperFunction,Conductor*%
G36*
X113090000Y-109156988D02*
G01*
X113032993Y-109124075D01*
X112905826Y-109090000D01*
X112774174Y-109090000D01*
X112647007Y-109124075D01*
X112590000Y-109156988D01*
X112590000Y-107483012D01*
X112647007Y-107515925D01*
X112774174Y-107550000D01*
X112905826Y-107550000D01*
X113032993Y-107515925D01*
X113090000Y-107483012D01*
X113090000Y-109156988D01*
G37*
%TD.AperFunction*%
%TA.AperFunction,Conductor*%
G36*
X115630000Y-109156988D02*
G01*
X115572993Y-109124075D01*
X115445826Y-109090000D01*
X115314174Y-109090000D01*
X115187007Y-109124075D01*
X115130000Y-109156988D01*
X115130000Y-107483012D01*
X115187007Y-107515925D01*
X115314174Y-107550000D01*
X115445826Y-107550000D01*
X115572993Y-107515925D01*
X115630000Y-107483012D01*
X115630000Y-109156988D01*
G37*
%TD.AperFunction*%
%TA.AperFunction,Conductor*%
G36*
X118170000Y-109156988D02*
G01*
X118112993Y-109124075D01*
X117985826Y-109090000D01*
X117854174Y-109090000D01*
X117727007Y-109124075D01*
X117670000Y-109156988D01*
X117670000Y-107483012D01*
X117727007Y-107515925D01*
X117854174Y-107550000D01*
X117985826Y-107550000D01*
X118112993Y-107515925D01*
X118170000Y-107483012D01*
X118170000Y-109156988D01*
G37*
%TD.AperFunction*%
%TA.AperFunction,Conductor*%
G36*
X113450532Y-88578194D02*
G01*
X113451842Y-88576111D01*
X113457737Y-88579815D01*
X113457738Y-88579816D01*
X113610478Y-88675789D01*
X113780745Y-88735368D01*
X113867669Y-88745161D01*
X113932080Y-88772226D01*
X113941465Y-88780700D01*
X116578278Y-91417513D01*
X116611763Y-91478836D01*
X116606779Y-91548528D01*
X116564907Y-91604461D01*
X116522690Y-91624969D01*
X116300679Y-91684456D01*
X116300669Y-91684459D01*
X116075359Y-91777786D01*
X116075348Y-91777791D01*
X115864151Y-91899727D01*
X115864135Y-91899738D01*
X115670656Y-92048199D01*
X115670649Y-92048205D01*
X115498205Y-92220649D01*
X115498199Y-92220656D01*
X115349738Y-92414135D01*
X115349727Y-92414151D01*
X115227791Y-92625348D01*
X115227786Y-92625359D01*
X115134459Y-92850669D01*
X115134456Y-92850679D01*
X115071335Y-93086253D01*
X115071333Y-93086264D01*
X115039500Y-93328048D01*
X115039500Y-93571951D01*
X115062644Y-93747737D01*
X115071334Y-93813744D01*
X115127590Y-94023697D01*
X115134456Y-94049320D01*
X115134459Y-94049330D01*
X115227786Y-94274640D01*
X115227791Y-94274651D01*
X115349727Y-94485848D01*
X115349738Y-94485864D01*
X115498199Y-94679343D01*
X115498205Y-94679350D01*
X115670649Y-94851794D01*
X115670656Y-94851800D01*
X115808431Y-94957518D01*
X115864144Y-95000268D01*
X115864151Y-95000272D01*
X116075348Y-95122208D01*
X116075353Y-95122210D01*
X116075356Y-95122212D01*
X116300679Y-95215544D01*
X116536256Y-95278666D01*
X116778056Y-95310500D01*
X116778063Y-95310500D01*
X117541937Y-95310500D01*
X117541944Y-95310500D01*
X117783744Y-95278666D01*
X118019321Y-95215544D01*
X118244644Y-95122212D01*
X118455856Y-95000268D01*
X118649345Y-94851799D01*
X118821799Y-94679345D01*
X118970268Y-94485856D01*
X119092212Y-94274644D01*
X119185544Y-94049321D01*
X119248666Y-93813744D01*
X119280500Y-93571944D01*
X119280500Y-93328056D01*
X119248666Y-93086256D01*
X119185544Y-92850679D01*
X119092212Y-92625356D01*
X119064004Y-92576499D01*
X119047532Y-92508601D01*
X119070384Y-92442574D01*
X119125305Y-92399383D01*
X119171392Y-92390500D01*
X120699903Y-92390500D01*
X120766942Y-92410185D01*
X120787584Y-92426819D01*
X121429298Y-93068533D01*
X121462783Y-93129856D01*
X121464837Y-93142330D01*
X121474630Y-93229249D01*
X121534210Y-93399521D01*
X121599493Y-93503418D01*
X121630184Y-93552262D01*
X121757738Y-93679816D01*
X121848080Y-93736582D01*
X121865833Y-93747737D01*
X121910478Y-93775789D01*
X122018947Y-93813744D01*
X122080745Y-93835368D01*
X122080750Y-93835369D01*
X122259996Y-93855565D01*
X122260000Y-93855565D01*
X122260004Y-93855565D01*
X122439249Y-93835369D01*
X122439252Y-93835368D01*
X122439255Y-93835368D01*
X122609522Y-93775789D01*
X122762262Y-93679816D01*
X122889816Y-93552262D01*
X122985789Y-93399522D01*
X123045368Y-93229255D01*
X123061565Y-93085498D01*
X123088631Y-93021085D01*
X123146226Y-92981530D01*
X123216062Y-92979392D01*
X123272466Y-93011701D01*
X125223181Y-94962416D01*
X125256666Y-95023739D01*
X125259500Y-95050097D01*
X125259500Y-108326747D01*
X125239815Y-108393786D01*
X125187011Y-108439541D01*
X125117853Y-108449485D01*
X125088048Y-108441308D01*
X124956113Y-108386659D01*
X124711151Y-108327849D01*
X124460000Y-108308083D01*
X124208848Y-108327849D01*
X123963889Y-108386658D01*
X123731140Y-108483065D01*
X123516346Y-108614692D01*
X123516343Y-108614693D01*
X123324776Y-108778308D01*
X123181526Y-108946032D01*
X123123019Y-108984225D01*
X123087236Y-108989500D01*
X121749091Y-108989500D01*
X121682052Y-108969815D01*
X121636711Y-108917909D01*
X121634037Y-108912175D01*
X121634034Y-108912170D01*
X121634033Y-108912169D01*
X121498495Y-108718599D01*
X121376567Y-108596671D01*
X121343084Y-108535351D01*
X121348068Y-108465659D01*
X121389939Y-108409725D01*
X121420915Y-108392810D01*
X121552331Y-108343796D01*
X121667546Y-108257546D01*
X121753796Y-108142331D01*
X121804091Y-108007483D01*
X121810500Y-107947873D01*
X121810499Y-106152128D01*
X121804091Y-106092517D01*
X121803002Y-106089598D01*
X121753797Y-105957671D01*
X121753793Y-105957664D01*
X121667547Y-105842455D01*
X121667544Y-105842452D01*
X121552335Y-105756206D01*
X121552328Y-105756202D01*
X121417482Y-105705908D01*
X121417483Y-105705908D01*
X121357883Y-105699501D01*
X121357881Y-105699500D01*
X121357873Y-105699500D01*
X121357864Y-105699500D01*
X119562129Y-105699500D01*
X119562123Y-105699501D01*
X119502516Y-105705908D01*
X119367671Y-105756202D01*
X119367664Y-105756206D01*
X119252455Y-105842452D01*
X119252452Y-105842455D01*
X119166206Y-105957664D01*
X119166202Y-105957671D01*
X119116997Y-106089598D01*
X119075126Y-106145532D01*
X119009661Y-106169949D01*
X118941388Y-106155097D01*
X118913134Y-106133946D01*
X118791082Y-106011894D01*
X118597578Y-105876399D01*
X118383492Y-105776570D01*
X118383486Y-105776567D01*
X118170000Y-105719364D01*
X118170000Y-106616988D01*
X118112993Y-106584075D01*
X117985826Y-106550000D01*
X117854174Y-106550000D01*
X117727007Y-106584075D01*
X117670000Y-106616988D01*
X117670000Y-105719364D01*
X117669999Y-105719364D01*
X117456513Y-105776567D01*
X117456507Y-105776570D01*
X117242422Y-105876399D01*
X117242420Y-105876400D01*
X117048926Y-106011886D01*
X117048920Y-106011891D01*
X116881891Y-106178920D01*
X116881890Y-106178922D01*
X116751575Y-106365031D01*
X116696998Y-106408655D01*
X116627499Y-106415848D01*
X116565145Y-106384326D01*
X116548425Y-106365031D01*
X116418109Y-106178922D01*
X116418108Y-106178920D01*
X116251082Y-106011894D01*
X116057578Y-105876399D01*
X115843492Y-105776570D01*
X115843486Y-105776567D01*
X115630000Y-105719364D01*
X115630000Y-106616988D01*
X115572993Y-106584075D01*
X115445826Y-106550000D01*
X115314174Y-106550000D01*
X115187007Y-106584075D01*
X115130000Y-106616988D01*
X115130000Y-105719364D01*
X115129999Y-105719363D01*
X114986593Y-105757789D01*
X114916743Y-105756126D01*
X114858881Y-105716963D01*
X114831377Y-105652735D01*
X114830500Y-105638014D01*
X114830500Y-103456810D01*
X114850185Y-103389771D01*
X114902989Y-103344016D01*
X114972147Y-103334072D01*
X115035703Y-103363097D01*
X115073477Y-103421875D01*
X115074256Y-103424652D01*
X115134456Y-103649320D01*
X115134459Y-103649330D01*
X115227786Y-103874640D01*
X115227791Y-103874651D01*
X115349727Y-104085848D01*
X115349738Y-104085864D01*
X115498199Y-104279343D01*
X115498205Y-104279350D01*
X115670649Y-104451794D01*
X115670655Y-104451799D01*
X115864144Y-104600268D01*
X115864151Y-104600272D01*
X116075348Y-104722208D01*
X116075353Y-104722210D01*
X116075356Y-104722212D01*
X116300679Y-104815544D01*
X116536256Y-104878666D01*
X116778056Y-104910500D01*
X116778063Y-104910500D01*
X117541937Y-104910500D01*
X117541944Y-104910500D01*
X117783744Y-104878666D01*
X118019321Y-104815544D01*
X118244644Y-104722212D01*
X118455856Y-104600268D01*
X118649345Y-104451799D01*
X118821799Y-104279345D01*
X118970268Y-104085856D01*
X119092212Y-103874644D01*
X119185544Y-103649321D01*
X119233467Y-103470468D01*
X122686900Y-103470468D01*
X122686901Y-103470474D01*
X122693308Y-103530081D01*
X122743602Y-103664926D01*
X122743606Y-103664933D01*
X122829852Y-103780142D01*
X122829855Y-103780145D01*
X122945064Y-103866391D01*
X122945071Y-103866395D01*
X123079917Y-103916689D01*
X123079916Y-103916689D01*
X123086844Y-103917433D01*
X123139527Y-103923098D01*
X124435272Y-103923097D01*
X124494883Y-103916689D01*
X124629731Y-103866394D01*
X124744946Y-103780144D01*
X124831196Y-103664929D01*
X124881491Y-103530081D01*
X124887900Y-103470471D01*
X124887899Y-102174726D01*
X124881491Y-102115115D01*
X124880440Y-102112298D01*
X124831197Y-101980269D01*
X124831193Y-101980262D01*
X124744947Y-101865053D01*
X124744944Y-101865050D01*
X124629735Y-101778804D01*
X124629728Y-101778800D01*
X124494882Y-101728506D01*
X124494883Y-101728506D01*
X124435283Y-101722099D01*
X124435281Y-101722098D01*
X124435273Y-101722098D01*
X124435265Y-101722098D01*
X124384708Y-101722098D01*
X124317669Y-101702413D01*
X124297027Y-101685779D01*
X123787401Y-101176151D01*
X123787400Y-101176151D01*
X123277770Y-101685779D01*
X123216447Y-101719264D01*
X123190091Y-101722098D01*
X123139530Y-101722098D01*
X123139523Y-101722099D01*
X123079916Y-101728506D01*
X122945071Y-101778800D01*
X122945064Y-101778804D01*
X122829855Y-101865050D01*
X122829852Y-101865053D01*
X122743606Y-101980262D01*
X122743602Y-101980269D01*
X122693308Y-102115115D01*
X122686901Y-102174714D01*
X122686901Y-102174721D01*
X122686900Y-102174733D01*
X122686900Y-103470468D01*
X119233467Y-103470468D01*
X119248666Y-103413744D01*
X119280500Y-103171944D01*
X119280500Y-102928056D01*
X119248666Y-102686256D01*
X119185544Y-102450679D01*
X119092212Y-102225356D01*
X119092210Y-102225353D01*
X119092208Y-102225348D01*
X118970272Y-102014151D01*
X118970268Y-102014144D01*
X118855866Y-101865052D01*
X118821800Y-101820656D01*
X118821794Y-101820649D01*
X118649350Y-101648205D01*
X118649343Y-101648199D01*
X118455864Y-101499738D01*
X118455862Y-101499736D01*
X118455856Y-101499732D01*
X118455851Y-101499729D01*
X118455848Y-101499727D01*
X118244651Y-101377791D01*
X118244640Y-101377786D01*
X118019330Y-101284459D01*
X118019323Y-101284457D01*
X118019321Y-101284456D01*
X117783744Y-101221334D01*
X117743333Y-101216013D01*
X117541951Y-101189500D01*
X117541944Y-101189500D01*
X116778056Y-101189500D01*
X116778048Y-101189500D01*
X116547896Y-101219801D01*
X116536256Y-101221334D01*
X116377754Y-101263804D01*
X116300679Y-101284456D01*
X116300669Y-101284459D01*
X116075359Y-101377786D01*
X116075348Y-101377791D01*
X115864151Y-101499727D01*
X115864135Y-101499738D01*
X115670656Y-101648199D01*
X115670649Y-101648205D01*
X115498205Y-101820649D01*
X115498199Y-101820656D01*
X115349738Y-102014135D01*
X115349727Y-102014151D01*
X115227791Y-102225348D01*
X115227786Y-102225359D01*
X115134459Y-102450669D01*
X115134456Y-102450679D01*
X115074274Y-102675283D01*
X115037910Y-102734943D01*
X114975063Y-102765472D01*
X114905688Y-102757177D01*
X114851810Y-102712692D01*
X114830535Y-102646140D01*
X114830500Y-102643189D01*
X114830500Y-100980096D01*
X114850185Y-100913057D01*
X114866814Y-100892420D01*
X114936636Y-100822598D01*
X122682687Y-100822598D01*
X122701496Y-101025587D01*
X122701497Y-101025590D01*
X122757283Y-101221661D01*
X122757286Y-101221667D01*
X122848151Y-101404149D01*
X122849933Y-101406509D01*
X123394350Y-100862094D01*
X123487400Y-100862094D01*
X123507844Y-100938394D01*
X123547340Y-101006803D01*
X123603195Y-101062658D01*
X123671604Y-101102154D01*
X123747904Y-101122598D01*
X123826896Y-101122598D01*
X123903196Y-101102154D01*
X123971605Y-101062658D01*
X124027460Y-101006803D01*
X124066956Y-100938394D01*
X124087400Y-100862094D01*
X124087400Y-100822598D01*
X124140953Y-100822598D01*
X124724865Y-101406510D01*
X124726647Y-101404151D01*
X124726648Y-101404149D01*
X124817513Y-101221667D01*
X124817516Y-101221661D01*
X124873302Y-101025590D01*
X124873303Y-101025587D01*
X124892113Y-100822598D01*
X124892113Y-100822597D01*
X124873303Y-100619608D01*
X124873302Y-100619605D01*
X124817516Y-100423534D01*
X124817513Y-100423528D01*
X124726649Y-100241047D01*
X124726647Y-100241045D01*
X124724865Y-100238685D01*
X124140953Y-100822598D01*
X124087400Y-100822598D01*
X124087400Y-100783102D01*
X124066956Y-100706802D01*
X124027460Y-100638393D01*
X123971605Y-100582538D01*
X123903196Y-100543042D01*
X123826896Y-100522598D01*
X123747904Y-100522598D01*
X123671604Y-100543042D01*
X123603195Y-100582538D01*
X123547340Y-100638393D01*
X123507844Y-100706802D01*
X123487400Y-100783102D01*
X123487400Y-100862094D01*
X123394350Y-100862094D01*
X123433846Y-100822598D01*
X122849933Y-100238685D01*
X122848155Y-100241040D01*
X122848154Y-100241041D01*
X122757286Y-100423528D01*
X122757283Y-100423534D01*
X122701497Y-100619605D01*
X122701496Y-100619608D01*
X122682687Y-100822597D01*
X122682687Y-100822598D01*
X114936636Y-100822598D01*
X115870877Y-99888356D01*
X123206711Y-99888356D01*
X123787400Y-100469044D01*
X123787401Y-100469044D01*
X124368087Y-99888356D01*
X124279813Y-99833699D01*
X124279811Y-99833698D01*
X124089721Y-99760058D01*
X123889328Y-99722598D01*
X123685472Y-99722598D01*
X123485078Y-99760058D01*
X123294988Y-99833698D01*
X123294981Y-99833702D01*
X123206712Y-99888355D01*
X123206711Y-99888356D01*
X115870877Y-99888356D01*
X116378535Y-99380698D01*
X116439856Y-99347215D01*
X116452311Y-99345163D01*
X116539255Y-99335368D01*
X116709522Y-99275789D01*
X116862262Y-99179816D01*
X116989816Y-99052262D01*
X117085789Y-98899522D01*
X117145368Y-98729255D01*
X117145369Y-98729249D01*
X117165565Y-98550003D01*
X117165565Y-98549996D01*
X117145369Y-98370750D01*
X117145368Y-98370745D01*
X117085788Y-98200476D01*
X116989815Y-98047737D01*
X116862262Y-97920184D01*
X116709523Y-97824211D01*
X116539254Y-97764631D01*
X116539249Y-97764630D01*
X116360004Y-97744435D01*
X116359996Y-97744435D01*
X116180750Y-97764630D01*
X116180745Y-97764631D01*
X116010476Y-97824211D01*
X115857737Y-97920184D01*
X115730184Y-98047737D01*
X115634210Y-98200478D01*
X115574630Y-98370750D01*
X115564837Y-98457668D01*
X115537770Y-98522082D01*
X115529298Y-98531465D01*
X113861286Y-100199478D01*
X113749481Y-100311282D01*
X113749479Y-100311285D01*
X113699361Y-100398094D01*
X113699359Y-100398096D01*
X113670425Y-100448209D01*
X113670424Y-100448210D01*
X113670423Y-100448215D01*
X113629499Y-100600943D01*
X113629499Y-100600945D01*
X113629499Y-100656439D01*
X113609814Y-100723478D01*
X113557010Y-100769233D01*
X113487852Y-100779177D01*
X113464548Y-100773482D01*
X113452404Y-100769233D01*
X113439255Y-100764632D01*
X113439253Y-100764631D01*
X113439248Y-100764630D01*
X113439252Y-100764630D01*
X113352330Y-100754837D01*
X113287916Y-100727770D01*
X113278533Y-100719298D01*
X112871819Y-100312584D01*
X112838334Y-100251261D01*
X112835500Y-100224903D01*
X112835500Y-95166321D01*
X112855185Y-95099282D01*
X112907989Y-95053527D01*
X112945612Y-95043101D01*
X113014255Y-95035368D01*
X113184522Y-94975789D01*
X113337262Y-94879816D01*
X113464816Y-94752262D01*
X113560789Y-94599522D01*
X113620368Y-94429255D01*
X113622965Y-94406206D01*
X113640565Y-94250003D01*
X113640565Y-94249996D01*
X113620369Y-94070750D01*
X113620368Y-94070745D01*
X113560788Y-93900476D01*
X113506285Y-93813735D01*
X113464816Y-93747738D01*
X113337262Y-93620184D01*
X113332255Y-93617038D01*
X113318525Y-93608410D01*
X113272235Y-93556074D01*
X113260500Y-93503418D01*
X113260500Y-88680012D01*
X113280185Y-88612973D01*
X113332989Y-88567218D01*
X113402147Y-88557274D01*
X113450532Y-88578194D01*
G37*
%TD.AperFunction*%
%TA.AperFunction,Conductor*%
G36*
X113572539Y-106819685D02*
G01*
X113618294Y-106872489D01*
X113629500Y-106924000D01*
X113629500Y-107176000D01*
X113609815Y-107243039D01*
X113557011Y-107288794D01*
X113505500Y-107300000D01*
X113273012Y-107300000D01*
X113305925Y-107242993D01*
X113340000Y-107115826D01*
X113340000Y-106984174D01*
X113305925Y-106857007D01*
X113273012Y-106800000D01*
X113505500Y-106800000D01*
X113572539Y-106819685D01*
G37*
%TD.AperFunction*%
%TA.AperFunction,Conductor*%
G36*
X117454075Y-106857007D02*
G01*
X117420000Y-106984174D01*
X117420000Y-107115826D01*
X117454075Y-107242993D01*
X117486988Y-107300000D01*
X115813012Y-107300000D01*
X115845925Y-107242993D01*
X115880000Y-107115826D01*
X115880000Y-106984174D01*
X115845925Y-106857007D01*
X115813012Y-106800000D01*
X117486988Y-106800000D01*
X117454075Y-106857007D01*
G37*
%TD.AperFunction*%
%TA.AperFunction,Conductor*%
G36*
X114914075Y-106857007D02*
G01*
X114880000Y-106984174D01*
X114880000Y-107115826D01*
X114914075Y-107242993D01*
X114945454Y-107297343D01*
X114887461Y-107280315D01*
X114841706Y-107227511D01*
X114830500Y-107176000D01*
X114830500Y-106924000D01*
X114850185Y-106856961D01*
X114902989Y-106811206D01*
X114945908Y-106801868D01*
X114914075Y-106857007D01*
G37*
%TD.AperFunction*%
%TA.AperFunction,Conductor*%
G36*
X112255703Y-101395384D02*
G01*
X112262181Y-101401416D01*
X112429298Y-101568533D01*
X112462783Y-101629856D01*
X112464837Y-101642330D01*
X112474630Y-101729249D01*
X112534210Y-101899521D01*
X112584943Y-101980262D01*
X112630184Y-102052262D01*
X112757738Y-102179816D01*
X112910478Y-102275789D01*
X113045274Y-102322956D01*
X113080745Y-102335368D01*
X113080750Y-102335369D01*
X113259996Y-102355565D01*
X113260000Y-102355565D01*
X113260004Y-102355565D01*
X113439249Y-102335369D01*
X113439250Y-102335368D01*
X113439255Y-102335368D01*
X113464544Y-102326518D01*
X113534322Y-102322956D01*
X113594950Y-102357684D01*
X113627178Y-102419677D01*
X113629500Y-102443560D01*
X113629500Y-105733948D01*
X113609815Y-105800987D01*
X113557011Y-105846742D01*
X113487853Y-105856686D01*
X113453096Y-105846330D01*
X113303497Y-105776571D01*
X113303486Y-105776567D01*
X113090000Y-105719364D01*
X113090000Y-106616988D01*
X113032993Y-106584075D01*
X112905826Y-106550000D01*
X112774174Y-106550000D01*
X112647007Y-106584075D01*
X112590000Y-106616988D01*
X112590000Y-105719364D01*
X112589999Y-105719364D01*
X112376513Y-105776567D01*
X112376507Y-105776570D01*
X112226905Y-105846331D01*
X112157827Y-105856823D01*
X112094043Y-105828303D01*
X112055804Y-105769827D01*
X112050500Y-105733949D01*
X112050500Y-101489097D01*
X112070185Y-101422058D01*
X112122989Y-101376303D01*
X112192147Y-101366359D01*
X112255703Y-101395384D01*
G37*
%TD.AperFunction*%
%TA.AperFunction,Conductor*%
G36*
X108355703Y-81292829D02*
G01*
X108388056Y-81336732D01*
X108424075Y-81418848D01*
X108551016Y-81613147D01*
X108551019Y-81613151D01*
X108551021Y-81613153D01*
X108708216Y-81783913D01*
X108708219Y-81783915D01*
X108708222Y-81783918D01*
X108891365Y-81926464D01*
X108891371Y-81926468D01*
X108891374Y-81926470D01*
X109095497Y-82036936D01*
X109209487Y-82076068D01*
X109315015Y-82112297D01*
X109315017Y-82112297D01*
X109315019Y-82112298D01*
X109543951Y-82150500D01*
X109543952Y-82150500D01*
X109776048Y-82150500D01*
X109776049Y-82150500D01*
X110004981Y-82112298D01*
X110095237Y-82081312D01*
X110165035Y-82078163D01*
X110225457Y-82113249D01*
X110257317Y-82175431D01*
X110259500Y-82198594D01*
X110259500Y-86287710D01*
X110239815Y-86354749D01*
X110201472Y-86392704D01*
X110157738Y-86420183D01*
X110030184Y-86547737D01*
X109934211Y-86700476D01*
X109874631Y-86870745D01*
X109874630Y-86870750D01*
X109854435Y-87049996D01*
X109854435Y-87050003D01*
X109874630Y-87229249D01*
X109874631Y-87229254D01*
X109934211Y-87399523D01*
X109964507Y-87447738D01*
X110030184Y-87552262D01*
X110157738Y-87679816D01*
X110248080Y-87736582D01*
X110302450Y-87770745D01*
X110310478Y-87775789D01*
X110470500Y-87831783D01*
X110480745Y-87835368D01*
X110480750Y-87835369D01*
X110659996Y-87855565D01*
X110660000Y-87855565D01*
X110660001Y-87855565D01*
X110670517Y-87854379D01*
X110711616Y-87849749D01*
X110780437Y-87861803D01*
X110831817Y-87909151D01*
X110849500Y-87972969D01*
X110849500Y-94245203D01*
X110829815Y-94312242D01*
X110777011Y-94357997D01*
X110707853Y-94367941D01*
X110682170Y-94361386D01*
X110667484Y-94355909D01*
X110667483Y-94355908D01*
X110607883Y-94349501D01*
X110607881Y-94349500D01*
X110607873Y-94349500D01*
X110607864Y-94349500D01*
X108712129Y-94349500D01*
X108712123Y-94349501D01*
X108652516Y-94355908D01*
X108517671Y-94406202D01*
X108517664Y-94406206D01*
X108402455Y-94492452D01*
X108373766Y-94530776D01*
X108317832Y-94572646D01*
X108248140Y-94577630D01*
X108186818Y-94544144D01*
X108153333Y-94482820D01*
X108150500Y-94456464D01*
X108150500Y-81386542D01*
X108170185Y-81319503D01*
X108222989Y-81273748D01*
X108292147Y-81263804D01*
X108355703Y-81292829D01*
G37*
%TD.AperFunction*%
%TA.AperFunction,Conductor*%
G36*
X126125743Y-69943025D02*
G01*
X126164115Y-70001415D01*
X126169500Y-70037561D01*
X126169500Y-93910903D01*
X126149815Y-93977942D01*
X126097011Y-94023697D01*
X126027853Y-94033641D01*
X125964297Y-94004616D01*
X125957819Y-93998584D01*
X122090700Y-90131465D01*
X122057215Y-90070142D01*
X122055163Y-90057686D01*
X122045368Y-89970745D01*
X121985789Y-89800478D01*
X121889816Y-89647738D01*
X121889814Y-89647736D01*
X121889813Y-89647734D01*
X121887550Y-89644896D01*
X121886659Y-89642715D01*
X121886111Y-89641842D01*
X121886264Y-89641745D01*
X121861144Y-89580209D01*
X121860500Y-89567587D01*
X121860500Y-77559059D01*
X121860501Y-77559046D01*
X121860501Y-77390945D01*
X121860501Y-77390943D01*
X121819577Y-77238215D01*
X121809541Y-77220832D01*
X121786996Y-77181782D01*
X121786996Y-77181783D01*
X121740522Y-77101287D01*
X121740521Y-77101286D01*
X121740520Y-77101284D01*
X121628716Y-76989480D01*
X121628715Y-76989479D01*
X121624385Y-76985149D01*
X121624374Y-76985139D01*
X119836916Y-75197681D01*
X119803431Y-75136358D01*
X119808415Y-75066666D01*
X119836916Y-75022319D01*
X122233887Y-72625348D01*
X124639719Y-70219515D01*
X124701040Y-70186032D01*
X124770732Y-70191016D01*
X124793365Y-70202202D01*
X124845922Y-70235226D01*
X124910475Y-70275788D01*
X125080745Y-70335368D01*
X125080750Y-70335369D01*
X125259996Y-70355565D01*
X125260000Y-70355565D01*
X125260004Y-70355565D01*
X125439249Y-70335369D01*
X125439252Y-70335368D01*
X125439255Y-70335368D01*
X125609522Y-70275789D01*
X125762262Y-70179816D01*
X125889816Y-70052262D01*
X125940506Y-69971588D01*
X125992841Y-69925298D01*
X126061894Y-69914650D01*
X126125743Y-69943025D01*
G37*
%TD.AperFunction*%
%TA.AperFunction,Conductor*%
G36*
X126112539Y-48820185D02*
G01*
X126158294Y-48872989D01*
X126169500Y-48924500D01*
X126169500Y-69062438D01*
X126149815Y-69129477D01*
X126097011Y-69175232D01*
X126027853Y-69185176D01*
X125964297Y-69156151D01*
X125940507Y-69128411D01*
X125889817Y-69047739D01*
X125762262Y-68920184D01*
X125609523Y-68824211D01*
X125439254Y-68764631D01*
X125439249Y-68764630D01*
X125260004Y-68744435D01*
X125259996Y-68744435D01*
X125080750Y-68764630D01*
X125080745Y-68764631D01*
X124910476Y-68824211D01*
X124757736Y-68920185D01*
X124754903Y-68922445D01*
X124752724Y-68923334D01*
X124751842Y-68923889D01*
X124751744Y-68923734D01*
X124690217Y-68948855D01*
X124677588Y-68949500D01*
X124380940Y-68949500D01*
X124340019Y-68960464D01*
X124340019Y-68960465D01*
X124302751Y-68970451D01*
X124228214Y-68990423D01*
X124228209Y-68990426D01*
X124091290Y-69069475D01*
X124091282Y-69069481D01*
X123979478Y-69181286D01*
X122263072Y-70897691D01*
X122201749Y-70931176D01*
X122132057Y-70926192D01*
X122076124Y-70884320D01*
X122070397Y-70875982D01*
X122054073Y-70850003D01*
X121989816Y-70747738D01*
X121989814Y-70747736D01*
X121989813Y-70747734D01*
X121987550Y-70744896D01*
X121986659Y-70742715D01*
X121986111Y-70741842D01*
X121986264Y-70741745D01*
X121961144Y-70680209D01*
X121960500Y-70667587D01*
X121960500Y-61870945D01*
X121960500Y-61870943D01*
X121919577Y-61718216D01*
X121879153Y-61648199D01*
X121840524Y-61581290D01*
X121840521Y-61581286D01*
X121840520Y-61581284D01*
X121728716Y-61469480D01*
X121728715Y-61469479D01*
X121724385Y-61465149D01*
X121724374Y-61465139D01*
X117290700Y-57031465D01*
X117257215Y-56970142D01*
X117255163Y-56957686D01*
X117245368Y-56870745D01*
X117185789Y-56700478D01*
X117089816Y-56547738D01*
X116962262Y-56420184D01*
X116809523Y-56324211D01*
X116639254Y-56264631D01*
X116639249Y-56264630D01*
X116460004Y-56244435D01*
X116459996Y-56244435D01*
X116280750Y-56264630D01*
X116280745Y-56264631D01*
X116110476Y-56324211D01*
X115957737Y-56420184D01*
X115830184Y-56547737D01*
X115734211Y-56700476D01*
X115674631Y-56870745D01*
X115674630Y-56870750D01*
X115654435Y-57049996D01*
X115654435Y-57050003D01*
X115674630Y-57229249D01*
X115674631Y-57229254D01*
X115734211Y-57399523D01*
X115830184Y-57552262D01*
X115957738Y-57679816D01*
X116110478Y-57775789D01*
X116280745Y-57835368D01*
X116367669Y-57845161D01*
X116432080Y-57872226D01*
X116441465Y-57880700D01*
X120723181Y-62162416D01*
X120756666Y-62223739D01*
X120759500Y-62250097D01*
X120759500Y-70667587D01*
X120739815Y-70734626D01*
X120732450Y-70744896D01*
X120730186Y-70747734D01*
X120634211Y-70900476D01*
X120574631Y-71070745D01*
X120574630Y-71070750D01*
X120554435Y-71249996D01*
X120554435Y-71250003D01*
X120574630Y-71429249D01*
X120574631Y-71429254D01*
X120634211Y-71599523D01*
X120698004Y-71701048D01*
X120730184Y-71752262D01*
X120857738Y-71879816D01*
X120889444Y-71899738D01*
X120985982Y-71960397D01*
X121032273Y-72012732D01*
X121042921Y-72081785D01*
X121014546Y-72145634D01*
X121007691Y-72153072D01*
X119491837Y-73668926D01*
X119430514Y-73702411D01*
X119360822Y-73697427D01*
X119304889Y-73655555D01*
X119280472Y-73590091D01*
X119280422Y-73573125D01*
X119280498Y-73571951D01*
X119280500Y-73571944D01*
X119280500Y-73328056D01*
X119248666Y-73086256D01*
X119185544Y-72850679D01*
X119092212Y-72625356D01*
X119092210Y-72625353D01*
X119092208Y-72625348D01*
X118970272Y-72414151D01*
X118970268Y-72414144D01*
X118821799Y-72220655D01*
X118821794Y-72220649D01*
X118649350Y-72048205D01*
X118649343Y-72048199D01*
X118455864Y-71899738D01*
X118455862Y-71899736D01*
X118455856Y-71899732D01*
X118455851Y-71899729D01*
X118455848Y-71899727D01*
X118244651Y-71777791D01*
X118244640Y-71777786D01*
X118019330Y-71684459D01*
X118019323Y-71684457D01*
X118019321Y-71684456D01*
X117783744Y-71621334D01*
X117743333Y-71616013D01*
X117541951Y-71589500D01*
X117541944Y-71589500D01*
X116778056Y-71589500D01*
X116778048Y-71589500D01*
X116547896Y-71619801D01*
X116536256Y-71621334D01*
X116524687Y-71624434D01*
X116300679Y-71684456D01*
X116300669Y-71684459D01*
X116075359Y-71777786D01*
X116075348Y-71777791D01*
X115864151Y-71899727D01*
X115864135Y-71899738D01*
X115670656Y-72048199D01*
X115670649Y-72048205D01*
X115498205Y-72220649D01*
X115498199Y-72220656D01*
X115349738Y-72414135D01*
X115349727Y-72414151D01*
X115227791Y-72625348D01*
X115227786Y-72625359D01*
X115134459Y-72850669D01*
X115134456Y-72850679D01*
X115071335Y-73086253D01*
X115071333Y-73086264D01*
X115039500Y-73328048D01*
X115039500Y-73571951D01*
X115066013Y-73773333D01*
X115071334Y-73813744D01*
X115071335Y-73813746D01*
X115134456Y-74049320D01*
X115134459Y-74049330D01*
X115215593Y-74245203D01*
X115227788Y-74274644D01*
X115249495Y-74312242D01*
X115255995Y-74323499D01*
X115272468Y-74391399D01*
X115249616Y-74457426D01*
X115194695Y-74500617D01*
X115148608Y-74509500D01*
X114788547Y-74509500D01*
X114747592Y-74502541D01*
X114639257Y-74464632D01*
X114639246Y-74464630D01*
X114460004Y-74444435D01*
X114459996Y-74444435D01*
X114280750Y-74464630D01*
X114280745Y-74464631D01*
X114110476Y-74524211D01*
X113957737Y-74620184D01*
X113830184Y-74747737D01*
X113734211Y-74900476D01*
X113674631Y-75070745D01*
X113674630Y-75070750D01*
X113654435Y-75249996D01*
X113654435Y-75250003D01*
X113674630Y-75429249D01*
X113674631Y-75429254D01*
X113734211Y-75599523D01*
X113803943Y-75710500D01*
X113830184Y-75752262D01*
X113957738Y-75879816D01*
X114110478Y-75975789D01*
X114280745Y-76035368D01*
X114280750Y-76035369D01*
X114459996Y-76055565D01*
X114460000Y-76055565D01*
X114460004Y-76055565D01*
X114639249Y-76035369D01*
X114639252Y-76035368D01*
X114639255Y-76035368D01*
X114809522Y-75975789D01*
X114962262Y-75879816D01*
X115089816Y-75752262D01*
X115089816Y-75752261D01*
X115094740Y-75747338D01*
X115096874Y-75749472D01*
X115143092Y-75717042D01*
X115182835Y-75710500D01*
X118599903Y-75710500D01*
X118666942Y-75730185D01*
X118687584Y-75746819D01*
X120623181Y-77682416D01*
X120656666Y-77743739D01*
X120659500Y-77770097D01*
X120659500Y-89567587D01*
X120639815Y-89634626D01*
X120632450Y-89644896D01*
X120630186Y-89647734D01*
X120534211Y-89800476D01*
X120474631Y-89970745D01*
X120474630Y-89970750D01*
X120454435Y-90149996D01*
X120454435Y-90150003D01*
X120474630Y-90329249D01*
X120474631Y-90329254D01*
X120534211Y-90499523D01*
X120630184Y-90652262D01*
X120757738Y-90779816D01*
X120910478Y-90875789D01*
X121080745Y-90935368D01*
X121167669Y-90945161D01*
X121232080Y-90972226D01*
X121241465Y-90980700D01*
X121258905Y-90998140D01*
X121292390Y-91059463D01*
X121287406Y-91129155D01*
X121245534Y-91185088D01*
X121180070Y-91209505D01*
X121139131Y-91205596D01*
X121131718Y-91203609D01*
X121079057Y-91189499D01*
X120920943Y-91189499D01*
X120913347Y-91189499D01*
X120913331Y-91189500D01*
X118100097Y-91189500D01*
X118033058Y-91169815D01*
X118012416Y-91153181D01*
X114790700Y-87931465D01*
X114757215Y-87870142D01*
X114755163Y-87857686D01*
X114745368Y-87770745D01*
X114685789Y-87600478D01*
X114589816Y-87447738D01*
X114462262Y-87320184D01*
X114402591Y-87282690D01*
X114309523Y-87224211D01*
X114139254Y-87164631D01*
X114139249Y-87164630D01*
X113960004Y-87144435D01*
X113959996Y-87144435D01*
X113780750Y-87164630D01*
X113780745Y-87164631D01*
X113610476Y-87224211D01*
X113451842Y-87323889D01*
X113450402Y-87321598D01*
X113397096Y-87343346D01*
X113328404Y-87330573D01*
X113277522Y-87282690D01*
X113260500Y-87219987D01*
X113260500Y-81750096D01*
X113280185Y-81683057D01*
X113296814Y-81662420D01*
X116135360Y-78823873D01*
X116196681Y-78790390D01*
X116263993Y-78794514D01*
X116305155Y-78808918D01*
X116380740Y-78835367D01*
X116380750Y-78835369D01*
X116559996Y-78855565D01*
X116560000Y-78855565D01*
X116560004Y-78855565D01*
X116739249Y-78835369D01*
X116739252Y-78835368D01*
X116739255Y-78835368D01*
X116909522Y-78775789D01*
X117062262Y-78679816D01*
X117189816Y-78552262D01*
X117285789Y-78399522D01*
X117345368Y-78229255D01*
X117351392Y-78175789D01*
X117363303Y-78070080D01*
X117390369Y-78005666D01*
X117447964Y-77966111D01*
X117517801Y-77963973D01*
X117574204Y-77996282D01*
X117657738Y-78079816D01*
X117810478Y-78175789D01*
X117980745Y-78235368D01*
X118067669Y-78245161D01*
X118132080Y-78272226D01*
X118141465Y-78280700D01*
X118443181Y-78582416D01*
X118476666Y-78643739D01*
X118479500Y-78670097D01*
X118479500Y-81298607D01*
X118459815Y-81365646D01*
X118407011Y-81411401D01*
X118337853Y-81421345D01*
X118293501Y-81405995D01*
X118244646Y-81377789D01*
X118244640Y-81377786D01*
X118019330Y-81284459D01*
X118019323Y-81284457D01*
X118019321Y-81284456D01*
X117783744Y-81221334D01*
X117743333Y-81216013D01*
X117541951Y-81189500D01*
X117541944Y-81189500D01*
X116778056Y-81189500D01*
X116778048Y-81189500D01*
X116547896Y-81219801D01*
X116536256Y-81221334D01*
X116377754Y-81263804D01*
X116300679Y-81284456D01*
X116300669Y-81284459D01*
X116075359Y-81377786D01*
X116075348Y-81377791D01*
X115864151Y-81499727D01*
X115864135Y-81499738D01*
X115670656Y-81648199D01*
X115670649Y-81648205D01*
X115498205Y-81820649D01*
X115498199Y-81820656D01*
X115349738Y-82014135D01*
X115349727Y-82014151D01*
X115227791Y-82225348D01*
X115227786Y-82225359D01*
X115134459Y-82450669D01*
X115134456Y-82450679D01*
X115071335Y-82686253D01*
X115071333Y-82686264D01*
X115039500Y-82928048D01*
X115039500Y-83171951D01*
X115066013Y-83373333D01*
X115071334Y-83413744D01*
X115071335Y-83413746D01*
X115134456Y-83649320D01*
X115134459Y-83649330D01*
X115227786Y-83874640D01*
X115227791Y-83874651D01*
X115349727Y-84085848D01*
X115349738Y-84085864D01*
X115498199Y-84279343D01*
X115498205Y-84279350D01*
X115670649Y-84451794D01*
X115670655Y-84451799D01*
X115864144Y-84600268D01*
X115864151Y-84600272D01*
X116075348Y-84722208D01*
X116075353Y-84722210D01*
X116075356Y-84722212D01*
X116300679Y-84815544D01*
X116536256Y-84878666D01*
X116778056Y-84910500D01*
X116778063Y-84910500D01*
X117541937Y-84910500D01*
X117541944Y-84910500D01*
X117783744Y-84878666D01*
X118019321Y-84815544D01*
X118244644Y-84722212D01*
X118293500Y-84694004D01*
X118361399Y-84677532D01*
X118427426Y-84700384D01*
X118470617Y-84755305D01*
X118479500Y-84801392D01*
X118479500Y-88129901D01*
X118459815Y-88196940D01*
X118443156Y-88217608D01*
X118441439Y-88219324D01*
X118380106Y-88252791D01*
X118367667Y-88254837D01*
X118280750Y-88264630D01*
X118110478Y-88324210D01*
X117957737Y-88420184D01*
X117830184Y-88547737D01*
X117734211Y-88700476D01*
X117674631Y-88870745D01*
X117674630Y-88870750D01*
X117654435Y-89049996D01*
X117654435Y-89050003D01*
X117674630Y-89229249D01*
X117674631Y-89229254D01*
X117734211Y-89399523D01*
X117830184Y-89552262D01*
X117957738Y-89679816D01*
X118110478Y-89775789D01*
X118280745Y-89835368D01*
X118280750Y-89835369D01*
X118459996Y-89855565D01*
X118460000Y-89855565D01*
X118460004Y-89855565D01*
X118639249Y-89835369D01*
X118639252Y-89835368D01*
X118639255Y-89835368D01*
X118809522Y-89775789D01*
X118962262Y-89679816D01*
X119089816Y-89552262D01*
X119185789Y-89399522D01*
X119245368Y-89229255D01*
X119255161Y-89142329D01*
X119282226Y-89077918D01*
X119290690Y-89068543D01*
X119438506Y-88920728D01*
X119438511Y-88920724D01*
X119448714Y-88910520D01*
X119448716Y-88910520D01*
X119560520Y-88798716D01*
X119639577Y-88661784D01*
X119680500Y-88509057D01*
X119680500Y-78290943D01*
X119639577Y-78138216D01*
X119605860Y-78079816D01*
X119560524Y-78001290D01*
X119560521Y-78001286D01*
X119560520Y-78001284D01*
X119448716Y-77889480D01*
X119448715Y-77889479D01*
X119444385Y-77885149D01*
X119444374Y-77885139D01*
X118990700Y-77431465D01*
X118957215Y-77370142D01*
X118955163Y-77357686D01*
X118945368Y-77270745D01*
X118885789Y-77100478D01*
X118789816Y-76947738D01*
X118662262Y-76820184D01*
X118662259Y-76820182D01*
X118509523Y-76724211D01*
X118339254Y-76664631D01*
X118339249Y-76664630D01*
X118160004Y-76644435D01*
X118159996Y-76644435D01*
X117980750Y-76664630D01*
X117980745Y-76664631D01*
X117810476Y-76724211D01*
X117657737Y-76820184D01*
X117530184Y-76947737D01*
X117434211Y-77100476D01*
X117374631Y-77270745D01*
X117374630Y-77270749D01*
X117356696Y-77429920D01*
X117329629Y-77494334D01*
X117272034Y-77533889D01*
X117202197Y-77536026D01*
X117145795Y-77503717D01*
X117062262Y-77420184D01*
X116909523Y-77324211D01*
X116739254Y-77264631D01*
X116739249Y-77264630D01*
X116560004Y-77244435D01*
X116559996Y-77244435D01*
X116380750Y-77264630D01*
X116380745Y-77264631D01*
X116210476Y-77324211D01*
X116057736Y-77420185D01*
X116054903Y-77422445D01*
X116052724Y-77423334D01*
X116051842Y-77423889D01*
X116051744Y-77423734D01*
X115990217Y-77448855D01*
X115983072Y-77449219D01*
X115980943Y-77449500D01*
X115828214Y-77490423D01*
X115795040Y-77509577D01*
X115795039Y-77509577D01*
X115691287Y-77569477D01*
X115691282Y-77569481D01*
X115579478Y-77681286D01*
X113422407Y-79838356D01*
X113361084Y-79871841D01*
X113291392Y-79866857D01*
X113235459Y-79824985D01*
X113217684Y-79791629D01*
X113185789Y-79700478D01*
X113089815Y-79547737D01*
X112962262Y-79420184D01*
X112809523Y-79324211D01*
X112639254Y-79264631D01*
X112639249Y-79264630D01*
X112460004Y-79244435D01*
X112459996Y-79244435D01*
X112280750Y-79264630D01*
X112280745Y-79264631D01*
X112215455Y-79287478D01*
X112145676Y-79291039D01*
X112085048Y-79256310D01*
X112052821Y-79194317D01*
X112050500Y-79170436D01*
X112050500Y-78370716D01*
X112070185Y-78303677D01*
X112122989Y-78257922D01*
X112188384Y-78247496D01*
X112259997Y-78255565D01*
X112260000Y-78255565D01*
X112260004Y-78255565D01*
X112439249Y-78235369D01*
X112439252Y-78235368D01*
X112439255Y-78235368D01*
X112609522Y-78175789D01*
X112762262Y-78079816D01*
X112889816Y-77952262D01*
X112985789Y-77799522D01*
X113045368Y-77629255D01*
X113050788Y-77581151D01*
X113065565Y-77450003D01*
X113065565Y-77449996D01*
X113045369Y-77270750D01*
X113045368Y-77270745D01*
X112986072Y-77101287D01*
X112985789Y-77100478D01*
X112981590Y-77093796D01*
X112913323Y-76985149D01*
X112889816Y-76947738D01*
X112762262Y-76820184D01*
X112762260Y-76820182D01*
X112618527Y-76729868D01*
X112572237Y-76677534D01*
X112560500Y-76624875D01*
X112560500Y-65432412D01*
X112580185Y-65365373D01*
X112587555Y-65355097D01*
X112589810Y-65352267D01*
X112589816Y-65352262D01*
X112685789Y-65199522D01*
X112745368Y-65029255D01*
X112745369Y-65029249D01*
X112765565Y-64850003D01*
X112765565Y-64849996D01*
X112745369Y-64670750D01*
X112745368Y-64670745D01*
X112720707Y-64600268D01*
X112685789Y-64500478D01*
X112589816Y-64347738D01*
X112462262Y-64220184D01*
X112309523Y-64124211D01*
X112139254Y-64064631D01*
X112139249Y-64064630D01*
X111960004Y-64044435D01*
X111959996Y-64044435D01*
X111780750Y-64064630D01*
X111780745Y-64064631D01*
X111610476Y-64124211D01*
X111457737Y-64220184D01*
X111330184Y-64347737D01*
X111234211Y-64500476D01*
X111174631Y-64670745D01*
X111174630Y-64670750D01*
X111154435Y-64849996D01*
X111154435Y-64850003D01*
X111174630Y-65029249D01*
X111174631Y-65029254D01*
X111234211Y-65199523D01*
X111330185Y-65352263D01*
X111332445Y-65355097D01*
X111333334Y-65357275D01*
X111333889Y-65358158D01*
X111333734Y-65358255D01*
X111358855Y-65419783D01*
X111359500Y-65432412D01*
X111359500Y-69939424D01*
X111339815Y-70006463D01*
X111287011Y-70052218D01*
X111221617Y-70062644D01*
X111060004Y-70044435D01*
X111059996Y-70044435D01*
X110880750Y-70064630D01*
X110880745Y-70064631D01*
X110710476Y-70124211D01*
X110557737Y-70220184D01*
X110430184Y-70347737D01*
X110334211Y-70500476D01*
X110274631Y-70670745D01*
X110274630Y-70670750D01*
X110254435Y-70849996D01*
X110254435Y-70850003D01*
X110274630Y-71029249D01*
X110274631Y-71029254D01*
X110334211Y-71199523D01*
X110365926Y-71249996D01*
X110430184Y-71352262D01*
X110557738Y-71479816D01*
X110614504Y-71515484D01*
X110710477Y-71575789D01*
X110766453Y-71595375D01*
X110823230Y-71636096D01*
X110848978Y-71701048D01*
X110849500Y-71712417D01*
X110849500Y-74245203D01*
X110829815Y-74312242D01*
X110777011Y-74357997D01*
X110707853Y-74367941D01*
X110682170Y-74361386D01*
X110667484Y-74355909D01*
X110667483Y-74355908D01*
X110607883Y-74349501D01*
X110607881Y-74349500D01*
X110607873Y-74349500D01*
X110607864Y-74349500D01*
X108712129Y-74349500D01*
X108712123Y-74349501D01*
X108652516Y-74355908D01*
X108517671Y-74406202D01*
X108517664Y-74406206D01*
X108402455Y-74492452D01*
X108373766Y-74530776D01*
X108317832Y-74572646D01*
X108248140Y-74577630D01*
X108186818Y-74544144D01*
X108153333Y-74482820D01*
X108150500Y-74456464D01*
X108150500Y-63171951D01*
X115039500Y-63171951D01*
X115066013Y-63373333D01*
X115071334Y-63413744D01*
X115071335Y-63413746D01*
X115134456Y-63649320D01*
X115134459Y-63649330D01*
X115227786Y-63874640D01*
X115227791Y-63874651D01*
X115349727Y-64085848D01*
X115349738Y-64085864D01*
X115498199Y-64279343D01*
X115498205Y-64279350D01*
X115670649Y-64451794D01*
X115670655Y-64451799D01*
X115864144Y-64600268D01*
X115864151Y-64600272D01*
X116075348Y-64722208D01*
X116075353Y-64722210D01*
X116075356Y-64722212D01*
X116300679Y-64815544D01*
X116536256Y-64878666D01*
X116778056Y-64910500D01*
X116778063Y-64910500D01*
X117541937Y-64910500D01*
X117541944Y-64910500D01*
X117783744Y-64878666D01*
X118019321Y-64815544D01*
X118244644Y-64722212D01*
X118455856Y-64600268D01*
X118649345Y-64451799D01*
X118821799Y-64279345D01*
X118970268Y-64085856D01*
X119092212Y-63874644D01*
X119185544Y-63649321D01*
X119248666Y-63413744D01*
X119280500Y-63171944D01*
X119280500Y-62928056D01*
X119248666Y-62686256D01*
X119185544Y-62450679D01*
X119092212Y-62225356D01*
X119092210Y-62225353D01*
X119092208Y-62225348D01*
X118970272Y-62014151D01*
X118970268Y-62014144D01*
X118821799Y-61820655D01*
X118821794Y-61820649D01*
X118649350Y-61648205D01*
X118649343Y-61648199D01*
X118455864Y-61499738D01*
X118455862Y-61499736D01*
X118455856Y-61499732D01*
X118455851Y-61499729D01*
X118455848Y-61499727D01*
X118244651Y-61377791D01*
X118244640Y-61377786D01*
X118019330Y-61284459D01*
X118019323Y-61284457D01*
X118019321Y-61284456D01*
X117783744Y-61221334D01*
X117743333Y-61216013D01*
X117541951Y-61189500D01*
X117541944Y-61189500D01*
X116778056Y-61189500D01*
X116778048Y-61189500D01*
X116547896Y-61219801D01*
X116536256Y-61221334D01*
X116377754Y-61263804D01*
X116300679Y-61284456D01*
X116300669Y-61284459D01*
X116075359Y-61377786D01*
X116075348Y-61377791D01*
X115864151Y-61499727D01*
X115864135Y-61499738D01*
X115670656Y-61648199D01*
X115670649Y-61648205D01*
X115498205Y-61820649D01*
X115498199Y-61820656D01*
X115349738Y-62014135D01*
X115349727Y-62014151D01*
X115227791Y-62225348D01*
X115227786Y-62225359D01*
X115134459Y-62450669D01*
X115134456Y-62450679D01*
X115071335Y-62686253D01*
X115071333Y-62686264D01*
X115039500Y-62928048D01*
X115039500Y-63171951D01*
X108150500Y-63171951D01*
X108150500Y-61386542D01*
X108170185Y-61319503D01*
X108222989Y-61273748D01*
X108292147Y-61263804D01*
X108355703Y-61292829D01*
X108388056Y-61336732D01*
X108424075Y-61418848D01*
X108551016Y-61613147D01*
X108551019Y-61613151D01*
X108551021Y-61613153D01*
X108708216Y-61783913D01*
X108708219Y-61783915D01*
X108708222Y-61783918D01*
X108891365Y-61926464D01*
X108891371Y-61926468D01*
X108891374Y-61926470D01*
X109095497Y-62036936D01*
X109209487Y-62076068D01*
X109315015Y-62112297D01*
X109315017Y-62112297D01*
X109315019Y-62112298D01*
X109543951Y-62150500D01*
X109543952Y-62150500D01*
X109776048Y-62150500D01*
X109776049Y-62150500D01*
X110004981Y-62112298D01*
X110224503Y-62036936D01*
X110428626Y-61926470D01*
X110611784Y-61783913D01*
X110768979Y-61613153D01*
X110895924Y-61418849D01*
X110989157Y-61206300D01*
X111046134Y-60981305D01*
X111065300Y-60750000D01*
X111065300Y-60749993D01*
X111046135Y-60518702D01*
X111046133Y-60518691D01*
X110989157Y-60293699D01*
X110895924Y-60081151D01*
X110768983Y-59886852D01*
X110768980Y-59886849D01*
X110768979Y-59886847D01*
X110611784Y-59716087D01*
X110459876Y-59597852D01*
X110419064Y-59541143D01*
X110415389Y-59471370D01*
X110450020Y-59410687D01*
X110459876Y-59402147D01*
X110611784Y-59283913D01*
X110768979Y-59113153D01*
X110895924Y-58918849D01*
X110989157Y-58706300D01*
X111046134Y-58481305D01*
X111065300Y-58250000D01*
X111065300Y-58249993D01*
X111046135Y-58018702D01*
X111046133Y-58018691D01*
X110989157Y-57793699D01*
X110895924Y-57581151D01*
X110768981Y-57386849D01*
X110701608Y-57313662D01*
X110670686Y-57251008D01*
X110678547Y-57181582D01*
X110722694Y-57127426D01*
X110749499Y-57113500D01*
X110802331Y-57093796D01*
X110917546Y-57007546D01*
X111003796Y-56892331D01*
X111054091Y-56757483D01*
X111060500Y-56697873D01*
X111060499Y-54802128D01*
X111054091Y-54742517D01*
X111030531Y-54679350D01*
X111003797Y-54607671D01*
X111003793Y-54607664D01*
X110917547Y-54492455D01*
X110917544Y-54492452D01*
X110802335Y-54406206D01*
X110802328Y-54406202D01*
X110667482Y-54355908D01*
X110667483Y-54355908D01*
X110607883Y-54349501D01*
X110607881Y-54349500D01*
X110607873Y-54349500D01*
X110607864Y-54349500D01*
X108712129Y-54349500D01*
X108712123Y-54349501D01*
X108652516Y-54355908D01*
X108517671Y-54406202D01*
X108517664Y-54406206D01*
X108402455Y-54492452D01*
X108373766Y-54530776D01*
X108317832Y-54572646D01*
X108248140Y-54577630D01*
X108186818Y-54544144D01*
X108153333Y-54482820D01*
X108150500Y-54456464D01*
X108150500Y-53571951D01*
X115039500Y-53571951D01*
X115066013Y-53773333D01*
X115071334Y-53813744D01*
X115071335Y-53813746D01*
X115134456Y-54049320D01*
X115134459Y-54049330D01*
X115227786Y-54274640D01*
X115227791Y-54274651D01*
X115349727Y-54485848D01*
X115349738Y-54485864D01*
X115498199Y-54679343D01*
X115498205Y-54679350D01*
X115670649Y-54851794D01*
X115670655Y-54851799D01*
X115864144Y-55000268D01*
X115864151Y-55000272D01*
X116075348Y-55122208D01*
X116075353Y-55122210D01*
X116075356Y-55122212D01*
X116300679Y-55215544D01*
X116536256Y-55278666D01*
X116778056Y-55310500D01*
X116778063Y-55310500D01*
X117541937Y-55310500D01*
X117541944Y-55310500D01*
X117783744Y-55278666D01*
X118019321Y-55215544D01*
X118244644Y-55122212D01*
X118455856Y-55000268D01*
X118649345Y-54851799D01*
X118821799Y-54679345D01*
X118970268Y-54485856D01*
X119092212Y-54274644D01*
X119185544Y-54049321D01*
X119248666Y-53813744D01*
X119280500Y-53571944D01*
X119280500Y-53328056D01*
X119248666Y-53086256D01*
X119185544Y-52850679D01*
X119092212Y-52625356D01*
X119092210Y-52625353D01*
X119092208Y-52625348D01*
X118970272Y-52414151D01*
X118970268Y-52414144D01*
X118821799Y-52220655D01*
X118821794Y-52220649D01*
X118649350Y-52048205D01*
X118649343Y-52048199D01*
X118455864Y-51899738D01*
X118455862Y-51899736D01*
X118455856Y-51899732D01*
X118455851Y-51899729D01*
X118455848Y-51899727D01*
X118244651Y-51777791D01*
X118244640Y-51777786D01*
X118019330Y-51684459D01*
X118019323Y-51684457D01*
X118019321Y-51684456D01*
X117783744Y-51621334D01*
X117743333Y-51616013D01*
X117541951Y-51589500D01*
X117541944Y-51589500D01*
X116778056Y-51589500D01*
X116778048Y-51589500D01*
X116547896Y-51619801D01*
X116536256Y-51621334D01*
X116300679Y-51684456D01*
X116300669Y-51684459D01*
X116075359Y-51777786D01*
X116075348Y-51777791D01*
X115864151Y-51899727D01*
X115864135Y-51899738D01*
X115670656Y-52048199D01*
X115670649Y-52048205D01*
X115498205Y-52220649D01*
X115498199Y-52220656D01*
X115349738Y-52414135D01*
X115349727Y-52414151D01*
X115227791Y-52625348D01*
X115227786Y-52625359D01*
X115134459Y-52850669D01*
X115134456Y-52850679D01*
X115071335Y-53086253D01*
X115071333Y-53086264D01*
X115039500Y-53328048D01*
X115039500Y-53571951D01*
X108150500Y-53571951D01*
X108150500Y-48924500D01*
X108170185Y-48857461D01*
X108222989Y-48811706D01*
X108274500Y-48800500D01*
X126045500Y-48800500D01*
X126112539Y-48820185D01*
G37*
%TD.AperFunction*%
%TD*%
M02*
