%TF.GenerationSoftware,KiCad,Pcbnew,8.0.0*%
%TF.CreationDate,2024-06-15T01:22:53+02:00*%
%TF.ProjectId,feitw,66656974-772e-46b6-9963-61645f706362,rev?*%
%TF.SameCoordinates,Original*%
%TF.FileFunction,Copper,L2,Bot*%
%TF.FilePolarity,Positive*%
%FSLAX46Y46*%
G04 Gerber Fmt 4.6, Leading zero omitted, Abs format (unit mm)*
G04 Created by KiCad (PCBNEW 8.0.0) date 2024-06-15 01:22:53*
%MOMM*%
%LPD*%
G01*
G04 APERTURE LIST*
G04 Aperture macros list*
%AMRoundRect*
0 Rectangle with rounded corners*
0 $1 Rounding radius*
0 $2 $3 $4 $5 $6 $7 $8 $9 X,Y pos of 4 corners*
0 Add a 4 corners polygon primitive as box body*
4,1,4,$2,$3,$4,$5,$6,$7,$8,$9,$2,$3,0*
0 Add four circle primitives for the rounded corners*
1,1,$1+$1,$2,$3*
1,1,$1+$1,$4,$5*
1,1,$1+$1,$6,$7*
1,1,$1+$1,$8,$9*
0 Add four rect primitives between the rounded corners*
20,1,$1+$1,$2,$3,$4,$5,0*
20,1,$1+$1,$4,$5,$6,$7,0*
20,1,$1+$1,$6,$7,$8,$9,0*
20,1,$1+$1,$8,$9,$2,$3,0*%
G04 Aperture macros list end*
%TA.AperFunction,ComponentPad*%
%ADD10O,1.700000X1.700000*%
%TD*%
%TA.AperFunction,ComponentPad*%
%ADD11R,1.700000X1.700000*%
%TD*%
%TA.AperFunction,SMDPad,CuDef*%
%ADD12R,1.550000X0.600000*%
%TD*%
%TA.AperFunction,SMDPad,CuDef*%
%ADD13RoundRect,0.150000X0.825000X0.150000X-0.825000X0.150000X-0.825000X-0.150000X0.825000X-0.150000X0*%
%TD*%
%TA.AperFunction,ComponentPad*%
%ADD14O,3.240000X2.720000*%
%TD*%
%TA.AperFunction,ComponentPad*%
%ADD15R,1.800000X1.800000*%
%TD*%
%TA.AperFunction,ComponentPad*%
%ADD16C,1.800000*%
%TD*%
%TA.AperFunction,SMDPad,CuDef*%
%ADD17RoundRect,0.250000X0.450000X-0.350000X0.450000X0.350000X-0.450000X0.350000X-0.450000X-0.350000X0*%
%TD*%
%TA.AperFunction,SMDPad,CuDef*%
%ADD18RoundRect,0.250000X0.350000X0.450000X-0.350000X0.450000X-0.350000X-0.450000X0.350000X-0.450000X0*%
%TD*%
%TA.AperFunction,SMDPad,CuDef*%
%ADD19RoundRect,0.250000X-0.450000X0.350000X-0.450000X-0.350000X0.450000X-0.350000X0.450000X0.350000X0*%
%TD*%
%TA.AperFunction,SMDPad,CuDef*%
%ADD20RoundRect,0.250000X-0.350000X-0.450000X0.350000X-0.450000X0.350000X0.450000X-0.350000X0.450000X0*%
%TD*%
%TA.AperFunction,ComponentPad*%
%ADD21O,1.400000X1.400000*%
%TD*%
%TA.AperFunction,ComponentPad*%
%ADD22C,1.400000*%
%TD*%
%TA.AperFunction,SMDPad,CuDef*%
%ADD23RoundRect,0.150000X-0.587500X-0.150000X0.587500X-0.150000X0.587500X0.150000X-0.587500X0.150000X0*%
%TD*%
%TA.AperFunction,SMDPad,CuDef*%
%ADD24RoundRect,0.150000X0.587500X0.150000X-0.587500X0.150000X-0.587500X-0.150000X0.587500X-0.150000X0*%
%TD*%
%TA.AperFunction,SMDPad,CuDef*%
%ADD25RoundRect,0.150000X-0.150000X0.587500X-0.150000X-0.587500X0.150000X-0.587500X0.150000X0.587500X0*%
%TD*%
%TA.AperFunction,ComponentPad*%
%ADD26C,1.930400*%
%TD*%
%TA.AperFunction,SMDPad,CuDef*%
%ADD27RoundRect,0.112500X0.112500X-0.187500X0.112500X0.187500X-0.112500X0.187500X-0.112500X-0.187500X0*%
%TD*%
%TA.AperFunction,SMDPad,CuDef*%
%ADD28RoundRect,0.112500X-0.112500X0.187500X-0.112500X-0.187500X0.112500X-0.187500X0.112500X0.187500X0*%
%TD*%
%TA.AperFunction,ComponentPad*%
%ADD29O,2.200000X2.200000*%
%TD*%
%TA.AperFunction,ComponentPad*%
%ADD30R,2.200000X2.200000*%
%TD*%
%TA.AperFunction,SMDPad,CuDef*%
%ADD31RoundRect,0.250000X-0.475000X0.337500X-0.475000X-0.337500X0.475000X-0.337500X0.475000X0.337500X0*%
%TD*%
%TA.AperFunction,ComponentPad*%
%ADD32C,1.200000*%
%TD*%
%TA.AperFunction,ComponentPad*%
%ADD33R,1.200000X1.200000*%
%TD*%
%TA.AperFunction,SMDPad,CuDef*%
%ADD34RoundRect,0.250000X0.475000X-0.337500X0.475000X0.337500X-0.475000X0.337500X-0.475000X-0.337500X0*%
%TD*%
%TA.AperFunction,ViaPad*%
%ADD35C,0.600000*%
%TD*%
%TA.AperFunction,Conductor*%
%ADD36C,0.200000*%
%TD*%
G04 APERTURE END LIST*
D10*
%TO.P,J2,10,-12V*%
%TO.N,unconnected-(J2--12V-Pad10)*%
X110300000Y-109590000D03*
%TO.P,J2,9,-12V*%
%TO.N,unconnected-(J2--12V-Pad9)*%
X110300000Y-107050000D03*
%TO.P,J2,8,GND*%
%TO.N,GND*%
X112840000Y-109590000D03*
%TO.P,J2,7,GND*%
X112840000Y-107050000D03*
%TO.P,J2,6,GND*%
X115380000Y-109590000D03*
%TO.P,J2,5,GND*%
X115380000Y-107050000D03*
%TO.P,J2,4,GND*%
X117920000Y-109590000D03*
%TO.P,J2,3,GND*%
X117920000Y-107050000D03*
%TO.P,J2,2,+12V*%
%TO.N,Net-(D1-A)*%
X120460000Y-109590000D03*
D11*
%TO.P,J2,1,+12V*%
X120460000Y-107050000D03*
%TD*%
D12*
%TO.P,U2,8,V+*%
%TO.N,+12V*%
X114527200Y-96445000D03*
%TO.P,U2,7*%
%TO.N,Net-(U2B--)*%
X114527200Y-97715000D03*
%TO.P,U2,6,-*%
X114527200Y-98985000D03*
%TO.P,U2,5,+*%
%TO.N,Net-(D6-K)*%
X114527200Y-100255000D03*
%TO.P,U2,4,V-*%
%TO.N,GND*%
X119927200Y-100255000D03*
%TO.P,U2,3,+*%
%TO.N,Net-(U2A-+)*%
X119927200Y-98985000D03*
%TO.P,U2,2,-*%
%TO.N,Net-(U2A--)*%
X119927200Y-97715000D03*
%TO.P,U2,1*%
X119927200Y-96445000D03*
%TD*%
D13*
%TO.P,U1,8,VCC*%
%TO.N,+12V*%
X114785000Y-76145000D03*
%TO.P,U1,7,DIS*%
%TO.N,Net-(U1-DIS)*%
X114785000Y-77415000D03*
%TO.P,U1,6,THR*%
%TO.N,Net-(D6-K)*%
X114785000Y-78685000D03*
%TO.P,U1,5,CV*%
%TO.N,Net-(U1-CV)*%
X114785000Y-79955000D03*
%TO.P,U1,4,R*%
%TO.N,Net-(Q2-C)*%
X119735000Y-79955000D03*
%TO.P,U1,3,Q*%
%TO.N,Net-(U1-Q)*%
X119735000Y-78685000D03*
%TO.P,U1,2,TR*%
%TO.N,Net-(Q1-C)*%
X119735000Y-77415000D03*
%TO.P,U1,1,GND*%
%TO.N,GND*%
X119735000Y-76145000D03*
%TD*%
D14*
%TO.P,RV4,*%
%TO.N,*%
X117160000Y-113450000D03*
X117160000Y-123050000D03*
D15*
%TO.P,RV4,1,1*%
%TO.N,Net-(R14-Pad2)*%
X109660000Y-115750000D03*
D16*
%TO.P,RV4,2,2*%
%TO.N,Net-(D8-K)*%
X109660000Y-118250000D03*
%TO.P,RV4,3,3*%
X109660000Y-120750000D03*
%TD*%
D14*
%TO.P,RV3,*%
%TO.N,*%
X117160000Y-93450000D03*
X117160000Y-103050000D03*
D15*
%TO.P,RV3,1,1*%
%TO.N,Net-(U1-DIS)*%
X109660000Y-95750000D03*
D16*
%TO.P,RV3,2,2*%
%TO.N,Net-(U2A-+)*%
X109660000Y-98250000D03*
%TO.P,RV3,3,3*%
%TO.N,Net-(R15-Pad1)*%
X109660000Y-100750000D03*
%TD*%
D14*
%TO.P,RV2,*%
%TO.N,*%
X117160000Y-73450000D03*
X117160000Y-83050000D03*
D15*
%TO.P,RV2,1,1*%
%TO.N,Net-(R13-Pad2)*%
X109660000Y-75750000D03*
D16*
%TO.P,RV2,2,2*%
%TO.N,Net-(D7-K)*%
X109660000Y-78250000D03*
%TO.P,RV2,3,3*%
X109660000Y-80750000D03*
%TD*%
D14*
%TO.P,RV1,*%
%TO.N,*%
X117160000Y-53450000D03*
X117160000Y-63050000D03*
D15*
%TO.P,RV1,1,1*%
%TO.N,Net-(R1-Pad2)*%
X109660000Y-55750000D03*
D16*
%TO.P,RV1,2,2*%
%TO.N,Net-(D6-A)*%
X109660000Y-58250000D03*
%TO.P,RV1,3,3*%
X109660000Y-60750000D03*
%TD*%
D17*
%TO.P,R15,2*%
%TO.N,+12V*%
X112160000Y-98050000D03*
%TO.P,R15,1*%
%TO.N,Net-(R15-Pad1)*%
X112160000Y-100050000D03*
%TD*%
D18*
%TO.P,R14,2*%
%TO.N,Net-(R14-Pad2)*%
X109660000Y-113450000D03*
%TO.P,R14,1*%
%TO.N,Net-(Q2-C)*%
X111660000Y-113450000D03*
%TD*%
D17*
%TO.P,R13,2*%
%TO.N,Net-(R13-Pad2)*%
X123360000Y-94250000D03*
%TO.P,R13,1*%
%TO.N,Net-(U2A--)*%
X123360000Y-96250000D03*
%TD*%
D18*
%TO.P,R12,2*%
%TO.N,Net-(Q4-B)*%
X112060000Y-140850000D03*
%TO.P,R12,1*%
%TO.N,Net-(U2B--)*%
X114060000Y-140850000D03*
%TD*%
D19*
%TO.P,R11,2*%
%TO.N,Net-(Q2-C)*%
X119460000Y-71250000D03*
%TO.P,R11,1*%
%TO.N,Net-(D4-K)*%
X119460000Y-69250000D03*
%TD*%
D20*
%TO.P,R10,2*%
%TO.N,Net-(D4-K)*%
X112960000Y-69050000D03*
%TO.P,R10,1*%
%TO.N,Net-(J3-PadT)*%
X110960000Y-69050000D03*
%TD*%
D19*
%TO.P,R8,2*%
%TO.N,Net-(Q3-C)*%
X125260000Y-73650000D03*
%TO.P,R8,1*%
%TO.N,+12V*%
X125260000Y-71650000D03*
%TD*%
%TO.P,R7,2*%
%TO.N,Net-(Q2-B)*%
X125260000Y-77750000D03*
%TO.P,R7,1*%
%TO.N,Net-(Q3-C)*%
X125260000Y-75750000D03*
%TD*%
D17*
%TO.P,R6,2*%
%TO.N,Net-(Q2-C)*%
X123360000Y-85350000D03*
%TO.P,R6,1*%
%TO.N,+12V*%
X123360000Y-87350000D03*
%TD*%
D18*
%TO.P,R5,2*%
%TO.N,Net-(D5-K)*%
X110060000Y-85050000D03*
%TO.P,R5,1*%
%TO.N,Net-(Q1-B)*%
X112060000Y-85050000D03*
%TD*%
D19*
%TO.P,R4,1*%
%TO.N,Net-(D2-K)*%
X121050000Y-136670000D03*
%TO.P,R4,2*%
%TO.N,Net-(Q4-C)*%
X121050000Y-138670000D03*
%TD*%
D21*
%TO.P,R3,2*%
%TO.N,Net-(D1-K)*%
X124460000Y-116355000D03*
D22*
%TO.P,R3,1*%
%TO.N,+12V*%
X124460000Y-118255000D03*
%TD*%
D18*
%TO.P,R2,2*%
%TO.N,+12V*%
X112460000Y-89150000D03*
%TO.P,R2,1*%
%TO.N,Net-(Q1-C)*%
X114460000Y-89150000D03*
%TD*%
%TO.P,R1,2*%
%TO.N,Net-(R1-Pad2)*%
X111860000Y-55750000D03*
%TO.P,R1,1*%
%TO.N,Net-(U1-Q)*%
X113860000Y-55750000D03*
%TD*%
D23*
%TO.P,Q4,3,C*%
%TO.N,Net-(Q4-C)*%
X118490000Y-138710000D03*
%TO.P,Q4,2,E*%
%TO.N,GND*%
X116615000Y-137760000D03*
%TO.P,Q4,1,B*%
%TO.N,Net-(Q4-B)*%
X116615000Y-139660000D03*
%TD*%
%TO.P,Q3,3,C*%
%TO.N,Net-(Q3-C)*%
X122360000Y-66350000D03*
%TO.P,Q3,2,E*%
%TO.N,GND*%
X120485000Y-65400000D03*
%TO.P,Q3,1,B*%
%TO.N,Net-(D4-K)*%
X120485000Y-67300000D03*
%TD*%
D24*
%TO.P,Q2,3,C*%
%TO.N,Net-(Q2-C)*%
X123422500Y-81750000D03*
%TO.P,Q2,2,E*%
%TO.N,GND*%
X125297500Y-82700000D03*
%TO.P,Q2,1,B*%
%TO.N,Net-(Q2-B)*%
X125297500Y-80800000D03*
%TD*%
D25*
%TO.P,Q1,3,C*%
%TO.N,Net-(Q1-C)*%
X117210000Y-89025000D03*
%TO.P,Q1,2,E*%
%TO.N,GND*%
X118160000Y-87150000D03*
%TO.P,Q1,1,B*%
%TO.N,Net-(Q1-B)*%
X116260000Y-87150000D03*
%TD*%
D26*
%TO.P,J3,TN*%
%TO.N,unconnected-(J3-PadTN)*%
X120512800Y-133250000D03*
%TO.P,J3,T*%
%TO.N,Net-(J3-PadT)*%
X111953000Y-133250000D03*
%TO.P,J3,S*%
%TO.N,GND*%
X122925800Y-133250000D03*
%TD*%
%TO.P,J1,TN*%
%TO.N,unconnected-(J1-PadTN)*%
X120512800Y-143250000D03*
%TO.P,J1,T*%
%TO.N,Net-(Q4-B)*%
X111953000Y-143250000D03*
%TO.P,J1,S*%
%TO.N,GND*%
X122925800Y-143250000D03*
%TD*%
D27*
%TO.P,D8,2,A*%
%TO.N,Net-(D6-K)*%
X112232500Y-116277500D03*
%TO.P,D8,1,K*%
%TO.N,Net-(D8-K)*%
X112232500Y-118377500D03*
%TD*%
D28*
%TO.P,D7,2,A*%
%TO.N,Net-(D6-K)*%
X112482500Y-78422500D03*
%TO.P,D7,1,K*%
%TO.N,Net-(D7-K)*%
X112482500Y-76322500D03*
%TD*%
D27*
%TO.P,D6,2,A*%
%TO.N,Net-(D6-A)*%
X111932500Y-60777500D03*
%TO.P,D6,1,K*%
%TO.N,Net-(D6-K)*%
X111932500Y-62877500D03*
%TD*%
D28*
%TO.P,D5,2,A*%
%TO.N,GND*%
X109660000Y-89900000D03*
%TO.P,D5,1,K*%
%TO.N,Net-(D5-K)*%
X109660000Y-87800000D03*
%TD*%
D27*
%TO.P,D4,2,A*%
%TO.N,GND*%
X116560000Y-65350000D03*
%TO.P,D4,1,K*%
%TO.N,Net-(D4-K)*%
X116560000Y-67450000D03*
%TD*%
D16*
%TO.P,D2,2,A*%
%TO.N,+12V*%
X124395000Y-136985000D03*
D15*
%TO.P,D2,1,K*%
%TO.N,Net-(D2-K)*%
X124395000Y-139525000D03*
%TD*%
D29*
%TO.P,D1,2,A*%
%TO.N,Net-(D1-A)*%
X124460000Y-109913532D03*
D30*
%TO.P,D1,1,K*%
%TO.N,Net-(D1-K)*%
X124460000Y-112453532D03*
%TD*%
D31*
%TO.P,C7,2*%
%TO.N,+12V*%
X114060000Y-94487500D03*
%TO.P,C7,1*%
%TO.N,GND*%
X114060000Y-92412500D03*
%TD*%
D32*
%TO.P,C6,2*%
%TO.N,GND*%
X123787400Y-100822598D03*
D33*
%TO.P,C6,1*%
%TO.N,Net-(D6-K)*%
X123787400Y-102822598D03*
%TD*%
D31*
%TO.P,C5,2*%
%TO.N,Net-(D5-K)*%
X119997500Y-83787500D03*
%TO.P,C5,1*%
%TO.N,Net-(Q2-C)*%
X119997500Y-81712500D03*
%TD*%
%TO.P,C4,2*%
%TO.N,GND*%
X114460000Y-83987500D03*
%TO.P,C4,1*%
%TO.N,Net-(U1-CV)*%
X114460000Y-81912500D03*
%TD*%
D32*
%TO.P,C2,2*%
%TO.N,GND*%
X123587400Y-123077398D03*
D33*
%TO.P,C2,1*%
%TO.N,+12V*%
X123587400Y-121077398D03*
%TD*%
D34*
%TO.P,C1,2*%
%TO.N,GND*%
X114460000Y-71912500D03*
%TO.P,C1,1*%
%TO.N,+12V*%
X114460000Y-73987500D03*
%TD*%
D35*
%TO.N,GND*%
X124660000Y-67350000D03*
X109810000Y-82825000D03*
X109660000Y-92575000D03*
X122835000Y-98550000D03*
X110410000Y-103675000D03*
X110360000Y-111600000D03*
X112760000Y-112350000D03*
X111960000Y-51650000D03*
X121960000Y-56850000D03*
X114760000Y-64650000D03*
X116960000Y-80250000D03*
X120360000Y-75150000D03*
X123560000Y-73850000D03*
X123260000Y-80150000D03*
X122160000Y-86350000D03*
X123660000Y-89450000D03*
X115460000Y-91150000D03*
X113360000Y-82950000D03*
X108860000Y-124450000D03*
X112760000Y-122150000D03*
X120560000Y-118150000D03*
X120460000Y-102250000D03*
X122960000Y-106050000D03*
X117260000Y-96650000D03*
X109860000Y-72950000D03*
X116960000Y-70450000D03*
X125360000Y-84550000D03*
X120060000Y-86950000D03*
X114860000Y-85950000D03*
%TO.N,Net-(U2B--)*%
X114260000Y-135950000D03*
X116360000Y-98550000D03*
%TO.N,Net-(R13-Pad2)*%
X110660000Y-87050000D03*
X113960000Y-87950000D03*
X122260000Y-93050000D03*
%TO.N,Net-(D6-K)*%
X113260000Y-101550000D03*
X112460000Y-80050000D03*
%TO.N,Net-(U1-DIS)*%
X112835000Y-94250000D03*
X116560000Y-78050000D03*
%TO.N,Net-(Q1-C)*%
X118460000Y-89050000D03*
X118160000Y-77450000D03*
%TO.N,Net-(U1-Q)*%
X121360000Y-71250000D03*
X116460000Y-57050000D03*
%TO.N,Net-(J3-PadT)*%
X111060000Y-70850000D03*
%TO.N,Net-(D6-K)*%
X112260000Y-77450000D03*
X111960000Y-64850000D03*
%TO.N,+12V*%
X125260000Y-69550000D03*
X114460000Y-75250000D03*
X121260000Y-90150000D03*
%TD*%
D36*
%TO.N,Net-(Q4-B)*%
X116615000Y-139959999D02*
X113324999Y-143250000D01*
X116615000Y-139660000D02*
X116615000Y-139959999D01*
X113324999Y-143250000D02*
X111953000Y-143250000D01*
%TO.N,Net-(Q4-C)*%
X118530000Y-138670000D02*
X118490000Y-138710000D01*
X121050000Y-138670000D02*
X118530000Y-138670000D01*
%TO.N,Net-(D2-K)*%
X121540000Y-136670000D02*
X121050000Y-136670000D01*
X124395000Y-139525000D02*
X121540000Y-136670000D01*
%TO.N,GND*%
X119735000Y-75775000D02*
X120360000Y-75150000D01*
X119735000Y-76145000D02*
X119735000Y-75775000D01*
X114397500Y-83987500D02*
X113360000Y-82950000D01*
X114460000Y-83987500D02*
X114397500Y-83987500D01*
X114460000Y-83987500D02*
X114097500Y-83987500D01*
%TO.N,Net-(Q2-C)*%
X124760000Y-86750000D02*
X123360000Y-85350000D01*
X116770000Y-106573654D02*
X119621056Y-103722598D01*
X116770000Y-107526346D02*
X116770000Y-106573654D01*
X115856346Y-108440000D02*
X116770000Y-107526346D01*
X119621056Y-103722598D02*
X124687400Y-103722598D01*
X114903654Y-108440000D02*
X115856346Y-108440000D01*
X114230000Y-109113654D02*
X114903654Y-108440000D01*
X124760000Y-103649998D02*
X124760000Y-86750000D01*
X114230000Y-115166480D02*
X114230000Y-109113654D01*
X124687400Y-103722598D02*
X124760000Y-103649998D01*
X112518980Y-116877500D02*
X114230000Y-115166480D01*
X111946020Y-116877500D02*
X112518980Y-116877500D01*
X111660000Y-113450000D02*
X111660000Y-116591480D01*
X111660000Y-116591480D02*
X111946020Y-116877500D01*
%TO.N,Net-(D6-K)*%
X111690000Y-110080000D02*
X111690000Y-103120000D01*
X113560000Y-111950000D02*
X111690000Y-110080000D01*
X113560000Y-114279744D02*
X113560000Y-111950000D01*
X111690000Y-103120000D02*
X113260000Y-101550000D01*
X112232500Y-115607244D02*
X113560000Y-114279744D01*
X112232500Y-116277500D02*
X112232500Y-115607244D01*
%TO.N,Net-(U2B--)*%
X114060000Y-140850000D02*
X114260000Y-140650000D01*
X114260000Y-140650000D02*
X114260000Y-135950000D01*
X116460000Y-98550000D02*
X116360000Y-98450000D01*
X116360000Y-98550000D02*
X116460000Y-98550000D01*
X116360000Y-98450000D02*
X116360000Y-98550000D01*
X114527200Y-97715000D02*
X115625000Y-97715000D01*
X115625000Y-97715000D02*
X116360000Y-98450000D01*
%TO.N,Net-(R13-Pad2)*%
X110560000Y-87050000D02*
X110660000Y-87150000D01*
X110660000Y-87050000D02*
X110560000Y-87050000D01*
X110660000Y-87150000D02*
X110660000Y-87050000D01*
X110710000Y-87200000D02*
X110660000Y-87150000D01*
X113210000Y-87200000D02*
X110710000Y-87200000D01*
X113960000Y-87950000D02*
X113210000Y-87200000D01*
X122160000Y-93050000D02*
X122260000Y-93150000D01*
X122260000Y-93050000D02*
X122160000Y-93050000D01*
X122260000Y-93150000D02*
X122260000Y-93050000D01*
X123360000Y-94250000D02*
X122260000Y-93150000D01*
%TO.N,Net-(Q2-C)*%
X119460000Y-74804448D02*
X117460000Y-76804448D01*
X119460000Y-71250000D02*
X119460000Y-74804448D01*
X119389448Y-79955000D02*
X119735000Y-79955000D01*
X117460000Y-76804448D02*
X117460000Y-78025552D01*
X117460000Y-78025552D02*
X119389448Y-79955000D01*
%TO.N,Net-(Q1-C)*%
X119735000Y-77415000D02*
X118195000Y-77415000D01*
X118195000Y-77415000D02*
X118160000Y-77450000D01*
%TO.N,Net-(Q2-C)*%
X123360000Y-81812500D02*
X123422500Y-81750000D01*
X123360000Y-85350000D02*
X123360000Y-81812500D01*
%TO.N,Net-(U1-CV)*%
X114460000Y-80280000D02*
X114785000Y-79955000D01*
X114460000Y-81912500D02*
X114460000Y-80280000D01*
%TO.N,Net-(R14-Pad2)*%
X109660000Y-113450000D02*
X109660000Y-115750000D01*
%TO.N,Net-(D6-K)*%
X114527200Y-100282800D02*
X113260000Y-101550000D01*
X114527200Y-100255000D02*
X114527200Y-100282800D01*
%TO.N,Net-(U1-DIS)*%
X111335000Y-95750000D02*
X109660000Y-95750000D01*
X112835000Y-94250000D02*
X111335000Y-95750000D01*
%TO.N,+12V*%
X112460000Y-92409744D02*
X112460000Y-89150000D01*
X114060000Y-94009744D02*
X112460000Y-92409744D01*
X114060000Y-94487500D02*
X114060000Y-94009744D01*
%TO.N,Net-(D6-K)*%
X112482500Y-80072500D02*
X112482500Y-80127500D01*
X112460000Y-80050000D02*
X112482500Y-80072500D01*
X112482500Y-80027500D02*
X112460000Y-80050000D01*
X112482500Y-80127500D02*
X112460000Y-80150000D01*
X112482500Y-78422500D02*
X112482500Y-80027500D01*
%TO.N,Net-(U1-DIS)*%
X116660000Y-78050000D02*
X116560000Y-77950000D01*
X116560000Y-78050000D02*
X116660000Y-78050000D01*
X116560000Y-77950000D02*
X116560000Y-78050000D01*
X116025000Y-77415000D02*
X116560000Y-77950000D01*
X114785000Y-77415000D02*
X116025000Y-77415000D01*
%TO.N,Net-(Q1-C)*%
X118435000Y-89025000D02*
X118460000Y-89050000D01*
X117210000Y-89025000D02*
X118435000Y-89025000D01*
%TO.N,Net-(U1-Q)*%
X120709999Y-78685000D02*
X121360000Y-78034999D01*
X119735000Y-78685000D02*
X120709999Y-78685000D01*
X121360000Y-78034999D02*
X121360000Y-71250000D01*
X116460000Y-57150000D02*
X116360000Y-57050000D01*
X116460000Y-57050000D02*
X116460000Y-57150000D01*
X116360000Y-57050000D02*
X116460000Y-57050000D01*
X115060000Y-55750000D02*
X116360000Y-57050000D01*
X113860000Y-55750000D02*
X115060000Y-55750000D01*
%TO.N,Net-(J3-PadT)*%
X111060000Y-70850000D02*
X110960000Y-70750000D01*
X110960000Y-69050000D02*
X111060000Y-70850000D01*
%TO.N,Net-(D6-K)*%
X112482500Y-77672500D02*
X112260000Y-77450000D01*
X112482500Y-78422500D02*
X112482500Y-77672500D01*
X112060000Y-64850000D02*
X111960000Y-64750000D01*
X111960000Y-64850000D02*
X112060000Y-64850000D01*
X111960000Y-64750000D02*
X111960000Y-64850000D01*
X111932500Y-62877500D02*
X111932500Y-64722500D01*
X111932500Y-64722500D02*
X111960000Y-64750000D01*
%TO.N,+12V*%
X125560000Y-71350000D02*
X125560000Y-69850000D01*
X125260000Y-71650000D02*
X125560000Y-71350000D01*
X125560000Y-69850000D02*
X125260000Y-69550000D01*
X114460000Y-75250000D02*
X114460000Y-73987500D01*
X114460000Y-75820000D02*
X114460000Y-75250000D01*
X114785000Y-76145000D02*
X114460000Y-75820000D01*
%TO.N,Net-(D7-K)*%
X112482500Y-76322500D02*
X111587500Y-76322500D01*
X111587500Y-76322500D02*
X109660000Y-78250000D01*
%TO.N,Net-(D5-K)*%
X111060000Y-84050000D02*
X110060000Y-85050000D01*
X118910000Y-84875000D02*
X113469744Y-84875000D01*
X113469744Y-84875000D02*
X112644744Y-84050000D01*
X119997500Y-83787500D02*
X118910000Y-84875000D01*
%TO.N,Net-(Q1-B)*%
X114160000Y-87150000D02*
X112060000Y-85050000D01*
X116260000Y-87150000D02*
X114160000Y-87150000D01*
%TO.N,Net-(D5-K)*%
X112644744Y-84050000D02*
X111060000Y-84050000D01*
%TO.N,Net-(D6-K)*%
X122214802Y-101250000D02*
X123787400Y-102822598D01*
X114527200Y-100255000D02*
X115522200Y-101250000D01*
X115522200Y-101250000D02*
X122214802Y-101250000D01*
%TO.N,Net-(U2A-+)*%
X113279744Y-99585000D02*
X112644744Y-98950000D01*
X112644744Y-98950000D02*
X110360000Y-98950000D01*
X119327200Y-99585000D02*
X113279744Y-99585000D01*
X119927200Y-98985000D02*
X119327200Y-99585000D01*
X110360000Y-98950000D02*
X109660000Y-98250000D01*
%TO.N,Net-(U2B--)*%
X114527200Y-97715000D02*
X114527200Y-98985000D01*
%TO.N,Net-(Q4-B)*%
X112060000Y-140850000D02*
X112060000Y-143143000D01*
X112060000Y-143143000D02*
X111953000Y-143250000D01*
%TO.N,Net-(D8-K)*%
X109787500Y-118377500D02*
X109660000Y-118250000D01*
X112232500Y-118377500D02*
X109787500Y-118377500D01*
%TO.N,+12V*%
X113765000Y-96445000D02*
X114527200Y-96445000D01*
X112160000Y-98050000D02*
X113765000Y-96445000D01*
%TO.N,Net-(R1-Pad2)*%
X111860000Y-55750000D02*
X109660000Y-55750000D01*
%TO.N,Net-(D6-A)*%
X109687500Y-60777500D02*
X109660000Y-60750000D01*
X111932500Y-60777500D02*
X109687500Y-60777500D01*
%TO.N,Net-(D6-K)*%
X112745000Y-78685000D02*
X112482500Y-78422500D01*
X114785000Y-78685000D02*
X112745000Y-78685000D01*
%TO.N,Net-(D4-K)*%
X112960000Y-69050000D02*
X114960000Y-69050000D01*
X114960000Y-69050000D02*
X116560000Y-67450000D01*
X118360000Y-69250000D02*
X116560000Y-67450000D01*
X119460000Y-69250000D02*
X118360000Y-69250000D01*
X119460000Y-68325000D02*
X120485000Y-67300000D01*
X119460000Y-69250000D02*
X119460000Y-68325000D01*
%TO.N,Net-(Q3-C)*%
X122360000Y-70750000D02*
X122360000Y-66350000D01*
X125260000Y-73650000D02*
X122360000Y-70750000D01*
X125260000Y-75750000D02*
X125260000Y-73650000D01*
%TO.N,Net-(Q2-C)*%
X119997500Y-80217500D02*
X119735000Y-79955000D01*
X119997500Y-81712500D02*
X119997500Y-80217500D01*
X120035000Y-81750000D02*
X119997500Y-81712500D01*
X123422500Y-81750000D02*
X120035000Y-81750000D01*
%TO.N,Net-(Q2-B)*%
X125297500Y-77787500D02*
X125260000Y-77750000D01*
X125297500Y-80800000D02*
X125297500Y-77787500D01*
%TO.N,Net-(D5-K)*%
X109660000Y-85450000D02*
X110060000Y-85050000D01*
X109660000Y-87800000D02*
X109660000Y-85450000D01*
%TO.N,Net-(Q1-C)*%
X114585000Y-89025000D02*
X114460000Y-89150000D01*
X117210000Y-89025000D02*
X114585000Y-89025000D01*
%TO.N,+12V*%
X112460000Y-89150000D02*
X113460000Y-90150000D01*
X113460000Y-90150000D02*
X121260000Y-90150000D01*
X123360000Y-87350000D02*
X123360000Y-88050000D01*
X123360000Y-88050000D02*
X121260000Y-90150000D01*
X114527200Y-94954700D02*
X114060000Y-94487500D01*
X114527200Y-96445000D02*
X114527200Y-94954700D01*
%TO.N,Net-(U2A--)*%
X119927200Y-96445000D02*
X119927200Y-97715000D01*
X120122200Y-96250000D02*
X119927200Y-96445000D01*
X123360000Y-96250000D02*
X120122200Y-96250000D01*
%TO.N,Net-(R15-Pad1)*%
X110360000Y-100050000D02*
X109660000Y-100750000D01*
X112160000Y-100050000D02*
X110360000Y-100050000D01*
%TD*%
%TA.AperFunction,Conductor*%
%TO.N,GND*%
G36*
X126080772Y-81591016D02*
G01*
X126139443Y-81628957D01*
X126168287Y-81692595D01*
X126169500Y-81709894D01*
X126169500Y-81790625D01*
X126149815Y-81857664D01*
X126097011Y-81903419D01*
X126027853Y-81913363D01*
X126010909Y-81909702D01*
X125987498Y-81902901D01*
X125987489Y-81902899D01*
X125950649Y-81900000D01*
X125547500Y-81900000D01*
X125547500Y-83500000D01*
X125950634Y-83500000D01*
X125950649Y-83499999D01*
X125987489Y-83497100D01*
X125987495Y-83497099D01*
X126010905Y-83490298D01*
X126080774Y-83490497D01*
X126139444Y-83528439D01*
X126168288Y-83592077D01*
X126169500Y-83609374D01*
X126169500Y-109234930D01*
X126149815Y-109301969D01*
X126097011Y-109347724D01*
X126027853Y-109357668D01*
X125964297Y-109328643D01*
X125930939Y-109282383D01*
X125890466Y-109184672D01*
X125758839Y-108969878D01*
X125758838Y-108969875D01*
X125621590Y-108809179D01*
X125595224Y-108778308D01*
X125425245Y-108633132D01*
X125403656Y-108614693D01*
X125403653Y-108614692D01*
X125188859Y-108483065D01*
X124956110Y-108386658D01*
X124711151Y-108327849D01*
X124460000Y-108308083D01*
X124208848Y-108327849D01*
X123963889Y-108386658D01*
X123731140Y-108483065D01*
X123516346Y-108614692D01*
X123516343Y-108614693D01*
X123324776Y-108778308D01*
X123161161Y-108969875D01*
X123161160Y-108969878D01*
X123029533Y-109184672D01*
X122933126Y-109417421D01*
X122874317Y-109662380D01*
X122854551Y-109913532D01*
X122874317Y-110164683D01*
X122933126Y-110409642D01*
X123029533Y-110642391D01*
X123110520Y-110774548D01*
X123128765Y-110841994D01*
X123107649Y-110908596D01*
X123079105Y-110938604D01*
X123002452Y-110995987D01*
X122916206Y-111111196D01*
X122916202Y-111111203D01*
X122865908Y-111246049D01*
X122859501Y-111305648D01*
X122859500Y-111305667D01*
X122859500Y-113601402D01*
X122859501Y-113601408D01*
X122865908Y-113661015D01*
X122916202Y-113795860D01*
X122916206Y-113795867D01*
X123002452Y-113911076D01*
X123002455Y-113911079D01*
X123117664Y-113997325D01*
X123117671Y-113997329D01*
X123252517Y-114047623D01*
X123252516Y-114047623D01*
X123259444Y-114048367D01*
X123312127Y-114054032D01*
X125607872Y-114054031D01*
X125667483Y-114047623D01*
X125802331Y-113997328D01*
X125917546Y-113911078D01*
X125946234Y-113872754D01*
X126002167Y-113830885D01*
X126071859Y-113825901D01*
X126133182Y-113859386D01*
X126166666Y-113920709D01*
X126169500Y-113947067D01*
X126169500Y-147575500D01*
X126149815Y-147642539D01*
X126097011Y-147688294D01*
X126045500Y-147699500D01*
X108274500Y-147699500D01*
X108207461Y-147679815D01*
X108161706Y-147627011D01*
X108150500Y-147575500D01*
X108150500Y-143250005D01*
X110482277Y-143250005D01*
X110502335Y-143492069D01*
X110561965Y-143727543D01*
X110659537Y-143949986D01*
X110792390Y-144153334D01*
X110792393Y-144153337D01*
X110956906Y-144332046D01*
X110956909Y-144332048D01*
X110956912Y-144332051D01*
X111148582Y-144481234D01*
X111148588Y-144481238D01*
X111148591Y-144481240D01*
X111323873Y-144576098D01*
X111361372Y-144596392D01*
X111362217Y-144596849D01*
X111591959Y-144675719D01*
X111831549Y-144715700D01*
X111831550Y-144715700D01*
X112074450Y-144715700D01*
X112074451Y-144715700D01*
X112314041Y-144675719D01*
X112543783Y-144596849D01*
X112757409Y-144481240D01*
X112757944Y-144480824D01*
X112821776Y-144431140D01*
X112949094Y-144332046D01*
X113113607Y-144153337D01*
X113246462Y-143949987D01*
X113257558Y-143924691D01*
X113302514Y-143871205D01*
X113369250Y-143850515D01*
X113371114Y-143850501D01*
X113404053Y-143850501D01*
X113404056Y-143850501D01*
X113556784Y-143809577D01*
X113606903Y-143780639D01*
X113693715Y-143730520D01*
X113805519Y-143618716D01*
X113805519Y-143618714D01*
X113815727Y-143608507D01*
X113815728Y-143608504D01*
X114174227Y-143250005D01*
X119042077Y-143250005D01*
X119062135Y-143492069D01*
X119121765Y-143727543D01*
X119219337Y-143949986D01*
X119352190Y-144153334D01*
X119352193Y-144153337D01*
X119516706Y-144332046D01*
X119516709Y-144332048D01*
X119516712Y-144332051D01*
X119708382Y-144481234D01*
X119708388Y-144481238D01*
X119708391Y-144481240D01*
X119883673Y-144576098D01*
X119921172Y-144596392D01*
X119922017Y-144596849D01*
X120151759Y-144675719D01*
X120391349Y-144715700D01*
X120391350Y-144715700D01*
X120634250Y-144715700D01*
X120634251Y-144715700D01*
X120873841Y-144675719D01*
X121103583Y-144596849D01*
X121317209Y-144481240D01*
X121317744Y-144480824D01*
X121381576Y-144431140D01*
X121508894Y-144332046D01*
X121673407Y-144153337D01*
X121674847Y-144151132D01*
X121690977Y-144131269D01*
X122488152Y-143334094D01*
X122511592Y-143421571D01*
X122570111Y-143522930D01*
X122652870Y-143605689D01*
X122754229Y-143664208D01*
X122841705Y-143687647D01*
X122080540Y-144448811D01*
X122121667Y-144480822D01*
X122121670Y-144480824D01*
X122335212Y-144596386D01*
X122335226Y-144596392D01*
X122564879Y-144675233D01*
X122804390Y-144715200D01*
X123047210Y-144715200D01*
X123286720Y-144675233D01*
X123516373Y-144596392D01*
X123516387Y-144596386D01*
X123729931Y-144480823D01*
X123729937Y-144480818D01*
X123771058Y-144448812D01*
X123771059Y-144448811D01*
X123009894Y-143687647D01*
X123097371Y-143664208D01*
X123198730Y-143605689D01*
X123281489Y-143522930D01*
X123340008Y-143421571D01*
X123363447Y-143334094D01*
X124124092Y-144094740D01*
X124218821Y-143949749D01*
X124316361Y-143727378D01*
X124375969Y-143491994D01*
X124375971Y-143491982D01*
X124396022Y-143250005D01*
X124396022Y-143249994D01*
X124375971Y-143008017D01*
X124375969Y-143008005D01*
X124316361Y-142772621D01*
X124218823Y-142550255D01*
X124124092Y-142405258D01*
X123363447Y-143165904D01*
X123340008Y-143078429D01*
X123281489Y-142977070D01*
X123198730Y-142894311D01*
X123097371Y-142835792D01*
X123009894Y-142812352D01*
X123771058Y-142051187D01*
X123771058Y-142051185D01*
X123729943Y-142019184D01*
X123729932Y-142019177D01*
X123516387Y-141903613D01*
X123516373Y-141903607D01*
X123286720Y-141824766D01*
X123047210Y-141784800D01*
X122804390Y-141784800D01*
X122564879Y-141824766D01*
X122335226Y-141903607D01*
X122335212Y-141903613D01*
X122121668Y-142019177D01*
X122121665Y-142019179D01*
X122080539Y-142051187D01*
X122841705Y-142812352D01*
X122754229Y-142835792D01*
X122652870Y-142894311D01*
X122570111Y-142977070D01*
X122511592Y-143078429D01*
X122488152Y-143165904D01*
X121690973Y-142368725D01*
X121674848Y-142348869D01*
X121673407Y-142346663D01*
X121508894Y-142167954D01*
X121508889Y-142167950D01*
X121508887Y-142167948D01*
X121317217Y-142018765D01*
X121317211Y-142018761D01*
X121103584Y-141903151D01*
X121103579Y-141903149D01*
X120873843Y-141824281D01*
X120714114Y-141797627D01*
X120634251Y-141784300D01*
X120391349Y-141784300D01*
X120331451Y-141794295D01*
X120151756Y-141824281D01*
X119922020Y-141903149D01*
X119922015Y-141903151D01*
X119708388Y-142018761D01*
X119708382Y-142018765D01*
X119516712Y-142167948D01*
X119516709Y-142167951D01*
X119352190Y-142346665D01*
X119219337Y-142550013D01*
X119121765Y-142772456D01*
X119062135Y-143007930D01*
X119042077Y-143249994D01*
X119042077Y-143250005D01*
X114174227Y-143250005D01*
X116927415Y-140496819D01*
X116988738Y-140463334D01*
X117015096Y-140460500D01*
X117268186Y-140460500D01*
X117268194Y-140460500D01*
X117305069Y-140457598D01*
X117305071Y-140457597D01*
X117305073Y-140457597D01*
X117346691Y-140445505D01*
X117462898Y-140411744D01*
X117604365Y-140328081D01*
X117720581Y-140211865D01*
X117804244Y-140070398D01*
X117850098Y-139912569D01*
X117853000Y-139875694D01*
X117853000Y-139634500D01*
X117872685Y-139567461D01*
X117925489Y-139521706D01*
X117977000Y-139510500D01*
X119143186Y-139510500D01*
X119143194Y-139510500D01*
X119180069Y-139507598D01*
X119180071Y-139507597D01*
X119180073Y-139507597D01*
X119221691Y-139495505D01*
X119337898Y-139461744D01*
X119479365Y-139378081D01*
X119550628Y-139306817D01*
X119611949Y-139273334D01*
X119638308Y-139270500D01*
X119804092Y-139270500D01*
X119871131Y-139290185D01*
X119909636Y-139334271D01*
X119911395Y-139333187D01*
X119915185Y-139339331D01*
X119915186Y-139339334D01*
X120007288Y-139488656D01*
X120131344Y-139612712D01*
X120280666Y-139704814D01*
X120447203Y-139759999D01*
X120549991Y-139770500D01*
X121550008Y-139770499D01*
X121550016Y-139770498D01*
X121550019Y-139770498D01*
X121612386Y-139764127D01*
X121652797Y-139759999D01*
X121819334Y-139704814D01*
X121968656Y-139612712D01*
X122092712Y-139488656D01*
X122184814Y-139339334D01*
X122239999Y-139172797D01*
X122250500Y-139070009D01*
X122250499Y-138529095D01*
X122270183Y-138462058D01*
X122322987Y-138416303D01*
X122392146Y-138406359D01*
X122455702Y-138435384D01*
X122462180Y-138441416D01*
X122958181Y-138937416D01*
X122991666Y-138998739D01*
X122994500Y-139025097D01*
X122994500Y-140472870D01*
X122994501Y-140472876D01*
X123000908Y-140532483D01*
X123051202Y-140667328D01*
X123051206Y-140667335D01*
X123137452Y-140782544D01*
X123137455Y-140782547D01*
X123252664Y-140868793D01*
X123252671Y-140868797D01*
X123387517Y-140919091D01*
X123387516Y-140919091D01*
X123394444Y-140919835D01*
X123447127Y-140925500D01*
X125342872Y-140925499D01*
X125402483Y-140919091D01*
X125537331Y-140868796D01*
X125652546Y-140782546D01*
X125738796Y-140667331D01*
X125789091Y-140532483D01*
X125795500Y-140472873D01*
X125795499Y-138577128D01*
X125789091Y-138517517D01*
X125786765Y-138511282D01*
X125738797Y-138382671D01*
X125738793Y-138382664D01*
X125652547Y-138267455D01*
X125652544Y-138267452D01*
X125537335Y-138181206D01*
X125537328Y-138181202D01*
X125457094Y-138151277D01*
X125401160Y-138109406D01*
X125376743Y-138043941D01*
X125391595Y-137975668D01*
X125409190Y-137951121D01*
X125503979Y-137848153D01*
X125630924Y-137653849D01*
X125724157Y-137441300D01*
X125781134Y-137216305D01*
X125784739Y-137172797D01*
X125800300Y-136985006D01*
X125800300Y-136984993D01*
X125781135Y-136753702D01*
X125781133Y-136753691D01*
X125724157Y-136528699D01*
X125630924Y-136316151D01*
X125503983Y-136121852D01*
X125503980Y-136121849D01*
X125503979Y-136121847D01*
X125346784Y-135951087D01*
X125346779Y-135951083D01*
X125346777Y-135951081D01*
X125163634Y-135808535D01*
X125163628Y-135808531D01*
X124959504Y-135698064D01*
X124959495Y-135698061D01*
X124739984Y-135622702D01*
X124568282Y-135594050D01*
X124511049Y-135584500D01*
X124278951Y-135584500D01*
X124233164Y-135592140D01*
X124050015Y-135622702D01*
X123830504Y-135698061D01*
X123830495Y-135698064D01*
X123626371Y-135808531D01*
X123626365Y-135808535D01*
X123443222Y-135951081D01*
X123443219Y-135951084D01*
X123286016Y-136121852D01*
X123159075Y-136316151D01*
X123065842Y-136528699D01*
X123008866Y-136753691D01*
X123008864Y-136753703D01*
X122989946Y-136982013D01*
X122964793Y-137047198D01*
X122908391Y-137088436D01*
X122838647Y-137092634D01*
X122778689Y-137059454D01*
X122286818Y-136567583D01*
X122253333Y-136506260D01*
X122250499Y-136479902D01*
X122250499Y-136269998D01*
X122250498Y-136269981D01*
X122239999Y-136167203D01*
X122239998Y-136167200D01*
X122224969Y-136121847D01*
X122184814Y-136000666D01*
X122092712Y-135851344D01*
X121968656Y-135727288D01*
X121819334Y-135635186D01*
X121652797Y-135580001D01*
X121652795Y-135580000D01*
X121550010Y-135569500D01*
X120549998Y-135569500D01*
X120549980Y-135569501D01*
X120447203Y-135580000D01*
X120447200Y-135580001D01*
X120280668Y-135635185D01*
X120280663Y-135635187D01*
X120131342Y-135727289D01*
X120007289Y-135851342D01*
X119915187Y-136000663D01*
X119915186Y-136000666D01*
X119860001Y-136167203D01*
X119860001Y-136167204D01*
X119860000Y-136167204D01*
X119849500Y-136269983D01*
X119849500Y-137070001D01*
X119849501Y-137070019D01*
X119860000Y-137172796D01*
X119860001Y-137172799D01*
X119915185Y-137339331D01*
X119915187Y-137339336D01*
X120007289Y-137488657D01*
X120100951Y-137582319D01*
X120134436Y-137643642D01*
X120129452Y-137713334D01*
X120100951Y-137757681D01*
X120007289Y-137851342D01*
X119911395Y-138006813D01*
X119909600Y-138005706D01*
X119870313Y-138050337D01*
X119804092Y-138069500D01*
X119557377Y-138069500D01*
X119490338Y-138049815D01*
X119481376Y-138043479D01*
X119479363Y-138041917D01*
X119337896Y-137958255D01*
X119337893Y-137958254D01*
X119180073Y-137912402D01*
X119180067Y-137912401D01*
X119143201Y-137909500D01*
X119143194Y-137909500D01*
X117836806Y-137909500D01*
X117836798Y-137909500D01*
X117799932Y-137912401D01*
X117799926Y-137912402D01*
X117642106Y-137958254D01*
X117642103Y-137958255D01*
X117583806Y-137992732D01*
X117520685Y-138010000D01*
X116865000Y-138010000D01*
X116865000Y-138560000D01*
X117128000Y-138560000D01*
X117195039Y-138579685D01*
X117240794Y-138632489D01*
X117252000Y-138684000D01*
X117252000Y-138735500D01*
X117232315Y-138802539D01*
X117179511Y-138848294D01*
X117128000Y-138859500D01*
X115961798Y-138859500D01*
X115924932Y-138862401D01*
X115924926Y-138862402D01*
X115767106Y-138908254D01*
X115767103Y-138908255D01*
X115625637Y-138991917D01*
X115625629Y-138991923D01*
X115509423Y-139108129D01*
X115509417Y-139108137D01*
X115425755Y-139249603D01*
X115425754Y-139249606D01*
X115379902Y-139407426D01*
X115379901Y-139407432D01*
X115377000Y-139444298D01*
X115377000Y-139875701D01*
X115379901Y-139912567D01*
X115379902Y-139912573D01*
X115425754Y-140070393D01*
X115425755Y-140070396D01*
X115425756Y-140070398D01*
X115431830Y-140080668D01*
X115462122Y-140131890D01*
X115479305Y-140199614D01*
X115457145Y-140265877D01*
X115443071Y-140282693D01*
X115364971Y-140360792D01*
X115303647Y-140394276D01*
X115233956Y-140389291D01*
X115178022Y-140347420D01*
X115153932Y-140285709D01*
X115151906Y-140265877D01*
X115149999Y-140247203D01*
X115094814Y-140080666D01*
X115002712Y-139931344D01*
X114896818Y-139825450D01*
X114863334Y-139764127D01*
X114860500Y-139737769D01*
X114860500Y-138010001D01*
X115380204Y-138010001D01*
X115380399Y-138012486D01*
X115426218Y-138170198D01*
X115509814Y-138311552D01*
X115509821Y-138311561D01*
X115625938Y-138427678D01*
X115625947Y-138427685D01*
X115767303Y-138511282D01*
X115767306Y-138511283D01*
X115925004Y-138557099D01*
X115925010Y-138557100D01*
X115961850Y-138559999D01*
X115961866Y-138560000D01*
X116365000Y-138560000D01*
X116365000Y-138010000D01*
X115380205Y-138010000D01*
X115380204Y-138010001D01*
X114860500Y-138010001D01*
X114860500Y-137509998D01*
X115380204Y-137509998D01*
X115380205Y-137510000D01*
X116365000Y-137510000D01*
X116365000Y-136960000D01*
X116865000Y-136960000D01*
X116865000Y-137510000D01*
X117849795Y-137510000D01*
X117849795Y-137509998D01*
X117849600Y-137507513D01*
X117803781Y-137349801D01*
X117720185Y-137208447D01*
X117720178Y-137208438D01*
X117604061Y-137092321D01*
X117604052Y-137092314D01*
X117462696Y-137008717D01*
X117462693Y-137008716D01*
X117304995Y-136962900D01*
X117304989Y-136962899D01*
X117268149Y-136960000D01*
X116865000Y-136960000D01*
X116365000Y-136960000D01*
X115961850Y-136960000D01*
X115925010Y-136962899D01*
X115925004Y-136962900D01*
X115767306Y-137008716D01*
X115767303Y-137008717D01*
X115625947Y-137092314D01*
X115625938Y-137092321D01*
X115509821Y-137208438D01*
X115509814Y-137208447D01*
X115426218Y-137349801D01*
X115380399Y-137507513D01*
X115380204Y-137509998D01*
X114860500Y-137509998D01*
X114860500Y-136532412D01*
X114880185Y-136465373D01*
X114887555Y-136455097D01*
X114889810Y-136452267D01*
X114889816Y-136452262D01*
X114985789Y-136299522D01*
X115045368Y-136129255D01*
X115059856Y-136000668D01*
X115065565Y-135950003D01*
X115065565Y-135949996D01*
X115045369Y-135770750D01*
X115045368Y-135770745D01*
X114997934Y-135635186D01*
X114985789Y-135600478D01*
X114975749Y-135584500D01*
X114889815Y-135447737D01*
X114762262Y-135320184D01*
X114609523Y-135224211D01*
X114439254Y-135164631D01*
X114439249Y-135164630D01*
X114260004Y-135144435D01*
X114259996Y-135144435D01*
X114080750Y-135164630D01*
X114080745Y-135164631D01*
X113910476Y-135224211D01*
X113757737Y-135320184D01*
X113630184Y-135447737D01*
X113534211Y-135600476D01*
X113474631Y-135770745D01*
X113474630Y-135770750D01*
X113454435Y-135949996D01*
X113454435Y-135950003D01*
X113474630Y-136129249D01*
X113474631Y-136129254D01*
X113534211Y-136299523D01*
X113630185Y-136452263D01*
X113632445Y-136455097D01*
X113633334Y-136457275D01*
X113633889Y-136458158D01*
X113633734Y-136458255D01*
X113658855Y-136519783D01*
X113659500Y-136532412D01*
X113659500Y-139537837D01*
X113639815Y-139604876D01*
X113587011Y-139650631D01*
X113561459Y-139659089D01*
X113557207Y-139659999D01*
X113390668Y-139715185D01*
X113390663Y-139715187D01*
X113241342Y-139807289D01*
X113147681Y-139900951D01*
X113086358Y-139934436D01*
X113016666Y-139929452D01*
X112972319Y-139900951D01*
X112878657Y-139807289D01*
X112878656Y-139807288D01*
X112729334Y-139715186D01*
X112562797Y-139660001D01*
X112562795Y-139660000D01*
X112460010Y-139649500D01*
X111659998Y-139649500D01*
X111659980Y-139649501D01*
X111557203Y-139660000D01*
X111557200Y-139660001D01*
X111390668Y-139715185D01*
X111390663Y-139715187D01*
X111241342Y-139807289D01*
X111117289Y-139931342D01*
X111025187Y-140080663D01*
X111025186Y-140080666D01*
X110970001Y-140247203D01*
X110970001Y-140247204D01*
X110970000Y-140247204D01*
X110959500Y-140349983D01*
X110959500Y-141350001D01*
X110959501Y-141350019D01*
X110970000Y-141452796D01*
X110970001Y-141452799D01*
X111025185Y-141619331D01*
X111025187Y-141619336D01*
X111117289Y-141768657D01*
X111172973Y-141824341D01*
X111206458Y-141885664D01*
X111201474Y-141955356D01*
X111159602Y-142011289D01*
X111152714Y-142015698D01*
X111152883Y-142015956D01*
X111148582Y-142018765D01*
X110956912Y-142167948D01*
X110956909Y-142167951D01*
X110792390Y-142346665D01*
X110659537Y-142550013D01*
X110561965Y-142772456D01*
X110502335Y-143007930D01*
X110482277Y-143249994D01*
X110482277Y-143250005D01*
X108150500Y-143250005D01*
X108150500Y-133250005D01*
X110482277Y-133250005D01*
X110502335Y-133492069D01*
X110561965Y-133727543D01*
X110659537Y-133949986D01*
X110792390Y-134153334D01*
X110792393Y-134153337D01*
X110956906Y-134332046D01*
X110956909Y-134332048D01*
X110956912Y-134332051D01*
X111148582Y-134481234D01*
X111148588Y-134481238D01*
X111148591Y-134481240D01*
X111323873Y-134576098D01*
X111361372Y-134596392D01*
X111362217Y-134596849D01*
X111591959Y-134675719D01*
X111831549Y-134715700D01*
X111831550Y-134715700D01*
X112074450Y-134715700D01*
X112074451Y-134715700D01*
X112314041Y-134675719D01*
X112543783Y-134596849D01*
X112757409Y-134481240D01*
X112757944Y-134480824D01*
X112821776Y-134431140D01*
X112949094Y-134332046D01*
X113113607Y-134153337D01*
X113246462Y-133949987D01*
X113344035Y-133727543D01*
X113403664Y-133492073D01*
X113423723Y-133250005D01*
X119042077Y-133250005D01*
X119062135Y-133492069D01*
X119121765Y-133727543D01*
X119219337Y-133949986D01*
X119352190Y-134153334D01*
X119352193Y-134153337D01*
X119516706Y-134332046D01*
X119516709Y-134332048D01*
X119516712Y-134332051D01*
X119708382Y-134481234D01*
X119708388Y-134481238D01*
X119708391Y-134481240D01*
X119883673Y-134576098D01*
X119921172Y-134596392D01*
X119922017Y-134596849D01*
X120151759Y-134675719D01*
X120391349Y-134715700D01*
X120391350Y-134715700D01*
X120634250Y-134715700D01*
X120634251Y-134715700D01*
X120873841Y-134675719D01*
X121103583Y-134596849D01*
X121317209Y-134481240D01*
X121317744Y-134480824D01*
X121381576Y-134431140D01*
X121508894Y-134332046D01*
X121673407Y-134153337D01*
X121674847Y-134151132D01*
X121690977Y-134131269D01*
X122488152Y-133334094D01*
X122511592Y-133421571D01*
X122570111Y-133522930D01*
X122652870Y-133605689D01*
X122754229Y-133664208D01*
X122841705Y-133687647D01*
X122080540Y-134448811D01*
X122121667Y-134480822D01*
X122121670Y-134480824D01*
X122335212Y-134596386D01*
X122335226Y-134596392D01*
X122564879Y-134675233D01*
X122804390Y-134715200D01*
X123047210Y-134715200D01*
X123286720Y-134675233D01*
X123516373Y-134596392D01*
X123516387Y-134596386D01*
X123729931Y-134480823D01*
X123729937Y-134480818D01*
X123771058Y-134448812D01*
X123771059Y-134448811D01*
X123009894Y-133687647D01*
X123097371Y-133664208D01*
X123198730Y-133605689D01*
X123281489Y-133522930D01*
X123340008Y-133421571D01*
X123363447Y-133334094D01*
X124124092Y-134094740D01*
X124218821Y-133949749D01*
X124316361Y-133727378D01*
X124375969Y-133491994D01*
X124375971Y-133491982D01*
X124396022Y-133250005D01*
X124396022Y-133249994D01*
X124375971Y-133008017D01*
X124375969Y-133008005D01*
X124316361Y-132772621D01*
X124218823Y-132550255D01*
X124124092Y-132405258D01*
X123363447Y-133165904D01*
X123340008Y-133078429D01*
X123281489Y-132977070D01*
X123198730Y-132894311D01*
X123097371Y-132835792D01*
X123009894Y-132812352D01*
X123771058Y-132051187D01*
X123771058Y-132051185D01*
X123729943Y-132019184D01*
X123729932Y-132019177D01*
X123516387Y-131903613D01*
X123516373Y-131903607D01*
X123286720Y-131824766D01*
X123047210Y-131784800D01*
X122804390Y-131784800D01*
X122564879Y-131824766D01*
X122335226Y-131903607D01*
X122335212Y-131903613D01*
X122121668Y-132019177D01*
X122121665Y-132019179D01*
X122080539Y-132051187D01*
X122841705Y-132812352D01*
X122754229Y-132835792D01*
X122652870Y-132894311D01*
X122570111Y-132977070D01*
X122511592Y-133078429D01*
X122488152Y-133165904D01*
X121690973Y-132368725D01*
X121674848Y-132348869D01*
X121673407Y-132346663D01*
X121508894Y-132167954D01*
X121508889Y-132167950D01*
X121508887Y-132167948D01*
X121317217Y-132018765D01*
X121317211Y-132018761D01*
X121103584Y-131903151D01*
X121103579Y-131903149D01*
X120873843Y-131824281D01*
X120714114Y-131797627D01*
X120634251Y-131784300D01*
X120391349Y-131784300D01*
X120331451Y-131794295D01*
X120151756Y-131824281D01*
X119922020Y-131903149D01*
X119922015Y-131903151D01*
X119708388Y-132018761D01*
X119708382Y-132018765D01*
X119516712Y-132167948D01*
X119516709Y-132167951D01*
X119352190Y-132346665D01*
X119219337Y-132550013D01*
X119121765Y-132772456D01*
X119062135Y-133007930D01*
X119042077Y-133249994D01*
X119042077Y-133250005D01*
X113423723Y-133250005D01*
X113423723Y-133250000D01*
X113403664Y-133007927D01*
X113344035Y-132772457D01*
X113246462Y-132550013D01*
X113115046Y-132348865D01*
X113113609Y-132346665D01*
X113094901Y-132326343D01*
X112949094Y-132167954D01*
X112949089Y-132167950D01*
X112949087Y-132167948D01*
X112757417Y-132018765D01*
X112757411Y-132018761D01*
X112543784Y-131903151D01*
X112543779Y-131903149D01*
X112314043Y-131824281D01*
X112154314Y-131797627D01*
X112074451Y-131784300D01*
X111831549Y-131784300D01*
X111771651Y-131794295D01*
X111591956Y-131824281D01*
X111362220Y-131903149D01*
X111362215Y-131903151D01*
X111148588Y-132018761D01*
X111148582Y-132018765D01*
X110956912Y-132167948D01*
X110956909Y-132167951D01*
X110792390Y-132346665D01*
X110659537Y-132550013D01*
X110561965Y-132772456D01*
X110502335Y-133007930D01*
X110482277Y-133249994D01*
X110482277Y-133250005D01*
X108150500Y-133250005D01*
X108150500Y-123171951D01*
X115039500Y-123171951D01*
X115063857Y-123356954D01*
X115071334Y-123413744D01*
X115134456Y-123649320D01*
X115134459Y-123649330D01*
X115227786Y-123874640D01*
X115227791Y-123874651D01*
X115349727Y-124085848D01*
X115349738Y-124085864D01*
X115498199Y-124279343D01*
X115498205Y-124279350D01*
X115670649Y-124451794D01*
X115670655Y-124451799D01*
X115864144Y-124600268D01*
X115864151Y-124600272D01*
X116075348Y-124722208D01*
X116075353Y-124722210D01*
X116075356Y-124722212D01*
X116300679Y-124815544D01*
X116536256Y-124878666D01*
X116778056Y-124910500D01*
X116778063Y-124910500D01*
X117541937Y-124910500D01*
X117541944Y-124910500D01*
X117783744Y-124878666D01*
X118019321Y-124815544D01*
X118244644Y-124722212D01*
X118455856Y-124600268D01*
X118649345Y-124451799D01*
X118821799Y-124279345D01*
X118970268Y-124085856D01*
X119013118Y-124011638D01*
X123006711Y-124011638D01*
X123094985Y-124066295D01*
X123285078Y-124139937D01*
X123485472Y-124177398D01*
X123689328Y-124177398D01*
X123889722Y-124139937D01*
X124079812Y-124066297D01*
X124079816Y-124066295D01*
X124168086Y-124011639D01*
X124168086Y-124011638D01*
X123587401Y-123430951D01*
X123587400Y-123430951D01*
X123006711Y-124011638D01*
X119013118Y-124011638D01*
X119092212Y-123874644D01*
X119185544Y-123649321D01*
X119248666Y-123413744D01*
X119280500Y-123171944D01*
X119280500Y-123077398D01*
X122482687Y-123077398D01*
X122501496Y-123280387D01*
X122501497Y-123280390D01*
X122557283Y-123476461D01*
X122557286Y-123476467D01*
X122648151Y-123658949D01*
X122649933Y-123661309D01*
X123194350Y-123116894D01*
X123287400Y-123116894D01*
X123307844Y-123193194D01*
X123347340Y-123261603D01*
X123403195Y-123317458D01*
X123471604Y-123356954D01*
X123547904Y-123377398D01*
X123626896Y-123377398D01*
X123703196Y-123356954D01*
X123771605Y-123317458D01*
X123827460Y-123261603D01*
X123866956Y-123193194D01*
X123887400Y-123116894D01*
X123887400Y-123077398D01*
X123940953Y-123077398D01*
X124524865Y-123661310D01*
X124526647Y-123658951D01*
X124526648Y-123658949D01*
X124617513Y-123476467D01*
X124617516Y-123476461D01*
X124673302Y-123280390D01*
X124673303Y-123280387D01*
X124692113Y-123077398D01*
X124692113Y-123077397D01*
X124673303Y-122874408D01*
X124673302Y-122874405D01*
X124617516Y-122678334D01*
X124617513Y-122678328D01*
X124526649Y-122495847D01*
X124526647Y-122495845D01*
X124524865Y-122493485D01*
X123940953Y-123077398D01*
X123887400Y-123077398D01*
X123887400Y-123037902D01*
X123866956Y-122961602D01*
X123827460Y-122893193D01*
X123771605Y-122837338D01*
X123703196Y-122797842D01*
X123626896Y-122777398D01*
X123547904Y-122777398D01*
X123471604Y-122797842D01*
X123403195Y-122837338D01*
X123347340Y-122893193D01*
X123307844Y-122961602D01*
X123287400Y-123037902D01*
X123287400Y-123116894D01*
X123194350Y-123116894D01*
X123233846Y-123077398D01*
X123233846Y-123077397D01*
X122649933Y-122493485D01*
X122648155Y-122495840D01*
X122648154Y-122495841D01*
X122557286Y-122678328D01*
X122557283Y-122678334D01*
X122501497Y-122874405D01*
X122501496Y-122874408D01*
X122482687Y-123077397D01*
X122482687Y-123077398D01*
X119280500Y-123077398D01*
X119280500Y-122928056D01*
X119248666Y-122686256D01*
X119185544Y-122450679D01*
X119092212Y-122225356D01*
X119092210Y-122225353D01*
X119092208Y-122225348D01*
X118970272Y-122014151D01*
X118970268Y-122014144D01*
X118821799Y-121820655D01*
X118821794Y-121820649D01*
X118726413Y-121725268D01*
X122486900Y-121725268D01*
X122486901Y-121725274D01*
X122493308Y-121784881D01*
X122543602Y-121919726D01*
X122543606Y-121919733D01*
X122629852Y-122034942D01*
X122629855Y-122034945D01*
X122745064Y-122121191D01*
X122745071Y-122121195D01*
X122879916Y-122171489D01*
X122905819Y-122174273D01*
X122939527Y-122177898D01*
X122990092Y-122177897D01*
X123057129Y-122197580D01*
X123077772Y-122214216D01*
X123587400Y-122723844D01*
X124097028Y-122214216D01*
X124158351Y-122180731D01*
X124184708Y-122177897D01*
X124235272Y-122177897D01*
X124294883Y-122171489D01*
X124429731Y-122121194D01*
X124544946Y-122034944D01*
X124631196Y-121919729D01*
X124681491Y-121784881D01*
X124687900Y-121725271D01*
X124687899Y-120429526D01*
X124681491Y-120369915D01*
X124653064Y-120293699D01*
X124631197Y-120235069D01*
X124631193Y-120235062D01*
X124544947Y-120119853D01*
X124544944Y-120119850D01*
X124429735Y-120033604D01*
X124429728Y-120033600D01*
X124294882Y-119983306D01*
X124294883Y-119983306D01*
X124235283Y-119976899D01*
X124235281Y-119976898D01*
X124235273Y-119976898D01*
X124235264Y-119976898D01*
X122939529Y-119976898D01*
X122939523Y-119976899D01*
X122879916Y-119983306D01*
X122745071Y-120033600D01*
X122745064Y-120033604D01*
X122629855Y-120119850D01*
X122629852Y-120119853D01*
X122543606Y-120235062D01*
X122543602Y-120235069D01*
X122493308Y-120369915D01*
X122486901Y-120429514D01*
X122486901Y-120429521D01*
X122486900Y-120429533D01*
X122486900Y-121725268D01*
X118726413Y-121725268D01*
X118649350Y-121648205D01*
X118649343Y-121648199D01*
X118455864Y-121499738D01*
X118455862Y-121499736D01*
X118455856Y-121499732D01*
X118455851Y-121499729D01*
X118455848Y-121499727D01*
X118244651Y-121377791D01*
X118244640Y-121377786D01*
X118019330Y-121284459D01*
X118019323Y-121284457D01*
X118019321Y-121284456D01*
X117783744Y-121221334D01*
X117743333Y-121216013D01*
X117541951Y-121189500D01*
X117541944Y-121189500D01*
X116778056Y-121189500D01*
X116778048Y-121189500D01*
X116547896Y-121219801D01*
X116536256Y-121221334D01*
X116377754Y-121263804D01*
X116300679Y-121284456D01*
X116300669Y-121284459D01*
X116075359Y-121377786D01*
X116075348Y-121377791D01*
X115864151Y-121499727D01*
X115864135Y-121499738D01*
X115670656Y-121648199D01*
X115670649Y-121648205D01*
X115498205Y-121820649D01*
X115498199Y-121820656D01*
X115349738Y-122014135D01*
X115349727Y-122014151D01*
X115227791Y-122225348D01*
X115227786Y-122225359D01*
X115134459Y-122450669D01*
X115134456Y-122450679D01*
X115071335Y-122686253D01*
X115071333Y-122686264D01*
X115039500Y-122928048D01*
X115039500Y-123171951D01*
X108150500Y-123171951D01*
X108150500Y-121386542D01*
X108170185Y-121319503D01*
X108222989Y-121273748D01*
X108292147Y-121263804D01*
X108355703Y-121292829D01*
X108388056Y-121336732D01*
X108424075Y-121418848D01*
X108551016Y-121613147D01*
X108551019Y-121613151D01*
X108551021Y-121613153D01*
X108708216Y-121783913D01*
X108708219Y-121783915D01*
X108708222Y-121783918D01*
X108891365Y-121926464D01*
X108891371Y-121926468D01*
X108891374Y-121926470D01*
X109095497Y-122036936D01*
X109209487Y-122076068D01*
X109315015Y-122112297D01*
X109315017Y-122112297D01*
X109315019Y-122112298D01*
X109543951Y-122150500D01*
X109543952Y-122150500D01*
X109776048Y-122150500D01*
X109776049Y-122150500D01*
X110004981Y-122112298D01*
X110224503Y-122036936D01*
X110428626Y-121926470D01*
X110611784Y-121783913D01*
X110768979Y-121613153D01*
X110895924Y-121418849D01*
X110989157Y-121206300D01*
X111046134Y-120981305D01*
X111065300Y-120750000D01*
X111065300Y-120749993D01*
X111046135Y-120518702D01*
X111046133Y-120518691D01*
X110989157Y-120293699D01*
X110895924Y-120081151D01*
X110768983Y-119886852D01*
X110768980Y-119886849D01*
X110768979Y-119886847D01*
X110611784Y-119716087D01*
X110459876Y-119597852D01*
X110419064Y-119541143D01*
X110415389Y-119471370D01*
X110450020Y-119410687D01*
X110459876Y-119402147D01*
X110611784Y-119283913D01*
X110768979Y-119113153D01*
X110798977Y-119067238D01*
X110820577Y-119034178D01*
X110873723Y-118988822D01*
X110924385Y-118978000D01*
X111614725Y-118978000D01*
X111681764Y-118997685D01*
X111702407Y-119014320D01*
X111741296Y-119053210D01*
X111741300Y-119053213D01*
X111741302Y-119053215D01*
X111874613Y-119132055D01*
X112023344Y-119175265D01*
X112058095Y-119178000D01*
X112406904Y-119177999D01*
X112441656Y-119175265D01*
X112590387Y-119132055D01*
X112723698Y-119053215D01*
X112833215Y-118943698D01*
X112912055Y-118810387D01*
X112955265Y-118661656D01*
X112958000Y-118626905D01*
X112957999Y-118255000D01*
X123254357Y-118255000D01*
X123274884Y-118476535D01*
X123274885Y-118476537D01*
X123335769Y-118690523D01*
X123335775Y-118690538D01*
X123434938Y-118889683D01*
X123434943Y-118889691D01*
X123569020Y-119067238D01*
X123733437Y-119217123D01*
X123733439Y-119217125D01*
X123922595Y-119334245D01*
X123922596Y-119334245D01*
X123922599Y-119334247D01*
X124130060Y-119414618D01*
X124348757Y-119455500D01*
X124348759Y-119455500D01*
X124571241Y-119455500D01*
X124571243Y-119455500D01*
X124789940Y-119414618D01*
X124997401Y-119334247D01*
X125186562Y-119217124D01*
X125350981Y-119067236D01*
X125485058Y-118889689D01*
X125584229Y-118690528D01*
X125645115Y-118476536D01*
X125665643Y-118255000D01*
X125645115Y-118033464D01*
X125584229Y-117819472D01*
X125584224Y-117819461D01*
X125485061Y-117620316D01*
X125485056Y-117620308D01*
X125435701Y-117554952D01*
X125350981Y-117442764D01*
X125300380Y-117396635D01*
X125264101Y-117336927D01*
X125265861Y-117267079D01*
X125300380Y-117213364D01*
X125350981Y-117167236D01*
X125485058Y-116989689D01*
X125584229Y-116790528D01*
X125645115Y-116576536D01*
X125665643Y-116355000D01*
X125645115Y-116133464D01*
X125584229Y-115919472D01*
X125584224Y-115919461D01*
X125485061Y-115720316D01*
X125485056Y-115720308D01*
X125350979Y-115542761D01*
X125186562Y-115392876D01*
X125186560Y-115392874D01*
X124997404Y-115275754D01*
X124997398Y-115275752D01*
X124789940Y-115195382D01*
X124571243Y-115154500D01*
X124348757Y-115154500D01*
X124130060Y-115195382D01*
X124000600Y-115245535D01*
X123922601Y-115275752D01*
X123922595Y-115275754D01*
X123733439Y-115392874D01*
X123733437Y-115392876D01*
X123569020Y-115542761D01*
X123434943Y-115720308D01*
X123434938Y-115720316D01*
X123335775Y-115919461D01*
X123335769Y-115919476D01*
X123274885Y-116133462D01*
X123274884Y-116133464D01*
X123254357Y-116354999D01*
X123254357Y-116355000D01*
X123274884Y-116576535D01*
X123274885Y-116576537D01*
X123335769Y-116790523D01*
X123335775Y-116790538D01*
X123434938Y-116989683D01*
X123434943Y-116989691D01*
X123497100Y-117072000D01*
X123569017Y-117167234D01*
X123569021Y-117167238D01*
X123569026Y-117167243D01*
X123619617Y-117213364D01*
X123655898Y-117273076D01*
X123654137Y-117342923D01*
X123619617Y-117396636D01*
X123569026Y-117442756D01*
X123569021Y-117442761D01*
X123434943Y-117620308D01*
X123434938Y-117620316D01*
X123335775Y-117819461D01*
X123335769Y-117819476D01*
X123274885Y-118033462D01*
X123274884Y-118033464D01*
X123254357Y-118254999D01*
X123254357Y-118255000D01*
X112957999Y-118255000D01*
X112957999Y-118128096D01*
X112955265Y-118093344D01*
X112912055Y-117944613D01*
X112833215Y-117811302D01*
X112833213Y-117811300D01*
X112833210Y-117811296D01*
X112723703Y-117701789D01*
X112723700Y-117701787D01*
X112723698Y-117701785D01*
X112678007Y-117674763D01*
X112630325Y-117623694D01*
X112617822Y-117554952D01*
X112644468Y-117490363D01*
X112701803Y-117450433D01*
X112709019Y-117448262D01*
X112750765Y-117437077D01*
X112800884Y-117408139D01*
X112887696Y-117358020D01*
X112999500Y-117246216D01*
X112999500Y-117246214D01*
X113009708Y-117236007D01*
X113009709Y-117236004D01*
X114710520Y-115535196D01*
X114789577Y-115398264D01*
X114830501Y-115245537D01*
X114830501Y-115087422D01*
X114830501Y-115079827D01*
X114830500Y-115079809D01*
X114830500Y-113856810D01*
X114850185Y-113789771D01*
X114902989Y-113744016D01*
X114972147Y-113734072D01*
X115035703Y-113763097D01*
X115073477Y-113821875D01*
X115074256Y-113824652D01*
X115120524Y-113997325D01*
X115134456Y-114049320D01*
X115134459Y-114049330D01*
X115227786Y-114274640D01*
X115227791Y-114274651D01*
X115349727Y-114485848D01*
X115349738Y-114485864D01*
X115498199Y-114679343D01*
X115498205Y-114679350D01*
X115670649Y-114851794D01*
X115670655Y-114851799D01*
X115864144Y-115000268D01*
X115864151Y-115000272D01*
X116075348Y-115122208D01*
X116075353Y-115122210D01*
X116075356Y-115122212D01*
X116300679Y-115215544D01*
X116536256Y-115278666D01*
X116778056Y-115310500D01*
X116778063Y-115310500D01*
X117541937Y-115310500D01*
X117541944Y-115310500D01*
X117783744Y-115278666D01*
X118019321Y-115215544D01*
X118244644Y-115122212D01*
X118455856Y-115000268D01*
X118649345Y-114851799D01*
X118821799Y-114679345D01*
X118970268Y-114485856D01*
X119092212Y-114274644D01*
X119185544Y-114049321D01*
X119248666Y-113813744D01*
X119280500Y-113571944D01*
X119280500Y-113328056D01*
X119248666Y-113086256D01*
X119185544Y-112850679D01*
X119174412Y-112823805D01*
X119143848Y-112750016D01*
X119092212Y-112625356D01*
X119092210Y-112625353D01*
X119092208Y-112625348D01*
X118970272Y-112414151D01*
X118970268Y-112414144D01*
X118851990Y-112260001D01*
X118821800Y-112220656D01*
X118821794Y-112220649D01*
X118649350Y-112048205D01*
X118649343Y-112048199D01*
X118455864Y-111899738D01*
X118455862Y-111899736D01*
X118455856Y-111899732D01*
X118455851Y-111899729D01*
X118455848Y-111899727D01*
X118244651Y-111777791D01*
X118244640Y-111777786D01*
X118019330Y-111684459D01*
X118019323Y-111684457D01*
X118019321Y-111684456D01*
X117783744Y-111621334D01*
X117743333Y-111616013D01*
X117541951Y-111589500D01*
X117541944Y-111589500D01*
X116778056Y-111589500D01*
X116778048Y-111589500D01*
X116547896Y-111619801D01*
X116536256Y-111621334D01*
X116300679Y-111684456D01*
X116300669Y-111684459D01*
X116075359Y-111777786D01*
X116075348Y-111777791D01*
X115864151Y-111899727D01*
X115864135Y-111899738D01*
X115670656Y-112048199D01*
X115670649Y-112048205D01*
X115498205Y-112220649D01*
X115498199Y-112220656D01*
X115349738Y-112414135D01*
X115349727Y-112414151D01*
X115227791Y-112625348D01*
X115227786Y-112625359D01*
X115134459Y-112850669D01*
X115134456Y-112850679D01*
X115074274Y-113075283D01*
X115037910Y-113134943D01*
X114975063Y-113165472D01*
X114905688Y-113157177D01*
X114851810Y-113112692D01*
X114830535Y-113046140D01*
X114830500Y-113043189D01*
X114830500Y-111001984D01*
X114850185Y-110934945D01*
X114902989Y-110889190D01*
X114972147Y-110879246D01*
X114986593Y-110882209D01*
X115130000Y-110920634D01*
X115130000Y-110023012D01*
X115187007Y-110055925D01*
X115314174Y-110090000D01*
X115445826Y-110090000D01*
X115572993Y-110055925D01*
X115630000Y-110023012D01*
X115630000Y-110920633D01*
X115843483Y-110863433D01*
X115843492Y-110863429D01*
X116057578Y-110763600D01*
X116251082Y-110628105D01*
X116418105Y-110461082D01*
X116548425Y-110274968D01*
X116603002Y-110231344D01*
X116672501Y-110224151D01*
X116734855Y-110255673D01*
X116751575Y-110274968D01*
X116881894Y-110461082D01*
X117048917Y-110628105D01*
X117242421Y-110763600D01*
X117456507Y-110863429D01*
X117456516Y-110863433D01*
X117670000Y-110920634D01*
X117670000Y-110023012D01*
X117727007Y-110055925D01*
X117854174Y-110090000D01*
X117985826Y-110090000D01*
X118112993Y-110055925D01*
X118170000Y-110023012D01*
X118170000Y-110920633D01*
X118383483Y-110863433D01*
X118383492Y-110863429D01*
X118597578Y-110763600D01*
X118791082Y-110628105D01*
X118958105Y-110461082D01*
X119088119Y-110275405D01*
X119142696Y-110231781D01*
X119212195Y-110224588D01*
X119274549Y-110256110D01*
X119291269Y-110275405D01*
X119421505Y-110461401D01*
X119588599Y-110628495D01*
X119608445Y-110642391D01*
X119782165Y-110764032D01*
X119782167Y-110764033D01*
X119782170Y-110764035D01*
X119996337Y-110863903D01*
X120224592Y-110925063D01*
X120412918Y-110941539D01*
X120459999Y-110945659D01*
X120460000Y-110945659D01*
X120460001Y-110945659D01*
X120499234Y-110942226D01*
X120695408Y-110925063D01*
X120923663Y-110863903D01*
X121137830Y-110764035D01*
X121331401Y-110628495D01*
X121498495Y-110461401D01*
X121634035Y-110267830D01*
X121733903Y-110053663D01*
X121795063Y-109825408D01*
X121815659Y-109590000D01*
X121795063Y-109354592D01*
X121733903Y-109126337D01*
X121634035Y-108912171D01*
X121628730Y-108904595D01*
X121498496Y-108718600D01*
X121455102Y-108675206D01*
X121376567Y-108596671D01*
X121343084Y-108535351D01*
X121348068Y-108465659D01*
X121389939Y-108409725D01*
X121420915Y-108392810D01*
X121552331Y-108343796D01*
X121667546Y-108257546D01*
X121753796Y-108142331D01*
X121804091Y-108007483D01*
X121810500Y-107947873D01*
X121810499Y-106152128D01*
X121804091Y-106092517D01*
X121803002Y-106089598D01*
X121753797Y-105957671D01*
X121753793Y-105957664D01*
X121667547Y-105842455D01*
X121667544Y-105842452D01*
X121552335Y-105756206D01*
X121552328Y-105756202D01*
X121417482Y-105705908D01*
X121417483Y-105705908D01*
X121357883Y-105699501D01*
X121357881Y-105699500D01*
X121357873Y-105699500D01*
X121357864Y-105699500D01*
X119562129Y-105699500D01*
X119562123Y-105699501D01*
X119502516Y-105705908D01*
X119367671Y-105756202D01*
X119367664Y-105756206D01*
X119252455Y-105842452D01*
X119252452Y-105842455D01*
X119166206Y-105957664D01*
X119166202Y-105957671D01*
X119116997Y-106089598D01*
X119075126Y-106145532D01*
X119009661Y-106169949D01*
X118941388Y-106155097D01*
X118913134Y-106133946D01*
X118791082Y-106011894D01*
X118597578Y-105876399D01*
X118566376Y-105861850D01*
X118513937Y-105815678D01*
X118494785Y-105748484D01*
X118515001Y-105681603D01*
X118531091Y-105661797D01*
X119833472Y-104359417D01*
X119894795Y-104325932D01*
X119921153Y-104323098D01*
X124600731Y-104323098D01*
X124600747Y-104323099D01*
X124608343Y-104323099D01*
X124766454Y-104323099D01*
X124766457Y-104323099D01*
X124919185Y-104282175D01*
X124974051Y-104250498D01*
X124974052Y-104250498D01*
X125056109Y-104203122D01*
X125056108Y-104203122D01*
X125056116Y-104203118D01*
X125167920Y-104091314D01*
X125240520Y-104018714D01*
X125290639Y-103931902D01*
X125319577Y-103881783D01*
X125360501Y-103729055D01*
X125360501Y-103570941D01*
X125360501Y-103563346D01*
X125360500Y-103563328D01*
X125360500Y-86839059D01*
X125360501Y-86839046D01*
X125360501Y-86670945D01*
X125360501Y-86670943D01*
X125319577Y-86518215D01*
X125285972Y-86460010D01*
X125285926Y-86459930D01*
X125285925Y-86459929D01*
X125240521Y-86381286D01*
X125240520Y-86381284D01*
X125128716Y-86269480D01*
X125128715Y-86269479D01*
X125124385Y-86265149D01*
X125124374Y-86265139D01*
X124596818Y-85737583D01*
X124563333Y-85676260D01*
X124560499Y-85649902D01*
X124560499Y-84949998D01*
X124560498Y-84949981D01*
X124549999Y-84847203D01*
X124549998Y-84847200D01*
X124537609Y-84809812D01*
X124494814Y-84680666D01*
X124402712Y-84531344D01*
X124278656Y-84407288D01*
X124129334Y-84315186D01*
X124045495Y-84287404D01*
X123988051Y-84247632D01*
X123961228Y-84183116D01*
X123960500Y-84169699D01*
X123960500Y-83312842D01*
X123980185Y-83245803D01*
X124032989Y-83200048D01*
X124102147Y-83190104D01*
X124165703Y-83219129D01*
X124191235Y-83249725D01*
X124192319Y-83251558D01*
X124192321Y-83251561D01*
X124308438Y-83367678D01*
X124308447Y-83367685D01*
X124449803Y-83451282D01*
X124449806Y-83451283D01*
X124607504Y-83497099D01*
X124607510Y-83497100D01*
X124644350Y-83499999D01*
X124644366Y-83500000D01*
X125047500Y-83500000D01*
X125047500Y-81900000D01*
X124784500Y-81900000D01*
X124717461Y-81880315D01*
X124671706Y-81827511D01*
X124660500Y-81776000D01*
X124660500Y-81724500D01*
X124680185Y-81657461D01*
X124732989Y-81611706D01*
X124784500Y-81600500D01*
X125950686Y-81600500D01*
X125950694Y-81600500D01*
X125987569Y-81597598D01*
X126010905Y-81590818D01*
X126080772Y-81591016D01*
G37*
%TD.AperFunction*%
%TA.AperFunction,Conductor*%
G36*
X111197145Y-100961987D02*
G01*
X111237588Y-100988956D01*
X111241344Y-100992712D01*
X111390666Y-101084814D01*
X111557203Y-101139999D01*
X111659991Y-101150500D01*
X112376937Y-101150499D01*
X112443976Y-101170183D01*
X112489731Y-101222987D01*
X112499675Y-101292146D01*
X112493979Y-101315452D01*
X112474630Y-101370748D01*
X112464837Y-101457668D01*
X112437770Y-101522082D01*
X112429298Y-101531465D01*
X111321286Y-102639478D01*
X111209481Y-102751282D01*
X111209479Y-102751285D01*
X111159361Y-102838094D01*
X111159359Y-102838096D01*
X111130425Y-102888209D01*
X111130424Y-102888210D01*
X111119747Y-102928056D01*
X111089499Y-103040943D01*
X111089499Y-103040945D01*
X111089499Y-103209046D01*
X111089500Y-103209059D01*
X111089500Y-105733396D01*
X111069815Y-105800435D01*
X111017011Y-105846190D01*
X110947853Y-105856134D01*
X110913096Y-105845778D01*
X110763669Y-105776099D01*
X110763655Y-105776094D01*
X110535413Y-105714938D01*
X110535403Y-105714936D01*
X110300001Y-105694341D01*
X110299999Y-105694341D01*
X110064596Y-105714936D01*
X110064586Y-105714938D01*
X109836344Y-105776094D01*
X109836335Y-105776098D01*
X109622171Y-105875964D01*
X109622169Y-105875965D01*
X109428597Y-106011505D01*
X109261505Y-106178597D01*
X109125965Y-106372169D01*
X109125964Y-106372171D01*
X109026098Y-106586335D01*
X109026094Y-106586344D01*
X108964938Y-106814586D01*
X108964936Y-106814596D01*
X108944341Y-107049999D01*
X108944341Y-107050000D01*
X108964936Y-107285403D01*
X108964938Y-107285413D01*
X109026094Y-107513655D01*
X109026096Y-107513659D01*
X109026097Y-107513663D01*
X109068876Y-107605403D01*
X109125965Y-107727830D01*
X109125967Y-107727834D01*
X109261501Y-107921395D01*
X109261506Y-107921402D01*
X109428597Y-108088493D01*
X109428603Y-108088498D01*
X109614158Y-108218425D01*
X109657783Y-108273002D01*
X109664977Y-108342500D01*
X109633454Y-108404855D01*
X109614158Y-108421575D01*
X109428597Y-108551505D01*
X109261505Y-108718597D01*
X109125965Y-108912169D01*
X109125964Y-108912171D01*
X109026098Y-109126335D01*
X109026094Y-109126344D01*
X108964938Y-109354586D01*
X108964936Y-109354596D01*
X108944341Y-109589999D01*
X108944341Y-109590000D01*
X108964936Y-109825403D01*
X108964938Y-109825413D01*
X109026094Y-110053655D01*
X109026096Y-110053659D01*
X109026097Y-110053663D01*
X109077865Y-110164680D01*
X109125965Y-110267830D01*
X109125967Y-110267834D01*
X109225263Y-110409642D01*
X109261505Y-110461401D01*
X109428599Y-110628495D01*
X109448445Y-110642391D01*
X109622165Y-110764032D01*
X109622167Y-110764033D01*
X109622170Y-110764035D01*
X109836337Y-110863903D01*
X110064592Y-110925063D01*
X110252918Y-110941539D01*
X110299999Y-110945659D01*
X110300000Y-110945659D01*
X110300001Y-110945659D01*
X110339234Y-110942226D01*
X110535408Y-110925063D01*
X110763663Y-110863903D01*
X110977830Y-110764035D01*
X111171401Y-110628495D01*
X111192649Y-110607246D01*
X111253969Y-110573761D01*
X111323661Y-110578744D01*
X111368011Y-110607246D01*
X112923181Y-112162416D01*
X112956666Y-112223739D01*
X112959500Y-112250097D01*
X112959500Y-112711011D01*
X112939815Y-112778050D01*
X112887011Y-112823805D01*
X112817853Y-112833749D01*
X112754297Y-112804724D01*
X112717794Y-112750016D01*
X112704869Y-112711011D01*
X112694814Y-112680666D01*
X112602712Y-112531344D01*
X112478656Y-112407288D01*
X112329334Y-112315186D01*
X112162797Y-112260001D01*
X112162795Y-112260000D01*
X112060010Y-112249500D01*
X111259998Y-112249500D01*
X111259980Y-112249501D01*
X111157203Y-112260000D01*
X111157200Y-112260001D01*
X110990668Y-112315185D01*
X110990663Y-112315187D01*
X110841342Y-112407289D01*
X110747681Y-112500951D01*
X110686358Y-112534436D01*
X110616666Y-112529452D01*
X110572319Y-112500951D01*
X110478657Y-112407289D01*
X110478656Y-112407288D01*
X110329334Y-112315186D01*
X110162797Y-112260001D01*
X110162795Y-112260000D01*
X110060010Y-112249500D01*
X109259998Y-112249500D01*
X109259980Y-112249501D01*
X109157203Y-112260000D01*
X109157200Y-112260001D01*
X108990668Y-112315185D01*
X108990663Y-112315187D01*
X108841342Y-112407289D01*
X108717289Y-112531342D01*
X108625187Y-112680663D01*
X108625185Y-112680668D01*
X108602206Y-112750016D01*
X108570001Y-112847203D01*
X108570001Y-112847204D01*
X108570000Y-112847204D01*
X108559500Y-112949983D01*
X108559500Y-113950001D01*
X108559501Y-113950019D01*
X108570000Y-114052796D01*
X108570001Y-114052799D01*
X108625187Y-114219337D01*
X108626749Y-114222686D01*
X108627131Y-114225203D01*
X108627458Y-114226189D01*
X108627289Y-114226244D01*
X108637241Y-114291763D01*
X108608721Y-114355547D01*
X108557702Y-114391271D01*
X108517674Y-114406201D01*
X108517664Y-114406206D01*
X108402455Y-114492452D01*
X108373766Y-114530776D01*
X108317832Y-114572646D01*
X108248140Y-114577630D01*
X108186818Y-114544144D01*
X108153333Y-114482820D01*
X108150500Y-114456464D01*
X108150500Y-101386542D01*
X108170185Y-101319503D01*
X108222989Y-101273748D01*
X108292147Y-101263804D01*
X108355703Y-101292829D01*
X108388056Y-101336732D01*
X108424075Y-101418848D01*
X108551016Y-101613147D01*
X108551019Y-101613151D01*
X108551021Y-101613153D01*
X108708216Y-101783913D01*
X108708219Y-101783915D01*
X108708222Y-101783918D01*
X108891365Y-101926464D01*
X108891371Y-101926468D01*
X108891374Y-101926470D01*
X109095497Y-102036936D01*
X109209487Y-102076068D01*
X109315015Y-102112297D01*
X109315017Y-102112297D01*
X109315019Y-102112298D01*
X109543951Y-102150500D01*
X109543952Y-102150500D01*
X109776048Y-102150500D01*
X109776049Y-102150500D01*
X110004981Y-102112298D01*
X110224503Y-102036936D01*
X110428626Y-101926470D01*
X110611784Y-101783913D01*
X110768979Y-101613153D01*
X110895924Y-101418849D01*
X110989157Y-101206300D01*
X111029701Y-101046197D01*
X111065241Y-100986041D01*
X111127661Y-100954649D01*
X111197145Y-100961987D01*
G37*
%TD.AperFunction*%
%TA.AperFunction,Conductor*%
G36*
X113572539Y-109359685D02*
G01*
X113618294Y-109412489D01*
X113629500Y-109464000D01*
X113629500Y-109716000D01*
X113609815Y-109783039D01*
X113557011Y-109828794D01*
X113505500Y-109840000D01*
X113273012Y-109840000D01*
X113305925Y-109782993D01*
X113340000Y-109655826D01*
X113340000Y-109524174D01*
X113305925Y-109397007D01*
X113273012Y-109340000D01*
X113505500Y-109340000D01*
X113572539Y-109359685D01*
G37*
%TD.AperFunction*%
%TA.AperFunction,Conductor*%
G36*
X117454075Y-109397007D02*
G01*
X117420000Y-109524174D01*
X117420000Y-109655826D01*
X117454075Y-109782993D01*
X117486988Y-109840000D01*
X115813012Y-109840000D01*
X115845925Y-109782993D01*
X115880000Y-109655826D01*
X115880000Y-109524174D01*
X115845925Y-109397007D01*
X115813012Y-109340000D01*
X117486988Y-109340000D01*
X117454075Y-109397007D01*
G37*
%TD.AperFunction*%
%TA.AperFunction,Conductor*%
G36*
X114914075Y-109397007D02*
G01*
X114880000Y-109524174D01*
X114880000Y-109655826D01*
X114914075Y-109782993D01*
X114945454Y-109837343D01*
X114887461Y-109820315D01*
X114841706Y-109767511D01*
X114830500Y-109716000D01*
X114830500Y-109464000D01*
X114850185Y-109396961D01*
X114902989Y-109351206D01*
X114945908Y-109341868D01*
X114914075Y-109397007D01*
G37*
%TD.AperFunction*%
%TA.AperFunction,Conductor*%
G36*
X113090000Y-109156988D02*
G01*
X113032993Y-109124075D01*
X112905826Y-109090000D01*
X112774174Y-109090000D01*
X112647007Y-109124075D01*
X112590000Y-109156988D01*
X112590000Y-107483012D01*
X112647007Y-107515925D01*
X112774174Y-107550000D01*
X112905826Y-107550000D01*
X113032993Y-107515925D01*
X113090000Y-107483012D01*
X113090000Y-109156988D01*
G37*
%TD.AperFunction*%
%TA.AperFunction,Conductor*%
G36*
X118170000Y-109156988D02*
G01*
X118112993Y-109124075D01*
X117985826Y-109090000D01*
X117854174Y-109090000D01*
X117727007Y-109124075D01*
X117670000Y-109156988D01*
X117670000Y-107483012D01*
X117727007Y-107515925D01*
X117854174Y-107550000D01*
X117985826Y-107550000D01*
X118112993Y-107515925D01*
X118170000Y-107483012D01*
X118170000Y-109156988D01*
G37*
%TD.AperFunction*%
%TA.AperFunction,Conductor*%
G36*
X115573039Y-109060185D02*
G01*
X115618794Y-109112989D01*
X115628131Y-109155908D01*
X115572993Y-109124075D01*
X115445826Y-109090000D01*
X115314174Y-109090000D01*
X115187007Y-109124075D01*
X115132656Y-109155454D01*
X115149685Y-109097461D01*
X115202489Y-109051706D01*
X115254000Y-109040500D01*
X115506000Y-109040500D01*
X115573039Y-109060185D01*
G37*
%TD.AperFunction*%
%TA.AperFunction,Conductor*%
G36*
X115630000Y-107715500D02*
G01*
X115610315Y-107782539D01*
X115557511Y-107828294D01*
X115506000Y-107839500D01*
X115254000Y-107839500D01*
X115186961Y-107819815D01*
X115141206Y-107767011D01*
X115130000Y-107715500D01*
X115130000Y-107483012D01*
X115187007Y-107515925D01*
X115314174Y-107550000D01*
X115445826Y-107550000D01*
X115572993Y-107515925D01*
X115630000Y-107483012D01*
X115630000Y-107715500D01*
G37*
%TD.AperFunction*%
%TA.AperFunction,Conductor*%
G36*
X114914075Y-106857007D02*
G01*
X114880000Y-106984174D01*
X114880000Y-107115826D01*
X114914075Y-107242993D01*
X114946988Y-107300000D01*
X113273012Y-107300000D01*
X113305925Y-107242993D01*
X113340000Y-107115826D01*
X113340000Y-106984174D01*
X113305925Y-106857007D01*
X113273012Y-106800000D01*
X114946988Y-106800000D01*
X114914075Y-106857007D01*
G37*
%TD.AperFunction*%
%TA.AperFunction,Conductor*%
G36*
X116112539Y-106819685D02*
G01*
X116158294Y-106872489D01*
X116169500Y-106924000D01*
X116169500Y-107176000D01*
X116149815Y-107243039D01*
X116097011Y-107288794D01*
X116045500Y-107300000D01*
X115813012Y-107300000D01*
X115845925Y-107242993D01*
X115880000Y-107115826D01*
X115880000Y-106984174D01*
X115845925Y-106857007D01*
X115813012Y-106800000D01*
X116045500Y-106800000D01*
X116112539Y-106819685D01*
G37*
%TD.AperFunction*%
%TA.AperFunction,Conductor*%
G36*
X117454075Y-106857007D02*
G01*
X117420000Y-106984174D01*
X117420000Y-107115826D01*
X117454075Y-107242993D01*
X117485454Y-107297343D01*
X117427461Y-107280315D01*
X117381706Y-107227511D01*
X117370500Y-107176000D01*
X117370500Y-106924000D01*
X117390185Y-106856961D01*
X117442989Y-106811206D01*
X117485908Y-106801868D01*
X117454075Y-106857007D01*
G37*
%TD.AperFunction*%
%TA.AperFunction,Conductor*%
G36*
X114584433Y-101177314D02*
G01*
X114628780Y-101205815D01*
X115037339Y-101614374D01*
X115037349Y-101614385D01*
X115041679Y-101618715D01*
X115041680Y-101618716D01*
X115153484Y-101730520D01*
X115153486Y-101730521D01*
X115153490Y-101730524D01*
X115245973Y-101783918D01*
X115290416Y-101809577D01*
X115290559Y-101809615D01*
X115290664Y-101809679D01*
X115297923Y-101812686D01*
X115297454Y-101813817D01*
X115350218Y-101845977D01*
X115380750Y-101908823D01*
X115372457Y-101978199D01*
X115356844Y-102004875D01*
X115349737Y-102014136D01*
X115349727Y-102014151D01*
X115227791Y-102225348D01*
X115227786Y-102225359D01*
X115134459Y-102450669D01*
X115134456Y-102450679D01*
X115083868Y-102639480D01*
X115071335Y-102686253D01*
X115071333Y-102686264D01*
X115039500Y-102928048D01*
X115039500Y-103171951D01*
X115044386Y-103209059D01*
X115071334Y-103413744D01*
X115134456Y-103649320D01*
X115134459Y-103649330D01*
X115227786Y-103874640D01*
X115227791Y-103874651D01*
X115349727Y-104085848D01*
X115349738Y-104085864D01*
X115498199Y-104279343D01*
X115498205Y-104279350D01*
X115670649Y-104451794D01*
X115670655Y-104451799D01*
X115864144Y-104600268D01*
X115864151Y-104600272D01*
X116075348Y-104722208D01*
X116075353Y-104722210D01*
X116075356Y-104722212D01*
X116300679Y-104815544D01*
X116536256Y-104878666D01*
X116778056Y-104910500D01*
X116778063Y-104910500D01*
X117284556Y-104910500D01*
X117351595Y-104930185D01*
X117397350Y-104982989D01*
X117407294Y-105052147D01*
X117378269Y-105115703D01*
X117372237Y-105122181D01*
X116454484Y-106039934D01*
X116393161Y-106073419D01*
X116323469Y-106068435D01*
X116279122Y-106039934D01*
X116251082Y-106011894D01*
X116057578Y-105876399D01*
X115843492Y-105776570D01*
X115843486Y-105776567D01*
X115630000Y-105719364D01*
X115630000Y-106616988D01*
X115572993Y-106584075D01*
X115445826Y-106550000D01*
X115314174Y-106550000D01*
X115187007Y-106584075D01*
X115130000Y-106616988D01*
X115130000Y-105719364D01*
X115129999Y-105719364D01*
X114916513Y-105776567D01*
X114916507Y-105776570D01*
X114702422Y-105876399D01*
X114702420Y-105876400D01*
X114508926Y-106011886D01*
X114508920Y-106011891D01*
X114341891Y-106178920D01*
X114341890Y-106178922D01*
X114211575Y-106365031D01*
X114156998Y-106408655D01*
X114087499Y-106415848D01*
X114025145Y-106384326D01*
X114008425Y-106365031D01*
X113878109Y-106178922D01*
X113878108Y-106178920D01*
X113711082Y-106011894D01*
X113517578Y-105876399D01*
X113303492Y-105776570D01*
X113303486Y-105776567D01*
X113090000Y-105719364D01*
X113090000Y-106616988D01*
X113032993Y-106584075D01*
X112905826Y-106550000D01*
X112774174Y-106550000D01*
X112647007Y-106584075D01*
X112590000Y-106616988D01*
X112590000Y-105719364D01*
X112589999Y-105719363D01*
X112446593Y-105757789D01*
X112376743Y-105756126D01*
X112318881Y-105716963D01*
X112291377Y-105652735D01*
X112290500Y-105638014D01*
X112290500Y-103420096D01*
X112310185Y-103353057D01*
X112326814Y-103332419D01*
X113278535Y-102380698D01*
X113339856Y-102347215D01*
X113352311Y-102345163D01*
X113439255Y-102335368D01*
X113609522Y-102275789D01*
X113762262Y-102179816D01*
X113889816Y-102052262D01*
X113985789Y-101899522D01*
X114045368Y-101729255D01*
X114055161Y-101642329D01*
X114082226Y-101577918D01*
X114090690Y-101568543D01*
X114453422Y-101205812D01*
X114514741Y-101172330D01*
X114584433Y-101177314D01*
G37*
%TD.AperFunction*%
%TA.AperFunction,Conductor*%
G36*
X121981744Y-101870185D02*
G01*
X122002386Y-101886819D01*
X122650581Y-102535014D01*
X122684066Y-102596337D01*
X122686900Y-102622695D01*
X122686900Y-102838096D01*
X122686901Y-102998098D01*
X122667217Y-103065137D01*
X122614413Y-103110892D01*
X122562901Y-103122098D01*
X119541999Y-103122098D01*
X119436593Y-103150341D01*
X119366743Y-103148678D01*
X119308881Y-103109515D01*
X119281377Y-103045286D01*
X119280500Y-103030566D01*
X119280500Y-102928062D01*
X119280499Y-102928048D01*
X119257227Y-102751285D01*
X119248666Y-102686256D01*
X119185544Y-102450679D01*
X119092212Y-102225356D01*
X118983174Y-102036498D01*
X118966702Y-101968601D01*
X118989554Y-101902574D01*
X119044475Y-101859383D01*
X119090562Y-101850500D01*
X121914705Y-101850500D01*
X121981744Y-101870185D01*
G37*
%TD.AperFunction*%
%TA.AperFunction,Conductor*%
G36*
X122181131Y-96870185D02*
G01*
X122219636Y-96914271D01*
X122221395Y-96913187D01*
X122225185Y-96919332D01*
X122225186Y-96919334D01*
X122317288Y-97068656D01*
X122441344Y-97192712D01*
X122590666Y-97284814D01*
X122757203Y-97339999D01*
X122859991Y-97350500D01*
X123860008Y-97350499D01*
X123860016Y-97350498D01*
X123860019Y-97350498D01*
X123916302Y-97344748D01*
X123962797Y-97339999D01*
X123962800Y-97339997D01*
X123962804Y-97339997D01*
X123996495Y-97328833D01*
X124066323Y-97326430D01*
X124126365Y-97362161D01*
X124157558Y-97424681D01*
X124159500Y-97446538D01*
X124159500Y-99623774D01*
X124139815Y-99690813D01*
X124087011Y-99736568D01*
X124017853Y-99746512D01*
X124012715Y-99745663D01*
X123889328Y-99722598D01*
X123685472Y-99722598D01*
X123485078Y-99760058D01*
X123294988Y-99833698D01*
X123294981Y-99833702D01*
X123206712Y-99888355D01*
X123206711Y-99888356D01*
X123846098Y-100527743D01*
X123826896Y-100522598D01*
X123747904Y-100522598D01*
X123671604Y-100543042D01*
X123603195Y-100582538D01*
X123547340Y-100638393D01*
X123507844Y-100706802D01*
X123487400Y-100783102D01*
X123487400Y-100862094D01*
X123492545Y-100881297D01*
X122849933Y-100238685D01*
X122848155Y-100241040D01*
X122848154Y-100241041D01*
X122757286Y-100423528D01*
X122757283Y-100423534D01*
X122701497Y-100619605D01*
X122701497Y-100619607D01*
X122700181Y-100633809D01*
X122674394Y-100698746D01*
X122617593Y-100739433D01*
X122547812Y-100742952D01*
X122514715Y-100729756D01*
X122496667Y-100719337D01*
X122496668Y-100719337D01*
X122496662Y-100719334D01*
X122446587Y-100690423D01*
X122293859Y-100649499D01*
X122135745Y-100649499D01*
X122128149Y-100649499D01*
X122128133Y-100649500D01*
X121326200Y-100649500D01*
X121259161Y-100629815D01*
X121213406Y-100577011D01*
X121202200Y-100525500D01*
X121202200Y-100505000D01*
X118652200Y-100505000D01*
X118652200Y-100525500D01*
X118632515Y-100592539D01*
X118579711Y-100638294D01*
X118528200Y-100649500D01*
X115926700Y-100649500D01*
X115859661Y-100629815D01*
X115813906Y-100577011D01*
X115802700Y-100525501D01*
X115802699Y-100309501D01*
X115822383Y-100242461D01*
X115875187Y-100196706D01*
X115926699Y-100185500D01*
X119240531Y-100185500D01*
X119240547Y-100185501D01*
X119248143Y-100185501D01*
X119406254Y-100185501D01*
X119406257Y-100185501D01*
X119558985Y-100144577D01*
X119615032Y-100112218D01*
X119695916Y-100065520D01*
X119720117Y-100041319D01*
X119781440Y-100007834D01*
X119807798Y-100005000D01*
X121202200Y-100005000D01*
X121202200Y-99907172D01*
X121202199Y-99907155D01*
X121195798Y-99847627D01*
X121195797Y-99847623D01*
X121145551Y-99712908D01*
X121131941Y-99694728D01*
X121107523Y-99629264D01*
X121122374Y-99560991D01*
X121131932Y-99546117D01*
X121145996Y-99527331D01*
X121196291Y-99392483D01*
X121202700Y-99332873D01*
X121202699Y-98637128D01*
X121196291Y-98577517D01*
X121186028Y-98550000D01*
X121145997Y-98442670D01*
X121145996Y-98442669D01*
X121145993Y-98442665D01*
X121132253Y-98424311D01*
X121107835Y-98358850D01*
X121122685Y-98290576D01*
X121132250Y-98275691D01*
X121145996Y-98257331D01*
X121196291Y-98122483D01*
X121202700Y-98062873D01*
X121202699Y-97367128D01*
X121196291Y-97307517D01*
X121189424Y-97289105D01*
X121145997Y-97172670D01*
X121145996Y-97172669D01*
X121133044Y-97155368D01*
X121132253Y-97154311D01*
X121107835Y-97088850D01*
X121122685Y-97020576D01*
X121132250Y-97005691D01*
X121145996Y-96987331D01*
X121152750Y-96969224D01*
X121166944Y-96931167D01*
X121208815Y-96875233D01*
X121274279Y-96850816D01*
X121283126Y-96850500D01*
X122114092Y-96850500D01*
X122181131Y-96870185D01*
G37*
%TD.AperFunction*%
%TA.AperFunction,Conductor*%
G36*
X124126365Y-88462161D02*
G01*
X124157558Y-88524681D01*
X124159500Y-88546538D01*
X124159500Y-93053462D01*
X124139815Y-93120501D01*
X124087011Y-93166256D01*
X124017853Y-93176200D01*
X123996498Y-93171168D01*
X123962797Y-93160001D01*
X123962795Y-93160000D01*
X123860016Y-93149500D01*
X123860009Y-93149500D01*
X123187589Y-93149500D01*
X123120550Y-93129815D01*
X123074795Y-93077011D01*
X123064369Y-93039383D01*
X123045369Y-92870750D01*
X123045368Y-92870745D01*
X122985788Y-92700476D01*
X122889815Y-92547737D01*
X122762262Y-92420184D01*
X122609523Y-92324211D01*
X122439254Y-92264631D01*
X122439249Y-92264630D01*
X122260004Y-92244435D01*
X122259996Y-92244435D01*
X122080750Y-92264630D01*
X122080745Y-92264631D01*
X121910476Y-92324211D01*
X121757737Y-92420184D01*
X121630184Y-92547737D01*
X121534211Y-92700476D01*
X121474631Y-92870745D01*
X121474630Y-92870750D01*
X121454435Y-93049996D01*
X121454435Y-93050003D01*
X121474630Y-93229249D01*
X121474631Y-93229254D01*
X121534211Y-93399523D01*
X121575122Y-93464632D01*
X121630184Y-93552262D01*
X121757738Y-93679816D01*
X121910478Y-93775789D01*
X122076455Y-93833867D01*
X122133230Y-93874588D01*
X122158978Y-93939540D01*
X122159500Y-93950908D01*
X122159500Y-94650001D01*
X122159501Y-94650019D01*
X122170000Y-94752796D01*
X122170001Y-94752799D01*
X122225185Y-94919331D01*
X122225187Y-94919336D01*
X122317289Y-95068657D01*
X122410951Y-95162319D01*
X122444436Y-95223642D01*
X122439452Y-95293334D01*
X122410951Y-95337681D01*
X122317289Y-95431342D01*
X122317288Y-95431344D01*
X122228373Y-95575500D01*
X122221395Y-95586813D01*
X122219600Y-95585706D01*
X122180313Y-95630337D01*
X122114092Y-95649500D01*
X120803221Y-95649500D01*
X120789966Y-95648789D01*
X120750083Y-95644501D01*
X120750081Y-95644500D01*
X120750073Y-95644500D01*
X120750064Y-95644500D01*
X119104329Y-95644500D01*
X119104323Y-95644501D01*
X119044716Y-95650908D01*
X118909871Y-95701202D01*
X118909864Y-95701206D01*
X118794655Y-95787452D01*
X118794652Y-95787455D01*
X118708406Y-95902664D01*
X118708402Y-95902671D01*
X118658110Y-96037513D01*
X118658109Y-96037517D01*
X118651700Y-96097127D01*
X118651700Y-96097134D01*
X118651700Y-96097135D01*
X118651700Y-96792870D01*
X118651701Y-96792876D01*
X118658108Y-96852483D01*
X118708402Y-96987328D01*
X118708405Y-96987334D01*
X118722147Y-97005691D01*
X118746563Y-97071156D01*
X118731710Y-97139429D01*
X118722147Y-97154309D01*
X118708405Y-97172665D01*
X118708402Y-97172671D01*
X118664976Y-97289105D01*
X118658109Y-97307517D01*
X118651700Y-97367127D01*
X118651700Y-97367134D01*
X118651700Y-97367135D01*
X118651700Y-98062870D01*
X118651701Y-98062876D01*
X118658108Y-98122483D01*
X118708402Y-98257328D01*
X118708405Y-98257334D01*
X118722147Y-98275691D01*
X118746563Y-98341156D01*
X118731710Y-98409429D01*
X118722147Y-98424309D01*
X118708405Y-98442665D01*
X118708402Y-98442671D01*
X118658108Y-98577517D01*
X118651701Y-98637116D01*
X118651701Y-98637123D01*
X118651700Y-98637135D01*
X118651700Y-98860500D01*
X118632015Y-98927539D01*
X118579211Y-98973294D01*
X118527700Y-98984500D01*
X117230816Y-98984500D01*
X117163777Y-98964815D01*
X117118022Y-98912011D01*
X117108078Y-98842853D01*
X117113775Y-98819545D01*
X117145366Y-98729262D01*
X117145369Y-98729249D01*
X117165565Y-98550003D01*
X117165565Y-98549996D01*
X117145369Y-98370750D01*
X117145368Y-98370745D01*
X117105682Y-98257329D01*
X117085789Y-98200478D01*
X116989816Y-98047738D01*
X116862262Y-97920184D01*
X116709521Y-97824210D01*
X116582869Y-97779893D01*
X116542297Y-97765696D01*
X116495571Y-97736336D01*
X116112590Y-97353355D01*
X116112588Y-97353352D01*
X115993717Y-97234481D01*
X115993716Y-97234480D01*
X115906904Y-97184360D01*
X115906904Y-97184359D01*
X115906900Y-97184358D01*
X115856785Y-97155423D01*
X115830818Y-97148465D01*
X115771160Y-97112101D01*
X115740631Y-97049254D01*
X115746732Y-96985358D01*
X115766944Y-96931167D01*
X115796291Y-96852483D01*
X115802700Y-96792873D01*
X115802699Y-96097128D01*
X115796291Y-96037517D01*
X115745996Y-95902669D01*
X115745995Y-95902668D01*
X115745993Y-95902664D01*
X115659747Y-95787455D01*
X115659744Y-95787452D01*
X115544535Y-95701206D01*
X115544528Y-95701202D01*
X115409682Y-95650908D01*
X115409683Y-95650908D01*
X115350083Y-95644501D01*
X115350081Y-95644500D01*
X115350073Y-95644500D01*
X115350065Y-95644500D01*
X115251700Y-95644500D01*
X115184661Y-95624815D01*
X115138906Y-95572011D01*
X115127700Y-95520500D01*
X115127700Y-95328841D01*
X115146160Y-95263746D01*
X115219814Y-95144334D01*
X115274999Y-94977797D01*
X115285500Y-94875009D01*
X115285499Y-94766004D01*
X115305183Y-94698967D01*
X115357987Y-94653212D01*
X115427145Y-94643268D01*
X115490701Y-94672292D01*
X115497180Y-94678325D01*
X115670649Y-94851794D01*
X115670656Y-94851800D01*
X115758671Y-94919336D01*
X115864144Y-95000268D01*
X115864151Y-95000272D01*
X116075348Y-95122208D01*
X116075353Y-95122210D01*
X116075356Y-95122212D01*
X116162992Y-95158512D01*
X116286321Y-95209597D01*
X116300679Y-95215544D01*
X116536256Y-95278666D01*
X116778056Y-95310500D01*
X116778063Y-95310500D01*
X117541937Y-95310500D01*
X117541944Y-95310500D01*
X117783744Y-95278666D01*
X118019321Y-95215544D01*
X118244644Y-95122212D01*
X118455856Y-95000268D01*
X118649345Y-94851799D01*
X118821799Y-94679345D01*
X118970268Y-94485856D01*
X119092212Y-94274644D01*
X119185544Y-94049321D01*
X119248666Y-93813744D01*
X119280500Y-93571944D01*
X119280500Y-93328056D01*
X119248666Y-93086256D01*
X119185544Y-92850679D01*
X119092212Y-92625356D01*
X119092210Y-92625353D01*
X119092208Y-92625348D01*
X118970272Y-92414151D01*
X118970268Y-92414144D01*
X118901260Y-92324211D01*
X118821800Y-92220656D01*
X118821794Y-92220649D01*
X118649350Y-92048205D01*
X118649343Y-92048199D01*
X118455864Y-91899738D01*
X118455862Y-91899736D01*
X118455856Y-91899732D01*
X118455851Y-91899729D01*
X118455848Y-91899727D01*
X118244651Y-91777791D01*
X118244640Y-91777786D01*
X118019330Y-91684459D01*
X118019323Y-91684457D01*
X118019321Y-91684456D01*
X117783744Y-91621334D01*
X117743333Y-91616013D01*
X117541951Y-91589500D01*
X117541944Y-91589500D01*
X116778056Y-91589500D01*
X116778048Y-91589500D01*
X116547896Y-91619801D01*
X116536256Y-91621334D01*
X116300679Y-91684456D01*
X116300669Y-91684459D01*
X116075359Y-91777786D01*
X116075348Y-91777791D01*
X115864151Y-91899727D01*
X115864135Y-91899738D01*
X115670656Y-92048199D01*
X115670649Y-92048205D01*
X115496680Y-92222175D01*
X115435357Y-92255660D01*
X115365665Y-92250676D01*
X115309732Y-92208804D01*
X115285315Y-92143340D01*
X115284999Y-92134494D01*
X115284999Y-92025028D01*
X115284998Y-92025013D01*
X115274505Y-91922302D01*
X115219358Y-91755880D01*
X115219356Y-91755875D01*
X115127315Y-91606654D01*
X115003345Y-91482684D01*
X114854124Y-91390643D01*
X114854119Y-91390641D01*
X114687697Y-91335494D01*
X114687690Y-91335493D01*
X114584986Y-91325000D01*
X114310000Y-91325000D01*
X114310000Y-92538500D01*
X114290315Y-92605539D01*
X114237511Y-92651294D01*
X114186000Y-92662500D01*
X113934000Y-92662500D01*
X113866961Y-92642815D01*
X113821206Y-92590011D01*
X113810000Y-92538500D01*
X113810000Y-91325000D01*
X113535029Y-91325000D01*
X113535012Y-91325001D01*
X113432302Y-91335494D01*
X113265880Y-91390641D01*
X113265868Y-91390647D01*
X113249594Y-91400685D01*
X113182202Y-91419124D01*
X113115538Y-91398200D01*
X113070770Y-91344557D01*
X113060500Y-91295145D01*
X113060500Y-90825685D01*
X113080185Y-90758646D01*
X113132989Y-90712891D01*
X113202147Y-90702947D01*
X113220247Y-90707913D01*
X113220366Y-90707473D01*
X113228214Y-90709575D01*
X113228216Y-90709577D01*
X113380943Y-90750501D01*
X113380945Y-90750501D01*
X113546654Y-90750501D01*
X113546670Y-90750500D01*
X120677588Y-90750500D01*
X120744627Y-90770185D01*
X120754903Y-90777555D01*
X120757736Y-90779814D01*
X120757738Y-90779816D01*
X120910478Y-90875789D01*
X121080745Y-90935368D01*
X121080750Y-90935369D01*
X121259996Y-90955565D01*
X121260000Y-90955565D01*
X121260004Y-90955565D01*
X121439249Y-90935369D01*
X121439252Y-90935368D01*
X121439255Y-90935368D01*
X121609522Y-90875789D01*
X121762262Y-90779816D01*
X121889816Y-90652262D01*
X121985789Y-90499522D01*
X122045368Y-90329255D01*
X122055161Y-90242329D01*
X122082226Y-90177918D01*
X122090690Y-90168543D01*
X123718504Y-88540729D01*
X123718514Y-88540722D01*
X123772417Y-88486819D01*
X123833740Y-88453333D01*
X123856868Y-88450846D01*
X123856859Y-88450659D01*
X123859998Y-88450499D01*
X123860008Y-88450499D01*
X123962797Y-88439999D01*
X123962800Y-88439997D01*
X123962804Y-88439997D01*
X123996495Y-88428833D01*
X124066323Y-88426430D01*
X124126365Y-88462161D01*
G37*
%TD.AperFunction*%
%TA.AperFunction,Conductor*%
G36*
X111388674Y-77473074D02*
G01*
X111444607Y-77514946D01*
X111468560Y-77575372D01*
X111474630Y-77629250D01*
X111474631Y-77629254D01*
X111534211Y-77799523D01*
X111550470Y-77825398D01*
X111630184Y-77952262D01*
X111696604Y-78018682D01*
X111723438Y-78045516D01*
X111756922Y-78106840D01*
X111759374Y-78142924D01*
X111757000Y-78173084D01*
X111757000Y-78671893D01*
X111757001Y-78671915D01*
X111759734Y-78706652D01*
X111759734Y-78706655D01*
X111759735Y-78706656D01*
X111802945Y-78855387D01*
X111847949Y-78931485D01*
X111864732Y-78959863D01*
X111882000Y-79022984D01*
X111882000Y-79444560D01*
X111862315Y-79511599D01*
X111845681Y-79532241D01*
X111830184Y-79547737D01*
X111734211Y-79700476D01*
X111674631Y-79870745D01*
X111674630Y-79870750D01*
X111654435Y-80049996D01*
X111654435Y-80050003D01*
X111674630Y-80229249D01*
X111674631Y-80229254D01*
X111734211Y-80399523D01*
X111801657Y-80506862D01*
X111830184Y-80552262D01*
X111957738Y-80679816D01*
X112001133Y-80707083D01*
X112087248Y-80761193D01*
X112110478Y-80775789D01*
X112179821Y-80800053D01*
X112280745Y-80835368D01*
X112280750Y-80835369D01*
X112459996Y-80855565D01*
X112460000Y-80855565D01*
X112460004Y-80855565D01*
X112639249Y-80835369D01*
X112639252Y-80835368D01*
X112639255Y-80835368D01*
X112809522Y-80775789D01*
X112962262Y-80679816D01*
X113089816Y-80552262D01*
X113176830Y-80413780D01*
X113229164Y-80367490D01*
X113298217Y-80356842D01*
X113362066Y-80385217D01*
X113388555Y-80416632D01*
X113441916Y-80506861D01*
X113441923Y-80506870D01*
X113558129Y-80623076D01*
X113558133Y-80623079D01*
X113558135Y-80623081D01*
X113558137Y-80623082D01*
X113657407Y-80681790D01*
X113705090Y-80732859D01*
X113717594Y-80801600D01*
X113690949Y-80866190D01*
X113659383Y-80894061D01*
X113516342Y-80982289D01*
X113392289Y-81106342D01*
X113300187Y-81255663D01*
X113300186Y-81255666D01*
X113245001Y-81422203D01*
X113245001Y-81422204D01*
X113245000Y-81422204D01*
X113234500Y-81524983D01*
X113234500Y-82300001D01*
X113234501Y-82300019D01*
X113245000Y-82402796D01*
X113245001Y-82402799D01*
X113292983Y-82547598D01*
X113300186Y-82569334D01*
X113392288Y-82718656D01*
X113516344Y-82842712D01*
X113519628Y-82844737D01*
X113519653Y-82844753D01*
X113521445Y-82846746D01*
X113522011Y-82847193D01*
X113521934Y-82847289D01*
X113566379Y-82896699D01*
X113577603Y-82965661D01*
X113549761Y-83029744D01*
X113519665Y-83055826D01*
X113516660Y-83057679D01*
X113516655Y-83057683D01*
X113392684Y-83181654D01*
X113300643Y-83330875D01*
X113300641Y-83330880D01*
X113245494Y-83497302D01*
X113245491Y-83497316D01*
X113243815Y-83513724D01*
X113217417Y-83578414D01*
X113160234Y-83618563D01*
X113090423Y-83621424D01*
X113032777Y-83588797D01*
X113013461Y-83569481D01*
X113013460Y-83569480D01*
X112926648Y-83519360D01*
X112926648Y-83519359D01*
X112926644Y-83519358D01*
X112876529Y-83490423D01*
X112723801Y-83449499D01*
X112565687Y-83449499D01*
X112558091Y-83449499D01*
X112558075Y-83449500D01*
X111146670Y-83449500D01*
X111146654Y-83449499D01*
X111139058Y-83449499D01*
X110980943Y-83449499D01*
X110904579Y-83469961D01*
X110828214Y-83490423D01*
X110828209Y-83490426D01*
X110691290Y-83569475D01*
X110691282Y-83569481D01*
X110447582Y-83813181D01*
X110386259Y-83846666D01*
X110359901Y-83849500D01*
X109659998Y-83849500D01*
X109659980Y-83849501D01*
X109557203Y-83860000D01*
X109557200Y-83860001D01*
X109390668Y-83915185D01*
X109390663Y-83915187D01*
X109241342Y-84007289D01*
X109117289Y-84131342D01*
X109025187Y-84280663D01*
X109025185Y-84280668D01*
X109013747Y-84315186D01*
X108970001Y-84447203D01*
X108970001Y-84447204D01*
X108970000Y-84447204D01*
X108959500Y-84549983D01*
X108959500Y-85550001D01*
X108959501Y-85550019D01*
X108970000Y-85652796D01*
X108970001Y-85652799D01*
X109002217Y-85750019D01*
X109025186Y-85819334D01*
X109041039Y-85845036D01*
X109059500Y-85910132D01*
X109059500Y-87199515D01*
X109042232Y-87262636D01*
X108980446Y-87367111D01*
X108937234Y-87515847D01*
X108937234Y-87515849D01*
X108934500Y-87550589D01*
X108934500Y-88049393D01*
X108934501Y-88049415D01*
X108937234Y-88084152D01*
X108937234Y-88084155D01*
X108937235Y-88084156D01*
X108980445Y-88232887D01*
X108993866Y-88255581D01*
X109059282Y-88366194D01*
X109059289Y-88366203D01*
X109168796Y-88475710D01*
X109168800Y-88475713D01*
X109168802Y-88475715D01*
X109302113Y-88554555D01*
X109450844Y-88597765D01*
X109485595Y-88600500D01*
X109834404Y-88600499D01*
X109869156Y-88597765D01*
X110017887Y-88554555D01*
X110151198Y-88475715D01*
X110260715Y-88366198D01*
X110339555Y-88232887D01*
X110382765Y-88084156D01*
X110385500Y-88049405D01*
X110385499Y-87963390D01*
X110405183Y-87896354D01*
X110457986Y-87850598D01*
X110523382Y-87840172D01*
X110555557Y-87843797D01*
X110659997Y-87855565D01*
X110660000Y-87855565D01*
X110660004Y-87855565D01*
X110839249Y-87835369D01*
X110839252Y-87835368D01*
X110839255Y-87835368D01*
X110919017Y-87807457D01*
X110959972Y-87800500D01*
X111701489Y-87800500D01*
X111768528Y-87820185D01*
X111814283Y-87872989D01*
X111824227Y-87942147D01*
X111795202Y-88005703D01*
X111766587Y-88030037D01*
X111735188Y-88049405D01*
X111641342Y-88107289D01*
X111517289Y-88231342D01*
X111425187Y-88380663D01*
X111425185Y-88380668D01*
X111412091Y-88420184D01*
X111370001Y-88547203D01*
X111370001Y-88547204D01*
X111370000Y-88547204D01*
X111359500Y-88649983D01*
X111359500Y-89650001D01*
X111359501Y-89650019D01*
X111370000Y-89752796D01*
X111370001Y-89752799D01*
X111425185Y-89919331D01*
X111425186Y-89919334D01*
X111517288Y-90068656D01*
X111641344Y-90192712D01*
X111790666Y-90284814D01*
X111790667Y-90284814D01*
X111796813Y-90288605D01*
X111795706Y-90290399D01*
X111840337Y-90329687D01*
X111859500Y-90395908D01*
X111859500Y-92323074D01*
X111859499Y-92323092D01*
X111859499Y-92488798D01*
X111859498Y-92488798D01*
X111886618Y-92590011D01*
X111900423Y-92641529D01*
X111923376Y-92681284D01*
X111934458Y-92700478D01*
X111979479Y-92778458D01*
X111979481Y-92778461D01*
X112098349Y-92897329D01*
X112098355Y-92897334D01*
X112523726Y-93322705D01*
X112557211Y-93384028D01*
X112552227Y-93453720D01*
X112510355Y-93509653D01*
X112489852Y-93522104D01*
X112485478Y-93524210D01*
X112332737Y-93620184D01*
X112205184Y-93747737D01*
X112109210Y-93900478D01*
X112049630Y-94070750D01*
X112039837Y-94157668D01*
X112012770Y-94222082D01*
X112004298Y-94231465D01*
X111272180Y-94963584D01*
X111210857Y-94997069D01*
X111141166Y-94992085D01*
X111085232Y-94950213D01*
X111060815Y-94884749D01*
X111060499Y-94875903D01*
X111060499Y-94802129D01*
X111060498Y-94802123D01*
X111054091Y-94742516D01*
X111003797Y-94607671D01*
X111003793Y-94607664D01*
X110917547Y-94492455D01*
X110917544Y-94492452D01*
X110802335Y-94406206D01*
X110802328Y-94406202D01*
X110667482Y-94355908D01*
X110667483Y-94355908D01*
X110607883Y-94349501D01*
X110607881Y-94349500D01*
X110607873Y-94349500D01*
X110607864Y-94349500D01*
X108712129Y-94349500D01*
X108712123Y-94349501D01*
X108652516Y-94355908D01*
X108517671Y-94406202D01*
X108517664Y-94406206D01*
X108402455Y-94492452D01*
X108373766Y-94530776D01*
X108317832Y-94572646D01*
X108248140Y-94577630D01*
X108186818Y-94544144D01*
X108153333Y-94482820D01*
X108150500Y-94456464D01*
X108150500Y-90125000D01*
X108935001Y-90125000D01*
X108935001Y-90149363D01*
X108937733Y-90184078D01*
X108980906Y-90332681D01*
X108980907Y-90332684D01*
X109059682Y-90465885D01*
X109059688Y-90465894D01*
X109169105Y-90575311D01*
X109169114Y-90575317D01*
X109302315Y-90654092D01*
X109302318Y-90654093D01*
X109434998Y-90692641D01*
X109435000Y-90692640D01*
X109435000Y-90125000D01*
X109885000Y-90125000D01*
X109885000Y-90692640D01*
X109885001Y-90692641D01*
X110017681Y-90654093D01*
X110017684Y-90654092D01*
X110150885Y-90575317D01*
X110150894Y-90575311D01*
X110260311Y-90465894D01*
X110260317Y-90465885D01*
X110339092Y-90332684D01*
X110339093Y-90332681D01*
X110382265Y-90184084D01*
X110382267Y-90184073D01*
X110384999Y-90149359D01*
X110385000Y-90149346D01*
X110385000Y-90125000D01*
X109885000Y-90125000D01*
X109435000Y-90125000D01*
X108935001Y-90125000D01*
X108150500Y-90125000D01*
X108150500Y-89675000D01*
X108935000Y-89675000D01*
X109435000Y-89675000D01*
X109435000Y-89107357D01*
X109885000Y-89107357D01*
X109885000Y-89675000D01*
X110384999Y-89675000D01*
X110384999Y-89650658D01*
X110384998Y-89650636D01*
X110382266Y-89615921D01*
X110339093Y-89467318D01*
X110339092Y-89467315D01*
X110260317Y-89334114D01*
X110260311Y-89334105D01*
X110150894Y-89224688D01*
X110150885Y-89224682D01*
X110017684Y-89145907D01*
X110017683Y-89145906D01*
X109885000Y-89107357D01*
X109435000Y-89107357D01*
X109302316Y-89145906D01*
X109302315Y-89145907D01*
X109169114Y-89224682D01*
X109169105Y-89224688D01*
X109059688Y-89334105D01*
X109059682Y-89334114D01*
X108980907Y-89467315D01*
X108980906Y-89467318D01*
X108937734Y-89615915D01*
X108937732Y-89615926D01*
X108935000Y-89650640D01*
X108935000Y-89675000D01*
X108150500Y-89675000D01*
X108150500Y-81386542D01*
X108170185Y-81319503D01*
X108222989Y-81273748D01*
X108292147Y-81263804D01*
X108355703Y-81292829D01*
X108388056Y-81336732D01*
X108424075Y-81418848D01*
X108551016Y-81613147D01*
X108551019Y-81613151D01*
X108551021Y-81613153D01*
X108708216Y-81783913D01*
X108708219Y-81783915D01*
X108708222Y-81783918D01*
X108891365Y-81926464D01*
X108891371Y-81926468D01*
X108891374Y-81926470D01*
X109095497Y-82036936D01*
X109209487Y-82076068D01*
X109315015Y-82112297D01*
X109315017Y-82112297D01*
X109315019Y-82112298D01*
X109543951Y-82150500D01*
X109543952Y-82150500D01*
X109776048Y-82150500D01*
X109776049Y-82150500D01*
X110004981Y-82112298D01*
X110224503Y-82036936D01*
X110428626Y-81926470D01*
X110611784Y-81783913D01*
X110768979Y-81613153D01*
X110775179Y-81603664D01*
X110826583Y-81524983D01*
X110895924Y-81418849D01*
X110989157Y-81206300D01*
X111046134Y-80981305D01*
X111048529Y-80952401D01*
X111065300Y-80750006D01*
X111065300Y-80749993D01*
X111046135Y-80518702D01*
X111046133Y-80518691D01*
X110989157Y-80293699D01*
X110895924Y-80081151D01*
X110768983Y-79886852D01*
X110768980Y-79886849D01*
X110768979Y-79886847D01*
X110611784Y-79716087D01*
X110459876Y-79597852D01*
X110419064Y-79541143D01*
X110415389Y-79471370D01*
X110450020Y-79410687D01*
X110459876Y-79402147D01*
X110611784Y-79283913D01*
X110768979Y-79113153D01*
X110781253Y-79094367D01*
X110869128Y-78959863D01*
X110895924Y-78918849D01*
X110989157Y-78706300D01*
X111046134Y-78481305D01*
X111051269Y-78419334D01*
X111065300Y-78250006D01*
X111065300Y-78249993D01*
X111046135Y-78018702D01*
X111046131Y-78018682D01*
X111001680Y-77843151D01*
X111004304Y-77773331D01*
X111034202Y-77725031D01*
X111257660Y-77501574D01*
X111318982Y-77468090D01*
X111388674Y-77473074D01*
G37*
%TD.AperFunction*%
%TA.AperFunction,Conductor*%
G36*
X122381231Y-82370185D02*
G01*
X122401874Y-82386820D01*
X122433129Y-82418076D01*
X122433133Y-82418079D01*
X122433135Y-82418081D01*
X122574602Y-82501744D01*
X122670097Y-82529488D01*
X122728980Y-82567092D01*
X122758187Y-82630564D01*
X122759500Y-82648563D01*
X122759500Y-84169699D01*
X122739815Y-84236738D01*
X122687011Y-84282493D01*
X122674507Y-84287403D01*
X122641962Y-84298188D01*
X122590668Y-84315185D01*
X122590663Y-84315187D01*
X122441342Y-84407289D01*
X122317289Y-84531342D01*
X122225187Y-84680663D01*
X122225186Y-84680666D01*
X122170001Y-84847203D01*
X122170001Y-84847204D01*
X122170000Y-84847204D01*
X122159500Y-84949983D01*
X122159500Y-85750001D01*
X122159501Y-85750019D01*
X122170000Y-85852796D01*
X122170001Y-85852799D01*
X122225185Y-86019331D01*
X122225187Y-86019336D01*
X122317289Y-86168657D01*
X122410951Y-86262319D01*
X122444436Y-86323642D01*
X122439452Y-86393334D01*
X122410951Y-86437681D01*
X122317289Y-86531342D01*
X122225187Y-86680663D01*
X122225186Y-86680666D01*
X122170001Y-86847203D01*
X122170001Y-86847204D01*
X122170000Y-86847204D01*
X122159500Y-86949983D01*
X122159500Y-87750001D01*
X122159501Y-87750019D01*
X122170000Y-87852796D01*
X122170001Y-87852799D01*
X122225185Y-88019331D01*
X122225189Y-88019340D01*
X122294360Y-88131484D01*
X122312800Y-88198876D01*
X122291877Y-88265540D01*
X122276502Y-88284261D01*
X121241465Y-89319298D01*
X121180142Y-89352783D01*
X121167668Y-89354837D01*
X121080750Y-89364630D01*
X120910478Y-89424210D01*
X120757736Y-89520185D01*
X120754903Y-89522445D01*
X120752724Y-89523334D01*
X120751842Y-89523889D01*
X120751744Y-89523734D01*
X120690217Y-89548855D01*
X120677588Y-89549500D01*
X119308072Y-89549500D01*
X119241033Y-89529815D01*
X119195278Y-89477011D01*
X119185334Y-89407853D01*
X119191030Y-89384546D01*
X119245367Y-89229257D01*
X119245368Y-89229255D01*
X119245883Y-89224688D01*
X119265565Y-89050003D01*
X119265565Y-89049996D01*
X119245369Y-88870750D01*
X119245368Y-88870745D01*
X119185788Y-88700476D01*
X119146582Y-88638080D01*
X119089816Y-88547738D01*
X118962262Y-88420184D01*
X118838624Y-88342497D01*
X118792334Y-88290163D01*
X118781686Y-88221110D01*
X118810061Y-88157261D01*
X118816918Y-88149820D01*
X118827682Y-88139055D01*
X118827685Y-88139052D01*
X118911282Y-87997696D01*
X118911283Y-87997693D01*
X118957099Y-87839995D01*
X118957100Y-87839989D01*
X118959999Y-87803149D01*
X118960000Y-87803134D01*
X118960000Y-87400000D01*
X117360000Y-87400000D01*
X117360000Y-87663000D01*
X117340315Y-87730039D01*
X117287511Y-87775794D01*
X117236000Y-87787000D01*
X117184500Y-87787000D01*
X117117461Y-87767315D01*
X117071706Y-87714511D01*
X117060500Y-87663000D01*
X117060500Y-86900000D01*
X117360000Y-86900000D01*
X117910000Y-86900000D01*
X117910000Y-85915203D01*
X118410000Y-85915203D01*
X118410000Y-86900000D01*
X118960000Y-86900000D01*
X118960000Y-86496865D01*
X118959999Y-86496850D01*
X118957100Y-86460010D01*
X118957099Y-86460004D01*
X118911283Y-86302306D01*
X118911282Y-86302303D01*
X118827685Y-86160947D01*
X118827678Y-86160938D01*
X118711561Y-86044821D01*
X118711552Y-86044814D01*
X118570196Y-85961217D01*
X118570193Y-85961216D01*
X118412494Y-85915400D01*
X118412497Y-85915400D01*
X118410000Y-85915203D01*
X117910000Y-85915203D01*
X117907503Y-85915400D01*
X117749806Y-85961216D01*
X117749803Y-85961217D01*
X117608447Y-86044814D01*
X117608438Y-86044821D01*
X117492321Y-86160938D01*
X117492314Y-86160947D01*
X117408717Y-86302303D01*
X117408716Y-86302306D01*
X117362900Y-86460004D01*
X117362899Y-86460010D01*
X117360000Y-86496850D01*
X117360000Y-86900000D01*
X117060500Y-86900000D01*
X117060500Y-86496813D01*
X117060499Y-86496798D01*
X117057598Y-86459929D01*
X117057597Y-86459926D01*
X117011745Y-86302106D01*
X117011744Y-86302103D01*
X117011744Y-86302102D01*
X116928081Y-86160635D01*
X116928079Y-86160633D01*
X116928076Y-86160629D01*
X116811870Y-86044423D01*
X116811862Y-86044417D01*
X116678528Y-85965564D01*
X116670398Y-85960756D01*
X116670397Y-85960755D01*
X116670396Y-85960755D01*
X116670393Y-85960754D01*
X116512573Y-85914902D01*
X116512567Y-85914901D01*
X116475701Y-85912000D01*
X116475694Y-85912000D01*
X116044306Y-85912000D01*
X116044298Y-85912000D01*
X116007432Y-85914901D01*
X116007426Y-85914902D01*
X115849606Y-85960754D01*
X115849603Y-85960755D01*
X115708137Y-86044417D01*
X115708129Y-86044423D01*
X115591923Y-86160629D01*
X115591917Y-86160637D01*
X115508255Y-86302103D01*
X115508254Y-86302106D01*
X115462354Y-86460095D01*
X115424748Y-86518981D01*
X115361275Y-86548187D01*
X115343278Y-86549500D01*
X114460097Y-86549500D01*
X114393058Y-86529815D01*
X114372416Y-86513181D01*
X113546416Y-85687181D01*
X113512931Y-85625858D01*
X113517915Y-85556166D01*
X113559787Y-85500233D01*
X113625251Y-85475816D01*
X113634097Y-85475500D01*
X118823331Y-85475500D01*
X118823347Y-85475501D01*
X118830943Y-85475501D01*
X118989054Y-85475501D01*
X118989057Y-85475501D01*
X119141785Y-85434577D01*
X119191904Y-85405639D01*
X119278716Y-85355520D01*
X119390520Y-85243716D01*
X119390520Y-85243714D01*
X119400728Y-85233507D01*
X119400730Y-85233504D01*
X119722416Y-84911818D01*
X119783739Y-84878333D01*
X119810097Y-84875499D01*
X120522502Y-84875499D01*
X120522508Y-84875499D01*
X120625297Y-84864999D01*
X120791834Y-84809814D01*
X120941156Y-84717712D01*
X121065212Y-84593656D01*
X121157314Y-84444334D01*
X121212499Y-84277797D01*
X121223000Y-84175009D01*
X121222999Y-83399992D01*
X121212499Y-83297203D01*
X121157314Y-83130666D01*
X121065212Y-82981344D01*
X120941156Y-82857288D01*
X120938319Y-82855538D01*
X120936783Y-82853830D01*
X120935489Y-82852807D01*
X120935663Y-82852585D01*
X120891596Y-82803594D01*
X120880372Y-82734632D01*
X120908213Y-82670549D01*
X120938317Y-82644462D01*
X120941156Y-82642712D01*
X121065212Y-82518656D01*
X121132599Y-82409402D01*
X121184547Y-82362679D01*
X121238138Y-82350500D01*
X122314192Y-82350500D01*
X122381231Y-82370185D01*
G37*
%TD.AperFunction*%
%TA.AperFunction,Conductor*%
G36*
X117206972Y-78637610D02*
G01*
X117251326Y-78666113D01*
X118223821Y-79638609D01*
X118257306Y-79699932D01*
X118259759Y-79736002D01*
X118259501Y-79739283D01*
X118259500Y-79739313D01*
X118259500Y-80170701D01*
X118262401Y-80207567D01*
X118262402Y-80207573D01*
X118308254Y-80365393D01*
X118308255Y-80365396D01*
X118391917Y-80506862D01*
X118391923Y-80506870D01*
X118508129Y-80623076D01*
X118508133Y-80623079D01*
X118508135Y-80623081D01*
X118649602Y-80706744D01*
X118650769Y-80707083D01*
X118807426Y-80752597D01*
X118807428Y-80752597D01*
X118807431Y-80752598D01*
X118812171Y-80752971D01*
X118877461Y-80777850D01*
X118918935Y-80834078D01*
X118923427Y-80903803D01*
X118907989Y-80941685D01*
X118837689Y-81055659D01*
X118837685Y-81055668D01*
X118820893Y-81106344D01*
X118782501Y-81222203D01*
X118782501Y-81222204D01*
X118782500Y-81222204D01*
X118772000Y-81324983D01*
X118772000Y-81490870D01*
X118752315Y-81557909D01*
X118699511Y-81603664D01*
X118630353Y-81613608D01*
X118572514Y-81589246D01*
X118455864Y-81499738D01*
X118455862Y-81499736D01*
X118455856Y-81499732D01*
X118455851Y-81499729D01*
X118455848Y-81499727D01*
X118244651Y-81377791D01*
X118244640Y-81377786D01*
X118019330Y-81284459D01*
X118019323Y-81284457D01*
X118019321Y-81284456D01*
X117783744Y-81221334D01*
X117743333Y-81216013D01*
X117541951Y-81189500D01*
X117541944Y-81189500D01*
X116778056Y-81189500D01*
X116778048Y-81189500D01*
X116547896Y-81219801D01*
X116536256Y-81221334D01*
X116377754Y-81263804D01*
X116300679Y-81284456D01*
X116300669Y-81284459D01*
X116075359Y-81377786D01*
X116075348Y-81377791D01*
X115860628Y-81501762D01*
X115860012Y-81500695D01*
X115798387Y-81519979D01*
X115731011Y-81501481D01*
X115684331Y-81449493D01*
X115677212Y-81428602D01*
X115677129Y-81428630D01*
X115659304Y-81374841D01*
X115619814Y-81255666D01*
X115527712Y-81106344D01*
X115403656Y-80982288D01*
X115397989Y-80977807D01*
X115399684Y-80975662D01*
X115361394Y-80933099D01*
X115350167Y-80864137D01*
X115378006Y-80800053D01*
X115436072Y-80761193D01*
X115473212Y-80755500D01*
X115675686Y-80755500D01*
X115675694Y-80755500D01*
X115712569Y-80752598D01*
X115712571Y-80752597D01*
X115712573Y-80752597D01*
X115780510Y-80732859D01*
X115870398Y-80706744D01*
X116011865Y-80623081D01*
X116128081Y-80506865D01*
X116211744Y-80365398D01*
X116257598Y-80207569D01*
X116260500Y-80170694D01*
X116260500Y-79739306D01*
X116257598Y-79702431D01*
X116211744Y-79544602D01*
X116128081Y-79403135D01*
X116128078Y-79403132D01*
X116123298Y-79396969D01*
X116125750Y-79395066D01*
X116099155Y-79346421D01*
X116104104Y-79276726D01*
X116124940Y-79244304D01*
X116123298Y-79243031D01*
X116128075Y-79236870D01*
X116128081Y-79236865D01*
X116211744Y-79095398D01*
X116251121Y-78959863D01*
X116259366Y-78931485D01*
X116260542Y-78931826D01*
X116288974Y-78875330D01*
X116349138Y-78839805D01*
X116393432Y-78836798D01*
X116559996Y-78855565D01*
X116560000Y-78855565D01*
X116560004Y-78855565D01*
X116739249Y-78835369D01*
X116739252Y-78835368D01*
X116739255Y-78835368D01*
X116909522Y-78775789D01*
X117062262Y-78679816D01*
X117075963Y-78666114D01*
X117137280Y-78632629D01*
X117206972Y-78637610D01*
G37*
%TD.AperFunction*%
%TA.AperFunction,Conductor*%
G36*
X122265996Y-71513379D02*
G01*
X122296486Y-71535721D01*
X124023181Y-73262416D01*
X124056666Y-73323739D01*
X124059500Y-73350097D01*
X124059500Y-74050001D01*
X124059501Y-74050019D01*
X124070000Y-74152796D01*
X124070001Y-74152799D01*
X124125185Y-74319331D01*
X124125187Y-74319336D01*
X124217289Y-74468657D01*
X124341346Y-74592714D01*
X124344182Y-74594463D01*
X124345717Y-74596170D01*
X124347011Y-74597193D01*
X124346836Y-74597414D01*
X124390905Y-74646411D01*
X124402126Y-74715374D01*
X124374282Y-74779456D01*
X124344182Y-74805537D01*
X124341346Y-74807285D01*
X124217289Y-74931342D01*
X124125187Y-75080663D01*
X124125185Y-75080668D01*
X124099228Y-75159001D01*
X124070001Y-75247203D01*
X124070001Y-75247204D01*
X124070000Y-75247204D01*
X124059500Y-75349983D01*
X124059500Y-76150001D01*
X124059501Y-76150019D01*
X124070000Y-76252796D01*
X124070001Y-76252799D01*
X124105757Y-76360701D01*
X124125186Y-76419334D01*
X124209110Y-76555398D01*
X124217289Y-76568657D01*
X124310951Y-76662319D01*
X124344436Y-76723642D01*
X124339452Y-76793334D01*
X124310951Y-76837681D01*
X124217289Y-76931342D01*
X124125187Y-77080663D01*
X124125185Y-77080668D01*
X124104169Y-77144091D01*
X124070001Y-77247203D01*
X124070001Y-77247204D01*
X124070000Y-77247204D01*
X124059500Y-77349983D01*
X124059500Y-78150001D01*
X124059501Y-78150019D01*
X124070000Y-78252796D01*
X124070001Y-78252799D01*
X124120008Y-78403708D01*
X124125186Y-78419334D01*
X124217288Y-78568656D01*
X124341344Y-78692712D01*
X124490666Y-78784814D01*
X124612005Y-78825021D01*
X124669449Y-78864794D01*
X124696272Y-78929309D01*
X124697000Y-78942727D01*
X124697000Y-79883277D01*
X124677315Y-79950316D01*
X124624511Y-79996071D01*
X124607596Y-80002353D01*
X124449604Y-80048254D01*
X124449603Y-80048255D01*
X124308137Y-80131917D01*
X124308129Y-80131923D01*
X124191923Y-80248129D01*
X124191917Y-80248137D01*
X124108255Y-80389603D01*
X124108254Y-80389606D01*
X124062402Y-80547426D01*
X124062401Y-80547432D01*
X124059500Y-80584298D01*
X124059500Y-80825500D01*
X124039815Y-80892539D01*
X123987011Y-80938294D01*
X123935500Y-80949500D01*
X122769298Y-80949500D01*
X122732432Y-80952401D01*
X122732426Y-80952402D01*
X122574606Y-80998254D01*
X122574603Y-80998255D01*
X122433137Y-81081917D01*
X122433129Y-81081923D01*
X122401874Y-81113180D01*
X122340552Y-81146666D01*
X122314192Y-81149500D01*
X121277949Y-81149500D01*
X121210910Y-81129815D01*
X121165155Y-81077011D01*
X121160244Y-81064507D01*
X121158767Y-81060053D01*
X121157314Y-81055666D01*
X121065212Y-80906344D01*
X120959588Y-80800720D01*
X120926103Y-80739397D01*
X120931087Y-80669705D01*
X120959588Y-80625357D01*
X120961862Y-80623082D01*
X120961865Y-80623081D01*
X121078081Y-80506865D01*
X121161744Y-80365398D01*
X121207598Y-80207569D01*
X121210500Y-80170694D01*
X121210500Y-79739306D01*
X121207598Y-79702431D01*
X121161744Y-79544602D01*
X121078081Y-79403135D01*
X121078078Y-79403132D01*
X121073298Y-79396969D01*
X121075750Y-79395066D01*
X121049155Y-79346421D01*
X121054104Y-79276726D01*
X121074940Y-79244304D01*
X121073298Y-79243031D01*
X121078076Y-79236869D01*
X121078081Y-79236865D01*
X121161744Y-79095398D01*
X121161747Y-79095384D01*
X121162189Y-79094367D01*
X121163459Y-79092496D01*
X121165716Y-79088682D01*
X121165955Y-79088823D01*
X121188321Y-79055913D01*
X121190519Y-79053716D01*
X121190519Y-79053714D01*
X121200720Y-79043515D01*
X121200727Y-79043505D01*
X121718506Y-78525727D01*
X121718511Y-78525723D01*
X121728714Y-78515519D01*
X121728716Y-78515519D01*
X121840520Y-78403715D01*
X121843903Y-78397855D01*
X121890998Y-78316285D01*
X121890998Y-78316284D01*
X121919577Y-78266784D01*
X121960500Y-78114057D01*
X121960500Y-77955942D01*
X121960500Y-71832412D01*
X121980185Y-71765373D01*
X121987555Y-71755097D01*
X121989810Y-71752267D01*
X121989816Y-71752262D01*
X122085789Y-71599522D01*
X122091762Y-71582449D01*
X122132482Y-71525674D01*
X122197434Y-71499924D01*
X122265996Y-71513379D01*
G37*
%TD.AperFunction*%
%TA.AperFunction,Conductor*%
G36*
X126112539Y-48820185D02*
G01*
X126158294Y-48872989D01*
X126169500Y-48924500D01*
X126169500Y-69062438D01*
X126149815Y-69129477D01*
X126097011Y-69175232D01*
X126027853Y-69185176D01*
X125964297Y-69156151D01*
X125940507Y-69128411D01*
X125889817Y-69047739D01*
X125762262Y-68920184D01*
X125609523Y-68824211D01*
X125439254Y-68764631D01*
X125439249Y-68764630D01*
X125260004Y-68744435D01*
X125259996Y-68744435D01*
X125080750Y-68764630D01*
X125080745Y-68764631D01*
X124910476Y-68824211D01*
X124757737Y-68920184D01*
X124630184Y-69047737D01*
X124534211Y-69200476D01*
X124474631Y-69370745D01*
X124474630Y-69370750D01*
X124454435Y-69549996D01*
X124454435Y-69550003D01*
X124474630Y-69729249D01*
X124474631Y-69729254D01*
X124534211Y-69899523D01*
X124596748Y-69999049D01*
X124630184Y-70052262D01*
X124757738Y-70179816D01*
X124901474Y-70270131D01*
X124947763Y-70322463D01*
X124959500Y-70375123D01*
X124959500Y-70425500D01*
X124939815Y-70492539D01*
X124887011Y-70538294D01*
X124835502Y-70549500D01*
X124759999Y-70549500D01*
X124759980Y-70549501D01*
X124657203Y-70560000D01*
X124657200Y-70560001D01*
X124490668Y-70615185D01*
X124490663Y-70615187D01*
X124341342Y-70707289D01*
X124217289Y-70831342D01*
X124125187Y-70980663D01*
X124125185Y-70980668D01*
X124109085Y-71029255D01*
X124070001Y-71147203D01*
X124070001Y-71147204D01*
X124070000Y-71147204D01*
X124059500Y-71249983D01*
X124059500Y-71300903D01*
X124039815Y-71367942D01*
X123987011Y-71413697D01*
X123917853Y-71423641D01*
X123854297Y-71394616D01*
X123847819Y-71388584D01*
X122996819Y-70537584D01*
X122963334Y-70476261D01*
X122960500Y-70449903D01*
X122960500Y-67266722D01*
X122980185Y-67199683D01*
X123032989Y-67153928D01*
X123049905Y-67147646D01*
X123119144Y-67127529D01*
X123207898Y-67101744D01*
X123349365Y-67018081D01*
X123465581Y-66901865D01*
X123549244Y-66760398D01*
X123595098Y-66602569D01*
X123598000Y-66565694D01*
X123598000Y-66134306D01*
X123595098Y-66097431D01*
X123549244Y-65939602D01*
X123465581Y-65798135D01*
X123465579Y-65798133D01*
X123465576Y-65798129D01*
X123349370Y-65681923D01*
X123349362Y-65681917D01*
X123207896Y-65598255D01*
X123207893Y-65598254D01*
X123050073Y-65552402D01*
X123050067Y-65552401D01*
X123013201Y-65549500D01*
X123013194Y-65549500D01*
X121706806Y-65549500D01*
X121706798Y-65549500D01*
X121669932Y-65552401D01*
X121669926Y-65552402D01*
X121512106Y-65598254D01*
X121512103Y-65598255D01*
X121453806Y-65632732D01*
X121390685Y-65650000D01*
X120735000Y-65650000D01*
X120735000Y-66200000D01*
X120998000Y-66200000D01*
X121065039Y-66219685D01*
X121110794Y-66272489D01*
X121122000Y-66324000D01*
X121122000Y-66375500D01*
X121102315Y-66442539D01*
X121049511Y-66488294D01*
X120998000Y-66499500D01*
X119831798Y-66499500D01*
X119794932Y-66502401D01*
X119794926Y-66502402D01*
X119637106Y-66548254D01*
X119637103Y-66548255D01*
X119495637Y-66631917D01*
X119495629Y-66631923D01*
X119379423Y-66748129D01*
X119379417Y-66748137D01*
X119295755Y-66889603D01*
X119295754Y-66889606D01*
X119249902Y-67047426D01*
X119249901Y-67047432D01*
X119247000Y-67084298D01*
X119247000Y-67515701D01*
X119249901Y-67552563D01*
X119249903Y-67552572D01*
X119259450Y-67585435D01*
X119259249Y-67655305D01*
X119228055Y-67707709D01*
X119091286Y-67844478D01*
X118979481Y-67956282D01*
X118979480Y-67956284D01*
X118944889Y-68016198D01*
X118928612Y-68044388D01*
X118900422Y-68093215D01*
X118897314Y-68100721D01*
X118894239Y-68099447D01*
X118865903Y-68145899D01*
X118821529Y-68171822D01*
X118690668Y-68215185D01*
X118690663Y-68215187D01*
X118541342Y-68307289D01*
X118491613Y-68357018D01*
X118430290Y-68390502D01*
X118360598Y-68385517D01*
X118316252Y-68357017D01*
X117321818Y-67362583D01*
X117288333Y-67301260D01*
X117285499Y-67274902D01*
X117285499Y-67200606D01*
X117285498Y-67200584D01*
X117282765Y-67165847D01*
X117282765Y-67165844D01*
X117239555Y-67017113D01*
X117171400Y-66901870D01*
X117160717Y-66883805D01*
X117160710Y-66883796D01*
X117051203Y-66774289D01*
X117051194Y-66774282D01*
X116970111Y-66726330D01*
X116917887Y-66695445D01*
X116769156Y-66652235D01*
X116769153Y-66652234D01*
X116769151Y-66652234D01*
X116738395Y-66649814D01*
X116734405Y-66649500D01*
X116734404Y-66649500D01*
X116385606Y-66649500D01*
X116385584Y-66649501D01*
X116350847Y-66652234D01*
X116350844Y-66652235D01*
X116202113Y-66695445D01*
X116202111Y-66695445D01*
X116202111Y-66695446D01*
X116068805Y-66774282D01*
X116068796Y-66774289D01*
X115959289Y-66883796D01*
X115959282Y-66883805D01*
X115880446Y-67017111D01*
X115880445Y-67017113D01*
X115871637Y-67047431D01*
X115837234Y-67165847D01*
X115837234Y-67165849D01*
X115834500Y-67200589D01*
X115834500Y-67274901D01*
X115814815Y-67341940D01*
X115798180Y-67362582D01*
X115000764Y-68160001D01*
X114747584Y-68413181D01*
X114686261Y-68446666D01*
X114659903Y-68449500D01*
X114140301Y-68449500D01*
X114073262Y-68429815D01*
X114027507Y-68377011D01*
X114022595Y-68364504D01*
X114020577Y-68358414D01*
X113994814Y-68280666D01*
X113902712Y-68131344D01*
X113778656Y-68007288D01*
X113629334Y-67915186D01*
X113462797Y-67860001D01*
X113462795Y-67860000D01*
X113360010Y-67849500D01*
X112559998Y-67849500D01*
X112559980Y-67849501D01*
X112457203Y-67860000D01*
X112457200Y-67860001D01*
X112290668Y-67915185D01*
X112290663Y-67915187D01*
X112141342Y-68007289D01*
X112047681Y-68100951D01*
X111986358Y-68134436D01*
X111916666Y-68129452D01*
X111872319Y-68100951D01*
X111778657Y-68007289D01*
X111778656Y-68007288D01*
X111629334Y-67915186D01*
X111462797Y-67860001D01*
X111462795Y-67860000D01*
X111360010Y-67849500D01*
X110559998Y-67849500D01*
X110559980Y-67849501D01*
X110457203Y-67860000D01*
X110457200Y-67860001D01*
X110290668Y-67915185D01*
X110290663Y-67915187D01*
X110141342Y-68007289D01*
X110017289Y-68131342D01*
X109925187Y-68280663D01*
X109925185Y-68280668D01*
X109901074Y-68353430D01*
X109870001Y-68447203D01*
X109870001Y-68447204D01*
X109870000Y-68447204D01*
X109859500Y-68549983D01*
X109859500Y-69550001D01*
X109859501Y-69550019D01*
X109870000Y-69652796D01*
X109870001Y-69652799D01*
X109925185Y-69819331D01*
X109925187Y-69819336D01*
X109937645Y-69839534D01*
X110017288Y-69968656D01*
X110141344Y-70092712D01*
X110290666Y-70184814D01*
X110340729Y-70201403D01*
X110398174Y-70241176D01*
X110424997Y-70305692D01*
X110412682Y-70374468D01*
X110406719Y-70385081D01*
X110334211Y-70500476D01*
X110274631Y-70670745D01*
X110274630Y-70670750D01*
X110254435Y-70849996D01*
X110254435Y-70850003D01*
X110274630Y-71029249D01*
X110274631Y-71029254D01*
X110334211Y-71199523D01*
X110369620Y-71255875D01*
X110430184Y-71352262D01*
X110557738Y-71479816D01*
X110710478Y-71575789D01*
X110840635Y-71621333D01*
X110880745Y-71635368D01*
X110880750Y-71635369D01*
X111059996Y-71655565D01*
X111060000Y-71655565D01*
X111060004Y-71655565D01*
X111239249Y-71635369D01*
X111239252Y-71635368D01*
X111239255Y-71635368D01*
X111409522Y-71575789D01*
X111562262Y-71479816D01*
X111689816Y-71352262D01*
X111785789Y-71199522D01*
X111845368Y-71029255D01*
X111845369Y-71029249D01*
X111865565Y-70850003D01*
X111865565Y-70849996D01*
X111845369Y-70670750D01*
X111845368Y-70670745D01*
X111827676Y-70620184D01*
X111785789Y-70500478D01*
X111779000Y-70489674D01*
X111707023Y-70375123D01*
X111689816Y-70347738D01*
X111676864Y-70334786D01*
X111643379Y-70273463D01*
X111648363Y-70203771D01*
X111690235Y-70147838D01*
X111699433Y-70141576D01*
X111778656Y-70092712D01*
X111872319Y-69999049D01*
X111933642Y-69965564D01*
X112003334Y-69970548D01*
X112047681Y-69999049D01*
X112141344Y-70092712D01*
X112290666Y-70184814D01*
X112457203Y-70239999D01*
X112559991Y-70250500D01*
X113360008Y-70250499D01*
X113360016Y-70250498D01*
X113360019Y-70250498D01*
X113416302Y-70244748D01*
X113462797Y-70239999D01*
X113629334Y-70184814D01*
X113778656Y-70092712D01*
X113902712Y-69968656D01*
X113994814Y-69819334D01*
X114022595Y-69735495D01*
X114062368Y-69678051D01*
X114126884Y-69651228D01*
X114140301Y-69650500D01*
X114873331Y-69650500D01*
X114873347Y-69650501D01*
X114880943Y-69650501D01*
X115039054Y-69650501D01*
X115039057Y-69650501D01*
X115191785Y-69609577D01*
X115241904Y-69580639D01*
X115328716Y-69530520D01*
X115440520Y-69418716D01*
X115440520Y-69418714D01*
X115450728Y-69408507D01*
X115450729Y-69408504D01*
X116472322Y-68386912D01*
X116533641Y-68353430D01*
X116603333Y-68358414D01*
X116647680Y-68386915D01*
X117875139Y-69614374D01*
X117875149Y-69614385D01*
X117879479Y-69618715D01*
X117879480Y-69618716D01*
X117991284Y-69730520D01*
X117991286Y-69730521D01*
X117991290Y-69730524D01*
X118029869Y-69752797D01*
X118128216Y-69809577D01*
X118239884Y-69839497D01*
X118299543Y-69875862D01*
X118321341Y-69913161D01*
X118322136Y-69912791D01*
X118325187Y-69919336D01*
X118417289Y-70068657D01*
X118510951Y-70162319D01*
X118544436Y-70223642D01*
X118539452Y-70293334D01*
X118510951Y-70337681D01*
X118417289Y-70431342D01*
X118325187Y-70580663D01*
X118325185Y-70580668D01*
X118313747Y-70615186D01*
X118270001Y-70747203D01*
X118270001Y-70747204D01*
X118270000Y-70747204D01*
X118259500Y-70849983D01*
X118259500Y-71598362D01*
X118239815Y-71665401D01*
X118187011Y-71711156D01*
X118117853Y-71721100D01*
X118088047Y-71712923D01*
X118019330Y-71684459D01*
X118019323Y-71684457D01*
X118019321Y-71684456D01*
X117783744Y-71621334D01*
X117743333Y-71616013D01*
X117541951Y-71589500D01*
X117541944Y-71589500D01*
X116778056Y-71589500D01*
X116778048Y-71589500D01*
X116547896Y-71619801D01*
X116536256Y-71621334D01*
X116408503Y-71655565D01*
X116300679Y-71684456D01*
X116300669Y-71684459D01*
X116075359Y-71777786D01*
X116075348Y-71777791D01*
X115870999Y-71895774D01*
X115803099Y-71912247D01*
X115737072Y-71889395D01*
X115693882Y-71834474D01*
X115684999Y-71788387D01*
X115684999Y-71525028D01*
X115684998Y-71525013D01*
X115674505Y-71422302D01*
X115619358Y-71255880D01*
X115619356Y-71255875D01*
X115527315Y-71106654D01*
X115403345Y-70982684D01*
X115254124Y-70890643D01*
X115254119Y-70890641D01*
X115087697Y-70835494D01*
X115087690Y-70835493D01*
X114984986Y-70825000D01*
X114710000Y-70825000D01*
X114710000Y-72038500D01*
X114690315Y-72105539D01*
X114637511Y-72151294D01*
X114586000Y-72162500D01*
X113235001Y-72162500D01*
X113235001Y-72299986D01*
X113245494Y-72402697D01*
X113300641Y-72569119D01*
X113300643Y-72569124D01*
X113392684Y-72718345D01*
X113516655Y-72842316D01*
X113516659Y-72842319D01*
X113519656Y-72844168D01*
X113521279Y-72845972D01*
X113522323Y-72846798D01*
X113522181Y-72846976D01*
X113566381Y-72896116D01*
X113577602Y-72965079D01*
X113549759Y-73029161D01*
X113519661Y-73055241D01*
X113516349Y-73057283D01*
X113516343Y-73057288D01*
X113392289Y-73181342D01*
X113300187Y-73330663D01*
X113300186Y-73330666D01*
X113245001Y-73497203D01*
X113245001Y-73497204D01*
X113245000Y-73497204D01*
X113234500Y-73599983D01*
X113234500Y-74375001D01*
X113234501Y-74375019D01*
X113245000Y-74477796D01*
X113245001Y-74477799D01*
X113266986Y-74544144D01*
X113300186Y-74644334D01*
X113383529Y-74779456D01*
X113392289Y-74793657D01*
X113516344Y-74917712D01*
X113613539Y-74977662D01*
X113660264Y-75029610D01*
X113671663Y-75097084D01*
X113654435Y-75249995D01*
X113654435Y-75250003D01*
X113663402Y-75329591D01*
X113651347Y-75398413D01*
X113603998Y-75449792D01*
X113603304Y-75450206D01*
X113558135Y-75476919D01*
X113558129Y-75476923D01*
X113441923Y-75593129D01*
X113441917Y-75593137D01*
X113358255Y-75734603D01*
X113343366Y-75785850D01*
X113305759Y-75844735D01*
X113242286Y-75873940D01*
X113173099Y-75864193D01*
X113120165Y-75818588D01*
X113117582Y-75814414D01*
X113083215Y-75756302D01*
X113083212Y-75756299D01*
X113083210Y-75756296D01*
X112973703Y-75646789D01*
X112973694Y-75646782D01*
X112882971Y-75593129D01*
X112840387Y-75567945D01*
X112691656Y-75524735D01*
X112691653Y-75524734D01*
X112691651Y-75524734D01*
X112660895Y-75522314D01*
X112656905Y-75522000D01*
X112656904Y-75522000D01*
X112308106Y-75522000D01*
X112308084Y-75522001D01*
X112273347Y-75524734D01*
X112273344Y-75524735D01*
X112124613Y-75567945D01*
X112124611Y-75567945D01*
X112124611Y-75567946D01*
X111991305Y-75646782D01*
X111991296Y-75646789D01*
X111952407Y-75685680D01*
X111891084Y-75719166D01*
X111864725Y-75722000D01*
X111674170Y-75722000D01*
X111674154Y-75721999D01*
X111666558Y-75721999D01*
X111508443Y-75721999D01*
X111406625Y-75749281D01*
X111355715Y-75762923D01*
X111246498Y-75825979D01*
X111178598Y-75842450D01*
X111112571Y-75819598D01*
X111069381Y-75764676D01*
X111060499Y-75718591D01*
X111060499Y-74802129D01*
X111060498Y-74802123D01*
X111060446Y-74801640D01*
X111054091Y-74742517D01*
X111047703Y-74725391D01*
X111003797Y-74607671D01*
X111003793Y-74607664D01*
X110917547Y-74492455D01*
X110917544Y-74492452D01*
X110802335Y-74406206D01*
X110802328Y-74406202D01*
X110667482Y-74355908D01*
X110667483Y-74355908D01*
X110607883Y-74349501D01*
X110607881Y-74349500D01*
X110607873Y-74349500D01*
X110607864Y-74349500D01*
X108712129Y-74349500D01*
X108712123Y-74349501D01*
X108652516Y-74355908D01*
X108517671Y-74406202D01*
X108517664Y-74406206D01*
X108402455Y-74492452D01*
X108373766Y-74530776D01*
X108317832Y-74572646D01*
X108248140Y-74577630D01*
X108186818Y-74544144D01*
X108153333Y-74482820D01*
X108150500Y-74456464D01*
X108150500Y-71662500D01*
X113235000Y-71662500D01*
X114210000Y-71662500D01*
X114210000Y-70825000D01*
X113935029Y-70825000D01*
X113935012Y-70825001D01*
X113832302Y-70835494D01*
X113665880Y-70890641D01*
X113665875Y-70890643D01*
X113516654Y-70982684D01*
X113392684Y-71106654D01*
X113300643Y-71255875D01*
X113300641Y-71255880D01*
X113245494Y-71422302D01*
X113245493Y-71422309D01*
X113235000Y-71525013D01*
X113235000Y-71662500D01*
X108150500Y-71662500D01*
X108150500Y-64850003D01*
X111154435Y-64850003D01*
X111174630Y-65029249D01*
X111174631Y-65029254D01*
X111234211Y-65199523D01*
X111330184Y-65352262D01*
X111457738Y-65479816D01*
X111610478Y-65575789D01*
X111677849Y-65599363D01*
X111780745Y-65635368D01*
X111780750Y-65635369D01*
X111959996Y-65655565D01*
X111960000Y-65655565D01*
X111960004Y-65655565D01*
X112139249Y-65635369D01*
X112139252Y-65635368D01*
X112139255Y-65635368D01*
X112309522Y-65575789D01*
X112310778Y-65575000D01*
X115835001Y-65575000D01*
X115835001Y-65599363D01*
X115837733Y-65634078D01*
X115880906Y-65782681D01*
X115880907Y-65782684D01*
X115959682Y-65915885D01*
X115959688Y-65915894D01*
X116069105Y-66025311D01*
X116069114Y-66025317D01*
X116202315Y-66104092D01*
X116202318Y-66104093D01*
X116334998Y-66142641D01*
X116335000Y-66142640D01*
X116335000Y-65575000D01*
X116785000Y-65575000D01*
X116785000Y-66142640D01*
X116785001Y-66142641D01*
X116917681Y-66104093D01*
X116917684Y-66104092D01*
X117050885Y-66025317D01*
X117050894Y-66025311D01*
X117160311Y-65915894D01*
X117160317Y-65915885D01*
X117239092Y-65782684D01*
X117239093Y-65782681D01*
X117277641Y-65650001D01*
X119250204Y-65650001D01*
X119250399Y-65652486D01*
X119296218Y-65810198D01*
X119379814Y-65951552D01*
X119379821Y-65951561D01*
X119495938Y-66067678D01*
X119495947Y-66067685D01*
X119637303Y-66151282D01*
X119637306Y-66151283D01*
X119795004Y-66197099D01*
X119795010Y-66197100D01*
X119831850Y-66199999D01*
X119831866Y-66200000D01*
X120235000Y-66200000D01*
X120235000Y-65650000D01*
X119250205Y-65650000D01*
X119250204Y-65650001D01*
X117277641Y-65650001D01*
X117282265Y-65634084D01*
X117282267Y-65634073D01*
X117284999Y-65599359D01*
X117285000Y-65599346D01*
X117285000Y-65575000D01*
X116785000Y-65575000D01*
X116335000Y-65575000D01*
X115835001Y-65575000D01*
X112310778Y-65575000D01*
X112462262Y-65479816D01*
X112589816Y-65352262D01*
X112685789Y-65199522D01*
X112703118Y-65149998D01*
X119250204Y-65149998D01*
X119250205Y-65150000D01*
X120235000Y-65150000D01*
X120235000Y-64600000D01*
X120735000Y-64600000D01*
X120735000Y-65150000D01*
X121719795Y-65150000D01*
X121719795Y-65149998D01*
X121719600Y-65147513D01*
X121673781Y-64989801D01*
X121590185Y-64848447D01*
X121590178Y-64848438D01*
X121474061Y-64732321D01*
X121474052Y-64732314D01*
X121332696Y-64648717D01*
X121332693Y-64648716D01*
X121174995Y-64602900D01*
X121174989Y-64602899D01*
X121138149Y-64600000D01*
X120735000Y-64600000D01*
X120235000Y-64600000D01*
X119831850Y-64600000D01*
X119795010Y-64602899D01*
X119795004Y-64602900D01*
X119637306Y-64648716D01*
X119637303Y-64648717D01*
X119495947Y-64732314D01*
X119495938Y-64732321D01*
X119379821Y-64848438D01*
X119379814Y-64848447D01*
X119296218Y-64989801D01*
X119250399Y-65147513D01*
X119250204Y-65149998D01*
X112703118Y-65149998D01*
X112745368Y-65029255D01*
X112748752Y-64999225D01*
X112765565Y-64850003D01*
X112765565Y-64849996D01*
X112745369Y-64670750D01*
X112745368Y-64670745D01*
X112720707Y-64600268D01*
X112685789Y-64500478D01*
X112589816Y-64347738D01*
X112569319Y-64327241D01*
X112535834Y-64265918D01*
X112533000Y-64239560D01*
X112533000Y-63477984D01*
X112550268Y-63414863D01*
X112550935Y-63413735D01*
X112612055Y-63310387D01*
X112652274Y-63171951D01*
X115039500Y-63171951D01*
X115066013Y-63373333D01*
X115071334Y-63413744D01*
X115079418Y-63443913D01*
X115134456Y-63649320D01*
X115134459Y-63649330D01*
X115227786Y-63874640D01*
X115227791Y-63874651D01*
X115349727Y-64085848D01*
X115349738Y-64085864D01*
X115498199Y-64279343D01*
X115498205Y-64279350D01*
X115670649Y-64451794D01*
X115670655Y-64451799D01*
X115864144Y-64600268D01*
X115864148Y-64600270D01*
X115864156Y-64600276D01*
X115907897Y-64625529D01*
X115956113Y-64676095D01*
X115969337Y-64744702D01*
X115952630Y-64796036D01*
X115880909Y-64917311D01*
X115880906Y-64917318D01*
X115837734Y-65065915D01*
X115837732Y-65065926D01*
X115835000Y-65100640D01*
X115835000Y-65125000D01*
X117284999Y-65125000D01*
X117284999Y-65100658D01*
X117284998Y-65100636D01*
X117282266Y-65065921D01*
X117281129Y-65059691D01*
X117283216Y-65059309D01*
X117283388Y-64999225D01*
X117321331Y-64940555D01*
X117384969Y-64911712D01*
X117402265Y-64910500D01*
X117541937Y-64910500D01*
X117541944Y-64910500D01*
X117783744Y-64878666D01*
X118019321Y-64815544D01*
X118244644Y-64722212D01*
X118455856Y-64600268D01*
X118649345Y-64451799D01*
X118821799Y-64279345D01*
X118970268Y-64085856D01*
X119092212Y-63874644D01*
X119185544Y-63649321D01*
X119248666Y-63413744D01*
X119280500Y-63171944D01*
X119280500Y-62928056D01*
X119248666Y-62686256D01*
X119185544Y-62450679D01*
X119183031Y-62444613D01*
X119127812Y-62311302D01*
X119092212Y-62225356D01*
X119092210Y-62225353D01*
X119092208Y-62225348D01*
X118970272Y-62014151D01*
X118970268Y-62014144D01*
X118821799Y-61820655D01*
X118821794Y-61820649D01*
X118649350Y-61648205D01*
X118649343Y-61648199D01*
X118455864Y-61499738D01*
X118455862Y-61499736D01*
X118455856Y-61499732D01*
X118455851Y-61499729D01*
X118455848Y-61499727D01*
X118244651Y-61377791D01*
X118244640Y-61377786D01*
X118019330Y-61284459D01*
X118019323Y-61284457D01*
X118019321Y-61284456D01*
X117783744Y-61221334D01*
X117743333Y-61216013D01*
X117541951Y-61189500D01*
X117541944Y-61189500D01*
X116778056Y-61189500D01*
X116778048Y-61189500D01*
X116547896Y-61219801D01*
X116536256Y-61221334D01*
X116377754Y-61263804D01*
X116300679Y-61284456D01*
X116300669Y-61284459D01*
X116075359Y-61377786D01*
X116075348Y-61377791D01*
X115864151Y-61499727D01*
X115864135Y-61499738D01*
X115670656Y-61648199D01*
X115670649Y-61648205D01*
X115498205Y-61820649D01*
X115498199Y-61820656D01*
X115349738Y-62014135D01*
X115349727Y-62014151D01*
X115227791Y-62225348D01*
X115227786Y-62225359D01*
X115134459Y-62450669D01*
X115134456Y-62450679D01*
X115096230Y-62593344D01*
X115071335Y-62686253D01*
X115071333Y-62686264D01*
X115039500Y-62928048D01*
X115039500Y-63171951D01*
X112652274Y-63171951D01*
X112655265Y-63161656D01*
X112658000Y-63126905D01*
X112657999Y-62628096D01*
X112655265Y-62593344D01*
X112612055Y-62444613D01*
X112533215Y-62311302D01*
X112533213Y-62311300D01*
X112533210Y-62311296D01*
X112423703Y-62201789D01*
X112423694Y-62201782D01*
X112336980Y-62150500D01*
X112290387Y-62122945D01*
X112141656Y-62079735D01*
X112141653Y-62079734D01*
X112141651Y-62079734D01*
X112110895Y-62077314D01*
X112106905Y-62077000D01*
X112106904Y-62077000D01*
X111758106Y-62077000D01*
X111758084Y-62077001D01*
X111723347Y-62079734D01*
X111723344Y-62079735D01*
X111574613Y-62122945D01*
X111574611Y-62122945D01*
X111574611Y-62122946D01*
X111441305Y-62201782D01*
X111441296Y-62201789D01*
X111331789Y-62311296D01*
X111331782Y-62311305D01*
X111252946Y-62444611D01*
X111209734Y-62593347D01*
X111209734Y-62593349D01*
X111207000Y-62628089D01*
X111207000Y-63126893D01*
X111207001Y-63126915D01*
X111209734Y-63161652D01*
X111209734Y-63161655D01*
X111209735Y-63161656D01*
X111252945Y-63310387D01*
X111252946Y-63310388D01*
X111314732Y-63414863D01*
X111332000Y-63477984D01*
X111332000Y-64309123D01*
X111312994Y-64375095D01*
X111234211Y-64500476D01*
X111174631Y-64670745D01*
X111174630Y-64670750D01*
X111154435Y-64849996D01*
X111154435Y-64850003D01*
X108150500Y-64850003D01*
X108150500Y-61386542D01*
X108170185Y-61319503D01*
X108222989Y-61273748D01*
X108292147Y-61263804D01*
X108355703Y-61292829D01*
X108388056Y-61336732D01*
X108424075Y-61418848D01*
X108551016Y-61613147D01*
X108551018Y-61613149D01*
X108551021Y-61613153D01*
X108708216Y-61783913D01*
X108708219Y-61783915D01*
X108708222Y-61783918D01*
X108891365Y-61926464D01*
X108891371Y-61926468D01*
X108891374Y-61926470D01*
X109095497Y-62036936D01*
X109209487Y-62076068D01*
X109315015Y-62112297D01*
X109315017Y-62112297D01*
X109315019Y-62112298D01*
X109543951Y-62150500D01*
X109543952Y-62150500D01*
X109776048Y-62150500D01*
X109776049Y-62150500D01*
X110004981Y-62112298D01*
X110224503Y-62036936D01*
X110428626Y-61926470D01*
X110611784Y-61783913D01*
X110768979Y-61613153D01*
X110885909Y-61434177D01*
X110939056Y-61388822D01*
X110989718Y-61378000D01*
X111314725Y-61378000D01*
X111381764Y-61397685D01*
X111402407Y-61414320D01*
X111441296Y-61453210D01*
X111441300Y-61453213D01*
X111441302Y-61453215D01*
X111574613Y-61532055D01*
X111723344Y-61575265D01*
X111758095Y-61578000D01*
X112106904Y-61577999D01*
X112141656Y-61575265D01*
X112290387Y-61532055D01*
X112423698Y-61453215D01*
X112533215Y-61343698D01*
X112612055Y-61210387D01*
X112655265Y-61061656D01*
X112658000Y-61026905D01*
X112657999Y-60528096D01*
X112655265Y-60493344D01*
X112612055Y-60344613D01*
X112548675Y-60237443D01*
X112533217Y-60211305D01*
X112533210Y-60211296D01*
X112423703Y-60101789D01*
X112423694Y-60101782D01*
X112342611Y-60053830D01*
X112290387Y-60022945D01*
X112141656Y-59979735D01*
X112141653Y-59979734D01*
X112141651Y-59979734D01*
X112110895Y-59977314D01*
X112106905Y-59977000D01*
X112106904Y-59977000D01*
X111758106Y-59977000D01*
X111758084Y-59977001D01*
X111723347Y-59979734D01*
X111723344Y-59979735D01*
X111574613Y-60022945D01*
X111574611Y-60022945D01*
X111574611Y-60022946D01*
X111441305Y-60101782D01*
X111441296Y-60101789D01*
X111402407Y-60140680D01*
X111341084Y-60174166D01*
X111314725Y-60177000D01*
X111018981Y-60177000D01*
X110951942Y-60157315D01*
X110906187Y-60104511D01*
X110905425Y-60102811D01*
X110895923Y-60081149D01*
X110768983Y-59886852D01*
X110768980Y-59886849D01*
X110768979Y-59886847D01*
X110611784Y-59716087D01*
X110459876Y-59597852D01*
X110419064Y-59541143D01*
X110415389Y-59471370D01*
X110450020Y-59410687D01*
X110459876Y-59402147D01*
X110611784Y-59283913D01*
X110768979Y-59113153D01*
X110895924Y-58918849D01*
X110989157Y-58706300D01*
X111046134Y-58481305D01*
X111065300Y-58250000D01*
X111065300Y-58249993D01*
X111046135Y-58018702D01*
X111046133Y-58018691D01*
X110989157Y-57793699D01*
X110895924Y-57581151D01*
X110768981Y-57386849D01*
X110701608Y-57313662D01*
X110670686Y-57251008D01*
X110678547Y-57181582D01*
X110722694Y-57127426D01*
X110749499Y-57113500D01*
X110802331Y-57093796D01*
X110917546Y-57007546D01*
X110998764Y-56899052D01*
X111054696Y-56857183D01*
X111124388Y-56852199D01*
X111163122Y-56867825D01*
X111190666Y-56884814D01*
X111357203Y-56939999D01*
X111459991Y-56950500D01*
X112260008Y-56950499D01*
X112260016Y-56950498D01*
X112260019Y-56950498D01*
X112316302Y-56944748D01*
X112362797Y-56939999D01*
X112529334Y-56884814D01*
X112678656Y-56792712D01*
X112772319Y-56699049D01*
X112833642Y-56665564D01*
X112903334Y-56670548D01*
X112947681Y-56699049D01*
X113041344Y-56792712D01*
X113190666Y-56884814D01*
X113357203Y-56939999D01*
X113459991Y-56950500D01*
X114260008Y-56950499D01*
X114260016Y-56950498D01*
X114260019Y-56950498D01*
X114316302Y-56944748D01*
X114362797Y-56939999D01*
X114529334Y-56884814D01*
X114678656Y-56792712D01*
X114802712Y-56668656D01*
X114845022Y-56600060D01*
X114896968Y-56553336D01*
X114965931Y-56542113D01*
X115030013Y-56569956D01*
X115038241Y-56577476D01*
X115646336Y-57185571D01*
X115675697Y-57232298D01*
X115734210Y-57399521D01*
X115830184Y-57552262D01*
X115957738Y-57679816D01*
X116110478Y-57775789D01*
X116161662Y-57793699D01*
X116280745Y-57835368D01*
X116280750Y-57835369D01*
X116459996Y-57855565D01*
X116460000Y-57855565D01*
X116460004Y-57855565D01*
X116639249Y-57835369D01*
X116639252Y-57835368D01*
X116639255Y-57835368D01*
X116809522Y-57775789D01*
X116962262Y-57679816D01*
X117089816Y-57552262D01*
X117185789Y-57399522D01*
X117245368Y-57229255D01*
X117250290Y-57185571D01*
X117265565Y-57050003D01*
X117265565Y-57049996D01*
X117245369Y-56870750D01*
X117245368Y-56870745D01*
X117185788Y-56700476D01*
X117122693Y-56600061D01*
X117089816Y-56547738D01*
X116962262Y-56420184D01*
X116809523Y-56324211D01*
X116639254Y-56264631D01*
X116639249Y-56264630D01*
X116460004Y-56244435D01*
X116455032Y-56244435D01*
X116387993Y-56224750D01*
X116367351Y-56208116D01*
X115547590Y-55388355D01*
X115547588Y-55388352D01*
X115428717Y-55269481D01*
X115428716Y-55269480D01*
X115335295Y-55215544D01*
X115335294Y-55215543D01*
X115291783Y-55190422D01*
X115235881Y-55175443D01*
X115139057Y-55149499D01*
X115040301Y-55149499D01*
X114973262Y-55129814D01*
X114927507Y-55077010D01*
X114922595Y-55064504D01*
X114894814Y-54980666D01*
X114802712Y-54831344D01*
X114678656Y-54707288D01*
X114585888Y-54650069D01*
X114529336Y-54615187D01*
X114529331Y-54615185D01*
X114506649Y-54607669D01*
X114362797Y-54560001D01*
X114362795Y-54560000D01*
X114260010Y-54549500D01*
X113459998Y-54549500D01*
X113459980Y-54549501D01*
X113357203Y-54560000D01*
X113357200Y-54560001D01*
X113190668Y-54615185D01*
X113190663Y-54615187D01*
X113041342Y-54707289D01*
X112947681Y-54800951D01*
X112886358Y-54834436D01*
X112816666Y-54829452D01*
X112772319Y-54800951D01*
X112678657Y-54707289D01*
X112678656Y-54707288D01*
X112585888Y-54650069D01*
X112529336Y-54615187D01*
X112529331Y-54615185D01*
X112506649Y-54607669D01*
X112362797Y-54560001D01*
X112362795Y-54560000D01*
X112260010Y-54549500D01*
X111459998Y-54549500D01*
X111459980Y-54549501D01*
X111357203Y-54560000D01*
X111357200Y-54560001D01*
X111190668Y-54615185D01*
X111190659Y-54615189D01*
X111163125Y-54632173D01*
X111095733Y-54650613D01*
X111029069Y-54629690D01*
X110998762Y-54600945D01*
X110917546Y-54492454D01*
X110869470Y-54456464D01*
X110802335Y-54406206D01*
X110802328Y-54406202D01*
X110667482Y-54355908D01*
X110667483Y-54355908D01*
X110607883Y-54349501D01*
X110607881Y-54349500D01*
X110607873Y-54349500D01*
X110607864Y-54349500D01*
X108712129Y-54349500D01*
X108712123Y-54349501D01*
X108652516Y-54355908D01*
X108517671Y-54406202D01*
X108517664Y-54406206D01*
X108402455Y-54492452D01*
X108373766Y-54530776D01*
X108317832Y-54572646D01*
X108248140Y-54577630D01*
X108186818Y-54544144D01*
X108153333Y-54482820D01*
X108150500Y-54456464D01*
X108150500Y-53571951D01*
X115039500Y-53571951D01*
X115066013Y-53773333D01*
X115071334Y-53813744D01*
X115071335Y-53813746D01*
X115134456Y-54049320D01*
X115134459Y-54049330D01*
X115227786Y-54274640D01*
X115227791Y-54274651D01*
X115349727Y-54485848D01*
X115349738Y-54485864D01*
X115498199Y-54679343D01*
X115498205Y-54679350D01*
X115670649Y-54851794D01*
X115670655Y-54851799D01*
X115864144Y-55000268D01*
X115864151Y-55000272D01*
X116075348Y-55122208D01*
X116075353Y-55122210D01*
X116075356Y-55122212D01*
X116300679Y-55215544D01*
X116536256Y-55278666D01*
X116778056Y-55310500D01*
X116778063Y-55310500D01*
X117541937Y-55310500D01*
X117541944Y-55310500D01*
X117783744Y-55278666D01*
X118019321Y-55215544D01*
X118244644Y-55122212D01*
X118455856Y-55000268D01*
X118649345Y-54851799D01*
X118821799Y-54679345D01*
X118970268Y-54485856D01*
X119092212Y-54274644D01*
X119185544Y-54049321D01*
X119248666Y-53813744D01*
X119280500Y-53571944D01*
X119280500Y-53328056D01*
X119248666Y-53086256D01*
X119185544Y-52850679D01*
X119092212Y-52625356D01*
X119092210Y-52625353D01*
X119092208Y-52625348D01*
X118970272Y-52414151D01*
X118970268Y-52414144D01*
X118821799Y-52220655D01*
X118821794Y-52220649D01*
X118649350Y-52048205D01*
X118649343Y-52048199D01*
X118455864Y-51899738D01*
X118455862Y-51899736D01*
X118455856Y-51899732D01*
X118455851Y-51899729D01*
X118455848Y-51899727D01*
X118244651Y-51777791D01*
X118244640Y-51777786D01*
X118019330Y-51684459D01*
X118019323Y-51684457D01*
X118019321Y-51684456D01*
X117783744Y-51621334D01*
X117743333Y-51616013D01*
X117541951Y-51589500D01*
X117541944Y-51589500D01*
X116778056Y-51589500D01*
X116778048Y-51589500D01*
X116547896Y-51619801D01*
X116536256Y-51621334D01*
X116300679Y-51684456D01*
X116300669Y-51684459D01*
X116075359Y-51777786D01*
X116075348Y-51777791D01*
X115864151Y-51899727D01*
X115864135Y-51899738D01*
X115670656Y-52048199D01*
X115670649Y-52048205D01*
X115498205Y-52220649D01*
X115498199Y-52220656D01*
X115349738Y-52414135D01*
X115349727Y-52414151D01*
X115227791Y-52625348D01*
X115227786Y-52625359D01*
X115134459Y-52850669D01*
X115134456Y-52850679D01*
X115071335Y-53086253D01*
X115071333Y-53086264D01*
X115039500Y-53328048D01*
X115039500Y-53571951D01*
X108150500Y-53571951D01*
X108150500Y-48924500D01*
X108170185Y-48857461D01*
X108222989Y-48811706D01*
X108274500Y-48800500D01*
X126045500Y-48800500D01*
X126112539Y-48820185D01*
G37*
%TD.AperFunction*%
%TA.AperFunction,Conductor*%
G36*
X120714953Y-71994373D02*
G01*
X120753810Y-72052442D01*
X120759500Y-72089574D01*
X120759500Y-75221392D01*
X120739815Y-75288431D01*
X120687011Y-75334186D01*
X120628099Y-75344601D01*
X120628080Y-75345096D01*
X120625806Y-75345006D01*
X120625783Y-75345011D01*
X120625651Y-75345000D01*
X120056085Y-75345000D01*
X119989046Y-75325315D01*
X119943291Y-75272511D01*
X119933347Y-75203353D01*
X119948697Y-75159001D01*
X119984444Y-75097085D01*
X119996906Y-75075500D01*
X119999652Y-75070745D01*
X120019574Y-75036238D01*
X120019573Y-75036238D01*
X120019577Y-75036233D01*
X120060500Y-74883505D01*
X120060500Y-74725391D01*
X120060500Y-72430300D01*
X120080185Y-72363261D01*
X120132989Y-72317506D01*
X120145482Y-72312599D01*
X120229334Y-72284814D01*
X120378656Y-72192712D01*
X120502712Y-72068656D01*
X120529961Y-72024477D01*
X120581909Y-71977753D01*
X120650871Y-71966530D01*
X120714953Y-71994373D01*
G37*
%TD.AperFunction*%
%TD*%
M02*
