M48
; DRILL file {KiCad 8.0.0} date 2024-07-20T14:52:07+0200
; FORMAT={-:-/ absolute / metric / decimal}
; #@! TF.CreationDate,2024-07-20T14:52:07+02:00
; #@! TF.GenerationSoftware,Kicad,Pcbnew,8.0.0
; #@! TF.FileFunction,Plated,1,2,PTH
FMAT,2
METRIC
; #@! TA.AperFunction,Plated,PTH,ViaDrill
T1C0.330
; #@! TA.AperFunction,Plated,PTH,ComponentDrill
T2C0.700
; #@! TA.AperFunction,Plated,PTH,ComponentDrill
T3C0.813
; #@! TA.AperFunction,Plated,PTH,ComponentDrill
T4C0.900
; #@! TA.AperFunction,Plated,PTH,ComponentDrill
T5C1.016
; #@! TA.AperFunction,Plated,PTH,ComponentDrill
T6C1.100
; #@! TA.AperFunction,Plated,PTH,ComponentDrill
T7C2.100
%
G90
G05
T1
X125.08Y-58.927
X125.537Y-59.842
X126.909Y-73.215
X127.366Y-51.955
X127.594Y-118.706
X127.709Y-106.59
X127.937Y-100.418
X129.538Y-70.586
X130.338Y-86.931
X130.795Y-96.646
X131.481Y-123.164
X132.166Y-95.96
X132.967Y-100.418
X133.424Y-102.018
X133.652Y-110.134
X137.424Y-67.614
X138.796Y-117.792
X139.939Y-58.927
X140.282Y-66.814
X140.739Y-58.127
X140.739Y-74.586
X140.739Y-94.703
X141.653Y-72.758
X141.653Y-75.844
X141.768Y-59.156
X142.453Y-71.843
X144.054Y-97.446
X144.854Y-66.014
X145.082Y-113.677
X145.882Y-111.848
X146.454Y-63.385
X146.454Y-64.414
X146.454Y-65.442
X147.14Y-61.67
X147.14Y-75.729
X147.483Y-68.528
X147.483Y-70.129
X148.511Y-56.756
X148.511Y-117.106
X148.854Y-89.788
X150.797Y-60.985
X151.255Y-81.102
X151.94Y-74.243
X152.055Y-59.727
X152.74Y-64.299
X152.74Y-66.242
X153.998Y-77.33
X154.112Y-78.358
X154.226Y-62.585
X154.798Y-60.299
X154.912Y-84.759
X154.912Y-90.36
X155.484Y-88.531
X155.484Y-89.56
X157.198Y-69.671
X157.427Y-119.506
X157.655Y-87.731
X158.57Y-68.414
X163.37Y-101.218
X163.599Y-62.699
X163.599Y-81.216
X165.199Y-74.929
X167.6Y-74.586
X168.4Y-67.271
X168.4Y-71.957
T2
X145.781Y-76.105
X145.781Y-78.305
X145.781Y-80.505
X145.781Y-82.705
X146.881Y-77.205
X146.881Y-79.405
X146.881Y-81.605
X146.881Y-83.805
T3
X148.501Y-58.857
X148.501Y-61.397
T4
X150.051Y-76.155
X150.051Y-84.755
T5
X126.421Y-54.664
X126.421Y-57.204
X128.5Y-97.775
X128.5Y-102.296
X128.961Y-54.664
X128.961Y-57.204
X129.231Y-105.854
X129.231Y-108.394
X129.231Y-110.934
X129.231Y-113.474
X129.231Y-116.014
X131.501Y-54.664
X131.501Y-57.204
X131.771Y-105.854
X131.771Y-108.394
X131.771Y-110.934
X131.771Y-113.474
X131.771Y-116.014
X134.041Y-54.664
X134.041Y-57.204
X135.002Y-97.775
X135.002Y-102.296
X136.581Y-54.664
X136.581Y-57.204
X152.421Y-54.664
X152.421Y-57.204
X154.961Y-54.664
X154.961Y-57.204
X157.231Y-105.854
X157.231Y-108.394
X157.231Y-110.934
X157.231Y-113.474
X157.231Y-116.014
X157.501Y-54.664
X157.501Y-57.204
X159.771Y-105.854
X159.771Y-108.394
X159.771Y-110.934
X159.771Y-113.474
X159.771Y-116.014
X160.041Y-54.664
X160.041Y-57.204
X162.581Y-54.664
X162.581Y-57.204
X167.754Y-106.684
X167.754Y-111.764
X167.754Y-116.844
X168.008Y-109.224
X168.008Y-114.304
X170.294Y-106.684
X170.294Y-111.764
X170.294Y-116.844
X170.548Y-109.224
X170.548Y-114.304
X171.051Y-51.314
X171.051Y-53.854
X171.051Y-56.394
X171.051Y-58.934
X171.051Y-61.474
X171.051Y-64.014
X171.051Y-66.554
X171.051Y-69.094
X171.051Y-71.634
X171.051Y-74.174
X171.051Y-76.714
X171.051Y-79.254
T6
X130.251Y-120.316
X130.251Y-128.815
X130.251Y-131.815
X130.251Y-134.065
X130.251Y-142.565
X130.251Y-145.565
X130.251Y-147.654
X130.251Y-156.154
X130.251Y-159.154
X131.751Y-70.756
X131.751Y-89.865
X134.251Y-70.756
X134.251Y-89.865
X136.751Y-70.756
X136.751Y-89.865
X142.418Y-120.316
X142.418Y-128.815
X142.418Y-131.815
X142.418Y-134.065
X142.418Y-142.565
X142.418Y-145.565
X142.418Y-147.654
X142.418Y-156.154
X142.418Y-159.154
X148.501Y-100.246
X148.501Y-102.786
X148.501Y-105.326
X154.584Y-120.316
X154.584Y-128.815
X154.584Y-131.815
X154.584Y-134.065
X154.584Y-142.565
X154.584Y-145.565
X154.584Y-147.654
X154.584Y-156.154
X154.584Y-159.154
X158.751Y-100.036
X160.251Y-70.756
X160.251Y-89.865
X161.751Y-100.036
X162.751Y-70.756
X162.751Y-89.865
X165.251Y-70.756
X165.251Y-89.865
X166.751Y-120.316
X166.751Y-128.815
X166.751Y-131.815
X166.751Y-134.065
X166.751Y-142.565
X166.751Y-145.565
X166.751Y-147.654
X166.751Y-156.154
X166.751Y-159.154
X170.251Y-100.036
T7
X129.751Y-63.756
X129.751Y-82.865
X138.751Y-63.756
X138.751Y-82.865
X158.251Y-63.756
X158.251Y-82.865
X167.251Y-63.756
X167.251Y-82.865
M30
