%TF.GenerationSoftware,KiCad,Pcbnew,8.0.6-8.0.6-0~ubuntu22.04.1*%
%TF.CreationDate,2024-12-05T17:52:13+01:00*%
%TF.ProjectId,peaks_v30_panel,7065616b-735f-4763-9330-5f70616e656c,rev?*%
%TF.SameCoordinates,Original*%
%TF.FileFunction,Copper,L1,Top*%
%TF.FilePolarity,Positive*%
%FSLAX46Y46*%
G04 Gerber Fmt 4.6, Leading zero omitted, Abs format (unit mm)*
G04 Created by KiCad (PCBNEW 8.0.6-8.0.6-0~ubuntu22.04.1) date 2024-12-05 17:52:13*
%MOMM*%
%LPD*%
G01*
G04 APERTURE LIST*
%TA.AperFunction,NonConductor*%
%ADD10C,0.200000*%
%TD*%
%TA.AperFunction,ViaPad*%
%ADD11C,8.000000*%
%TD*%
%TA.AperFunction,ViaPad*%
%ADD12C,6.000000*%
%TD*%
%TA.AperFunction,ViaPad*%
%ADD13C,7.000000*%
%TD*%
%TA.AperFunction,ViaPad*%
%ADD14C,4.000000*%
%TD*%
%TA.AperFunction,ViaPad*%
%ADD15C,9.000000*%
%TD*%
%TA.AperFunction,Conductor*%
%ADD16C,0.250000*%
%TD*%
G04 APERTURE END LIST*
D10*
X85993600Y-95163600D02*
G75*
G02*
X80993600Y-100163600I-5000000J0D01*
G01*
X95993600Y-95163600D02*
G75*
G02*
X90993600Y-90163600I0J5000000D01*
G01*
X90993600Y-90163600D02*
G75*
G02*
X85993600Y-95163600I-5000000J0D01*
G01*
X75993600Y-95163600D02*
G75*
G02*
X70993600Y-90163600I0J5000000D01*
G01*
X75993600Y-95163600D02*
G75*
G02*
X70993600Y-100163600I-5000000J0D01*
G01*
X80993600Y-90163600D02*
G75*
G02*
X75993600Y-95163600I-5000000J0D01*
G01*
X95993600Y-95163600D02*
G75*
G02*
X90993600Y-100163600I-5000000J0D01*
G01*
X90993600Y-100163600D02*
G75*
G02*
X85993600Y-95163600I0J5000000D01*
G01*
X85993600Y-95163600D02*
G75*
G02*
X80993600Y-90163600I0J5000000D01*
G01*
X80993600Y-100163600D02*
G75*
G02*
X75993600Y-95163600I0J5000000D01*
G01*
X85993600Y-85163600D02*
G75*
G02*
X80993600Y-90163600I-5000000J0D01*
G01*
X95993600Y-85163600D02*
G75*
G02*
X90993600Y-80163600I0J5000000D01*
G01*
X90993600Y-80163600D02*
G75*
G02*
X85993600Y-85163600I-5000000J0D01*
G01*
X60993600Y-80163600D02*
G75*
G02*
X55993600Y-85163600I-5000000J0D01*
G01*
X80993600Y-80163600D02*
G75*
G02*
X75993600Y-85163600I-5000000J0D01*
G01*
X95993600Y-85163600D02*
G75*
G02*
X90993600Y-90163600I-5000000J0D01*
G01*
X90993600Y-90163600D02*
G75*
G02*
X85993600Y-85163600I0J5000000D01*
G01*
X85993600Y-85163600D02*
G75*
G02*
X80993600Y-80163600I0J5000000D01*
G01*
X80993600Y-90163600D02*
G75*
G02*
X75993600Y-85163600I0J5000000D01*
G01*
X60993600Y-90163600D02*
G75*
G02*
X55993600Y-85163600I0J5000000D01*
G01*
X85993600Y-75163600D02*
G75*
G02*
X80993600Y-80163600I-5000000J0D01*
G01*
X95993600Y-75163600D02*
G75*
G02*
X90993600Y-70163600I0J5000000D01*
G01*
X90993600Y-70163600D02*
G75*
G02*
X85993600Y-75163600I-5000000J0D01*
G01*
X60993600Y-70163600D02*
G75*
G02*
X55993600Y-75163600I-5000000J0D01*
G01*
X80993600Y-70163600D02*
G75*
G02*
X75993600Y-75163600I-5000000J0D01*
G01*
X95993600Y-75163600D02*
G75*
G02*
X90993600Y-80163600I-5000000J0D01*
G01*
X90993600Y-80163600D02*
G75*
G02*
X85993600Y-75163600I0J5000000D01*
G01*
X85993600Y-75163600D02*
G75*
G02*
X80993600Y-70163600I0J5000000D01*
G01*
X80993600Y-80163600D02*
G75*
G02*
X75993600Y-75163600I0J5000000D01*
G01*
X60993600Y-80163600D02*
G75*
G02*
X55993600Y-75163600I0J5000000D01*
G01*
X85993600Y-65163600D02*
G75*
G02*
X80993600Y-70163600I-5000000J0D01*
G01*
X95993600Y-65163600D02*
G75*
G02*
X90993600Y-60163600I0J5000000D01*
G01*
X90993600Y-60163600D02*
G75*
G02*
X85993600Y-65163600I-5000000J0D01*
G01*
X60993600Y-60163600D02*
G75*
G02*
X55993600Y-65163600I-5000000J0D01*
G01*
X80993600Y-60163600D02*
G75*
G02*
X75993600Y-65163600I-5000000J0D01*
G01*
X95993600Y-65163600D02*
G75*
G02*
X90993600Y-70163600I-5000000J0D01*
G01*
X90993600Y-70163600D02*
G75*
G02*
X85993600Y-65163600I0J5000000D01*
G01*
X85993600Y-65163600D02*
G75*
G02*
X80993600Y-60163600I0J5000000D01*
G01*
X80993600Y-70163600D02*
G75*
G02*
X75993600Y-65163600I0J5000000D01*
G01*
X60993600Y-70163600D02*
G75*
G02*
X55993600Y-65163600I0J5000000D01*
G01*
X85993600Y-55163600D02*
G75*
G02*
X80993600Y-60163600I-5000000J0D01*
G01*
X95993600Y-55163600D02*
G75*
G02*
X90993600Y-50163600I0J5000000D01*
G01*
X90993600Y-50163600D02*
G75*
G02*
X85993600Y-55163600I-5000000J0D01*
G01*
X75993600Y-55163600D02*
G75*
G02*
X70993600Y-50163600I0J5000000D01*
G01*
X70993600Y-50163600D02*
G75*
G02*
X65993600Y-55163600I-5000000J0D01*
G01*
X60993600Y-50163600D02*
G75*
G02*
X55993600Y-55163600I-5000000J0D01*
G01*
X80993600Y-50163600D02*
G75*
G02*
X75993600Y-55163600I-5000000J0D01*
G01*
X95993600Y-55163600D02*
G75*
G02*
X90993600Y-60163600I-5000000J0D01*
G01*
X90993600Y-60163600D02*
G75*
G02*
X85993600Y-55163600I0J5000000D01*
G01*
X85993600Y-55163600D02*
G75*
G02*
X80993600Y-50163600I0J5000000D01*
G01*
X80993600Y-60163600D02*
G75*
G02*
X75993600Y-55163600I0J5000000D01*
G01*
X65993600Y-55163600D02*
G75*
G02*
X60993600Y-50163600I0J5000000D01*
G01*
X60993600Y-60163600D02*
G75*
G02*
X55993600Y-55163600I0J5000000D01*
G01*
X85993600Y-45163600D02*
G75*
G02*
X80993600Y-50163600I-5000000J0D01*
G01*
X95993600Y-45163600D02*
G75*
G02*
X90993600Y-40163600I0J5000000D01*
G01*
X90993600Y-40163600D02*
G75*
G02*
X85993600Y-45163600I-5000000J0D01*
G01*
X65993600Y-45163600D02*
G75*
G02*
X60993600Y-50163600I-5000000J0D01*
G01*
X75993600Y-45163600D02*
G75*
G02*
X70993600Y-40163600I0J5000000D01*
G01*
X70993600Y-40163600D02*
G75*
G02*
X65993600Y-45163600I-5000000J0D01*
G01*
X60993600Y-40163600D02*
G75*
G02*
X55993600Y-45163600I-5000000J0D01*
G01*
X75993600Y-45163600D02*
G75*
G02*
X70993600Y-50163600I-5000000J0D01*
G01*
X70993600Y-50163600D02*
G75*
G02*
X65993600Y-45163600I0J5000000D01*
G01*
X80993600Y-40163600D02*
G75*
G02*
X75993600Y-45163600I-5000000J0D01*
G01*
X95993600Y-45163600D02*
G75*
G02*
X90993600Y-50163600I-5000000J0D01*
G01*
X90993600Y-50163600D02*
G75*
G02*
X85993600Y-45163600I0J5000000D01*
G01*
X85993600Y-45163600D02*
G75*
G02*
X80993600Y-40163600I0J5000000D01*
G01*
X80993600Y-50163600D02*
G75*
G02*
X75993600Y-45163600I0J5000000D01*
G01*
X65993600Y-45163600D02*
G75*
G02*
X60993600Y-40163600I0J5000000D01*
G01*
X60993600Y-50163600D02*
G75*
G02*
X55993600Y-45163600I0J5000000D01*
G01*
X75993600Y-85163600D02*
G75*
G02*
X70993600Y-90163600I-5000000J0D01*
G01*
X80993600Y-110163600D02*
G75*
G02*
X75993600Y-115163600I-5000000J0D01*
G01*
X75993600Y-115163600D02*
G75*
G02*
X70993600Y-120163600I-5000000J0D01*
G01*
X90993600Y-120163600D02*
G75*
G02*
X85993600Y-115163600I0J5000000D01*
G01*
X85993600Y-115163600D02*
G75*
G02*
X80993600Y-120163600I-5000000J0D01*
G01*
X95993600Y-125163600D02*
G75*
G02*
X90993600Y-130163600I-5000000J0D01*
G01*
X80993600Y-120163600D02*
G75*
G02*
X75993600Y-125163600I-5000000J0D01*
G01*
X85993600Y-115163600D02*
G75*
G02*
X80993600Y-110163600I0J5000000D01*
G01*
X85993600Y-125163600D02*
G75*
G02*
X80993600Y-130163600I-5000000J0D01*
G01*
X90993600Y-110163600D02*
G75*
G02*
X85993600Y-105163600I0J5000000D01*
G01*
X95993600Y-105163600D02*
G75*
G02*
X90993600Y-110163600I-5000000J0D01*
G01*
X80993600Y-100163600D02*
G75*
G02*
X75993600Y-105163600I-5000000J0D01*
G01*
X85993600Y-105163600D02*
G75*
G02*
X80993600Y-100163600I0J5000000D01*
G01*
X80993600Y-130163600D02*
G75*
G02*
X75993600Y-125163600I0J5000000D01*
G01*
X75993600Y-125163600D02*
G75*
G02*
X70993600Y-120163600I0J5000000D01*
G01*
X90993600Y-120163600D02*
G75*
G02*
X85993600Y-125163600I-5000000J0D01*
G01*
X95993600Y-125163600D02*
G75*
G02*
X90993600Y-120163600I0J5000000D01*
G01*
X75993600Y-125163600D02*
G75*
G02*
X70993600Y-130163600I-5000000J0D01*
G01*
X95993600Y-115163600D02*
G75*
G02*
X90993600Y-110163600I0J5000000D01*
G01*
X85993600Y-125163600D02*
G75*
G02*
X80993600Y-120163600I0J5000000D01*
G01*
X90993600Y-130163600D02*
G75*
G02*
X85993600Y-125163600I0J5000000D01*
G01*
X75993600Y-115163600D02*
G75*
G02*
X70993600Y-110163600I0J5000000D01*
G01*
X90993600Y-110163600D02*
G75*
G02*
X85993600Y-115163600I-5000000J0D01*
G01*
X95993600Y-115163600D02*
G75*
G02*
X90993600Y-120163600I-5000000J0D01*
G01*
X80993600Y-120163600D02*
G75*
G02*
X75993600Y-115163600I0J5000000D01*
G01*
X80993600Y-110163600D02*
G75*
G02*
X75993600Y-105163600I0J5000000D01*
G01*
X75993600Y-105163600D02*
G75*
G02*
X70993600Y-100163600I0J5000000D01*
G01*
X90993600Y-100163600D02*
G75*
G02*
X85993600Y-105163600I-5000000J0D01*
G01*
X95993600Y-105163600D02*
G75*
G02*
X90993600Y-100163600I0J5000000D01*
G01*
X75993600Y-105163600D02*
G75*
G02*
X70993600Y-110163600I-5000000J0D01*
G01*
X85993600Y-105163600D02*
G75*
G02*
X80993600Y-110163600I-5000000J0D01*
G01*
X60993600Y-90163600D02*
G75*
G02*
X59993600Y-93163600I-5000000J0D01*
G01*
X61993600Y-93163600D02*
G75*
G02*
X60993600Y-90163600I4000000J3000000D01*
G01*
X70993600Y-90163600D02*
G75*
G02*
X68566079Y-94451065I-5000000J0D01*
G01*
X70993600Y-100163600D02*
G75*
G02*
X70171605Y-100095570I0J5000000D01*
G01*
X70993600Y-110163600D02*
G75*
G02*
X70171605Y-110095570I0J5000000D01*
G01*
X70993600Y-100163600D02*
G75*
G02*
X70153851Y-102937101I-5000000J0D01*
G01*
X70993600Y-110163600D02*
G75*
G02*
X70104561Y-113009650I-5000000J0D01*
G01*
X70993600Y-120163600D02*
G75*
G02*
X69070523Y-119778985I0J5000000D01*
G01*
X70993600Y-120163600D02*
G75*
G02*
X69338424Y-123880071I-5000000J0D01*
G01*
X70993600Y-130163600D02*
G75*
G02*
X70409394Y-130129353I0J5000000D01*
G01*
X80993600Y-130163600D02*
G75*
G02*
X79874170Y-133316563I-5000000J0D01*
G01*
X82152494Y-133364522D02*
G75*
G02*
X80993600Y-130163600I3841106J3200922D01*
G01*
X90993600Y-130163600D02*
G75*
G02*
X89834706Y-133364522I-5000000J0D01*
G01*
X92123814Y-133329789D02*
G75*
G02*
X90993600Y-130163600I3869786J3166189D01*
G01*
X70993600Y-90163600D02*
G75*
G02*
X67993600Y-89163600I0J5000000D01*
G01*
X63993600Y-89163600D02*
G75*
G02*
X60993600Y-90163600I-3000000J4000000D01*
G01*
D11*
%TO.N,*%
X83306100Y-77998600D03*
D12*
X61081100Y-51963600D03*
D13*
X62986100Y-114193600D03*
D14*
X61081160Y-71013600D03*
D13*
X77591100Y-143403600D03*
D12*
X61081100Y-64663600D03*
D14*
X61081160Y-58313600D03*
D11*
X83306100Y-121813600D03*
D14*
X61081098Y-76411098D03*
X63123600Y-35163600D03*
D11*
X83306100Y-99906100D03*
D13*
X89011100Y-143393600D03*
X62986100Y-143403600D03*
D14*
X63123600Y-157663600D03*
D15*
X62986100Y-99906100D03*
D14*
X61081098Y-87206098D03*
D11*
X83306100Y-56091100D03*
D14*
X61081098Y-81808598D03*
D15*
X62986100Y-129116100D03*
%TD*%
D16*
%TO.N,*%
X61081160Y-58313600D02*
X62373658Y-59606098D01*
%TD*%
M02*
