%TF.GenerationSoftware,KiCad,Pcbnew,8.0.0*%
%TF.CreationDate,2024-05-14T21:41:44+02:00*%
%TF.ProjectId,VCO-3340,56434f2d-3333-4343-902e-6b696361645f,rev?*%
%TF.SameCoordinates,Original*%
%TF.FileFunction,Soldermask,Bot*%
%TF.FilePolarity,Negative*%
%FSLAX46Y46*%
G04 Gerber Fmt 4.6, Leading zero omitted, Abs format (unit mm)*
G04 Created by KiCad (PCBNEW 8.0.0) date 2024-05-14 21:41:44*
%MOMM*%
%LPD*%
G01*
G04 APERTURE LIST*
G04 Aperture macros list*
%AMRoundRect*
0 Rectangle with rounded corners*
0 $1 Rounding radius*
0 $2 $3 $4 $5 $6 $7 $8 $9 X,Y pos of 4 corners*
0 Add a 4 corners polygon primitive as box body*
4,1,4,$2,$3,$4,$5,$6,$7,$8,$9,$2,$3,0*
0 Add four circle primitives for the rounded corners*
1,1,$1+$1,$2,$3*
1,1,$1+$1,$4,$5*
1,1,$1+$1,$6,$7*
1,1,$1+$1,$8,$9*
0 Add four rect primitives between the rounded corners*
20,1,$1+$1,$2,$3,$4,$5,0*
20,1,$1+$1,$4,$5,$6,$7,0*
20,1,$1+$1,$6,$7,$8,$9,0*
20,1,$1+$1,$8,$9,$2,$3,0*%
G04 Aperture macros list end*
%ADD10C,1.930400*%
%ADD11O,3.240000X2.720000*%
%ADD12R,1.800000X1.800000*%
%ADD13C,1.800000*%
%ADD14C,1.651000*%
%ADD15RoundRect,0.250000X0.337500X0.475000X-0.337500X0.475000X-0.337500X-0.475000X0.337500X-0.475000X0*%
%ADD16RoundRect,0.125000X-0.125000X-0.125000X0.125000X-0.125000X0.125000X0.125000X-0.125000X0.125000X0*%
%ADD17RoundRect,0.250000X0.450000X-0.350000X0.450000X0.350000X-0.450000X0.350000X-0.450000X-0.350000X0*%
%ADD18RoundRect,0.250000X0.475000X-0.337500X0.475000X0.337500X-0.475000X0.337500X-0.475000X-0.337500X0*%
%ADD19RoundRect,0.250000X0.350000X0.450000X-0.350000X0.450000X-0.350000X-0.450000X0.350000X-0.450000X0*%
%ADD20R,1.200000X1.200000*%
%ADD21C,1.200000*%
%ADD22RoundRect,0.250000X-0.475000X0.337500X-0.475000X-0.337500X0.475000X-0.337500X0.475000X0.337500X0*%
%ADD23R,1.700000X1.700000*%
%ADD24O,1.700000X1.700000*%
%ADD25RoundRect,0.250000X-0.450000X0.350000X-0.450000X-0.350000X0.450000X-0.350000X0.450000X0.350000X0*%
%ADD26RoundRect,0.150000X0.825000X0.150000X-0.825000X0.150000X-0.825000X-0.150000X0.825000X-0.150000X0*%
%ADD27C,1.440000*%
%ADD28RoundRect,0.125000X0.125000X0.125000X-0.125000X0.125000X-0.125000X-0.125000X0.125000X-0.125000X0*%
%ADD29RoundRect,0.250000X-0.350000X-0.450000X0.350000X-0.450000X0.350000X0.450000X-0.350000X0.450000X0*%
%ADD30RoundRect,0.250000X-0.337500X-0.475000X0.337500X-0.475000X0.337500X0.475000X-0.337500X0.475000X0*%
G04 APERTURE END LIST*
D10*
%TO.C,J9*%
X51647600Y-141984000D03*
X51647600Y-131011200D03*
X51647600Y-139571000D03*
%TD*%
D11*
%TO.C,RV8*%
X63647600Y-88418200D03*
X63647600Y-98018200D03*
D12*
X56147600Y-90718200D03*
D13*
X56147600Y-93218200D03*
X56147600Y-95718200D03*
%TD*%
D11*
%TO.C,RV7*%
X39647600Y-88418200D03*
X39647600Y-98018200D03*
D12*
X32147600Y-90718200D03*
D13*
X32147600Y-93218200D03*
X32147600Y-95718200D03*
%TD*%
D11*
%TO.C,RV3*%
X51647600Y-70418200D03*
X51647600Y-80018200D03*
D12*
X44147600Y-72718200D03*
D13*
X44147600Y-75218200D03*
X44147600Y-77718200D03*
%TD*%
D10*
%TO.C,J4*%
X39647600Y-127984000D03*
X39647600Y-117011200D03*
X39647600Y-125571000D03*
%TD*%
D11*
%TO.C,RV9*%
X59440600Y-39418200D03*
X59440600Y-49018200D03*
D12*
X51940600Y-41718200D03*
D13*
X51940600Y-44218200D03*
X51940600Y-46718200D03*
%TD*%
D11*
%TO.C,RV5*%
X30647600Y-68418200D03*
X30647600Y-78018200D03*
D12*
X23147600Y-70718200D03*
D13*
X23147600Y-73218200D03*
X23147600Y-75718200D03*
%TD*%
D14*
%TO.C,SW2*%
X51647600Y-106678200D03*
X51647600Y-109218200D03*
X51647600Y-111758200D03*
%TD*%
D10*
%TO.C,J5*%
X51647600Y-127984000D03*
X51647600Y-117011200D03*
X51647600Y-125571000D03*
%TD*%
%TO.C,J3*%
X63647600Y-127984000D03*
X63647600Y-117011200D03*
X63647600Y-125571000D03*
%TD*%
D11*
%TO.C,RV2*%
X31440600Y-39418200D03*
X31440600Y-49018200D03*
D12*
X23940600Y-41718200D03*
D13*
X23940600Y-44218200D03*
X23940600Y-46718200D03*
%TD*%
D10*
%TO.C,J8*%
X39647600Y-141984000D03*
X39647600Y-131011200D03*
X39647600Y-139571000D03*
%TD*%
%TO.C,J2*%
X27647600Y-127984000D03*
X27647600Y-117011200D03*
X27647600Y-125571000D03*
%TD*%
D14*
%TO.C,SW1*%
X63647600Y-106678200D03*
X63647600Y-109218200D03*
X63647600Y-111758200D03*
%TD*%
D10*
%TO.C,J7*%
X27440600Y-141984000D03*
X27440600Y-131011200D03*
X27440600Y-139571000D03*
%TD*%
%TO.C,J10*%
X63647600Y-141984000D03*
X63647600Y-131011200D03*
X63647600Y-139571000D03*
%TD*%
%TO.C,J1*%
X27647600Y-113984000D03*
X27647600Y-103011200D03*
X27647600Y-111571000D03*
%TD*%
D15*
%TO.C,C19*%
X47440600Y-107718200D03*
X45365600Y-107718200D03*
%TD*%
D16*
%TO.C,D4*%
X42340600Y-94718200D03*
X44540600Y-94718200D03*
%TD*%
D17*
%TO.C,R27*%
X30940600Y-111218200D03*
X30940600Y-109218200D03*
%TD*%
D18*
%TO.C,C5*%
X60403100Y-55255700D03*
X60403100Y-53180700D03*
%TD*%
D19*
%TO.C,R45*%
X63940600Y-83718200D03*
X61940600Y-83718200D03*
%TD*%
%TO.C,R16*%
X40940600Y-58718200D03*
X38940600Y-58718200D03*
%TD*%
D20*
%TO.C,C12*%
X24913200Y-54718200D03*
D21*
X22913200Y-54718200D03*
%TD*%
D22*
%TO.C,C7*%
X37440600Y-61680700D03*
X37440600Y-63755700D03*
%TD*%
D23*
%TO.C,J6*%
X42700600Y-50378200D03*
D24*
X45240600Y-50378200D03*
X42700600Y-47838200D03*
X45240600Y-47838200D03*
X42700600Y-45298200D03*
X45240600Y-45298200D03*
X42700600Y-42758200D03*
X45240600Y-42758200D03*
X42700600Y-40218200D03*
X45240600Y-40218200D03*
%TD*%
D19*
%TO.C,R46*%
X53440600Y-89218200D03*
X51440600Y-89218200D03*
%TD*%
D17*
%TO.C,R10*%
X58440600Y-70718200D03*
X58440600Y-68718200D03*
%TD*%
D19*
%TO.C,R2*%
X29440600Y-52218200D03*
X27440600Y-52218200D03*
%TD*%
D25*
%TO.C,R34*%
X54440600Y-108218200D03*
X54440600Y-110218200D03*
%TD*%
D19*
%TO.C,R8*%
X27440600Y-99718200D03*
X25440600Y-99718200D03*
%TD*%
D25*
%TO.C,R4*%
X27440600Y-44218200D03*
X27440600Y-46218200D03*
%TD*%
D26*
%TO.C,U4*%
X42940600Y-104098200D03*
X42940600Y-105368200D03*
X42940600Y-106638200D03*
X42940600Y-107908200D03*
X42940600Y-109178200D03*
X42940600Y-110448200D03*
X42940600Y-111718200D03*
X37990600Y-111718200D03*
X37990600Y-110448200D03*
X37990600Y-109178200D03*
X37990600Y-107908200D03*
X37990600Y-106638200D03*
X37990600Y-105368200D03*
X37990600Y-104098200D03*
%TD*%
D27*
%TO.C,RV4*%
X61900600Y-64878200D03*
X64440600Y-67418200D03*
X66980600Y-64878200D03*
%TD*%
D25*
%TO.C,R26*%
X30940600Y-104718200D03*
X30940600Y-106718200D03*
%TD*%
D17*
%TO.C,R40*%
X49440600Y-107718200D03*
X49440600Y-105718200D03*
%TD*%
D25*
%TO.C,R49*%
X48940600Y-81218200D03*
X48940600Y-83218200D03*
%TD*%
D22*
%TO.C,C3*%
X48940600Y-69643200D03*
X48940600Y-71718200D03*
%TD*%
D17*
%TO.C,R17*%
X55440600Y-43718200D03*
X55440600Y-41718200D03*
%TD*%
D25*
%TO.C,R14*%
X41440600Y-61718200D03*
X41440600Y-63718200D03*
%TD*%
D28*
%TO.C,D5*%
X59440600Y-83718200D03*
X57240600Y-83718200D03*
%TD*%
%TO.C,D8*%
X59440600Y-85718200D03*
X57240600Y-85718200D03*
%TD*%
D17*
%TO.C,R21*%
X55940600Y-104218200D03*
X55940600Y-102218200D03*
%TD*%
D20*
%TO.C,C15*%
X35468000Y-36718200D03*
D21*
X37468000Y-36718200D03*
%TD*%
D29*
%TO.C,R48*%
X22940600Y-107718200D03*
X24940600Y-107718200D03*
%TD*%
D27*
%TO.C,RV6*%
X61900600Y-70678200D03*
X64440600Y-73218200D03*
X66980600Y-70678200D03*
%TD*%
D20*
%TO.C,C6*%
X54940600Y-51745600D03*
D21*
X54940600Y-53745600D03*
%TD*%
D28*
%TO.C,D7*%
X55940600Y-85718200D03*
X53740600Y-85718200D03*
%TD*%
D19*
%TO.C,R50*%
X48440600Y-89218200D03*
X46440600Y-89218200D03*
%TD*%
%TO.C,R44*%
X31940600Y-99718200D03*
X29940600Y-99718200D03*
%TD*%
%TO.C,R43*%
X55940600Y-130718200D03*
X53940600Y-130718200D03*
%TD*%
D30*
%TO.C,C4*%
X58940600Y-59218200D03*
X61015600Y-59218200D03*
%TD*%
D15*
%TO.C,C18*%
X35440600Y-107718200D03*
X33365600Y-107718200D03*
%TD*%
D19*
%TO.C,R35*%
X52940600Y-119718200D03*
X50940600Y-119718200D03*
%TD*%
%TO.C,R36*%
X48440600Y-116218200D03*
X46440600Y-116218200D03*
%TD*%
%TO.C,R38*%
X67940600Y-131218200D03*
X65940600Y-131218200D03*
%TD*%
D16*
%TO.C,D3*%
X45840600Y-94718200D03*
X48040600Y-94718200D03*
%TD*%
D25*
%TO.C,R32*%
X43440600Y-87718200D03*
X43440600Y-89718200D03*
%TD*%
D15*
%TO.C,C17*%
X48440600Y-119718200D03*
X46365600Y-119718200D03*
%TD*%
D19*
%TO.C,R30*%
X41440600Y-114718200D03*
X39440600Y-114718200D03*
%TD*%
D27*
%TO.C,RV10*%
X61900600Y-76678200D03*
X64440600Y-79218200D03*
X66980600Y-76678200D03*
%TD*%
D28*
%TO.C,D6*%
X55940600Y-83718200D03*
X53740600Y-83718200D03*
%TD*%
D26*
%TO.C,U1*%
X55440600Y-56773200D03*
X55440600Y-58043200D03*
X55440600Y-59313200D03*
X55440600Y-60583200D03*
X55440600Y-61853200D03*
X55440600Y-63123200D03*
X55440600Y-64393200D03*
X55440600Y-65663200D03*
X50490600Y-65663200D03*
X50490600Y-64393200D03*
X50490600Y-63123200D03*
X50490600Y-61853200D03*
X50490600Y-60583200D03*
X50490600Y-59313200D03*
X50490600Y-58043200D03*
X50490600Y-56773200D03*
%TD*%
D20*
%TO.C,C14*%
X36740600Y-55190800D03*
D21*
X36740600Y-53190800D03*
%TD*%
D17*
%TO.C,R12*%
X59440600Y-66218200D03*
X59440600Y-64218200D03*
%TD*%
D29*
%TO.C,R39*%
X33940600Y-99718200D03*
X35940600Y-99718200D03*
%TD*%
D18*
%TO.C,C1*%
X46940600Y-62755700D03*
X46940600Y-60680700D03*
%TD*%
D19*
%TO.C,R42*%
X46940600Y-99718200D03*
X44940600Y-99718200D03*
%TD*%
%TO.C,R31*%
X31940600Y-130718200D03*
X29940600Y-130718200D03*
%TD*%
D29*
%TO.C,R1*%
X42940600Y-58718200D03*
X44940600Y-58718200D03*
%TD*%
%TO.C,R47*%
X35940600Y-94718200D03*
X37940600Y-94718200D03*
%TD*%
D25*
%TO.C,R13*%
X46940600Y-68718200D03*
X46940600Y-70718200D03*
%TD*%
D17*
%TO.C,R18*%
X67440600Y-109218200D03*
X67440600Y-107218200D03*
%TD*%
%TO.C,R3*%
X41440600Y-80718200D03*
X41440600Y-78718200D03*
%TD*%
%TO.C,R33*%
X47440600Y-111718200D03*
X47440600Y-109718200D03*
%TD*%
D19*
%TO.C,R37*%
X43940600Y-131218200D03*
X41940600Y-131218200D03*
%TD*%
D18*
%TO.C,C2*%
X50440600Y-52755700D03*
X50440600Y-50680700D03*
%TD*%
D17*
%TO.C,R6*%
X46940600Y-75218200D03*
X46940600Y-73218200D03*
%TD*%
D19*
%TO.C,R41*%
X48940600Y-103218200D03*
X46940600Y-103218200D03*
%TD*%
D29*
%TO.C,R29*%
X33940600Y-116218200D03*
X35940600Y-116218200D03*
%TD*%
D25*
%TO.C,R28*%
X30940600Y-114218200D03*
X30940600Y-116218200D03*
%TD*%
%TO.C,R11*%
X64940600Y-56718200D03*
X64940600Y-58718200D03*
%TD*%
D30*
%TO.C,C16*%
X33865600Y-119718200D03*
X35940600Y-119718200D03*
%TD*%
D19*
%TO.C,R20*%
X52440600Y-101218200D03*
X50440600Y-101218200D03*
%TD*%
D25*
%TO.C,R9*%
X25440600Y-80718200D03*
X25440600Y-82718200D03*
%TD*%
M02*
