%TF.GenerationSoftware,KiCad,Pcbnew,8.0.0*%
%TF.CreationDate,2024-05-14T17:12:12+02:00*%
%TF.ProjectId,VCO-3340-panel,56434f2d-3333-4343-902d-70616e656c2e,rev?*%
%TF.SameCoordinates,Original*%
%TF.FileFunction,Soldermask,Top*%
%TF.FilePolarity,Negative*%
%FSLAX46Y46*%
G04 Gerber Fmt 4.6, Leading zero omitted, Abs format (unit mm)*
G04 Created by KiCad (PCBNEW 8.0.0) date 2024-05-14 17:12:12*
%MOMM*%
%LPD*%
G01*
G04 APERTURE LIST*
%ADD10C,0.150000*%
G04 APERTURE END LIST*
D10*
X129560124Y-161010319D02*
X130226790Y-161010319D01*
X130226790Y-161010319D02*
X129798219Y-162010319D01*
X130655362Y-161962700D02*
X130655362Y-162010319D01*
X130655362Y-162010319D02*
X130607743Y-162105557D01*
X130607743Y-162105557D02*
X130560124Y-162153176D01*
X130988695Y-161010319D02*
X131655361Y-161010319D01*
X131655361Y-161010319D02*
X131226790Y-162010319D01*
X132226790Y-161010319D02*
X132322028Y-161010319D01*
X132322028Y-161010319D02*
X132417266Y-161057938D01*
X132417266Y-161057938D02*
X132464885Y-161105557D01*
X132464885Y-161105557D02*
X132512504Y-161200795D01*
X132512504Y-161200795D02*
X132560123Y-161391271D01*
X132560123Y-161391271D02*
X132560123Y-161629366D01*
X132560123Y-161629366D02*
X132512504Y-161819842D01*
X132512504Y-161819842D02*
X132464885Y-161915080D01*
X132464885Y-161915080D02*
X132417266Y-161962700D01*
X132417266Y-161962700D02*
X132322028Y-162010319D01*
X132322028Y-162010319D02*
X132226790Y-162010319D01*
X132226790Y-162010319D02*
X132131552Y-161962700D01*
X132131552Y-161962700D02*
X132083933Y-161915080D01*
X132083933Y-161915080D02*
X132036314Y-161819842D01*
X132036314Y-161819842D02*
X131988695Y-161629366D01*
X131988695Y-161629366D02*
X131988695Y-161391271D01*
X131988695Y-161391271D02*
X132036314Y-161200795D01*
X132036314Y-161200795D02*
X132083933Y-161105557D01*
X132083933Y-161105557D02*
X132131552Y-161057938D01*
X132131552Y-161057938D02*
X132226790Y-161010319D01*
X133179171Y-161010319D02*
X133274409Y-161010319D01*
X133274409Y-161010319D02*
X133369647Y-161057938D01*
X133369647Y-161057938D02*
X133417266Y-161105557D01*
X133417266Y-161105557D02*
X133464885Y-161200795D01*
X133464885Y-161200795D02*
X133512504Y-161391271D01*
X133512504Y-161391271D02*
X133512504Y-161629366D01*
X133512504Y-161629366D02*
X133464885Y-161819842D01*
X133464885Y-161819842D02*
X133417266Y-161915080D01*
X133417266Y-161915080D02*
X133369647Y-161962700D01*
X133369647Y-161962700D02*
X133274409Y-162010319D01*
X133274409Y-162010319D02*
X133179171Y-162010319D01*
X133179171Y-162010319D02*
X133083933Y-161962700D01*
X133083933Y-161962700D02*
X133036314Y-161915080D01*
X133036314Y-161915080D02*
X132988695Y-161819842D01*
X132988695Y-161819842D02*
X132941076Y-161629366D01*
X132941076Y-161629366D02*
X132941076Y-161391271D01*
X132941076Y-161391271D02*
X132988695Y-161200795D01*
X132988695Y-161200795D02*
X133036314Y-161105557D01*
X133036314Y-161105557D02*
X133083933Y-161057938D01*
X133083933Y-161057938D02*
X133179171Y-161010319D01*
X134131552Y-161010319D02*
X134226790Y-161010319D01*
X134226790Y-161010319D02*
X134322028Y-161057938D01*
X134322028Y-161057938D02*
X134369647Y-161105557D01*
X134369647Y-161105557D02*
X134417266Y-161200795D01*
X134417266Y-161200795D02*
X134464885Y-161391271D01*
X134464885Y-161391271D02*
X134464885Y-161629366D01*
X134464885Y-161629366D02*
X134417266Y-161819842D01*
X134417266Y-161819842D02*
X134369647Y-161915080D01*
X134369647Y-161915080D02*
X134322028Y-161962700D01*
X134322028Y-161962700D02*
X134226790Y-162010319D01*
X134226790Y-162010319D02*
X134131552Y-162010319D01*
X134131552Y-162010319D02*
X134036314Y-161962700D01*
X134036314Y-161962700D02*
X133988695Y-161915080D01*
X133988695Y-161915080D02*
X133941076Y-161819842D01*
X133941076Y-161819842D02*
X133893457Y-161629366D01*
X133893457Y-161629366D02*
X133893457Y-161391271D01*
X133893457Y-161391271D02*
X133941076Y-161200795D01*
X133941076Y-161200795D02*
X133988695Y-161105557D01*
X133988695Y-161105557D02*
X134036314Y-161057938D01*
X134036314Y-161057938D02*
X134131552Y-161010319D01*
X135655362Y-162010319D02*
X135655362Y-161343652D01*
X135655362Y-161438890D02*
X135702981Y-161391271D01*
X135702981Y-161391271D02*
X135798219Y-161343652D01*
X135798219Y-161343652D02*
X135941076Y-161343652D01*
X135941076Y-161343652D02*
X136036314Y-161391271D01*
X136036314Y-161391271D02*
X136083933Y-161486509D01*
X136083933Y-161486509D02*
X136083933Y-162010319D01*
X136083933Y-161486509D02*
X136131552Y-161391271D01*
X136131552Y-161391271D02*
X136226790Y-161343652D01*
X136226790Y-161343652D02*
X136369647Y-161343652D01*
X136369647Y-161343652D02*
X136464886Y-161391271D01*
X136464886Y-161391271D02*
X136512505Y-161486509D01*
X136512505Y-161486509D02*
X136512505Y-162010319D01*
X136988695Y-162010319D02*
X136988695Y-161343652D01*
X136988695Y-161438890D02*
X137036314Y-161391271D01*
X137036314Y-161391271D02*
X137131552Y-161343652D01*
X137131552Y-161343652D02*
X137274409Y-161343652D01*
X137274409Y-161343652D02*
X137369647Y-161391271D01*
X137369647Y-161391271D02*
X137417266Y-161486509D01*
X137417266Y-161486509D02*
X137417266Y-162010319D01*
X137417266Y-161486509D02*
X137464885Y-161391271D01*
X137464885Y-161391271D02*
X137560123Y-161343652D01*
X137560123Y-161343652D02*
X137702980Y-161343652D01*
X137702980Y-161343652D02*
X137798219Y-161391271D01*
X137798219Y-161391271D02*
X137845838Y-161486509D01*
X137845838Y-161486509D02*
X137845838Y-162010319D01*
X129900600Y-30705500D02*
X129900600Y-163291920D01*
X137600600Y-30705500D02*
X137600600Y-163291920D01*
X129900600Y-162705500D02*
X137600600Y-162705500D01*
X129900600Y-162705500D02*
X137600600Y-162705500D01*
X129900600Y-162705500D02*
X131027104Y-162119079D01*
X129900600Y-162705500D02*
X131027104Y-163291921D01*
X137600600Y-162705500D02*
X136474096Y-163291921D01*
X137600600Y-162705500D02*
X136474096Y-162119079D01*
X76160124Y-161510319D02*
X76826790Y-161510319D01*
X76826790Y-161510319D02*
X76398219Y-162510319D01*
X77255362Y-162462700D02*
X77255362Y-162510319D01*
X77255362Y-162510319D02*
X77207743Y-162605557D01*
X77207743Y-162605557D02*
X77160124Y-162653176D01*
X78160123Y-161510319D02*
X77683933Y-161510319D01*
X77683933Y-161510319D02*
X77636314Y-161986509D01*
X77636314Y-161986509D02*
X77683933Y-161938890D01*
X77683933Y-161938890D02*
X77779171Y-161891271D01*
X77779171Y-161891271D02*
X78017266Y-161891271D01*
X78017266Y-161891271D02*
X78112504Y-161938890D01*
X78112504Y-161938890D02*
X78160123Y-161986509D01*
X78160123Y-161986509D02*
X78207742Y-162081747D01*
X78207742Y-162081747D02*
X78207742Y-162319842D01*
X78207742Y-162319842D02*
X78160123Y-162415080D01*
X78160123Y-162415080D02*
X78112504Y-162462700D01*
X78112504Y-162462700D02*
X78017266Y-162510319D01*
X78017266Y-162510319D02*
X77779171Y-162510319D01*
X77779171Y-162510319D02*
X77683933Y-162462700D01*
X77683933Y-162462700D02*
X77636314Y-162415080D01*
X78826790Y-161510319D02*
X78922028Y-161510319D01*
X78922028Y-161510319D02*
X79017266Y-161557938D01*
X79017266Y-161557938D02*
X79064885Y-161605557D01*
X79064885Y-161605557D02*
X79112504Y-161700795D01*
X79112504Y-161700795D02*
X79160123Y-161891271D01*
X79160123Y-161891271D02*
X79160123Y-162129366D01*
X79160123Y-162129366D02*
X79112504Y-162319842D01*
X79112504Y-162319842D02*
X79064885Y-162415080D01*
X79064885Y-162415080D02*
X79017266Y-162462700D01*
X79017266Y-162462700D02*
X78922028Y-162510319D01*
X78922028Y-162510319D02*
X78826790Y-162510319D01*
X78826790Y-162510319D02*
X78731552Y-162462700D01*
X78731552Y-162462700D02*
X78683933Y-162415080D01*
X78683933Y-162415080D02*
X78636314Y-162319842D01*
X78636314Y-162319842D02*
X78588695Y-162129366D01*
X78588695Y-162129366D02*
X78588695Y-161891271D01*
X78588695Y-161891271D02*
X78636314Y-161700795D01*
X78636314Y-161700795D02*
X78683933Y-161605557D01*
X78683933Y-161605557D02*
X78731552Y-161557938D01*
X78731552Y-161557938D02*
X78826790Y-161510319D01*
X79779171Y-161510319D02*
X79874409Y-161510319D01*
X79874409Y-161510319D02*
X79969647Y-161557938D01*
X79969647Y-161557938D02*
X80017266Y-161605557D01*
X80017266Y-161605557D02*
X80064885Y-161700795D01*
X80064885Y-161700795D02*
X80112504Y-161891271D01*
X80112504Y-161891271D02*
X80112504Y-162129366D01*
X80112504Y-162129366D02*
X80064885Y-162319842D01*
X80064885Y-162319842D02*
X80017266Y-162415080D01*
X80017266Y-162415080D02*
X79969647Y-162462700D01*
X79969647Y-162462700D02*
X79874409Y-162510319D01*
X79874409Y-162510319D02*
X79779171Y-162510319D01*
X79779171Y-162510319D02*
X79683933Y-162462700D01*
X79683933Y-162462700D02*
X79636314Y-162415080D01*
X79636314Y-162415080D02*
X79588695Y-162319842D01*
X79588695Y-162319842D02*
X79541076Y-162129366D01*
X79541076Y-162129366D02*
X79541076Y-161891271D01*
X79541076Y-161891271D02*
X79588695Y-161700795D01*
X79588695Y-161700795D02*
X79636314Y-161605557D01*
X79636314Y-161605557D02*
X79683933Y-161557938D01*
X79683933Y-161557938D02*
X79779171Y-161510319D01*
X80731552Y-161510319D02*
X80826790Y-161510319D01*
X80826790Y-161510319D02*
X80922028Y-161557938D01*
X80922028Y-161557938D02*
X80969647Y-161605557D01*
X80969647Y-161605557D02*
X81017266Y-161700795D01*
X81017266Y-161700795D02*
X81064885Y-161891271D01*
X81064885Y-161891271D02*
X81064885Y-162129366D01*
X81064885Y-162129366D02*
X81017266Y-162319842D01*
X81017266Y-162319842D02*
X80969647Y-162415080D01*
X80969647Y-162415080D02*
X80922028Y-162462700D01*
X80922028Y-162462700D02*
X80826790Y-162510319D01*
X80826790Y-162510319D02*
X80731552Y-162510319D01*
X80731552Y-162510319D02*
X80636314Y-162462700D01*
X80636314Y-162462700D02*
X80588695Y-162415080D01*
X80588695Y-162415080D02*
X80541076Y-162319842D01*
X80541076Y-162319842D02*
X80493457Y-162129366D01*
X80493457Y-162129366D02*
X80493457Y-161891271D01*
X80493457Y-161891271D02*
X80541076Y-161700795D01*
X80541076Y-161700795D02*
X80588695Y-161605557D01*
X80588695Y-161605557D02*
X80636314Y-161557938D01*
X80636314Y-161557938D02*
X80731552Y-161510319D01*
X82255362Y-162510319D02*
X82255362Y-161843652D01*
X82255362Y-161938890D02*
X82302981Y-161891271D01*
X82302981Y-161891271D02*
X82398219Y-161843652D01*
X82398219Y-161843652D02*
X82541076Y-161843652D01*
X82541076Y-161843652D02*
X82636314Y-161891271D01*
X82636314Y-161891271D02*
X82683933Y-161986509D01*
X82683933Y-161986509D02*
X82683933Y-162510319D01*
X82683933Y-161986509D02*
X82731552Y-161891271D01*
X82731552Y-161891271D02*
X82826790Y-161843652D01*
X82826790Y-161843652D02*
X82969647Y-161843652D01*
X82969647Y-161843652D02*
X83064886Y-161891271D01*
X83064886Y-161891271D02*
X83112505Y-161986509D01*
X83112505Y-161986509D02*
X83112505Y-162510319D01*
X83588695Y-162510319D02*
X83588695Y-161843652D01*
X83588695Y-161938890D02*
X83636314Y-161891271D01*
X83636314Y-161891271D02*
X83731552Y-161843652D01*
X83731552Y-161843652D02*
X83874409Y-161843652D01*
X83874409Y-161843652D02*
X83969647Y-161891271D01*
X83969647Y-161891271D02*
X84017266Y-161986509D01*
X84017266Y-161986509D02*
X84017266Y-162510319D01*
X84017266Y-161986509D02*
X84064885Y-161891271D01*
X84064885Y-161891271D02*
X84160123Y-161843652D01*
X84160123Y-161843652D02*
X84302980Y-161843652D01*
X84302980Y-161843652D02*
X84398219Y-161891271D01*
X84398219Y-161891271D02*
X84445838Y-161986509D01*
X84445838Y-161986509D02*
X84445838Y-162510319D01*
X76600600Y-29205500D02*
X76600600Y-163791920D01*
X84100600Y-29205500D02*
X84100600Y-163791920D01*
X76600600Y-163205500D02*
X84100600Y-163205500D01*
X76600600Y-163205500D02*
X84100600Y-163205500D01*
X76600600Y-163205500D02*
X77727104Y-162619079D01*
X76600600Y-163205500D02*
X77727104Y-163791921D01*
X84100600Y-163205500D02*
X82974096Y-163791921D01*
X84100600Y-163205500D02*
X82974096Y-162619079D01*
X70905419Y-161395975D02*
X70905419Y-160776928D01*
X70905419Y-160776928D02*
X71286371Y-161110261D01*
X71286371Y-161110261D02*
X71286371Y-160967404D01*
X71286371Y-160967404D02*
X71333990Y-160872166D01*
X71333990Y-160872166D02*
X71381609Y-160824547D01*
X71381609Y-160824547D02*
X71476847Y-160776928D01*
X71476847Y-160776928D02*
X71714942Y-160776928D01*
X71714942Y-160776928D02*
X71810180Y-160824547D01*
X71810180Y-160824547D02*
X71857800Y-160872166D01*
X71857800Y-160872166D02*
X71905419Y-160967404D01*
X71905419Y-160967404D02*
X71905419Y-161253118D01*
X71905419Y-161253118D02*
X71857800Y-161348356D01*
X71857800Y-161348356D02*
X71810180Y-161395975D01*
X71857800Y-160300737D02*
X71905419Y-160300737D01*
X71905419Y-160300737D02*
X72000657Y-160348356D01*
X72000657Y-160348356D02*
X72048276Y-160395975D01*
X70905419Y-159681690D02*
X70905419Y-159586452D01*
X70905419Y-159586452D02*
X70953038Y-159491214D01*
X70953038Y-159491214D02*
X71000657Y-159443595D01*
X71000657Y-159443595D02*
X71095895Y-159395976D01*
X71095895Y-159395976D02*
X71286371Y-159348357D01*
X71286371Y-159348357D02*
X71524466Y-159348357D01*
X71524466Y-159348357D02*
X71714942Y-159395976D01*
X71714942Y-159395976D02*
X71810180Y-159443595D01*
X71810180Y-159443595D02*
X71857800Y-159491214D01*
X71857800Y-159491214D02*
X71905419Y-159586452D01*
X71905419Y-159586452D02*
X71905419Y-159681690D01*
X71905419Y-159681690D02*
X71857800Y-159776928D01*
X71857800Y-159776928D02*
X71810180Y-159824547D01*
X71810180Y-159824547D02*
X71714942Y-159872166D01*
X71714942Y-159872166D02*
X71524466Y-159919785D01*
X71524466Y-159919785D02*
X71286371Y-159919785D01*
X71286371Y-159919785D02*
X71095895Y-159872166D01*
X71095895Y-159872166D02*
X71000657Y-159824547D01*
X71000657Y-159824547D02*
X70953038Y-159776928D01*
X70953038Y-159776928D02*
X70905419Y-159681690D01*
X70905419Y-158729309D02*
X70905419Y-158634071D01*
X70905419Y-158634071D02*
X70953038Y-158538833D01*
X70953038Y-158538833D02*
X71000657Y-158491214D01*
X71000657Y-158491214D02*
X71095895Y-158443595D01*
X71095895Y-158443595D02*
X71286371Y-158395976D01*
X71286371Y-158395976D02*
X71524466Y-158395976D01*
X71524466Y-158395976D02*
X71714942Y-158443595D01*
X71714942Y-158443595D02*
X71810180Y-158491214D01*
X71810180Y-158491214D02*
X71857800Y-158538833D01*
X71857800Y-158538833D02*
X71905419Y-158634071D01*
X71905419Y-158634071D02*
X71905419Y-158729309D01*
X71905419Y-158729309D02*
X71857800Y-158824547D01*
X71857800Y-158824547D02*
X71810180Y-158872166D01*
X71810180Y-158872166D02*
X71714942Y-158919785D01*
X71714942Y-158919785D02*
X71524466Y-158967404D01*
X71524466Y-158967404D02*
X71286371Y-158967404D01*
X71286371Y-158967404D02*
X71095895Y-158919785D01*
X71095895Y-158919785D02*
X71000657Y-158872166D01*
X71000657Y-158872166D02*
X70953038Y-158824547D01*
X70953038Y-158824547D02*
X70905419Y-158729309D01*
X70905419Y-157776928D02*
X70905419Y-157681690D01*
X70905419Y-157681690D02*
X70953038Y-157586452D01*
X70953038Y-157586452D02*
X71000657Y-157538833D01*
X71000657Y-157538833D02*
X71095895Y-157491214D01*
X71095895Y-157491214D02*
X71286371Y-157443595D01*
X71286371Y-157443595D02*
X71524466Y-157443595D01*
X71524466Y-157443595D02*
X71714942Y-157491214D01*
X71714942Y-157491214D02*
X71810180Y-157538833D01*
X71810180Y-157538833D02*
X71857800Y-157586452D01*
X71857800Y-157586452D02*
X71905419Y-157681690D01*
X71905419Y-157681690D02*
X71905419Y-157776928D01*
X71905419Y-157776928D02*
X71857800Y-157872166D01*
X71857800Y-157872166D02*
X71810180Y-157919785D01*
X71810180Y-157919785D02*
X71714942Y-157967404D01*
X71714942Y-157967404D02*
X71524466Y-158015023D01*
X71524466Y-158015023D02*
X71286371Y-158015023D01*
X71286371Y-158015023D02*
X71095895Y-157967404D01*
X71095895Y-157967404D02*
X71000657Y-157919785D01*
X71000657Y-157919785D02*
X70953038Y-157872166D01*
X70953038Y-157872166D02*
X70905419Y-157776928D01*
X70905419Y-156824547D02*
X70905419Y-156729309D01*
X70905419Y-156729309D02*
X70953038Y-156634071D01*
X70953038Y-156634071D02*
X71000657Y-156586452D01*
X71000657Y-156586452D02*
X71095895Y-156538833D01*
X71095895Y-156538833D02*
X71286371Y-156491214D01*
X71286371Y-156491214D02*
X71524466Y-156491214D01*
X71524466Y-156491214D02*
X71714942Y-156538833D01*
X71714942Y-156538833D02*
X71810180Y-156586452D01*
X71810180Y-156586452D02*
X71857800Y-156634071D01*
X71857800Y-156634071D02*
X71905419Y-156729309D01*
X71905419Y-156729309D02*
X71905419Y-156824547D01*
X71905419Y-156824547D02*
X71857800Y-156919785D01*
X71857800Y-156919785D02*
X71810180Y-156967404D01*
X71810180Y-156967404D02*
X71714942Y-157015023D01*
X71714942Y-157015023D02*
X71524466Y-157062642D01*
X71524466Y-157062642D02*
X71286371Y-157062642D01*
X71286371Y-157062642D02*
X71095895Y-157015023D01*
X71095895Y-157015023D02*
X71000657Y-156967404D01*
X71000657Y-156967404D02*
X70953038Y-156919785D01*
X70953038Y-156919785D02*
X70905419Y-156824547D01*
X71905419Y-155300737D02*
X71238752Y-155300737D01*
X71333990Y-155300737D02*
X71286371Y-155253118D01*
X71286371Y-155253118D02*
X71238752Y-155157880D01*
X71238752Y-155157880D02*
X71238752Y-155015023D01*
X71238752Y-155015023D02*
X71286371Y-154919785D01*
X71286371Y-154919785D02*
X71381609Y-154872166D01*
X71381609Y-154872166D02*
X71905419Y-154872166D01*
X71381609Y-154872166D02*
X71286371Y-154824547D01*
X71286371Y-154824547D02*
X71238752Y-154729309D01*
X71238752Y-154729309D02*
X71238752Y-154586452D01*
X71238752Y-154586452D02*
X71286371Y-154491213D01*
X71286371Y-154491213D02*
X71381609Y-154443594D01*
X71381609Y-154443594D02*
X71905419Y-154443594D01*
X71905419Y-153967404D02*
X71238752Y-153967404D01*
X71333990Y-153967404D02*
X71286371Y-153919785D01*
X71286371Y-153919785D02*
X71238752Y-153824547D01*
X71238752Y-153824547D02*
X71238752Y-153681690D01*
X71238752Y-153681690D02*
X71286371Y-153586452D01*
X71286371Y-153586452D02*
X71381609Y-153538833D01*
X71381609Y-153538833D02*
X71905419Y-153538833D01*
X71381609Y-153538833D02*
X71286371Y-153491214D01*
X71286371Y-153491214D02*
X71238752Y-153395976D01*
X71238752Y-153395976D02*
X71238752Y-153253119D01*
X71238752Y-153253119D02*
X71286371Y-153157880D01*
X71286371Y-153157880D02*
X71381609Y-153110261D01*
X71381609Y-153110261D02*
X71905419Y-153110261D01*
X138100600Y-158705500D02*
X72014180Y-158705500D01*
X138100600Y-155705500D02*
X72014180Y-155705500D01*
X72600600Y-158705500D02*
X72600600Y-155705500D01*
X72600600Y-158705500D02*
X72600600Y-155705500D01*
X72600600Y-158705500D02*
X72014179Y-157578996D01*
X72600600Y-158705500D02*
X73187021Y-157578996D01*
X72600600Y-155705500D02*
X73187021Y-156832004D01*
X72600600Y-155705500D02*
X72014179Y-156832004D01*
X68945419Y-35895975D02*
X68945419Y-35276928D01*
X68945419Y-35276928D02*
X69326371Y-35610261D01*
X69326371Y-35610261D02*
X69326371Y-35467404D01*
X69326371Y-35467404D02*
X69373990Y-35372166D01*
X69373990Y-35372166D02*
X69421609Y-35324547D01*
X69421609Y-35324547D02*
X69516847Y-35276928D01*
X69516847Y-35276928D02*
X69754942Y-35276928D01*
X69754942Y-35276928D02*
X69850180Y-35324547D01*
X69850180Y-35324547D02*
X69897800Y-35372166D01*
X69897800Y-35372166D02*
X69945419Y-35467404D01*
X69945419Y-35467404D02*
X69945419Y-35753118D01*
X69945419Y-35753118D02*
X69897800Y-35848356D01*
X69897800Y-35848356D02*
X69850180Y-35895975D01*
X69897800Y-34800737D02*
X69945419Y-34800737D01*
X69945419Y-34800737D02*
X70040657Y-34848356D01*
X70040657Y-34848356D02*
X70088276Y-34895975D01*
X68945419Y-34181690D02*
X68945419Y-34086452D01*
X68945419Y-34086452D02*
X68993038Y-33991214D01*
X68993038Y-33991214D02*
X69040657Y-33943595D01*
X69040657Y-33943595D02*
X69135895Y-33895976D01*
X69135895Y-33895976D02*
X69326371Y-33848357D01*
X69326371Y-33848357D02*
X69564466Y-33848357D01*
X69564466Y-33848357D02*
X69754942Y-33895976D01*
X69754942Y-33895976D02*
X69850180Y-33943595D01*
X69850180Y-33943595D02*
X69897800Y-33991214D01*
X69897800Y-33991214D02*
X69945419Y-34086452D01*
X69945419Y-34086452D02*
X69945419Y-34181690D01*
X69945419Y-34181690D02*
X69897800Y-34276928D01*
X69897800Y-34276928D02*
X69850180Y-34324547D01*
X69850180Y-34324547D02*
X69754942Y-34372166D01*
X69754942Y-34372166D02*
X69564466Y-34419785D01*
X69564466Y-34419785D02*
X69326371Y-34419785D01*
X69326371Y-34419785D02*
X69135895Y-34372166D01*
X69135895Y-34372166D02*
X69040657Y-34324547D01*
X69040657Y-34324547D02*
X68993038Y-34276928D01*
X68993038Y-34276928D02*
X68945419Y-34181690D01*
X68945419Y-33229309D02*
X68945419Y-33134071D01*
X68945419Y-33134071D02*
X68993038Y-33038833D01*
X68993038Y-33038833D02*
X69040657Y-32991214D01*
X69040657Y-32991214D02*
X69135895Y-32943595D01*
X69135895Y-32943595D02*
X69326371Y-32895976D01*
X69326371Y-32895976D02*
X69564466Y-32895976D01*
X69564466Y-32895976D02*
X69754942Y-32943595D01*
X69754942Y-32943595D02*
X69850180Y-32991214D01*
X69850180Y-32991214D02*
X69897800Y-33038833D01*
X69897800Y-33038833D02*
X69945419Y-33134071D01*
X69945419Y-33134071D02*
X69945419Y-33229309D01*
X69945419Y-33229309D02*
X69897800Y-33324547D01*
X69897800Y-33324547D02*
X69850180Y-33372166D01*
X69850180Y-33372166D02*
X69754942Y-33419785D01*
X69754942Y-33419785D02*
X69564466Y-33467404D01*
X69564466Y-33467404D02*
X69326371Y-33467404D01*
X69326371Y-33467404D02*
X69135895Y-33419785D01*
X69135895Y-33419785D02*
X69040657Y-33372166D01*
X69040657Y-33372166D02*
X68993038Y-33324547D01*
X68993038Y-33324547D02*
X68945419Y-33229309D01*
X68945419Y-32276928D02*
X68945419Y-32181690D01*
X68945419Y-32181690D02*
X68993038Y-32086452D01*
X68993038Y-32086452D02*
X69040657Y-32038833D01*
X69040657Y-32038833D02*
X69135895Y-31991214D01*
X69135895Y-31991214D02*
X69326371Y-31943595D01*
X69326371Y-31943595D02*
X69564466Y-31943595D01*
X69564466Y-31943595D02*
X69754942Y-31991214D01*
X69754942Y-31991214D02*
X69850180Y-32038833D01*
X69850180Y-32038833D02*
X69897800Y-32086452D01*
X69897800Y-32086452D02*
X69945419Y-32181690D01*
X69945419Y-32181690D02*
X69945419Y-32276928D01*
X69945419Y-32276928D02*
X69897800Y-32372166D01*
X69897800Y-32372166D02*
X69850180Y-32419785D01*
X69850180Y-32419785D02*
X69754942Y-32467404D01*
X69754942Y-32467404D02*
X69564466Y-32515023D01*
X69564466Y-32515023D02*
X69326371Y-32515023D01*
X69326371Y-32515023D02*
X69135895Y-32467404D01*
X69135895Y-32467404D02*
X69040657Y-32419785D01*
X69040657Y-32419785D02*
X68993038Y-32372166D01*
X68993038Y-32372166D02*
X68945419Y-32276928D01*
X68945419Y-31324547D02*
X68945419Y-31229309D01*
X68945419Y-31229309D02*
X68993038Y-31134071D01*
X68993038Y-31134071D02*
X69040657Y-31086452D01*
X69040657Y-31086452D02*
X69135895Y-31038833D01*
X69135895Y-31038833D02*
X69326371Y-30991214D01*
X69326371Y-30991214D02*
X69564466Y-30991214D01*
X69564466Y-30991214D02*
X69754942Y-31038833D01*
X69754942Y-31038833D02*
X69850180Y-31086452D01*
X69850180Y-31086452D02*
X69897800Y-31134071D01*
X69897800Y-31134071D02*
X69945419Y-31229309D01*
X69945419Y-31229309D02*
X69945419Y-31324547D01*
X69945419Y-31324547D02*
X69897800Y-31419785D01*
X69897800Y-31419785D02*
X69850180Y-31467404D01*
X69850180Y-31467404D02*
X69754942Y-31515023D01*
X69754942Y-31515023D02*
X69564466Y-31562642D01*
X69564466Y-31562642D02*
X69326371Y-31562642D01*
X69326371Y-31562642D02*
X69135895Y-31515023D01*
X69135895Y-31515023D02*
X69040657Y-31467404D01*
X69040657Y-31467404D02*
X68993038Y-31419785D01*
X68993038Y-31419785D02*
X68945419Y-31324547D01*
X69945419Y-29800737D02*
X69278752Y-29800737D01*
X69373990Y-29800737D02*
X69326371Y-29753118D01*
X69326371Y-29753118D02*
X69278752Y-29657880D01*
X69278752Y-29657880D02*
X69278752Y-29515023D01*
X69278752Y-29515023D02*
X69326371Y-29419785D01*
X69326371Y-29419785D02*
X69421609Y-29372166D01*
X69421609Y-29372166D02*
X69945419Y-29372166D01*
X69421609Y-29372166D02*
X69326371Y-29324547D01*
X69326371Y-29324547D02*
X69278752Y-29229309D01*
X69278752Y-29229309D02*
X69278752Y-29086452D01*
X69278752Y-29086452D02*
X69326371Y-28991213D01*
X69326371Y-28991213D02*
X69421609Y-28943594D01*
X69421609Y-28943594D02*
X69945419Y-28943594D01*
X69945419Y-28467404D02*
X69278752Y-28467404D01*
X69373990Y-28467404D02*
X69326371Y-28419785D01*
X69326371Y-28419785D02*
X69278752Y-28324547D01*
X69278752Y-28324547D02*
X69278752Y-28181690D01*
X69278752Y-28181690D02*
X69326371Y-28086452D01*
X69326371Y-28086452D02*
X69421609Y-28038833D01*
X69421609Y-28038833D02*
X69945419Y-28038833D01*
X69421609Y-28038833D02*
X69326371Y-27991214D01*
X69326371Y-27991214D02*
X69278752Y-27895976D01*
X69278752Y-27895976D02*
X69278752Y-27753119D01*
X69278752Y-27753119D02*
X69326371Y-27657880D01*
X69326371Y-27657880D02*
X69421609Y-27610261D01*
X69421609Y-27610261D02*
X69945419Y-27610261D01*
X138140600Y-30205500D02*
X70054180Y-30205500D01*
X138140600Y-33205500D02*
X70054180Y-33205500D01*
X70640600Y-30205500D02*
X70640600Y-33205500D01*
X70640600Y-30205500D02*
X70640600Y-33205500D01*
X70640600Y-30205500D02*
X71227021Y-31332004D01*
X70640600Y-30205500D02*
X70054179Y-31332004D01*
X70640600Y-33205500D02*
X70054179Y-32078996D01*
X70640600Y-33205500D02*
X71227021Y-32078996D01*
M02*
