%TF.GenerationSoftware,KiCad,Pcbnew,8.0.0*%
%TF.CreationDate,2024-05-14T17:12:12+02:00*%
%TF.ProjectId,VCO-3340-panel,56434f2d-3333-4343-902d-70616e656c2e,rev?*%
%TF.SameCoordinates,Original*%
%TF.FileFunction,Legend,Top*%
%TF.FilePolarity,Positive*%
%FSLAX46Y46*%
G04 Gerber Fmt 4.6, Leading zero omitted, Abs format (unit mm)*
G04 Created by KiCad (PCBNEW 8.0.0) date 2024-05-14 17:12:12*
%MOMM*%
%LPD*%
G01*
G04 APERTURE LIST*
%ADD10C,0.150000*%
%ADD11C,0.300000*%
G04 APERTURE END LIST*
D10*
X118120600Y-36455500D02*
G75*
G02*
X96120600Y-36455500I-11000000J0D01*
G01*
X96120600Y-36455500D02*
G75*
G02*
X118120600Y-36455500I11000000J0D01*
G01*
X180120600Y-208705500D02*
G75*
G02*
X34120600Y-208705500I-73000000J0D01*
G01*
X34120600Y-208705500D02*
G75*
G02*
X180120600Y-208705500I73000000J0D01*
G01*
X89487198Y-127190537D02*
G75*
G02*
X78320601Y-107468200I11833402J19722337D01*
G01*
X125077650Y-128759740D02*
G75*
G02*
X119320601Y-116468200I10242950J12291540D01*
G01*
X100826684Y-127845901D02*
G75*
G02*
X101320600Y-100468200I17493916J13377701D01*
G01*
X162120600Y-208705500D02*
G75*
G02*
X52120600Y-208705500I-55000000J0D01*
G01*
X52120600Y-208705500D02*
G75*
G02*
X162120600Y-208705500I55000000J0D01*
G01*
X177120600Y-208705500D02*
G75*
G02*
X37120600Y-208705500I-70000000J0D01*
G01*
X37120600Y-208705500D02*
G75*
G02*
X177120600Y-208705500I70000000J0D01*
G01*
X163120600Y-208705500D02*
G75*
G02*
X51120600Y-208705500I-56000000J0D01*
G01*
X51120600Y-208705500D02*
G75*
G02*
X163120600Y-208705500I56000000J0D01*
G01*
X107120600Y-41446067D02*
G75*
G02*
X138120600Y-51455500I0J-53009433D01*
G01*
X175120600Y-208705500D02*
G75*
G02*
X39120600Y-208705500I-68000000J0D01*
G01*
X39120600Y-208705500D02*
G75*
G02*
X175120600Y-208705500I68000000J0D01*
G01*
X76486117Y-49986091D02*
G75*
G02*
X107120600Y-40455501I30634483J-44469409D01*
G01*
X78320600Y-107468200D02*
G75*
G02*
X93178331Y-78844975I35000000J0D01*
G01*
X76120600Y-51455500D02*
G75*
G02*
X107120600Y-41446067I31000000J-43000000D01*
G01*
X119320601Y-116468200D02*
G75*
G02*
X124698531Y-100977095I24999999J0D01*
G01*
X165120600Y-208705500D02*
G75*
G02*
X49120600Y-208705500I-58000000J0D01*
G01*
X49120600Y-208705500D02*
G75*
G02*
X165120600Y-208705500I58000000J0D01*
G01*
X167120600Y-208705500D02*
G75*
G02*
X47120600Y-208705500I-60000000J0D01*
G01*
X47120600Y-208705500D02*
G75*
G02*
X167120600Y-208705500I60000000J0D01*
G01*
X179120600Y-208705500D02*
G75*
G02*
X35120600Y-208705500I-72000000J0D01*
G01*
X35120600Y-208705500D02*
G75*
G02*
X179120600Y-208705500I72000000J0D01*
G01*
X76543195Y-38232530D02*
G75*
G02*
X107120600Y-30455500I30577405J-56222970D01*
G01*
X97733711Y-49055089D02*
G75*
G02*
X107320599Y-79468200I-24413111J-24413111D01*
G01*
X107120600Y-30455500D02*
G75*
G02*
X138116817Y-38462335I0J-64000000D01*
G01*
X76186777Y-39572912D02*
G75*
G02*
X107120600Y-31455501I30933823J-54882588D01*
G01*
X107120600Y-31455500D02*
G75*
G02*
X137632501Y-39337228I0J-63000000D01*
G01*
X107120600Y-40455500D02*
G75*
G02*
X137755083Y-49986090I0J-54000000D01*
G01*
X117120600Y-36455500D02*
G75*
G02*
X97120600Y-36455500I-10000000J0D01*
G01*
X97120600Y-36455500D02*
G75*
G02*
X117120600Y-36455500I10000000J0D01*
G01*
D11*
G36*
X80461633Y-66157097D02*
G01*
X80467518Y-66273515D01*
X80484788Y-66386629D01*
X80512863Y-66495857D01*
X80551163Y-66600619D01*
X80599109Y-66700335D01*
X80656121Y-66794425D01*
X80721619Y-66882308D01*
X80795024Y-66963404D01*
X80875757Y-67037132D01*
X80963237Y-67102913D01*
X81056885Y-67160166D01*
X81156122Y-67208310D01*
X81260368Y-67246766D01*
X81369043Y-67274953D01*
X81481567Y-67292291D01*
X81597362Y-67298200D01*
X82733091Y-67298200D01*
X82733091Y-67079358D01*
X81597362Y-67079358D01*
X81457475Y-67068770D01*
X81324324Y-67038032D01*
X81199445Y-66988687D01*
X81084369Y-66922274D01*
X80980631Y-66840333D01*
X80889764Y-66744407D01*
X80813302Y-66636036D01*
X80752778Y-66516760D01*
X80709726Y-66388120D01*
X80685679Y-66251657D01*
X80680963Y-66157097D01*
X80691488Y-66016400D01*
X80722040Y-65882475D01*
X80771087Y-65756866D01*
X80837094Y-65641116D01*
X80918528Y-65536768D01*
X81013856Y-65445365D01*
X81121544Y-65368450D01*
X81240058Y-65307567D01*
X81367865Y-65264259D01*
X81503431Y-65240068D01*
X81597362Y-65235324D01*
X82733091Y-65235324D01*
X82733091Y-65016483D01*
X81597362Y-65016483D01*
X81481567Y-65022391D01*
X81369043Y-65039728D01*
X81260368Y-65067913D01*
X81156122Y-65106364D01*
X81056885Y-65154501D01*
X80963237Y-65211744D01*
X80875757Y-65277509D01*
X80795024Y-65351218D01*
X80721619Y-65432288D01*
X80656121Y-65520138D01*
X80599109Y-65614188D01*
X80551163Y-65713857D01*
X80512863Y-65818563D01*
X80484788Y-65927726D01*
X80467518Y-66040764D01*
X80461633Y-66157097D01*
G37*
G36*
X84535603Y-66841954D02*
G01*
X83515157Y-65016971D01*
X83249909Y-65015994D01*
X84535603Y-67314808D01*
X85821786Y-65015994D01*
X85557027Y-65015994D01*
X84535603Y-66841954D01*
G37*
G36*
X87445024Y-67298200D02*
G01*
X87709784Y-67298200D01*
X88730719Y-65481033D01*
X89751654Y-67297711D01*
X90016901Y-67298200D01*
X88730719Y-64999386D01*
X87445024Y-67298200D01*
G37*
G36*
X92462261Y-65016483D02*
G01*
X92341189Y-65026763D01*
X92226700Y-65056074D01*
X92120941Y-65102125D01*
X92026058Y-65162623D01*
X91944199Y-65235277D01*
X91877509Y-65317794D01*
X91855562Y-65353049D01*
X91795539Y-65267229D01*
X91719477Y-65190354D01*
X91629510Y-65124719D01*
X91527775Y-65072614D01*
X91416407Y-65036332D01*
X91297541Y-65018164D01*
X91248374Y-65016483D01*
X91139716Y-65024802D01*
X91036039Y-65048934D01*
X90938589Y-65087636D01*
X90848613Y-65139667D01*
X90767357Y-65203786D01*
X90696067Y-65278752D01*
X90635989Y-65363323D01*
X90588369Y-65456257D01*
X90554453Y-65556315D01*
X90535488Y-65662254D01*
X90531765Y-65735534D01*
X90531765Y-67298200D01*
X90751095Y-67298200D01*
X90751095Y-65735534D01*
X90761123Y-65634239D01*
X90789915Y-65540117D01*
X90849345Y-65435524D01*
X90931293Y-65349002D01*
X91031980Y-65284362D01*
X91147626Y-65245418D01*
X91248374Y-65235324D01*
X91349122Y-65245418D01*
X91442715Y-65274396D01*
X91546696Y-65334201D01*
X91632694Y-65416652D01*
X91696930Y-65517936D01*
X91730111Y-65609960D01*
X91745011Y-65709644D01*
X91745652Y-65735534D01*
X91745652Y-67298200D01*
X91964982Y-67298200D01*
X91964982Y-65735534D01*
X91975011Y-65634239D01*
X92003809Y-65540117D01*
X92063265Y-65435524D01*
X92145267Y-65349002D01*
X92246048Y-65284362D01*
X92361840Y-65245418D01*
X92462749Y-65235324D01*
X92563498Y-65245418D01*
X92657090Y-65274396D01*
X92761071Y-65334201D01*
X92847069Y-65416652D01*
X92911305Y-65517936D01*
X92944486Y-65609960D01*
X92959386Y-65709644D01*
X92960028Y-65735534D01*
X92960028Y-67298200D01*
X93179358Y-67298200D01*
X93179358Y-65735534D01*
X93171040Y-65626364D01*
X93146920Y-65522248D01*
X93108248Y-65424426D01*
X93056277Y-65334142D01*
X92992256Y-65252635D01*
X92917437Y-65181147D01*
X92833070Y-65120919D01*
X92740408Y-65073193D01*
X92640700Y-65039210D01*
X92535197Y-65020211D01*
X92462261Y-65016483D01*
G37*
G36*
X94881435Y-65990702D02*
G01*
X94967722Y-66049421D01*
X94999456Y-66141954D01*
X94994392Y-66180053D01*
X94935673Y-66266080D01*
X94843140Y-66297781D01*
X94812301Y-66294511D01*
X94723266Y-66240024D01*
X94686825Y-66141954D01*
X94691889Y-66103659D01*
X94750607Y-66017372D01*
X94843140Y-65985638D01*
X94881435Y-65990702D01*
G37*
G36*
X94958854Y-65022323D02*
G01*
X95071319Y-65039458D01*
X95179953Y-65067310D01*
X95284174Y-65105303D01*
X95383400Y-65152859D01*
X95477050Y-65209399D01*
X95564543Y-65274348D01*
X95645295Y-65347127D01*
X95718725Y-65427158D01*
X95784253Y-65513865D01*
X95841295Y-65606670D01*
X95889270Y-65704996D01*
X95927597Y-65808264D01*
X95955694Y-65915899D01*
X95972979Y-66027321D01*
X95978869Y-66141954D01*
X95972979Y-66259991D01*
X95955694Y-66374661D01*
X95927597Y-66485376D01*
X95889270Y-66591552D01*
X95841295Y-66692600D01*
X95784253Y-66787937D01*
X95718725Y-66876975D01*
X95645295Y-66959129D01*
X95564543Y-67033813D01*
X95477050Y-67100440D01*
X95383400Y-67158425D01*
X95284174Y-67207181D01*
X95179953Y-67246122D01*
X95071319Y-67274663D01*
X94958854Y-67292218D01*
X94843140Y-67298200D01*
X94727345Y-67292218D01*
X94614821Y-67274663D01*
X94506146Y-67246122D01*
X94401900Y-67207181D01*
X94302663Y-67158425D01*
X94209015Y-67100440D01*
X94121535Y-67033813D01*
X94040802Y-66959129D01*
X93967397Y-66876975D01*
X93901899Y-66787937D01*
X93844887Y-66692600D01*
X93796941Y-66591552D01*
X93758641Y-66485376D01*
X93730566Y-66374661D01*
X93713296Y-66259991D01*
X93707411Y-66141954D01*
X93926741Y-66141954D01*
X93931462Y-66237731D01*
X93955534Y-66376090D01*
X93998625Y-66506662D01*
X94059194Y-66627851D01*
X94135700Y-66738061D01*
X94226603Y-66835695D01*
X94330362Y-66919157D01*
X94445436Y-66986850D01*
X94570284Y-67037179D01*
X94703366Y-67068547D01*
X94843140Y-67079358D01*
X94936991Y-67074514D01*
X95072475Y-67049821D01*
X95200238Y-67005635D01*
X95318742Y-66943552D01*
X95426443Y-66865169D01*
X95521803Y-66772081D01*
X95603279Y-66665886D01*
X95669332Y-66548180D01*
X95718420Y-66420558D01*
X95749003Y-66284617D01*
X95759539Y-66141954D01*
X95754824Y-66048857D01*
X95730777Y-65914565D01*
X95687724Y-65788031D01*
X95627200Y-65670758D01*
X95550738Y-65564247D01*
X95459871Y-65470002D01*
X95356133Y-65389524D01*
X95241057Y-65324315D01*
X95116178Y-65275877D01*
X94983027Y-65245713D01*
X94843140Y-65235324D01*
X94749209Y-65239979D01*
X94613643Y-65263718D01*
X94485836Y-65306231D01*
X94367322Y-65366017D01*
X94259634Y-65441572D01*
X94164306Y-65531395D01*
X94082872Y-65633984D01*
X94016865Y-65747837D01*
X93967818Y-65871450D01*
X93937266Y-66003324D01*
X93926741Y-66141954D01*
X93707411Y-66141954D01*
X93713296Y-66027321D01*
X93730566Y-65915899D01*
X93758641Y-65808264D01*
X93796941Y-65704996D01*
X93844887Y-65606670D01*
X93901899Y-65513865D01*
X93967397Y-65427158D01*
X94040802Y-65347127D01*
X94121535Y-65274348D01*
X94209015Y-65209399D01*
X94302663Y-65152859D01*
X94401900Y-65105303D01*
X94506146Y-65067310D01*
X94614821Y-65039458D01*
X94727345Y-65022323D01*
X94843140Y-65016483D01*
X94958854Y-65022323D01*
G37*
G36*
X98559539Y-66157585D02*
G01*
X98549014Y-66298283D01*
X98518462Y-66432207D01*
X98469415Y-66557816D01*
X98403408Y-66673567D01*
X98321974Y-66777915D01*
X98226646Y-66869318D01*
X98118959Y-66946232D01*
X98000445Y-67007115D01*
X97872638Y-67050424D01*
X97737071Y-67074614D01*
X97643140Y-67079358D01*
X97503253Y-67068770D01*
X97370103Y-67038036D01*
X97245223Y-66988698D01*
X97130147Y-66922299D01*
X97026409Y-66840384D01*
X96935542Y-66744494D01*
X96859080Y-66636174D01*
X96798556Y-66516966D01*
X96755504Y-66388413D01*
X96731457Y-66252060D01*
X96726741Y-66157585D01*
X96726741Y-65015994D01*
X96507411Y-65015994D01*
X96507411Y-66157585D01*
X96513296Y-66273918D01*
X96530566Y-66386956D01*
X96558641Y-66496119D01*
X96596941Y-66600825D01*
X96644887Y-66700494D01*
X96701899Y-66794544D01*
X96767397Y-66882395D01*
X96840802Y-66963465D01*
X96921535Y-67037173D01*
X97009015Y-67102939D01*
X97102663Y-67160181D01*
X97201900Y-67208318D01*
X97306146Y-67246770D01*
X97414821Y-67274954D01*
X97527345Y-67292291D01*
X97643140Y-67298200D01*
X97758854Y-67292291D01*
X97871319Y-67274954D01*
X97979953Y-67246770D01*
X98084174Y-67208318D01*
X98183400Y-67160181D01*
X98277050Y-67102939D01*
X98364543Y-67037173D01*
X98445295Y-66963465D01*
X98518725Y-66882395D01*
X98584253Y-66794544D01*
X98641295Y-66700494D01*
X98689270Y-66600825D01*
X98727597Y-66496119D01*
X98755694Y-66386956D01*
X98772979Y-66273918D01*
X98778869Y-66157585D01*
X98778869Y-65015994D01*
X98559539Y-65015994D01*
X98559539Y-66157585D01*
G37*
G36*
X100443140Y-65016483D02*
G01*
X100327345Y-65022385D01*
X100214821Y-65039707D01*
X100106146Y-65067868D01*
X100001900Y-65106288D01*
X99902663Y-65154388D01*
X99809015Y-65211589D01*
X99721535Y-65277311D01*
X99640802Y-65350973D01*
X99567397Y-65431998D01*
X99501899Y-65519804D01*
X99444887Y-65613813D01*
X99396941Y-65713445D01*
X99358641Y-65818120D01*
X99330566Y-65927259D01*
X99313296Y-66040281D01*
X99307411Y-66156608D01*
X99307411Y-67298200D01*
X99526741Y-67298200D01*
X99526741Y-66156608D01*
X99537266Y-66016036D01*
X99567818Y-65882213D01*
X99616865Y-65756685D01*
X99682872Y-65640997D01*
X99764306Y-65536694D01*
X99859634Y-65445324D01*
X99967322Y-65368430D01*
X100085836Y-65307559D01*
X100213643Y-65264257D01*
X100349209Y-65240068D01*
X100443140Y-65235324D01*
X100583027Y-65245912D01*
X100716178Y-65276643D01*
X100841057Y-65325974D01*
X100956133Y-65392357D01*
X101059871Y-65474248D01*
X101150738Y-65570101D01*
X101227200Y-65678370D01*
X101287724Y-65797510D01*
X101330777Y-65925975D01*
X101354824Y-66062220D01*
X101359539Y-66156608D01*
X101359539Y-67298200D01*
X101578869Y-67298200D01*
X101578869Y-66156608D01*
X101572979Y-66040281D01*
X101555694Y-65927259D01*
X101527597Y-65818120D01*
X101489270Y-65713445D01*
X101441295Y-65613813D01*
X101384253Y-65519804D01*
X101318725Y-65431998D01*
X101245295Y-65350973D01*
X101164543Y-65277311D01*
X101077050Y-65211589D01*
X100983400Y-65154388D01*
X100884174Y-65106288D01*
X100779953Y-65067868D01*
X100671319Y-65039707D01*
X100558854Y-65022385D01*
X100443140Y-65016483D01*
G37*
G36*
X101939372Y-65235324D02*
G01*
X102965192Y-65235324D01*
X102965192Y-67298200D01*
X103184522Y-67298200D01*
X103184522Y-65235324D01*
X104210830Y-65235324D01*
X104210830Y-65016483D01*
X101939372Y-65016483D01*
X101939372Y-65235324D01*
G37*
G36*
X110488360Y-67016483D02*
G01*
X108839721Y-67016483D01*
X108839721Y-67176218D01*
X108839721Y-67219693D01*
X108839721Y-69298200D01*
X109059051Y-69298200D01*
X109059051Y-68267006D01*
X110503992Y-68267006D01*
X110503992Y-68047676D01*
X109059051Y-68047188D01*
X109059051Y-67235324D01*
X110488360Y-67235324D01*
X110927020Y-67235324D01*
X111111179Y-67235324D01*
X111111179Y-67016483D01*
X110488360Y-67016483D01*
G37*
G36*
X112234208Y-67235324D02*
G01*
X112234208Y-67016483D01*
X111638744Y-67016483D01*
X111638744Y-67235324D01*
X111826811Y-67235324D01*
X111826811Y-69079358D01*
X111638744Y-69079358D01*
X111638744Y-69298200D01*
X112234208Y-69298200D01*
X112234208Y-69079358D01*
X112046141Y-69079358D01*
X112046141Y-67235324D01*
X112234208Y-67235324D01*
G37*
G36*
X113897013Y-67016483D02*
G01*
X113781218Y-67022385D01*
X113668694Y-67039707D01*
X113560019Y-67067868D01*
X113455773Y-67106288D01*
X113356536Y-67154388D01*
X113262888Y-67211589D01*
X113175408Y-67277311D01*
X113094675Y-67350973D01*
X113021270Y-67431998D01*
X112955772Y-67519804D01*
X112898760Y-67613813D01*
X112850814Y-67713445D01*
X112812514Y-67818120D01*
X112784439Y-67927259D01*
X112767169Y-68040281D01*
X112761284Y-68156608D01*
X112761284Y-69298200D01*
X112980614Y-69298200D01*
X112980614Y-68156608D01*
X112991139Y-68016036D01*
X113021692Y-67882213D01*
X113070738Y-67756685D01*
X113136745Y-67640997D01*
X113218179Y-67536694D01*
X113313507Y-67445324D01*
X113421195Y-67368430D01*
X113539709Y-67307559D01*
X113667516Y-67264257D01*
X113803082Y-67240068D01*
X113897013Y-67235324D01*
X114036901Y-67245912D01*
X114170051Y-67276643D01*
X114294931Y-67325974D01*
X114410006Y-67392357D01*
X114513744Y-67474248D01*
X114604611Y-67570101D01*
X114681073Y-67678370D01*
X114741597Y-67797510D01*
X114784650Y-67925975D01*
X114808697Y-68062220D01*
X114813412Y-68156608D01*
X114813412Y-69298200D01*
X115032742Y-69298200D01*
X115032742Y-68156608D01*
X115026852Y-68040281D01*
X115009567Y-67927259D01*
X114981470Y-67818120D01*
X114943143Y-67713445D01*
X114895168Y-67613813D01*
X114838126Y-67519804D01*
X114772598Y-67431998D01*
X114699168Y-67350973D01*
X114618416Y-67277311D01*
X114530924Y-67211589D01*
X114437273Y-67154388D01*
X114338047Y-67106288D01*
X114233826Y-67067868D01*
X114125192Y-67039707D01*
X114012727Y-67022385D01*
X113897013Y-67016483D01*
G37*
G36*
X115561284Y-68157097D02*
G01*
X115567169Y-68273515D01*
X115584439Y-68386629D01*
X115612514Y-68495857D01*
X115650814Y-68600619D01*
X115698760Y-68700335D01*
X115755772Y-68794425D01*
X115821270Y-68882308D01*
X115894675Y-68963404D01*
X115975408Y-69037132D01*
X116062888Y-69102913D01*
X116156536Y-69160166D01*
X116255773Y-69208310D01*
X116360019Y-69246766D01*
X116468694Y-69274953D01*
X116581218Y-69292291D01*
X116697013Y-69298200D01*
X117832742Y-69298200D01*
X117832742Y-69079358D01*
X116697013Y-69079358D01*
X116565691Y-69070028D01*
X116440200Y-69042943D01*
X116321815Y-68999464D01*
X116211807Y-68940949D01*
X116111449Y-68868760D01*
X116022015Y-68784255D01*
X115944776Y-68688793D01*
X115881005Y-68583736D01*
X115831976Y-68470441D01*
X115798961Y-68350270D01*
X115786476Y-68267006D01*
X117832742Y-68267006D01*
X117832742Y-68047676D01*
X115786476Y-68047676D01*
X115808108Y-67923687D01*
X115846603Y-67805690D01*
X115900687Y-67695039D01*
X115969088Y-67593090D01*
X116050534Y-67501196D01*
X116143751Y-67420713D01*
X116247467Y-67352996D01*
X116360408Y-67299400D01*
X116481304Y-67261279D01*
X116608880Y-67239988D01*
X116697013Y-67235813D01*
X117832742Y-67235813D01*
X117832742Y-67016483D01*
X116697013Y-67016483D01*
X116581218Y-67022391D01*
X116468694Y-67039728D01*
X116360019Y-67067913D01*
X116255773Y-67106364D01*
X116156536Y-67154501D01*
X116062888Y-67211744D01*
X115975408Y-67277509D01*
X115894675Y-67351218D01*
X115821270Y-67432288D01*
X115755772Y-67520138D01*
X115698760Y-67614188D01*
X115650814Y-67713857D01*
X115612514Y-67818563D01*
X115584439Y-67927726D01*
X115567169Y-68040764D01*
X115561284Y-68157097D01*
G37*
G36*
X110239721Y-146222624D02*
G01*
X111265541Y-146222624D01*
X111265541Y-148285500D01*
X111484871Y-148285500D01*
X111484871Y-146222624D01*
X112511179Y-146222624D01*
X112511179Y-146003783D01*
X110239721Y-146003783D01*
X110239721Y-146222624D01*
G37*
G36*
X114813156Y-146016545D02*
G01*
X114929725Y-146053120D01*
X115035476Y-146110944D01*
X115127814Y-146187453D01*
X115204147Y-146280083D01*
X115261880Y-146386267D01*
X115298422Y-146503443D01*
X115311179Y-146629045D01*
X115308155Y-146690711D01*
X115290472Y-146789596D01*
X115250691Y-146899674D01*
X115193709Y-146997522D01*
X115122752Y-147080108D01*
X115041047Y-147144397D01*
X115096552Y-147185074D01*
X115171450Y-147261898D01*
X115233449Y-147354995D01*
X115279322Y-147461334D01*
X115302904Y-147557875D01*
X115311179Y-147659749D01*
X115311179Y-148285500D01*
X115091849Y-148285500D01*
X115091849Y-147659749D01*
X115079263Y-147557835D01*
X115043540Y-147465711D01*
X114974429Y-147372398D01*
X114881671Y-147302886D01*
X114790113Y-147266962D01*
X114688849Y-147254306D01*
X113259051Y-147254306D01*
X113259051Y-148285500D01*
X113039721Y-148285500D01*
X113039721Y-146222624D01*
X113258562Y-146222624D01*
X113258562Y-147034976D01*
X114688849Y-147034976D01*
X114790113Y-147022125D01*
X114881671Y-146986066D01*
X114974429Y-146916457D01*
X115043540Y-146823098D01*
X115079263Y-146730960D01*
X115091849Y-146629045D01*
X115079261Y-146526903D01*
X115043525Y-146434563D01*
X114974368Y-146341021D01*
X114881512Y-146271333D01*
X114789820Y-146235314D01*
X114688360Y-146222624D01*
X113258562Y-146222624D01*
X113039721Y-146222624D01*
X113039721Y-146003783D01*
X114688360Y-146003783D01*
X114813156Y-146016545D01*
G37*
G36*
X116434208Y-146222624D02*
G01*
X116434208Y-146003783D01*
X115838744Y-146003783D01*
X115838744Y-146222624D01*
X116026811Y-146222624D01*
X116026811Y-148066658D01*
X115838744Y-148066658D01*
X115838744Y-148285500D01*
X116434208Y-148285500D01*
X116434208Y-148066658D01*
X116246141Y-148066658D01*
X116246141Y-146222624D01*
X116434208Y-146222624D01*
G37*
G36*
X98622833Y-116003783D02*
G01*
X98498058Y-116016545D01*
X98381544Y-116053120D01*
X98275871Y-116110944D01*
X98183623Y-116187453D01*
X98107380Y-116280083D01*
X98049724Y-116386267D01*
X98013238Y-116503443D01*
X98000502Y-116629045D01*
X98013238Y-116754506D01*
X98049724Y-116871616D01*
X98107380Y-116977792D01*
X98183623Y-117070452D01*
X98275871Y-117147016D01*
X98381544Y-117204900D01*
X98498058Y-117241524D01*
X98622833Y-117254306D01*
X99649141Y-117254306D01*
X99750601Y-117266964D01*
X99842293Y-117302901D01*
X99935149Y-117372459D01*
X100004306Y-117465870D01*
X100040042Y-117558129D01*
X100052630Y-117660238D01*
X100040042Y-117762379D01*
X100004306Y-117854719D01*
X99935149Y-117948261D01*
X99842293Y-118017949D01*
X99750601Y-118053968D01*
X99649141Y-118066658D01*
X98000502Y-118066658D01*
X98000502Y-118285500D01*
X99649141Y-118285500D01*
X99773937Y-118272738D01*
X99890506Y-118236162D01*
X99996257Y-118178338D01*
X100088595Y-118101829D01*
X100164928Y-118009200D01*
X100222661Y-117903015D01*
X100259203Y-117785840D01*
X100271960Y-117660238D01*
X100259203Y-117534636D01*
X100222661Y-117417460D01*
X100164928Y-117311276D01*
X100088595Y-117218647D01*
X99996257Y-117142138D01*
X99890506Y-117084313D01*
X99773937Y-117047738D01*
X99649141Y-117034976D01*
X98622833Y-117034976D01*
X98521405Y-117022287D01*
X98429794Y-116986268D01*
X98337068Y-116916579D01*
X98268042Y-116823037D01*
X98232388Y-116730697D01*
X98219832Y-116628556D01*
X98232388Y-116526610D01*
X98268042Y-116434404D01*
X98337068Y-116340960D01*
X98429794Y-116271318D01*
X98521405Y-116235312D01*
X98622833Y-116222624D01*
X100271960Y-116222624D01*
X100271960Y-116003783D01*
X98622833Y-116003783D01*
G37*
G36*
X101974525Y-116978002D02*
G01*
X102060813Y-117036721D01*
X102092546Y-117129254D01*
X102087482Y-117167353D01*
X102028764Y-117253380D01*
X101936231Y-117285081D01*
X101905392Y-117281811D01*
X101816357Y-117227324D01*
X101779916Y-117129254D01*
X101784980Y-117090959D01*
X101843698Y-117004672D01*
X101936231Y-116972938D01*
X101974525Y-116978002D01*
G37*
G36*
X102051945Y-116009623D02*
G01*
X102164410Y-116026758D01*
X102273044Y-116054610D01*
X102377265Y-116092603D01*
X102476491Y-116140159D01*
X102570141Y-116196699D01*
X102657633Y-116261648D01*
X102738386Y-116334427D01*
X102811816Y-116414458D01*
X102877344Y-116501165D01*
X102934386Y-116593970D01*
X102982361Y-116692296D01*
X103020688Y-116795564D01*
X103048785Y-116903199D01*
X103066069Y-117014621D01*
X103071960Y-117129254D01*
X103066069Y-117247291D01*
X103048785Y-117361961D01*
X103020688Y-117472676D01*
X102982361Y-117578852D01*
X102934386Y-117679900D01*
X102877344Y-117775237D01*
X102811816Y-117864275D01*
X102738386Y-117946429D01*
X102657633Y-118021113D01*
X102570141Y-118087740D01*
X102476491Y-118145725D01*
X102377265Y-118194481D01*
X102273044Y-118233422D01*
X102164410Y-118261963D01*
X102051945Y-118279518D01*
X101936231Y-118285500D01*
X101820436Y-118279518D01*
X101707912Y-118261963D01*
X101599237Y-118233422D01*
X101494991Y-118194481D01*
X101395754Y-118145725D01*
X101302106Y-118087740D01*
X101214626Y-118021113D01*
X101133893Y-117946429D01*
X101060488Y-117864275D01*
X100994990Y-117775237D01*
X100937978Y-117679900D01*
X100890032Y-117578852D01*
X100851732Y-117472676D01*
X100823657Y-117361961D01*
X100806387Y-117247291D01*
X100800502Y-117129254D01*
X101019832Y-117129254D01*
X101024553Y-117225031D01*
X101048625Y-117363390D01*
X101091716Y-117493962D01*
X101152285Y-117615151D01*
X101228791Y-117725361D01*
X101319694Y-117822995D01*
X101423453Y-117906457D01*
X101538527Y-117974150D01*
X101663375Y-118024479D01*
X101796457Y-118055847D01*
X101936231Y-118066658D01*
X102030082Y-118061814D01*
X102165565Y-118037121D01*
X102293329Y-117992935D01*
X102411833Y-117930852D01*
X102519534Y-117852469D01*
X102614894Y-117759381D01*
X102696370Y-117653186D01*
X102762423Y-117535480D01*
X102811511Y-117407858D01*
X102842094Y-117271917D01*
X102852630Y-117129254D01*
X102847915Y-117036157D01*
X102823867Y-116901865D01*
X102780815Y-116775331D01*
X102720291Y-116658058D01*
X102643829Y-116551547D01*
X102552962Y-116457302D01*
X102449224Y-116376824D01*
X102334148Y-116311615D01*
X102209269Y-116263177D01*
X102076118Y-116233013D01*
X101936231Y-116222624D01*
X101842300Y-116227279D01*
X101706734Y-116251018D01*
X101578927Y-116293531D01*
X101460413Y-116353317D01*
X101352725Y-116428872D01*
X101257397Y-116518695D01*
X101175963Y-116621284D01*
X101109956Y-116735137D01*
X101060909Y-116858750D01*
X101030357Y-116990624D01*
X101019832Y-117129254D01*
X100800502Y-117129254D01*
X100806387Y-117014621D01*
X100823657Y-116903199D01*
X100851732Y-116795564D01*
X100890032Y-116692296D01*
X100937978Y-116593970D01*
X100994990Y-116501165D01*
X101060488Y-116414458D01*
X101133893Y-116334427D01*
X101214626Y-116261648D01*
X101302106Y-116196699D01*
X101395754Y-116140159D01*
X101494991Y-116092603D01*
X101599237Y-116054610D01*
X101707912Y-116026758D01*
X101820436Y-116009623D01*
X101936231Y-116003783D01*
X102051945Y-116009623D01*
G37*
G36*
X105249141Y-116003783D02*
G01*
X103600502Y-116003783D01*
X103600502Y-116163518D01*
X103600502Y-116206993D01*
X103600502Y-118285500D01*
X103819832Y-118285500D01*
X103819832Y-117254306D01*
X105264773Y-117254306D01*
X105264773Y-117034976D01*
X103819832Y-117034488D01*
X103819832Y-116222624D01*
X105249141Y-116222624D01*
X105687801Y-116222624D01*
X105871960Y-116222624D01*
X105871960Y-116003783D01*
X105249141Y-116003783D01*
G37*
G36*
X106400502Y-116222624D02*
G01*
X107426322Y-116222624D01*
X107426322Y-118285500D01*
X107645652Y-118285500D01*
X107645652Y-116222624D01*
X108671960Y-116222624D01*
X108671960Y-116003783D01*
X106400502Y-116003783D01*
X106400502Y-116222624D01*
G37*
G36*
X82506713Y-118003783D02*
G01*
X82506713Y-118222624D01*
X82850607Y-118222624D01*
X82850607Y-120285500D01*
X83069937Y-120285500D01*
X83069937Y-118003783D01*
X82506713Y-118003783D01*
G37*
G36*
X84869518Y-119829254D02*
G01*
X83849071Y-118004271D01*
X83583824Y-118003294D01*
X84869518Y-120302108D01*
X86155701Y-118003294D01*
X85890453Y-118003294D01*
X84869518Y-119829254D01*
G37*
G36*
X87775520Y-118003294D02*
G01*
X87540558Y-118003294D01*
X86663238Y-120285500D01*
X86898199Y-120285500D01*
X87775520Y-118003294D01*
G37*
G36*
X89468315Y-118978002D02*
G01*
X89554602Y-119036721D01*
X89586336Y-119129254D01*
X89581272Y-119167353D01*
X89522554Y-119253380D01*
X89430021Y-119285081D01*
X89399181Y-119281811D01*
X89310146Y-119227324D01*
X89273705Y-119129254D01*
X89278769Y-119090959D01*
X89337488Y-119004672D01*
X89430021Y-118972938D01*
X89468315Y-118978002D01*
G37*
G36*
X89545735Y-118009623D02*
G01*
X89658200Y-118026758D01*
X89766833Y-118054610D01*
X89871054Y-118092603D01*
X89970281Y-118140159D01*
X90063931Y-118196699D01*
X90151423Y-118261648D01*
X90232175Y-118334427D01*
X90305606Y-118414458D01*
X90371133Y-118501165D01*
X90428175Y-118593970D01*
X90476151Y-118692296D01*
X90514478Y-118795564D01*
X90542574Y-118903199D01*
X90559859Y-119014621D01*
X90565750Y-119129254D01*
X90559859Y-119247291D01*
X90542574Y-119361961D01*
X90514478Y-119472676D01*
X90476151Y-119578852D01*
X90428175Y-119679900D01*
X90371133Y-119775237D01*
X90305606Y-119864275D01*
X90232175Y-119946429D01*
X90151423Y-120021113D01*
X90063931Y-120087740D01*
X89970281Y-120145725D01*
X89871054Y-120194481D01*
X89766833Y-120233422D01*
X89658200Y-120261963D01*
X89545735Y-120279518D01*
X89430021Y-120285500D01*
X89314226Y-120279518D01*
X89201701Y-120261963D01*
X89093026Y-120233422D01*
X88988781Y-120194481D01*
X88889544Y-120145725D01*
X88795896Y-120087740D01*
X88708415Y-120021113D01*
X88627683Y-119946429D01*
X88554278Y-119864275D01*
X88488779Y-119775237D01*
X88431767Y-119679900D01*
X88383822Y-119578852D01*
X88345521Y-119472676D01*
X88317447Y-119361961D01*
X88300177Y-119247291D01*
X88294291Y-119129254D01*
X88513621Y-119129254D01*
X88518342Y-119225031D01*
X88542414Y-119363390D01*
X88585505Y-119493962D01*
X88646074Y-119615151D01*
X88722580Y-119725361D01*
X88813483Y-119822995D01*
X88917242Y-119906457D01*
X89032316Y-119974150D01*
X89157164Y-120024479D01*
X89290246Y-120055847D01*
X89430021Y-120066658D01*
X89523871Y-120061814D01*
X89659355Y-120037121D01*
X89787119Y-119992935D01*
X89905622Y-119930852D01*
X90013324Y-119852469D01*
X90108683Y-119759381D01*
X90190160Y-119653186D01*
X90256212Y-119535480D01*
X90305300Y-119407858D01*
X90335883Y-119271917D01*
X90346420Y-119129254D01*
X90341704Y-119036157D01*
X90317657Y-118901865D01*
X90274605Y-118775331D01*
X90214081Y-118658058D01*
X90137618Y-118551547D01*
X90046752Y-118457302D01*
X89943014Y-118376824D01*
X89827938Y-118311615D01*
X89703058Y-118263177D01*
X89569908Y-118233013D01*
X89430021Y-118222624D01*
X89336089Y-118227279D01*
X89200523Y-118251018D01*
X89072716Y-118293531D01*
X88954202Y-118353317D01*
X88846514Y-118428872D01*
X88751187Y-118518695D01*
X88669753Y-118621284D01*
X88603746Y-118735137D01*
X88554699Y-118858750D01*
X88524146Y-118990624D01*
X88513621Y-119129254D01*
X88294291Y-119129254D01*
X88300177Y-119014621D01*
X88317447Y-118903199D01*
X88345521Y-118795564D01*
X88383822Y-118692296D01*
X88431767Y-118593970D01*
X88488779Y-118501165D01*
X88554278Y-118414458D01*
X88627683Y-118334427D01*
X88708415Y-118261648D01*
X88795896Y-118196699D01*
X88889544Y-118140159D01*
X88988781Y-118092603D01*
X89093026Y-118054610D01*
X89201701Y-118026758D01*
X89314226Y-118009623D01*
X89430021Y-118003783D01*
X89545735Y-118009623D01*
G37*
G36*
X91094291Y-119144397D02*
G01*
X91100177Y-119260815D01*
X91117447Y-119373929D01*
X91145521Y-119483157D01*
X91183822Y-119587919D01*
X91231767Y-119687635D01*
X91288779Y-119781725D01*
X91354278Y-119869608D01*
X91427683Y-119950704D01*
X91508415Y-120024432D01*
X91595896Y-120090213D01*
X91689544Y-120147466D01*
X91788781Y-120195610D01*
X91893026Y-120234066D01*
X92001701Y-120262253D01*
X92114226Y-120279591D01*
X92230021Y-120285500D01*
X93365750Y-120285500D01*
X93365750Y-120066658D01*
X92230021Y-120066658D01*
X92090133Y-120056070D01*
X91956983Y-120025332D01*
X91832103Y-119975987D01*
X91717028Y-119909574D01*
X91613290Y-119827633D01*
X91522423Y-119731707D01*
X91445960Y-119623336D01*
X91385436Y-119504060D01*
X91342384Y-119375420D01*
X91318337Y-119238957D01*
X91313621Y-119144397D01*
X91324146Y-119003700D01*
X91354699Y-118869775D01*
X91403746Y-118744166D01*
X91469753Y-118628416D01*
X91551187Y-118524068D01*
X91646514Y-118432665D01*
X91754202Y-118355750D01*
X91872716Y-118294867D01*
X92000523Y-118251559D01*
X92136089Y-118227368D01*
X92230021Y-118222624D01*
X93365750Y-118222624D01*
X93365750Y-118003783D01*
X92230021Y-118003783D01*
X92114226Y-118009691D01*
X92001701Y-118027028D01*
X91893026Y-118055213D01*
X91788781Y-118093664D01*
X91689544Y-118141801D01*
X91595896Y-118199044D01*
X91508415Y-118264809D01*
X91427683Y-118338518D01*
X91354278Y-118419588D01*
X91288779Y-118507438D01*
X91231767Y-118601488D01*
X91183822Y-118701157D01*
X91145521Y-118805863D01*
X91117447Y-118915026D01*
X91100177Y-119028064D01*
X91094291Y-119144397D01*
G37*
G36*
X93894291Y-118222624D02*
G01*
X94920111Y-118222624D01*
X94920111Y-120285500D01*
X95139441Y-120285500D01*
X95139441Y-118222624D01*
X96165750Y-118222624D01*
X96165750Y-118003783D01*
X93894291Y-118003783D01*
X93894291Y-118222624D01*
G37*
G36*
X99914878Y-112035465D02*
G01*
X98082080Y-112035465D01*
X98082080Y-111003294D01*
X97862750Y-111003294D01*
X97862750Y-113285500D01*
X98082080Y-113285500D01*
X98082080Y-112254306D01*
X99914878Y-112254306D01*
X99914878Y-113285500D01*
X100134208Y-113285500D01*
X100134208Y-111003294D01*
X99914878Y-111003294D01*
X99914878Y-112035465D01*
G37*
G36*
X100651026Y-113285500D02*
G01*
X100915785Y-113285500D01*
X101936720Y-111468333D01*
X102957656Y-113285011D01*
X103222903Y-113285500D01*
X101936720Y-110986686D01*
X100651026Y-113285500D01*
G37*
G36*
X105511691Y-111016545D02*
G01*
X105628260Y-111053120D01*
X105734011Y-111110944D01*
X105826349Y-111187453D01*
X105902681Y-111280083D01*
X105960415Y-111386267D01*
X105996957Y-111503443D01*
X106009714Y-111629045D01*
X106006690Y-111690711D01*
X105989007Y-111789596D01*
X105949226Y-111899674D01*
X105892244Y-111997522D01*
X105821287Y-112080108D01*
X105739582Y-112144397D01*
X105795087Y-112185074D01*
X105869985Y-112261898D01*
X105931984Y-112354995D01*
X105977857Y-112461334D01*
X106001439Y-112557875D01*
X106009714Y-112659749D01*
X106009714Y-113285500D01*
X105790384Y-113285500D01*
X105790384Y-112659749D01*
X105777798Y-112557835D01*
X105742075Y-112465711D01*
X105672964Y-112372398D01*
X105580206Y-112302886D01*
X105488648Y-112266962D01*
X105387383Y-112254306D01*
X103957586Y-112254306D01*
X103957586Y-113285500D01*
X103738256Y-113285500D01*
X103738256Y-111222624D01*
X103957097Y-111222624D01*
X103957097Y-112034976D01*
X105387383Y-112034976D01*
X105488648Y-112022125D01*
X105580206Y-111986066D01*
X105672964Y-111916457D01*
X105742075Y-111823098D01*
X105777798Y-111730960D01*
X105790384Y-111629045D01*
X105777796Y-111526903D01*
X105742060Y-111434563D01*
X105672903Y-111341021D01*
X105580047Y-111271333D01*
X105488355Y-111235314D01*
X105386895Y-111222624D01*
X103957097Y-111222624D01*
X103738256Y-111222624D01*
X103738256Y-111003783D01*
X105386895Y-111003783D01*
X105511691Y-111016545D01*
G37*
G36*
X107673985Y-111003783D02*
G01*
X106538256Y-111003783D01*
X106538256Y-111222624D01*
X107673985Y-111222624D01*
X107813872Y-111233212D01*
X107947023Y-111263947D01*
X108071902Y-111313285D01*
X108186978Y-111379683D01*
X108290716Y-111461599D01*
X108381583Y-111557488D01*
X108458045Y-111665809D01*
X108518569Y-111785016D01*
X108561621Y-111913569D01*
X108585669Y-112049923D01*
X108590384Y-112144397D01*
X108579859Y-112285219D01*
X108549307Y-112419245D01*
X108500260Y-112544935D01*
X108434253Y-112660747D01*
X108352819Y-112765142D01*
X108257491Y-112856577D01*
X108149803Y-112933513D01*
X108031289Y-112994408D01*
X107903482Y-113037722D01*
X107767916Y-113061914D01*
X107673985Y-113066658D01*
X106757586Y-113066658D01*
X106757586Y-112034488D01*
X106538256Y-112034488D01*
X106538256Y-113285500D01*
X107673985Y-113285500D01*
X107789699Y-113279591D01*
X107902164Y-113262253D01*
X108010798Y-113234066D01*
X108115019Y-113195610D01*
X108214245Y-113147466D01*
X108307895Y-113090213D01*
X108395387Y-113024432D01*
X108476140Y-112950704D01*
X108549570Y-112869608D01*
X108615098Y-112781725D01*
X108672140Y-112687635D01*
X108720115Y-112587919D01*
X108758442Y-112483157D01*
X108786539Y-112373929D01*
X108803823Y-112260815D01*
X108809714Y-112144397D01*
X108803823Y-112028064D01*
X108786539Y-111915026D01*
X108758442Y-111805863D01*
X108720115Y-111701157D01*
X108672140Y-111601488D01*
X108615098Y-111507438D01*
X108549570Y-111419588D01*
X108476140Y-111338518D01*
X108395387Y-111264809D01*
X108307895Y-111199044D01*
X108214245Y-111141801D01*
X108115019Y-111093664D01*
X108010798Y-111055213D01*
X107902164Y-111027028D01*
X107789699Y-111009691D01*
X107673985Y-111003783D01*
G37*
G36*
X108622833Y-120003783D02*
G01*
X108498058Y-120016545D01*
X108381544Y-120053120D01*
X108275871Y-120110944D01*
X108183623Y-120187453D01*
X108107380Y-120280083D01*
X108049724Y-120386267D01*
X108013238Y-120503443D01*
X108000502Y-120629045D01*
X108013238Y-120754506D01*
X108049724Y-120871616D01*
X108107380Y-120977792D01*
X108183623Y-121070452D01*
X108275871Y-121147016D01*
X108381544Y-121204900D01*
X108498058Y-121241524D01*
X108622833Y-121254306D01*
X109649141Y-121254306D01*
X109750601Y-121266964D01*
X109842293Y-121302901D01*
X109935149Y-121372459D01*
X110004306Y-121465870D01*
X110040042Y-121558129D01*
X110052630Y-121660238D01*
X110040042Y-121762379D01*
X110004306Y-121854719D01*
X109935149Y-121948261D01*
X109842293Y-122017949D01*
X109750601Y-122053968D01*
X109649141Y-122066658D01*
X108000502Y-122066658D01*
X108000502Y-122285500D01*
X109649141Y-122285500D01*
X109773937Y-122272738D01*
X109890506Y-122236162D01*
X109996257Y-122178338D01*
X110088595Y-122101829D01*
X110164928Y-122009200D01*
X110222661Y-121903015D01*
X110259203Y-121785840D01*
X110271960Y-121660238D01*
X110259203Y-121534636D01*
X110222661Y-121417460D01*
X110164928Y-121311276D01*
X110088595Y-121218647D01*
X109996257Y-121142138D01*
X109890506Y-121084313D01*
X109773937Y-121047738D01*
X109649141Y-121034976D01*
X108622833Y-121034976D01*
X108521405Y-121022287D01*
X108429794Y-120986268D01*
X108337068Y-120916579D01*
X108268042Y-120823037D01*
X108232388Y-120730697D01*
X108219832Y-120628556D01*
X108232388Y-120526610D01*
X108268042Y-120434404D01*
X108337068Y-120340960D01*
X108429794Y-120271318D01*
X108521405Y-120235312D01*
X108622833Y-120222624D01*
X110271960Y-120222624D01*
X110271960Y-120003783D01*
X108622833Y-120003783D01*
G37*
G36*
X112852630Y-120113692D02*
G01*
X112842105Y-120254377D01*
X112811553Y-120388269D01*
X112762506Y-120513829D01*
X112696499Y-120629519D01*
X112615065Y-120733800D01*
X112519737Y-120825135D01*
X112412049Y-120901984D01*
X112293535Y-120962810D01*
X112165728Y-121006074D01*
X112030162Y-121030238D01*
X111936231Y-121034976D01*
X111796344Y-121024400D01*
X111663193Y-120993699D01*
X111538314Y-120944410D01*
X111423238Y-120878072D01*
X111319500Y-120796223D01*
X111228633Y-120700402D01*
X111152171Y-120592147D01*
X111091647Y-120472996D01*
X111048595Y-120344488D01*
X111024548Y-120208161D01*
X111019832Y-120113692D01*
X111019832Y-120003294D01*
X110800502Y-120003294D01*
X110800502Y-120113692D01*
X110805802Y-120224217D01*
X110821359Y-120331792D01*
X110846654Y-120435921D01*
X110881171Y-120536102D01*
X110924391Y-120631839D01*
X110975799Y-120722632D01*
X111034875Y-120807983D01*
X111101104Y-120887392D01*
X111173967Y-120960362D01*
X111252947Y-121026392D01*
X111337528Y-121084985D01*
X111427191Y-121135642D01*
X111521419Y-121177864D01*
X111619695Y-121211152D01*
X111721502Y-121235008D01*
X111826322Y-121248933D01*
X111826322Y-122285500D01*
X112045652Y-122285500D01*
X112045652Y-121248933D01*
X112150477Y-121235008D01*
X112252299Y-121211152D01*
X112350600Y-121177864D01*
X112444859Y-121135642D01*
X112534559Y-121084985D01*
X112619181Y-121026392D01*
X112698205Y-120960362D01*
X112771114Y-120887392D01*
X112837388Y-120807983D01*
X112896509Y-120722632D01*
X112947958Y-120631839D01*
X112991215Y-120536102D01*
X113025763Y-120435921D01*
X113051082Y-120331792D01*
X113066654Y-120224217D01*
X113071960Y-120113692D01*
X113071960Y-120003294D01*
X112852630Y-120003294D01*
X112852630Y-120113692D01*
G37*
G36*
X114736231Y-120003783D02*
G01*
X114620436Y-120009685D01*
X114507912Y-120027007D01*
X114399237Y-120055168D01*
X114294991Y-120093588D01*
X114195754Y-120141688D01*
X114102106Y-120198889D01*
X114014626Y-120264611D01*
X113933893Y-120338273D01*
X113860488Y-120419298D01*
X113794990Y-120507104D01*
X113737978Y-120601113D01*
X113690032Y-120700745D01*
X113651732Y-120805420D01*
X113623657Y-120914559D01*
X113606387Y-121027581D01*
X113600502Y-121143908D01*
X113600502Y-122285500D01*
X113819832Y-122285500D01*
X113819832Y-121143908D01*
X113830357Y-121003336D01*
X113860909Y-120869513D01*
X113909956Y-120743985D01*
X113975963Y-120628297D01*
X114057397Y-120523994D01*
X114152725Y-120432624D01*
X114260413Y-120355730D01*
X114378927Y-120294859D01*
X114506734Y-120251557D01*
X114642300Y-120227368D01*
X114736231Y-120222624D01*
X114876118Y-120233212D01*
X115009269Y-120263943D01*
X115134148Y-120313274D01*
X115249224Y-120379657D01*
X115352962Y-120461548D01*
X115443829Y-120557401D01*
X115520291Y-120665670D01*
X115580815Y-120784810D01*
X115623867Y-120913275D01*
X115647915Y-121049520D01*
X115652630Y-121143908D01*
X115652630Y-122285500D01*
X115871960Y-122285500D01*
X115871960Y-121143908D01*
X115866069Y-121027581D01*
X115848785Y-120914559D01*
X115820688Y-120805420D01*
X115782361Y-120700745D01*
X115734386Y-120601113D01*
X115677344Y-120507104D01*
X115611816Y-120419298D01*
X115538386Y-120338273D01*
X115457633Y-120264611D01*
X115370141Y-120198889D01*
X115276491Y-120141688D01*
X115177265Y-120093588D01*
X115073044Y-120055168D01*
X114964410Y-120027007D01*
X114851945Y-120009685D01*
X114736231Y-120003783D01*
G37*
G36*
X116400502Y-121144397D02*
G01*
X116406387Y-121260815D01*
X116423657Y-121373929D01*
X116451732Y-121483157D01*
X116490032Y-121587919D01*
X116537978Y-121687635D01*
X116594990Y-121781725D01*
X116660488Y-121869608D01*
X116733893Y-121950704D01*
X116814626Y-122024432D01*
X116902106Y-122090213D01*
X116995754Y-122147466D01*
X117094991Y-122195610D01*
X117199237Y-122234066D01*
X117307912Y-122262253D01*
X117420436Y-122279591D01*
X117536231Y-122285500D01*
X118671960Y-122285500D01*
X118671960Y-122066658D01*
X117536231Y-122066658D01*
X117396344Y-122056070D01*
X117263193Y-122025332D01*
X117138314Y-121975987D01*
X117023238Y-121909574D01*
X116919500Y-121827633D01*
X116828633Y-121731707D01*
X116752171Y-121623336D01*
X116691647Y-121504060D01*
X116648595Y-121375420D01*
X116624548Y-121238957D01*
X116619832Y-121144397D01*
X116630357Y-121003700D01*
X116660909Y-120869775D01*
X116709956Y-120744166D01*
X116775963Y-120628416D01*
X116857397Y-120524068D01*
X116952725Y-120432665D01*
X117060413Y-120355750D01*
X117178927Y-120294867D01*
X117306734Y-120251559D01*
X117442300Y-120227368D01*
X117536231Y-120222624D01*
X118671960Y-120222624D01*
X118671960Y-120003783D01*
X117536231Y-120003783D01*
X117420436Y-120009691D01*
X117307912Y-120027028D01*
X117199237Y-120055213D01*
X117094991Y-120093664D01*
X116995754Y-120141801D01*
X116902106Y-120199044D01*
X116814626Y-120264809D01*
X116733893Y-120338518D01*
X116660488Y-120419588D01*
X116594990Y-120507438D01*
X116537978Y-120601488D01*
X116490032Y-120701157D01*
X116451732Y-120805863D01*
X116423657Y-120915026D01*
X116406387Y-121028064D01*
X116400502Y-121144397D01*
G37*
G36*
X129400502Y-117144397D02*
G01*
X129406387Y-117260815D01*
X129423657Y-117373929D01*
X129451732Y-117483157D01*
X129490032Y-117587919D01*
X129537978Y-117687635D01*
X129594990Y-117781725D01*
X129660488Y-117869608D01*
X129733893Y-117950704D01*
X129814626Y-118024432D01*
X129902106Y-118090213D01*
X129995754Y-118147466D01*
X130094991Y-118195610D01*
X130199237Y-118234066D01*
X130307912Y-118262253D01*
X130420436Y-118279591D01*
X130536231Y-118285500D01*
X131671960Y-118285500D01*
X131671960Y-118066658D01*
X130536231Y-118066658D01*
X130404908Y-118057328D01*
X130279418Y-118030243D01*
X130161032Y-117986764D01*
X130051024Y-117928249D01*
X129950667Y-117856060D01*
X129861232Y-117771555D01*
X129783994Y-117676093D01*
X129720223Y-117571036D01*
X129671194Y-117457741D01*
X129638179Y-117337570D01*
X129625694Y-117254306D01*
X131671960Y-117254306D01*
X131671960Y-117034976D01*
X129625694Y-117034976D01*
X129647326Y-116910987D01*
X129685821Y-116792990D01*
X129739905Y-116682339D01*
X129808306Y-116580390D01*
X129889752Y-116488496D01*
X129982969Y-116408013D01*
X130086684Y-116340296D01*
X130199626Y-116286700D01*
X130320521Y-116248579D01*
X130448097Y-116227288D01*
X130536231Y-116223113D01*
X131671960Y-116223113D01*
X131671960Y-116003783D01*
X130536231Y-116003783D01*
X130420436Y-116009691D01*
X130307912Y-116027028D01*
X130199237Y-116055213D01*
X130094991Y-116093664D01*
X129995754Y-116141801D01*
X129902106Y-116199044D01*
X129814626Y-116264809D01*
X129733893Y-116338518D01*
X129660488Y-116419588D01*
X129594990Y-116507438D01*
X129537978Y-116601488D01*
X129490032Y-116701157D01*
X129451732Y-116805863D01*
X129423657Y-116915026D01*
X129406387Y-117028064D01*
X129400502Y-117144397D01*
G37*
G36*
X134182777Y-116003294D02*
G01*
X133336231Y-116969031D01*
X132488708Y-116003294D01*
X132181451Y-116003294D01*
X133182358Y-117144885D01*
X132181451Y-118285500D01*
X132488708Y-118285500D01*
X133336231Y-117320252D01*
X134183265Y-118285500D01*
X134491011Y-118285500D01*
X133490104Y-117144885D01*
X134491011Y-116003294D01*
X134182777Y-116003294D01*
G37*
G36*
X135000502Y-116222624D02*
G01*
X136026322Y-116222624D01*
X136026322Y-118285500D01*
X136245652Y-118285500D01*
X136245652Y-116222624D01*
X137271960Y-116222624D01*
X137271960Y-116003783D01*
X135000502Y-116003783D01*
X135000502Y-116222624D01*
G37*
G36*
X130918227Y-111222624D02*
G01*
X130918227Y-111003783D01*
X130322763Y-111003783D01*
X130322763Y-111222624D01*
X130510830Y-111222624D01*
X130510830Y-113066658D01*
X130322763Y-113066658D01*
X130322763Y-113285500D01*
X130918227Y-113285500D01*
X130918227Y-113066658D01*
X130730160Y-113066658D01*
X130730160Y-111222624D01*
X130918227Y-111222624D01*
G37*
G36*
X132581032Y-111003783D02*
G01*
X132465237Y-111009685D01*
X132352713Y-111027007D01*
X132244038Y-111055168D01*
X132139792Y-111093588D01*
X132040555Y-111141688D01*
X131946907Y-111198889D01*
X131859427Y-111264611D01*
X131778694Y-111338273D01*
X131705289Y-111419298D01*
X131639791Y-111507104D01*
X131582779Y-111601113D01*
X131534833Y-111700745D01*
X131496533Y-111805420D01*
X131468458Y-111914559D01*
X131451188Y-112027581D01*
X131445303Y-112143908D01*
X131445303Y-113285500D01*
X131664633Y-113285500D01*
X131664633Y-112143908D01*
X131675158Y-112003336D01*
X131705711Y-111869513D01*
X131754757Y-111743985D01*
X131820764Y-111628297D01*
X131902198Y-111523994D01*
X131997526Y-111432624D01*
X132105214Y-111355730D01*
X132223728Y-111294859D01*
X132351535Y-111251557D01*
X132487101Y-111227368D01*
X132581032Y-111222624D01*
X132720920Y-111233212D01*
X132854070Y-111263943D01*
X132978950Y-111313274D01*
X133094025Y-111379657D01*
X133197763Y-111461548D01*
X133288630Y-111557401D01*
X133365092Y-111665670D01*
X133425616Y-111784810D01*
X133468669Y-111913275D01*
X133492716Y-112049520D01*
X133497431Y-112143908D01*
X133497431Y-113285500D01*
X133716761Y-113285500D01*
X133716761Y-112143908D01*
X133710871Y-112027581D01*
X133693586Y-111914559D01*
X133665489Y-111805420D01*
X133627162Y-111700745D01*
X133579187Y-111601113D01*
X133522145Y-111507104D01*
X133456617Y-111419298D01*
X133383187Y-111338273D01*
X133302435Y-111264611D01*
X133214943Y-111198889D01*
X133121292Y-111141688D01*
X133022066Y-111093588D01*
X132917845Y-111055168D01*
X132809211Y-111027007D01*
X132696746Y-111009685D01*
X132581032Y-111003783D01*
G37*
G36*
X134077264Y-111222624D02*
G01*
X135103084Y-111222624D01*
X135103084Y-113285500D01*
X135322414Y-113285500D01*
X135322414Y-111222624D01*
X136348722Y-111222624D01*
X136348722Y-111003783D01*
X134077264Y-111003783D01*
X134077264Y-111222624D01*
G37*
G36*
X122862052Y-146003783D02*
G01*
X122737277Y-146016545D01*
X122620763Y-146053120D01*
X122515090Y-146110944D01*
X122422842Y-146187453D01*
X122346599Y-146280083D01*
X122288943Y-146386267D01*
X122252457Y-146503443D01*
X122239721Y-146629045D01*
X122252457Y-146754506D01*
X122288943Y-146871616D01*
X122346599Y-146977792D01*
X122422842Y-147070452D01*
X122515090Y-147147016D01*
X122620763Y-147204900D01*
X122737277Y-147241524D01*
X122862052Y-147254306D01*
X123888360Y-147254306D01*
X123989820Y-147266964D01*
X124081512Y-147302901D01*
X124174368Y-147372459D01*
X124243525Y-147465870D01*
X124279261Y-147558129D01*
X124291849Y-147660238D01*
X124279261Y-147762379D01*
X124243525Y-147854719D01*
X124174368Y-147948261D01*
X124081512Y-148017949D01*
X123989820Y-148053968D01*
X123888360Y-148066658D01*
X122239721Y-148066658D01*
X122239721Y-148285500D01*
X123888360Y-148285500D01*
X124013156Y-148272738D01*
X124129725Y-148236162D01*
X124235476Y-148178338D01*
X124327814Y-148101829D01*
X124404147Y-148009200D01*
X124461880Y-147903015D01*
X124498422Y-147785840D01*
X124511179Y-147660238D01*
X124498422Y-147534636D01*
X124461880Y-147417460D01*
X124404147Y-147311276D01*
X124327814Y-147218647D01*
X124235476Y-147142138D01*
X124129725Y-147084313D01*
X124013156Y-147047738D01*
X123888360Y-147034976D01*
X122862052Y-147034976D01*
X122760624Y-147022287D01*
X122669013Y-146986268D01*
X122576287Y-146916579D01*
X122507261Y-146823037D01*
X122471607Y-146730697D01*
X122459051Y-146628556D01*
X122471607Y-146526610D01*
X122507261Y-146434404D01*
X122576287Y-146340960D01*
X122669013Y-146271318D01*
X122760624Y-146235312D01*
X122862052Y-146222624D01*
X124511179Y-146222624D01*
X124511179Y-146003783D01*
X122862052Y-146003783D01*
G37*
G36*
X125634208Y-146222624D02*
G01*
X125634208Y-146003783D01*
X125038744Y-146003783D01*
X125038744Y-146222624D01*
X125226811Y-146222624D01*
X125226811Y-148066658D01*
X125038744Y-148066658D01*
X125038744Y-148285500D01*
X125634208Y-148285500D01*
X125634208Y-148066658D01*
X125446141Y-148066658D01*
X125446141Y-146222624D01*
X125634208Y-146222624D01*
G37*
G36*
X127297013Y-146003783D02*
G01*
X127181218Y-146009685D01*
X127068694Y-146027007D01*
X126960019Y-146055168D01*
X126855773Y-146093588D01*
X126756536Y-146141688D01*
X126662888Y-146198889D01*
X126575408Y-146264611D01*
X126494675Y-146338273D01*
X126421270Y-146419298D01*
X126355772Y-146507104D01*
X126298760Y-146601113D01*
X126250814Y-146700745D01*
X126212514Y-146805420D01*
X126184439Y-146914559D01*
X126167169Y-147027581D01*
X126161284Y-147143908D01*
X126161284Y-148285500D01*
X126380614Y-148285500D01*
X126380614Y-147143908D01*
X126391139Y-147003336D01*
X126421692Y-146869513D01*
X126470738Y-146743985D01*
X126536745Y-146628297D01*
X126618179Y-146523994D01*
X126713507Y-146432624D01*
X126821195Y-146355730D01*
X126939709Y-146294859D01*
X127067516Y-146251557D01*
X127203082Y-146227368D01*
X127297013Y-146222624D01*
X127436901Y-146233212D01*
X127570051Y-146263943D01*
X127694931Y-146313274D01*
X127810006Y-146379657D01*
X127913744Y-146461548D01*
X128004611Y-146557401D01*
X128081073Y-146665670D01*
X128141597Y-146784810D01*
X128184650Y-146913275D01*
X128208697Y-147049520D01*
X128213412Y-147143908D01*
X128213412Y-148285500D01*
X128432742Y-148285500D01*
X128432742Y-147143908D01*
X128426852Y-147027581D01*
X128409567Y-146914559D01*
X128381470Y-146805420D01*
X128343143Y-146700745D01*
X128295168Y-146601113D01*
X128238126Y-146507104D01*
X128172598Y-146419298D01*
X128099168Y-146338273D01*
X128018416Y-146264611D01*
X127930924Y-146198889D01*
X127837273Y-146141688D01*
X127738047Y-146093588D01*
X127633826Y-146055168D01*
X127525192Y-146027007D01*
X127412727Y-146009685D01*
X127297013Y-146003783D01*
G37*
G36*
X122798780Y-120016545D02*
G01*
X122915349Y-120053120D01*
X123021100Y-120110944D01*
X123113438Y-120187453D01*
X123189771Y-120280083D01*
X123247504Y-120386267D01*
X123284046Y-120503443D01*
X123296803Y-120629045D01*
X123284046Y-120754506D01*
X123247504Y-120871616D01*
X123189771Y-120977792D01*
X123113438Y-121070452D01*
X123021100Y-121147016D01*
X122915349Y-121204900D01*
X122798780Y-121241524D01*
X122673984Y-121254306D01*
X121244675Y-121254306D01*
X121244675Y-122285500D01*
X121025345Y-122285500D01*
X121025345Y-120222624D01*
X121244675Y-120222624D01*
X121244675Y-121034976D01*
X122673984Y-121034976D01*
X122755117Y-121016645D01*
X122853600Y-120965398D01*
X122936015Y-120901606D01*
X123007701Y-120822114D01*
X123058305Y-120730175D01*
X123077473Y-120629045D01*
X123064885Y-120526903D01*
X123029149Y-120434563D01*
X122959992Y-120341021D01*
X122867136Y-120271333D01*
X122775444Y-120235314D01*
X122673984Y-120222624D01*
X121244675Y-120222624D01*
X121025345Y-120222624D01*
X121025345Y-120003783D01*
X122673984Y-120003783D01*
X122798780Y-120016545D01*
G37*
G36*
X126253119Y-121566449D02*
G01*
X126243090Y-121667744D01*
X126214292Y-121761866D01*
X126154836Y-121866458D01*
X126072834Y-121952980D01*
X125972053Y-122017620D01*
X125856261Y-122056565D01*
X125755352Y-122066658D01*
X125654604Y-122056565D01*
X125561011Y-122027587D01*
X125457030Y-121967781D01*
X125371032Y-121885330D01*
X125306796Y-121784047D01*
X125273615Y-121692023D01*
X125258715Y-121592338D01*
X125258073Y-121566449D01*
X125258073Y-120003294D01*
X125038743Y-120003294D01*
X125038743Y-121566449D01*
X125028716Y-121667744D01*
X124999924Y-121761866D01*
X124940494Y-121866458D01*
X124858546Y-121952980D01*
X124757859Y-122017620D01*
X124642213Y-122056565D01*
X124541465Y-122066658D01*
X124440717Y-122056607D01*
X124347124Y-122027739D01*
X124243143Y-121968134D01*
X124157145Y-121885910D01*
X124092909Y-121784835D01*
X124059728Y-121692936D01*
X124044828Y-121593312D01*
X124044186Y-121567426D01*
X124044186Y-120003294D01*
X123824856Y-120003294D01*
X123824856Y-121566449D01*
X123833162Y-121675619D01*
X123857250Y-121779735D01*
X123895872Y-121877556D01*
X123947783Y-121967841D01*
X124011737Y-122049348D01*
X124086488Y-122120836D01*
X124170789Y-122181063D01*
X124263394Y-122228789D01*
X124363058Y-122262772D01*
X124468534Y-122281771D01*
X124541465Y-122285500D01*
X124638942Y-122278872D01*
X124755065Y-122253183D01*
X124862836Y-122210297D01*
X124960120Y-122152505D01*
X125044781Y-122082099D01*
X125114683Y-122001371D01*
X125148653Y-121948933D01*
X125208675Y-122034754D01*
X125284737Y-122111628D01*
X125374704Y-122177264D01*
X125476439Y-122229368D01*
X125587807Y-122265651D01*
X125706673Y-122283818D01*
X125755840Y-122285500D01*
X125864386Y-122277180D01*
X125967994Y-122253048D01*
X126065412Y-122214346D01*
X126155386Y-122162315D01*
X126236663Y-122098196D01*
X126307990Y-122023231D01*
X126368112Y-121938660D01*
X126415777Y-121845725D01*
X126449731Y-121745668D01*
X126468721Y-121639729D01*
X126472449Y-121566449D01*
X126472449Y-120003294D01*
X126253119Y-120003294D01*
X126253119Y-121566449D01*
G37*
G36*
X128930509Y-120003783D02*
G01*
X128809437Y-120014063D01*
X128694948Y-120043374D01*
X128589189Y-120089425D01*
X128494306Y-120149923D01*
X128412447Y-120222577D01*
X128345757Y-120305094D01*
X128323810Y-120340349D01*
X128263787Y-120254529D01*
X128187725Y-120177654D01*
X128097758Y-120112019D01*
X127996023Y-120059914D01*
X127884655Y-120023632D01*
X127765789Y-120005464D01*
X127716622Y-120003783D01*
X127607964Y-120012102D01*
X127504287Y-120036234D01*
X127406837Y-120074936D01*
X127316861Y-120126967D01*
X127235605Y-120191086D01*
X127164315Y-120266052D01*
X127104237Y-120350623D01*
X127056617Y-120443557D01*
X127022701Y-120543615D01*
X127003736Y-120649554D01*
X127000013Y-120722834D01*
X127000013Y-122285500D01*
X127219343Y-122285500D01*
X127219343Y-120722834D01*
X127229371Y-120621539D01*
X127258163Y-120527417D01*
X127317593Y-120422824D01*
X127399541Y-120336302D01*
X127500227Y-120271662D01*
X127615874Y-120232718D01*
X127716622Y-120222624D01*
X127817370Y-120232718D01*
X127910963Y-120261696D01*
X128014944Y-120321501D01*
X128100942Y-120403952D01*
X128165178Y-120505236D01*
X128198359Y-120597260D01*
X128213258Y-120696944D01*
X128213900Y-120722834D01*
X128213900Y-122285500D01*
X128433230Y-122285500D01*
X128433230Y-120722834D01*
X128443259Y-120621539D01*
X128472057Y-120527417D01*
X128531513Y-120422824D01*
X128613515Y-120336302D01*
X128714296Y-120271662D01*
X128830088Y-120232718D01*
X128930997Y-120222624D01*
X129031746Y-120232718D01*
X129125338Y-120261696D01*
X129229319Y-120321501D01*
X129315317Y-120403952D01*
X129379553Y-120505236D01*
X129412734Y-120597260D01*
X129427634Y-120696944D01*
X129428276Y-120722834D01*
X129428276Y-122285500D01*
X129647606Y-122285500D01*
X129647606Y-120722834D01*
X129639288Y-120613664D01*
X129615168Y-120509548D01*
X129576496Y-120411726D01*
X129524525Y-120321442D01*
X129460504Y-120239935D01*
X129385685Y-120168447D01*
X129301318Y-120108219D01*
X129208656Y-120060493D01*
X129108948Y-120026510D01*
X129003445Y-120007511D01*
X128930509Y-120003783D01*
G37*
G36*
X100261563Y-132003783D02*
G01*
X98612924Y-132003783D01*
X98612924Y-132163518D01*
X98612924Y-132206993D01*
X98612924Y-134285500D01*
X98832254Y-134285500D01*
X98832254Y-133254306D01*
X100277195Y-133254306D01*
X100277195Y-133034976D01*
X98832254Y-133034488D01*
X98832254Y-132222624D01*
X100261563Y-132222624D01*
X100700223Y-132222624D01*
X100884382Y-132222624D01*
X100884382Y-132003783D01*
X100261563Y-132003783D01*
G37*
G36*
X103342931Y-132003783D02*
G01*
X103221859Y-132014063D01*
X103107370Y-132043374D01*
X103001611Y-132089425D01*
X102906728Y-132149923D01*
X102824869Y-132222577D01*
X102758179Y-132305094D01*
X102736232Y-132340349D01*
X102676209Y-132254529D01*
X102600147Y-132177654D01*
X102510180Y-132112019D01*
X102408445Y-132059914D01*
X102297077Y-132023632D01*
X102178211Y-132005464D01*
X102129044Y-132003783D01*
X102020386Y-132012102D01*
X101916709Y-132036234D01*
X101819259Y-132074936D01*
X101729283Y-132126967D01*
X101648027Y-132191086D01*
X101576737Y-132266052D01*
X101516659Y-132350623D01*
X101469039Y-132443557D01*
X101435123Y-132543615D01*
X101416158Y-132649554D01*
X101412435Y-132722834D01*
X101412435Y-134285500D01*
X101631765Y-134285500D01*
X101631765Y-132722834D01*
X101641793Y-132621539D01*
X101670585Y-132527417D01*
X101730015Y-132422824D01*
X101811963Y-132336302D01*
X101912649Y-132271662D01*
X102028296Y-132232718D01*
X102129044Y-132222624D01*
X102229792Y-132232718D01*
X102323385Y-132261696D01*
X102427366Y-132321501D01*
X102513364Y-132403952D01*
X102577600Y-132505236D01*
X102610781Y-132597260D01*
X102625680Y-132696944D01*
X102626322Y-132722834D01*
X102626322Y-134285500D01*
X102845652Y-134285500D01*
X102845652Y-132722834D01*
X102855681Y-132621539D01*
X102884479Y-132527417D01*
X102943935Y-132422824D01*
X103025937Y-132336302D01*
X103126718Y-132271662D01*
X103242510Y-132232718D01*
X103343419Y-132222624D01*
X103444168Y-132232718D01*
X103537760Y-132261696D01*
X103641741Y-132321501D01*
X103727739Y-132403952D01*
X103791975Y-132505236D01*
X103825156Y-132597260D01*
X103840056Y-132696944D01*
X103840698Y-132722834D01*
X103840698Y-134285500D01*
X104060028Y-134285500D01*
X104060028Y-132722834D01*
X104051710Y-132613664D01*
X104027590Y-132509548D01*
X103988918Y-132411726D01*
X103936947Y-132321442D01*
X103872926Y-132239935D01*
X103798107Y-132168447D01*
X103713740Y-132108219D01*
X103621078Y-132060493D01*
X103521370Y-132026510D01*
X103415867Y-132007511D01*
X103342931Y-132003783D01*
G37*
G36*
X85053259Y-62157097D02*
G01*
X85059144Y-62273515D01*
X85076414Y-62386629D01*
X85104489Y-62495857D01*
X85142789Y-62600619D01*
X85190735Y-62700335D01*
X85247747Y-62794425D01*
X85313245Y-62882308D01*
X85386650Y-62963404D01*
X85467383Y-63037132D01*
X85554863Y-63102913D01*
X85648511Y-63160166D01*
X85747748Y-63208310D01*
X85851994Y-63246766D01*
X85960669Y-63274953D01*
X86073193Y-63292291D01*
X86188988Y-63298200D01*
X87324717Y-63298200D01*
X87324717Y-63079358D01*
X86188988Y-63079358D01*
X86049101Y-63068770D01*
X85915950Y-63038032D01*
X85791071Y-62988687D01*
X85675995Y-62922274D01*
X85572257Y-62840333D01*
X85481390Y-62744407D01*
X85404928Y-62636036D01*
X85344404Y-62516760D01*
X85301352Y-62388120D01*
X85277305Y-62251657D01*
X85272589Y-62157097D01*
X85283114Y-62016400D01*
X85313666Y-61882475D01*
X85362713Y-61756866D01*
X85428720Y-61641116D01*
X85510154Y-61536768D01*
X85605482Y-61445365D01*
X85713170Y-61368450D01*
X85831684Y-61307567D01*
X85959491Y-61264259D01*
X86095057Y-61240068D01*
X86188988Y-61235324D01*
X87324717Y-61235324D01*
X87324717Y-61016483D01*
X86188988Y-61016483D01*
X86073193Y-61022391D01*
X85960669Y-61039728D01*
X85851994Y-61067913D01*
X85747748Y-61106364D01*
X85648511Y-61154501D01*
X85554863Y-61211744D01*
X85467383Y-61277509D01*
X85386650Y-61351218D01*
X85313245Y-61432288D01*
X85247747Y-61520138D01*
X85190735Y-61614188D01*
X85142789Y-61713857D01*
X85104489Y-61818563D01*
X85076414Y-61927726D01*
X85059144Y-62040764D01*
X85053259Y-62157097D01*
G37*
G36*
X89027282Y-61990702D02*
G01*
X89113570Y-62049421D01*
X89145303Y-62141954D01*
X89140239Y-62180053D01*
X89081521Y-62266080D01*
X88988988Y-62297781D01*
X88958149Y-62294511D01*
X88869114Y-62240024D01*
X88832673Y-62141954D01*
X88837737Y-62103659D01*
X88896455Y-62017372D01*
X88988988Y-61985638D01*
X89027282Y-61990702D01*
G37*
G36*
X89104702Y-61022323D02*
G01*
X89217167Y-61039458D01*
X89325801Y-61067310D01*
X89430022Y-61105303D01*
X89529248Y-61152859D01*
X89622898Y-61209399D01*
X89710390Y-61274348D01*
X89791143Y-61347127D01*
X89864573Y-61427158D01*
X89930101Y-61513865D01*
X89987143Y-61606670D01*
X90035118Y-61704996D01*
X90073445Y-61808264D01*
X90101542Y-61915899D01*
X90118826Y-62027321D01*
X90124717Y-62141954D01*
X90118826Y-62259991D01*
X90101542Y-62374661D01*
X90073445Y-62485376D01*
X90035118Y-62591552D01*
X89987143Y-62692600D01*
X89930101Y-62787937D01*
X89864573Y-62876975D01*
X89791143Y-62959129D01*
X89710390Y-63033813D01*
X89622898Y-63100440D01*
X89529248Y-63158425D01*
X89430022Y-63207181D01*
X89325801Y-63246122D01*
X89217167Y-63274663D01*
X89104702Y-63292218D01*
X88988988Y-63298200D01*
X88873193Y-63292218D01*
X88760669Y-63274663D01*
X88651994Y-63246122D01*
X88547748Y-63207181D01*
X88448511Y-63158425D01*
X88354863Y-63100440D01*
X88267383Y-63033813D01*
X88186650Y-62959129D01*
X88113245Y-62876975D01*
X88047747Y-62787937D01*
X87990735Y-62692600D01*
X87942789Y-62591552D01*
X87904489Y-62485376D01*
X87876414Y-62374661D01*
X87859144Y-62259991D01*
X87853259Y-62141954D01*
X88072589Y-62141954D01*
X88077310Y-62237731D01*
X88101382Y-62376090D01*
X88144473Y-62506662D01*
X88205042Y-62627851D01*
X88281548Y-62738061D01*
X88372451Y-62835695D01*
X88476210Y-62919157D01*
X88591284Y-62986850D01*
X88716132Y-63037179D01*
X88849214Y-63068547D01*
X88988988Y-63079358D01*
X89082839Y-63074514D01*
X89218322Y-63049821D01*
X89346086Y-63005635D01*
X89464590Y-62943552D01*
X89572291Y-62865169D01*
X89667651Y-62772081D01*
X89749127Y-62665886D01*
X89815180Y-62548180D01*
X89864268Y-62420558D01*
X89894851Y-62284617D01*
X89905387Y-62141954D01*
X89900672Y-62048857D01*
X89876624Y-61914565D01*
X89833572Y-61788031D01*
X89773048Y-61670758D01*
X89696586Y-61564247D01*
X89605719Y-61470002D01*
X89501981Y-61389524D01*
X89386905Y-61324315D01*
X89262026Y-61275877D01*
X89128875Y-61245713D01*
X88988988Y-61235324D01*
X88895057Y-61239979D01*
X88759491Y-61263718D01*
X88631684Y-61306231D01*
X88513170Y-61366017D01*
X88405482Y-61441572D01*
X88310154Y-61531395D01*
X88228720Y-61633984D01*
X88162713Y-61747837D01*
X88113666Y-61871450D01*
X88083114Y-62003324D01*
X88072589Y-62141954D01*
X87853259Y-62141954D01*
X87859144Y-62027321D01*
X87876414Y-61915899D01*
X87904489Y-61808264D01*
X87942789Y-61704996D01*
X87990735Y-61606670D01*
X88047747Y-61513865D01*
X88113245Y-61427158D01*
X88186650Y-61347127D01*
X88267383Y-61274348D01*
X88354863Y-61209399D01*
X88448511Y-61152859D01*
X88547748Y-61105303D01*
X88651994Y-61067310D01*
X88760669Y-61039458D01*
X88873193Y-61022323D01*
X88988988Y-61016483D01*
X89104702Y-61022323D01*
G37*
G36*
X90260516Y-63298200D02*
G01*
X90525276Y-63298200D01*
X91546211Y-61481033D01*
X92567146Y-63297711D01*
X92832393Y-63298200D01*
X91546211Y-60999386D01*
X90260516Y-63298200D01*
G37*
G36*
X95121181Y-61029245D02*
G01*
X95237750Y-61065820D01*
X95343501Y-61123644D01*
X95435839Y-61200153D01*
X95512172Y-61292783D01*
X95569905Y-61398967D01*
X95606447Y-61516143D01*
X95619204Y-61641745D01*
X95616180Y-61703411D01*
X95598497Y-61802296D01*
X95558716Y-61912374D01*
X95501734Y-62010222D01*
X95430777Y-62092808D01*
X95349072Y-62157097D01*
X95404577Y-62197774D01*
X95479475Y-62274598D01*
X95541474Y-62367695D01*
X95587347Y-62474034D01*
X95610929Y-62570575D01*
X95619204Y-62672449D01*
X95619204Y-63298200D01*
X95399874Y-63298200D01*
X95399874Y-62672449D01*
X95387288Y-62570535D01*
X95351565Y-62478411D01*
X95282455Y-62385098D01*
X95189696Y-62315586D01*
X95098138Y-62279662D01*
X94996874Y-62267006D01*
X93567076Y-62267006D01*
X93567076Y-63298200D01*
X93347746Y-63298200D01*
X93347746Y-61235324D01*
X93566587Y-61235324D01*
X93566587Y-62047676D01*
X94996874Y-62047676D01*
X95098138Y-62034825D01*
X95189696Y-61998766D01*
X95282455Y-61929157D01*
X95351565Y-61835798D01*
X95387288Y-61743660D01*
X95399874Y-61641745D01*
X95387286Y-61539603D01*
X95351550Y-61447263D01*
X95282393Y-61353721D01*
X95189537Y-61284033D01*
X95097845Y-61248014D01*
X94996385Y-61235324D01*
X93566587Y-61235324D01*
X93347746Y-61235324D01*
X93347746Y-61016483D01*
X94996385Y-61016483D01*
X95121181Y-61029245D01*
G37*
G36*
X96770077Y-61016483D02*
G01*
X96645302Y-61029245D01*
X96528788Y-61065820D01*
X96423115Y-61123644D01*
X96330867Y-61200153D01*
X96254624Y-61292783D01*
X96196968Y-61398967D01*
X96160482Y-61516143D01*
X96147746Y-61641745D01*
X96160482Y-61767206D01*
X96196968Y-61884316D01*
X96254624Y-61990492D01*
X96330867Y-62083152D01*
X96423115Y-62159716D01*
X96528788Y-62217600D01*
X96645302Y-62254224D01*
X96770077Y-62267006D01*
X97796385Y-62267006D01*
X97897845Y-62279664D01*
X97989537Y-62315601D01*
X98082393Y-62385159D01*
X98151550Y-62478570D01*
X98187286Y-62570829D01*
X98199874Y-62672938D01*
X98187286Y-62775079D01*
X98151550Y-62867419D01*
X98082393Y-62960961D01*
X97989537Y-63030649D01*
X97897845Y-63066668D01*
X97796385Y-63079358D01*
X96147746Y-63079358D01*
X96147746Y-63298200D01*
X97796385Y-63298200D01*
X97921181Y-63285438D01*
X98037750Y-63248862D01*
X98143501Y-63191038D01*
X98235839Y-63114529D01*
X98312172Y-63021900D01*
X98369905Y-62915715D01*
X98406447Y-62798540D01*
X98419204Y-62672938D01*
X98406447Y-62547336D01*
X98369905Y-62430160D01*
X98312172Y-62323976D01*
X98235839Y-62231347D01*
X98143501Y-62154838D01*
X98037750Y-62097013D01*
X97921181Y-62060438D01*
X97796385Y-62047676D01*
X96770077Y-62047676D01*
X96668649Y-62034987D01*
X96577038Y-61998968D01*
X96484313Y-61929279D01*
X96415287Y-61835737D01*
X96379632Y-61743397D01*
X96367076Y-61641256D01*
X96379632Y-61539310D01*
X96415287Y-61447104D01*
X96484313Y-61353660D01*
X96577038Y-61284018D01*
X96668649Y-61248012D01*
X96770077Y-61235324D01*
X98419204Y-61235324D01*
X98419204Y-61016483D01*
X96770077Y-61016483D01*
G37*
G36*
X98947746Y-62157097D02*
G01*
X98953631Y-62273515D01*
X98970901Y-62386629D01*
X98998976Y-62495857D01*
X99037276Y-62600619D01*
X99085222Y-62700335D01*
X99142234Y-62794425D01*
X99207732Y-62882308D01*
X99281137Y-62963404D01*
X99361870Y-63037132D01*
X99449350Y-63102913D01*
X99542998Y-63160166D01*
X99642235Y-63208310D01*
X99746481Y-63246766D01*
X99855156Y-63274953D01*
X99967680Y-63292291D01*
X100083475Y-63298200D01*
X101219204Y-63298200D01*
X101219204Y-63079358D01*
X100083475Y-63079358D01*
X99952152Y-63070028D01*
X99826662Y-63042943D01*
X99708276Y-62999464D01*
X99598269Y-62940949D01*
X99497911Y-62868760D01*
X99408477Y-62784255D01*
X99331238Y-62688793D01*
X99267467Y-62583736D01*
X99218438Y-62470441D01*
X99185423Y-62350270D01*
X99172938Y-62267006D01*
X101219204Y-62267006D01*
X101219204Y-62047676D01*
X99172938Y-62047676D01*
X99194570Y-61923687D01*
X99233065Y-61805690D01*
X99287149Y-61695039D01*
X99355550Y-61593090D01*
X99436996Y-61501196D01*
X99530213Y-61420713D01*
X99633928Y-61352996D01*
X99746870Y-61299400D01*
X99867766Y-61261279D01*
X99995342Y-61239988D01*
X100083475Y-61235813D01*
X101219204Y-61235813D01*
X101219204Y-61016483D01*
X100083475Y-61016483D01*
X99967680Y-61022391D01*
X99855156Y-61039728D01*
X99746481Y-61067913D01*
X99642235Y-61106364D01*
X99542998Y-61154501D01*
X99449350Y-61211744D01*
X99361870Y-61277509D01*
X99281137Y-61351218D01*
X99207732Y-61432288D01*
X99142234Y-61520138D01*
X99085222Y-61614188D01*
X99037276Y-61713857D01*
X98998976Y-61818563D01*
X98970901Y-61927726D01*
X98953631Y-62040764D01*
X98947746Y-62157097D01*
G37*
G36*
X109468822Y-61029245D02*
G01*
X109585391Y-61065820D01*
X109691142Y-61123644D01*
X109783480Y-61200153D01*
X109859813Y-61292783D01*
X109917546Y-61398967D01*
X109954088Y-61516143D01*
X109966845Y-61641745D01*
X109954088Y-61767206D01*
X109917546Y-61884316D01*
X109859813Y-61990492D01*
X109783480Y-62083152D01*
X109691142Y-62159716D01*
X109585391Y-62217600D01*
X109468822Y-62254224D01*
X109344026Y-62267006D01*
X107914717Y-62267006D01*
X107914717Y-63298200D01*
X107695387Y-63298200D01*
X107695387Y-61235324D01*
X107914717Y-61235324D01*
X107914717Y-62047676D01*
X109344026Y-62047676D01*
X109425159Y-62029345D01*
X109523642Y-61978098D01*
X109606057Y-61914306D01*
X109677743Y-61834814D01*
X109728347Y-61742875D01*
X109747515Y-61641745D01*
X109734927Y-61539603D01*
X109699191Y-61447263D01*
X109630034Y-61353721D01*
X109537178Y-61284033D01*
X109445486Y-61248014D01*
X109344026Y-61235324D01*
X107914717Y-61235324D01*
X107695387Y-61235324D01*
X107695387Y-61016483D01*
X109344026Y-61016483D01*
X109468822Y-61029245D01*
G37*
G36*
X112547515Y-62157585D02*
G01*
X112536990Y-62298283D01*
X112506438Y-62432207D01*
X112457391Y-62557816D01*
X112391384Y-62673567D01*
X112309950Y-62777915D01*
X112214622Y-62869318D01*
X112106934Y-62946232D01*
X111988420Y-63007115D01*
X111860613Y-63050424D01*
X111725047Y-63074614D01*
X111631116Y-63079358D01*
X111491229Y-63068770D01*
X111358078Y-63038036D01*
X111233199Y-62988698D01*
X111118123Y-62922299D01*
X111014385Y-62840384D01*
X110923518Y-62744494D01*
X110847056Y-62636174D01*
X110786532Y-62516966D01*
X110743480Y-62388413D01*
X110719433Y-62252060D01*
X110714717Y-62157585D01*
X110714717Y-61015994D01*
X110495387Y-61015994D01*
X110495387Y-62157585D01*
X110501272Y-62273918D01*
X110518542Y-62386956D01*
X110546617Y-62496119D01*
X110584917Y-62600825D01*
X110632863Y-62700494D01*
X110689875Y-62794544D01*
X110755373Y-62882395D01*
X110828778Y-62963465D01*
X110909511Y-63037173D01*
X110996991Y-63102939D01*
X111090639Y-63160181D01*
X111189876Y-63208318D01*
X111294122Y-63246770D01*
X111402797Y-63274954D01*
X111515321Y-63292291D01*
X111631116Y-63298200D01*
X111746830Y-63292291D01*
X111859295Y-63274954D01*
X111967929Y-63246770D01*
X112072150Y-63208318D01*
X112171376Y-63160181D01*
X112265026Y-63102939D01*
X112352518Y-63037173D01*
X112433271Y-62963465D01*
X112506701Y-62882395D01*
X112572229Y-62794544D01*
X112629271Y-62700494D01*
X112677246Y-62600825D01*
X112715573Y-62496119D01*
X112743670Y-62386956D01*
X112760954Y-62273918D01*
X112766845Y-62157585D01*
X112766845Y-61015994D01*
X112547515Y-61015994D01*
X112547515Y-62157585D01*
G37*
G36*
X114944026Y-63079358D02*
G01*
X113514717Y-63079358D01*
X113514717Y-61015994D01*
X113295387Y-61015994D01*
X113295387Y-63094989D01*
X113295387Y-63138465D01*
X113295387Y-63298200D01*
X114944026Y-63298200D01*
X115566845Y-63298200D01*
X115566845Y-63079358D01*
X115382686Y-63079358D01*
X114944026Y-63079358D01*
G37*
G36*
X116717718Y-61016483D02*
G01*
X116592943Y-61029245D01*
X116476429Y-61065820D01*
X116370756Y-61123644D01*
X116278508Y-61200153D01*
X116202265Y-61292783D01*
X116144609Y-61398967D01*
X116108123Y-61516143D01*
X116095387Y-61641745D01*
X116108123Y-61767206D01*
X116144609Y-61884316D01*
X116202265Y-61990492D01*
X116278508Y-62083152D01*
X116370756Y-62159716D01*
X116476429Y-62217600D01*
X116592943Y-62254224D01*
X116717718Y-62267006D01*
X117744026Y-62267006D01*
X117845486Y-62279664D01*
X117937178Y-62315601D01*
X118030034Y-62385159D01*
X118099191Y-62478570D01*
X118134927Y-62570829D01*
X118147515Y-62672938D01*
X118134927Y-62775079D01*
X118099191Y-62867419D01*
X118030034Y-62960961D01*
X117937178Y-63030649D01*
X117845486Y-63066668D01*
X117744026Y-63079358D01*
X116095387Y-63079358D01*
X116095387Y-63298200D01*
X117744026Y-63298200D01*
X117868822Y-63285438D01*
X117985391Y-63248862D01*
X118091142Y-63191038D01*
X118183480Y-63114529D01*
X118259813Y-63021900D01*
X118317546Y-62915715D01*
X118354088Y-62798540D01*
X118366845Y-62672938D01*
X118354088Y-62547336D01*
X118317546Y-62430160D01*
X118259813Y-62323976D01*
X118183480Y-62231347D01*
X118091142Y-62154838D01*
X117985391Y-62097013D01*
X117868822Y-62060438D01*
X117744026Y-62047676D01*
X116717718Y-62047676D01*
X116616290Y-62034987D01*
X116524679Y-61998968D01*
X116431953Y-61929279D01*
X116362927Y-61835737D01*
X116327273Y-61743397D01*
X116314717Y-61641256D01*
X116327273Y-61539310D01*
X116362927Y-61447104D01*
X116431953Y-61353660D01*
X116524679Y-61284018D01*
X116616290Y-61248012D01*
X116717718Y-61235324D01*
X118366845Y-61235324D01*
X118366845Y-61016483D01*
X116717718Y-61016483D01*
G37*
G36*
X118895387Y-62157097D02*
G01*
X118901272Y-62273515D01*
X118918542Y-62386629D01*
X118946617Y-62495857D01*
X118984917Y-62600619D01*
X119032863Y-62700335D01*
X119089875Y-62794425D01*
X119155373Y-62882308D01*
X119228778Y-62963404D01*
X119309511Y-63037132D01*
X119396991Y-63102913D01*
X119490639Y-63160166D01*
X119589876Y-63208310D01*
X119694122Y-63246766D01*
X119802797Y-63274953D01*
X119915321Y-63292291D01*
X120031116Y-63298200D01*
X121166845Y-63298200D01*
X121166845Y-63079358D01*
X120031116Y-63079358D01*
X119899793Y-63070028D01*
X119774303Y-63042943D01*
X119655917Y-62999464D01*
X119545909Y-62940949D01*
X119445552Y-62868760D01*
X119356117Y-62784255D01*
X119278879Y-62688793D01*
X119215108Y-62583736D01*
X119166079Y-62470441D01*
X119133064Y-62350270D01*
X119120579Y-62267006D01*
X121166845Y-62267006D01*
X121166845Y-62047676D01*
X119120579Y-62047676D01*
X119142211Y-61923687D01*
X119180706Y-61805690D01*
X119234790Y-61695039D01*
X119303191Y-61593090D01*
X119384637Y-61501196D01*
X119477854Y-61420713D01*
X119581569Y-61352996D01*
X119694511Y-61299400D01*
X119815406Y-61261279D01*
X119942982Y-61239988D01*
X120031116Y-61235813D01*
X121166845Y-61235813D01*
X121166845Y-61016483D01*
X120031116Y-61016483D01*
X119915321Y-61022391D01*
X119802797Y-61039728D01*
X119694122Y-61067913D01*
X119589876Y-61106364D01*
X119490639Y-61154501D01*
X119396991Y-61211744D01*
X119309511Y-61277509D01*
X119228778Y-61351218D01*
X119155373Y-61432288D01*
X119089875Y-61520138D01*
X119032863Y-61614188D01*
X118984917Y-61713857D01*
X118946617Y-61818563D01*
X118918542Y-61927726D01*
X118901272Y-62040764D01*
X118895387Y-62157097D01*
G37*
G36*
X125242770Y-62579149D02*
G01*
X125232742Y-62680444D01*
X125203943Y-62774566D01*
X125144488Y-62879158D01*
X125062485Y-62965680D01*
X124961704Y-63030320D01*
X124845912Y-63069265D01*
X124745003Y-63079358D01*
X124644255Y-63069265D01*
X124550662Y-63040287D01*
X124446681Y-62980481D01*
X124360683Y-62898030D01*
X124296447Y-62796747D01*
X124263266Y-62704723D01*
X124248366Y-62605038D01*
X124247725Y-62579149D01*
X124247725Y-61015994D01*
X124028394Y-61015994D01*
X124028394Y-62579149D01*
X124018367Y-62680444D01*
X123989575Y-62774566D01*
X123930145Y-62879158D01*
X123848197Y-62965680D01*
X123747510Y-63030320D01*
X123631864Y-63069265D01*
X123531116Y-63079358D01*
X123430368Y-63069307D01*
X123336775Y-63040439D01*
X123232794Y-62980834D01*
X123146796Y-62898610D01*
X123082560Y-62797535D01*
X123049379Y-62705636D01*
X123034479Y-62606012D01*
X123033838Y-62580126D01*
X123033838Y-61015994D01*
X122814508Y-61015994D01*
X122814508Y-62579149D01*
X122822814Y-62688319D01*
X122846901Y-62792435D01*
X122885523Y-62890256D01*
X122937434Y-62980541D01*
X123001388Y-63062048D01*
X123076139Y-63133536D01*
X123160440Y-63193763D01*
X123253046Y-63241489D01*
X123352709Y-63275472D01*
X123458185Y-63294471D01*
X123531116Y-63298200D01*
X123628593Y-63291572D01*
X123744716Y-63265883D01*
X123852487Y-63222997D01*
X123949771Y-63165205D01*
X124034432Y-63094799D01*
X124104335Y-63014071D01*
X124138304Y-62961633D01*
X124198326Y-63047454D01*
X124274389Y-63124328D01*
X124364355Y-63189964D01*
X124466090Y-63242068D01*
X124577458Y-63278351D01*
X124696324Y-63296518D01*
X124745491Y-63298200D01*
X124854037Y-63289880D01*
X124957645Y-63265748D01*
X125055063Y-63227046D01*
X125145037Y-63175015D01*
X125226314Y-63110896D01*
X125297641Y-63035931D01*
X125357763Y-62951360D01*
X125405428Y-62858425D01*
X125439382Y-62758368D01*
X125458372Y-62652429D01*
X125462100Y-62579149D01*
X125462100Y-61015994D01*
X125242770Y-61015994D01*
X125242770Y-62579149D01*
G37*
G36*
X126584640Y-61235324D02*
G01*
X126584640Y-61016483D01*
X125989176Y-61016483D01*
X125989176Y-61235324D01*
X126177243Y-61235324D01*
X126177243Y-63079358D01*
X125989176Y-63079358D01*
X125989176Y-63298200D01*
X126584640Y-63298200D01*
X126584640Y-63079358D01*
X126396573Y-63079358D01*
X126396573Y-61235324D01*
X126584640Y-61235324D01*
G37*
G36*
X128247445Y-61016483D02*
G01*
X127111716Y-61016483D01*
X127111716Y-61235324D01*
X128247445Y-61235324D01*
X128387333Y-61245912D01*
X128520483Y-61276647D01*
X128645363Y-61325985D01*
X128760438Y-61392383D01*
X128864176Y-61474299D01*
X128955043Y-61570188D01*
X129031506Y-61678509D01*
X129092030Y-61797716D01*
X129135082Y-61926269D01*
X129159129Y-62062623D01*
X129163845Y-62157097D01*
X129153320Y-62297919D01*
X129122767Y-62431945D01*
X129073720Y-62557635D01*
X129007713Y-62673447D01*
X128926279Y-62777842D01*
X128830951Y-62869277D01*
X128723264Y-62946213D01*
X128604750Y-63007108D01*
X128476943Y-63050422D01*
X128341376Y-63074614D01*
X128247445Y-63079358D01*
X127331046Y-63079358D01*
X127331046Y-62047188D01*
X127111716Y-62047188D01*
X127111716Y-63298200D01*
X128247445Y-63298200D01*
X128363160Y-63292291D01*
X128475625Y-63274953D01*
X128584258Y-63246766D01*
X128688479Y-63208310D01*
X128787706Y-63160166D01*
X128881356Y-63102913D01*
X128968848Y-63037132D01*
X129049600Y-62963404D01*
X129123031Y-62882308D01*
X129188558Y-62794425D01*
X129245600Y-62700335D01*
X129293576Y-62600619D01*
X129331903Y-62495857D01*
X129359999Y-62386629D01*
X129377284Y-62273515D01*
X129383175Y-62157097D01*
X129377284Y-62040764D01*
X129359999Y-61927726D01*
X129331903Y-61818563D01*
X129293576Y-61713857D01*
X129245600Y-61614188D01*
X129188558Y-61520138D01*
X129123031Y-61432288D01*
X129049600Y-61351218D01*
X128968848Y-61277509D01*
X128881356Y-61211744D01*
X128787706Y-61154501D01*
X128688479Y-61106364D01*
X128584258Y-61067913D01*
X128475625Y-61039728D01*
X128363160Y-61022391D01*
X128247445Y-61016483D01*
G37*
G36*
X129491618Y-61235324D02*
G01*
X130517438Y-61235324D01*
X130517438Y-63298200D01*
X130736769Y-63298200D01*
X130736769Y-61235324D01*
X131763077Y-61235324D01*
X131763077Y-61016483D01*
X129491618Y-61016483D01*
X129491618Y-61235324D01*
G37*
G36*
X134343747Y-62048165D02*
G01*
X132510949Y-62048165D01*
X132510949Y-61015994D01*
X132291618Y-61015994D01*
X132291618Y-63298200D01*
X132510949Y-63298200D01*
X132510949Y-62267006D01*
X134343747Y-62267006D01*
X134343747Y-63298200D01*
X134563077Y-63298200D01*
X134563077Y-61015994D01*
X134343747Y-61015994D01*
X134343747Y-62048165D01*
G37*
G36*
X101608528Y-36583294D02*
G01*
X101771395Y-36454129D01*
X101912805Y-36285268D01*
X102026342Y-36079880D01*
X102095037Y-35883105D01*
X102136210Y-35664998D01*
X102146839Y-35476386D01*
X102114599Y-35551613D01*
X102099444Y-35300731D01*
X102034212Y-35066623D01*
X101924421Y-34854427D01*
X101775590Y-34669285D01*
X101593236Y-34516338D01*
X101382878Y-34400725D01*
X101150034Y-34327588D01*
X100900223Y-34302066D01*
X98723531Y-34302066D01*
X98723531Y-34740726D01*
X100900223Y-34740726D01*
X101103143Y-34766041D01*
X101286528Y-34837917D01*
X101472240Y-34977031D01*
X101610554Y-35163853D01*
X101682026Y-35348371D01*
X101707202Y-35552590D01*
X101682026Y-35756482D01*
X101610554Y-35940893D01*
X101472240Y-36127781D01*
X101286528Y-36267066D01*
X101103143Y-36339077D01*
X100900223Y-36364453D01*
X100215366Y-36364453D01*
X100215366Y-36803113D01*
X100900223Y-36803113D01*
X101103143Y-36828428D01*
X101286528Y-36900303D01*
X101472240Y-37039418D01*
X101610554Y-37226240D01*
X101682026Y-37410758D01*
X101707202Y-37614976D01*
X101682026Y-37819258D01*
X101610554Y-38003939D01*
X101472240Y-38191023D01*
X101286528Y-38330399D01*
X101103143Y-38402437D01*
X100900223Y-38427816D01*
X98723531Y-38427816D01*
X98723531Y-38865500D01*
X100900223Y-38865500D01*
X101150095Y-38839976D01*
X101383366Y-38766825D01*
X101594884Y-38651176D01*
X101779498Y-38498158D01*
X101932054Y-38312900D01*
X102047401Y-38100531D01*
X102120388Y-37866180D01*
X102145862Y-37614976D01*
X102145862Y-37613999D01*
X102129443Y-37410250D01*
X102082631Y-37217168D01*
X101991500Y-37004491D01*
X101868222Y-36818296D01*
X101719131Y-36664648D01*
X101608528Y-36583294D01*
G37*
G36*
X106086964Y-36583294D02*
G01*
X106249832Y-36454129D01*
X106391241Y-36285268D01*
X106504779Y-36079880D01*
X106573474Y-35883105D01*
X106614647Y-35664998D01*
X106625276Y-35476386D01*
X106593036Y-35551613D01*
X106577881Y-35300731D01*
X106512649Y-35066623D01*
X106402858Y-34854427D01*
X106254027Y-34669285D01*
X106071673Y-34516338D01*
X105861315Y-34400725D01*
X105628471Y-34327588D01*
X105378660Y-34302066D01*
X103201968Y-34302066D01*
X103201968Y-34740726D01*
X105378660Y-34740726D01*
X105581580Y-34766041D01*
X105764965Y-34837917D01*
X105950677Y-34977031D01*
X106088991Y-35163853D01*
X106160463Y-35348371D01*
X106185639Y-35552590D01*
X106160463Y-35756482D01*
X106088991Y-35940893D01*
X105950677Y-36127781D01*
X105764965Y-36267066D01*
X105581580Y-36339077D01*
X105378660Y-36364453D01*
X104693803Y-36364453D01*
X104693803Y-36803113D01*
X105378660Y-36803113D01*
X105581580Y-36828428D01*
X105764965Y-36900303D01*
X105950677Y-37039418D01*
X106088991Y-37226240D01*
X106160463Y-37410758D01*
X106185639Y-37614976D01*
X106160463Y-37819258D01*
X106088991Y-38003939D01*
X105950677Y-38191023D01*
X105764965Y-38330399D01*
X105581580Y-38402437D01*
X105378660Y-38427816D01*
X103201968Y-38427816D01*
X103201968Y-38865500D01*
X105378660Y-38865500D01*
X105628532Y-38839976D01*
X105861803Y-38766825D01*
X106073321Y-38651176D01*
X106257934Y-38498158D01*
X106410491Y-38312900D01*
X106525838Y-38100531D01*
X106598825Y-37866180D01*
X106624299Y-37614976D01*
X106624299Y-37613999D01*
X106607880Y-37410250D01*
X106561067Y-37217168D01*
X106469937Y-37004491D01*
X106346659Y-36818296D01*
X106197568Y-36664648D01*
X106086964Y-36583294D01*
G37*
G36*
X110664075Y-34301089D02*
G01*
X110664075Y-36364453D01*
X108925066Y-36364453D01*
X108722211Y-36339202D01*
X108538989Y-36267489D01*
X108353538Y-36128636D01*
X108215486Y-35942076D01*
X108144176Y-35757721D01*
X108119065Y-35553566D01*
X108119065Y-34301089D01*
X107680405Y-34301089D01*
X107680405Y-35553566D01*
X107705877Y-35804490D01*
X107778850Y-36038709D01*
X107894161Y-36251061D01*
X108046647Y-36436382D01*
X108231144Y-36589509D01*
X108442488Y-36705278D01*
X108675517Y-36778526D01*
X108925066Y-36804090D01*
X110664075Y-36804090D01*
X110664075Y-38865500D01*
X111102736Y-38865500D01*
X111102736Y-34301089D01*
X110664075Y-34301089D01*
G37*
G36*
X113970865Y-34304958D02*
G01*
X114212973Y-34336654D01*
X114443756Y-34401242D01*
X114660444Y-34496152D01*
X114860262Y-34618813D01*
X115040438Y-34766652D01*
X115198200Y-34937098D01*
X115241785Y-34993057D01*
X115358606Y-35172303D01*
X115452965Y-35366800D01*
X115522852Y-35574228D01*
X115566257Y-35792269D01*
X115581172Y-36018605D01*
X115581172Y-36021536D01*
X115581172Y-37147007D01*
X115572286Y-37322154D01*
X115527007Y-37575354D01*
X115446030Y-37814492D01*
X115332324Y-38036603D01*
X115188861Y-38238720D01*
X115018611Y-38417879D01*
X114824544Y-38571114D01*
X114609631Y-38695459D01*
X114376842Y-38787949D01*
X114129148Y-38845618D01*
X113869519Y-38865500D01*
X113695425Y-38856590D01*
X113443640Y-38811187D01*
X113205728Y-38729975D01*
X112984662Y-38615919D01*
X112783418Y-38471985D01*
X112604972Y-38301137D01*
X112452299Y-38106343D01*
X112328375Y-37890567D01*
X112236173Y-37656776D01*
X112178670Y-37407934D01*
X112158842Y-37147007D01*
X112597502Y-37147007D01*
X112623187Y-37406244D01*
X112696924Y-37647186D01*
X112813731Y-37864817D01*
X112968629Y-38054125D01*
X113156637Y-38210093D01*
X113372774Y-38327707D01*
X113612062Y-38401953D01*
X113869519Y-38427816D01*
X113935403Y-38426161D01*
X114189085Y-38387732D01*
X114423276Y-38302174D01*
X114633007Y-38174501D01*
X114813308Y-38009728D01*
X114959211Y-37812869D01*
X115065746Y-37588940D01*
X115127947Y-37342954D01*
X115142512Y-37147007D01*
X115142512Y-36021536D01*
X115140868Y-35955374D01*
X115102699Y-35700542D01*
X115017710Y-35465182D01*
X114890869Y-35254319D01*
X114727146Y-35072981D01*
X114531510Y-34926192D01*
X114308928Y-34818979D01*
X114064370Y-34756368D01*
X113869519Y-34741703D01*
X113803723Y-34743359D01*
X113550342Y-34781784D01*
X113316375Y-34867324D01*
X113106803Y-34994953D01*
X112926606Y-35159646D01*
X112780764Y-35356374D01*
X112674257Y-35580114D01*
X112612067Y-35825839D01*
X112597502Y-36021536D01*
X112597502Y-37147007D01*
X112158842Y-37147007D01*
X112158842Y-36021536D01*
X112167728Y-35846388D01*
X112213003Y-35593189D01*
X112293969Y-35354051D01*
X112407650Y-35131940D01*
X112551071Y-34929822D01*
X112721256Y-34750663D01*
X112915231Y-34597428D01*
X113130020Y-34473083D01*
X113362648Y-34380594D01*
X113610139Y-34322925D01*
X113869519Y-34303043D01*
X113871472Y-34302066D01*
X113970865Y-34304958D01*
G37*
G36*
X97781522Y-146003783D02*
G01*
X97656747Y-146016545D01*
X97540233Y-146053120D01*
X97434560Y-146110944D01*
X97342312Y-146187453D01*
X97266069Y-146280083D01*
X97208413Y-146386267D01*
X97171927Y-146503443D01*
X97159191Y-146629045D01*
X97171927Y-146754506D01*
X97208413Y-146871616D01*
X97266069Y-146977792D01*
X97342312Y-147070452D01*
X97434560Y-147147016D01*
X97540233Y-147204900D01*
X97656747Y-147241524D01*
X97781522Y-147254306D01*
X98807830Y-147254306D01*
X98909290Y-147266964D01*
X99000982Y-147302901D01*
X99093838Y-147372459D01*
X99162995Y-147465870D01*
X99198731Y-147558129D01*
X99211319Y-147660238D01*
X99198731Y-147762379D01*
X99162995Y-147854719D01*
X99093838Y-147948261D01*
X99000982Y-148017949D01*
X98909290Y-148053968D01*
X98807830Y-148066658D01*
X97159191Y-148066658D01*
X97159191Y-148285500D01*
X98807830Y-148285500D01*
X98932626Y-148272738D01*
X99049195Y-148236162D01*
X99154946Y-148178338D01*
X99247284Y-148101829D01*
X99323617Y-148009200D01*
X99381350Y-147903015D01*
X99417892Y-147785840D01*
X99430649Y-147660238D01*
X99417892Y-147534636D01*
X99381350Y-147417460D01*
X99323617Y-147311276D01*
X99247284Y-147218647D01*
X99154946Y-147142138D01*
X99049195Y-147084313D01*
X98932626Y-147047738D01*
X98807830Y-147034976D01*
X97781522Y-147034976D01*
X97680094Y-147022287D01*
X97588483Y-146986268D01*
X97495757Y-146916579D01*
X97426731Y-146823037D01*
X97391077Y-146730697D01*
X97378521Y-146628556D01*
X97391077Y-146526610D01*
X97426731Y-146434404D01*
X97495757Y-146340960D01*
X97588483Y-146271318D01*
X97680094Y-146235312D01*
X97781522Y-146222624D01*
X99430649Y-146222624D01*
X99430649Y-146003783D01*
X97781522Y-146003783D01*
G37*
G36*
X99779428Y-148285500D02*
G01*
X100044187Y-148285500D01*
X101065122Y-146468333D01*
X102086058Y-148285011D01*
X102351305Y-148285500D01*
X101065122Y-145986686D01*
X99779428Y-148285500D01*
G37*
G36*
X105294432Y-147566449D02*
G01*
X105284403Y-147667744D01*
X105255605Y-147761866D01*
X105196149Y-147866458D01*
X105114147Y-147952980D01*
X105013366Y-148017620D01*
X104897574Y-148056565D01*
X104796665Y-148066658D01*
X104695916Y-148056565D01*
X104602324Y-148027587D01*
X104498343Y-147967781D01*
X104412345Y-147885330D01*
X104348109Y-147784047D01*
X104314928Y-147692023D01*
X104300028Y-147592338D01*
X104299386Y-147566449D01*
X104299386Y-146003294D01*
X104080056Y-146003294D01*
X104080056Y-147566449D01*
X104070029Y-147667744D01*
X104041237Y-147761866D01*
X103981806Y-147866458D01*
X103899859Y-147952980D01*
X103799172Y-148017620D01*
X103683526Y-148056565D01*
X103582778Y-148066658D01*
X103482029Y-148056607D01*
X103388437Y-148027739D01*
X103284456Y-147968134D01*
X103198458Y-147885910D01*
X103134222Y-147784835D01*
X103101041Y-147692936D01*
X103086141Y-147593312D01*
X103085499Y-147567426D01*
X103085499Y-146003294D01*
X102866169Y-146003294D01*
X102866169Y-147566449D01*
X102874475Y-147675619D01*
X102898562Y-147779735D01*
X102937185Y-147877556D01*
X102989096Y-147967841D01*
X103053050Y-148049348D01*
X103127800Y-148120836D01*
X103212102Y-148181063D01*
X103304707Y-148228789D01*
X103404371Y-148262772D01*
X103509847Y-148281771D01*
X103582778Y-148285500D01*
X103680254Y-148278872D01*
X103796377Y-148253183D01*
X103904149Y-148210297D01*
X104001433Y-148152505D01*
X104086093Y-148082099D01*
X104155996Y-148001371D01*
X104189965Y-147948933D01*
X104249988Y-148034754D01*
X104326050Y-148111628D01*
X104416017Y-148177264D01*
X104517752Y-148229368D01*
X104629120Y-148265651D01*
X104747986Y-148283818D01*
X104797153Y-148285500D01*
X104905699Y-148277180D01*
X105009307Y-148253048D01*
X105106725Y-148214346D01*
X105196699Y-148162315D01*
X105277976Y-148098196D01*
X105349302Y-148023231D01*
X105409425Y-147938660D01*
X105457090Y-147845725D01*
X105491044Y-147745668D01*
X105510034Y-147639729D01*
X105513762Y-147566449D01*
X105513762Y-146003294D01*
X105294432Y-146003294D01*
X105294432Y-147566449D01*
G37*
G36*
X86662750Y-133144397D02*
G01*
X86668635Y-133260815D01*
X86685905Y-133373929D01*
X86713980Y-133483157D01*
X86752280Y-133587919D01*
X86800226Y-133687635D01*
X86857238Y-133781725D01*
X86922736Y-133869608D01*
X86996141Y-133950704D01*
X87076874Y-134024432D01*
X87164354Y-134090213D01*
X87258002Y-134147466D01*
X87357239Y-134195610D01*
X87461485Y-134234066D01*
X87570160Y-134262253D01*
X87682684Y-134279591D01*
X87798479Y-134285500D01*
X88934208Y-134285500D01*
X88934208Y-134066658D01*
X87798479Y-134066658D01*
X87658592Y-134056070D01*
X87525441Y-134025332D01*
X87400562Y-133975987D01*
X87285486Y-133909574D01*
X87181748Y-133827633D01*
X87090881Y-133731707D01*
X87014419Y-133623336D01*
X86953895Y-133504060D01*
X86910843Y-133375420D01*
X86886796Y-133238957D01*
X86882080Y-133144397D01*
X86892605Y-133003700D01*
X86923157Y-132869775D01*
X86972204Y-132744166D01*
X87038211Y-132628416D01*
X87119645Y-132524068D01*
X87214973Y-132432665D01*
X87322661Y-132355750D01*
X87441175Y-132294867D01*
X87568982Y-132251559D01*
X87704548Y-132227368D01*
X87798479Y-132222624D01*
X88934208Y-132222624D01*
X88934208Y-132003783D01*
X87798479Y-132003783D01*
X87682684Y-132009691D01*
X87570160Y-132027028D01*
X87461485Y-132055213D01*
X87357239Y-132093664D01*
X87258002Y-132141801D01*
X87164354Y-132199044D01*
X87076874Y-132264809D01*
X86996141Y-132338518D01*
X86922736Y-132419588D01*
X86857238Y-132507438D01*
X86800226Y-132601488D01*
X86752280Y-132701157D01*
X86713980Y-132805863D01*
X86685905Y-132915026D01*
X86668635Y-133028064D01*
X86662750Y-133144397D01*
G37*
G36*
X90736720Y-133829254D02*
G01*
X89716274Y-132004271D01*
X89451026Y-132003294D01*
X90736720Y-134302108D01*
X92022903Y-132003294D01*
X91758144Y-132003294D01*
X90736720Y-133829254D01*
G37*
G36*
X84373937Y-146016545D02*
G01*
X84490506Y-146053120D01*
X84596257Y-146110944D01*
X84688595Y-146187453D01*
X84764928Y-146280083D01*
X84822661Y-146386267D01*
X84859203Y-146503443D01*
X84871960Y-146629045D01*
X84859203Y-146754506D01*
X84822661Y-146871616D01*
X84764928Y-146977792D01*
X84688595Y-147070452D01*
X84596257Y-147147016D01*
X84490506Y-147204900D01*
X84373937Y-147241524D01*
X84249141Y-147254306D01*
X82819832Y-147254306D01*
X82819832Y-148285500D01*
X82600502Y-148285500D01*
X82600502Y-146222624D01*
X82819832Y-146222624D01*
X82819832Y-147034976D01*
X84249141Y-147034976D01*
X84330274Y-147016645D01*
X84428757Y-146965398D01*
X84511172Y-146901606D01*
X84582858Y-146822114D01*
X84633462Y-146730175D01*
X84652630Y-146629045D01*
X84640042Y-146526903D01*
X84604306Y-146434563D01*
X84535149Y-146341021D01*
X84442293Y-146271333D01*
X84350601Y-146235314D01*
X84249141Y-146222624D01*
X82819832Y-146222624D01*
X82600502Y-146222624D01*
X82600502Y-146003783D01*
X84249141Y-146003783D01*
X84373937Y-146016545D01*
G37*
G36*
X87452630Y-147144885D02*
G01*
X87442105Y-147285583D01*
X87411553Y-147419507D01*
X87362506Y-147545116D01*
X87296499Y-147660867D01*
X87215065Y-147765215D01*
X87119737Y-147856618D01*
X87012049Y-147933532D01*
X86893535Y-147994415D01*
X86765728Y-148037724D01*
X86630162Y-148061914D01*
X86536231Y-148066658D01*
X86396344Y-148056070D01*
X86263193Y-148025336D01*
X86138314Y-147975998D01*
X86023238Y-147909599D01*
X85919500Y-147827684D01*
X85828633Y-147731794D01*
X85752171Y-147623474D01*
X85691647Y-147504266D01*
X85648595Y-147375713D01*
X85624548Y-147239360D01*
X85619832Y-147144885D01*
X85619832Y-146003294D01*
X85400502Y-146003294D01*
X85400502Y-147144885D01*
X85406387Y-147261218D01*
X85423657Y-147374256D01*
X85451732Y-147483419D01*
X85490032Y-147588125D01*
X85537978Y-147687794D01*
X85594990Y-147781844D01*
X85660488Y-147869695D01*
X85733893Y-147950765D01*
X85814626Y-148024473D01*
X85902106Y-148090239D01*
X85995754Y-148147481D01*
X86094991Y-148195618D01*
X86199237Y-148234070D01*
X86307912Y-148262254D01*
X86420436Y-148279591D01*
X86536231Y-148285500D01*
X86651945Y-148279591D01*
X86764410Y-148262254D01*
X86873044Y-148234070D01*
X86977265Y-148195618D01*
X87076491Y-148147481D01*
X87170141Y-148090239D01*
X87257633Y-148024473D01*
X87338386Y-147950765D01*
X87411816Y-147869695D01*
X87477344Y-147781844D01*
X87534386Y-147687794D01*
X87582361Y-147588125D01*
X87620688Y-147483419D01*
X87648785Y-147374256D01*
X87666069Y-147261218D01*
X87671960Y-147144885D01*
X87671960Y-146003294D01*
X87452630Y-146003294D01*
X87452630Y-147144885D01*
G37*
G36*
X89849141Y-148066658D02*
G01*
X88419832Y-148066658D01*
X88419832Y-146003294D01*
X88200502Y-146003294D01*
X88200502Y-148082289D01*
X88200502Y-148125765D01*
X88200502Y-148285500D01*
X89849141Y-148285500D01*
X90471960Y-148285500D01*
X90471960Y-148066658D01*
X90287801Y-148066658D01*
X89849141Y-148066658D01*
G37*
G36*
X91622833Y-146003783D02*
G01*
X91498058Y-146016545D01*
X91381544Y-146053120D01*
X91275871Y-146110944D01*
X91183623Y-146187453D01*
X91107380Y-146280083D01*
X91049724Y-146386267D01*
X91013238Y-146503443D01*
X91000502Y-146629045D01*
X91013238Y-146754506D01*
X91049724Y-146871616D01*
X91107380Y-146977792D01*
X91183623Y-147070452D01*
X91275871Y-147147016D01*
X91381544Y-147204900D01*
X91498058Y-147241524D01*
X91622833Y-147254306D01*
X92649141Y-147254306D01*
X92750601Y-147266964D01*
X92842293Y-147302901D01*
X92935149Y-147372459D01*
X93004306Y-147465870D01*
X93040042Y-147558129D01*
X93052630Y-147660238D01*
X93040042Y-147762379D01*
X93004306Y-147854719D01*
X92935149Y-147948261D01*
X92842293Y-148017949D01*
X92750601Y-148053968D01*
X92649141Y-148066658D01*
X91000502Y-148066658D01*
X91000502Y-148285500D01*
X92649141Y-148285500D01*
X92773937Y-148272738D01*
X92890506Y-148236162D01*
X92996257Y-148178338D01*
X93088595Y-148101829D01*
X93164928Y-148009200D01*
X93222661Y-147903015D01*
X93259203Y-147785840D01*
X93271960Y-147660238D01*
X93259203Y-147534636D01*
X93222661Y-147417460D01*
X93164928Y-147311276D01*
X93088595Y-147218647D01*
X92996257Y-147142138D01*
X92890506Y-147084313D01*
X92773937Y-147047738D01*
X92649141Y-147034976D01*
X91622833Y-147034976D01*
X91521405Y-147022287D01*
X91429794Y-146986268D01*
X91337068Y-146916579D01*
X91268042Y-146823037D01*
X91232388Y-146730697D01*
X91219832Y-146628556D01*
X91232388Y-146526610D01*
X91268042Y-146434404D01*
X91337068Y-146340960D01*
X91429794Y-146271318D01*
X91521405Y-146235312D01*
X91622833Y-146222624D01*
X93271960Y-146222624D01*
X93271960Y-146003783D01*
X91622833Y-146003783D01*
G37*
G36*
X93800502Y-147144397D02*
G01*
X93806387Y-147260815D01*
X93823657Y-147373929D01*
X93851732Y-147483157D01*
X93890032Y-147587919D01*
X93937978Y-147687635D01*
X93994990Y-147781725D01*
X94060488Y-147869608D01*
X94133893Y-147950704D01*
X94214626Y-148024432D01*
X94302106Y-148090213D01*
X94395754Y-148147466D01*
X94494991Y-148195610D01*
X94599237Y-148234066D01*
X94707912Y-148262253D01*
X94820436Y-148279591D01*
X94936231Y-148285500D01*
X96071960Y-148285500D01*
X96071960Y-148066658D01*
X94936231Y-148066658D01*
X94804908Y-148057328D01*
X94679418Y-148030243D01*
X94561032Y-147986764D01*
X94451024Y-147928249D01*
X94350667Y-147856060D01*
X94261232Y-147771555D01*
X94183994Y-147676093D01*
X94120223Y-147571036D01*
X94071194Y-147457741D01*
X94038179Y-147337570D01*
X94025694Y-147254306D01*
X96071960Y-147254306D01*
X96071960Y-147034976D01*
X94025694Y-147034976D01*
X94047326Y-146910987D01*
X94085821Y-146792990D01*
X94139905Y-146682339D01*
X94208306Y-146580390D01*
X94289752Y-146488496D01*
X94382969Y-146408013D01*
X94486684Y-146340296D01*
X94599626Y-146286700D01*
X94720521Y-146248579D01*
X94848097Y-146227288D01*
X94936231Y-146223113D01*
X96071960Y-146223113D01*
X96071960Y-146003783D01*
X94936231Y-146003783D01*
X94820436Y-146009691D01*
X94707912Y-146027028D01*
X94599237Y-146055213D01*
X94494991Y-146093664D01*
X94395754Y-146141801D01*
X94302106Y-146199044D01*
X94214626Y-146264809D01*
X94133893Y-146338518D01*
X94060488Y-146419588D01*
X93994990Y-146507438D01*
X93937978Y-146601488D01*
X93890032Y-146701157D01*
X93851732Y-146805863D01*
X93823657Y-146915026D01*
X93806387Y-147028064D01*
X93800502Y-147144397D01*
G37*
M02*
