%TF.GenerationSoftware,KiCad,Pcbnew,8.0.0*%
%TF.CreationDate,2024-05-14T21:41:44+02:00*%
%TF.ProjectId,VCO-3340,56434f2d-3333-4343-902e-6b696361645f,rev?*%
%TF.SameCoordinates,Original*%
%TF.FileFunction,Legend,Top*%
%TF.FilePolarity,Positive*%
%FSLAX46Y46*%
G04 Gerber Fmt 4.6, Leading zero omitted, Abs format (unit mm)*
G04 Created by KiCad (PCBNEW 8.0.0) date 2024-05-14 21:41:44*
%MOMM*%
%LPD*%
G01*
G04 APERTURE LIST*
%ADD10C,0.150000*%
%ADD11C,0.152400*%
%ADD12C,0.127000*%
%ADD13C,0.120000*%
%ADD14C,0.254000*%
G04 APERTURE END LIST*
D10*
X32800180Y-57361057D02*
X32847800Y-57408676D01*
X32847800Y-57408676D02*
X32895419Y-57551533D01*
X32895419Y-57551533D02*
X32895419Y-57646771D01*
X32895419Y-57646771D02*
X32847800Y-57789628D01*
X32847800Y-57789628D02*
X32752561Y-57884866D01*
X32752561Y-57884866D02*
X32657323Y-57932485D01*
X32657323Y-57932485D02*
X32466847Y-57980104D01*
X32466847Y-57980104D02*
X32323990Y-57980104D01*
X32323990Y-57980104D02*
X32133514Y-57932485D01*
X32133514Y-57932485D02*
X32038276Y-57884866D01*
X32038276Y-57884866D02*
X31943038Y-57789628D01*
X31943038Y-57789628D02*
X31895419Y-57646771D01*
X31895419Y-57646771D02*
X31895419Y-57551533D01*
X31895419Y-57551533D02*
X31943038Y-57408676D01*
X31943038Y-57408676D02*
X31990657Y-57361057D01*
X32895419Y-56408676D02*
X32895419Y-56980104D01*
X32895419Y-56694390D02*
X31895419Y-56694390D01*
X31895419Y-56694390D02*
X32038276Y-56789628D01*
X32038276Y-56789628D02*
X32133514Y-56884866D01*
X32133514Y-56884866D02*
X32181133Y-56980104D01*
X31895419Y-55789628D02*
X31895419Y-55694390D01*
X31895419Y-55694390D02*
X31943038Y-55599152D01*
X31943038Y-55599152D02*
X31990657Y-55551533D01*
X31990657Y-55551533D02*
X32085895Y-55503914D01*
X32085895Y-55503914D02*
X32276371Y-55456295D01*
X32276371Y-55456295D02*
X32514466Y-55456295D01*
X32514466Y-55456295D02*
X32704942Y-55503914D01*
X32704942Y-55503914D02*
X32800180Y-55551533D01*
X32800180Y-55551533D02*
X32847800Y-55599152D01*
X32847800Y-55599152D02*
X32895419Y-55694390D01*
X32895419Y-55694390D02*
X32895419Y-55789628D01*
X32895419Y-55789628D02*
X32847800Y-55884866D01*
X32847800Y-55884866D02*
X32800180Y-55932485D01*
X32800180Y-55932485D02*
X32704942Y-55980104D01*
X32704942Y-55980104D02*
X32514466Y-56027723D01*
X32514466Y-56027723D02*
X32276371Y-56027723D01*
X32276371Y-56027723D02*
X32085895Y-55980104D01*
X32085895Y-55980104D02*
X31990657Y-55932485D01*
X31990657Y-55932485D02*
X31943038Y-55884866D01*
X31943038Y-55884866D02*
X31895419Y-55789628D01*
D11*
X54078522Y-131754772D02*
X54940308Y-131754772D01*
X54940308Y-131754772D02*
X55112665Y-131812225D01*
X55112665Y-131812225D02*
X55227570Y-131927129D01*
X55227570Y-131927129D02*
X55285022Y-132099487D01*
X55285022Y-132099487D02*
X55285022Y-132214391D01*
X55285022Y-131122796D02*
X55285022Y-130892987D01*
X55285022Y-130892987D02*
X55227570Y-130778082D01*
X55227570Y-130778082D02*
X55170117Y-130720630D01*
X55170117Y-130720630D02*
X54997760Y-130605725D01*
X54997760Y-130605725D02*
X54767950Y-130548272D01*
X54767950Y-130548272D02*
X54308331Y-130548272D01*
X54308331Y-130548272D02*
X54193427Y-130605725D01*
X54193427Y-130605725D02*
X54135974Y-130663177D01*
X54135974Y-130663177D02*
X54078522Y-130778082D01*
X54078522Y-130778082D02*
X54078522Y-131007891D01*
X54078522Y-131007891D02*
X54135974Y-131122796D01*
X54135974Y-131122796D02*
X54193427Y-131180249D01*
X54193427Y-131180249D02*
X54308331Y-131237701D01*
X54308331Y-131237701D02*
X54595593Y-131237701D01*
X54595593Y-131237701D02*
X54710498Y-131180249D01*
X54710498Y-131180249D02*
X54767950Y-131122796D01*
X54767950Y-131122796D02*
X54825403Y-131007891D01*
X54825403Y-131007891D02*
X54825403Y-130778082D01*
X54825403Y-130778082D02*
X54767950Y-130663177D01*
X54767950Y-130663177D02*
X54710498Y-130605725D01*
X54710498Y-130605725D02*
X54595593Y-130548272D01*
D10*
X45310419Y-135703788D02*
X45310419Y-135132360D01*
X46310419Y-135418074D02*
X45310419Y-135418074D01*
X46310419Y-134227598D02*
X45834228Y-134560931D01*
X46310419Y-134799026D02*
X45310419Y-134799026D01*
X45310419Y-134799026D02*
X45310419Y-134418074D01*
X45310419Y-134418074D02*
X45358038Y-134322836D01*
X45358038Y-134322836D02*
X45405657Y-134275217D01*
X45405657Y-134275217D02*
X45500895Y-134227598D01*
X45500895Y-134227598D02*
X45643752Y-134227598D01*
X45643752Y-134227598D02*
X45738990Y-134275217D01*
X45738990Y-134275217D02*
X45786609Y-134322836D01*
X45786609Y-134322836D02*
X45834228Y-134418074D01*
X45834228Y-134418074D02*
X45834228Y-134799026D01*
X46310419Y-133799026D02*
X45310419Y-133799026D01*
X46405657Y-133560932D02*
X46405657Y-132799027D01*
X45310419Y-132370455D02*
X45310419Y-132179979D01*
X45310419Y-132179979D02*
X45358038Y-132084741D01*
X45358038Y-132084741D02*
X45453276Y-131989503D01*
X45453276Y-131989503D02*
X45643752Y-131941884D01*
X45643752Y-131941884D02*
X45977085Y-131941884D01*
X45977085Y-131941884D02*
X46167561Y-131989503D01*
X46167561Y-131989503D02*
X46262800Y-132084741D01*
X46262800Y-132084741D02*
X46310419Y-132179979D01*
X46310419Y-132179979D02*
X46310419Y-132370455D01*
X46310419Y-132370455D02*
X46262800Y-132465693D01*
X46262800Y-132465693D02*
X46167561Y-132560931D01*
X46167561Y-132560931D02*
X45977085Y-132608550D01*
X45977085Y-132608550D02*
X45643752Y-132608550D01*
X45643752Y-132608550D02*
X45453276Y-132560931D01*
X45453276Y-132560931D02*
X45358038Y-132465693D01*
X45358038Y-132465693D02*
X45310419Y-132370455D01*
X45310419Y-131513312D02*
X46119942Y-131513312D01*
X46119942Y-131513312D02*
X46215180Y-131465693D01*
X46215180Y-131465693D02*
X46262800Y-131418074D01*
X46262800Y-131418074D02*
X46310419Y-131322836D01*
X46310419Y-131322836D02*
X46310419Y-131132360D01*
X46310419Y-131132360D02*
X46262800Y-131037122D01*
X46262800Y-131037122D02*
X46215180Y-130989503D01*
X46215180Y-130989503D02*
X46119942Y-130941884D01*
X46119942Y-130941884D02*
X45310419Y-130941884D01*
X45310419Y-130608550D02*
X45310419Y-130037122D01*
X46310419Y-130322836D02*
X45310419Y-130322836D01*
X62262361Y-86533019D02*
X61929028Y-86056828D01*
X61690933Y-86533019D02*
X61690933Y-85533019D01*
X61690933Y-85533019D02*
X62071885Y-85533019D01*
X62071885Y-85533019D02*
X62167123Y-85580638D01*
X62167123Y-85580638D02*
X62214742Y-85628257D01*
X62214742Y-85628257D02*
X62262361Y-85723495D01*
X62262361Y-85723495D02*
X62262361Y-85866352D01*
X62262361Y-85866352D02*
X62214742Y-85961590D01*
X62214742Y-85961590D02*
X62167123Y-86009209D01*
X62167123Y-86009209D02*
X62071885Y-86056828D01*
X62071885Y-86056828D02*
X61690933Y-86056828D01*
X62548076Y-85533019D02*
X62881409Y-86533019D01*
X62881409Y-86533019D02*
X63214742Y-85533019D01*
X63690933Y-85961590D02*
X63595695Y-85913971D01*
X63595695Y-85913971D02*
X63548076Y-85866352D01*
X63548076Y-85866352D02*
X63500457Y-85771114D01*
X63500457Y-85771114D02*
X63500457Y-85723495D01*
X63500457Y-85723495D02*
X63548076Y-85628257D01*
X63548076Y-85628257D02*
X63595695Y-85580638D01*
X63595695Y-85580638D02*
X63690933Y-85533019D01*
X63690933Y-85533019D02*
X63881409Y-85533019D01*
X63881409Y-85533019D02*
X63976647Y-85580638D01*
X63976647Y-85580638D02*
X64024266Y-85628257D01*
X64024266Y-85628257D02*
X64071885Y-85723495D01*
X64071885Y-85723495D02*
X64071885Y-85771114D01*
X64071885Y-85771114D02*
X64024266Y-85866352D01*
X64024266Y-85866352D02*
X63976647Y-85913971D01*
X63976647Y-85913971D02*
X63881409Y-85961590D01*
X63881409Y-85961590D02*
X63690933Y-85961590D01*
X63690933Y-85961590D02*
X63595695Y-86009209D01*
X63595695Y-86009209D02*
X63548076Y-86056828D01*
X63548076Y-86056828D02*
X63500457Y-86152066D01*
X63500457Y-86152066D02*
X63500457Y-86342542D01*
X63500457Y-86342542D02*
X63548076Y-86437780D01*
X63548076Y-86437780D02*
X63595695Y-86485400D01*
X63595695Y-86485400D02*
X63690933Y-86533019D01*
X63690933Y-86533019D02*
X63881409Y-86533019D01*
X63881409Y-86533019D02*
X63976647Y-86485400D01*
X63976647Y-86485400D02*
X64024266Y-86437780D01*
X64024266Y-86437780D02*
X64071885Y-86342542D01*
X64071885Y-86342542D02*
X64071885Y-86152066D01*
X64071885Y-86152066D02*
X64024266Y-86056828D01*
X64024266Y-86056828D02*
X63976647Y-86009209D01*
X63976647Y-86009209D02*
X63881409Y-85961590D01*
X28443433Y-91897780D02*
X28395814Y-91945400D01*
X28395814Y-91945400D02*
X28252957Y-91993019D01*
X28252957Y-91993019D02*
X28157719Y-91993019D01*
X28157719Y-91993019D02*
X28014862Y-91945400D01*
X28014862Y-91945400D02*
X27919624Y-91850161D01*
X27919624Y-91850161D02*
X27872005Y-91754923D01*
X27872005Y-91754923D02*
X27824386Y-91564447D01*
X27824386Y-91564447D02*
X27824386Y-91421590D01*
X27824386Y-91421590D02*
X27872005Y-91231114D01*
X27872005Y-91231114D02*
X27919624Y-91135876D01*
X27919624Y-91135876D02*
X28014862Y-91040638D01*
X28014862Y-91040638D02*
X28157719Y-90993019D01*
X28157719Y-90993019D02*
X28252957Y-90993019D01*
X28252957Y-90993019D02*
X28395814Y-91040638D01*
X28395814Y-91040638D02*
X28443433Y-91088257D01*
X29014862Y-91421590D02*
X28919624Y-91373971D01*
X28919624Y-91373971D02*
X28872005Y-91326352D01*
X28872005Y-91326352D02*
X28824386Y-91231114D01*
X28824386Y-91231114D02*
X28824386Y-91183495D01*
X28824386Y-91183495D02*
X28872005Y-91088257D01*
X28872005Y-91088257D02*
X28919624Y-91040638D01*
X28919624Y-91040638D02*
X29014862Y-90993019D01*
X29014862Y-90993019D02*
X29205338Y-90993019D01*
X29205338Y-90993019D02*
X29300576Y-91040638D01*
X29300576Y-91040638D02*
X29348195Y-91088257D01*
X29348195Y-91088257D02*
X29395814Y-91183495D01*
X29395814Y-91183495D02*
X29395814Y-91231114D01*
X29395814Y-91231114D02*
X29348195Y-91326352D01*
X29348195Y-91326352D02*
X29300576Y-91373971D01*
X29300576Y-91373971D02*
X29205338Y-91421590D01*
X29205338Y-91421590D02*
X29014862Y-91421590D01*
X29014862Y-91421590D02*
X28919624Y-91469209D01*
X28919624Y-91469209D02*
X28872005Y-91516828D01*
X28872005Y-91516828D02*
X28824386Y-91612066D01*
X28824386Y-91612066D02*
X28824386Y-91802542D01*
X28824386Y-91802542D02*
X28872005Y-91897780D01*
X28872005Y-91897780D02*
X28919624Y-91945400D01*
X28919624Y-91945400D02*
X29014862Y-91993019D01*
X29014862Y-91993019D02*
X29205338Y-91993019D01*
X29205338Y-91993019D02*
X29300576Y-91945400D01*
X29300576Y-91945400D02*
X29348195Y-91897780D01*
X29348195Y-91897780D02*
X29395814Y-91802542D01*
X29395814Y-91802542D02*
X29395814Y-91612066D01*
X29395814Y-91612066D02*
X29348195Y-91516828D01*
X29348195Y-91516828D02*
X29300576Y-91469209D01*
X29300576Y-91469209D02*
X29205338Y-91421590D01*
X38262361Y-86533019D02*
X37929028Y-86056828D01*
X37690933Y-86533019D02*
X37690933Y-85533019D01*
X37690933Y-85533019D02*
X38071885Y-85533019D01*
X38071885Y-85533019D02*
X38167123Y-85580638D01*
X38167123Y-85580638D02*
X38214742Y-85628257D01*
X38214742Y-85628257D02*
X38262361Y-85723495D01*
X38262361Y-85723495D02*
X38262361Y-85866352D01*
X38262361Y-85866352D02*
X38214742Y-85961590D01*
X38214742Y-85961590D02*
X38167123Y-86009209D01*
X38167123Y-86009209D02*
X38071885Y-86056828D01*
X38071885Y-86056828D02*
X37690933Y-86056828D01*
X38548076Y-85533019D02*
X38881409Y-86533019D01*
X38881409Y-86533019D02*
X39214742Y-85533019D01*
X39452838Y-85533019D02*
X40119504Y-85533019D01*
X40119504Y-85533019D02*
X39690933Y-86533019D01*
X51145361Y-68373019D02*
X50812028Y-67896828D01*
X50573933Y-68373019D02*
X50573933Y-67373019D01*
X50573933Y-67373019D02*
X50954885Y-67373019D01*
X50954885Y-67373019D02*
X51050123Y-67420638D01*
X51050123Y-67420638D02*
X51097742Y-67468257D01*
X51097742Y-67468257D02*
X51145361Y-67563495D01*
X51145361Y-67563495D02*
X51145361Y-67706352D01*
X51145361Y-67706352D02*
X51097742Y-67801590D01*
X51097742Y-67801590D02*
X51050123Y-67849209D01*
X51050123Y-67849209D02*
X50954885Y-67896828D01*
X50954885Y-67896828D02*
X50573933Y-67896828D01*
X51431076Y-67373019D02*
X51764409Y-68373019D01*
X51764409Y-68373019D02*
X52097742Y-67373019D01*
X52335838Y-67373019D02*
X52954885Y-67373019D01*
X52954885Y-67373019D02*
X52621552Y-67753971D01*
X52621552Y-67753971D02*
X52764409Y-67753971D01*
X52764409Y-67753971D02*
X52859647Y-67801590D01*
X52859647Y-67801590D02*
X52907266Y-67849209D01*
X52907266Y-67849209D02*
X52954885Y-67944447D01*
X52954885Y-67944447D02*
X52954885Y-68182542D01*
X52954885Y-68182542D02*
X52907266Y-68277780D01*
X52907266Y-68277780D02*
X52859647Y-68325400D01*
X52859647Y-68325400D02*
X52764409Y-68373019D01*
X52764409Y-68373019D02*
X52478695Y-68373019D01*
X52478695Y-68373019D02*
X52383457Y-68325400D01*
X52383457Y-68325400D02*
X52335838Y-68277780D01*
X39795419Y-37461057D02*
X39319228Y-37794390D01*
X39795419Y-38032485D02*
X38795419Y-38032485D01*
X38795419Y-38032485D02*
X38795419Y-37651533D01*
X38795419Y-37651533D02*
X38843038Y-37556295D01*
X38843038Y-37556295D02*
X38890657Y-37508676D01*
X38890657Y-37508676D02*
X38985895Y-37461057D01*
X38985895Y-37461057D02*
X39128752Y-37461057D01*
X39128752Y-37461057D02*
X39223990Y-37508676D01*
X39223990Y-37508676D02*
X39271609Y-37556295D01*
X39271609Y-37556295D02*
X39319228Y-37651533D01*
X39319228Y-37651533D02*
X39319228Y-38032485D01*
X38890657Y-37080104D02*
X38843038Y-37032485D01*
X38843038Y-37032485D02*
X38795419Y-36937247D01*
X38795419Y-36937247D02*
X38795419Y-36699152D01*
X38795419Y-36699152D02*
X38843038Y-36603914D01*
X38843038Y-36603914D02*
X38890657Y-36556295D01*
X38890657Y-36556295D02*
X38985895Y-36508676D01*
X38985895Y-36508676D02*
X39081133Y-36508676D01*
X39081133Y-36508676D02*
X39223990Y-36556295D01*
X39223990Y-36556295D02*
X39795419Y-37127723D01*
X39795419Y-37127723D02*
X39795419Y-36508676D01*
X38795419Y-35603914D02*
X38795419Y-36080104D01*
X38795419Y-36080104D02*
X39271609Y-36127723D01*
X39271609Y-36127723D02*
X39223990Y-36080104D01*
X39223990Y-36080104D02*
X39176371Y-35984866D01*
X39176371Y-35984866D02*
X39176371Y-35746771D01*
X39176371Y-35746771D02*
X39223990Y-35651533D01*
X39223990Y-35651533D02*
X39271609Y-35603914D01*
X39271609Y-35603914D02*
X39366847Y-35556295D01*
X39366847Y-35556295D02*
X39604942Y-35556295D01*
X39604942Y-35556295D02*
X39700180Y-35603914D01*
X39700180Y-35603914D02*
X39747800Y-35651533D01*
X39747800Y-35651533D02*
X39795419Y-35746771D01*
X39795419Y-35746771D02*
X39795419Y-35984866D01*
X39795419Y-35984866D02*
X39747800Y-36080104D01*
X39747800Y-36080104D02*
X39700180Y-36127723D01*
D11*
X42285522Y-117754772D02*
X43147308Y-117754772D01*
X43147308Y-117754772D02*
X43319665Y-117812225D01*
X43319665Y-117812225D02*
X43434570Y-117927129D01*
X43434570Y-117927129D02*
X43492022Y-118099487D01*
X43492022Y-118099487D02*
X43492022Y-118214391D01*
X42687689Y-116663177D02*
X43492022Y-116663177D01*
X42228070Y-116950439D02*
X43089855Y-117237701D01*
X43089855Y-117237701D02*
X43089855Y-116490820D01*
D10*
X33850752Y-123799026D02*
X33850752Y-123418074D01*
X34517419Y-123656169D02*
X33660276Y-123656169D01*
X33660276Y-123656169D02*
X33565038Y-123608550D01*
X33565038Y-123608550D02*
X33517419Y-123513312D01*
X33517419Y-123513312D02*
X33517419Y-123418074D01*
X34517419Y-123084740D02*
X33850752Y-123084740D01*
X33945990Y-123084740D02*
X33898371Y-123037121D01*
X33898371Y-123037121D02*
X33850752Y-122941883D01*
X33850752Y-122941883D02*
X33850752Y-122799026D01*
X33850752Y-122799026D02*
X33898371Y-122703788D01*
X33898371Y-122703788D02*
X33993609Y-122656169D01*
X33993609Y-122656169D02*
X34517419Y-122656169D01*
X33993609Y-122656169D02*
X33898371Y-122608550D01*
X33898371Y-122608550D02*
X33850752Y-122513312D01*
X33850752Y-122513312D02*
X33850752Y-122370455D01*
X33850752Y-122370455D02*
X33898371Y-122275216D01*
X33898371Y-122275216D02*
X33993609Y-122227597D01*
X33993609Y-122227597D02*
X34517419Y-122227597D01*
X34612657Y-121989503D02*
X34612657Y-121227598D01*
X34517419Y-120989502D02*
X33850752Y-120989502D01*
X33945990Y-120989502D02*
X33898371Y-120941883D01*
X33898371Y-120941883D02*
X33850752Y-120846645D01*
X33850752Y-120846645D02*
X33850752Y-120703788D01*
X33850752Y-120703788D02*
X33898371Y-120608550D01*
X33898371Y-120608550D02*
X33993609Y-120560931D01*
X33993609Y-120560931D02*
X34517419Y-120560931D01*
X33993609Y-120560931D02*
X33898371Y-120513312D01*
X33898371Y-120513312D02*
X33850752Y-120418074D01*
X33850752Y-120418074D02*
X33850752Y-120275217D01*
X33850752Y-120275217D02*
X33898371Y-120179978D01*
X33898371Y-120179978D02*
X33993609Y-120132359D01*
X33993609Y-120132359D02*
X34517419Y-120132359D01*
X34517419Y-119513312D02*
X34469800Y-119608550D01*
X34469800Y-119608550D02*
X34422180Y-119656169D01*
X34422180Y-119656169D02*
X34326942Y-119703788D01*
X34326942Y-119703788D02*
X34041228Y-119703788D01*
X34041228Y-119703788D02*
X33945990Y-119656169D01*
X33945990Y-119656169D02*
X33898371Y-119608550D01*
X33898371Y-119608550D02*
X33850752Y-119513312D01*
X33850752Y-119513312D02*
X33850752Y-119370455D01*
X33850752Y-119370455D02*
X33898371Y-119275217D01*
X33898371Y-119275217D02*
X33945990Y-119227598D01*
X33945990Y-119227598D02*
X34041228Y-119179979D01*
X34041228Y-119179979D02*
X34326942Y-119179979D01*
X34326942Y-119179979D02*
X34422180Y-119227598D01*
X34422180Y-119227598D02*
X34469800Y-119275217D01*
X34469800Y-119275217D02*
X34517419Y-119370455D01*
X34517419Y-119370455D02*
X34517419Y-119513312D01*
X34517419Y-118322836D02*
X33517419Y-118322836D01*
X34469800Y-118322836D02*
X34517419Y-118418074D01*
X34517419Y-118418074D02*
X34517419Y-118608550D01*
X34517419Y-118608550D02*
X34469800Y-118703788D01*
X34469800Y-118703788D02*
X34422180Y-118751407D01*
X34422180Y-118751407D02*
X34326942Y-118799026D01*
X34326942Y-118799026D02*
X34041228Y-118799026D01*
X34041228Y-118799026D02*
X33945990Y-118751407D01*
X33945990Y-118751407D02*
X33898371Y-118703788D01*
X33898371Y-118703788D02*
X33850752Y-118608550D01*
X33850752Y-118608550D02*
X33850752Y-118418074D01*
X33850752Y-118418074D02*
X33898371Y-118322836D01*
X34612657Y-118084741D02*
X34612657Y-117322836D01*
X34517419Y-117084740D02*
X33850752Y-117084740D01*
X33517419Y-117084740D02*
X33565038Y-117132359D01*
X33565038Y-117132359D02*
X33612657Y-117084740D01*
X33612657Y-117084740D02*
X33565038Y-117037121D01*
X33565038Y-117037121D02*
X33517419Y-117084740D01*
X33517419Y-117084740D02*
X33612657Y-117084740D01*
X33850752Y-116608550D02*
X34517419Y-116608550D01*
X33945990Y-116608550D02*
X33898371Y-116560931D01*
X33898371Y-116560931D02*
X33850752Y-116465693D01*
X33850752Y-116465693D02*
X33850752Y-116322836D01*
X33850752Y-116322836D02*
X33898371Y-116227598D01*
X33898371Y-116227598D02*
X33993609Y-116179979D01*
X33993609Y-116179979D02*
X34517419Y-116179979D01*
X35300180Y-61398557D02*
X35347800Y-61446176D01*
X35347800Y-61446176D02*
X35395419Y-61589033D01*
X35395419Y-61589033D02*
X35395419Y-61684271D01*
X35395419Y-61684271D02*
X35347800Y-61827128D01*
X35347800Y-61827128D02*
X35252561Y-61922366D01*
X35252561Y-61922366D02*
X35157323Y-61969985D01*
X35157323Y-61969985D02*
X34966847Y-62017604D01*
X34966847Y-62017604D02*
X34823990Y-62017604D01*
X34823990Y-62017604D02*
X34633514Y-61969985D01*
X34633514Y-61969985D02*
X34538276Y-61922366D01*
X34538276Y-61922366D02*
X34443038Y-61827128D01*
X34443038Y-61827128D02*
X34395419Y-61684271D01*
X34395419Y-61684271D02*
X34395419Y-61589033D01*
X34395419Y-61589033D02*
X34443038Y-61446176D01*
X34443038Y-61446176D02*
X34490657Y-61398557D01*
X35395419Y-60446176D02*
X35395419Y-61017604D01*
X35395419Y-60731890D02*
X34395419Y-60731890D01*
X34395419Y-60731890D02*
X34538276Y-60827128D01*
X34538276Y-60827128D02*
X34633514Y-60922366D01*
X34633514Y-60922366D02*
X34681133Y-61017604D01*
X35395419Y-59493795D02*
X35395419Y-60065223D01*
X35395419Y-59779509D02*
X34395419Y-59779509D01*
X34395419Y-59779509D02*
X34538276Y-59874747D01*
X34538276Y-59874747D02*
X34633514Y-59969985D01*
X34633514Y-59969985D02*
X34681133Y-60065223D01*
X58055361Y-37533019D02*
X57722028Y-37056828D01*
X57483933Y-37533019D02*
X57483933Y-36533019D01*
X57483933Y-36533019D02*
X57864885Y-36533019D01*
X57864885Y-36533019D02*
X57960123Y-36580638D01*
X57960123Y-36580638D02*
X58007742Y-36628257D01*
X58007742Y-36628257D02*
X58055361Y-36723495D01*
X58055361Y-36723495D02*
X58055361Y-36866352D01*
X58055361Y-36866352D02*
X58007742Y-36961590D01*
X58007742Y-36961590D02*
X57960123Y-37009209D01*
X57960123Y-37009209D02*
X57864885Y-37056828D01*
X57864885Y-37056828D02*
X57483933Y-37056828D01*
X58341076Y-36533019D02*
X58674409Y-37533019D01*
X58674409Y-37533019D02*
X59007742Y-36533019D01*
X59388695Y-37533019D02*
X59579171Y-37533019D01*
X59579171Y-37533019D02*
X59674409Y-37485400D01*
X59674409Y-37485400D02*
X59722028Y-37437780D01*
X59722028Y-37437780D02*
X59817266Y-37294923D01*
X59817266Y-37294923D02*
X59864885Y-37104447D01*
X59864885Y-37104447D02*
X59864885Y-36723495D01*
X59864885Y-36723495D02*
X59817266Y-36628257D01*
X59817266Y-36628257D02*
X59769647Y-36580638D01*
X59769647Y-36580638D02*
X59674409Y-36533019D01*
X59674409Y-36533019D02*
X59483933Y-36533019D01*
X59483933Y-36533019D02*
X59388695Y-36580638D01*
X59388695Y-36580638D02*
X59341076Y-36628257D01*
X59341076Y-36628257D02*
X59293457Y-36723495D01*
X59293457Y-36723495D02*
X59293457Y-36961590D01*
X59293457Y-36961590D02*
X59341076Y-37056828D01*
X59341076Y-37056828D02*
X59388695Y-37104447D01*
X59388695Y-37104447D02*
X59483933Y-37152066D01*
X59483933Y-37152066D02*
X59674409Y-37152066D01*
X59674409Y-37152066D02*
X59769647Y-37104447D01*
X59769647Y-37104447D02*
X59817266Y-37056828D01*
X59817266Y-37056828D02*
X59864885Y-36961590D01*
X43557505Y-38523019D02*
X43557505Y-37523019D01*
X43557505Y-37523019D02*
X43795600Y-37523019D01*
X43795600Y-37523019D02*
X43938457Y-37570638D01*
X43938457Y-37570638D02*
X44033695Y-37665876D01*
X44033695Y-37665876D02*
X44081314Y-37761114D01*
X44081314Y-37761114D02*
X44128933Y-37951590D01*
X44128933Y-37951590D02*
X44128933Y-38094447D01*
X44128933Y-38094447D02*
X44081314Y-38284923D01*
X44081314Y-38284923D02*
X44033695Y-38380161D01*
X44033695Y-38380161D02*
X43938457Y-38475400D01*
X43938457Y-38475400D02*
X43795600Y-38523019D01*
X43795600Y-38523019D02*
X43557505Y-38523019D01*
X44509886Y-37618257D02*
X44557505Y-37570638D01*
X44557505Y-37570638D02*
X44652743Y-37523019D01*
X44652743Y-37523019D02*
X44890838Y-37523019D01*
X44890838Y-37523019D02*
X44986076Y-37570638D01*
X44986076Y-37570638D02*
X45033695Y-37618257D01*
X45033695Y-37618257D02*
X45081314Y-37713495D01*
X45081314Y-37713495D02*
X45081314Y-37808733D01*
X45081314Y-37808733D02*
X45033695Y-37951590D01*
X45033695Y-37951590D02*
X44462267Y-38523019D01*
X44462267Y-38523019D02*
X45081314Y-38523019D01*
X29262361Y-66533019D02*
X28929028Y-66056828D01*
X28690933Y-66533019D02*
X28690933Y-65533019D01*
X28690933Y-65533019D02*
X29071885Y-65533019D01*
X29071885Y-65533019D02*
X29167123Y-65580638D01*
X29167123Y-65580638D02*
X29214742Y-65628257D01*
X29214742Y-65628257D02*
X29262361Y-65723495D01*
X29262361Y-65723495D02*
X29262361Y-65866352D01*
X29262361Y-65866352D02*
X29214742Y-65961590D01*
X29214742Y-65961590D02*
X29167123Y-66009209D01*
X29167123Y-66009209D02*
X29071885Y-66056828D01*
X29071885Y-66056828D02*
X28690933Y-66056828D01*
X29548076Y-65533019D02*
X29881409Y-66533019D01*
X29881409Y-66533019D02*
X30214742Y-65533019D01*
X31024266Y-65533019D02*
X30548076Y-65533019D01*
X30548076Y-65533019D02*
X30500457Y-66009209D01*
X30500457Y-66009209D02*
X30548076Y-65961590D01*
X30548076Y-65961590D02*
X30643314Y-65913971D01*
X30643314Y-65913971D02*
X30881409Y-65913971D01*
X30881409Y-65913971D02*
X30976647Y-65961590D01*
X30976647Y-65961590D02*
X31024266Y-66009209D01*
X31024266Y-66009209D02*
X31071885Y-66104447D01*
X31071885Y-66104447D02*
X31071885Y-66342542D01*
X31071885Y-66342542D02*
X31024266Y-66437780D01*
X31024266Y-66437780D02*
X30976647Y-66485400D01*
X30976647Y-66485400D02*
X30881409Y-66533019D01*
X30881409Y-66533019D02*
X30643314Y-66533019D01*
X30643314Y-66533019D02*
X30548076Y-66485400D01*
X30548076Y-66485400D02*
X30500457Y-66437780D01*
X50056760Y-104640400D02*
X50199617Y-104688019D01*
X50199617Y-104688019D02*
X50437712Y-104688019D01*
X50437712Y-104688019D02*
X50532950Y-104640400D01*
X50532950Y-104640400D02*
X50580569Y-104592780D01*
X50580569Y-104592780D02*
X50628188Y-104497542D01*
X50628188Y-104497542D02*
X50628188Y-104402304D01*
X50628188Y-104402304D02*
X50580569Y-104307066D01*
X50580569Y-104307066D02*
X50532950Y-104259447D01*
X50532950Y-104259447D02*
X50437712Y-104211828D01*
X50437712Y-104211828D02*
X50247236Y-104164209D01*
X50247236Y-104164209D02*
X50151998Y-104116590D01*
X50151998Y-104116590D02*
X50104379Y-104068971D01*
X50104379Y-104068971D02*
X50056760Y-103973733D01*
X50056760Y-103973733D02*
X50056760Y-103878495D01*
X50056760Y-103878495D02*
X50104379Y-103783257D01*
X50104379Y-103783257D02*
X50151998Y-103735638D01*
X50151998Y-103735638D02*
X50247236Y-103688019D01*
X50247236Y-103688019D02*
X50485331Y-103688019D01*
X50485331Y-103688019D02*
X50628188Y-103735638D01*
X50961522Y-103688019D02*
X51199617Y-104688019D01*
X51199617Y-104688019D02*
X51390093Y-103973733D01*
X51390093Y-103973733D02*
X51580569Y-104688019D01*
X51580569Y-104688019D02*
X51818665Y-103688019D01*
X52151998Y-103783257D02*
X52199617Y-103735638D01*
X52199617Y-103735638D02*
X52294855Y-103688019D01*
X52294855Y-103688019D02*
X52532950Y-103688019D01*
X52532950Y-103688019D02*
X52628188Y-103735638D01*
X52628188Y-103735638D02*
X52675807Y-103783257D01*
X52675807Y-103783257D02*
X52723426Y-103878495D01*
X52723426Y-103878495D02*
X52723426Y-103973733D01*
X52723426Y-103973733D02*
X52675807Y-104116590D01*
X52675807Y-104116590D02*
X52104379Y-104688019D01*
X52104379Y-104688019D02*
X52723426Y-104688019D01*
X47480933Y-115040400D02*
X47623790Y-115088019D01*
X47623790Y-115088019D02*
X47861885Y-115088019D01*
X47861885Y-115088019D02*
X47957123Y-115040400D01*
X47957123Y-115040400D02*
X48004742Y-114992780D01*
X48004742Y-114992780D02*
X48052361Y-114897542D01*
X48052361Y-114897542D02*
X48052361Y-114802304D01*
X48052361Y-114802304D02*
X48004742Y-114707066D01*
X48004742Y-114707066D02*
X47957123Y-114659447D01*
X47957123Y-114659447D02*
X47861885Y-114611828D01*
X47861885Y-114611828D02*
X47671409Y-114564209D01*
X47671409Y-114564209D02*
X47576171Y-114516590D01*
X47576171Y-114516590D02*
X47528552Y-114468971D01*
X47528552Y-114468971D02*
X47480933Y-114373733D01*
X47480933Y-114373733D02*
X47480933Y-114278495D01*
X47480933Y-114278495D02*
X47528552Y-114183257D01*
X47528552Y-114183257D02*
X47576171Y-114135638D01*
X47576171Y-114135638D02*
X47671409Y-114088019D01*
X47671409Y-114088019D02*
X47909504Y-114088019D01*
X47909504Y-114088019D02*
X48052361Y-114135638D01*
X48671409Y-114611828D02*
X48671409Y-115088019D01*
X48338076Y-114088019D02*
X48671409Y-114611828D01*
X48671409Y-114611828D02*
X49004742Y-114088019D01*
X49338076Y-115088019D02*
X49338076Y-114088019D01*
X49338076Y-114088019D02*
X49909504Y-115088019D01*
X49909504Y-115088019D02*
X49909504Y-114088019D01*
X50957123Y-114992780D02*
X50909504Y-115040400D01*
X50909504Y-115040400D02*
X50766647Y-115088019D01*
X50766647Y-115088019D02*
X50671409Y-115088019D01*
X50671409Y-115088019D02*
X50528552Y-115040400D01*
X50528552Y-115040400D02*
X50433314Y-114945161D01*
X50433314Y-114945161D02*
X50385695Y-114849923D01*
X50385695Y-114849923D02*
X50338076Y-114659447D01*
X50338076Y-114659447D02*
X50338076Y-114516590D01*
X50338076Y-114516590D02*
X50385695Y-114326114D01*
X50385695Y-114326114D02*
X50433314Y-114230876D01*
X50433314Y-114230876D02*
X50528552Y-114135638D01*
X50528552Y-114135638D02*
X50671409Y-114088019D01*
X50671409Y-114088019D02*
X50766647Y-114088019D01*
X50766647Y-114088019D02*
X50909504Y-114135638D01*
X50909504Y-114135638D02*
X50957123Y-114183257D01*
X52147600Y-115088019D02*
X52147600Y-114088019D01*
X52147600Y-114088019D02*
X52480933Y-114802304D01*
X52480933Y-114802304D02*
X52814266Y-114088019D01*
X52814266Y-114088019D02*
X52814266Y-115088019D01*
X53480933Y-114088019D02*
X53671409Y-114088019D01*
X53671409Y-114088019D02*
X53766647Y-114135638D01*
X53766647Y-114135638D02*
X53861885Y-114230876D01*
X53861885Y-114230876D02*
X53909504Y-114421352D01*
X53909504Y-114421352D02*
X53909504Y-114754685D01*
X53909504Y-114754685D02*
X53861885Y-114945161D01*
X53861885Y-114945161D02*
X53766647Y-115040400D01*
X53766647Y-115040400D02*
X53671409Y-115088019D01*
X53671409Y-115088019D02*
X53480933Y-115088019D01*
X53480933Y-115088019D02*
X53385695Y-115040400D01*
X53385695Y-115040400D02*
X53290457Y-114945161D01*
X53290457Y-114945161D02*
X53242838Y-114754685D01*
X53242838Y-114754685D02*
X53242838Y-114421352D01*
X53242838Y-114421352D02*
X53290457Y-114230876D01*
X53290457Y-114230876D02*
X53385695Y-114135638D01*
X53385695Y-114135638D02*
X53480933Y-114088019D01*
X54338076Y-115088019D02*
X54338076Y-114088019D01*
X54338076Y-114088019D02*
X54576171Y-114088019D01*
X54576171Y-114088019D02*
X54719028Y-114135638D01*
X54719028Y-114135638D02*
X54814266Y-114230876D01*
X54814266Y-114230876D02*
X54861885Y-114326114D01*
X54861885Y-114326114D02*
X54909504Y-114516590D01*
X54909504Y-114516590D02*
X54909504Y-114659447D01*
X54909504Y-114659447D02*
X54861885Y-114849923D01*
X54861885Y-114849923D02*
X54814266Y-114945161D01*
X54814266Y-114945161D02*
X54719028Y-115040400D01*
X54719028Y-115040400D02*
X54576171Y-115088019D01*
X54576171Y-115088019D02*
X54338076Y-115088019D01*
X55338076Y-114564209D02*
X55671409Y-114564209D01*
X55814266Y-115088019D02*
X55338076Y-115088019D01*
X55338076Y-115088019D02*
X55338076Y-114088019D01*
X55338076Y-114088019D02*
X55814266Y-114088019D01*
X39760242Y-65397780D02*
X39712623Y-65445400D01*
X39712623Y-65445400D02*
X39569766Y-65493019D01*
X39569766Y-65493019D02*
X39474528Y-65493019D01*
X39474528Y-65493019D02*
X39331671Y-65445400D01*
X39331671Y-65445400D02*
X39236433Y-65350161D01*
X39236433Y-65350161D02*
X39188814Y-65254923D01*
X39188814Y-65254923D02*
X39141195Y-65064447D01*
X39141195Y-65064447D02*
X39141195Y-64921590D01*
X39141195Y-64921590D02*
X39188814Y-64731114D01*
X39188814Y-64731114D02*
X39236433Y-64635876D01*
X39236433Y-64635876D02*
X39331671Y-64540638D01*
X39331671Y-64540638D02*
X39474528Y-64493019D01*
X39474528Y-64493019D02*
X39569766Y-64493019D01*
X39569766Y-64493019D02*
X39712623Y-64540638D01*
X39712623Y-64540638D02*
X39760242Y-64588257D01*
X40712623Y-65493019D02*
X40141195Y-65493019D01*
X40426909Y-65493019D02*
X40426909Y-64493019D01*
X40426909Y-64493019D02*
X40331671Y-64635876D01*
X40331671Y-64635876D02*
X40236433Y-64731114D01*
X40236433Y-64731114D02*
X40141195Y-64778733D01*
X41045957Y-64493019D02*
X41665004Y-64493019D01*
X41665004Y-64493019D02*
X41331671Y-64873971D01*
X41331671Y-64873971D02*
X41474528Y-64873971D01*
X41474528Y-64873971D02*
X41569766Y-64921590D01*
X41569766Y-64921590D02*
X41617385Y-64969209D01*
X41617385Y-64969209D02*
X41665004Y-65064447D01*
X41665004Y-65064447D02*
X41665004Y-65302542D01*
X41665004Y-65302542D02*
X41617385Y-65397780D01*
X41617385Y-65397780D02*
X41569766Y-65445400D01*
X41569766Y-65445400D02*
X41474528Y-65493019D01*
X41474528Y-65493019D02*
X41188814Y-65493019D01*
X41188814Y-65493019D02*
X41093576Y-65445400D01*
X41093576Y-65445400D02*
X41045957Y-65397780D01*
X25797742Y-65173019D02*
X25464409Y-64696828D01*
X25226314Y-65173019D02*
X25226314Y-64173019D01*
X25226314Y-64173019D02*
X25607266Y-64173019D01*
X25607266Y-64173019D02*
X25702504Y-64220638D01*
X25702504Y-64220638D02*
X25750123Y-64268257D01*
X25750123Y-64268257D02*
X25797742Y-64363495D01*
X25797742Y-64363495D02*
X25797742Y-64506352D01*
X25797742Y-64506352D02*
X25750123Y-64601590D01*
X25750123Y-64601590D02*
X25702504Y-64649209D01*
X25702504Y-64649209D02*
X25607266Y-64696828D01*
X25607266Y-64696828D02*
X25226314Y-64696828D01*
X26178695Y-64268257D02*
X26226314Y-64220638D01*
X26226314Y-64220638D02*
X26321552Y-64173019D01*
X26321552Y-64173019D02*
X26559647Y-64173019D01*
X26559647Y-64173019D02*
X26654885Y-64220638D01*
X26654885Y-64220638D02*
X26702504Y-64268257D01*
X26702504Y-64268257D02*
X26750123Y-64363495D01*
X26750123Y-64363495D02*
X26750123Y-64458733D01*
X26750123Y-64458733D02*
X26702504Y-64601590D01*
X26702504Y-64601590D02*
X26131076Y-65173019D01*
X26131076Y-65173019D02*
X26750123Y-65173019D01*
X27083457Y-64173019D02*
X27702504Y-64173019D01*
X27702504Y-64173019D02*
X27369171Y-64553971D01*
X27369171Y-64553971D02*
X27512028Y-64553971D01*
X27512028Y-64553971D02*
X27607266Y-64601590D01*
X27607266Y-64601590D02*
X27654885Y-64649209D01*
X27654885Y-64649209D02*
X27702504Y-64744447D01*
X27702504Y-64744447D02*
X27702504Y-64982542D01*
X27702504Y-64982542D02*
X27654885Y-65077780D01*
X27654885Y-65077780D02*
X27607266Y-65125400D01*
X27607266Y-65125400D02*
X27512028Y-65173019D01*
X27512028Y-65173019D02*
X27226314Y-65173019D01*
X27226314Y-65173019D02*
X27131076Y-65125400D01*
X27131076Y-65125400D02*
X27083457Y-65077780D01*
X29297742Y-63673019D02*
X28964409Y-63196828D01*
X28726314Y-63673019D02*
X28726314Y-62673019D01*
X28726314Y-62673019D02*
X29107266Y-62673019D01*
X29107266Y-62673019D02*
X29202504Y-62720638D01*
X29202504Y-62720638D02*
X29250123Y-62768257D01*
X29250123Y-62768257D02*
X29297742Y-62863495D01*
X29297742Y-62863495D02*
X29297742Y-63006352D01*
X29297742Y-63006352D02*
X29250123Y-63101590D01*
X29250123Y-63101590D02*
X29202504Y-63149209D01*
X29202504Y-63149209D02*
X29107266Y-63196828D01*
X29107266Y-63196828D02*
X28726314Y-63196828D01*
X29678695Y-62768257D02*
X29726314Y-62720638D01*
X29726314Y-62720638D02*
X29821552Y-62673019D01*
X29821552Y-62673019D02*
X30059647Y-62673019D01*
X30059647Y-62673019D02*
X30154885Y-62720638D01*
X30154885Y-62720638D02*
X30202504Y-62768257D01*
X30202504Y-62768257D02*
X30250123Y-62863495D01*
X30250123Y-62863495D02*
X30250123Y-62958733D01*
X30250123Y-62958733D02*
X30202504Y-63101590D01*
X30202504Y-63101590D02*
X29631076Y-63673019D01*
X29631076Y-63673019D02*
X30250123Y-63673019D01*
X30631076Y-62768257D02*
X30678695Y-62720638D01*
X30678695Y-62720638D02*
X30773933Y-62673019D01*
X30773933Y-62673019D02*
X31012028Y-62673019D01*
X31012028Y-62673019D02*
X31107266Y-62720638D01*
X31107266Y-62720638D02*
X31154885Y-62768257D01*
X31154885Y-62768257D02*
X31202504Y-62863495D01*
X31202504Y-62863495D02*
X31202504Y-62958733D01*
X31202504Y-62958733D02*
X31154885Y-63101590D01*
X31154885Y-63101590D02*
X30583457Y-63673019D01*
X30583457Y-63673019D02*
X31202504Y-63673019D01*
D11*
X54285522Y-117754772D02*
X55147308Y-117754772D01*
X55147308Y-117754772D02*
X55319665Y-117812225D01*
X55319665Y-117812225D02*
X55434570Y-117927129D01*
X55434570Y-117927129D02*
X55492022Y-118099487D01*
X55492022Y-118099487D02*
X55492022Y-118214391D01*
X54285522Y-116605725D02*
X54285522Y-117180249D01*
X54285522Y-117180249D02*
X54860046Y-117237701D01*
X54860046Y-117237701D02*
X54802593Y-117180249D01*
X54802593Y-117180249D02*
X54745141Y-117065344D01*
X54745141Y-117065344D02*
X54745141Y-116778082D01*
X54745141Y-116778082D02*
X54802593Y-116663177D01*
X54802593Y-116663177D02*
X54860046Y-116605725D01*
X54860046Y-116605725D02*
X54974950Y-116548272D01*
X54974950Y-116548272D02*
X55262212Y-116548272D01*
X55262212Y-116548272D02*
X55377117Y-116605725D01*
X55377117Y-116605725D02*
X55434570Y-116663177D01*
X55434570Y-116663177D02*
X55492022Y-116778082D01*
X55492022Y-116778082D02*
X55492022Y-117065344D01*
X55492022Y-117065344D02*
X55434570Y-117180249D01*
X55434570Y-117180249D02*
X55377117Y-117237701D01*
D10*
X46469800Y-121227598D02*
X46517419Y-121132360D01*
X46517419Y-121132360D02*
X46517419Y-120941884D01*
X46517419Y-120941884D02*
X46469800Y-120846646D01*
X46469800Y-120846646D02*
X46374561Y-120799027D01*
X46374561Y-120799027D02*
X46326942Y-120799027D01*
X46326942Y-120799027D02*
X46231704Y-120846646D01*
X46231704Y-120846646D02*
X46184085Y-120941884D01*
X46184085Y-120941884D02*
X46184085Y-121084741D01*
X46184085Y-121084741D02*
X46136466Y-121179979D01*
X46136466Y-121179979D02*
X46041228Y-121227598D01*
X46041228Y-121227598D02*
X45993609Y-121227598D01*
X45993609Y-121227598D02*
X45898371Y-121179979D01*
X45898371Y-121179979D02*
X45850752Y-121084741D01*
X45850752Y-121084741D02*
X45850752Y-120941884D01*
X45850752Y-120941884D02*
X45898371Y-120846646D01*
X45850752Y-120465693D02*
X46517419Y-120227598D01*
X45850752Y-119989503D02*
X46517419Y-120227598D01*
X46517419Y-120227598D02*
X46755514Y-120322836D01*
X46755514Y-120322836D02*
X46803133Y-120370455D01*
X46803133Y-120370455D02*
X46850752Y-120465693D01*
X45850752Y-119608550D02*
X46517419Y-119608550D01*
X45945990Y-119608550D02*
X45898371Y-119560931D01*
X45898371Y-119560931D02*
X45850752Y-119465693D01*
X45850752Y-119465693D02*
X45850752Y-119322836D01*
X45850752Y-119322836D02*
X45898371Y-119227598D01*
X45898371Y-119227598D02*
X45993609Y-119179979D01*
X45993609Y-119179979D02*
X46517419Y-119179979D01*
X46469800Y-118275217D02*
X46517419Y-118370455D01*
X46517419Y-118370455D02*
X46517419Y-118560931D01*
X46517419Y-118560931D02*
X46469800Y-118656169D01*
X46469800Y-118656169D02*
X46422180Y-118703788D01*
X46422180Y-118703788D02*
X46326942Y-118751407D01*
X46326942Y-118751407D02*
X46041228Y-118751407D01*
X46041228Y-118751407D02*
X45945990Y-118703788D01*
X45945990Y-118703788D02*
X45898371Y-118656169D01*
X45898371Y-118656169D02*
X45850752Y-118560931D01*
X45850752Y-118560931D02*
X45850752Y-118370455D01*
X45850752Y-118370455D02*
X45898371Y-118275217D01*
X46612657Y-118084741D02*
X46612657Y-117322836D01*
X46517419Y-117084740D02*
X45850752Y-117084740D01*
X45517419Y-117084740D02*
X45565038Y-117132359D01*
X45565038Y-117132359D02*
X45612657Y-117084740D01*
X45612657Y-117084740D02*
X45565038Y-117037121D01*
X45565038Y-117037121D02*
X45517419Y-117084740D01*
X45517419Y-117084740D02*
X45612657Y-117084740D01*
X45850752Y-116608550D02*
X46517419Y-116608550D01*
X45945990Y-116608550D02*
X45898371Y-116560931D01*
X45898371Y-116560931D02*
X45850752Y-116465693D01*
X45850752Y-116465693D02*
X45850752Y-116322836D01*
X45850752Y-116322836D02*
X45898371Y-116227598D01*
X45898371Y-116227598D02*
X45993609Y-116179979D01*
X45993609Y-116179979D02*
X46517419Y-116179979D01*
X46545419Y-66861057D02*
X46069228Y-67194390D01*
X46545419Y-67432485D02*
X45545419Y-67432485D01*
X45545419Y-67432485D02*
X45545419Y-67051533D01*
X45545419Y-67051533D02*
X45593038Y-66956295D01*
X45593038Y-66956295D02*
X45640657Y-66908676D01*
X45640657Y-66908676D02*
X45735895Y-66861057D01*
X45735895Y-66861057D02*
X45878752Y-66861057D01*
X45878752Y-66861057D02*
X45973990Y-66908676D01*
X45973990Y-66908676D02*
X46021609Y-66956295D01*
X46021609Y-66956295D02*
X46069228Y-67051533D01*
X46069228Y-67051533D02*
X46069228Y-67432485D01*
X46545419Y-65908676D02*
X46545419Y-66480104D01*
X46545419Y-66194390D02*
X45545419Y-66194390D01*
X45545419Y-66194390D02*
X45688276Y-66289628D01*
X45688276Y-66289628D02*
X45783514Y-66384866D01*
X45783514Y-66384866D02*
X45831133Y-66480104D01*
X46545419Y-65432485D02*
X46545419Y-65242009D01*
X46545419Y-65242009D02*
X46497800Y-65146771D01*
X46497800Y-65146771D02*
X46450180Y-65099152D01*
X46450180Y-65099152D02*
X46307323Y-65003914D01*
X46307323Y-65003914D02*
X46116847Y-64956295D01*
X46116847Y-64956295D02*
X45735895Y-64956295D01*
X45735895Y-64956295D02*
X45640657Y-65003914D01*
X45640657Y-65003914D02*
X45593038Y-65051533D01*
X45593038Y-65051533D02*
X45545419Y-65146771D01*
X45545419Y-65146771D02*
X45545419Y-65337247D01*
X45545419Y-65337247D02*
X45593038Y-65432485D01*
X45593038Y-65432485D02*
X45640657Y-65480104D01*
X45640657Y-65480104D02*
X45735895Y-65527723D01*
X45735895Y-65527723D02*
X45973990Y-65527723D01*
X45973990Y-65527723D02*
X46069228Y-65480104D01*
X46069228Y-65480104D02*
X46116847Y-65432485D01*
X46116847Y-65432485D02*
X46164466Y-65337247D01*
X46164466Y-65337247D02*
X46164466Y-65146771D01*
X46164466Y-65146771D02*
X46116847Y-65051533D01*
X46116847Y-65051533D02*
X46069228Y-65003914D01*
X46069228Y-65003914D02*
X45973990Y-64956295D01*
X39745419Y-54861057D02*
X39269228Y-55194390D01*
X39745419Y-55432485D02*
X38745419Y-55432485D01*
X38745419Y-55432485D02*
X38745419Y-55051533D01*
X38745419Y-55051533D02*
X38793038Y-54956295D01*
X38793038Y-54956295D02*
X38840657Y-54908676D01*
X38840657Y-54908676D02*
X38935895Y-54861057D01*
X38935895Y-54861057D02*
X39078752Y-54861057D01*
X39078752Y-54861057D02*
X39173990Y-54908676D01*
X39173990Y-54908676D02*
X39221609Y-54956295D01*
X39221609Y-54956295D02*
X39269228Y-55051533D01*
X39269228Y-55051533D02*
X39269228Y-55432485D01*
X38840657Y-54480104D02*
X38793038Y-54432485D01*
X38793038Y-54432485D02*
X38745419Y-54337247D01*
X38745419Y-54337247D02*
X38745419Y-54099152D01*
X38745419Y-54099152D02*
X38793038Y-54003914D01*
X38793038Y-54003914D02*
X38840657Y-53956295D01*
X38840657Y-53956295D02*
X38935895Y-53908676D01*
X38935895Y-53908676D02*
X39031133Y-53908676D01*
X39031133Y-53908676D02*
X39173990Y-53956295D01*
X39173990Y-53956295D02*
X39745419Y-54527723D01*
X39745419Y-54527723D02*
X39745419Y-53908676D01*
X39078752Y-53051533D02*
X39745419Y-53051533D01*
X38697800Y-53289628D02*
X39412085Y-53527723D01*
X39412085Y-53527723D02*
X39412085Y-52908676D01*
X57400180Y-111884866D02*
X57447800Y-111932485D01*
X57447800Y-111932485D02*
X57495419Y-112075342D01*
X57495419Y-112075342D02*
X57495419Y-112170580D01*
X57495419Y-112170580D02*
X57447800Y-112313437D01*
X57447800Y-112313437D02*
X57352561Y-112408675D01*
X57352561Y-112408675D02*
X57257323Y-112456294D01*
X57257323Y-112456294D02*
X57066847Y-112503913D01*
X57066847Y-112503913D02*
X56923990Y-112503913D01*
X56923990Y-112503913D02*
X56733514Y-112456294D01*
X56733514Y-112456294D02*
X56638276Y-112408675D01*
X56638276Y-112408675D02*
X56543038Y-112313437D01*
X56543038Y-112313437D02*
X56495419Y-112170580D01*
X56495419Y-112170580D02*
X56495419Y-112075342D01*
X56495419Y-112075342D02*
X56543038Y-111932485D01*
X56543038Y-111932485D02*
X56590657Y-111884866D01*
X57495419Y-111408675D02*
X57495419Y-111218199D01*
X57495419Y-111218199D02*
X57447800Y-111122961D01*
X57447800Y-111122961D02*
X57400180Y-111075342D01*
X57400180Y-111075342D02*
X57257323Y-110980104D01*
X57257323Y-110980104D02*
X57066847Y-110932485D01*
X57066847Y-110932485D02*
X56685895Y-110932485D01*
X56685895Y-110932485D02*
X56590657Y-110980104D01*
X56590657Y-110980104D02*
X56543038Y-111027723D01*
X56543038Y-111027723D02*
X56495419Y-111122961D01*
X56495419Y-111122961D02*
X56495419Y-111313437D01*
X56495419Y-111313437D02*
X56543038Y-111408675D01*
X56543038Y-111408675D02*
X56590657Y-111456294D01*
X56590657Y-111456294D02*
X56685895Y-111503913D01*
X56685895Y-111503913D02*
X56923990Y-111503913D01*
X56923990Y-111503913D02*
X57019228Y-111456294D01*
X57019228Y-111456294D02*
X57066847Y-111408675D01*
X57066847Y-111408675D02*
X57114466Y-111313437D01*
X57114466Y-111313437D02*
X57114466Y-111122961D01*
X57114466Y-111122961D02*
X57066847Y-111027723D01*
X57066847Y-111027723D02*
X57019228Y-110980104D01*
X57019228Y-110980104D02*
X56923990Y-110932485D01*
D11*
X66285522Y-117754772D02*
X67147308Y-117754772D01*
X67147308Y-117754772D02*
X67319665Y-117812225D01*
X67319665Y-117812225D02*
X67434570Y-117927129D01*
X67434570Y-117927129D02*
X67492022Y-118099487D01*
X67492022Y-118099487D02*
X67492022Y-118214391D01*
X66285522Y-117295153D02*
X66285522Y-116548272D01*
X66285522Y-116548272D02*
X66745141Y-116950439D01*
X66745141Y-116950439D02*
X66745141Y-116778082D01*
X66745141Y-116778082D02*
X66802593Y-116663177D01*
X66802593Y-116663177D02*
X66860046Y-116605725D01*
X66860046Y-116605725D02*
X66974950Y-116548272D01*
X66974950Y-116548272D02*
X67262212Y-116548272D01*
X67262212Y-116548272D02*
X67377117Y-116605725D01*
X67377117Y-116605725D02*
X67434570Y-116663177D01*
X67434570Y-116663177D02*
X67492022Y-116778082D01*
X67492022Y-116778082D02*
X67492022Y-117122796D01*
X67492022Y-117122796D02*
X67434570Y-117237701D01*
X67434570Y-117237701D02*
X67377117Y-117295153D01*
D10*
X57850752Y-125037121D02*
X58850752Y-125037121D01*
X57898371Y-125037121D02*
X57850752Y-124941883D01*
X57850752Y-124941883D02*
X57850752Y-124751407D01*
X57850752Y-124751407D02*
X57898371Y-124656169D01*
X57898371Y-124656169D02*
X57945990Y-124608550D01*
X57945990Y-124608550D02*
X58041228Y-124560931D01*
X58041228Y-124560931D02*
X58326942Y-124560931D01*
X58326942Y-124560931D02*
X58422180Y-124608550D01*
X58422180Y-124608550D02*
X58469800Y-124656169D01*
X58469800Y-124656169D02*
X58517419Y-124751407D01*
X58517419Y-124751407D02*
X58517419Y-124941883D01*
X58517419Y-124941883D02*
X58469800Y-125037121D01*
X57850752Y-124227597D02*
X58517419Y-124037121D01*
X58517419Y-124037121D02*
X58041228Y-123846645D01*
X58041228Y-123846645D02*
X58517419Y-123656169D01*
X58517419Y-123656169D02*
X57850752Y-123465693D01*
X58517419Y-123084740D02*
X57850752Y-123084740D01*
X57945990Y-123084740D02*
X57898371Y-123037121D01*
X57898371Y-123037121D02*
X57850752Y-122941883D01*
X57850752Y-122941883D02*
X57850752Y-122799026D01*
X57850752Y-122799026D02*
X57898371Y-122703788D01*
X57898371Y-122703788D02*
X57993609Y-122656169D01*
X57993609Y-122656169D02*
X58517419Y-122656169D01*
X57993609Y-122656169D02*
X57898371Y-122608550D01*
X57898371Y-122608550D02*
X57850752Y-122513312D01*
X57850752Y-122513312D02*
X57850752Y-122370455D01*
X57850752Y-122370455D02*
X57898371Y-122275216D01*
X57898371Y-122275216D02*
X57993609Y-122227597D01*
X57993609Y-122227597D02*
X58517419Y-122227597D01*
X58612657Y-121989503D02*
X58612657Y-121227598D01*
X58517419Y-120989502D02*
X57850752Y-120989502D01*
X57945990Y-120989502D02*
X57898371Y-120941883D01*
X57898371Y-120941883D02*
X57850752Y-120846645D01*
X57850752Y-120846645D02*
X57850752Y-120703788D01*
X57850752Y-120703788D02*
X57898371Y-120608550D01*
X57898371Y-120608550D02*
X57993609Y-120560931D01*
X57993609Y-120560931D02*
X58517419Y-120560931D01*
X57993609Y-120560931D02*
X57898371Y-120513312D01*
X57898371Y-120513312D02*
X57850752Y-120418074D01*
X57850752Y-120418074D02*
X57850752Y-120275217D01*
X57850752Y-120275217D02*
X57898371Y-120179978D01*
X57898371Y-120179978D02*
X57993609Y-120132359D01*
X57993609Y-120132359D02*
X58517419Y-120132359D01*
X58517419Y-119513312D02*
X58469800Y-119608550D01*
X58469800Y-119608550D02*
X58422180Y-119656169D01*
X58422180Y-119656169D02*
X58326942Y-119703788D01*
X58326942Y-119703788D02*
X58041228Y-119703788D01*
X58041228Y-119703788D02*
X57945990Y-119656169D01*
X57945990Y-119656169D02*
X57898371Y-119608550D01*
X57898371Y-119608550D02*
X57850752Y-119513312D01*
X57850752Y-119513312D02*
X57850752Y-119370455D01*
X57850752Y-119370455D02*
X57898371Y-119275217D01*
X57898371Y-119275217D02*
X57945990Y-119227598D01*
X57945990Y-119227598D02*
X58041228Y-119179979D01*
X58041228Y-119179979D02*
X58326942Y-119179979D01*
X58326942Y-119179979D02*
X58422180Y-119227598D01*
X58422180Y-119227598D02*
X58469800Y-119275217D01*
X58469800Y-119275217D02*
X58517419Y-119370455D01*
X58517419Y-119370455D02*
X58517419Y-119513312D01*
X58517419Y-118322836D02*
X57517419Y-118322836D01*
X58469800Y-118322836D02*
X58517419Y-118418074D01*
X58517419Y-118418074D02*
X58517419Y-118608550D01*
X58517419Y-118608550D02*
X58469800Y-118703788D01*
X58469800Y-118703788D02*
X58422180Y-118751407D01*
X58422180Y-118751407D02*
X58326942Y-118799026D01*
X58326942Y-118799026D02*
X58041228Y-118799026D01*
X58041228Y-118799026D02*
X57945990Y-118751407D01*
X57945990Y-118751407D02*
X57898371Y-118703788D01*
X57898371Y-118703788D02*
X57850752Y-118608550D01*
X57850752Y-118608550D02*
X57850752Y-118418074D01*
X57850752Y-118418074D02*
X57898371Y-118322836D01*
X58612657Y-118084741D02*
X58612657Y-117322836D01*
X58517419Y-117084740D02*
X57850752Y-117084740D01*
X57517419Y-117084740D02*
X57565038Y-117132359D01*
X57565038Y-117132359D02*
X57612657Y-117084740D01*
X57612657Y-117084740D02*
X57565038Y-117037121D01*
X57565038Y-117037121D02*
X57517419Y-117084740D01*
X57517419Y-117084740D02*
X57612657Y-117084740D01*
X57850752Y-116608550D02*
X58517419Y-116608550D01*
X57945990Y-116608550D02*
X57898371Y-116560931D01*
X57898371Y-116560931D02*
X57850752Y-116465693D01*
X57850752Y-116465693D02*
X57850752Y-116322836D01*
X57850752Y-116322836D02*
X57898371Y-116227598D01*
X57898371Y-116227598D02*
X57993609Y-116179979D01*
X57993609Y-116179979D02*
X58517419Y-116179979D01*
X67045419Y-61884866D02*
X66569228Y-62218199D01*
X67045419Y-62456294D02*
X66045419Y-62456294D01*
X66045419Y-62456294D02*
X66045419Y-62075342D01*
X66045419Y-62075342D02*
X66093038Y-61980104D01*
X66093038Y-61980104D02*
X66140657Y-61932485D01*
X66140657Y-61932485D02*
X66235895Y-61884866D01*
X66235895Y-61884866D02*
X66378752Y-61884866D01*
X66378752Y-61884866D02*
X66473990Y-61932485D01*
X66473990Y-61932485D02*
X66521609Y-61980104D01*
X66521609Y-61980104D02*
X66569228Y-62075342D01*
X66569228Y-62075342D02*
X66569228Y-62456294D01*
X66045419Y-61551532D02*
X66045419Y-60884866D01*
X66045419Y-60884866D02*
X67045419Y-61313437D01*
X63745419Y-55384866D02*
X63269228Y-55718199D01*
X63745419Y-55956294D02*
X62745419Y-55956294D01*
X62745419Y-55956294D02*
X62745419Y-55575342D01*
X62745419Y-55575342D02*
X62793038Y-55480104D01*
X62793038Y-55480104D02*
X62840657Y-55432485D01*
X62840657Y-55432485D02*
X62935895Y-55384866D01*
X62935895Y-55384866D02*
X63078752Y-55384866D01*
X63078752Y-55384866D02*
X63173990Y-55432485D01*
X63173990Y-55432485D02*
X63221609Y-55480104D01*
X63221609Y-55480104D02*
X63269228Y-55575342D01*
X63269228Y-55575342D02*
X63269228Y-55956294D01*
X62745419Y-54480104D02*
X62745419Y-54956294D01*
X62745419Y-54956294D02*
X63221609Y-55003913D01*
X63221609Y-55003913D02*
X63173990Y-54956294D01*
X63173990Y-54956294D02*
X63126371Y-54861056D01*
X63126371Y-54861056D02*
X63126371Y-54622961D01*
X63126371Y-54622961D02*
X63173990Y-54527723D01*
X63173990Y-54527723D02*
X63221609Y-54480104D01*
X63221609Y-54480104D02*
X63316847Y-54432485D01*
X63316847Y-54432485D02*
X63554942Y-54432485D01*
X63554942Y-54432485D02*
X63650180Y-54480104D01*
X63650180Y-54480104D02*
X63697800Y-54527723D01*
X63697800Y-54527723D02*
X63745419Y-54622961D01*
X63745419Y-54622961D02*
X63745419Y-54861056D01*
X63745419Y-54861056D02*
X63697800Y-54956294D01*
X63697800Y-54956294D02*
X63650180Y-55003913D01*
X28245419Y-89361057D02*
X27769228Y-89694390D01*
X28245419Y-89932485D02*
X27245419Y-89932485D01*
X27245419Y-89932485D02*
X27245419Y-89551533D01*
X27245419Y-89551533D02*
X27293038Y-89456295D01*
X27293038Y-89456295D02*
X27340657Y-89408676D01*
X27340657Y-89408676D02*
X27435895Y-89361057D01*
X27435895Y-89361057D02*
X27578752Y-89361057D01*
X27578752Y-89361057D02*
X27673990Y-89408676D01*
X27673990Y-89408676D02*
X27721609Y-89456295D01*
X27721609Y-89456295D02*
X27769228Y-89551533D01*
X27769228Y-89551533D02*
X27769228Y-89932485D01*
X28245419Y-88408676D02*
X28245419Y-88980104D01*
X28245419Y-88694390D02*
X27245419Y-88694390D01*
X27245419Y-88694390D02*
X27388276Y-88789628D01*
X27388276Y-88789628D02*
X27483514Y-88884866D01*
X27483514Y-88884866D02*
X27531133Y-88980104D01*
X27245419Y-87503914D02*
X27245419Y-87980104D01*
X27245419Y-87980104D02*
X27721609Y-88027723D01*
X27721609Y-88027723D02*
X27673990Y-87980104D01*
X27673990Y-87980104D02*
X27626371Y-87884866D01*
X27626371Y-87884866D02*
X27626371Y-87646771D01*
X27626371Y-87646771D02*
X27673990Y-87551533D01*
X27673990Y-87551533D02*
X27721609Y-87503914D01*
X27721609Y-87503914D02*
X27816847Y-87456295D01*
X27816847Y-87456295D02*
X28054942Y-87456295D01*
X28054942Y-87456295D02*
X28150180Y-87503914D01*
X28150180Y-87503914D02*
X28197800Y-87551533D01*
X28197800Y-87551533D02*
X28245419Y-87646771D01*
X28245419Y-87646771D02*
X28245419Y-87884866D01*
X28245419Y-87884866D02*
X28197800Y-87980104D01*
X28197800Y-87980104D02*
X28150180Y-88027723D01*
X30055361Y-37533019D02*
X29722028Y-37056828D01*
X29483933Y-37533019D02*
X29483933Y-36533019D01*
X29483933Y-36533019D02*
X29864885Y-36533019D01*
X29864885Y-36533019D02*
X29960123Y-36580638D01*
X29960123Y-36580638D02*
X30007742Y-36628257D01*
X30007742Y-36628257D02*
X30055361Y-36723495D01*
X30055361Y-36723495D02*
X30055361Y-36866352D01*
X30055361Y-36866352D02*
X30007742Y-36961590D01*
X30007742Y-36961590D02*
X29960123Y-37009209D01*
X29960123Y-37009209D02*
X29864885Y-37056828D01*
X29864885Y-37056828D02*
X29483933Y-37056828D01*
X30341076Y-36533019D02*
X30674409Y-37533019D01*
X30674409Y-37533019D02*
X31007742Y-36533019D01*
X31293457Y-36628257D02*
X31341076Y-36580638D01*
X31341076Y-36580638D02*
X31436314Y-36533019D01*
X31436314Y-36533019D02*
X31674409Y-36533019D01*
X31674409Y-36533019D02*
X31769647Y-36580638D01*
X31769647Y-36580638D02*
X31817266Y-36628257D01*
X31817266Y-36628257D02*
X31864885Y-36723495D01*
X31864885Y-36723495D02*
X31864885Y-36818733D01*
X31864885Y-36818733D02*
X31817266Y-36961590D01*
X31817266Y-36961590D02*
X31245838Y-37533019D01*
X31245838Y-37533019D02*
X31864885Y-37533019D01*
X41910371Y-69390342D02*
X42396085Y-69390342D01*
X42396085Y-69390342D02*
X42453228Y-69361771D01*
X42453228Y-69361771D02*
X42481800Y-69333200D01*
X42481800Y-69333200D02*
X42510371Y-69276057D01*
X42510371Y-69276057D02*
X42510371Y-69161771D01*
X42510371Y-69161771D02*
X42481800Y-69104628D01*
X42481800Y-69104628D02*
X42453228Y-69076057D01*
X42453228Y-69076057D02*
X42396085Y-69047485D01*
X42396085Y-69047485D02*
X41910371Y-69047485D01*
X41910371Y-68818914D02*
X41910371Y-68447486D01*
X41910371Y-68447486D02*
X42138942Y-68647486D01*
X42138942Y-68647486D02*
X42138942Y-68561771D01*
X42138942Y-68561771D02*
X42167514Y-68504629D01*
X42167514Y-68504629D02*
X42196085Y-68476057D01*
X42196085Y-68476057D02*
X42253228Y-68447486D01*
X42253228Y-68447486D02*
X42396085Y-68447486D01*
X42396085Y-68447486D02*
X42453228Y-68476057D01*
X42453228Y-68476057D02*
X42481800Y-68504629D01*
X42481800Y-68504629D02*
X42510371Y-68561771D01*
X42510371Y-68561771D02*
X42510371Y-68733200D01*
X42510371Y-68733200D02*
X42481800Y-68790343D01*
X42481800Y-68790343D02*
X42453228Y-68818914D01*
D12*
X37187646Y-74946606D02*
X36945741Y-74946606D01*
X36945741Y-74946606D02*
X36945741Y-74438606D01*
X37308598Y-74438606D02*
X37647265Y-74438606D01*
X37647265Y-74438606D02*
X37429550Y-74946606D01*
X37913360Y-74656320D02*
X37864979Y-74632130D01*
X37864979Y-74632130D02*
X37840789Y-74607939D01*
X37840789Y-74607939D02*
X37816598Y-74559558D01*
X37816598Y-74559558D02*
X37816598Y-74535368D01*
X37816598Y-74535368D02*
X37840789Y-74486987D01*
X37840789Y-74486987D02*
X37864979Y-74462796D01*
X37864979Y-74462796D02*
X37913360Y-74438606D01*
X37913360Y-74438606D02*
X38010122Y-74438606D01*
X38010122Y-74438606D02*
X38058503Y-74462796D01*
X38058503Y-74462796D02*
X38082694Y-74486987D01*
X38082694Y-74486987D02*
X38106884Y-74535368D01*
X38106884Y-74535368D02*
X38106884Y-74559558D01*
X38106884Y-74559558D02*
X38082694Y-74607939D01*
X38082694Y-74607939D02*
X38058503Y-74632130D01*
X38058503Y-74632130D02*
X38010122Y-74656320D01*
X38010122Y-74656320D02*
X37913360Y-74656320D01*
X37913360Y-74656320D02*
X37864979Y-74680511D01*
X37864979Y-74680511D02*
X37840789Y-74704701D01*
X37840789Y-74704701D02*
X37816598Y-74753082D01*
X37816598Y-74753082D02*
X37816598Y-74849844D01*
X37816598Y-74849844D02*
X37840789Y-74898225D01*
X37840789Y-74898225D02*
X37864979Y-74922416D01*
X37864979Y-74922416D02*
X37913360Y-74946606D01*
X37913360Y-74946606D02*
X38010122Y-74946606D01*
X38010122Y-74946606D02*
X38058503Y-74922416D01*
X38058503Y-74922416D02*
X38082694Y-74898225D01*
X38082694Y-74898225D02*
X38106884Y-74849844D01*
X38106884Y-74849844D02*
X38106884Y-74753082D01*
X38106884Y-74753082D02*
X38082694Y-74704701D01*
X38082694Y-74704701D02*
X38058503Y-74680511D01*
X38058503Y-74680511D02*
X38010122Y-74656320D01*
X38566504Y-74946606D02*
X38324599Y-74946606D01*
X38324599Y-74946606D02*
X38324599Y-74438606D01*
X38832599Y-74438606D02*
X38880980Y-74438606D01*
X38880980Y-74438606D02*
X38929361Y-74462796D01*
X38929361Y-74462796D02*
X38953551Y-74486987D01*
X38953551Y-74486987D02*
X38977742Y-74535368D01*
X38977742Y-74535368D02*
X39001932Y-74632130D01*
X39001932Y-74632130D02*
X39001932Y-74753082D01*
X39001932Y-74753082D02*
X38977742Y-74849844D01*
X38977742Y-74849844D02*
X38953551Y-74898225D01*
X38953551Y-74898225D02*
X38929361Y-74922416D01*
X38929361Y-74922416D02*
X38880980Y-74946606D01*
X38880980Y-74946606D02*
X38832599Y-74946606D01*
X38832599Y-74946606D02*
X38784218Y-74922416D01*
X38784218Y-74922416D02*
X38760027Y-74898225D01*
X38760027Y-74898225D02*
X38735837Y-74849844D01*
X38735837Y-74849844D02*
X38711646Y-74753082D01*
X38711646Y-74753082D02*
X38711646Y-74632130D01*
X38711646Y-74632130D02*
X38735837Y-74535368D01*
X38735837Y-74535368D02*
X38760027Y-74486987D01*
X38760027Y-74486987D02*
X38784218Y-74462796D01*
X38784218Y-74462796D02*
X38832599Y-74438606D01*
X39461552Y-74438606D02*
X39219647Y-74438606D01*
X39219647Y-74438606D02*
X39195456Y-74680511D01*
X39195456Y-74680511D02*
X39219647Y-74656320D01*
X39219647Y-74656320D02*
X39268028Y-74632130D01*
X39268028Y-74632130D02*
X39388980Y-74632130D01*
X39388980Y-74632130D02*
X39437361Y-74656320D01*
X39437361Y-74656320D02*
X39461552Y-74680511D01*
X39461552Y-74680511D02*
X39485742Y-74728892D01*
X39485742Y-74728892D02*
X39485742Y-74849844D01*
X39485742Y-74849844D02*
X39461552Y-74898225D01*
X39461552Y-74898225D02*
X39437361Y-74922416D01*
X39437361Y-74922416D02*
X39388980Y-74946606D01*
X39388980Y-74946606D02*
X39268028Y-74946606D01*
X39268028Y-74946606D02*
X39219647Y-74922416D01*
X39219647Y-74922416D02*
X39195456Y-74898225D01*
X39582505Y-74994987D02*
X39969552Y-74994987D01*
X40017933Y-74438606D02*
X40308219Y-74438606D01*
X40163076Y-74946606D02*
X40163076Y-74438606D01*
X40574315Y-74438606D02*
X40671077Y-74438606D01*
X40671077Y-74438606D02*
X40719458Y-74462796D01*
X40719458Y-74462796D02*
X40767839Y-74511177D01*
X40767839Y-74511177D02*
X40792029Y-74607939D01*
X40792029Y-74607939D02*
X40792029Y-74777273D01*
X40792029Y-74777273D02*
X40767839Y-74874035D01*
X40767839Y-74874035D02*
X40719458Y-74922416D01*
X40719458Y-74922416D02*
X40671077Y-74946606D01*
X40671077Y-74946606D02*
X40574315Y-74946606D01*
X40574315Y-74946606D02*
X40525934Y-74922416D01*
X40525934Y-74922416D02*
X40477553Y-74874035D01*
X40477553Y-74874035D02*
X40453362Y-74777273D01*
X40453362Y-74777273D02*
X40453362Y-74607939D01*
X40453362Y-74607939D02*
X40477553Y-74511177D01*
X40477553Y-74511177D02*
X40525934Y-74462796D01*
X40525934Y-74462796D02*
X40574315Y-74438606D01*
X41033933Y-74946606D02*
X41130695Y-74946606D01*
X41130695Y-74946606D02*
X41179076Y-74922416D01*
X41179076Y-74922416D02*
X41203267Y-74898225D01*
X41203267Y-74898225D02*
X41251648Y-74825654D01*
X41251648Y-74825654D02*
X41275838Y-74728892D01*
X41275838Y-74728892D02*
X41275838Y-74535368D01*
X41275838Y-74535368D02*
X41251648Y-74486987D01*
X41251648Y-74486987D02*
X41227457Y-74462796D01*
X41227457Y-74462796D02*
X41179076Y-74438606D01*
X41179076Y-74438606D02*
X41082314Y-74438606D01*
X41082314Y-74438606D02*
X41033933Y-74462796D01*
X41033933Y-74462796D02*
X41009743Y-74486987D01*
X41009743Y-74486987D02*
X40985552Y-74535368D01*
X40985552Y-74535368D02*
X40985552Y-74656320D01*
X40985552Y-74656320D02*
X41009743Y-74704701D01*
X41009743Y-74704701D02*
X41033933Y-74728892D01*
X41033933Y-74728892D02*
X41082314Y-74753082D01*
X41082314Y-74753082D02*
X41179076Y-74753082D01*
X41179076Y-74753082D02*
X41227457Y-74728892D01*
X41227457Y-74728892D02*
X41251648Y-74704701D01*
X41251648Y-74704701D02*
X41275838Y-74656320D01*
X41469362Y-74486987D02*
X41493553Y-74462796D01*
X41493553Y-74462796D02*
X41541934Y-74438606D01*
X41541934Y-74438606D02*
X41662886Y-74438606D01*
X41662886Y-74438606D02*
X41711267Y-74462796D01*
X41711267Y-74462796D02*
X41735458Y-74486987D01*
X41735458Y-74486987D02*
X41759648Y-74535368D01*
X41759648Y-74535368D02*
X41759648Y-74583749D01*
X41759648Y-74583749D02*
X41735458Y-74656320D01*
X41735458Y-74656320D02*
X41445172Y-74946606D01*
X41445172Y-74946606D02*
X41759648Y-74946606D01*
D11*
X42078522Y-131754772D02*
X42940308Y-131754772D01*
X42940308Y-131754772D02*
X43112665Y-131812225D01*
X43112665Y-131812225D02*
X43227570Y-131927129D01*
X43227570Y-131927129D02*
X43285022Y-132099487D01*
X43285022Y-132099487D02*
X43285022Y-132214391D01*
X42595593Y-131007891D02*
X42538141Y-131122796D01*
X42538141Y-131122796D02*
X42480689Y-131180249D01*
X42480689Y-131180249D02*
X42365784Y-131237701D01*
X42365784Y-131237701D02*
X42308331Y-131237701D01*
X42308331Y-131237701D02*
X42193427Y-131180249D01*
X42193427Y-131180249D02*
X42135974Y-131122796D01*
X42135974Y-131122796D02*
X42078522Y-131007891D01*
X42078522Y-131007891D02*
X42078522Y-130778082D01*
X42078522Y-130778082D02*
X42135974Y-130663177D01*
X42135974Y-130663177D02*
X42193427Y-130605725D01*
X42193427Y-130605725D02*
X42308331Y-130548272D01*
X42308331Y-130548272D02*
X42365784Y-130548272D01*
X42365784Y-130548272D02*
X42480689Y-130605725D01*
X42480689Y-130605725D02*
X42538141Y-130663177D01*
X42538141Y-130663177D02*
X42595593Y-130778082D01*
X42595593Y-130778082D02*
X42595593Y-131007891D01*
X42595593Y-131007891D02*
X42653046Y-131122796D01*
X42653046Y-131122796D02*
X42710498Y-131180249D01*
X42710498Y-131180249D02*
X42825403Y-131237701D01*
X42825403Y-131237701D02*
X43055212Y-131237701D01*
X43055212Y-131237701D02*
X43170117Y-131180249D01*
X43170117Y-131180249D02*
X43227570Y-131122796D01*
X43227570Y-131122796D02*
X43285022Y-131007891D01*
X43285022Y-131007891D02*
X43285022Y-130778082D01*
X43285022Y-130778082D02*
X43227570Y-130663177D01*
X43227570Y-130663177D02*
X43170117Y-130605725D01*
X43170117Y-130605725D02*
X43055212Y-130548272D01*
X43055212Y-130548272D02*
X42825403Y-130548272D01*
X42825403Y-130548272D02*
X42710498Y-130605725D01*
X42710498Y-130605725D02*
X42653046Y-130663177D01*
X42653046Y-130663177D02*
X42595593Y-130778082D01*
D10*
X34262800Y-136322836D02*
X34310419Y-136179979D01*
X34310419Y-136179979D02*
X34310419Y-135941884D01*
X34310419Y-135941884D02*
X34262800Y-135846646D01*
X34262800Y-135846646D02*
X34215180Y-135799027D01*
X34215180Y-135799027D02*
X34119942Y-135751408D01*
X34119942Y-135751408D02*
X34024704Y-135751408D01*
X34024704Y-135751408D02*
X33929466Y-135799027D01*
X33929466Y-135799027D02*
X33881847Y-135846646D01*
X33881847Y-135846646D02*
X33834228Y-135941884D01*
X33834228Y-135941884D02*
X33786609Y-136132360D01*
X33786609Y-136132360D02*
X33738990Y-136227598D01*
X33738990Y-136227598D02*
X33691371Y-136275217D01*
X33691371Y-136275217D02*
X33596133Y-136322836D01*
X33596133Y-136322836D02*
X33500895Y-136322836D01*
X33500895Y-136322836D02*
X33405657Y-136275217D01*
X33405657Y-136275217D02*
X33358038Y-136227598D01*
X33358038Y-136227598D02*
X33310419Y-136132360D01*
X33310419Y-136132360D02*
X33310419Y-135894265D01*
X33310419Y-135894265D02*
X33358038Y-135751408D01*
X34024704Y-135370455D02*
X34024704Y-134894265D01*
X34310419Y-135465693D02*
X33310419Y-135132360D01*
X33310419Y-135132360D02*
X34310419Y-134799027D01*
X33310419Y-134560931D02*
X34310419Y-134322836D01*
X34310419Y-134322836D02*
X33596133Y-134132360D01*
X33596133Y-134132360D02*
X34310419Y-133941884D01*
X34310419Y-133941884D02*
X33310419Y-133703789D01*
X34405657Y-133560932D02*
X34405657Y-132799027D01*
X33310419Y-132370455D02*
X33310419Y-132179979D01*
X33310419Y-132179979D02*
X33358038Y-132084741D01*
X33358038Y-132084741D02*
X33453276Y-131989503D01*
X33453276Y-131989503D02*
X33643752Y-131941884D01*
X33643752Y-131941884D02*
X33977085Y-131941884D01*
X33977085Y-131941884D02*
X34167561Y-131989503D01*
X34167561Y-131989503D02*
X34262800Y-132084741D01*
X34262800Y-132084741D02*
X34310419Y-132179979D01*
X34310419Y-132179979D02*
X34310419Y-132370455D01*
X34310419Y-132370455D02*
X34262800Y-132465693D01*
X34262800Y-132465693D02*
X34167561Y-132560931D01*
X34167561Y-132560931D02*
X33977085Y-132608550D01*
X33977085Y-132608550D02*
X33643752Y-132608550D01*
X33643752Y-132608550D02*
X33453276Y-132560931D01*
X33453276Y-132560931D02*
X33358038Y-132465693D01*
X33358038Y-132465693D02*
X33310419Y-132370455D01*
X33310419Y-131513312D02*
X34119942Y-131513312D01*
X34119942Y-131513312D02*
X34215180Y-131465693D01*
X34215180Y-131465693D02*
X34262800Y-131418074D01*
X34262800Y-131418074D02*
X34310419Y-131322836D01*
X34310419Y-131322836D02*
X34310419Y-131132360D01*
X34310419Y-131132360D02*
X34262800Y-131037122D01*
X34262800Y-131037122D02*
X34215180Y-130989503D01*
X34215180Y-130989503D02*
X34119942Y-130941884D01*
X34119942Y-130941884D02*
X33310419Y-130941884D01*
X33310419Y-130608550D02*
X33310419Y-130037122D01*
X34310419Y-130322836D02*
X33310419Y-130322836D01*
X43102505Y-52823019D02*
X43102505Y-51823019D01*
X43102505Y-51823019D02*
X43340600Y-51823019D01*
X43340600Y-51823019D02*
X43483457Y-51870638D01*
X43483457Y-51870638D02*
X43578695Y-51965876D01*
X43578695Y-51965876D02*
X43626314Y-52061114D01*
X43626314Y-52061114D02*
X43673933Y-52251590D01*
X43673933Y-52251590D02*
X43673933Y-52394447D01*
X43673933Y-52394447D02*
X43626314Y-52584923D01*
X43626314Y-52584923D02*
X43578695Y-52680161D01*
X43578695Y-52680161D02*
X43483457Y-52775400D01*
X43483457Y-52775400D02*
X43340600Y-52823019D01*
X43340600Y-52823019D02*
X43102505Y-52823019D01*
X44626314Y-52823019D02*
X44054886Y-52823019D01*
X44340600Y-52823019D02*
X44340600Y-51823019D01*
X44340600Y-51823019D02*
X44245362Y-51965876D01*
X44245362Y-51965876D02*
X44150124Y-52061114D01*
X44150124Y-52061114D02*
X44054886Y-52108733D01*
D11*
X30285522Y-117754772D02*
X31147308Y-117754772D01*
X31147308Y-117754772D02*
X31319665Y-117812225D01*
X31319665Y-117812225D02*
X31434570Y-117927129D01*
X31434570Y-117927129D02*
X31492022Y-118099487D01*
X31492022Y-118099487D02*
X31492022Y-118214391D01*
X30400427Y-117237701D02*
X30342974Y-117180249D01*
X30342974Y-117180249D02*
X30285522Y-117065344D01*
X30285522Y-117065344D02*
X30285522Y-116778082D01*
X30285522Y-116778082D02*
X30342974Y-116663177D01*
X30342974Y-116663177D02*
X30400427Y-116605725D01*
X30400427Y-116605725D02*
X30515331Y-116548272D01*
X30515331Y-116548272D02*
X30630236Y-116548272D01*
X30630236Y-116548272D02*
X30802593Y-116605725D01*
X30802593Y-116605725D02*
X31492022Y-117295153D01*
X31492022Y-117295153D02*
X31492022Y-116548272D01*
D10*
X22469800Y-122941884D02*
X22517419Y-123037122D01*
X22517419Y-123037122D02*
X22517419Y-123227598D01*
X22517419Y-123227598D02*
X22469800Y-123322836D01*
X22469800Y-123322836D02*
X22422180Y-123370455D01*
X22422180Y-123370455D02*
X22326942Y-123418074D01*
X22326942Y-123418074D02*
X22041228Y-123418074D01*
X22041228Y-123418074D02*
X21945990Y-123370455D01*
X21945990Y-123370455D02*
X21898371Y-123322836D01*
X21898371Y-123322836D02*
X21850752Y-123227598D01*
X21850752Y-123227598D02*
X21850752Y-123037122D01*
X21850752Y-123037122D02*
X21898371Y-122941884D01*
X21850752Y-122608550D02*
X22517419Y-122370455D01*
X22517419Y-122370455D02*
X21850752Y-122132360D01*
X22612657Y-121989503D02*
X22612657Y-121227598D01*
X22517419Y-120989502D02*
X21850752Y-120989502D01*
X21945990Y-120989502D02*
X21898371Y-120941883D01*
X21898371Y-120941883D02*
X21850752Y-120846645D01*
X21850752Y-120846645D02*
X21850752Y-120703788D01*
X21850752Y-120703788D02*
X21898371Y-120608550D01*
X21898371Y-120608550D02*
X21993609Y-120560931D01*
X21993609Y-120560931D02*
X22517419Y-120560931D01*
X21993609Y-120560931D02*
X21898371Y-120513312D01*
X21898371Y-120513312D02*
X21850752Y-120418074D01*
X21850752Y-120418074D02*
X21850752Y-120275217D01*
X21850752Y-120275217D02*
X21898371Y-120179978D01*
X21898371Y-120179978D02*
X21993609Y-120132359D01*
X21993609Y-120132359D02*
X22517419Y-120132359D01*
X22517419Y-119513312D02*
X22469800Y-119608550D01*
X22469800Y-119608550D02*
X22422180Y-119656169D01*
X22422180Y-119656169D02*
X22326942Y-119703788D01*
X22326942Y-119703788D02*
X22041228Y-119703788D01*
X22041228Y-119703788D02*
X21945990Y-119656169D01*
X21945990Y-119656169D02*
X21898371Y-119608550D01*
X21898371Y-119608550D02*
X21850752Y-119513312D01*
X21850752Y-119513312D02*
X21850752Y-119370455D01*
X21850752Y-119370455D02*
X21898371Y-119275217D01*
X21898371Y-119275217D02*
X21945990Y-119227598D01*
X21945990Y-119227598D02*
X22041228Y-119179979D01*
X22041228Y-119179979D02*
X22326942Y-119179979D01*
X22326942Y-119179979D02*
X22422180Y-119227598D01*
X22422180Y-119227598D02*
X22469800Y-119275217D01*
X22469800Y-119275217D02*
X22517419Y-119370455D01*
X22517419Y-119370455D02*
X22517419Y-119513312D01*
X22517419Y-118322836D02*
X21517419Y-118322836D01*
X22469800Y-118322836D02*
X22517419Y-118418074D01*
X22517419Y-118418074D02*
X22517419Y-118608550D01*
X22517419Y-118608550D02*
X22469800Y-118703788D01*
X22469800Y-118703788D02*
X22422180Y-118751407D01*
X22422180Y-118751407D02*
X22326942Y-118799026D01*
X22326942Y-118799026D02*
X22041228Y-118799026D01*
X22041228Y-118799026D02*
X21945990Y-118751407D01*
X21945990Y-118751407D02*
X21898371Y-118703788D01*
X21898371Y-118703788D02*
X21850752Y-118608550D01*
X21850752Y-118608550D02*
X21850752Y-118418074D01*
X21850752Y-118418074D02*
X21898371Y-118322836D01*
X22612657Y-118084741D02*
X22612657Y-117322836D01*
X22517419Y-117084740D02*
X21850752Y-117084740D01*
X21517419Y-117084740D02*
X21565038Y-117132359D01*
X21565038Y-117132359D02*
X21612657Y-117084740D01*
X21612657Y-117084740D02*
X21565038Y-117037121D01*
X21565038Y-117037121D02*
X21517419Y-117084740D01*
X21517419Y-117084740D02*
X21612657Y-117084740D01*
X21850752Y-116608550D02*
X22517419Y-116608550D01*
X21945990Y-116608550D02*
X21898371Y-116560931D01*
X21898371Y-116560931D02*
X21850752Y-116465693D01*
X21850752Y-116465693D02*
X21850752Y-116322836D01*
X21850752Y-116322836D02*
X21898371Y-116227598D01*
X21898371Y-116227598D02*
X21993609Y-116179979D01*
X21993609Y-116179979D02*
X22517419Y-116179979D01*
X62056760Y-104640400D02*
X62199617Y-104688019D01*
X62199617Y-104688019D02*
X62437712Y-104688019D01*
X62437712Y-104688019D02*
X62532950Y-104640400D01*
X62532950Y-104640400D02*
X62580569Y-104592780D01*
X62580569Y-104592780D02*
X62628188Y-104497542D01*
X62628188Y-104497542D02*
X62628188Y-104402304D01*
X62628188Y-104402304D02*
X62580569Y-104307066D01*
X62580569Y-104307066D02*
X62532950Y-104259447D01*
X62532950Y-104259447D02*
X62437712Y-104211828D01*
X62437712Y-104211828D02*
X62247236Y-104164209D01*
X62247236Y-104164209D02*
X62151998Y-104116590D01*
X62151998Y-104116590D02*
X62104379Y-104068971D01*
X62104379Y-104068971D02*
X62056760Y-103973733D01*
X62056760Y-103973733D02*
X62056760Y-103878495D01*
X62056760Y-103878495D02*
X62104379Y-103783257D01*
X62104379Y-103783257D02*
X62151998Y-103735638D01*
X62151998Y-103735638D02*
X62247236Y-103688019D01*
X62247236Y-103688019D02*
X62485331Y-103688019D01*
X62485331Y-103688019D02*
X62628188Y-103735638D01*
X62961522Y-103688019D02*
X63199617Y-104688019D01*
X63199617Y-104688019D02*
X63390093Y-103973733D01*
X63390093Y-103973733D02*
X63580569Y-104688019D01*
X63580569Y-104688019D02*
X63818665Y-103688019D01*
X64723426Y-104688019D02*
X64151998Y-104688019D01*
X64437712Y-104688019D02*
X64437712Y-103688019D01*
X64437712Y-103688019D02*
X64342474Y-103830876D01*
X64342474Y-103830876D02*
X64247236Y-103926114D01*
X64247236Y-103926114D02*
X64151998Y-103973733D01*
X58671409Y-114628019D02*
X58671409Y-113628019D01*
X58671409Y-113628019D02*
X59052361Y-113628019D01*
X59052361Y-113628019D02*
X59147599Y-113675638D01*
X59147599Y-113675638D02*
X59195218Y-113723257D01*
X59195218Y-113723257D02*
X59242837Y-113818495D01*
X59242837Y-113818495D02*
X59242837Y-113961352D01*
X59242837Y-113961352D02*
X59195218Y-114056590D01*
X59195218Y-114056590D02*
X59147599Y-114104209D01*
X59147599Y-114104209D02*
X59052361Y-114151828D01*
X59052361Y-114151828D02*
X58671409Y-114151828D01*
X59576171Y-113628019D02*
X59814266Y-114628019D01*
X59814266Y-114628019D02*
X60004742Y-113913733D01*
X60004742Y-113913733D02*
X60195218Y-114628019D01*
X60195218Y-114628019D02*
X60433314Y-113628019D01*
X60814266Y-114628019D02*
X60814266Y-113628019D01*
X60814266Y-113628019D02*
X61147599Y-114342304D01*
X61147599Y-114342304D02*
X61480932Y-113628019D01*
X61480932Y-113628019D02*
X61480932Y-114628019D01*
X62671409Y-114580400D02*
X62814266Y-114628019D01*
X62814266Y-114628019D02*
X63052361Y-114628019D01*
X63052361Y-114628019D02*
X63147599Y-114580400D01*
X63147599Y-114580400D02*
X63195218Y-114532780D01*
X63195218Y-114532780D02*
X63242837Y-114437542D01*
X63242837Y-114437542D02*
X63242837Y-114342304D01*
X63242837Y-114342304D02*
X63195218Y-114247066D01*
X63195218Y-114247066D02*
X63147599Y-114199447D01*
X63147599Y-114199447D02*
X63052361Y-114151828D01*
X63052361Y-114151828D02*
X62861885Y-114104209D01*
X62861885Y-114104209D02*
X62766647Y-114056590D01*
X62766647Y-114056590D02*
X62719028Y-114008971D01*
X62719028Y-114008971D02*
X62671409Y-113913733D01*
X62671409Y-113913733D02*
X62671409Y-113818495D01*
X62671409Y-113818495D02*
X62719028Y-113723257D01*
X62719028Y-113723257D02*
X62766647Y-113675638D01*
X62766647Y-113675638D02*
X62861885Y-113628019D01*
X62861885Y-113628019D02*
X63099980Y-113628019D01*
X63099980Y-113628019D02*
X63242837Y-113675638D01*
X64242837Y-114628019D02*
X63909504Y-114151828D01*
X63671409Y-114628019D02*
X63671409Y-113628019D01*
X63671409Y-113628019D02*
X64052361Y-113628019D01*
X64052361Y-113628019D02*
X64147599Y-113675638D01*
X64147599Y-113675638D02*
X64195218Y-113723257D01*
X64195218Y-113723257D02*
X64242837Y-113818495D01*
X64242837Y-113818495D02*
X64242837Y-113961352D01*
X64242837Y-113961352D02*
X64195218Y-114056590D01*
X64195218Y-114056590D02*
X64147599Y-114104209D01*
X64147599Y-114104209D02*
X64052361Y-114151828D01*
X64052361Y-114151828D02*
X63671409Y-114151828D01*
X65242837Y-114532780D02*
X65195218Y-114580400D01*
X65195218Y-114580400D02*
X65052361Y-114628019D01*
X65052361Y-114628019D02*
X64957123Y-114628019D01*
X64957123Y-114628019D02*
X64814266Y-114580400D01*
X64814266Y-114580400D02*
X64719028Y-114485161D01*
X64719028Y-114485161D02*
X64671409Y-114389923D01*
X64671409Y-114389923D02*
X64623790Y-114199447D01*
X64623790Y-114199447D02*
X64623790Y-114056590D01*
X64623790Y-114056590D02*
X64671409Y-113866114D01*
X64671409Y-113866114D02*
X64719028Y-113770876D01*
X64719028Y-113770876D02*
X64814266Y-113675638D01*
X64814266Y-113675638D02*
X64957123Y-113628019D01*
X64957123Y-113628019D02*
X65052361Y-113628019D01*
X65052361Y-113628019D02*
X65195218Y-113675638D01*
X65195218Y-113675638D02*
X65242837Y-113723257D01*
X66385695Y-114580400D02*
X66528552Y-114628019D01*
X66528552Y-114628019D02*
X66766647Y-114628019D01*
X66766647Y-114628019D02*
X66861885Y-114580400D01*
X66861885Y-114580400D02*
X66909504Y-114532780D01*
X66909504Y-114532780D02*
X66957123Y-114437542D01*
X66957123Y-114437542D02*
X66957123Y-114342304D01*
X66957123Y-114342304D02*
X66909504Y-114247066D01*
X66909504Y-114247066D02*
X66861885Y-114199447D01*
X66861885Y-114199447D02*
X66766647Y-114151828D01*
X66766647Y-114151828D02*
X66576171Y-114104209D01*
X66576171Y-114104209D02*
X66480933Y-114056590D01*
X66480933Y-114056590D02*
X66433314Y-114008971D01*
X66433314Y-114008971D02*
X66385695Y-113913733D01*
X66385695Y-113913733D02*
X66385695Y-113818495D01*
X66385695Y-113818495D02*
X66433314Y-113723257D01*
X66433314Y-113723257D02*
X66480933Y-113675638D01*
X66480933Y-113675638D02*
X66576171Y-113628019D01*
X66576171Y-113628019D02*
X66814266Y-113628019D01*
X66814266Y-113628019D02*
X66957123Y-113675638D01*
X67385695Y-114104209D02*
X67719028Y-114104209D01*
X67861885Y-114628019D02*
X67385695Y-114628019D01*
X67385695Y-114628019D02*
X67385695Y-113628019D01*
X67385695Y-113628019D02*
X67861885Y-113628019D01*
X68766647Y-114628019D02*
X68290457Y-114628019D01*
X68290457Y-114628019D02*
X68290457Y-113628019D01*
D11*
X30078522Y-131754772D02*
X30940308Y-131754772D01*
X30940308Y-131754772D02*
X31112665Y-131812225D01*
X31112665Y-131812225D02*
X31227570Y-131927129D01*
X31227570Y-131927129D02*
X31285022Y-132099487D01*
X31285022Y-132099487D02*
X31285022Y-132214391D01*
X30078522Y-131295153D02*
X30078522Y-130490820D01*
X30078522Y-130490820D02*
X31285022Y-131007891D01*
D10*
X22310419Y-138037122D02*
X21310419Y-138037122D01*
X21310419Y-138037122D02*
X21310419Y-137656170D01*
X21310419Y-137656170D02*
X21358038Y-137560932D01*
X21358038Y-137560932D02*
X21405657Y-137513313D01*
X21405657Y-137513313D02*
X21500895Y-137465694D01*
X21500895Y-137465694D02*
X21643752Y-137465694D01*
X21643752Y-137465694D02*
X21738990Y-137513313D01*
X21738990Y-137513313D02*
X21786609Y-137560932D01*
X21786609Y-137560932D02*
X21834228Y-137656170D01*
X21834228Y-137656170D02*
X21834228Y-138037122D01*
X21310419Y-137037122D02*
X22119942Y-137037122D01*
X22119942Y-137037122D02*
X22215180Y-136989503D01*
X22215180Y-136989503D02*
X22262800Y-136941884D01*
X22262800Y-136941884D02*
X22310419Y-136846646D01*
X22310419Y-136846646D02*
X22310419Y-136656170D01*
X22310419Y-136656170D02*
X22262800Y-136560932D01*
X22262800Y-136560932D02*
X22215180Y-136513313D01*
X22215180Y-136513313D02*
X22119942Y-136465694D01*
X22119942Y-136465694D02*
X21310419Y-136465694D01*
X22310419Y-135513313D02*
X22310419Y-135989503D01*
X22310419Y-135989503D02*
X21310419Y-135989503D01*
X22262800Y-135227598D02*
X22310419Y-135084741D01*
X22310419Y-135084741D02*
X22310419Y-134846646D01*
X22310419Y-134846646D02*
X22262800Y-134751408D01*
X22262800Y-134751408D02*
X22215180Y-134703789D01*
X22215180Y-134703789D02*
X22119942Y-134656170D01*
X22119942Y-134656170D02*
X22024704Y-134656170D01*
X22024704Y-134656170D02*
X21929466Y-134703789D01*
X21929466Y-134703789D02*
X21881847Y-134751408D01*
X21881847Y-134751408D02*
X21834228Y-134846646D01*
X21834228Y-134846646D02*
X21786609Y-135037122D01*
X21786609Y-135037122D02*
X21738990Y-135132360D01*
X21738990Y-135132360D02*
X21691371Y-135179979D01*
X21691371Y-135179979D02*
X21596133Y-135227598D01*
X21596133Y-135227598D02*
X21500895Y-135227598D01*
X21500895Y-135227598D02*
X21405657Y-135179979D01*
X21405657Y-135179979D02*
X21358038Y-135132360D01*
X21358038Y-135132360D02*
X21310419Y-135037122D01*
X21310419Y-135037122D02*
X21310419Y-134799027D01*
X21310419Y-134799027D02*
X21358038Y-134656170D01*
X21786609Y-134227598D02*
X21786609Y-133894265D01*
X22310419Y-133751408D02*
X22310419Y-134227598D01*
X22310419Y-134227598D02*
X21310419Y-134227598D01*
X21310419Y-134227598D02*
X21310419Y-133751408D01*
X22405657Y-133560932D02*
X22405657Y-132799027D01*
X21310419Y-132370455D02*
X21310419Y-132179979D01*
X21310419Y-132179979D02*
X21358038Y-132084741D01*
X21358038Y-132084741D02*
X21453276Y-131989503D01*
X21453276Y-131989503D02*
X21643752Y-131941884D01*
X21643752Y-131941884D02*
X21977085Y-131941884D01*
X21977085Y-131941884D02*
X22167561Y-131989503D01*
X22167561Y-131989503D02*
X22262800Y-132084741D01*
X22262800Y-132084741D02*
X22310419Y-132179979D01*
X22310419Y-132179979D02*
X22310419Y-132370455D01*
X22310419Y-132370455D02*
X22262800Y-132465693D01*
X22262800Y-132465693D02*
X22167561Y-132560931D01*
X22167561Y-132560931D02*
X21977085Y-132608550D01*
X21977085Y-132608550D02*
X21643752Y-132608550D01*
X21643752Y-132608550D02*
X21453276Y-132560931D01*
X21453276Y-132560931D02*
X21358038Y-132465693D01*
X21358038Y-132465693D02*
X21310419Y-132370455D01*
X21310419Y-131513312D02*
X22119942Y-131513312D01*
X22119942Y-131513312D02*
X22215180Y-131465693D01*
X22215180Y-131465693D02*
X22262800Y-131418074D01*
X22262800Y-131418074D02*
X22310419Y-131322836D01*
X22310419Y-131322836D02*
X22310419Y-131132360D01*
X22310419Y-131132360D02*
X22262800Y-131037122D01*
X22262800Y-131037122D02*
X22215180Y-130989503D01*
X22215180Y-130989503D02*
X22119942Y-130941884D01*
X22119942Y-130941884D02*
X21310419Y-130941884D01*
X21310419Y-130608550D02*
X21310419Y-130037122D01*
X22310419Y-130322836D02*
X21310419Y-130322836D01*
D11*
X66078522Y-132903820D02*
X66940308Y-132903820D01*
X66940308Y-132903820D02*
X67112665Y-132961273D01*
X67112665Y-132961273D02*
X67227570Y-133076177D01*
X67227570Y-133076177D02*
X67285022Y-133248535D01*
X67285022Y-133248535D02*
X67285022Y-133363439D01*
X67285022Y-131697320D02*
X67285022Y-132386749D01*
X67285022Y-132042035D02*
X66078522Y-132042035D01*
X66078522Y-132042035D02*
X66250879Y-132156939D01*
X66250879Y-132156939D02*
X66365784Y-132271844D01*
X66365784Y-132271844D02*
X66423236Y-132386749D01*
X66078522Y-130950439D02*
X66078522Y-130835534D01*
X66078522Y-130835534D02*
X66135974Y-130720630D01*
X66135974Y-130720630D02*
X66193427Y-130663177D01*
X66193427Y-130663177D02*
X66308331Y-130605725D01*
X66308331Y-130605725D02*
X66538141Y-130548272D01*
X66538141Y-130548272D02*
X66825403Y-130548272D01*
X66825403Y-130548272D02*
X67055212Y-130605725D01*
X67055212Y-130605725D02*
X67170117Y-130663177D01*
X67170117Y-130663177D02*
X67227570Y-130720630D01*
X67227570Y-130720630D02*
X67285022Y-130835534D01*
X67285022Y-130835534D02*
X67285022Y-130950439D01*
X67285022Y-130950439D02*
X67227570Y-131065344D01*
X67227570Y-131065344D02*
X67170117Y-131122796D01*
X67170117Y-131122796D02*
X67055212Y-131180249D01*
X67055212Y-131180249D02*
X66825403Y-131237701D01*
X66825403Y-131237701D02*
X66538141Y-131237701D01*
X66538141Y-131237701D02*
X66308331Y-131180249D01*
X66308331Y-131180249D02*
X66193427Y-131122796D01*
X66193427Y-131122796D02*
X66135974Y-131065344D01*
X66135974Y-131065344D02*
X66078522Y-130950439D01*
D10*
X58262800Y-135846645D02*
X58310419Y-135703788D01*
X58310419Y-135703788D02*
X58310419Y-135465693D01*
X58310419Y-135465693D02*
X58262800Y-135370455D01*
X58262800Y-135370455D02*
X58215180Y-135322836D01*
X58215180Y-135322836D02*
X58119942Y-135275217D01*
X58119942Y-135275217D02*
X58024704Y-135275217D01*
X58024704Y-135275217D02*
X57929466Y-135322836D01*
X57929466Y-135322836D02*
X57881847Y-135370455D01*
X57881847Y-135370455D02*
X57834228Y-135465693D01*
X57834228Y-135465693D02*
X57786609Y-135656169D01*
X57786609Y-135656169D02*
X57738990Y-135751407D01*
X57738990Y-135751407D02*
X57691371Y-135799026D01*
X57691371Y-135799026D02*
X57596133Y-135846645D01*
X57596133Y-135846645D02*
X57500895Y-135846645D01*
X57500895Y-135846645D02*
X57405657Y-135799026D01*
X57405657Y-135799026D02*
X57358038Y-135751407D01*
X57358038Y-135751407D02*
X57310419Y-135656169D01*
X57310419Y-135656169D02*
X57310419Y-135418074D01*
X57310419Y-135418074D02*
X57358038Y-135275217D01*
X58310419Y-134846645D02*
X57310419Y-134846645D01*
X58310419Y-134370455D02*
X57310419Y-134370455D01*
X57310419Y-134370455D02*
X58310419Y-133799027D01*
X58310419Y-133799027D02*
X57310419Y-133799027D01*
X58405657Y-133560932D02*
X58405657Y-132799027D01*
X57310419Y-132370455D02*
X57310419Y-132179979D01*
X57310419Y-132179979D02*
X57358038Y-132084741D01*
X57358038Y-132084741D02*
X57453276Y-131989503D01*
X57453276Y-131989503D02*
X57643752Y-131941884D01*
X57643752Y-131941884D02*
X57977085Y-131941884D01*
X57977085Y-131941884D02*
X58167561Y-131989503D01*
X58167561Y-131989503D02*
X58262800Y-132084741D01*
X58262800Y-132084741D02*
X58310419Y-132179979D01*
X58310419Y-132179979D02*
X58310419Y-132370455D01*
X58310419Y-132370455D02*
X58262800Y-132465693D01*
X58262800Y-132465693D02*
X58167561Y-132560931D01*
X58167561Y-132560931D02*
X57977085Y-132608550D01*
X57977085Y-132608550D02*
X57643752Y-132608550D01*
X57643752Y-132608550D02*
X57453276Y-132560931D01*
X57453276Y-132560931D02*
X57358038Y-132465693D01*
X57358038Y-132465693D02*
X57310419Y-132370455D01*
X57310419Y-131513312D02*
X58119942Y-131513312D01*
X58119942Y-131513312D02*
X58215180Y-131465693D01*
X58215180Y-131465693D02*
X58262800Y-131418074D01*
X58262800Y-131418074D02*
X58310419Y-131322836D01*
X58310419Y-131322836D02*
X58310419Y-131132360D01*
X58310419Y-131132360D02*
X58262800Y-131037122D01*
X58262800Y-131037122D02*
X58215180Y-130989503D01*
X58215180Y-130989503D02*
X58119942Y-130941884D01*
X58119942Y-130941884D02*
X57310419Y-130941884D01*
X57310419Y-130608550D02*
X57310419Y-130037122D01*
X58310419Y-130322836D02*
X57310419Y-130322836D01*
D11*
X30285522Y-103754772D02*
X31147308Y-103754772D01*
X31147308Y-103754772D02*
X31319665Y-103812225D01*
X31319665Y-103812225D02*
X31434570Y-103927129D01*
X31434570Y-103927129D02*
X31492022Y-104099487D01*
X31492022Y-104099487D02*
X31492022Y-104214391D01*
X31492022Y-102548272D02*
X31492022Y-103237701D01*
X31492022Y-102892987D02*
X30285522Y-102892987D01*
X30285522Y-102892987D02*
X30457879Y-103007891D01*
X30457879Y-103007891D02*
X30572784Y-103122796D01*
X30572784Y-103122796D02*
X30630236Y-103237701D01*
D10*
X22517419Y-108513313D02*
X22517419Y-109084741D01*
X22517419Y-108799027D02*
X21517419Y-108799027D01*
X21517419Y-108799027D02*
X21660276Y-108894265D01*
X21660276Y-108894265D02*
X21755514Y-108989503D01*
X21755514Y-108989503D02*
X21803133Y-109084741D01*
X21517419Y-108227598D02*
X22517419Y-107894265D01*
X22517419Y-107894265D02*
X21517419Y-107560932D01*
X21469800Y-106513313D02*
X22755514Y-107370455D01*
X22517419Y-106037122D02*
X22469800Y-106132360D01*
X22469800Y-106132360D02*
X22422180Y-106179979D01*
X22422180Y-106179979D02*
X22326942Y-106227598D01*
X22326942Y-106227598D02*
X22041228Y-106227598D01*
X22041228Y-106227598D02*
X21945990Y-106179979D01*
X21945990Y-106179979D02*
X21898371Y-106132360D01*
X21898371Y-106132360D02*
X21850752Y-106037122D01*
X21850752Y-106037122D02*
X21850752Y-105894265D01*
X21850752Y-105894265D02*
X21898371Y-105799027D01*
X21898371Y-105799027D02*
X21945990Y-105751408D01*
X21945990Y-105751408D02*
X22041228Y-105703789D01*
X22041228Y-105703789D02*
X22326942Y-105703789D01*
X22326942Y-105703789D02*
X22422180Y-105751408D01*
X22422180Y-105751408D02*
X22469800Y-105799027D01*
X22469800Y-105799027D02*
X22517419Y-105894265D01*
X22517419Y-105894265D02*
X22517419Y-106037122D01*
X22469800Y-104846646D02*
X22517419Y-104941884D01*
X22517419Y-104941884D02*
X22517419Y-105132360D01*
X22517419Y-105132360D02*
X22469800Y-105227598D01*
X22469800Y-105227598D02*
X22422180Y-105275217D01*
X22422180Y-105275217D02*
X22326942Y-105322836D01*
X22326942Y-105322836D02*
X22041228Y-105322836D01*
X22041228Y-105322836D02*
X21945990Y-105275217D01*
X21945990Y-105275217D02*
X21898371Y-105227598D01*
X21898371Y-105227598D02*
X21850752Y-105132360D01*
X21850752Y-105132360D02*
X21850752Y-104941884D01*
X21850752Y-104941884D02*
X21898371Y-104846646D01*
X21850752Y-104560931D02*
X21850752Y-104179979D01*
X21517419Y-104418074D02*
X22374561Y-104418074D01*
X22374561Y-104418074D02*
X22469800Y-104370455D01*
X22469800Y-104370455D02*
X22517419Y-104275217D01*
X22517419Y-104275217D02*
X22517419Y-104179979D01*
X22517419Y-103084740D02*
X21850752Y-103084740D01*
X21517419Y-103084740D02*
X21565038Y-103132359D01*
X21565038Y-103132359D02*
X21612657Y-103084740D01*
X21612657Y-103084740D02*
X21565038Y-103037121D01*
X21565038Y-103037121D02*
X21517419Y-103084740D01*
X21517419Y-103084740D02*
X21612657Y-103084740D01*
X21850752Y-102608550D02*
X22517419Y-102608550D01*
X21945990Y-102608550D02*
X21898371Y-102560931D01*
X21898371Y-102560931D02*
X21850752Y-102465693D01*
X21850752Y-102465693D02*
X21850752Y-102322836D01*
X21850752Y-102322836D02*
X21898371Y-102227598D01*
X21898371Y-102227598D02*
X21993609Y-102179979D01*
X21993609Y-102179979D02*
X22517419Y-102179979D01*
X22678695Y-61443019D02*
X22678695Y-62252542D01*
X22678695Y-62252542D02*
X22726314Y-62347780D01*
X22726314Y-62347780D02*
X22773933Y-62395400D01*
X22773933Y-62395400D02*
X22869171Y-62443019D01*
X22869171Y-62443019D02*
X23059647Y-62443019D01*
X23059647Y-62443019D02*
X23154885Y-62395400D01*
X23154885Y-62395400D02*
X23202504Y-62347780D01*
X23202504Y-62347780D02*
X23250123Y-62252542D01*
X23250123Y-62252542D02*
X23250123Y-61443019D01*
X23678695Y-61538257D02*
X23726314Y-61490638D01*
X23726314Y-61490638D02*
X23821552Y-61443019D01*
X23821552Y-61443019D02*
X24059647Y-61443019D01*
X24059647Y-61443019D02*
X24154885Y-61490638D01*
X24154885Y-61490638D02*
X24202504Y-61538257D01*
X24202504Y-61538257D02*
X24250123Y-61633495D01*
X24250123Y-61633495D02*
X24250123Y-61728733D01*
X24250123Y-61728733D02*
X24202504Y-61871590D01*
X24202504Y-61871590D02*
X23631076Y-62443019D01*
X23631076Y-62443019D02*
X24250123Y-62443019D01*
D13*
%TO.C,C10*%
X29705600Y-56456948D02*
X29705600Y-56979452D01*
X31175600Y-56456948D02*
X31175600Y-56979452D01*
D14*
%TO.C,J9*%
X47202600Y-130046000D02*
X47202600Y-140714000D01*
X47202600Y-140714000D02*
X56092600Y-140714000D01*
X56092600Y-130046000D02*
X47202600Y-130046000D01*
X56092600Y-140714000D02*
X56092600Y-130046000D01*
D12*
X53222400Y-136205500D02*
G75*
G02*
X50072800Y-136205500I-1574800J0D01*
G01*
X50072800Y-136205500D02*
G75*
G02*
X53222400Y-136205500I1574800J0D01*
G01*
X53933600Y-136205500D02*
G75*
G02*
X49361600Y-136205500I-2286000J0D01*
G01*
X49361600Y-136205500D02*
G75*
G02*
X53933600Y-136205500I2286000J0D01*
G01*
D13*
%TO.C,RV8*%
X57027600Y-88338200D02*
X61747600Y-88338200D01*
X57027600Y-89528200D02*
X57027600Y-88348200D01*
X57027600Y-92428200D02*
X57027600Y-91898200D01*
X57027600Y-94878200D02*
X57027600Y-94048200D01*
X57027600Y-98088200D02*
X57027600Y-96598200D01*
X57027600Y-98088200D02*
X61747600Y-98088200D01*
X65557600Y-88348200D02*
X68617600Y-88348200D01*
X65557600Y-98088200D02*
X68617600Y-98088200D01*
X68617600Y-98088200D02*
X68617600Y-88348200D01*
%TO.C,C8*%
X28348848Y-92483200D02*
X28871352Y-92483200D01*
X28348848Y-93953200D02*
X28871352Y-93953200D01*
%TO.C,RV7*%
X33027600Y-88338200D02*
X37747600Y-88338200D01*
X33027600Y-89528200D02*
X33027600Y-88348200D01*
X33027600Y-92428200D02*
X33027600Y-91898200D01*
X33027600Y-94878200D02*
X33027600Y-94048200D01*
X33027600Y-98088200D02*
X33027600Y-96598200D01*
X33027600Y-98088200D02*
X37747600Y-98088200D01*
X41557600Y-88348200D02*
X44617600Y-88348200D01*
X41557600Y-98088200D02*
X44617600Y-98088200D01*
X44617600Y-98088200D02*
X44617600Y-88348200D01*
%TO.C,RV3*%
X45027600Y-70338200D02*
X49747600Y-70338200D01*
X45027600Y-71528200D02*
X45027600Y-70348200D01*
X45027600Y-74428200D02*
X45027600Y-73898200D01*
X45027600Y-76878200D02*
X45027600Y-76048200D01*
X45027600Y-80088200D02*
X45027600Y-78598200D01*
X45027600Y-80088200D02*
X49747600Y-80088200D01*
X53557600Y-70348200D02*
X56617600Y-70348200D01*
X53557600Y-80088200D02*
X56617600Y-80088200D01*
X56617600Y-80088200D02*
X56617600Y-70348200D01*
%TO.C,R25*%
X40205600Y-36491136D02*
X40205600Y-36945264D01*
X41675600Y-36491136D02*
X41675600Y-36945264D01*
D14*
%TO.C,J4*%
X35202600Y-116046000D02*
X35202600Y-126714000D01*
X35202600Y-126714000D02*
X44092600Y-126714000D01*
X44092600Y-116046000D02*
X35202600Y-116046000D01*
X44092600Y-126714000D02*
X44092600Y-116046000D01*
D12*
X41222400Y-122205500D02*
G75*
G02*
X38072800Y-122205500I-1574800J0D01*
G01*
X38072800Y-122205500D02*
G75*
G02*
X41222400Y-122205500I1574800J0D01*
G01*
X41933600Y-122205500D02*
G75*
G02*
X37361600Y-122205500I-2286000J0D01*
G01*
X37361600Y-122205500D02*
G75*
G02*
X41933600Y-122205500I2286000J0D01*
G01*
D13*
%TO.C,C11*%
X32205600Y-61016952D02*
X32205600Y-60494448D01*
X33675600Y-61016952D02*
X33675600Y-60494448D01*
%TO.C,RV9*%
X52820600Y-39338200D02*
X57540600Y-39338200D01*
X52820600Y-40528200D02*
X52820600Y-39348200D01*
X52820600Y-43428200D02*
X52820600Y-42898200D01*
X52820600Y-45878200D02*
X52820600Y-45048200D01*
X52820600Y-49088200D02*
X52820600Y-47598200D01*
X52820600Y-49088200D02*
X57540600Y-49088200D01*
X61350600Y-39348200D02*
X64410600Y-39348200D01*
X61350600Y-49088200D02*
X64410600Y-49088200D01*
X64410600Y-49088200D02*
X64410600Y-39348200D01*
%TO.C,D2*%
X45905600Y-35368200D02*
X43245600Y-35368200D01*
X45905600Y-37068200D02*
X43245600Y-37068200D01*
X45905600Y-37068200D02*
X45905600Y-35368200D01*
%TO.C,RV5*%
X24027600Y-68338200D02*
X28747600Y-68338200D01*
X24027600Y-69528200D02*
X24027600Y-68348200D01*
X24027600Y-72428200D02*
X24027600Y-71898200D01*
X24027600Y-74878200D02*
X24027600Y-74048200D01*
X24027600Y-78088200D02*
X24027600Y-76598200D01*
X24027600Y-78088200D02*
X28747600Y-78088200D01*
X32557600Y-68348200D02*
X35617600Y-68348200D01*
X32557600Y-78088200D02*
X35617600Y-78088200D01*
X35617600Y-78088200D02*
X35617600Y-68348200D01*
D12*
%TO.C,SW2*%
X49137600Y-112964200D02*
X49137600Y-105372200D01*
X49501600Y-105118200D02*
X53993600Y-105118200D01*
X53793600Y-113318200D02*
X49301600Y-113318200D01*
X54157600Y-105372200D02*
X54157600Y-112864200D01*
X49137600Y-105372200D02*
G75*
G02*
X49501601Y-105118199I308931J-54900D01*
G01*
X49301600Y-113318199D02*
G75*
G02*
X49137600Y-112964200I94900J258953D01*
G01*
X53993600Y-105118201D02*
G75*
G02*
X54157599Y-105372200I-45000J-208999D01*
G01*
X54157600Y-112864200D02*
G75*
G02*
X53793600Y-113318200I-409000J-45000D01*
G01*
X54017600Y-109218200D02*
G75*
G02*
X49277600Y-109218200I-2370000J0D01*
G01*
X49277600Y-109218200D02*
G75*
G02*
X54017600Y-109218200I2370000J0D01*
G01*
D13*
%TO.C,C13*%
X40141848Y-65983200D02*
X40664352Y-65983200D01*
X40141848Y-67453200D02*
X40664352Y-67453200D01*
%TO.C,R23*%
X26667664Y-61983200D02*
X26213536Y-61983200D01*
X26667664Y-63453200D02*
X26213536Y-63453200D01*
%TO.C,R22*%
X29705600Y-60945264D02*
X29705600Y-60491136D01*
X31175600Y-60945264D02*
X31175600Y-60491136D01*
D14*
%TO.C,J5*%
X47202600Y-116046000D02*
X47202600Y-126714000D01*
X47202600Y-126714000D02*
X56092600Y-126714000D01*
X56092600Y-116046000D02*
X47202600Y-116046000D01*
X56092600Y-126714000D02*
X56092600Y-116046000D01*
D12*
X53222400Y-122205500D02*
G75*
G02*
X50072800Y-122205500I-1574800J0D01*
G01*
X50072800Y-122205500D02*
G75*
G02*
X53222400Y-122205500I1574800J0D01*
G01*
X53933600Y-122205500D02*
G75*
G02*
X49361600Y-122205500I-2286000J0D01*
G01*
X49361600Y-122205500D02*
G75*
G02*
X53933600Y-122205500I2286000J0D01*
G01*
D13*
%TO.C,R19*%
X43705600Y-65991136D02*
X43705600Y-66445264D01*
X45175600Y-65991136D02*
X45175600Y-66445264D01*
%TO.C,R24*%
X40205600Y-54445264D02*
X40205600Y-53991136D01*
X41675600Y-54445264D02*
X41675600Y-53991136D01*
%TO.C,C9*%
X54668100Y-111979452D02*
X54668100Y-111456948D01*
X56138100Y-111979452D02*
X56138100Y-111456948D01*
D14*
%TO.C,J3*%
X59202600Y-116046000D02*
X59202600Y-126714000D01*
X59202600Y-126714000D02*
X68092600Y-126714000D01*
X68092600Y-116046000D02*
X59202600Y-116046000D01*
X68092600Y-126714000D02*
X68092600Y-116046000D01*
D12*
X65222400Y-122205500D02*
G75*
G02*
X62072800Y-122205500I-1574800J0D01*
G01*
X62072800Y-122205500D02*
G75*
G02*
X65222400Y-122205500I1574800J0D01*
G01*
X65933600Y-122205500D02*
G75*
G02*
X61361600Y-122205500I-2286000J0D01*
G01*
X61361600Y-122205500D02*
G75*
G02*
X65933600Y-122205500I2286000J0D01*
G01*
D13*
%TO.C,R7*%
X64205600Y-61491136D02*
X64205600Y-61945264D01*
X65675600Y-61491136D02*
X65675600Y-61945264D01*
%TO.C,R5*%
X64205600Y-55445264D02*
X64205600Y-54991136D01*
X65675600Y-55445264D02*
X65675600Y-54991136D01*
%TO.C,R15*%
X28705600Y-88945264D02*
X28705600Y-88491136D01*
X30175600Y-88945264D02*
X30175600Y-88491136D01*
%TO.C,RV2*%
X24820600Y-39338200D02*
X29540600Y-39338200D01*
X24820600Y-40528200D02*
X24820600Y-39348200D01*
X24820600Y-43428200D02*
X24820600Y-42898200D01*
X24820600Y-45878200D02*
X24820600Y-45048200D01*
X24820600Y-49088200D02*
X24820600Y-47598200D01*
X24820600Y-49088200D02*
X29540600Y-49088200D01*
X33350600Y-39348200D02*
X36410600Y-39348200D01*
X33350600Y-49088200D02*
X36410600Y-49088200D01*
X36410600Y-49088200D02*
X36410600Y-39348200D01*
%TO.C,U3*%
X36753600Y-72618200D02*
X36753600Y-69918200D01*
X37953600Y-72618200D02*
X36753600Y-72618200D01*
X41553600Y-68618200D02*
X41553600Y-72618200D01*
X41553600Y-72618200D02*
X40353600Y-72618200D01*
D14*
%TO.C,J8*%
X35202600Y-130046000D02*
X35202600Y-140714000D01*
X35202600Y-140714000D02*
X44092600Y-140714000D01*
X44092600Y-130046000D02*
X35202600Y-130046000D01*
X44092600Y-140714000D02*
X44092600Y-130046000D01*
D12*
X41222400Y-136205500D02*
G75*
G02*
X38072800Y-136205500I-1574800J0D01*
G01*
X38072800Y-136205500D02*
G75*
G02*
X41222400Y-136205500I1574800J0D01*
G01*
X41933600Y-136205500D02*
G75*
G02*
X37361600Y-136205500I-2286000J0D01*
G01*
X37361600Y-136205500D02*
G75*
G02*
X41933600Y-136205500I2286000J0D01*
G01*
D13*
%TO.C,D1*%
X42230600Y-53368200D02*
X42230600Y-55068200D01*
X42230600Y-53368200D02*
X44890600Y-53368200D01*
X42230600Y-55068200D02*
X44890600Y-55068200D01*
D14*
%TO.C,J2*%
X23202600Y-116046000D02*
X23202600Y-126714000D01*
X23202600Y-126714000D02*
X32092600Y-126714000D01*
X32092600Y-116046000D02*
X23202600Y-116046000D01*
X32092600Y-126714000D02*
X32092600Y-116046000D01*
D12*
X29222400Y-122205500D02*
G75*
G02*
X26072800Y-122205500I-1574800J0D01*
G01*
X26072800Y-122205500D02*
G75*
G02*
X29222400Y-122205500I1574800J0D01*
G01*
X29933600Y-122205500D02*
G75*
G02*
X25361600Y-122205500I-2286000J0D01*
G01*
X25361600Y-122205500D02*
G75*
G02*
X29933600Y-122205500I2286000J0D01*
G01*
%TO.C,SW1*%
X61137600Y-112964200D02*
X61137600Y-105372200D01*
X61501600Y-105118200D02*
X65993600Y-105118200D01*
X65793600Y-113318200D02*
X61301600Y-113318200D01*
X66157600Y-105372200D02*
X66157600Y-112864200D01*
X61137600Y-105372200D02*
G75*
G02*
X61501601Y-105118199I308931J-54900D01*
G01*
X61301600Y-113318199D02*
G75*
G02*
X61137600Y-112964200I94900J258953D01*
G01*
X65993600Y-105118201D02*
G75*
G02*
X66157599Y-105372200I-45000J-208999D01*
G01*
X66157600Y-112864200D02*
G75*
G02*
X65793600Y-113318200I-409000J-45000D01*
G01*
X66017600Y-109218200D02*
G75*
G02*
X61277600Y-109218200I-2370000J0D01*
G01*
X61277600Y-109218200D02*
G75*
G02*
X66017600Y-109218200I2370000J0D01*
G01*
D14*
%TO.C,J7*%
X22995600Y-130046000D02*
X22995600Y-140714000D01*
X22995600Y-140714000D02*
X31885600Y-140714000D01*
X31885600Y-130046000D02*
X22995600Y-130046000D01*
X31885600Y-140714000D02*
X31885600Y-130046000D01*
D12*
X29015400Y-136205500D02*
G75*
G02*
X25865800Y-136205500I-1574800J0D01*
G01*
X25865800Y-136205500D02*
G75*
G02*
X29015400Y-136205500I1574800J0D01*
G01*
X29726600Y-136205500D02*
G75*
G02*
X25154600Y-136205500I-2286000J0D01*
G01*
X25154600Y-136205500D02*
G75*
G02*
X29726600Y-136205500I2286000J0D01*
G01*
D14*
%TO.C,J10*%
X59202600Y-130046000D02*
X59202600Y-140714000D01*
X59202600Y-140714000D02*
X68092600Y-140714000D01*
X68092600Y-130046000D02*
X59202600Y-130046000D01*
X68092600Y-140714000D02*
X68092600Y-130046000D01*
D12*
X65222400Y-136205500D02*
G75*
G02*
X62072800Y-136205500I-1574800J0D01*
G01*
X62072800Y-136205500D02*
G75*
G02*
X65222400Y-136205500I1574800J0D01*
G01*
X65933600Y-136205500D02*
G75*
G02*
X61361600Y-136205500I-2286000J0D01*
G01*
X61361600Y-136205500D02*
G75*
G02*
X65933600Y-136205500I2286000J0D01*
G01*
D14*
%TO.C,J1*%
X23202600Y-102046000D02*
X23202600Y-112714000D01*
X23202600Y-112714000D02*
X32092600Y-112714000D01*
X32092600Y-102046000D02*
X23202600Y-102046000D01*
X32092600Y-112714000D02*
X32092600Y-102046000D01*
D12*
X29222400Y-108205500D02*
G75*
G02*
X26072800Y-108205500I-1574800J0D01*
G01*
X26072800Y-108205500D02*
G75*
G02*
X29222400Y-108205500I1574800J0D01*
G01*
X29933600Y-108205500D02*
G75*
G02*
X25361600Y-108205500I-2286000J0D01*
G01*
X25361600Y-108205500D02*
G75*
G02*
X29933600Y-108205500I2286000J0D01*
G01*
D13*
%TO.C,U2*%
X24940600Y-56028200D02*
X22990600Y-56028200D01*
X24940600Y-56028200D02*
X26890600Y-56028200D01*
X24940600Y-61148200D02*
X22990600Y-61148200D01*
X24940600Y-61148200D02*
X26890600Y-61148200D01*
X27880600Y-61383200D02*
X27400600Y-61383200D01*
X27640600Y-61053200D01*
X27880600Y-61383200D01*
G36*
X27880600Y-61383200D02*
G01*
X27400600Y-61383200D01*
X27640600Y-61053200D01*
X27880600Y-61383200D01*
G37*
%TD*%
M02*
