%TF.GenerationSoftware,KiCad,Pcbnew,8.0.0*%
%TF.CreationDate,2024-05-14T21:41:44+02:00*%
%TF.ProjectId,VCO-3340,56434f2d-3333-4343-902e-6b696361645f,rev?*%
%TF.SameCoordinates,Original*%
%TF.FileFunction,Soldermask,Top*%
%TF.FilePolarity,Negative*%
%FSLAX46Y46*%
G04 Gerber Fmt 4.6, Leading zero omitted, Abs format (unit mm)*
G04 Created by KiCad (PCBNEW 8.0.0) date 2024-05-14 21:41:44*
%MOMM*%
%LPD*%
G01*
G04 APERTURE LIST*
G04 Aperture macros list*
%AMRoundRect*
0 Rectangle with rounded corners*
0 $1 Rounding radius*
0 $2 $3 $4 $5 $6 $7 $8 $9 X,Y pos of 4 corners*
0 Add a 4 corners polygon primitive as box body*
4,1,4,$2,$3,$4,$5,$6,$7,$8,$9,$2,$3,0*
0 Add four circle primitives for the rounded corners*
1,1,$1+$1,$2,$3*
1,1,$1+$1,$4,$5*
1,1,$1+$1,$6,$7*
1,1,$1+$1,$8,$9*
0 Add four rect primitives between the rounded corners*
20,1,$1+$1,$2,$3,$4,$5,0*
20,1,$1+$1,$4,$5,$6,$7,0*
20,1,$1+$1,$6,$7,$8,$9,0*
20,1,$1+$1,$8,$9,$2,$3,0*%
%AMOutline4P*
0 Free polygon, 4 corners , with rotation*
0 The origin of the aperture is its center*
0 number of corners: always 4*
0 $1 to $8 corner X, Y*
0 $9 Rotation angle, in degrees counterclockwise*
0 create outline with 4 corners*
4,1,4,$1,$2,$3,$4,$5,$6,$7,$8,$1,$2,$9*%
G04 Aperture macros list end*
%ADD10RoundRect,0.250000X-0.475000X0.337500X-0.475000X-0.337500X0.475000X-0.337500X0.475000X0.337500X0*%
%ADD11C,1.930400*%
%ADD12O,3.240000X2.720000*%
%ADD13R,1.800000X1.800000*%
%ADD14C,1.800000*%
%ADD15RoundRect,0.250000X-0.337500X-0.475000X0.337500X-0.475000X0.337500X0.475000X-0.337500X0.475000X0*%
%ADD16RoundRect,0.250000X-0.450000X0.350000X-0.450000X-0.350000X0.450000X-0.350000X0.450000X0.350000X0*%
%ADD17RoundRect,0.250000X0.475000X-0.337500X0.475000X0.337500X-0.475000X0.337500X-0.475000X-0.337500X0*%
%ADD18RoundRect,0.125000X0.125000X0.125000X-0.125000X0.125000X-0.125000X-0.125000X0.125000X-0.125000X0*%
%ADD19C,1.651000*%
%ADD20RoundRect,0.250000X0.350000X0.450000X-0.350000X0.450000X-0.350000X-0.450000X0.350000X-0.450000X0*%
%ADD21RoundRect,0.250000X0.450000X-0.350000X0.450000X0.350000X-0.450000X0.350000X-0.450000X-0.350000X0*%
%ADD22R,1.000000X1.500000*%
%ADD23R,1.000000X1.800000*%
%ADD24Outline4P,-1.100000X-0.500000X1.100000X-0.500000X0.400000X0.500000X-0.400000X0.500000X0.000000*%
%ADD25R,2.200000X1.840000*%
%ADD26Outline4P,-1.100000X-0.425000X1.100000X-0.425000X0.500000X0.425000X-0.500000X0.425000X180.000000*%
%ADD27RoundRect,0.125000X-0.125000X-0.125000X0.125000X-0.125000X0.125000X0.125000X-0.125000X0.125000X0*%
%ADD28RoundRect,0.150000X0.725000X0.150000X-0.725000X0.150000X-0.725000X-0.150000X0.725000X-0.150000X0*%
%ADD29R,1.200000X1.200000*%
%ADD30C,1.200000*%
%ADD31R,1.700000X1.700000*%
%ADD32O,1.700000X1.700000*%
%ADD33C,1.440000*%
G04 APERTURE END LIST*
D10*
%TO.C,C10*%
X30440600Y-55680700D03*
X30440600Y-57755700D03*
%TD*%
D11*
%TO.C,J9*%
X51647600Y-141984000D03*
X51647600Y-131011200D03*
X51647600Y-139571000D03*
%TD*%
D12*
%TO.C,RV8*%
X63647600Y-88418200D03*
X63647600Y-98018200D03*
D13*
X56147600Y-90718200D03*
D14*
X56147600Y-93218200D03*
X56147600Y-95718200D03*
%TD*%
D15*
%TO.C,C8*%
X27572600Y-93218200D03*
X29647600Y-93218200D03*
%TD*%
D12*
%TO.C,RV7*%
X39647600Y-88418200D03*
X39647600Y-98018200D03*
D13*
X32147600Y-90718200D03*
D14*
X32147600Y-93218200D03*
X32147600Y-95718200D03*
%TD*%
D12*
%TO.C,RV3*%
X51647600Y-70418200D03*
X51647600Y-80018200D03*
D13*
X44147600Y-72718200D03*
D14*
X44147600Y-75218200D03*
X44147600Y-77718200D03*
%TD*%
D16*
%TO.C,R25*%
X40940600Y-35718200D03*
X40940600Y-37718200D03*
%TD*%
D11*
%TO.C,J4*%
X39647600Y-127984000D03*
X39647600Y-117011200D03*
X39647600Y-125571000D03*
%TD*%
D17*
%TO.C,C11*%
X32940600Y-61793200D03*
X32940600Y-59718200D03*
%TD*%
D12*
%TO.C,RV9*%
X59440600Y-39418200D03*
X59440600Y-49018200D03*
D13*
X51940600Y-41718200D03*
D14*
X51940600Y-44218200D03*
X51940600Y-46718200D03*
%TD*%
D18*
%TO.C,D2*%
X45395600Y-36218200D03*
X43195600Y-36218200D03*
%TD*%
D12*
%TO.C,RV5*%
X30647600Y-68418200D03*
X30647600Y-78018200D03*
D13*
X23147600Y-70718200D03*
D14*
X23147600Y-73218200D03*
X23147600Y-75718200D03*
%TD*%
D19*
%TO.C,SW2*%
X51647600Y-106678200D03*
X51647600Y-109218200D03*
X51647600Y-111758200D03*
%TD*%
D15*
%TO.C,C13*%
X39365600Y-66718200D03*
X41440600Y-66718200D03*
%TD*%
D20*
%TO.C,R23*%
X27440600Y-62718200D03*
X25440600Y-62718200D03*
%TD*%
D21*
%TO.C,R22*%
X30440600Y-61718200D03*
X30440600Y-59718200D03*
%TD*%
D11*
%TO.C,J5*%
X51647600Y-127984000D03*
X51647600Y-117011200D03*
X51647600Y-125571000D03*
%TD*%
D16*
%TO.C,R19*%
X44440600Y-65218200D03*
X44440600Y-67218200D03*
%TD*%
D21*
%TO.C,R24*%
X40940600Y-55218200D03*
X40940600Y-53218200D03*
%TD*%
D17*
%TO.C,C9*%
X55403100Y-112755700D03*
X55403100Y-110680700D03*
%TD*%
D11*
%TO.C,J3*%
X63647600Y-127984000D03*
X63647600Y-117011200D03*
X63647600Y-125571000D03*
%TD*%
D16*
%TO.C,R7*%
X64940600Y-60718200D03*
X64940600Y-62718200D03*
%TD*%
D21*
%TO.C,R5*%
X64940600Y-56218200D03*
X64940600Y-54218200D03*
%TD*%
%TO.C,R15*%
X29440600Y-89718200D03*
X29440600Y-87718200D03*
%TD*%
D12*
%TO.C,RV2*%
X31440600Y-39418200D03*
X31440600Y-49018200D03*
D13*
X23940600Y-41718200D03*
D14*
X23940600Y-44218200D03*
X23940600Y-46718200D03*
%TD*%
D22*
%TO.C,U3*%
X40653600Y-69358200D03*
D23*
X39153600Y-69504700D03*
D24*
X39153600Y-70762000D03*
D25*
X39153600Y-72171700D03*
D26*
X39153600Y-73505200D03*
D22*
X37653600Y-69358200D03*
%TD*%
D11*
%TO.C,J8*%
X39647600Y-141984000D03*
X39647600Y-131011200D03*
X39647600Y-139571000D03*
%TD*%
D27*
%TO.C,D1*%
X42740600Y-54218200D03*
X44940600Y-54218200D03*
%TD*%
D11*
%TO.C,J2*%
X27647600Y-127984000D03*
X27647600Y-117011200D03*
X27647600Y-125571000D03*
%TD*%
D19*
%TO.C,SW1*%
X63647600Y-106678200D03*
X63647600Y-109218200D03*
X63647600Y-111758200D03*
%TD*%
D11*
%TO.C,J7*%
X27440600Y-141984000D03*
X27440600Y-131011200D03*
X27440600Y-139571000D03*
%TD*%
%TO.C,J10*%
X63647600Y-141984000D03*
X63647600Y-131011200D03*
X63647600Y-139571000D03*
%TD*%
%TO.C,J1*%
X27647600Y-113984000D03*
X27647600Y-103011200D03*
X27647600Y-111571000D03*
%TD*%
D28*
%TO.C,U2*%
X27515600Y-60493200D03*
X27515600Y-59223200D03*
X27515600Y-57953200D03*
X27515600Y-56683200D03*
X22365600Y-56683200D03*
X22365600Y-57953200D03*
X22365600Y-59223200D03*
X22365600Y-60493200D03*
%TD*%
D29*
%TO.C,C12*%
X24913200Y-54718200D03*
D30*
X22913200Y-54718200D03*
%TD*%
D31*
%TO.C,J6*%
X42700600Y-50378200D03*
D32*
X45240600Y-50378200D03*
X42700600Y-47838200D03*
X45240600Y-47838200D03*
X42700600Y-45298200D03*
X45240600Y-45298200D03*
X42700600Y-42758200D03*
X45240600Y-42758200D03*
X42700600Y-40218200D03*
X45240600Y-40218200D03*
%TD*%
D33*
%TO.C,RV4*%
X61900600Y-64878200D03*
X64440600Y-67418200D03*
X66980600Y-64878200D03*
%TD*%
D29*
%TO.C,C15*%
X35468000Y-36718200D03*
D30*
X37468000Y-36718200D03*
%TD*%
D33*
%TO.C,RV6*%
X61900600Y-70678200D03*
X64440600Y-73218200D03*
X66980600Y-70678200D03*
%TD*%
D29*
%TO.C,C6*%
X54940600Y-51745600D03*
D30*
X54940600Y-53745600D03*
%TD*%
D33*
%TO.C,RV10*%
X61900600Y-76678200D03*
X64440600Y-79218200D03*
X66980600Y-76678200D03*
%TD*%
D29*
%TO.C,C14*%
X36740600Y-55190800D03*
D30*
X36740600Y-53190800D03*
%TD*%
M02*
