M48
; DRILL file {KiCad 8.0.0} date 2024-05-14T17:12:14+0200
; FORMAT={-:-/ absolute / metric / decimal}
; #@! TF.CreationDate,2024-05-14T17:12:14+02:00
; #@! TF.GenerationSoftware,Kicad,Pcbnew,8.0.0
; #@! TF.FileFunction,Plated,1,2,PTH
FMAT,2
METRIC
; #@! TA.AperFunction,Plated,PTH,ViaDrill
T1C3.000
; #@! TA.AperFunction,Plated,PTH,ViaDrill
T2C6.000
; #@! TA.AperFunction,Plated,PTH,ViaDrill
T3C6.500
; #@! TA.AperFunction,Plated,PTH,ViaDrill
T4C7.000
%
G90
G05
T1
X84.101Y-33.206
X84.101Y-155.706
X129.821Y-33.206
X129.821Y-155.706
T2
X89.321Y-113.456
X89.321Y-141.456
X89.487Y-127.191
X101.321Y-127.456
X101.321Y-141.456
X113.321Y-127.456
X113.321Y-141.456
X125.321Y-127.456
X125.321Y-141.456
T3
X113.321Y-114.456
X125.321Y-114.456
T4
X92.321Y-78.468
X93.114Y-49.468
X101.321Y-98.468
X113.321Y-80.468
X121.114Y-49.468
X125.321Y-98.468
M30
