%TF.GenerationSoftware,KiCad,Pcbnew,8.0.0*%
%TF.CreationDate,2024-04-08T18:26:30+02:00*%
%TF.ProjectId,4Channe_Mixer,34436861-6e6e-4655-9f4d-697865722e6b,rev?*%
%TF.SameCoordinates,Original*%
%TF.FileFunction,Copper,L1,Top*%
%TF.FilePolarity,Positive*%
%FSLAX46Y46*%
G04 Gerber Fmt 4.6, Leading zero omitted, Abs format (unit mm)*
G04 Created by KiCad (PCBNEW 8.0.0) date 2024-04-08 18:26:30*
%MOMM*%
%LPD*%
G01*
G04 APERTURE LIST*
G04 Aperture macros list*
%AMRoundRect*
0 Rectangle with rounded corners*
0 $1 Rounding radius*
0 $2 $3 $4 $5 $6 $7 $8 $9 X,Y pos of 4 corners*
0 Add a 4 corners polygon primitive as box body*
4,1,4,$2,$3,$4,$5,$6,$7,$8,$9,$2,$3,0*
0 Add four circle primitives for the rounded corners*
1,1,$1+$1,$2,$3*
1,1,$1+$1,$4,$5*
1,1,$1+$1,$6,$7*
1,1,$1+$1,$8,$9*
0 Add four rect primitives between the rounded corners*
20,1,$1+$1,$2,$3,$4,$5,0*
20,1,$1+$1,$4,$5,$6,$7,0*
20,1,$1+$1,$6,$7,$8,$9,0*
20,1,$1+$1,$8,$9,$2,$3,0*%
G04 Aperture macros list end*
%TA.AperFunction,ComponentPad*%
%ADD10R,1.350000X1.350000*%
%TD*%
%TA.AperFunction,ComponentPad*%
%ADD11C,1.350000*%
%TD*%
%TA.AperFunction,ComponentPad*%
%ADD12O,2.720000X3.240000*%
%TD*%
%TA.AperFunction,ComponentPad*%
%ADD13R,1.800000X1.800000*%
%TD*%
%TA.AperFunction,ComponentPad*%
%ADD14C,1.800000*%
%TD*%
%TA.AperFunction,ComponentPad*%
%ADD15C,1.400000*%
%TD*%
%TA.AperFunction,ComponentPad*%
%ADD16O,1.400000X1.400000*%
%TD*%
%TA.AperFunction,ComponentPad*%
%ADD17RoundRect,0.650000X0.650000X0.650000X-0.650000X0.650000X-0.650000X-0.650000X0.650000X-0.650000X0*%
%TD*%
%TA.AperFunction,ComponentPad*%
%ADD18O,3.100000X2.100000*%
%TD*%
%TA.AperFunction,ComponentPad*%
%ADD19RoundRect,0.650000X-0.650000X-0.650000X0.650000X-0.650000X0.650000X0.650000X-0.650000X0.650000X0*%
%TD*%
%TA.AperFunction,ComponentPad*%
%ADD20R,1.700000X1.700000*%
%TD*%
%TA.AperFunction,ComponentPad*%
%ADD21O,1.700000X1.700000*%
%TD*%
%TA.AperFunction,ComponentPad*%
%ADD22R,2.200000X2.200000*%
%TD*%
%TA.AperFunction,ComponentPad*%
%ADD23O,2.200000X2.200000*%
%TD*%
%TA.AperFunction,ComponentPad*%
%ADD24R,1.200000X1.200000*%
%TD*%
%TA.AperFunction,ComponentPad*%
%ADD25C,1.200000*%
%TD*%
%TA.AperFunction,ComponentPad*%
%ADD26C,1.600000*%
%TD*%
%TA.AperFunction,ViaPad*%
%ADD27C,0.600000*%
%TD*%
%TA.AperFunction,Conductor*%
%ADD28C,0.200000*%
%TD*%
G04 APERTURE END LIST*
D10*
%TO.P,U1,1*%
%TO.N,Net-(R1-Pad2)*%
X101550000Y-115980000D03*
D11*
%TO.P,U1,2,-*%
%TO.N,Net-(U1A--)*%
X101550000Y-118520000D03*
%TO.P,U1,3,+*%
%TO.N,GND*%
X101550000Y-121060000D03*
%TO.P,U1,4,V+*%
%TO.N,+12V*%
X101550000Y-123600000D03*
%TO.P,U1,5,+*%
%TO.N,GND*%
X101550000Y-126140000D03*
%TO.P,U1,6,-*%
%TO.N,Net-(U1B--)*%
X101550000Y-128680000D03*
%TO.P,U1,7*%
%TO.N,Net-(R2-Pad2)*%
X101550000Y-131220000D03*
%TO.P,U1,8*%
%TO.N,Net-(R10-Pad2)*%
X109170000Y-131220000D03*
%TO.P,U1,9,-*%
%TO.N,Net-(U1C--)*%
X109170000Y-128680000D03*
%TO.P,U1,10,+*%
%TO.N,GND*%
X109170000Y-126140000D03*
%TO.P,U1,11,V-*%
%TO.N,-12V*%
X109170000Y-123600000D03*
%TO.P,U1,12,+*%
%TO.N,GND*%
X109170000Y-121060000D03*
%TO.P,U1,13,-*%
%TO.N,Net-(U1D--)*%
X109170000Y-118520000D03*
%TO.P,U1,14*%
%TO.N,Net-(R11-Pad2)*%
X109170000Y-115980000D03*
%TD*%
D12*
%TO.P,RV9,*%
%TO.N,*%
X95200000Y-106485000D03*
X85600000Y-106485000D03*
D13*
%TO.P,RV9,1,1*%
%TO.N,GND*%
X92900000Y-113985000D03*
D14*
%TO.P,RV9,2,2*%
%TO.N,Net-(R15-Pad1)*%
X90400000Y-113985000D03*
%TO.P,RV9,3,3*%
%TO.N,Net-(J5-PadT)*%
X87900000Y-113985000D03*
%TD*%
D12*
%TO.P,RV8,*%
%TO.N,*%
X95040000Y-86485000D03*
X85440000Y-86485000D03*
D13*
%TO.P,RV8,1,1*%
%TO.N,GND*%
X92740000Y-93985000D03*
D14*
%TO.P,RV8,2,2*%
%TO.N,Net-(R14-Pad1)*%
X90240000Y-93985000D03*
%TO.P,RV8,3,3*%
%TO.N,Net-(J4-PadT)*%
X87740000Y-93985000D03*
%TD*%
D12*
%TO.P,RV7,*%
%TO.N,*%
X95200000Y-66485000D03*
X85600000Y-66485000D03*
D13*
%TO.P,RV7,1,1*%
%TO.N,GND*%
X92900000Y-73985000D03*
D14*
%TO.P,RV7,2,2*%
%TO.N,Net-(R13-Pad1)*%
X90400000Y-73985000D03*
%TO.P,RV7,3,3*%
%TO.N,Net-(J3-PadT)*%
X87900000Y-73985000D03*
%TD*%
D12*
%TO.P,RV6,*%
%TO.N,*%
X95200000Y-46485000D03*
X85600000Y-46485000D03*
D13*
%TO.P,RV6,1,1*%
%TO.N,GND*%
X92900000Y-53985000D03*
D14*
%TO.P,RV6,2,2*%
%TO.N,Net-(R12-Pad1)*%
X90400000Y-53985000D03*
%TO.P,RV6,3,3*%
%TO.N,Net-(J2-PadT)*%
X87900000Y-53985000D03*
%TD*%
D12*
%TO.P,RV4,*%
%TO.N,*%
X75200000Y-106485000D03*
X65600000Y-106485000D03*
D13*
%TO.P,RV4,1,1*%
%TO.N,GND*%
X72900000Y-113985000D03*
D14*
%TO.P,RV4,2,2*%
%TO.N,Net-(R6-Pad1)*%
X70400000Y-113985000D03*
%TO.P,RV4,3,3*%
%TO.N,Net-(J5-PadR)*%
X67900000Y-113985000D03*
%TD*%
D12*
%TO.P,RV3,*%
%TO.N,*%
X75200000Y-86485000D03*
X65600000Y-86485000D03*
D13*
%TO.P,RV3,1,1*%
%TO.N,GND*%
X72900000Y-93985000D03*
D14*
%TO.P,RV3,2,2*%
%TO.N,Net-(R5-Pad1)*%
X70400000Y-93985000D03*
%TO.P,RV3,3,3*%
%TO.N,Net-(J4-PadR)*%
X67900000Y-93985000D03*
%TD*%
D12*
%TO.P,RV2,*%
%TO.N,*%
X75200000Y-66485000D03*
X65600000Y-66485000D03*
D13*
%TO.P,RV2,1,1*%
%TO.N,GND*%
X72900000Y-73985000D03*
D14*
%TO.P,RV2,2,2*%
%TO.N,Net-(R4-Pad1)*%
X70400000Y-73985000D03*
%TO.P,RV2,3,3*%
%TO.N,Net-(J3-PadR)*%
X67900000Y-73985000D03*
%TD*%
D12*
%TO.P,RV1,*%
%TO.N,*%
X75200000Y-46485000D03*
X65600000Y-46485000D03*
D13*
%TO.P,RV1,1,1*%
%TO.N,GND*%
X72900000Y-53985000D03*
D14*
%TO.P,RV1,2,2*%
%TO.N,Net-(R3-Pad1)*%
X70400000Y-53985000D03*
%TO.P,RV1,3,3*%
%TO.N,Net-(J2-PadR)*%
X67900000Y-53985000D03*
%TD*%
D15*
%TO.P,R38,1*%
%TO.N,Net-(D2-A)*%
X83500000Y-124405000D03*
D16*
%TO.P,R38,2*%
%TO.N,-12V*%
X83500000Y-122505000D03*
%TD*%
D15*
%TO.P,R37,1*%
%TO.N,+12V*%
X71640000Y-122832000D03*
D16*
%TO.P,R37,2*%
%TO.N,Net-(D1-K)*%
X71640000Y-124732000D03*
%TD*%
%TO.P,R18,2*%
%TO.N,Net-(J6-PadT)*%
X90205000Y-117385000D03*
D15*
%TO.P,R18,1*%
%TO.N,Net-(R11-Pad2)*%
X92105000Y-117385000D03*
%TD*%
%TO.P,R17,1*%
%TO.N,Net-(R10-Pad2)*%
X99400000Y-95485000D03*
D16*
%TO.P,R17,2*%
%TO.N,Net-(U1D--)*%
X99400000Y-97385000D03*
%TD*%
D15*
%TO.P,R15,1*%
%TO.N,Net-(R15-Pad1)*%
X92300000Y-99485000D03*
D16*
%TO.P,R15,2*%
%TO.N,Net-(U1C--)*%
X92300000Y-97585000D03*
%TD*%
D15*
%TO.P,R14,1*%
%TO.N,Net-(R14-Pad1)*%
X85500000Y-98485000D03*
D16*
%TO.P,R14,2*%
%TO.N,Net-(U1C--)*%
X87400000Y-98485000D03*
%TD*%
D15*
%TO.P,R13,1*%
%TO.N,Net-(R13-Pad1)*%
X90500000Y-77485000D03*
D16*
%TO.P,R13,2*%
%TO.N,Net-(U1C--)*%
X92400000Y-77485000D03*
%TD*%
D15*
%TO.P,R12,1*%
%TO.N,Net-(R12-Pad1)*%
X90590000Y-58485000D03*
D16*
%TO.P,R12,2*%
%TO.N,Net-(U1C--)*%
X92490000Y-58485000D03*
%TD*%
D15*
%TO.P,R11,1*%
%TO.N,Net-(U1D--)*%
X102095000Y-96985000D03*
D16*
%TO.P,R11,2*%
%TO.N,Net-(R11-Pad2)*%
X103995000Y-96985000D03*
%TD*%
D15*
%TO.P,R10,1*%
%TO.N,Net-(U1C--)*%
X95400000Y-97685000D03*
D16*
%TO.P,R10,2*%
%TO.N,Net-(R10-Pad2)*%
X95400000Y-99585000D03*
%TD*%
%TO.P,R9,2*%
%TO.N,Net-(R1-Pad2)*%
X81300000Y-102090000D03*
D15*
%TO.P,R9,1*%
%TO.N,Net-(U1B--)*%
X81300000Y-103990000D03*
%TD*%
D16*
%TO.P,R8,2*%
%TO.N,Net-(J6-PadR)*%
X97205000Y-132805000D03*
D15*
%TO.P,R8,1*%
%TO.N,Net-(R2-Pad2)*%
X99105000Y-132805000D03*
%TD*%
%TO.P,R6,1*%
%TO.N,Net-(R6-Pad1)*%
X76400000Y-99385000D03*
D16*
%TO.P,R6,2*%
%TO.N,Net-(U1A--)*%
X76400000Y-97485000D03*
%TD*%
D15*
%TO.P,R5,1*%
%TO.N,Net-(R5-Pad1)*%
X70500000Y-98485000D03*
D16*
%TO.P,R5,2*%
%TO.N,Net-(U1A--)*%
X72400000Y-98485000D03*
%TD*%
D15*
%TO.P,R4,1*%
%TO.N,Net-(R4-Pad1)*%
X70500000Y-78485000D03*
D16*
%TO.P,R4,2*%
%TO.N,Net-(U1A--)*%
X72400000Y-78485000D03*
%TD*%
D15*
%TO.P,R3,1*%
%TO.N,Net-(R3-Pad1)*%
X70500000Y-58485000D03*
D16*
%TO.P,R3,2*%
%TO.N,Net-(U1A--)*%
X72400000Y-58485000D03*
%TD*%
%TO.P,R2,2*%
%TO.N,Net-(R2-Pad2)*%
X81200000Y-108280000D03*
D15*
%TO.P,R2,1*%
%TO.N,Net-(U1B--)*%
X81200000Y-106380000D03*
%TD*%
%TO.P,R1,1*%
%TO.N,Net-(U1A--)*%
X79295000Y-97585000D03*
D16*
%TO.P,R1,2*%
%TO.N,Net-(R1-Pad2)*%
X81195000Y-97585000D03*
%TD*%
D17*
%TO.P,J6,R*%
%TO.N,Net-(J6-PadR)*%
X90400000Y-129865000D03*
D18*
%TO.P,J6,S*%
%TO.N,GND*%
X90400000Y-132965000D03*
D17*
%TO.P,J6,T*%
%TO.N,Net-(J6-PadT)*%
X90400000Y-121565000D03*
%TD*%
D19*
%TO.P,J5,R*%
%TO.N,Net-(J5-PadR)*%
X105400000Y-103105000D03*
D18*
%TO.P,J5,S*%
%TO.N,GND*%
X105400000Y-100005000D03*
D19*
%TO.P,J5,T*%
%TO.N,Net-(J5-PadT)*%
X105400000Y-111405000D03*
%TD*%
D17*
%TO.P,J4,R*%
%TO.N,Net-(J4-PadR)*%
X105400000Y-89865000D03*
D18*
%TO.P,J4,S*%
%TO.N,GND*%
X105400000Y-92965000D03*
D17*
%TO.P,J4,T*%
%TO.N,Net-(J4-PadT)*%
X105400000Y-81565000D03*
%TD*%
%TO.P,J3,R*%
%TO.N,Net-(J3-PadR)*%
X105400000Y-69865000D03*
D18*
%TO.P,J3,S*%
%TO.N,GND*%
X105400000Y-72965000D03*
D17*
%TO.P,J3,T*%
%TO.N,Net-(J3-PadT)*%
X105400000Y-61565000D03*
%TD*%
%TO.P,J2,R*%
%TO.N,Net-(J2-PadR)*%
X105400000Y-49865000D03*
D18*
%TO.P,J2,S*%
%TO.N,GND*%
X105400000Y-52965000D03*
D17*
%TO.P,J2,T*%
%TO.N,Net-(J2-PadT)*%
X105400000Y-41565000D03*
%TD*%
D20*
%TO.P,J1,1,+12V*%
%TO.N,Net-(D1-A)*%
X66720000Y-127660000D03*
D21*
%TO.P,J1,2,+12V*%
X66720000Y-130200000D03*
%TO.P,J1,3,GND*%
%TO.N,GND*%
X69260000Y-127660000D03*
%TO.P,J1,4,GND*%
X69260000Y-130200000D03*
%TO.P,J1,5,GND*%
X71800000Y-127660000D03*
%TO.P,J1,6,GND*%
X71800000Y-130200000D03*
%TO.P,J1,7,GND*%
X74340000Y-127660000D03*
%TO.P,J1,8,GND*%
X74340000Y-130200000D03*
%TO.P,J1,9,-12V*%
%TO.N,Net-(D2-K)*%
X76880000Y-127660000D03*
%TO.P,J1,10,-12V*%
X76880000Y-130200000D03*
%TD*%
D22*
%TO.P,D2,1,K*%
%TO.N,Net-(D2-K)*%
X80436000Y-130273766D03*
D23*
%TO.P,D2,2,A*%
%TO.N,Net-(D2-A)*%
X80436000Y-127733766D03*
%TD*%
D22*
%TO.P,D1,1,K*%
%TO.N,Net-(D1-K)*%
X68711766Y-124137000D03*
D23*
%TO.P,D1,2,A*%
%TO.N,Net-(D1-A)*%
X66171766Y-124137000D03*
%TD*%
D24*
%TO.P,C6,1*%
%TO.N,GND*%
X78440000Y-119936998D03*
D25*
%TO.P,C6,2*%
%TO.N,-12V*%
X80440000Y-119936998D03*
%TD*%
D24*
%TO.P,C5,1*%
%TO.N,+12V*%
X71667401Y-119137000D03*
D25*
%TO.P,C5,2*%
%TO.N,GND*%
X73667401Y-119137000D03*
%TD*%
D26*
%TO.P,C2,1*%
%TO.N,GND*%
X97900000Y-117300000D03*
%TO.P,C2,2*%
%TO.N,-12V*%
X97900000Y-122300000D03*
%TD*%
%TO.P,C1,2*%
%TO.N,GND*%
X97900000Y-130000000D03*
%TO.P,C1,1*%
%TO.N,+12V*%
X97900000Y-125000000D03*
%TD*%
D27*
%TO.N,GND*%
X106700000Y-124200000D03*
X81900000Y-51100000D03*
X80700000Y-58100000D03*
X80000000Y-77800000D03*
X97400000Y-90100000D03*
X110400000Y-106600000D03*
X101400000Y-109000000D03*
X72400000Y-109100000D03*
X68600000Y-109400000D03*
X92000000Y-108900000D03*
X88300000Y-108800000D03*
X89500000Y-100000000D03*
X94800000Y-93700000D03*
X95300000Y-96100000D03*
X97900000Y-53500000D03*
X91000000Y-95500000D03*
X83500000Y-95000000D03*
X107000000Y-44000000D03*
X98500000Y-42500000D03*
X83500000Y-99000000D03*
X108000000Y-96000000D03*
X99000000Y-106500000D03*
X94500000Y-117000000D03*
X95500000Y-120000000D03*
X69000000Y-133500000D03*
X83500000Y-133500000D03*
X104500000Y-131500000D03*
X108000000Y-57500000D03*
X98500000Y-70000000D03*
X102500000Y-76500000D03*
X82000000Y-47000000D03*
X65500000Y-59500000D03*
X91000000Y-65500000D03*
X97500000Y-58000000D03*
X81000000Y-67500000D03*
X80000000Y-80700000D03*
X80500000Y-88500000D03*
X65000000Y-77000000D03*
X66000000Y-98500000D03*
X66000000Y-118500000D03*
X105500000Y-108000000D03*
X87500000Y-124500000D03*
X93500000Y-124500000D03*
X106000000Y-120000000D03*
X108000000Y-105000000D03*
X85000000Y-116500000D03*
%TO.N,Net-(R2-Pad2)*%
X80000000Y-110500000D03*
%TO.N,Net-(U1B--)*%
X79000000Y-106500000D03*
%TD*%
D28*
%TO.N,Net-(U1C--)*%
X96200000Y-96885000D02*
X95400000Y-97685000D01*
X92400000Y-77485000D02*
X92400000Y-87700000D01*
X92400000Y-87700000D02*
X96200000Y-91500000D01*
X96200000Y-91500000D02*
X96200000Y-96885000D01*
X95300000Y-97585000D02*
X95400000Y-97685000D01*
X92300000Y-97585000D02*
X95300000Y-97585000D01*
%TO.N,Net-(U1A--)*%
X72400000Y-88900000D02*
X74000000Y-90500000D01*
X74000000Y-90500000D02*
X74000000Y-92685000D01*
X72400000Y-78485000D02*
X72400000Y-88900000D01*
X74000000Y-92685000D02*
X76400000Y-95085000D01*
X76400000Y-95085000D02*
X76400000Y-97485000D01*
%TO.N,Net-(R2-Pad2)*%
X97411496Y-131220000D02*
X80000000Y-113808504D01*
X80000000Y-113808504D02*
X80000000Y-110500000D01*
X101550000Y-131220000D02*
X97411496Y-131220000D01*
%TO.N,Net-(U1B--)*%
X79000000Y-108500000D02*
X79000000Y-106500000D01*
X89500000Y-119000000D02*
X79000000Y-108500000D01*
X90500000Y-119000000D02*
X89500000Y-119000000D01*
X92000000Y-120655635D02*
X92000000Y-120500000D01*
X101550000Y-128680000D02*
X100024365Y-128680000D01*
%TO.N,Net-(U1A--)*%
X79995000Y-98285000D02*
X79295000Y-97585000D01*
X79995000Y-108589214D02*
X79995000Y-98285000D01*
%TO.N,Net-(U1B--)*%
X100024365Y-128680000D02*
X92000000Y-120655635D01*
X92000000Y-120500000D02*
X90500000Y-119000000D01*
%TO.N,Net-(U1A--)*%
X89925786Y-118520000D02*
X79995000Y-108589214D01*
X101550000Y-118520000D02*
X89925786Y-118520000D01*
%TO.N,Net-(R1-Pad2)*%
X82300000Y-103090000D02*
X81300000Y-102090000D01*
X82300000Y-110082057D02*
X82300000Y-103090000D01*
X88197943Y-115980000D02*
X82300000Y-110082057D01*
X101550000Y-115980000D02*
X88197943Y-115980000D01*
%TO.N,Net-(D2-A)*%
X83500000Y-124669766D02*
X83500000Y-124405000D01*
X80436000Y-127733766D02*
X83500000Y-124669766D01*
%TO.N,Net-(D1-A)*%
X66720000Y-127220000D02*
X66171766Y-126671766D01*
X66171766Y-126671766D02*
X66171766Y-124137000D01*
X66720000Y-127660000D02*
X66720000Y-127220000D01*
X66720000Y-127660000D02*
X66720000Y-130200000D01*
%TO.N,Net-(D2-K)*%
X76880000Y-127660000D02*
X76880000Y-130200000D01*
%TO.N,-12V*%
X80445000Y-119941998D02*
X80440000Y-119936998D01*
%TO.N,+12V*%
X71640000Y-119164401D02*
X71667401Y-119137000D01*
X71640000Y-122832000D02*
X71640000Y-119164401D01*
%TO.N,Net-(U1D--)*%
X107000000Y-107500000D02*
X102095000Y-102595000D01*
X107000000Y-116350000D02*
X107000000Y-107500000D01*
X109170000Y-118520000D02*
X107000000Y-116350000D01*
X102095000Y-102595000D02*
X102095000Y-96985000D01*
%TO.N,Net-(R11-Pad2)*%
X109170000Y-101170051D02*
X104984949Y-96985000D01*
X109170000Y-115980000D02*
X109170000Y-101170051D01*
X104984949Y-96985000D02*
X103995000Y-96985000D01*
%TO.N,Net-(R10-Pad2)*%
X102525000Y-124575000D02*
X109170000Y-131220000D01*
X102525000Y-106710000D02*
X102525000Y-124575000D01*
X95400000Y-99585000D02*
X102525000Y-106710000D01*
%TO.N,Net-(U1C--)*%
X103800000Y-106085000D02*
X95400000Y-97685000D01*
X103800000Y-123310000D02*
X103800000Y-106085000D01*
X109170000Y-128680000D02*
X103800000Y-123310000D01*
%TO.N,Net-(R6-Pad1)*%
X70400000Y-105385000D02*
X70400000Y-113985000D01*
X76400000Y-99385000D02*
X70400000Y-105385000D01*
%TO.N,Net-(R14-Pad1)*%
X90000000Y-93985000D02*
X90240000Y-93985000D01*
X85500000Y-98485000D02*
X90000000Y-93985000D01*
%TO.N,Net-(U1C--)*%
X91600000Y-76685000D02*
X92400000Y-77485000D01*
X91600000Y-59375000D02*
X91600000Y-76685000D01*
X92490000Y-58485000D02*
X91600000Y-59375000D01*
%TO.N,Net-(R15-Pad1)*%
X90400000Y-101385000D02*
X92300000Y-99485000D01*
X90400000Y-113985000D02*
X90400000Y-101385000D01*
%TO.N,Net-(R1-Pad2)*%
X81300000Y-97690000D02*
X81195000Y-97585000D01*
X81300000Y-102090000D02*
X81300000Y-97690000D01*
%TO.N,Net-(U1B--)*%
X81300000Y-106280000D02*
X81200000Y-106380000D01*
X81300000Y-103990000D02*
X81300000Y-106280000D01*
%TO.N,Net-(R5-Pad1)*%
X70400000Y-98385000D02*
X70500000Y-98485000D01*
X70400000Y-93985000D02*
X70400000Y-98385000D01*
%TO.N,Net-(U1A--)*%
X71600000Y-77685000D02*
X72400000Y-78485000D01*
X71600000Y-59285000D02*
X71600000Y-77685000D01*
X72400000Y-58485000D02*
X71600000Y-59285000D01*
%TO.N,Net-(R4-Pad1)*%
X70400000Y-78385000D02*
X70500000Y-78485000D01*
X70400000Y-73985000D02*
X70400000Y-78385000D01*
%TO.N,Net-(R13-Pad1)*%
X90400000Y-77385000D02*
X90500000Y-77485000D01*
X90400000Y-73985000D02*
X90400000Y-77385000D01*
%TO.N,Net-(R12-Pad1)*%
X90400000Y-58295000D02*
X90590000Y-58485000D01*
X90400000Y-53985000D02*
X90400000Y-58295000D01*
%TO.N,Net-(R3-Pad1)*%
X70400000Y-58385000D02*
X70500000Y-58485000D01*
X70400000Y-53985000D02*
X70400000Y-58385000D01*
%TD*%
%TA.AperFunction,Conductor*%
%TO.N,GND*%
G36*
X92405703Y-121911019D02*
G01*
X92412181Y-121917051D01*
X99539504Y-129044374D01*
X99539514Y-129044385D01*
X99543844Y-129048715D01*
X99543845Y-129048716D01*
X99655649Y-129160520D01*
X99723165Y-129199500D01*
X99792580Y-129239577D01*
X99945308Y-129280501D01*
X99945311Y-129280501D01*
X100111018Y-129280501D01*
X100111034Y-129280500D01*
X100468706Y-129280500D01*
X100535745Y-129300185D01*
X100567659Y-129329772D01*
X100677573Y-129475322D01*
X100838568Y-129622088D01*
X100838575Y-129622092D01*
X100838576Y-129622093D01*
X101023786Y-129736770D01*
X101023792Y-129736773D01*
X101046664Y-129745633D01*
X101226931Y-129815470D01*
X101294558Y-129828111D01*
X101356838Y-129859779D01*
X101392111Y-129920092D01*
X101389177Y-129989900D01*
X101348968Y-130047040D01*
X101294558Y-130071888D01*
X101226931Y-130084530D01*
X101178130Y-130103435D01*
X101023792Y-130163226D01*
X101023786Y-130163229D01*
X100838576Y-130277906D01*
X100838566Y-130277913D01*
X100677574Y-130424676D01*
X100567660Y-130570227D01*
X100511551Y-130611863D01*
X100468706Y-130619500D01*
X99240155Y-130619500D01*
X99173116Y-130599815D01*
X99127361Y-130547011D01*
X99117417Y-130477853D01*
X99125210Y-130451694D01*
X99124417Y-130451406D01*
X99126269Y-130446317D01*
X99185139Y-130226610D01*
X99185141Y-130226599D01*
X99204966Y-130000002D01*
X99204966Y-129999997D01*
X99185141Y-129773400D01*
X99185139Y-129773389D01*
X99126269Y-129553682D01*
X99126264Y-129553668D01*
X99030136Y-129347521D01*
X99030132Y-129347513D01*
X98979025Y-129274526D01*
X98300000Y-129953551D01*
X98300000Y-129947339D01*
X98272741Y-129845606D01*
X98220080Y-129754394D01*
X98145606Y-129679920D01*
X98054394Y-129627259D01*
X97952661Y-129600000D01*
X97946448Y-129600000D01*
X98625472Y-128920974D01*
X98552478Y-128869863D01*
X98346331Y-128773735D01*
X98346317Y-128773730D01*
X98126610Y-128714860D01*
X98126599Y-128714858D01*
X97900002Y-128695034D01*
X97899998Y-128695034D01*
X97673400Y-128714858D01*
X97673389Y-128714860D01*
X97453682Y-128773730D01*
X97453673Y-128773734D01*
X97247516Y-128869866D01*
X97247512Y-128869868D01*
X97174526Y-128920973D01*
X97174526Y-128920974D01*
X97853553Y-129600000D01*
X97847339Y-129600000D01*
X97745606Y-129627259D01*
X97654394Y-129679920D01*
X97579920Y-129754394D01*
X97527259Y-129845606D01*
X97500000Y-129947339D01*
X97500000Y-129953552D01*
X96820974Y-129274526D01*
X96820973Y-129274526D01*
X96769868Y-129347512D01*
X96769866Y-129347517D01*
X96723347Y-129447276D01*
X96677174Y-129499715D01*
X96609980Y-129518867D01*
X96543099Y-129498651D01*
X96523284Y-129482552D01*
X90617913Y-123577181D01*
X90584428Y-123515858D01*
X90589412Y-123446166D01*
X90631284Y-123390233D01*
X90696748Y-123365816D01*
X90705594Y-123365500D01*
X91121016Y-123365500D01*
X91156459Y-123363039D01*
X91209630Y-123359349D01*
X91209636Y-123359347D01*
X91209640Y-123359347D01*
X91388673Y-123317238D01*
X91417185Y-123310532D01*
X91612237Y-123224409D01*
X91788142Y-123103911D01*
X91938911Y-122953142D01*
X92059409Y-122777237D01*
X92145532Y-122582185D01*
X92168518Y-122484454D01*
X92194347Y-122374640D01*
X92194347Y-122374636D01*
X92194349Y-122374630D01*
X92200500Y-122286012D01*
X92200500Y-122004732D01*
X92220185Y-121937693D01*
X92272989Y-121891938D01*
X92342147Y-121881994D01*
X92405703Y-121911019D01*
G37*
%TD.AperFunction*%
%TA.AperFunction,Conductor*%
G36*
X100535745Y-119140185D02*
G01*
X100567659Y-119169772D01*
X100677573Y-119315322D01*
X100838568Y-119462088D01*
X100838575Y-119462092D01*
X100838576Y-119462093D01*
X101023786Y-119576770D01*
X101023792Y-119576773D01*
X101046996Y-119585762D01*
X101226931Y-119655470D01*
X101295920Y-119668366D01*
X101358199Y-119700033D01*
X101393472Y-119760345D01*
X101390539Y-119830153D01*
X101350330Y-119887294D01*
X101295918Y-119912143D01*
X101227070Y-119925013D01*
X101227069Y-119925013D01*
X101024016Y-120003676D01*
X101024015Y-120003676D01*
X100914832Y-120071279D01*
X101461414Y-120617861D01*
X101376306Y-120640667D01*
X101273694Y-120699910D01*
X101189910Y-120783694D01*
X101130667Y-120886306D01*
X101107861Y-120971414D01*
X100558987Y-120422540D01*
X100546719Y-120438785D01*
X100546711Y-120438798D01*
X100449655Y-120633712D01*
X100449650Y-120633725D01*
X100390057Y-120843169D01*
X100369966Y-121059999D01*
X100369966Y-121060000D01*
X100390057Y-121276830D01*
X100449650Y-121486274D01*
X100449655Y-121486287D01*
X100546711Y-121681202D01*
X100546713Y-121681204D01*
X100558987Y-121697457D01*
X101107861Y-121148584D01*
X101130667Y-121233694D01*
X101189910Y-121336306D01*
X101273694Y-121420090D01*
X101376306Y-121479333D01*
X101461414Y-121502137D01*
X100914833Y-122048719D01*
X100914833Y-122048720D01*
X101024010Y-122116321D01*
X101024014Y-122116323D01*
X101227060Y-122194983D01*
X101227071Y-122194987D01*
X101295917Y-122207856D01*
X101358198Y-122239523D01*
X101393472Y-122299835D01*
X101390539Y-122369644D01*
X101350330Y-122426784D01*
X101295919Y-122451633D01*
X101226942Y-122464527D01*
X101226933Y-122464529D01*
X101226931Y-122464530D01*
X101178130Y-122483435D01*
X101023792Y-122543226D01*
X101023786Y-122543229D01*
X100838576Y-122657906D01*
X100838566Y-122657913D01*
X100677574Y-122804676D01*
X100546288Y-122978527D01*
X100449184Y-123173537D01*
X100449183Y-123173541D01*
X100395175Y-123363362D01*
X100389564Y-123383081D01*
X100369464Y-123599999D01*
X100369464Y-123600000D01*
X100389564Y-123816918D01*
X100389564Y-123816920D01*
X100389565Y-123816923D01*
X100441642Y-123999954D01*
X100449184Y-124026462D01*
X100504226Y-124137000D01*
X100546288Y-124221472D01*
X100677573Y-124395322D01*
X100838568Y-124542088D01*
X100838575Y-124542092D01*
X100838576Y-124542093D01*
X101023786Y-124656770D01*
X101023792Y-124656773D01*
X101052159Y-124667762D01*
X101226931Y-124735470D01*
X101295920Y-124748366D01*
X101358199Y-124780033D01*
X101393472Y-124840345D01*
X101390539Y-124910153D01*
X101350330Y-124967294D01*
X101295918Y-124992143D01*
X101227070Y-125005013D01*
X101227069Y-125005013D01*
X101024016Y-125083676D01*
X101024015Y-125083676D01*
X100914832Y-125151279D01*
X101461414Y-125697861D01*
X101376306Y-125720667D01*
X101273694Y-125779910D01*
X101189910Y-125863694D01*
X101130667Y-125966306D01*
X101107861Y-126051414D01*
X100558987Y-125502540D01*
X100546719Y-125518785D01*
X100546711Y-125518798D01*
X100449655Y-125713712D01*
X100449650Y-125713725D01*
X100390057Y-125923169D01*
X100369966Y-126139999D01*
X100369966Y-126140000D01*
X100390057Y-126356830D01*
X100449650Y-126566274D01*
X100449655Y-126566287D01*
X100546711Y-126761202D01*
X100546713Y-126761204D01*
X100558987Y-126777457D01*
X101107861Y-126228584D01*
X101130667Y-126313694D01*
X101189910Y-126416306D01*
X101273694Y-126500090D01*
X101376306Y-126559333D01*
X101461414Y-126582138D01*
X100914833Y-127128719D01*
X100914833Y-127128720D01*
X101024010Y-127196321D01*
X101024014Y-127196323D01*
X101227060Y-127274983D01*
X101227071Y-127274987D01*
X101295917Y-127287856D01*
X101358198Y-127319523D01*
X101393472Y-127379835D01*
X101390539Y-127449644D01*
X101350330Y-127506784D01*
X101295919Y-127531633D01*
X101226942Y-127544527D01*
X101226933Y-127544529D01*
X101226931Y-127544530D01*
X101178130Y-127563435D01*
X101023792Y-127623226D01*
X101023786Y-127623229D01*
X100838576Y-127737906D01*
X100838566Y-127737913D01*
X100677574Y-127884676D01*
X100567660Y-128030227D01*
X100511551Y-128071863D01*
X100468706Y-128079500D01*
X100324462Y-128079500D01*
X100257423Y-128059815D01*
X100236781Y-128043181D01*
X98522076Y-126328476D01*
X98488591Y-126267153D01*
X98493575Y-126197461D01*
X98535447Y-126141528D01*
X98548361Y-126133827D01*
X98548043Y-126133276D01*
X98552725Y-126130572D01*
X98552734Y-126130568D01*
X98739139Y-126000047D01*
X98900047Y-125839139D01*
X99030568Y-125652734D01*
X99126739Y-125446496D01*
X99185635Y-125226692D01*
X99205468Y-125000000D01*
X99185635Y-124773308D01*
X99126739Y-124553504D01*
X99030568Y-124347266D01*
X98900047Y-124160861D01*
X98900045Y-124160858D01*
X98739141Y-123999954D01*
X98552734Y-123869432D01*
X98552732Y-123869431D01*
X98346497Y-123773261D01*
X98346488Y-123773258D01*
X98333487Y-123769775D01*
X98273827Y-123733410D01*
X98243297Y-123670564D01*
X98251591Y-123601188D01*
X98296076Y-123547310D01*
X98333487Y-123530225D01*
X98341941Y-123527959D01*
X98346496Y-123526739D01*
X98552734Y-123430568D01*
X98739139Y-123300047D01*
X98900047Y-123139139D01*
X99030568Y-122952734D01*
X99126739Y-122746496D01*
X99185635Y-122526692D01*
X99205468Y-122300000D01*
X99204244Y-122286015D01*
X99196484Y-122197308D01*
X99185635Y-122073308D01*
X99126739Y-121853504D01*
X99030568Y-121647266D01*
X98900047Y-121460861D01*
X98900045Y-121460858D01*
X98739141Y-121299954D01*
X98552734Y-121169432D01*
X98552732Y-121169431D01*
X98346497Y-121073261D01*
X98346488Y-121073258D01*
X98126697Y-121014366D01*
X98126693Y-121014365D01*
X98126692Y-121014365D01*
X98126691Y-121014364D01*
X98126686Y-121014364D01*
X97900002Y-120994532D01*
X97899998Y-120994532D01*
X97673313Y-121014364D01*
X97673302Y-121014366D01*
X97453511Y-121073258D01*
X97453502Y-121073261D01*
X97247267Y-121169431D01*
X97247265Y-121169432D01*
X97060858Y-121299954D01*
X96899954Y-121460858D01*
X96769432Y-121647265D01*
X96769431Y-121647267D01*
X96673261Y-121853502D01*
X96673258Y-121853511D01*
X96614366Y-122073302D01*
X96614364Y-122073313D01*
X96594532Y-122299998D01*
X96594532Y-122300001D01*
X96614364Y-122526686D01*
X96614366Y-122526697D01*
X96673258Y-122746488D01*
X96673261Y-122746497D01*
X96769431Y-122952732D01*
X96769432Y-122952734D01*
X96899954Y-123139141D01*
X97060858Y-123300045D01*
X97085420Y-123317243D01*
X97247266Y-123430568D01*
X97453504Y-123526739D01*
X97460790Y-123528691D01*
X97466513Y-123530225D01*
X97526174Y-123566591D01*
X97556702Y-123629438D01*
X97548407Y-123698813D01*
X97503921Y-123752691D01*
X97466513Y-123769775D01*
X97453509Y-123773259D01*
X97453502Y-123773261D01*
X97247267Y-123869431D01*
X97247265Y-123869432D01*
X97060858Y-123999954D01*
X96899954Y-124160858D01*
X96769430Y-124347268D01*
X96766721Y-124351961D01*
X96764580Y-124350724D01*
X96725062Y-124395306D01*
X96657805Y-124414233D01*
X96590992Y-124393794D01*
X96571522Y-124377922D01*
X92618853Y-120425253D01*
X92586760Y-120369666D01*
X92559577Y-120268216D01*
X92559574Y-120268212D01*
X92559574Y-120268209D01*
X92480524Y-120131290D01*
X92480521Y-120131286D01*
X92480520Y-120131284D01*
X92368716Y-120019480D01*
X92368715Y-120019479D01*
X92364385Y-120015149D01*
X92364374Y-120015139D01*
X91681416Y-119332181D01*
X91647931Y-119270858D01*
X91652915Y-119201166D01*
X91694787Y-119145233D01*
X91760251Y-119120816D01*
X91769097Y-119120500D01*
X100468706Y-119120500D01*
X100535745Y-119140185D01*
G37*
%TD.AperFunction*%
%TA.AperFunction,Conductor*%
G36*
X104552891Y-113190534D02*
G01*
X104565273Y-113193446D01*
X104590370Y-113199349D01*
X104639602Y-113202766D01*
X104678984Y-113205500D01*
X104678988Y-113205500D01*
X106121016Y-113205500D01*
X106156459Y-113203039D01*
X106209630Y-113199349D01*
X106238542Y-113192548D01*
X106247109Y-113190534D01*
X106316874Y-113194346D01*
X106373504Y-113235271D01*
X106399018Y-113300316D01*
X106399500Y-113311240D01*
X106399500Y-116263330D01*
X106399499Y-116263348D01*
X106399499Y-116429054D01*
X106399498Y-116429054D01*
X106440424Y-116581789D01*
X106440425Y-116581790D01*
X106466234Y-116626491D01*
X106469009Y-116631297D01*
X106503470Y-116690986D01*
X106519479Y-116718714D01*
X106519481Y-116718717D01*
X106638349Y-116837585D01*
X106638355Y-116837590D01*
X107978920Y-118178155D01*
X108012405Y-118239478D01*
X108010581Y-118297439D01*
X108010618Y-118297446D01*
X108010574Y-118297679D01*
X108010509Y-118299757D01*
X108009566Y-118303072D01*
X108009564Y-118303078D01*
X107989464Y-118519999D01*
X107989464Y-118520000D01*
X108009564Y-118736918D01*
X108009564Y-118736920D01*
X108009565Y-118736923D01*
X108048560Y-118873975D01*
X108069184Y-118946462D01*
X108164061Y-119136999D01*
X108166288Y-119141472D01*
X108297573Y-119315322D01*
X108458568Y-119462088D01*
X108458575Y-119462092D01*
X108458576Y-119462093D01*
X108643786Y-119576770D01*
X108643792Y-119576773D01*
X108666996Y-119585762D01*
X108846931Y-119655470D01*
X108915920Y-119668366D01*
X108978199Y-119700033D01*
X109013472Y-119760345D01*
X109010539Y-119830153D01*
X108970330Y-119887294D01*
X108915918Y-119912143D01*
X108847070Y-119925013D01*
X108847069Y-119925013D01*
X108644016Y-120003676D01*
X108644015Y-120003676D01*
X108534832Y-120071279D01*
X109081415Y-120617861D01*
X108996306Y-120640667D01*
X108893694Y-120699910D01*
X108809910Y-120783694D01*
X108750667Y-120886306D01*
X108727861Y-120971414D01*
X108178987Y-120422540D01*
X108166719Y-120438785D01*
X108166711Y-120438798D01*
X108069655Y-120633712D01*
X108069650Y-120633725D01*
X108010057Y-120843169D01*
X107989966Y-121059999D01*
X107989966Y-121060000D01*
X108010057Y-121276830D01*
X108069650Y-121486274D01*
X108069655Y-121486287D01*
X108166711Y-121681202D01*
X108166713Y-121681204D01*
X108178987Y-121697457D01*
X108727861Y-121148584D01*
X108750667Y-121233694D01*
X108809910Y-121336306D01*
X108893694Y-121420090D01*
X108996306Y-121479333D01*
X109081414Y-121502138D01*
X108534833Y-122048719D01*
X108534833Y-122048720D01*
X108644010Y-122116321D01*
X108644014Y-122116323D01*
X108847060Y-122194983D01*
X108847071Y-122194987D01*
X108915917Y-122207856D01*
X108978198Y-122239523D01*
X109013472Y-122299835D01*
X109010539Y-122369644D01*
X108970330Y-122426784D01*
X108915919Y-122451633D01*
X108846942Y-122464527D01*
X108846933Y-122464529D01*
X108846931Y-122464530D01*
X108798130Y-122483435D01*
X108643792Y-122543226D01*
X108643786Y-122543229D01*
X108458576Y-122657906D01*
X108458566Y-122657913D01*
X108297574Y-122804676D01*
X108166288Y-122978527D01*
X108069184Y-123173537D01*
X108069183Y-123173541D01*
X108015175Y-123363362D01*
X108009564Y-123383081D01*
X107989464Y-123599999D01*
X107989464Y-123600000D01*
X108009564Y-123816918D01*
X108009564Y-123816920D01*
X108009565Y-123816923D01*
X108061642Y-123999954D01*
X108069184Y-124026462D01*
X108124226Y-124137000D01*
X108166288Y-124221472D01*
X108297573Y-124395322D01*
X108458568Y-124542088D01*
X108458575Y-124542092D01*
X108458576Y-124542093D01*
X108643786Y-124656770D01*
X108643792Y-124656773D01*
X108672159Y-124667762D01*
X108846931Y-124735470D01*
X108915920Y-124748366D01*
X108978199Y-124780033D01*
X109013472Y-124840345D01*
X109010539Y-124910153D01*
X108970330Y-124967294D01*
X108915918Y-124992143D01*
X108847070Y-125005013D01*
X108847069Y-125005013D01*
X108644016Y-125083676D01*
X108644015Y-125083676D01*
X108534832Y-125151279D01*
X109081415Y-125697861D01*
X108996306Y-125720667D01*
X108893694Y-125779910D01*
X108809910Y-125863694D01*
X108750667Y-125966306D01*
X108727861Y-126051414D01*
X108178987Y-125502540D01*
X108166719Y-125518785D01*
X108166711Y-125518798D01*
X108069655Y-125713712D01*
X108069650Y-125713725D01*
X108010057Y-125923169D01*
X107989966Y-126139999D01*
X107989966Y-126140001D01*
X108010437Y-126360928D01*
X107997022Y-126429498D01*
X107948665Y-126479930D01*
X107880719Y-126496212D01*
X107814756Y-126473174D01*
X107799285Y-126460050D01*
X104436819Y-123097584D01*
X104403334Y-123036261D01*
X104400500Y-123009903D01*
X104400500Y-113311240D01*
X104420185Y-113244201D01*
X104472989Y-113198446D01*
X104542147Y-113188502D01*
X104552891Y-113190534D01*
G37*
%TD.AperFunction*%
%TA.AperFunction,Conductor*%
G36*
X80805703Y-111155384D02*
G01*
X80812181Y-111161416D01*
X89015139Y-119364374D01*
X89015149Y-119364385D01*
X89019479Y-119368715D01*
X89019480Y-119368716D01*
X89131284Y-119480520D01*
X89131286Y-119480521D01*
X89131290Y-119480524D01*
X89230410Y-119537750D01*
X89268216Y-119559577D01*
X89365945Y-119585763D01*
X89425604Y-119622126D01*
X89456134Y-119684973D01*
X89447840Y-119754349D01*
X89403355Y-119808227D01*
X89383937Y-119818971D01*
X89187765Y-119905589D01*
X89011858Y-120026088D01*
X89011852Y-120026093D01*
X88861093Y-120176852D01*
X88861088Y-120176858D01*
X88740592Y-120352761D01*
X88654467Y-120547817D01*
X88654465Y-120547823D01*
X88605652Y-120755359D01*
X88605650Y-120755375D01*
X88599500Y-120843984D01*
X88599500Y-121259406D01*
X88579815Y-121326445D01*
X88527011Y-121372200D01*
X88457853Y-121382144D01*
X88394297Y-121353119D01*
X88387819Y-121347087D01*
X80636819Y-113596087D01*
X80603334Y-113534764D01*
X80600500Y-113508406D01*
X80600500Y-111249097D01*
X80620185Y-111182058D01*
X80672989Y-111136303D01*
X80742147Y-111126359D01*
X80805703Y-111155384D01*
G37*
%TD.AperFunction*%
%TA.AperFunction,Conductor*%
G36*
X96673515Y-116600185D02*
G01*
X96719270Y-116652989D01*
X96729214Y-116722147D01*
X96718858Y-116756905D01*
X96673734Y-116853673D01*
X96673730Y-116853682D01*
X96614860Y-117073389D01*
X96614858Y-117073400D01*
X96595034Y-117299997D01*
X96595034Y-117300002D01*
X96614858Y-117526599D01*
X96614860Y-117526610D01*
X96673730Y-117746317D01*
X96675583Y-117751406D01*
X96673599Y-117752128D01*
X96682719Y-117812173D01*
X96654199Y-117875957D01*
X96595723Y-117914196D01*
X96559845Y-117919500D01*
X93365271Y-117919500D01*
X93298232Y-117899815D01*
X93252477Y-117847011D01*
X93242533Y-117777853D01*
X93246005Y-117761566D01*
X93250344Y-117746317D01*
X93290115Y-117606536D01*
X93310643Y-117385000D01*
X93310599Y-117384530D01*
X93290115Y-117163464D01*
X93290114Y-117163462D01*
X93287848Y-117155499D01*
X93229229Y-116949472D01*
X93229224Y-116949461D01*
X93134770Y-116759772D01*
X93122509Y-116690986D01*
X93149382Y-116626491D01*
X93206858Y-116586764D01*
X93245770Y-116580500D01*
X96606476Y-116580500D01*
X96673515Y-116600185D01*
G37*
%TD.AperFunction*%
%TA.AperFunction,Conductor*%
G36*
X107548147Y-100406807D02*
G01*
X107581117Y-100430403D01*
X108533181Y-101382467D01*
X108566666Y-101443790D01*
X108569500Y-101470148D01*
X108569500Y-114900158D01*
X108549815Y-114967197D01*
X108510778Y-115005585D01*
X108458566Y-115037913D01*
X108297574Y-115184675D01*
X108166288Y-115358527D01*
X108069184Y-115553537D01*
X108009564Y-115763081D01*
X107989464Y-115979999D01*
X107989464Y-115980001D01*
X108009884Y-116200375D01*
X107996469Y-116268945D01*
X107948112Y-116319377D01*
X107880166Y-116335659D01*
X107814203Y-116312621D01*
X107798732Y-116299497D01*
X107636819Y-116137584D01*
X107603334Y-116076261D01*
X107600500Y-116049903D01*
X107600500Y-107589060D01*
X107600501Y-107589047D01*
X107600501Y-107420944D01*
X107579972Y-107344330D01*
X107559577Y-107268216D01*
X107559573Y-107268209D01*
X107480524Y-107131290D01*
X107480518Y-107131282D01*
X105466417Y-105117181D01*
X105432932Y-105055858D01*
X105437916Y-104986166D01*
X105479788Y-104930233D01*
X105545252Y-104905816D01*
X105554098Y-104905500D01*
X106121016Y-104905500D01*
X106156459Y-104903039D01*
X106209630Y-104899349D01*
X106209636Y-104899347D01*
X106209640Y-104899347D01*
X106417176Y-104850534D01*
X106417174Y-104850534D01*
X106417185Y-104850532D01*
X106612237Y-104764409D01*
X106788142Y-104643911D01*
X106938911Y-104493142D01*
X107059409Y-104317237D01*
X107145532Y-104122185D01*
X107194349Y-103914630D01*
X107200500Y-103826012D01*
X107200500Y-102383988D01*
X107200402Y-102382583D01*
X107194349Y-102295375D01*
X107194349Y-102295370D01*
X107194347Y-102295364D01*
X107194347Y-102295359D01*
X107145534Y-102087823D01*
X107145532Y-102087817D01*
X107145532Y-102087815D01*
X107059409Y-101892763D01*
X106938911Y-101716858D01*
X106938906Y-101716852D01*
X106788147Y-101566093D01*
X106788137Y-101566084D01*
X106727360Y-101524452D01*
X106683176Y-101470326D01*
X106675270Y-101400905D01*
X106706150Y-101338230D01*
X106724551Y-101321834D01*
X106909753Y-101187276D01*
X106909759Y-101187271D01*
X107082271Y-101014759D01*
X107225678Y-100817377D01*
X107336439Y-100599996D01*
X107375505Y-100479766D01*
X107414942Y-100422091D01*
X107479301Y-100394892D01*
X107548147Y-100406807D01*
G37*
%TD.AperFunction*%
%TA.AperFunction,Conductor*%
G36*
X94298385Y-98205185D02*
G01*
X94342346Y-98254229D01*
X94374936Y-98319679D01*
X94374943Y-98319691D01*
X94433384Y-98397079D01*
X94508900Y-98497079D01*
X94509021Y-98497238D01*
X94509026Y-98497243D01*
X94559617Y-98543364D01*
X94595898Y-98603076D01*
X94594137Y-98672923D01*
X94559617Y-98726636D01*
X94509026Y-98772756D01*
X94509021Y-98772761D01*
X94374943Y-98950308D01*
X94374938Y-98950316D01*
X94275775Y-99149461D01*
X94275769Y-99149476D01*
X94214885Y-99363462D01*
X94214884Y-99363464D01*
X94194357Y-99584999D01*
X94194357Y-99585000D01*
X94214884Y-99806535D01*
X94214885Y-99806537D01*
X94275769Y-100020523D01*
X94275775Y-100020538D01*
X94374938Y-100219683D01*
X94374943Y-100219691D01*
X94509020Y-100397238D01*
X94673437Y-100547123D01*
X94673439Y-100547125D01*
X94862595Y-100664245D01*
X94862596Y-100664245D01*
X94862599Y-100664247D01*
X95070060Y-100744618D01*
X95288757Y-100785500D01*
X95288759Y-100785500D01*
X95511241Y-100785500D01*
X95511243Y-100785500D01*
X95649215Y-100759708D01*
X95718730Y-100766739D01*
X95759681Y-100793916D01*
X101888181Y-106922416D01*
X101921666Y-106983739D01*
X101924500Y-107010097D01*
X101924500Y-114680500D01*
X101904815Y-114747539D01*
X101852011Y-114793294D01*
X101800500Y-114804500D01*
X100827129Y-114804500D01*
X100827123Y-114804501D01*
X100767516Y-114810908D01*
X100632671Y-114861202D01*
X100632664Y-114861206D01*
X100517455Y-114947452D01*
X100517452Y-114947455D01*
X100431206Y-115062664D01*
X100431202Y-115062671D01*
X100380908Y-115197517D01*
X100374501Y-115257116D01*
X100374322Y-115260452D01*
X100373065Y-115260384D01*
X100354815Y-115322539D01*
X100302011Y-115368294D01*
X100250500Y-115379500D01*
X94302120Y-115379500D01*
X94235081Y-115359815D01*
X94189326Y-115307011D01*
X94179382Y-115237853D01*
X94202854Y-115181188D01*
X94243352Y-115127089D01*
X94243354Y-115127086D01*
X94293596Y-114992379D01*
X94293598Y-114992372D01*
X94299999Y-114932844D01*
X94300000Y-114932827D01*
X94300000Y-114235000D01*
X93333012Y-114235000D01*
X93365925Y-114177993D01*
X93400000Y-114050826D01*
X93400000Y-113919174D01*
X93365925Y-113792007D01*
X93333012Y-113735000D01*
X94300000Y-113735000D01*
X94300000Y-113037172D01*
X94299999Y-113037155D01*
X94293598Y-112977627D01*
X94293596Y-112977620D01*
X94243354Y-112842913D01*
X94243350Y-112842906D01*
X94157190Y-112727812D01*
X94157187Y-112727809D01*
X94042093Y-112641649D01*
X94042086Y-112641645D01*
X93907379Y-112591403D01*
X93907372Y-112591401D01*
X93847844Y-112585000D01*
X93150000Y-112585000D01*
X93150000Y-113551988D01*
X93092993Y-113519075D01*
X92965826Y-113485000D01*
X92834174Y-113485000D01*
X92707007Y-113519075D01*
X92650000Y-113551988D01*
X92650000Y-112585000D01*
X91952155Y-112585000D01*
X91892627Y-112591401D01*
X91892620Y-112591403D01*
X91757913Y-112641645D01*
X91757906Y-112641649D01*
X91642812Y-112727809D01*
X91642809Y-112727812D01*
X91556649Y-112842906D01*
X91556646Y-112842911D01*
X91538320Y-112892047D01*
X91496448Y-112947980D01*
X91430984Y-112972397D01*
X91362711Y-112957545D01*
X91345976Y-112946566D01*
X91168634Y-112808535D01*
X91168623Y-112808528D01*
X91065481Y-112752709D01*
X91015891Y-112703489D01*
X91000500Y-112643655D01*
X91000500Y-106866951D01*
X93339500Y-106866951D01*
X93361175Y-107031578D01*
X93371334Y-107108744D01*
X93414064Y-107268216D01*
X93434456Y-107344320D01*
X93434459Y-107344330D01*
X93527786Y-107569640D01*
X93527791Y-107569651D01*
X93649727Y-107780848D01*
X93649738Y-107780864D01*
X93798199Y-107974343D01*
X93798205Y-107974350D01*
X93970649Y-108146794D01*
X93970655Y-108146799D01*
X94164144Y-108295268D01*
X94164151Y-108295272D01*
X94375348Y-108417208D01*
X94375353Y-108417210D01*
X94375356Y-108417212D01*
X94600679Y-108510544D01*
X94836256Y-108573666D01*
X95078056Y-108605500D01*
X95078063Y-108605500D01*
X95321937Y-108605500D01*
X95321944Y-108605500D01*
X95563744Y-108573666D01*
X95799321Y-108510544D01*
X96024644Y-108417212D01*
X96235856Y-108295268D01*
X96429345Y-108146799D01*
X96601799Y-107974345D01*
X96750268Y-107780856D01*
X96872212Y-107569644D01*
X96965544Y-107344321D01*
X97028666Y-107108744D01*
X97060500Y-106866944D01*
X97060500Y-106103056D01*
X97028666Y-105861256D01*
X96965544Y-105625679D01*
X96872212Y-105400356D01*
X96872210Y-105400353D01*
X96872208Y-105400348D01*
X96750272Y-105189151D01*
X96750268Y-105189144D01*
X96601799Y-104995655D01*
X96601794Y-104995649D01*
X96429350Y-104823205D01*
X96429343Y-104823199D01*
X96235864Y-104674738D01*
X96235862Y-104674736D01*
X96235856Y-104674732D01*
X96235851Y-104674729D01*
X96235848Y-104674727D01*
X96024651Y-104552791D01*
X96024640Y-104552786D01*
X95799330Y-104459459D01*
X95799323Y-104459457D01*
X95799321Y-104459456D01*
X95563744Y-104396334D01*
X95523333Y-104391013D01*
X95321951Y-104364500D01*
X95321944Y-104364500D01*
X95078056Y-104364500D01*
X95078048Y-104364500D01*
X94847896Y-104394801D01*
X94836256Y-104396334D01*
X94600679Y-104459456D01*
X94600669Y-104459459D01*
X94375359Y-104552786D01*
X94375348Y-104552791D01*
X94164151Y-104674727D01*
X94164135Y-104674738D01*
X93970656Y-104823199D01*
X93970649Y-104823205D01*
X93798205Y-104995649D01*
X93798199Y-104995656D01*
X93649738Y-105189135D01*
X93649727Y-105189151D01*
X93527791Y-105400348D01*
X93527786Y-105400359D01*
X93434459Y-105625669D01*
X93434456Y-105625679D01*
X93394658Y-105774211D01*
X93371335Y-105861253D01*
X93371333Y-105861264D01*
X93339500Y-106103048D01*
X93339500Y-106866951D01*
X91000500Y-106866951D01*
X91000500Y-101685097D01*
X91020185Y-101618058D01*
X91036819Y-101597416D01*
X91481021Y-101153214D01*
X91940320Y-100693914D01*
X92001641Y-100660431D01*
X92050784Y-100659708D01*
X92188757Y-100685500D01*
X92188759Y-100685500D01*
X92411241Y-100685500D01*
X92411243Y-100685500D01*
X92629940Y-100644618D01*
X92837401Y-100564247D01*
X93026562Y-100447124D01*
X93190981Y-100297236D01*
X93325058Y-100119689D01*
X93424229Y-99920528D01*
X93485115Y-99706536D01*
X93505643Y-99485000D01*
X93485115Y-99263464D01*
X93424229Y-99049472D01*
X93374855Y-98950316D01*
X93325061Y-98850316D01*
X93325056Y-98850308D01*
X93249545Y-98750316D01*
X93190981Y-98672764D01*
X93140380Y-98626635D01*
X93104101Y-98566927D01*
X93105861Y-98497079D01*
X93140380Y-98443364D01*
X93190981Y-98397236D01*
X93313667Y-98234772D01*
X93369776Y-98193137D01*
X93412621Y-98185500D01*
X94231346Y-98185500D01*
X94298385Y-98205185D01*
G37*
%TD.AperFunction*%
%TA.AperFunction,Conductor*%
G36*
X104605704Y-105955385D02*
G01*
X104612182Y-105961417D01*
X106363181Y-107712416D01*
X106396666Y-107773739D01*
X106399500Y-107800097D01*
X106399500Y-109498759D01*
X106379815Y-109565798D01*
X106327011Y-109611553D01*
X106257853Y-109621497D01*
X106247111Y-109619466D01*
X106209631Y-109610651D01*
X106209624Y-109610650D01*
X106121016Y-109604500D01*
X106121012Y-109604500D01*
X104678988Y-109604500D01*
X104678984Y-109604500D01*
X104590375Y-109610650D01*
X104590368Y-109610651D01*
X104552889Y-109619466D01*
X104483123Y-109615652D01*
X104426494Y-109574726D01*
X104400982Y-109509680D01*
X104400500Y-109498759D01*
X104400500Y-106174059D01*
X104400501Y-106174046D01*
X104400501Y-106049098D01*
X104420186Y-105982059D01*
X104472990Y-105936304D01*
X104542148Y-105926360D01*
X104605704Y-105955385D01*
G37*
%TD.AperFunction*%
%TA.AperFunction,Conductor*%
G36*
X103093653Y-97797168D02*
G01*
X103128537Y-97819587D01*
X103163439Y-97851405D01*
X103268437Y-97947123D01*
X103268439Y-97947125D01*
X103457595Y-98064245D01*
X103457596Y-98064245D01*
X103457599Y-98064247D01*
X103665060Y-98144618D01*
X103883757Y-98185500D01*
X103883759Y-98185500D01*
X104106241Y-98185500D01*
X104106243Y-98185500D01*
X104324940Y-98144618D01*
X104532401Y-98064247D01*
X104721562Y-97947124D01*
X104830901Y-97847447D01*
X104893704Y-97816832D01*
X104963091Y-97825029D01*
X105002119Y-97851405D01*
X105613681Y-98462967D01*
X105647166Y-98524290D01*
X105650000Y-98550648D01*
X105650000Y-99705000D01*
X105150000Y-99705000D01*
X105150000Y-98455000D01*
X104778007Y-98455000D01*
X104537040Y-98493165D01*
X104305001Y-98568560D01*
X104087622Y-98679321D01*
X103890240Y-98822728D01*
X103717728Y-98995240D01*
X103574321Y-99192622D01*
X103463560Y-99410001D01*
X103388165Y-99642040D01*
X103370275Y-99755000D01*
X104733012Y-99755000D01*
X104715795Y-99764940D01*
X104659940Y-99820795D01*
X104620444Y-99889204D01*
X104600000Y-99965504D01*
X104600000Y-100044496D01*
X104620444Y-100120796D01*
X104659940Y-100189205D01*
X104715795Y-100245060D01*
X104733012Y-100255000D01*
X103370275Y-100255000D01*
X103388165Y-100367959D01*
X103463560Y-100599998D01*
X103574321Y-100817377D01*
X103717728Y-101014759D01*
X103890240Y-101187271D01*
X104075449Y-101321834D01*
X104118114Y-101377164D01*
X104124093Y-101446777D01*
X104091487Y-101508572D01*
X104072640Y-101524452D01*
X104011858Y-101566088D01*
X104011852Y-101566093D01*
X103861093Y-101716852D01*
X103861088Y-101716858D01*
X103740592Y-101892761D01*
X103654467Y-102087817D01*
X103654465Y-102087823D01*
X103605652Y-102295359D01*
X103605650Y-102295375D01*
X103599500Y-102383984D01*
X103599500Y-102950902D01*
X103579815Y-103017941D01*
X103527011Y-103063696D01*
X103457853Y-103073640D01*
X103394297Y-103044615D01*
X103387819Y-103038583D01*
X102731819Y-102382583D01*
X102698334Y-102321260D01*
X102695500Y-102294902D01*
X102695500Y-98094244D01*
X102715185Y-98027205D01*
X102754220Y-97988819D01*
X102821562Y-97947124D01*
X102961462Y-97819587D01*
X103024266Y-97788971D01*
X103093653Y-97797168D01*
G37*
%TD.AperFunction*%
%TA.AperFunction,Conductor*%
G36*
X71334075Y-130007007D02*
G01*
X71300000Y-130134174D01*
X71300000Y-130265826D01*
X71334075Y-130392993D01*
X71366988Y-130450000D01*
X69693012Y-130450000D01*
X69725925Y-130392993D01*
X69760000Y-130265826D01*
X69760000Y-130134174D01*
X69725925Y-130007007D01*
X69693012Y-129950000D01*
X71366988Y-129950000D01*
X71334075Y-130007007D01*
G37*
%TD.AperFunction*%
%TA.AperFunction,Conductor*%
G36*
X73874075Y-130007007D02*
G01*
X73840000Y-130134174D01*
X73840000Y-130265826D01*
X73874075Y-130392993D01*
X73906988Y-130450000D01*
X72233012Y-130450000D01*
X72265925Y-130392993D01*
X72300000Y-130265826D01*
X72300000Y-130134174D01*
X72265925Y-130007007D01*
X72233012Y-129950000D01*
X73906988Y-129950000D01*
X73874075Y-130007007D01*
G37*
%TD.AperFunction*%
%TA.AperFunction,Conductor*%
G36*
X69510000Y-129766988D02*
G01*
X69452993Y-129734075D01*
X69325826Y-129700000D01*
X69194174Y-129700000D01*
X69067007Y-129734075D01*
X69010000Y-129766988D01*
X69010000Y-128093012D01*
X69067007Y-128125925D01*
X69194174Y-128160000D01*
X69325826Y-128160000D01*
X69452993Y-128125925D01*
X69510000Y-128093012D01*
X69510000Y-129766988D01*
G37*
%TD.AperFunction*%
%TA.AperFunction,Conductor*%
G36*
X72050000Y-129766988D02*
G01*
X71992993Y-129734075D01*
X71865826Y-129700000D01*
X71734174Y-129700000D01*
X71607007Y-129734075D01*
X71550000Y-129766988D01*
X71550000Y-128093012D01*
X71607007Y-128125925D01*
X71734174Y-128160000D01*
X71865826Y-128160000D01*
X71992993Y-128125925D01*
X72050000Y-128093012D01*
X72050000Y-129766988D01*
G37*
%TD.AperFunction*%
%TA.AperFunction,Conductor*%
G36*
X74590000Y-129766988D02*
G01*
X74532993Y-129734075D01*
X74405826Y-129700000D01*
X74274174Y-129700000D01*
X74147007Y-129734075D01*
X74090000Y-129766988D01*
X74090000Y-128093012D01*
X74147007Y-128125925D01*
X74274174Y-128160000D01*
X74405826Y-128160000D01*
X74532993Y-128125925D01*
X74590000Y-128093012D01*
X74590000Y-129766988D01*
G37*
%TD.AperFunction*%
%TA.AperFunction,Conductor*%
G36*
X71334075Y-127467007D02*
G01*
X71300000Y-127594174D01*
X71300000Y-127725826D01*
X71334075Y-127852993D01*
X71366988Y-127910000D01*
X69693012Y-127910000D01*
X69725925Y-127852993D01*
X69760000Y-127725826D01*
X69760000Y-127594174D01*
X69725925Y-127467007D01*
X69693012Y-127410000D01*
X71366988Y-127410000D01*
X71334075Y-127467007D01*
G37*
%TD.AperFunction*%
%TA.AperFunction,Conductor*%
G36*
X73874075Y-127467007D02*
G01*
X73840000Y-127594174D01*
X73840000Y-127725826D01*
X73874075Y-127852993D01*
X73906988Y-127910000D01*
X72233012Y-127910000D01*
X72265925Y-127852993D01*
X72300000Y-127725826D01*
X72300000Y-127594174D01*
X72265925Y-127467007D01*
X72233012Y-127410000D01*
X73906988Y-127410000D01*
X73874075Y-127467007D01*
G37*
%TD.AperFunction*%
%TA.AperFunction,Conductor*%
G36*
X110892539Y-38570185D02*
G01*
X110938294Y-38622989D01*
X110949500Y-38674500D01*
X110949500Y-135325500D01*
X110929815Y-135392539D01*
X110877011Y-135438294D01*
X110825500Y-135449500D01*
X62674500Y-135449500D01*
X62607461Y-135429815D01*
X62561706Y-135377011D01*
X62550500Y-135325500D01*
X62550500Y-133215000D01*
X88370275Y-133215000D01*
X88388165Y-133327959D01*
X88463560Y-133559998D01*
X88574321Y-133777377D01*
X88717728Y-133974759D01*
X88890240Y-134147271D01*
X89087622Y-134290678D01*
X89305001Y-134401439D01*
X89537040Y-134476834D01*
X89778007Y-134515000D01*
X90150000Y-134515000D01*
X90150000Y-133265000D01*
X90650000Y-133265000D01*
X90650000Y-134515000D01*
X91021993Y-134515000D01*
X91262959Y-134476834D01*
X91494998Y-134401439D01*
X91712377Y-134290678D01*
X91909759Y-134147271D01*
X92082271Y-133974759D01*
X92225678Y-133777377D01*
X92336439Y-133559998D01*
X92411834Y-133327959D01*
X92429725Y-133215000D01*
X91066988Y-133215000D01*
X91084205Y-133205060D01*
X91140060Y-133149205D01*
X91179556Y-133080796D01*
X91200000Y-133004496D01*
X91200000Y-132925504D01*
X91179556Y-132849204D01*
X91140060Y-132780795D01*
X91084205Y-132724940D01*
X91066988Y-132715000D01*
X92429725Y-132715000D01*
X92411834Y-132602040D01*
X92336439Y-132370001D01*
X92225678Y-132152622D01*
X92082271Y-131955240D01*
X91909759Y-131782728D01*
X91724550Y-131648165D01*
X91681885Y-131592835D01*
X91675906Y-131523221D01*
X91708512Y-131461426D01*
X91727354Y-131445551D01*
X91788142Y-131403911D01*
X91938911Y-131253142D01*
X92059409Y-131077237D01*
X92145532Y-130882185D01*
X92194349Y-130674630D01*
X92200500Y-130586012D01*
X92200500Y-129143988D01*
X92194349Y-129055370D01*
X92194347Y-129055364D01*
X92194347Y-129055359D01*
X92145534Y-128847823D01*
X92145532Y-128847817D01*
X92145532Y-128847815D01*
X92059409Y-128652763D01*
X91938911Y-128476858D01*
X91938906Y-128476852D01*
X91788147Y-128326093D01*
X91788141Y-128326088D01*
X91647690Y-128229877D01*
X91612237Y-128205591D01*
X91417185Y-128119468D01*
X91417183Y-128119467D01*
X91417182Y-128119467D01*
X91417176Y-128119465D01*
X91209640Y-128070652D01*
X91209624Y-128070650D01*
X91121016Y-128064500D01*
X91121012Y-128064500D01*
X89678988Y-128064500D01*
X89678984Y-128064500D01*
X89590375Y-128070650D01*
X89590359Y-128070652D01*
X89382823Y-128119465D01*
X89382817Y-128119467D01*
X89187761Y-128205592D01*
X89011858Y-128326088D01*
X89011852Y-128326093D01*
X88861093Y-128476852D01*
X88861088Y-128476858D01*
X88740592Y-128652761D01*
X88740591Y-128652763D01*
X88706501Y-128729970D01*
X88654467Y-128847817D01*
X88654465Y-128847823D01*
X88605652Y-129055359D01*
X88605650Y-129055375D01*
X88599500Y-129143984D01*
X88599500Y-130586015D01*
X88605650Y-130674624D01*
X88605652Y-130674640D01*
X88654465Y-130882176D01*
X88654467Y-130882182D01*
X88654468Y-130882185D01*
X88740591Y-131077237D01*
X88740592Y-131077238D01*
X88861088Y-131253141D01*
X88861093Y-131253147D01*
X89011852Y-131403906D01*
X89011857Y-131403910D01*
X89011858Y-131403911D01*
X89011859Y-131403912D01*
X89011862Y-131403914D01*
X89037742Y-131421642D01*
X89072637Y-131445546D01*
X89072639Y-131445547D01*
X89116822Y-131499673D01*
X89124729Y-131569093D01*
X89093849Y-131631769D01*
X89075449Y-131648165D01*
X88890241Y-131782727D01*
X88717728Y-131955240D01*
X88574321Y-132152622D01*
X88463560Y-132370001D01*
X88388165Y-132602040D01*
X88370275Y-132715000D01*
X89733012Y-132715000D01*
X89715795Y-132724940D01*
X89659940Y-132780795D01*
X89620444Y-132849204D01*
X89600000Y-132925504D01*
X89600000Y-133004496D01*
X89620444Y-133080796D01*
X89659940Y-133149205D01*
X89715795Y-133205060D01*
X89733012Y-133215000D01*
X88370275Y-133215000D01*
X62550500Y-133215000D01*
X62550500Y-124137000D01*
X64566317Y-124137000D01*
X64586083Y-124388151D01*
X64644892Y-124633110D01*
X64741299Y-124865859D01*
X64872926Y-125080653D01*
X64872927Y-125080656D01*
X64928370Y-125145571D01*
X65036542Y-125272224D01*
X65147656Y-125367124D01*
X65228109Y-125435838D01*
X65228111Y-125435838D01*
X65245504Y-125446497D01*
X65438259Y-125564618D01*
X65442907Y-125567466D01*
X65494719Y-125588927D01*
X65549121Y-125632765D01*
X65571187Y-125699059D01*
X65571266Y-125703487D01*
X65571266Y-126346357D01*
X65551581Y-126413396D01*
X65521579Y-126445622D01*
X65512459Y-126452449D01*
X65512451Y-126452457D01*
X65426206Y-126567664D01*
X65426202Y-126567671D01*
X65375908Y-126702517D01*
X65369501Y-126762116D01*
X65369500Y-126762135D01*
X65369500Y-128557870D01*
X65369501Y-128557876D01*
X65375908Y-128617483D01*
X65426202Y-128752328D01*
X65426206Y-128752335D01*
X65512452Y-128867544D01*
X65512455Y-128867547D01*
X65627664Y-128953793D01*
X65627671Y-128953797D01*
X65759081Y-129002810D01*
X65815015Y-129044681D01*
X65839432Y-129110145D01*
X65824580Y-129178418D01*
X65803430Y-129206673D01*
X65681503Y-129328600D01*
X65545965Y-129522169D01*
X65545964Y-129522171D01*
X65446098Y-129736335D01*
X65446094Y-129736344D01*
X65384938Y-129964586D01*
X65384936Y-129964596D01*
X65364341Y-130199999D01*
X65364341Y-130200000D01*
X65384936Y-130435403D01*
X65384938Y-130435413D01*
X65446094Y-130663655D01*
X65446096Y-130663659D01*
X65446097Y-130663663D01*
X65525801Y-130834588D01*
X65545965Y-130877830D01*
X65545967Y-130877834D01*
X65582272Y-130929682D01*
X65681505Y-131071401D01*
X65848599Y-131238495D01*
X65945384Y-131306265D01*
X66042165Y-131374032D01*
X66042167Y-131374033D01*
X66042170Y-131374035D01*
X66256337Y-131473903D01*
X66484592Y-131535063D01*
X66672918Y-131551539D01*
X66719999Y-131555659D01*
X66720000Y-131555659D01*
X66720001Y-131555659D01*
X66759234Y-131552226D01*
X66955408Y-131535063D01*
X67183663Y-131473903D01*
X67397830Y-131374035D01*
X67591401Y-131238495D01*
X67758495Y-131071401D01*
X67888730Y-130885405D01*
X67943307Y-130841781D01*
X68012805Y-130834587D01*
X68075160Y-130866110D01*
X68091879Y-130885405D01*
X68221890Y-131071078D01*
X68388917Y-131238105D01*
X68582421Y-131373600D01*
X68796507Y-131473429D01*
X68796516Y-131473433D01*
X69010000Y-131530634D01*
X69010000Y-130633012D01*
X69067007Y-130665925D01*
X69194174Y-130700000D01*
X69325826Y-130700000D01*
X69452993Y-130665925D01*
X69510000Y-130633012D01*
X69510000Y-131530633D01*
X69723483Y-131473433D01*
X69723492Y-131473429D01*
X69937578Y-131373600D01*
X70131082Y-131238105D01*
X70298105Y-131071082D01*
X70428425Y-130884968D01*
X70483002Y-130841344D01*
X70552501Y-130834151D01*
X70614855Y-130865673D01*
X70631575Y-130884968D01*
X70761894Y-131071082D01*
X70928917Y-131238105D01*
X71122421Y-131373600D01*
X71336507Y-131473429D01*
X71336516Y-131473433D01*
X71550000Y-131530634D01*
X71550000Y-130633012D01*
X71607007Y-130665925D01*
X71734174Y-130700000D01*
X71865826Y-130700000D01*
X71992993Y-130665925D01*
X72050000Y-130633012D01*
X72050000Y-131530633D01*
X72263483Y-131473433D01*
X72263492Y-131473429D01*
X72477578Y-131373600D01*
X72671082Y-131238105D01*
X72838105Y-131071082D01*
X72968425Y-130884968D01*
X73023002Y-130841344D01*
X73092501Y-130834151D01*
X73154855Y-130865673D01*
X73171575Y-130884968D01*
X73301894Y-131071082D01*
X73468917Y-131238105D01*
X73662421Y-131373600D01*
X73876507Y-131473429D01*
X73876516Y-131473433D01*
X74090000Y-131530634D01*
X74090000Y-130633012D01*
X74147007Y-130665925D01*
X74274174Y-130700000D01*
X74405826Y-130700000D01*
X74532993Y-130665925D01*
X74590000Y-130633012D01*
X74590000Y-131530633D01*
X74803483Y-131473433D01*
X74803492Y-131473429D01*
X75017578Y-131373600D01*
X75211082Y-131238105D01*
X75378105Y-131071082D01*
X75508119Y-130885405D01*
X75562696Y-130841781D01*
X75632195Y-130834588D01*
X75694549Y-130866110D01*
X75711269Y-130885405D01*
X75841505Y-131071401D01*
X76008599Y-131238495D01*
X76105384Y-131306265D01*
X76202165Y-131374032D01*
X76202167Y-131374033D01*
X76202170Y-131374035D01*
X76416337Y-131473903D01*
X76644592Y-131535063D01*
X76832918Y-131551539D01*
X76879999Y-131555659D01*
X76880000Y-131555659D01*
X76880001Y-131555659D01*
X76919234Y-131552226D01*
X77115408Y-131535063D01*
X77343663Y-131473903D01*
X77557830Y-131374035D01*
X77751401Y-131238495D01*
X77918495Y-131071401D01*
X78054035Y-130877830D01*
X78153903Y-130663663D01*
X78215063Y-130435408D01*
X78235659Y-130200000D01*
X78215063Y-129964592D01*
X78153903Y-129736337D01*
X78054035Y-129522171D01*
X78048731Y-129514595D01*
X77918494Y-129328597D01*
X77751402Y-129161506D01*
X77751396Y-129161501D01*
X77565842Y-129031575D01*
X77522217Y-128976998D01*
X77515023Y-128907500D01*
X77546546Y-128845145D01*
X77565842Y-128828425D01*
X77643947Y-128773735D01*
X77751401Y-128698495D01*
X77918495Y-128531401D01*
X78054035Y-128337830D01*
X78153903Y-128123663D01*
X78215063Y-127895408D01*
X78229205Y-127733766D01*
X78830551Y-127733766D01*
X78850317Y-127984917D01*
X78909126Y-128229876D01*
X79005533Y-128462625D01*
X79086520Y-128594782D01*
X79104765Y-128662228D01*
X79083649Y-128728830D01*
X79055105Y-128758838D01*
X78978452Y-128816221D01*
X78892206Y-128931430D01*
X78892202Y-128931437D01*
X78841908Y-129066283D01*
X78837589Y-129106459D01*
X78835501Y-129125889D01*
X78835500Y-129125901D01*
X78835500Y-131421636D01*
X78835501Y-131421642D01*
X78841908Y-131481249D01*
X78892202Y-131616094D01*
X78892206Y-131616101D01*
X78978452Y-131731310D01*
X78978455Y-131731313D01*
X79093664Y-131817559D01*
X79093671Y-131817563D01*
X79228517Y-131867857D01*
X79228516Y-131867857D01*
X79235444Y-131868601D01*
X79288127Y-131874266D01*
X81583872Y-131874265D01*
X81643483Y-131867857D01*
X81778331Y-131817562D01*
X81893546Y-131731312D01*
X81979796Y-131616097D01*
X82030091Y-131481249D01*
X82036500Y-131421639D01*
X82036499Y-129125894D01*
X82030091Y-129066283D01*
X82021919Y-129044374D01*
X81979797Y-128931437D01*
X81979793Y-128931430D01*
X81893547Y-128816221D01*
X81816894Y-128758838D01*
X81775024Y-128702904D01*
X81770040Y-128633212D01*
X81785476Y-128594787D01*
X81866466Y-128462625D01*
X81962873Y-128229877D01*
X82021683Y-127984914D01*
X82041449Y-127733766D01*
X82021683Y-127482618D01*
X81962873Y-127237655D01*
X81941410Y-127185839D01*
X81933942Y-127116373D01*
X81965216Y-127053894D01*
X81968262Y-127050737D01*
X83377182Y-125641819D01*
X83438505Y-125608334D01*
X83464863Y-125605500D01*
X83611241Y-125605500D01*
X83611243Y-125605500D01*
X83829940Y-125564618D01*
X84037401Y-125484247D01*
X84226562Y-125367124D01*
X84390981Y-125217236D01*
X84525058Y-125039689D01*
X84624229Y-124840528D01*
X84685115Y-124626536D01*
X84705643Y-124405000D01*
X84704081Y-124388148D01*
X84685115Y-124183464D01*
X84685114Y-124183462D01*
X84683545Y-124177949D01*
X84624229Y-123969472D01*
X84599478Y-123919765D01*
X84525061Y-123770316D01*
X84525056Y-123770308D01*
X84455889Y-123678716D01*
X84390981Y-123592764D01*
X84340380Y-123546635D01*
X84304101Y-123486927D01*
X84305861Y-123417079D01*
X84340380Y-123363364D01*
X84390981Y-123317236D01*
X84525058Y-123139689D01*
X84624229Y-122940528D01*
X84685115Y-122726536D01*
X84705643Y-122505000D01*
X84697763Y-122419965D01*
X84685115Y-122283464D01*
X84685114Y-122283462D01*
X84672612Y-122239523D01*
X84624229Y-122069472D01*
X84613896Y-122048720D01*
X84525061Y-121870316D01*
X84525056Y-121870308D01*
X84390979Y-121692761D01*
X84226562Y-121542876D01*
X84226560Y-121542874D01*
X84037404Y-121425754D01*
X84037398Y-121425752D01*
X84022783Y-121420090D01*
X83829940Y-121345382D01*
X83611243Y-121304500D01*
X83388757Y-121304500D01*
X83170060Y-121345382D01*
X83150089Y-121353119D01*
X82962601Y-121425752D01*
X82962595Y-121425754D01*
X82773439Y-121542874D01*
X82773437Y-121542876D01*
X82609020Y-121692761D01*
X82474943Y-121870308D01*
X82474938Y-121870316D01*
X82375775Y-122069461D01*
X82375769Y-122069476D01*
X82314885Y-122283462D01*
X82314884Y-122283464D01*
X82294357Y-122504999D01*
X82294357Y-122505000D01*
X82314884Y-122726535D01*
X82314885Y-122726537D01*
X82375769Y-122940523D01*
X82375775Y-122940538D01*
X82474938Y-123139683D01*
X82474943Y-123139691D01*
X82515462Y-123193346D01*
X82609017Y-123317234D01*
X82609021Y-123317238D01*
X82609026Y-123317243D01*
X82659617Y-123363364D01*
X82695898Y-123423076D01*
X82694137Y-123492923D01*
X82659617Y-123546636D01*
X82609026Y-123592756D01*
X82609021Y-123592761D01*
X82474943Y-123770308D01*
X82474938Y-123770316D01*
X82375775Y-123969461D01*
X82375769Y-123969476D01*
X82314885Y-124183462D01*
X82314884Y-124183464D01*
X82294357Y-124404999D01*
X82294357Y-124405000D01*
X82314884Y-124626535D01*
X82314885Y-124626538D01*
X82377339Y-124846042D01*
X82376199Y-124846366D01*
X82381545Y-124909952D01*
X82348828Y-124971688D01*
X82347741Y-124972788D01*
X81119056Y-126201473D01*
X81057733Y-126234958D01*
X80988041Y-126229974D01*
X80983923Y-126228353D01*
X80932113Y-126206893D01*
X80687151Y-126148083D01*
X80436000Y-126128317D01*
X80184848Y-126148083D01*
X79939889Y-126206892D01*
X79707140Y-126303299D01*
X79492346Y-126434926D01*
X79492343Y-126434927D01*
X79300776Y-126598542D01*
X79137161Y-126790109D01*
X79137160Y-126790112D01*
X79005533Y-127004906D01*
X78909126Y-127237655D01*
X78850317Y-127482614D01*
X78830551Y-127733766D01*
X78229205Y-127733766D01*
X78235659Y-127660000D01*
X78215063Y-127424592D01*
X78153903Y-127196337D01*
X78054035Y-126982171D01*
X78048731Y-126974595D01*
X77918494Y-126788597D01*
X77751402Y-126621506D01*
X77751395Y-126621501D01*
X77557834Y-126485967D01*
X77557830Y-126485965D01*
X77485972Y-126452457D01*
X77343663Y-126386097D01*
X77343659Y-126386096D01*
X77343655Y-126386094D01*
X77115413Y-126324938D01*
X77115403Y-126324936D01*
X76880001Y-126304341D01*
X76879999Y-126304341D01*
X76644596Y-126324936D01*
X76644586Y-126324938D01*
X76416344Y-126386094D01*
X76416335Y-126386098D01*
X76202171Y-126485964D01*
X76202169Y-126485965D01*
X76008597Y-126621505D01*
X75841508Y-126788594D01*
X75711269Y-126974595D01*
X75656692Y-127018219D01*
X75587193Y-127025412D01*
X75524839Y-126993890D01*
X75508119Y-126974594D01*
X75378113Y-126788926D01*
X75378108Y-126788920D01*
X75211082Y-126621894D01*
X75017578Y-126486399D01*
X74803492Y-126386570D01*
X74803486Y-126386567D01*
X74590000Y-126329364D01*
X74590000Y-127226988D01*
X74532993Y-127194075D01*
X74405826Y-127160000D01*
X74274174Y-127160000D01*
X74147007Y-127194075D01*
X74090000Y-127226988D01*
X74090000Y-126329364D01*
X74089999Y-126329364D01*
X73876513Y-126386567D01*
X73876507Y-126386570D01*
X73662422Y-126486399D01*
X73662420Y-126486400D01*
X73468926Y-126621886D01*
X73468920Y-126621891D01*
X73301891Y-126788920D01*
X73301890Y-126788922D01*
X73171575Y-126975031D01*
X73116998Y-127018655D01*
X73047499Y-127025848D01*
X72985145Y-126994326D01*
X72968425Y-126975031D01*
X72838109Y-126788922D01*
X72838108Y-126788920D01*
X72671082Y-126621894D01*
X72477578Y-126486399D01*
X72263492Y-126386570D01*
X72263486Y-126386567D01*
X72050000Y-126329364D01*
X72050000Y-127226988D01*
X71992993Y-127194075D01*
X71865826Y-127160000D01*
X71734174Y-127160000D01*
X71607007Y-127194075D01*
X71550000Y-127226988D01*
X71550000Y-126329364D01*
X71549999Y-126329364D01*
X71336513Y-126386567D01*
X71336507Y-126386570D01*
X71122422Y-126486399D01*
X71122420Y-126486400D01*
X70928926Y-126621886D01*
X70928920Y-126621891D01*
X70761891Y-126788920D01*
X70761890Y-126788922D01*
X70631575Y-126975031D01*
X70576998Y-127018655D01*
X70507499Y-127025848D01*
X70445145Y-126994326D01*
X70428425Y-126975031D01*
X70298109Y-126788922D01*
X70298108Y-126788920D01*
X70131082Y-126621894D01*
X69937578Y-126486399D01*
X69723492Y-126386570D01*
X69723486Y-126386567D01*
X69510000Y-126329364D01*
X69510000Y-127226988D01*
X69452993Y-127194075D01*
X69325826Y-127160000D01*
X69194174Y-127160000D01*
X69067007Y-127194075D01*
X69010000Y-127226988D01*
X69010000Y-126329364D01*
X69009999Y-126329364D01*
X68796513Y-126386567D01*
X68796507Y-126386570D01*
X68582422Y-126486399D01*
X68582420Y-126486400D01*
X68388926Y-126621886D01*
X68266865Y-126743947D01*
X68205542Y-126777431D01*
X68135850Y-126772447D01*
X68079917Y-126730575D01*
X68063002Y-126699598D01*
X68013797Y-126567671D01*
X68013793Y-126567664D01*
X67927547Y-126452455D01*
X67927544Y-126452452D01*
X67812335Y-126366206D01*
X67812328Y-126366202D01*
X67677482Y-126315908D01*
X67677483Y-126315908D01*
X67617883Y-126309501D01*
X67617881Y-126309500D01*
X67617873Y-126309500D01*
X67617865Y-126309500D01*
X66896266Y-126309500D01*
X66829227Y-126289815D01*
X66783472Y-126237011D01*
X66772266Y-126185500D01*
X66772266Y-125703487D01*
X66791951Y-125636448D01*
X66844755Y-125590693D01*
X66848768Y-125588945D01*
X66900625Y-125567466D01*
X67032785Y-125486477D01*
X67100227Y-125468234D01*
X67166830Y-125489350D01*
X67196838Y-125517894D01*
X67254221Y-125594547D01*
X67369430Y-125680793D01*
X67369437Y-125680797D01*
X67504283Y-125731091D01*
X67504282Y-125731091D01*
X67511210Y-125731835D01*
X67563893Y-125737500D01*
X69859638Y-125737499D01*
X69919249Y-125731091D01*
X70054097Y-125680796D01*
X70169312Y-125594546D01*
X70255562Y-125479331D01*
X70305857Y-125344483D01*
X70312266Y-125284873D01*
X70312265Y-125284845D01*
X70312444Y-125281548D01*
X70313583Y-125281609D01*
X70331918Y-125219060D01*
X70384701Y-125173281D01*
X70453855Y-125163305D01*
X70517424Y-125192300D01*
X70547265Y-125230779D01*
X70614938Y-125366683D01*
X70614943Y-125366691D01*
X70749020Y-125544238D01*
X70913437Y-125694123D01*
X70913439Y-125694125D01*
X71102595Y-125811245D01*
X71102596Y-125811245D01*
X71102599Y-125811247D01*
X71310060Y-125891618D01*
X71528757Y-125932500D01*
X71528759Y-125932500D01*
X71751241Y-125932500D01*
X71751243Y-125932500D01*
X71969940Y-125891618D01*
X72177401Y-125811247D01*
X72366562Y-125694124D01*
X72530981Y-125544236D01*
X72665058Y-125366689D01*
X72764229Y-125167528D01*
X72825115Y-124953536D01*
X72845643Y-124732000D01*
X72843582Y-124709763D01*
X72825115Y-124510464D01*
X72825114Y-124510462D01*
X72795107Y-124404999D01*
X72764229Y-124296472D01*
X72758247Y-124284458D01*
X72665061Y-124097316D01*
X72665056Y-124097308D01*
X72611553Y-124026459D01*
X72530981Y-123919764D01*
X72480380Y-123873635D01*
X72444101Y-123813927D01*
X72445861Y-123744079D01*
X72480380Y-123690364D01*
X72530981Y-123644236D01*
X72665058Y-123466689D01*
X72764229Y-123267528D01*
X72825115Y-123053536D01*
X72845643Y-122832000D01*
X72835870Y-122726536D01*
X72825115Y-122610464D01*
X72825114Y-122610462D01*
X72825018Y-122610126D01*
X72764229Y-122396472D01*
X72753350Y-122374624D01*
X72665061Y-122197316D01*
X72665056Y-122197308D01*
X72530979Y-122019761D01*
X72366563Y-121869877D01*
X72366562Y-121869876D01*
X72299221Y-121828180D01*
X72252587Y-121776153D01*
X72240500Y-121722754D01*
X72240500Y-120356922D01*
X72260185Y-120289883D01*
X72312989Y-120244128D01*
X72351247Y-120233632D01*
X72374884Y-120231091D01*
X72459479Y-120199539D01*
X72509732Y-120180796D01*
X72624947Y-120094546D01*
X72642394Y-120071240D01*
X73086712Y-120071240D01*
X73174986Y-120125897D01*
X73365079Y-120199539D01*
X73565473Y-120237000D01*
X73769329Y-120237000D01*
X73969723Y-120199539D01*
X74002096Y-120186998D01*
X77340000Y-120186998D01*
X77340000Y-120584842D01*
X77346401Y-120644370D01*
X77346403Y-120644377D01*
X77396645Y-120779084D01*
X77396649Y-120779091D01*
X77482809Y-120894185D01*
X77482812Y-120894188D01*
X77597906Y-120980348D01*
X77597913Y-120980352D01*
X77732620Y-121030594D01*
X77732627Y-121030596D01*
X77792155Y-121036997D01*
X77792172Y-121036998D01*
X78190000Y-121036998D01*
X78190000Y-120186998D01*
X77340000Y-120186998D01*
X74002096Y-120186998D01*
X74159813Y-120125899D01*
X74159817Y-120125897D01*
X74248087Y-120071241D01*
X74248087Y-120071240D01*
X74153341Y-119976494D01*
X78140000Y-119976494D01*
X78160444Y-120052794D01*
X78199940Y-120121203D01*
X78255795Y-120177058D01*
X78324204Y-120216554D01*
X78400504Y-120236998D01*
X78479496Y-120236998D01*
X78555796Y-120216554D01*
X78624205Y-120177058D01*
X78680060Y-120121203D01*
X78690000Y-120103986D01*
X78690000Y-121036998D01*
X79087828Y-121036998D01*
X79087844Y-121036997D01*
X79147372Y-121030596D01*
X79147379Y-121030594D01*
X79282086Y-120980352D01*
X79282093Y-120980348D01*
X79397187Y-120894188D01*
X79397190Y-120894185D01*
X79483350Y-120779091D01*
X79487604Y-120771302D01*
X79489788Y-120772494D01*
X79523730Y-120727146D01*
X79589192Y-120702724D01*
X79657466Y-120717570D01*
X79681586Y-120734770D01*
X79773958Y-120818978D01*
X79773960Y-120818980D01*
X79814350Y-120843988D01*
X79947363Y-120926346D01*
X80137544Y-121000022D01*
X80338024Y-121037498D01*
X80338026Y-121037498D01*
X80541974Y-121037498D01*
X80541976Y-121037498D01*
X80742456Y-121000022D01*
X80932637Y-120926346D01*
X81106041Y-120818979D01*
X81256764Y-120681577D01*
X81379673Y-120518819D01*
X81470582Y-120336248D01*
X81526397Y-120140081D01*
X81545215Y-119936998D01*
X81544104Y-119925013D01*
X81526397Y-119733915D01*
X81522026Y-119718553D01*
X81470582Y-119537748D01*
X81379673Y-119355177D01*
X81284855Y-119229618D01*
X81256762Y-119192416D01*
X81106041Y-119055017D01*
X81106039Y-119055015D01*
X80932642Y-118947653D01*
X80932635Y-118947649D01*
X80793228Y-118893643D01*
X80742456Y-118873974D01*
X80541976Y-118836498D01*
X80338024Y-118836498D01*
X80137544Y-118873974D01*
X80137541Y-118873974D01*
X80137541Y-118873975D01*
X79947364Y-118947649D01*
X79947357Y-118947653D01*
X79773960Y-119055015D01*
X79773957Y-119055017D01*
X79681586Y-119139225D01*
X79618782Y-119169842D01*
X79549395Y-119161644D01*
X79495455Y-119117234D01*
X79487870Y-119102548D01*
X79487604Y-119102694D01*
X79483350Y-119094904D01*
X79397190Y-118979810D01*
X79397187Y-118979807D01*
X79282093Y-118893647D01*
X79282086Y-118893643D01*
X79147379Y-118843401D01*
X79147372Y-118843399D01*
X79087844Y-118836998D01*
X78690000Y-118836998D01*
X78690000Y-119770009D01*
X78680060Y-119752793D01*
X78624205Y-119696938D01*
X78555796Y-119657442D01*
X78479496Y-119636998D01*
X78400504Y-119636998D01*
X78324204Y-119657442D01*
X78255795Y-119696938D01*
X78199940Y-119752793D01*
X78160444Y-119821202D01*
X78140000Y-119897502D01*
X78140000Y-119976494D01*
X74153341Y-119976494D01*
X73667402Y-119490553D01*
X73667401Y-119490553D01*
X73086712Y-120071240D01*
X72642394Y-120071240D01*
X72711197Y-119979331D01*
X72761492Y-119844483D01*
X72767901Y-119784873D01*
X72767900Y-119734305D01*
X72787583Y-119667269D01*
X72804219Y-119646626D01*
X73274351Y-119176496D01*
X73367401Y-119176496D01*
X73387845Y-119252796D01*
X73427341Y-119321205D01*
X73483196Y-119377060D01*
X73551605Y-119416556D01*
X73627905Y-119437000D01*
X73706897Y-119437000D01*
X73783197Y-119416556D01*
X73851606Y-119377060D01*
X73907461Y-119321205D01*
X73946957Y-119252796D01*
X73967401Y-119176496D01*
X73967401Y-119137000D01*
X74020954Y-119137000D01*
X74604866Y-119720912D01*
X74606648Y-119718553D01*
X74606649Y-119718551D01*
X74622360Y-119686998D01*
X77340000Y-119686998D01*
X78190000Y-119686998D01*
X78190000Y-118836998D01*
X77792155Y-118836998D01*
X77732627Y-118843399D01*
X77732620Y-118843401D01*
X77597913Y-118893643D01*
X77597906Y-118893647D01*
X77482812Y-118979807D01*
X77482809Y-118979810D01*
X77396649Y-119094904D01*
X77396645Y-119094911D01*
X77346403Y-119229618D01*
X77346401Y-119229625D01*
X77340000Y-119289153D01*
X77340000Y-119686998D01*
X74622360Y-119686998D01*
X74697514Y-119536069D01*
X74697517Y-119536063D01*
X74753303Y-119339992D01*
X74753304Y-119339989D01*
X74772114Y-119137000D01*
X74772114Y-119136999D01*
X74753304Y-118934010D01*
X74753303Y-118934007D01*
X74697517Y-118737936D01*
X74697514Y-118737930D01*
X74606650Y-118555449D01*
X74606648Y-118555447D01*
X74604866Y-118553087D01*
X74020954Y-119137000D01*
X73967401Y-119137000D01*
X73967401Y-119097504D01*
X73946957Y-119021204D01*
X73907461Y-118952795D01*
X73851606Y-118896940D01*
X73783197Y-118857444D01*
X73706897Y-118837000D01*
X73627905Y-118837000D01*
X73551605Y-118857444D01*
X73483196Y-118896940D01*
X73427341Y-118952795D01*
X73387845Y-119021204D01*
X73367401Y-119097504D01*
X73367401Y-119176496D01*
X73274351Y-119176496D01*
X73313847Y-119137000D01*
X73313847Y-119136999D01*
X72804219Y-118627371D01*
X72770734Y-118566048D01*
X72767900Y-118539690D01*
X72767900Y-118489129D01*
X72767899Y-118489123D01*
X72767898Y-118489116D01*
X72761492Y-118429517D01*
X72714334Y-118303081D01*
X72711198Y-118294671D01*
X72711194Y-118294664D01*
X72642393Y-118202758D01*
X73086712Y-118202758D01*
X73667401Y-118783446D01*
X73667402Y-118783446D01*
X74248088Y-118202758D01*
X74159814Y-118148101D01*
X74159812Y-118148100D01*
X73969722Y-118074460D01*
X73769329Y-118037000D01*
X73565473Y-118037000D01*
X73365079Y-118074460D01*
X73174989Y-118148100D01*
X73174982Y-118148104D01*
X73086713Y-118202757D01*
X73086712Y-118202758D01*
X72642393Y-118202758D01*
X72624948Y-118179455D01*
X72624945Y-118179452D01*
X72509736Y-118093206D01*
X72509729Y-118093202D01*
X72374883Y-118042908D01*
X72374884Y-118042908D01*
X72315284Y-118036501D01*
X72315282Y-118036500D01*
X72315274Y-118036500D01*
X72315265Y-118036500D01*
X71019530Y-118036500D01*
X71019524Y-118036501D01*
X70959917Y-118042908D01*
X70825072Y-118093202D01*
X70825065Y-118093206D01*
X70709856Y-118179452D01*
X70709853Y-118179455D01*
X70623607Y-118294664D01*
X70623603Y-118294671D01*
X70573309Y-118429517D01*
X70566902Y-118489116D01*
X70566902Y-118489123D01*
X70566901Y-118489135D01*
X70566901Y-119784870D01*
X70566902Y-119784876D01*
X70573309Y-119844483D01*
X70623603Y-119979328D01*
X70623607Y-119979335D01*
X70709853Y-120094544D01*
X70709856Y-120094547D01*
X70825065Y-120180793D01*
X70825074Y-120180798D01*
X70958832Y-120230686D01*
X71014766Y-120272557D01*
X71039184Y-120338021D01*
X71039500Y-120346868D01*
X71039500Y-121722754D01*
X71019815Y-121789793D01*
X70980778Y-121828181D01*
X70913436Y-121869877D01*
X70749020Y-122019761D01*
X70614943Y-122197308D01*
X70614938Y-122197316D01*
X70515775Y-122396461D01*
X70515769Y-122396476D01*
X70454885Y-122610462D01*
X70454885Y-122610463D01*
X70447459Y-122690602D01*
X70421673Y-122755539D01*
X70364872Y-122796226D01*
X70295091Y-122799746D01*
X70234485Y-122764981D01*
X70224722Y-122753471D01*
X70169313Y-122679455D01*
X70169310Y-122679452D01*
X70054101Y-122593206D01*
X70054094Y-122593202D01*
X69919248Y-122542908D01*
X69919249Y-122542908D01*
X69859649Y-122536501D01*
X69859647Y-122536500D01*
X69859639Y-122536500D01*
X69859630Y-122536500D01*
X67563895Y-122536500D01*
X67563889Y-122536501D01*
X67504282Y-122542908D01*
X67369437Y-122593202D01*
X67369430Y-122593206D01*
X67254221Y-122679452D01*
X67196838Y-122756105D01*
X67140904Y-122797976D01*
X67071212Y-122802959D01*
X67032782Y-122787520D01*
X66900625Y-122706533D01*
X66667876Y-122610126D01*
X66422917Y-122551317D01*
X66171766Y-122531551D01*
X65920614Y-122551317D01*
X65675655Y-122610126D01*
X65442906Y-122706533D01*
X65228112Y-122838160D01*
X65228109Y-122838161D01*
X65036542Y-123001776D01*
X64872927Y-123193343D01*
X64872926Y-123193346D01*
X64741299Y-123408140D01*
X64644892Y-123640889D01*
X64586083Y-123885848D01*
X64566317Y-124137000D01*
X62550500Y-124137000D01*
X62550500Y-113985006D01*
X66494700Y-113985006D01*
X66513864Y-114216297D01*
X66513866Y-114216308D01*
X66570842Y-114441300D01*
X66664075Y-114653848D01*
X66791016Y-114848147D01*
X66791019Y-114848151D01*
X66791021Y-114848153D01*
X66948216Y-115018913D01*
X66948219Y-115018915D01*
X66948222Y-115018918D01*
X67131365Y-115161464D01*
X67131371Y-115161468D01*
X67131374Y-115161470D01*
X67335497Y-115271936D01*
X67428841Y-115303981D01*
X67555015Y-115347297D01*
X67555017Y-115347297D01*
X67555019Y-115347298D01*
X67783951Y-115385500D01*
X67783952Y-115385500D01*
X68016048Y-115385500D01*
X68016049Y-115385500D01*
X68244981Y-115347298D01*
X68464503Y-115271936D01*
X68668626Y-115161470D01*
X68851784Y-115018913D01*
X69008979Y-114848153D01*
X69046191Y-114791196D01*
X69099337Y-114745839D01*
X69168569Y-114736415D01*
X69231904Y-114765917D01*
X69253809Y-114791196D01*
X69291016Y-114848147D01*
X69291019Y-114848151D01*
X69291021Y-114848153D01*
X69448216Y-115018913D01*
X69448219Y-115018915D01*
X69448222Y-115018918D01*
X69631365Y-115161464D01*
X69631371Y-115161468D01*
X69631374Y-115161470D01*
X69835497Y-115271936D01*
X69928841Y-115303981D01*
X70055015Y-115347297D01*
X70055017Y-115347297D01*
X70055019Y-115347298D01*
X70283951Y-115385500D01*
X70283952Y-115385500D01*
X70516048Y-115385500D01*
X70516049Y-115385500D01*
X70744981Y-115347298D01*
X70964503Y-115271936D01*
X71168626Y-115161470D01*
X71345978Y-115023431D01*
X71410969Y-114997790D01*
X71479509Y-115011356D01*
X71529834Y-115059824D01*
X71538320Y-115077953D01*
X71556645Y-115127086D01*
X71556649Y-115127093D01*
X71642809Y-115242187D01*
X71642812Y-115242190D01*
X71757906Y-115328350D01*
X71757913Y-115328354D01*
X71892620Y-115378596D01*
X71892627Y-115378598D01*
X71952155Y-115384999D01*
X71952172Y-115385000D01*
X72650000Y-115385000D01*
X72650000Y-114418012D01*
X72707007Y-114450925D01*
X72834174Y-114485000D01*
X72965826Y-114485000D01*
X73092993Y-114450925D01*
X73150000Y-114418012D01*
X73150000Y-115385000D01*
X73847828Y-115385000D01*
X73847844Y-115384999D01*
X73907372Y-115378598D01*
X73907379Y-115378596D01*
X74042086Y-115328354D01*
X74042093Y-115328350D01*
X74157187Y-115242190D01*
X74157190Y-115242187D01*
X74243350Y-115127093D01*
X74243354Y-115127086D01*
X74293596Y-114992379D01*
X74293598Y-114992372D01*
X74299999Y-114932844D01*
X74300000Y-114932827D01*
X74300000Y-114235000D01*
X73333012Y-114235000D01*
X73365925Y-114177993D01*
X73400000Y-114050826D01*
X73400000Y-113919174D01*
X73365925Y-113792007D01*
X73333012Y-113735000D01*
X74300000Y-113735000D01*
X74300000Y-113037172D01*
X74299999Y-113037155D01*
X74293598Y-112977627D01*
X74293596Y-112977620D01*
X74243354Y-112842913D01*
X74243350Y-112842906D01*
X74157190Y-112727812D01*
X74157187Y-112727809D01*
X74042093Y-112641649D01*
X74042086Y-112641645D01*
X73907379Y-112591403D01*
X73907372Y-112591401D01*
X73847844Y-112585000D01*
X73150000Y-112585000D01*
X73150000Y-113551988D01*
X73092993Y-113519075D01*
X72965826Y-113485000D01*
X72834174Y-113485000D01*
X72707007Y-113519075D01*
X72650000Y-113551988D01*
X72650000Y-112585000D01*
X71952155Y-112585000D01*
X71892627Y-112591401D01*
X71892620Y-112591403D01*
X71757913Y-112641645D01*
X71757906Y-112641649D01*
X71642812Y-112727809D01*
X71642809Y-112727812D01*
X71556649Y-112842906D01*
X71556646Y-112842911D01*
X71538320Y-112892047D01*
X71496448Y-112947980D01*
X71430984Y-112972397D01*
X71362711Y-112957545D01*
X71345976Y-112946566D01*
X71168634Y-112808535D01*
X71168623Y-112808528D01*
X71065481Y-112752709D01*
X71015891Y-112703489D01*
X71000500Y-112643655D01*
X71000500Y-106866951D01*
X73339500Y-106866951D01*
X73361175Y-107031578D01*
X73371334Y-107108744D01*
X73414064Y-107268216D01*
X73434456Y-107344320D01*
X73434459Y-107344330D01*
X73527786Y-107569640D01*
X73527791Y-107569651D01*
X73649727Y-107780848D01*
X73649738Y-107780864D01*
X73798199Y-107974343D01*
X73798205Y-107974350D01*
X73970649Y-108146794D01*
X73970655Y-108146799D01*
X74164144Y-108295268D01*
X74164151Y-108295272D01*
X74375348Y-108417208D01*
X74375353Y-108417210D01*
X74375356Y-108417212D01*
X74600679Y-108510544D01*
X74836256Y-108573666D01*
X75078056Y-108605500D01*
X75078063Y-108605500D01*
X75321937Y-108605500D01*
X75321944Y-108605500D01*
X75563744Y-108573666D01*
X75799321Y-108510544D01*
X76024644Y-108417212D01*
X76235856Y-108295268D01*
X76429345Y-108146799D01*
X76601799Y-107974345D01*
X76750268Y-107780856D01*
X76872212Y-107569644D01*
X76965544Y-107344321D01*
X77028666Y-107108744D01*
X77060500Y-106866944D01*
X77060500Y-106103056D01*
X77028666Y-105861256D01*
X76965544Y-105625679D01*
X76872212Y-105400356D01*
X76872210Y-105400353D01*
X76872208Y-105400348D01*
X76750272Y-105189151D01*
X76750268Y-105189144D01*
X76601799Y-104995655D01*
X76601794Y-104995649D01*
X76429350Y-104823205D01*
X76429343Y-104823199D01*
X76235864Y-104674738D01*
X76235862Y-104674736D01*
X76235856Y-104674732D01*
X76235851Y-104674729D01*
X76235848Y-104674727D01*
X76024651Y-104552791D01*
X76024640Y-104552786D01*
X75799330Y-104459459D01*
X75799323Y-104459457D01*
X75799321Y-104459456D01*
X75563744Y-104396334D01*
X75523333Y-104391013D01*
X75321951Y-104364500D01*
X75321944Y-104364500D01*
X75078056Y-104364500D01*
X75078048Y-104364500D01*
X74847896Y-104394801D01*
X74836256Y-104396334D01*
X74600679Y-104459456D01*
X74600669Y-104459459D01*
X74375359Y-104552786D01*
X74375348Y-104552791D01*
X74164151Y-104674727D01*
X74164135Y-104674738D01*
X73970656Y-104823199D01*
X73970649Y-104823205D01*
X73798205Y-104995649D01*
X73798199Y-104995656D01*
X73649738Y-105189135D01*
X73649727Y-105189151D01*
X73527791Y-105400348D01*
X73527786Y-105400359D01*
X73434459Y-105625669D01*
X73434456Y-105625679D01*
X73394658Y-105774211D01*
X73371335Y-105861253D01*
X73371333Y-105861264D01*
X73339500Y-106103048D01*
X73339500Y-106866951D01*
X71000500Y-106866951D01*
X71000500Y-105685096D01*
X71020185Y-105618057D01*
X71036814Y-105597420D01*
X76040319Y-100593914D01*
X76101640Y-100560431D01*
X76150783Y-100559708D01*
X76288757Y-100585500D01*
X76288759Y-100585500D01*
X76511241Y-100585500D01*
X76511243Y-100585500D01*
X76729940Y-100544618D01*
X76937401Y-100464247D01*
X77126562Y-100347124D01*
X77290981Y-100197236D01*
X77425058Y-100019689D01*
X77524229Y-99820528D01*
X77585115Y-99606536D01*
X77605643Y-99385000D01*
X77603647Y-99363464D01*
X77585115Y-99163464D01*
X77585114Y-99163462D01*
X77581130Y-99149461D01*
X77524229Y-98949472D01*
X77524224Y-98949461D01*
X77425061Y-98750316D01*
X77425056Y-98750308D01*
X77366491Y-98672756D01*
X77290981Y-98572764D01*
X77240380Y-98526635D01*
X77204101Y-98466927D01*
X77205861Y-98397079D01*
X77240380Y-98343364D01*
X77290981Y-98297236D01*
X77425058Y-98119689D01*
X77524229Y-97920528D01*
X77585115Y-97706536D01*
X77596377Y-97585000D01*
X78089357Y-97585000D01*
X78109884Y-97806535D01*
X78109885Y-97806537D01*
X78170769Y-98020523D01*
X78170775Y-98020538D01*
X78269938Y-98219683D01*
X78269943Y-98219691D01*
X78404020Y-98397238D01*
X78543390Y-98524290D01*
X78564313Y-98543364D01*
X78568437Y-98547123D01*
X78568439Y-98547125D01*
X78757595Y-98664245D01*
X78757596Y-98664245D01*
X78757599Y-98664247D01*
X78965060Y-98744618D01*
X79183757Y-98785500D01*
X79270500Y-98785500D01*
X79337539Y-98805185D01*
X79383294Y-98857989D01*
X79394500Y-98909500D01*
X79394500Y-105615187D01*
X79374815Y-105682226D01*
X79322011Y-105727981D01*
X79252853Y-105737925D01*
X79229546Y-105732229D01*
X79179257Y-105714632D01*
X79179249Y-105714630D01*
X79000004Y-105694435D01*
X78999996Y-105694435D01*
X78820750Y-105714630D01*
X78820745Y-105714631D01*
X78650476Y-105774211D01*
X78497737Y-105870184D01*
X78370184Y-105997737D01*
X78274211Y-106150476D01*
X78214631Y-106320745D01*
X78214630Y-106320750D01*
X78194435Y-106499996D01*
X78194435Y-106500003D01*
X78214630Y-106679249D01*
X78214631Y-106679254D01*
X78274211Y-106849523D01*
X78370185Y-107002263D01*
X78372445Y-107005097D01*
X78373334Y-107007275D01*
X78373889Y-107008158D01*
X78373734Y-107008255D01*
X78398855Y-107069783D01*
X78399500Y-107082412D01*
X78399500Y-108413330D01*
X78399499Y-108413348D01*
X78399499Y-108579054D01*
X78399498Y-108579054D01*
X78440423Y-108731785D01*
X78469358Y-108781900D01*
X78469359Y-108781904D01*
X78469360Y-108781904D01*
X78519479Y-108868714D01*
X78519481Y-108868717D01*
X78638349Y-108987585D01*
X78638355Y-108987590D01*
X79421662Y-109770897D01*
X79455147Y-109832220D01*
X79450163Y-109901912D01*
X79421663Y-109946258D01*
X79370184Y-109997737D01*
X79274211Y-110150476D01*
X79214631Y-110320745D01*
X79214630Y-110320750D01*
X79194435Y-110499996D01*
X79194435Y-110500003D01*
X79214630Y-110679249D01*
X79214631Y-110679254D01*
X79274211Y-110849523D01*
X79370185Y-111002263D01*
X79372445Y-111005097D01*
X79373334Y-111007275D01*
X79373889Y-111008158D01*
X79373734Y-111008255D01*
X79398855Y-111069783D01*
X79399500Y-111082412D01*
X79399500Y-113721834D01*
X79399499Y-113721852D01*
X79399499Y-113887558D01*
X79399498Y-113887558D01*
X79399499Y-113887561D01*
X79440423Y-114040289D01*
X79440424Y-114040291D01*
X79440423Y-114040291D01*
X79454146Y-114064058D01*
X79454148Y-114064060D01*
X79519479Y-114177218D01*
X79519481Y-114177221D01*
X79638349Y-114296089D01*
X79638355Y-114296094D01*
X96821642Y-131479382D01*
X96855127Y-131540705D01*
X96850143Y-131610397D01*
X96808271Y-131666330D01*
X96778756Y-131682689D01*
X96667607Y-131725748D01*
X96667595Y-131725754D01*
X96478439Y-131842874D01*
X96478437Y-131842876D01*
X96314020Y-131992761D01*
X96179943Y-132170308D01*
X96179938Y-132170316D01*
X96080775Y-132369461D01*
X96080769Y-132369476D01*
X96019885Y-132583462D01*
X96019884Y-132583464D01*
X95999357Y-132804999D01*
X95999357Y-132805000D01*
X96019884Y-133026535D01*
X96019885Y-133026537D01*
X96080769Y-133240523D01*
X96080775Y-133240538D01*
X96179938Y-133439683D01*
X96179943Y-133439691D01*
X96314020Y-133617238D01*
X96478437Y-133767123D01*
X96478439Y-133767125D01*
X96667595Y-133884245D01*
X96667596Y-133884245D01*
X96667599Y-133884247D01*
X96875060Y-133964618D01*
X97093757Y-134005500D01*
X97093759Y-134005500D01*
X97316241Y-134005500D01*
X97316243Y-134005500D01*
X97534940Y-133964618D01*
X97742401Y-133884247D01*
X97931562Y-133767124D01*
X98071462Y-133639587D01*
X98134266Y-133608971D01*
X98203653Y-133617168D01*
X98238538Y-133639588D01*
X98378437Y-133767123D01*
X98378439Y-133767125D01*
X98567595Y-133884245D01*
X98567596Y-133884245D01*
X98567599Y-133884247D01*
X98775060Y-133964618D01*
X98993757Y-134005500D01*
X98993759Y-134005500D01*
X99216241Y-134005500D01*
X99216243Y-134005500D01*
X99434940Y-133964618D01*
X99642401Y-133884247D01*
X99831562Y-133767124D01*
X99995981Y-133617236D01*
X100130058Y-133439689D01*
X100229229Y-133240528D01*
X100290115Y-133026536D01*
X100310643Y-132805000D01*
X100303224Y-132724940D01*
X100290115Y-132583464D01*
X100290114Y-132583462D01*
X100236634Y-132395500D01*
X100229229Y-132369472D01*
X100222257Y-132355470D01*
X100130061Y-132170316D01*
X100130056Y-132170308D01*
X100015965Y-132019227D01*
X99991273Y-131953865D01*
X100005838Y-131885531D01*
X100055036Y-131835918D01*
X100114919Y-131820500D01*
X100468706Y-131820500D01*
X100535745Y-131840185D01*
X100567659Y-131869772D01*
X100677573Y-132015322D01*
X100838568Y-132162088D01*
X100838575Y-132162092D01*
X100838576Y-132162093D01*
X101023786Y-132276770D01*
X101023792Y-132276773D01*
X101046664Y-132285633D01*
X101226931Y-132355470D01*
X101441074Y-132395500D01*
X101441076Y-132395500D01*
X101658924Y-132395500D01*
X101658926Y-132395500D01*
X101873069Y-132355470D01*
X102076210Y-132276772D01*
X102261432Y-132162088D01*
X102422427Y-132015322D01*
X102553712Y-131841472D01*
X102650817Y-131646459D01*
X102710435Y-131436923D01*
X102730536Y-131220000D01*
X102710435Y-131003077D01*
X102650817Y-130793541D01*
X102553712Y-130598528D01*
X102422427Y-130424678D01*
X102395356Y-130400000D01*
X102261433Y-130277913D01*
X102261423Y-130277906D01*
X102076213Y-130163229D01*
X102076207Y-130163226D01*
X101991113Y-130130260D01*
X101873069Y-130084530D01*
X101805440Y-130071888D01*
X101743161Y-130040221D01*
X101707888Y-129979909D01*
X101710822Y-129910100D01*
X101751031Y-129852960D01*
X101805439Y-129828112D01*
X101873069Y-129815470D01*
X102076210Y-129736772D01*
X102261432Y-129622088D01*
X102422427Y-129475322D01*
X102553712Y-129301472D01*
X102650817Y-129106459D01*
X102710435Y-128896923D01*
X102730536Y-128680000D01*
X102710435Y-128463077D01*
X102650817Y-128253541D01*
X102553712Y-128058528D01*
X102422427Y-127884678D01*
X102261432Y-127737912D01*
X102261428Y-127737909D01*
X102261423Y-127737906D01*
X102076213Y-127623229D01*
X102076207Y-127623226D01*
X101970670Y-127582341D01*
X101873069Y-127544530D01*
X101804079Y-127531633D01*
X101741799Y-127499965D01*
X101706527Y-127439653D01*
X101709461Y-127369845D01*
X101749670Y-127312705D01*
X101804082Y-127287856D01*
X101872928Y-127274987D01*
X101872939Y-127274983D01*
X102075976Y-127196326D01*
X102075989Y-127196320D01*
X102185165Y-127128719D01*
X101638585Y-126582137D01*
X101723694Y-126559333D01*
X101826306Y-126500090D01*
X101910090Y-126416306D01*
X101969333Y-126313694D01*
X101992138Y-126228584D01*
X102541011Y-126777457D01*
X102541012Y-126777457D01*
X102553284Y-126761208D01*
X102650344Y-126566287D01*
X102650349Y-126566274D01*
X102709942Y-126356830D01*
X102730034Y-126140000D01*
X102730034Y-126139999D01*
X102709562Y-125919071D01*
X102722977Y-125850502D01*
X102771334Y-125800070D01*
X102839280Y-125783787D01*
X102905243Y-125806824D01*
X102920714Y-125819949D01*
X107978920Y-130878155D01*
X108012405Y-130939478D01*
X108010581Y-130997439D01*
X108010618Y-130997446D01*
X108010574Y-130997679D01*
X108010509Y-130999757D01*
X108009566Y-131003072D01*
X108009564Y-131003078D01*
X107989464Y-131219999D01*
X107989464Y-131220000D01*
X108009564Y-131436918D01*
X108009564Y-131436920D01*
X108009565Y-131436923D01*
X108068877Y-131645382D01*
X108069184Y-131646462D01*
X108108667Y-131725754D01*
X108166288Y-131841472D01*
X108297573Y-132015322D01*
X108458568Y-132162088D01*
X108458575Y-132162092D01*
X108458576Y-132162093D01*
X108643786Y-132276770D01*
X108643792Y-132276773D01*
X108666664Y-132285633D01*
X108846931Y-132355470D01*
X109061074Y-132395500D01*
X109061076Y-132395500D01*
X109278924Y-132395500D01*
X109278926Y-132395500D01*
X109493069Y-132355470D01*
X109696210Y-132276772D01*
X109881432Y-132162088D01*
X110042427Y-132015322D01*
X110173712Y-131841472D01*
X110270817Y-131646459D01*
X110330435Y-131436923D01*
X110350536Y-131220000D01*
X110330435Y-131003077D01*
X110270817Y-130793541D01*
X110173712Y-130598528D01*
X110042427Y-130424678D01*
X110015356Y-130400000D01*
X109881433Y-130277913D01*
X109881423Y-130277906D01*
X109696213Y-130163229D01*
X109696207Y-130163226D01*
X109611113Y-130130260D01*
X109493069Y-130084530D01*
X109425440Y-130071888D01*
X109363161Y-130040221D01*
X109327888Y-129979909D01*
X109330822Y-129910100D01*
X109371031Y-129852960D01*
X109425439Y-129828112D01*
X109493069Y-129815470D01*
X109696210Y-129736772D01*
X109881432Y-129622088D01*
X110042427Y-129475322D01*
X110173712Y-129301472D01*
X110270817Y-129106459D01*
X110330435Y-128896923D01*
X110350536Y-128680000D01*
X110330435Y-128463077D01*
X110270817Y-128253541D01*
X110173712Y-128058528D01*
X110042427Y-127884678D01*
X109881432Y-127737912D01*
X109881428Y-127737909D01*
X109881423Y-127737906D01*
X109696213Y-127623229D01*
X109696207Y-127623226D01*
X109590670Y-127582341D01*
X109493069Y-127544530D01*
X109424079Y-127531633D01*
X109361799Y-127499965D01*
X109326527Y-127439653D01*
X109329461Y-127369845D01*
X109369670Y-127312705D01*
X109424082Y-127287856D01*
X109492928Y-127274987D01*
X109492939Y-127274983D01*
X109695976Y-127196326D01*
X109695989Y-127196320D01*
X109805165Y-127128719D01*
X109258584Y-126582138D01*
X109343694Y-126559333D01*
X109446306Y-126500090D01*
X109530090Y-126416306D01*
X109589333Y-126313694D01*
X109612138Y-126228584D01*
X110161011Y-126777457D01*
X110161012Y-126777457D01*
X110173284Y-126761208D01*
X110270344Y-126566287D01*
X110270349Y-126566274D01*
X110329942Y-126356830D01*
X110350034Y-126140000D01*
X110350034Y-126139999D01*
X110329942Y-125923169D01*
X110270349Y-125713725D01*
X110270344Y-125713712D01*
X110173285Y-125518794D01*
X110173284Y-125518791D01*
X110161010Y-125502540D01*
X109612137Y-126051413D01*
X109589333Y-125966306D01*
X109530090Y-125863694D01*
X109446306Y-125779910D01*
X109343694Y-125720667D01*
X109258584Y-125697861D01*
X109805166Y-125151279D01*
X109695987Y-125083677D01*
X109695985Y-125083676D01*
X109492939Y-125005016D01*
X109492929Y-125005013D01*
X109424081Y-124992143D01*
X109361800Y-124960475D01*
X109326527Y-124900162D01*
X109329461Y-124830354D01*
X109369670Y-124773214D01*
X109424078Y-124748366D01*
X109493069Y-124735470D01*
X109696210Y-124656772D01*
X109881432Y-124542088D01*
X110042427Y-124395322D01*
X110173712Y-124221472D01*
X110270817Y-124026459D01*
X110330435Y-123816923D01*
X110350536Y-123600000D01*
X110349865Y-123592764D01*
X110344070Y-123530225D01*
X110330435Y-123383077D01*
X110270817Y-123173541D01*
X110173712Y-122978528D01*
X110042427Y-122804678D01*
X110040541Y-122802959D01*
X109905064Y-122679455D01*
X109881432Y-122657912D01*
X109881428Y-122657909D01*
X109881423Y-122657906D01*
X109696213Y-122543229D01*
X109696207Y-122543226D01*
X109590670Y-122502341D01*
X109493069Y-122464530D01*
X109424079Y-122451633D01*
X109361799Y-122419965D01*
X109326527Y-122359653D01*
X109329461Y-122289845D01*
X109369670Y-122232705D01*
X109424082Y-122207856D01*
X109492928Y-122194987D01*
X109492939Y-122194983D01*
X109695976Y-122116326D01*
X109695989Y-122116320D01*
X109805165Y-122048719D01*
X109258585Y-121502137D01*
X109343694Y-121479333D01*
X109446306Y-121420090D01*
X109530090Y-121336306D01*
X109589333Y-121233694D01*
X109612138Y-121148584D01*
X110161011Y-121697457D01*
X110161012Y-121697457D01*
X110173284Y-121681208D01*
X110270344Y-121486287D01*
X110270349Y-121486274D01*
X110329942Y-121276830D01*
X110350034Y-121060000D01*
X110350034Y-121059999D01*
X110329942Y-120843169D01*
X110270349Y-120633725D01*
X110270344Y-120633712D01*
X110173285Y-120438794D01*
X110173284Y-120438791D01*
X110161010Y-120422540D01*
X109612137Y-120971413D01*
X109589333Y-120886306D01*
X109530090Y-120783694D01*
X109446306Y-120699910D01*
X109343694Y-120640667D01*
X109258584Y-120617861D01*
X109805166Y-120071279D01*
X109695987Y-120003677D01*
X109695985Y-120003676D01*
X109492939Y-119925016D01*
X109492929Y-119925013D01*
X109424081Y-119912143D01*
X109361800Y-119880475D01*
X109326527Y-119820162D01*
X109329461Y-119750354D01*
X109369670Y-119693214D01*
X109424078Y-119668366D01*
X109493069Y-119655470D01*
X109696210Y-119576772D01*
X109881432Y-119462088D01*
X110042427Y-119315322D01*
X110173712Y-119141472D01*
X110270817Y-118946459D01*
X110330435Y-118736923D01*
X110350536Y-118520000D01*
X110330435Y-118303077D01*
X110270817Y-118093541D01*
X110173712Y-117898528D01*
X110042427Y-117724678D01*
X110015356Y-117700000D01*
X109881433Y-117577913D01*
X109881423Y-117577906D01*
X109696213Y-117463229D01*
X109696207Y-117463226D01*
X109611113Y-117430260D01*
X109493069Y-117384530D01*
X109425440Y-117371888D01*
X109363161Y-117340221D01*
X109327888Y-117279909D01*
X109330822Y-117210100D01*
X109371031Y-117152960D01*
X109425439Y-117128112D01*
X109493069Y-117115470D01*
X109696210Y-117036772D01*
X109881432Y-116922088D01*
X110042427Y-116775322D01*
X110173712Y-116601472D01*
X110270817Y-116406459D01*
X110330435Y-116196923D01*
X110350536Y-115980000D01*
X110330435Y-115763077D01*
X110270817Y-115553541D01*
X110173712Y-115358528D01*
X110097138Y-115257127D01*
X110042425Y-115184675D01*
X109881433Y-115037913D01*
X109881432Y-115037912D01*
X109829222Y-115005585D01*
X109782587Y-114953557D01*
X109770500Y-114900158D01*
X109770500Y-101259110D01*
X109770501Y-101259097D01*
X109770501Y-101090996D01*
X109770501Y-101090994D01*
X109729577Y-100938266D01*
X109700639Y-100888146D01*
X109650520Y-100801335D01*
X109538716Y-100689531D01*
X109538715Y-100689530D01*
X109534385Y-100685200D01*
X109534374Y-100685190D01*
X105472539Y-96623355D01*
X105472537Y-96623352D01*
X105353666Y-96504481D01*
X105353665Y-96504480D01*
X105246897Y-96442838D01*
X105246896Y-96442837D01*
X105216732Y-96425422D01*
X105082449Y-96389441D01*
X105022789Y-96353075D01*
X105015589Y-96344393D01*
X104885979Y-96172761D01*
X104721562Y-96022876D01*
X104721560Y-96022874D01*
X104532404Y-95905754D01*
X104532398Y-95905752D01*
X104324940Y-95825382D01*
X104106243Y-95784500D01*
X103883757Y-95784500D01*
X103665060Y-95825382D01*
X103533864Y-95876207D01*
X103457601Y-95905752D01*
X103457595Y-95905754D01*
X103268439Y-96022874D01*
X103268437Y-96022876D01*
X103128538Y-96150411D01*
X103065734Y-96181028D01*
X102996347Y-96172830D01*
X102961462Y-96150411D01*
X102821562Y-96022876D01*
X102821560Y-96022874D01*
X102632404Y-95905754D01*
X102632398Y-95905752D01*
X102424940Y-95825382D01*
X102206243Y-95784500D01*
X101983757Y-95784500D01*
X101765060Y-95825382D01*
X101633864Y-95876207D01*
X101557601Y-95905752D01*
X101557595Y-95905754D01*
X101368439Y-96022874D01*
X101368437Y-96022876D01*
X101204020Y-96172761D01*
X101069943Y-96350308D01*
X101069938Y-96350316D01*
X100970775Y-96549461D01*
X100970769Y-96549476D01*
X100909885Y-96763462D01*
X100909884Y-96763464D01*
X100889357Y-96984999D01*
X100889357Y-96985000D01*
X100909884Y-97206535D01*
X100909885Y-97206537D01*
X100970769Y-97420523D01*
X100970775Y-97420538D01*
X101069938Y-97619683D01*
X101069943Y-97619691D01*
X101204020Y-97797238D01*
X101368433Y-97947120D01*
X101368435Y-97947121D01*
X101368438Y-97947124D01*
X101435778Y-97988818D01*
X101482412Y-98040843D01*
X101494500Y-98094244D01*
X101494500Y-102508330D01*
X101494499Y-102508348D01*
X101494499Y-102630902D01*
X101474814Y-102697941D01*
X101422010Y-102743696D01*
X101352852Y-102753640D01*
X101289296Y-102724615D01*
X101282818Y-102718583D01*
X96611314Y-98047079D01*
X96577829Y-97985756D01*
X96579730Y-97925460D01*
X96585115Y-97906536D01*
X96605643Y-97685000D01*
X96585115Y-97463464D01*
X96579730Y-97444538D01*
X96580228Y-97385000D01*
X98194357Y-97385000D01*
X98214884Y-97606535D01*
X98214885Y-97606537D01*
X98275769Y-97820523D01*
X98275775Y-97820538D01*
X98374938Y-98019683D01*
X98374943Y-98019691D01*
X98509020Y-98197238D01*
X98618721Y-98297243D01*
X98669313Y-98343364D01*
X98673437Y-98347123D01*
X98673439Y-98347125D01*
X98862595Y-98464245D01*
X98862596Y-98464245D01*
X98862599Y-98464247D01*
X99070060Y-98544618D01*
X99288757Y-98585500D01*
X99288759Y-98585500D01*
X99511241Y-98585500D01*
X99511243Y-98585500D01*
X99729940Y-98544618D01*
X99937401Y-98464247D01*
X100126562Y-98347124D01*
X100266358Y-98219683D01*
X100290979Y-98197238D01*
X100299844Y-98185500D01*
X100425058Y-98019689D01*
X100524229Y-97820528D01*
X100585115Y-97606536D01*
X100605643Y-97385000D01*
X100603647Y-97363464D01*
X100585115Y-97163464D01*
X100585114Y-97163462D01*
X100582983Y-97155973D01*
X100524229Y-96949472D01*
X100486033Y-96872764D01*
X100425061Y-96750316D01*
X100425056Y-96750308D01*
X100329183Y-96623352D01*
X100290981Y-96572764D01*
X100240380Y-96526635D01*
X100204101Y-96466927D01*
X100205861Y-96397079D01*
X100240380Y-96343364D01*
X100290981Y-96297236D01*
X100425058Y-96119689D01*
X100524229Y-95920528D01*
X100585115Y-95706536D01*
X100605643Y-95485000D01*
X100602768Y-95453978D01*
X100585115Y-95263464D01*
X100585114Y-95263462D01*
X100581982Y-95252455D01*
X100524229Y-95049472D01*
X100524224Y-95049461D01*
X100425061Y-94850316D01*
X100425056Y-94850308D01*
X100290979Y-94672761D01*
X100126562Y-94522876D01*
X100126560Y-94522874D01*
X99937404Y-94405754D01*
X99937398Y-94405752D01*
X99926265Y-94401439D01*
X99729940Y-94325382D01*
X99511243Y-94284500D01*
X99288757Y-94284500D01*
X99070060Y-94325382D01*
X98938864Y-94376207D01*
X98862601Y-94405752D01*
X98862595Y-94405754D01*
X98673439Y-94522874D01*
X98673437Y-94522876D01*
X98509020Y-94672761D01*
X98374943Y-94850308D01*
X98374938Y-94850316D01*
X98275775Y-95049461D01*
X98275769Y-95049476D01*
X98214885Y-95263462D01*
X98214884Y-95263464D01*
X98194357Y-95484999D01*
X98194357Y-95485000D01*
X98214884Y-95706535D01*
X98214885Y-95706537D01*
X98275769Y-95920523D01*
X98275775Y-95920538D01*
X98374938Y-96119683D01*
X98374943Y-96119691D01*
X98398142Y-96150411D01*
X98509017Y-96297234D01*
X98509021Y-96297238D01*
X98509026Y-96297243D01*
X98559617Y-96343364D01*
X98595898Y-96403076D01*
X98594137Y-96472923D01*
X98559617Y-96526636D01*
X98509026Y-96572756D01*
X98509021Y-96572761D01*
X98374943Y-96750308D01*
X98374938Y-96750316D01*
X98275775Y-96949461D01*
X98275769Y-96949476D01*
X98214885Y-97163462D01*
X98214884Y-97163464D01*
X98194357Y-97384999D01*
X98194357Y-97385000D01*
X96580228Y-97385000D01*
X96580314Y-97374673D01*
X96611311Y-97322924D01*
X96680520Y-97253716D01*
X96751703Y-97130423D01*
X96759577Y-97116785D01*
X96800501Y-96964057D01*
X96800501Y-96805943D01*
X96800501Y-96798348D01*
X96800500Y-96798330D01*
X96800500Y-93215000D01*
X103370275Y-93215000D01*
X103388165Y-93327959D01*
X103463560Y-93559998D01*
X103574321Y-93777377D01*
X103717728Y-93974759D01*
X103890240Y-94147271D01*
X104087622Y-94290678D01*
X104305001Y-94401439D01*
X104537040Y-94476834D01*
X104778007Y-94515000D01*
X105150000Y-94515000D01*
X105150000Y-93265000D01*
X105650000Y-93265000D01*
X105650000Y-94515000D01*
X106021993Y-94515000D01*
X106262959Y-94476834D01*
X106494998Y-94401439D01*
X106712377Y-94290678D01*
X106909759Y-94147271D01*
X107082271Y-93974759D01*
X107225678Y-93777377D01*
X107336439Y-93559998D01*
X107411834Y-93327959D01*
X107429725Y-93215000D01*
X106066988Y-93215000D01*
X106084205Y-93205060D01*
X106140060Y-93149205D01*
X106179556Y-93080796D01*
X106200000Y-93004496D01*
X106200000Y-92925504D01*
X106179556Y-92849204D01*
X106140060Y-92780795D01*
X106084205Y-92724940D01*
X106066988Y-92715000D01*
X107429725Y-92715000D01*
X107411834Y-92602040D01*
X107336439Y-92370001D01*
X107225678Y-92152622D01*
X107082271Y-91955240D01*
X106909759Y-91782728D01*
X106724550Y-91648165D01*
X106681885Y-91592835D01*
X106675906Y-91523221D01*
X106708512Y-91461426D01*
X106727354Y-91445551D01*
X106788142Y-91403911D01*
X106938911Y-91253142D01*
X107059409Y-91077237D01*
X107145532Y-90882185D01*
X107171039Y-90773739D01*
X107194347Y-90674640D01*
X107194347Y-90674636D01*
X107194349Y-90674630D01*
X107198449Y-90615551D01*
X107200500Y-90586015D01*
X107200500Y-89143984D01*
X107194349Y-89055375D01*
X107194349Y-89055370D01*
X107194347Y-89055364D01*
X107194347Y-89055359D01*
X107145534Y-88847823D01*
X107145532Y-88847817D01*
X107145532Y-88847815D01*
X107059409Y-88652763D01*
X106938911Y-88476858D01*
X106938906Y-88476852D01*
X106788147Y-88326093D01*
X106788141Y-88326088D01*
X106612238Y-88205592D01*
X106612239Y-88205592D01*
X106612237Y-88205591D01*
X106417185Y-88119468D01*
X106417183Y-88119467D01*
X106417182Y-88119467D01*
X106417176Y-88119465D01*
X106209640Y-88070652D01*
X106209624Y-88070650D01*
X106121016Y-88064500D01*
X106121012Y-88064500D01*
X104678988Y-88064500D01*
X104678984Y-88064500D01*
X104590375Y-88070650D01*
X104590359Y-88070652D01*
X104382823Y-88119465D01*
X104382817Y-88119467D01*
X104187761Y-88205592D01*
X104011858Y-88326088D01*
X104011852Y-88326093D01*
X103861093Y-88476852D01*
X103861088Y-88476858D01*
X103740592Y-88652761D01*
X103654467Y-88847817D01*
X103654465Y-88847823D01*
X103605652Y-89055359D01*
X103605650Y-89055375D01*
X103599500Y-89143984D01*
X103599500Y-90586015D01*
X103605650Y-90674624D01*
X103605652Y-90674640D01*
X103654465Y-90882176D01*
X103654467Y-90882182D01*
X103654468Y-90882185D01*
X103740591Y-91077237D01*
X103740592Y-91077238D01*
X103861088Y-91253141D01*
X103861093Y-91253147D01*
X104011852Y-91403906D01*
X104011857Y-91403910D01*
X104011858Y-91403911D01*
X104011859Y-91403912D01*
X104011862Y-91403914D01*
X104036723Y-91420944D01*
X104072637Y-91445546D01*
X104072639Y-91445547D01*
X104116822Y-91499673D01*
X104124729Y-91569093D01*
X104093849Y-91631769D01*
X104075449Y-91648165D01*
X103890241Y-91782727D01*
X103717728Y-91955240D01*
X103574321Y-92152622D01*
X103463560Y-92370001D01*
X103388165Y-92602040D01*
X103370275Y-92715000D01*
X104733012Y-92715000D01*
X104715795Y-92724940D01*
X104659940Y-92780795D01*
X104620444Y-92849204D01*
X104600000Y-92925504D01*
X104600000Y-93004496D01*
X104620444Y-93080796D01*
X104659940Y-93149205D01*
X104715795Y-93205060D01*
X104733012Y-93215000D01*
X103370275Y-93215000D01*
X96800500Y-93215000D01*
X96800500Y-91589060D01*
X96800501Y-91589047D01*
X96800501Y-91420944D01*
X96759576Y-91268214D01*
X96759573Y-91268209D01*
X96680524Y-91131290D01*
X96680518Y-91131282D01*
X94231246Y-88682010D01*
X94197761Y-88620687D01*
X94202745Y-88550995D01*
X94244617Y-88495062D01*
X94310081Y-88470645D01*
X94366378Y-88479767D01*
X94440679Y-88510544D01*
X94676256Y-88573666D01*
X94918056Y-88605500D01*
X94918063Y-88605500D01*
X95161937Y-88605500D01*
X95161944Y-88605500D01*
X95403744Y-88573666D01*
X95639321Y-88510544D01*
X95864644Y-88417212D01*
X96075856Y-88295268D01*
X96269345Y-88146799D01*
X96441799Y-87974345D01*
X96590268Y-87780856D01*
X96712212Y-87569644D01*
X96805544Y-87344321D01*
X96868666Y-87108744D01*
X96900500Y-86866944D01*
X96900500Y-86103056D01*
X96868666Y-85861256D01*
X96805544Y-85625679D01*
X96712212Y-85400356D01*
X96712210Y-85400353D01*
X96712208Y-85400348D01*
X96590272Y-85189151D01*
X96590268Y-85189144D01*
X96441799Y-84995655D01*
X96441794Y-84995649D01*
X96269350Y-84823205D01*
X96269343Y-84823199D01*
X96075864Y-84674738D01*
X96075862Y-84674736D01*
X96075856Y-84674732D01*
X96075851Y-84674729D01*
X96075848Y-84674727D01*
X95864651Y-84552791D01*
X95864640Y-84552786D01*
X95639330Y-84459459D01*
X95639323Y-84459457D01*
X95639321Y-84459456D01*
X95403744Y-84396334D01*
X95363333Y-84391013D01*
X95161951Y-84364500D01*
X95161944Y-84364500D01*
X94918056Y-84364500D01*
X94918048Y-84364500D01*
X94687896Y-84394801D01*
X94676256Y-84396334D01*
X94440679Y-84459456D01*
X94440669Y-84459459D01*
X94215359Y-84552786D01*
X94215348Y-84552791D01*
X94004151Y-84674727D01*
X94004135Y-84674738D01*
X93810656Y-84823199D01*
X93810649Y-84823205D01*
X93638205Y-84995649D01*
X93638199Y-84995656D01*
X93489738Y-85189135D01*
X93489727Y-85189151D01*
X93367791Y-85400348D01*
X93367786Y-85400359D01*
X93274459Y-85625669D01*
X93274456Y-85625679D01*
X93244275Y-85738319D01*
X93207910Y-85797980D01*
X93145063Y-85828509D01*
X93075688Y-85820214D01*
X93021810Y-85775729D01*
X93000535Y-85709177D01*
X93000500Y-85706226D01*
X93000500Y-82286015D01*
X103599500Y-82286015D01*
X103605650Y-82374624D01*
X103605652Y-82374640D01*
X103654465Y-82582176D01*
X103654467Y-82582182D01*
X103654468Y-82582185D01*
X103740591Y-82777237D01*
X103740592Y-82777238D01*
X103861088Y-82953141D01*
X103861093Y-82953147D01*
X104011852Y-83103906D01*
X104011858Y-83103911D01*
X104187763Y-83224409D01*
X104382815Y-83310532D01*
X104382821Y-83310533D01*
X104382823Y-83310534D01*
X104590359Y-83359347D01*
X104590364Y-83359347D01*
X104590370Y-83359349D01*
X104639602Y-83362766D01*
X104678984Y-83365500D01*
X104678988Y-83365500D01*
X106121016Y-83365500D01*
X106156459Y-83363039D01*
X106209630Y-83359349D01*
X106209636Y-83359347D01*
X106209640Y-83359347D01*
X106417176Y-83310534D01*
X106417174Y-83310534D01*
X106417185Y-83310532D01*
X106612237Y-83224409D01*
X106788142Y-83103911D01*
X106938911Y-82953142D01*
X107059409Y-82777237D01*
X107145532Y-82582185D01*
X107194349Y-82374630D01*
X107200500Y-82286012D01*
X107200500Y-80843988D01*
X107194349Y-80755370D01*
X107194347Y-80755364D01*
X107194347Y-80755359D01*
X107145534Y-80547823D01*
X107145532Y-80547817D01*
X107145532Y-80547815D01*
X107059409Y-80352763D01*
X106938911Y-80176858D01*
X106938906Y-80176852D01*
X106788147Y-80026093D01*
X106788141Y-80026088D01*
X106612238Y-79905592D01*
X106612239Y-79905592D01*
X106612237Y-79905591D01*
X106417185Y-79819468D01*
X106417183Y-79819467D01*
X106417182Y-79819467D01*
X106417176Y-79819465D01*
X106209640Y-79770652D01*
X106209624Y-79770650D01*
X106121016Y-79764500D01*
X106121012Y-79764500D01*
X104678988Y-79764500D01*
X104678984Y-79764500D01*
X104590375Y-79770650D01*
X104590359Y-79770652D01*
X104382823Y-79819465D01*
X104382817Y-79819467D01*
X104187761Y-79905592D01*
X104011858Y-80026088D01*
X104011852Y-80026093D01*
X103861093Y-80176852D01*
X103861088Y-80176858D01*
X103740592Y-80352761D01*
X103654467Y-80547817D01*
X103654465Y-80547823D01*
X103605652Y-80755359D01*
X103605650Y-80755375D01*
X103599500Y-80843984D01*
X103599500Y-82286015D01*
X93000500Y-82286015D01*
X93000500Y-78594244D01*
X93020185Y-78527205D01*
X93059220Y-78488819D01*
X93126562Y-78447124D01*
X93290981Y-78297236D01*
X93425058Y-78119689D01*
X93524229Y-77920528D01*
X93585115Y-77706536D01*
X93605643Y-77485000D01*
X93585115Y-77263464D01*
X93524229Y-77049472D01*
X93524224Y-77049461D01*
X93425061Y-76850316D01*
X93425056Y-76850308D01*
X93290979Y-76672761D01*
X93126562Y-76522876D01*
X93126560Y-76522874D01*
X92937404Y-76405754D01*
X92937398Y-76405752D01*
X92729940Y-76325382D01*
X92511243Y-76284500D01*
X92324500Y-76284500D01*
X92257461Y-76264815D01*
X92211706Y-76212011D01*
X92200500Y-76160500D01*
X92200500Y-75509000D01*
X92220185Y-75441961D01*
X92272989Y-75396206D01*
X92324500Y-75385000D01*
X92650000Y-75385000D01*
X92650000Y-74418012D01*
X92707007Y-74450925D01*
X92834174Y-74485000D01*
X92965826Y-74485000D01*
X93092993Y-74450925D01*
X93150000Y-74418012D01*
X93150000Y-75385000D01*
X93847828Y-75385000D01*
X93847844Y-75384999D01*
X93907372Y-75378598D01*
X93907379Y-75378596D01*
X94042086Y-75328354D01*
X94042093Y-75328350D01*
X94157187Y-75242190D01*
X94157190Y-75242187D01*
X94243350Y-75127093D01*
X94243354Y-75127086D01*
X94293596Y-74992379D01*
X94293598Y-74992372D01*
X94299999Y-74932844D01*
X94300000Y-74932827D01*
X94300000Y-74235000D01*
X93333012Y-74235000D01*
X93365925Y-74177993D01*
X93400000Y-74050826D01*
X93400000Y-73919174D01*
X93365925Y-73792007D01*
X93333012Y-73735000D01*
X94300000Y-73735000D01*
X94300000Y-73215000D01*
X103370275Y-73215000D01*
X103388165Y-73327959D01*
X103463560Y-73559998D01*
X103574321Y-73777377D01*
X103717728Y-73974759D01*
X103890240Y-74147271D01*
X104087622Y-74290678D01*
X104305001Y-74401439D01*
X104537040Y-74476834D01*
X104778007Y-74515000D01*
X105150000Y-74515000D01*
X105150000Y-73265000D01*
X105650000Y-73265000D01*
X105650000Y-74515000D01*
X106021993Y-74515000D01*
X106262959Y-74476834D01*
X106494998Y-74401439D01*
X106712377Y-74290678D01*
X106909759Y-74147271D01*
X107082271Y-73974759D01*
X107225678Y-73777377D01*
X107336439Y-73559998D01*
X107411834Y-73327959D01*
X107429725Y-73215000D01*
X106066988Y-73215000D01*
X106084205Y-73205060D01*
X106140060Y-73149205D01*
X106179556Y-73080796D01*
X106200000Y-73004496D01*
X106200000Y-72925504D01*
X106179556Y-72849204D01*
X106140060Y-72780795D01*
X106084205Y-72724940D01*
X106066988Y-72715000D01*
X107429725Y-72715000D01*
X107411834Y-72602040D01*
X107336439Y-72370001D01*
X107225678Y-72152622D01*
X107082271Y-71955240D01*
X106909759Y-71782728D01*
X106724550Y-71648165D01*
X106681885Y-71592835D01*
X106675906Y-71523221D01*
X106708512Y-71461426D01*
X106727354Y-71445551D01*
X106788142Y-71403911D01*
X106938911Y-71253142D01*
X107059409Y-71077237D01*
X107145532Y-70882185D01*
X107194349Y-70674630D01*
X107200500Y-70586012D01*
X107200500Y-69143988D01*
X107194349Y-69055370D01*
X107194347Y-69055364D01*
X107194347Y-69055359D01*
X107145534Y-68847823D01*
X107145532Y-68847817D01*
X107145532Y-68847815D01*
X107059409Y-68652763D01*
X106938911Y-68476858D01*
X106938906Y-68476852D01*
X106788147Y-68326093D01*
X106788141Y-68326088D01*
X106612238Y-68205592D01*
X106612239Y-68205592D01*
X106612237Y-68205591D01*
X106417185Y-68119468D01*
X106417183Y-68119467D01*
X106417182Y-68119467D01*
X106417176Y-68119465D01*
X106209640Y-68070652D01*
X106209624Y-68070650D01*
X106121016Y-68064500D01*
X106121012Y-68064500D01*
X104678988Y-68064500D01*
X104678984Y-68064500D01*
X104590375Y-68070650D01*
X104590359Y-68070652D01*
X104382823Y-68119465D01*
X104382817Y-68119467D01*
X104187761Y-68205592D01*
X104011858Y-68326088D01*
X104011852Y-68326093D01*
X103861093Y-68476852D01*
X103861088Y-68476858D01*
X103740592Y-68652761D01*
X103654467Y-68847817D01*
X103654465Y-68847823D01*
X103605652Y-69055359D01*
X103605650Y-69055375D01*
X103599500Y-69143984D01*
X103599500Y-70586015D01*
X103605650Y-70674624D01*
X103605652Y-70674640D01*
X103654465Y-70882176D01*
X103654467Y-70882182D01*
X103654468Y-70882185D01*
X103740591Y-71077237D01*
X103740592Y-71077238D01*
X103861088Y-71253141D01*
X103861093Y-71253147D01*
X104011852Y-71403906D01*
X104011857Y-71403910D01*
X104011858Y-71403911D01*
X104072637Y-71445546D01*
X104072639Y-71445547D01*
X104116822Y-71499673D01*
X104124729Y-71569093D01*
X104093849Y-71631769D01*
X104075449Y-71648165D01*
X103890241Y-71782727D01*
X103717728Y-71955240D01*
X103574321Y-72152622D01*
X103463560Y-72370001D01*
X103388165Y-72602040D01*
X103370275Y-72715000D01*
X104733012Y-72715000D01*
X104715795Y-72724940D01*
X104659940Y-72780795D01*
X104620444Y-72849204D01*
X104600000Y-72925504D01*
X104600000Y-73004496D01*
X104620444Y-73080796D01*
X104659940Y-73149205D01*
X104715795Y-73205060D01*
X104733012Y-73215000D01*
X103370275Y-73215000D01*
X94300000Y-73215000D01*
X94300000Y-73037172D01*
X94299999Y-73037155D01*
X94293598Y-72977627D01*
X94293596Y-72977620D01*
X94243354Y-72842913D01*
X94243350Y-72842906D01*
X94157190Y-72727812D01*
X94157187Y-72727809D01*
X94042093Y-72641649D01*
X94042086Y-72641645D01*
X93907379Y-72591403D01*
X93907372Y-72591401D01*
X93847844Y-72585000D01*
X93150000Y-72585000D01*
X93150000Y-73551988D01*
X93092993Y-73519075D01*
X92965826Y-73485000D01*
X92834174Y-73485000D01*
X92707007Y-73519075D01*
X92650000Y-73551988D01*
X92650000Y-72585000D01*
X92324500Y-72585000D01*
X92257461Y-72565315D01*
X92211706Y-72512511D01*
X92200500Y-72461000D01*
X92200500Y-66866951D01*
X93339500Y-66866951D01*
X93366013Y-67068333D01*
X93371334Y-67108744D01*
X93371335Y-67108746D01*
X93434456Y-67344320D01*
X93434459Y-67344330D01*
X93527786Y-67569640D01*
X93527791Y-67569651D01*
X93649727Y-67780848D01*
X93649738Y-67780864D01*
X93798199Y-67974343D01*
X93798205Y-67974350D01*
X93970649Y-68146794D01*
X93970655Y-68146799D01*
X94164144Y-68295268D01*
X94164151Y-68295272D01*
X94375348Y-68417208D01*
X94375353Y-68417210D01*
X94375356Y-68417212D01*
X94600679Y-68510544D01*
X94836256Y-68573666D01*
X95078056Y-68605500D01*
X95078063Y-68605500D01*
X95321937Y-68605500D01*
X95321944Y-68605500D01*
X95563744Y-68573666D01*
X95799321Y-68510544D01*
X96024644Y-68417212D01*
X96235856Y-68295268D01*
X96429345Y-68146799D01*
X96601799Y-67974345D01*
X96750268Y-67780856D01*
X96872212Y-67569644D01*
X96965544Y-67344321D01*
X97028666Y-67108744D01*
X97060500Y-66866944D01*
X97060500Y-66103056D01*
X97028666Y-65861256D01*
X96965544Y-65625679D01*
X96872212Y-65400356D01*
X96872210Y-65400353D01*
X96872208Y-65400348D01*
X96750272Y-65189151D01*
X96750268Y-65189144D01*
X96601799Y-64995655D01*
X96601794Y-64995649D01*
X96429350Y-64823205D01*
X96429343Y-64823199D01*
X96235864Y-64674738D01*
X96235862Y-64674736D01*
X96235856Y-64674732D01*
X96235851Y-64674729D01*
X96235848Y-64674727D01*
X96024651Y-64552791D01*
X96024640Y-64552786D01*
X95799330Y-64459459D01*
X95799323Y-64459457D01*
X95799321Y-64459456D01*
X95563744Y-64396334D01*
X95523333Y-64391013D01*
X95321951Y-64364500D01*
X95321944Y-64364500D01*
X95078056Y-64364500D01*
X95078048Y-64364500D01*
X94847896Y-64394801D01*
X94836256Y-64396334D01*
X94600679Y-64459456D01*
X94600669Y-64459459D01*
X94375359Y-64552786D01*
X94375348Y-64552791D01*
X94164151Y-64674727D01*
X94164135Y-64674738D01*
X93970656Y-64823199D01*
X93970649Y-64823205D01*
X93798205Y-64995649D01*
X93798199Y-64995656D01*
X93649738Y-65189135D01*
X93649727Y-65189151D01*
X93527791Y-65400348D01*
X93527786Y-65400359D01*
X93434459Y-65625669D01*
X93434456Y-65625679D01*
X93371335Y-65861253D01*
X93371333Y-65861264D01*
X93339500Y-66103048D01*
X93339500Y-66866951D01*
X92200500Y-66866951D01*
X92200500Y-62286015D01*
X103599500Y-62286015D01*
X103605650Y-62374624D01*
X103605652Y-62374640D01*
X103654465Y-62582176D01*
X103654467Y-62582182D01*
X103654468Y-62582185D01*
X103740591Y-62777237D01*
X103740592Y-62777238D01*
X103861088Y-62953141D01*
X103861093Y-62953147D01*
X104011852Y-63103906D01*
X104011858Y-63103911D01*
X104187763Y-63224409D01*
X104382815Y-63310532D01*
X104382821Y-63310533D01*
X104382823Y-63310534D01*
X104590359Y-63359347D01*
X104590364Y-63359347D01*
X104590370Y-63359349D01*
X104639602Y-63362766D01*
X104678984Y-63365500D01*
X104678988Y-63365500D01*
X106121016Y-63365500D01*
X106156459Y-63363039D01*
X106209630Y-63359349D01*
X106209636Y-63359347D01*
X106209640Y-63359347D01*
X106417176Y-63310534D01*
X106417174Y-63310534D01*
X106417185Y-63310532D01*
X106612237Y-63224409D01*
X106788142Y-63103911D01*
X106938911Y-62953142D01*
X107059409Y-62777237D01*
X107145532Y-62582185D01*
X107194349Y-62374630D01*
X107200500Y-62286012D01*
X107200500Y-60843988D01*
X107194349Y-60755370D01*
X107194347Y-60755364D01*
X107194347Y-60755359D01*
X107145534Y-60547823D01*
X107145532Y-60547817D01*
X107145532Y-60547815D01*
X107059409Y-60352763D01*
X106938911Y-60176858D01*
X106938906Y-60176852D01*
X106788147Y-60026093D01*
X106788141Y-60026088D01*
X106612238Y-59905592D01*
X106612239Y-59905592D01*
X106612237Y-59905591D01*
X106417185Y-59819468D01*
X106417183Y-59819467D01*
X106417182Y-59819467D01*
X106417176Y-59819465D01*
X106209640Y-59770652D01*
X106209624Y-59770650D01*
X106121016Y-59764500D01*
X106121012Y-59764500D01*
X104678988Y-59764500D01*
X104678984Y-59764500D01*
X104590375Y-59770650D01*
X104590359Y-59770652D01*
X104382823Y-59819465D01*
X104382817Y-59819467D01*
X104187761Y-59905592D01*
X104011858Y-60026088D01*
X104011852Y-60026093D01*
X103861093Y-60176852D01*
X103861088Y-60176858D01*
X103740592Y-60352761D01*
X103654467Y-60547817D01*
X103654465Y-60547823D01*
X103605652Y-60755359D01*
X103605650Y-60755375D01*
X103599500Y-60843984D01*
X103599500Y-62286015D01*
X92200500Y-62286015D01*
X92200500Y-59801505D01*
X92220185Y-59734466D01*
X92272989Y-59688711D01*
X92342147Y-59678767D01*
X92347284Y-59679616D01*
X92378757Y-59685500D01*
X92378758Y-59685500D01*
X92601241Y-59685500D01*
X92601243Y-59685500D01*
X92819940Y-59644618D01*
X93027401Y-59564247D01*
X93216562Y-59447124D01*
X93380981Y-59297236D01*
X93515058Y-59119689D01*
X93614229Y-58920528D01*
X93675115Y-58706536D01*
X93695643Y-58485000D01*
X93675115Y-58263464D01*
X93614229Y-58049472D01*
X93614224Y-58049461D01*
X93515061Y-57850316D01*
X93515056Y-57850308D01*
X93380979Y-57672761D01*
X93216562Y-57522876D01*
X93216560Y-57522874D01*
X93027404Y-57405754D01*
X93027398Y-57405752D01*
X92819940Y-57325382D01*
X92601243Y-57284500D01*
X92378757Y-57284500D01*
X92160060Y-57325382D01*
X92052025Y-57367235D01*
X91952601Y-57405752D01*
X91952595Y-57405754D01*
X91763439Y-57522874D01*
X91763437Y-57522876D01*
X91623538Y-57650411D01*
X91560734Y-57681028D01*
X91491347Y-57672830D01*
X91456462Y-57650411D01*
X91316562Y-57522876D01*
X91316560Y-57522874D01*
X91127404Y-57405754D01*
X91127398Y-57405752D01*
X91079705Y-57387275D01*
X91024305Y-57344703D01*
X91000714Y-57278936D01*
X91000500Y-57271649D01*
X91000500Y-55326343D01*
X91020185Y-55259304D01*
X91065483Y-55217288D01*
X91168626Y-55161470D01*
X91345978Y-55023431D01*
X91410969Y-54997790D01*
X91479509Y-55011356D01*
X91529834Y-55059824D01*
X91538320Y-55077953D01*
X91556645Y-55127086D01*
X91556649Y-55127093D01*
X91642809Y-55242187D01*
X91642812Y-55242190D01*
X91757906Y-55328350D01*
X91757913Y-55328354D01*
X91892620Y-55378596D01*
X91892627Y-55378598D01*
X91952155Y-55384999D01*
X91952172Y-55385000D01*
X92650000Y-55385000D01*
X92650000Y-54418012D01*
X92707007Y-54450925D01*
X92834174Y-54485000D01*
X92965826Y-54485000D01*
X93092993Y-54450925D01*
X93150000Y-54418012D01*
X93150000Y-55385000D01*
X93847828Y-55385000D01*
X93847844Y-55384999D01*
X93907372Y-55378598D01*
X93907379Y-55378596D01*
X94042086Y-55328354D01*
X94042093Y-55328350D01*
X94157187Y-55242190D01*
X94157190Y-55242187D01*
X94243350Y-55127093D01*
X94243354Y-55127086D01*
X94293596Y-54992379D01*
X94293598Y-54992372D01*
X94299999Y-54932844D01*
X94300000Y-54932827D01*
X94300000Y-54235000D01*
X93333012Y-54235000D01*
X93365925Y-54177993D01*
X93400000Y-54050826D01*
X93400000Y-53919174D01*
X93365925Y-53792007D01*
X93333012Y-53735000D01*
X94300000Y-53735000D01*
X94300000Y-53215000D01*
X103370275Y-53215000D01*
X103388165Y-53327959D01*
X103463560Y-53559998D01*
X103574321Y-53777377D01*
X103717728Y-53974759D01*
X103890240Y-54147271D01*
X104087622Y-54290678D01*
X104305001Y-54401439D01*
X104537040Y-54476834D01*
X104778007Y-54515000D01*
X105150000Y-54515000D01*
X105150000Y-53265000D01*
X105650000Y-53265000D01*
X105650000Y-54515000D01*
X106021993Y-54515000D01*
X106262959Y-54476834D01*
X106494998Y-54401439D01*
X106712377Y-54290678D01*
X106909759Y-54147271D01*
X107082271Y-53974759D01*
X107225678Y-53777377D01*
X107336439Y-53559998D01*
X107411834Y-53327959D01*
X107429725Y-53215000D01*
X106066988Y-53215000D01*
X106084205Y-53205060D01*
X106140060Y-53149205D01*
X106179556Y-53080796D01*
X106200000Y-53004496D01*
X106200000Y-52925504D01*
X106179556Y-52849204D01*
X106140060Y-52780795D01*
X106084205Y-52724940D01*
X106066988Y-52715000D01*
X107429725Y-52715000D01*
X107411834Y-52602040D01*
X107336439Y-52370001D01*
X107225678Y-52152622D01*
X107082271Y-51955240D01*
X106909759Y-51782728D01*
X106724550Y-51648165D01*
X106681885Y-51592835D01*
X106675906Y-51523221D01*
X106708512Y-51461426D01*
X106727354Y-51445551D01*
X106788142Y-51403911D01*
X106938911Y-51253142D01*
X107059409Y-51077237D01*
X107145532Y-50882185D01*
X107194349Y-50674630D01*
X107200500Y-50586012D01*
X107200500Y-49143988D01*
X107194349Y-49055370D01*
X107194347Y-49055364D01*
X107194347Y-49055359D01*
X107145534Y-48847823D01*
X107145532Y-48847817D01*
X107145532Y-48847815D01*
X107059409Y-48652763D01*
X106938911Y-48476858D01*
X106938906Y-48476852D01*
X106788147Y-48326093D01*
X106788141Y-48326088D01*
X106612238Y-48205592D01*
X106612239Y-48205592D01*
X106612237Y-48205591D01*
X106417185Y-48119468D01*
X106417183Y-48119467D01*
X106417182Y-48119467D01*
X106417176Y-48119465D01*
X106209640Y-48070652D01*
X106209624Y-48070650D01*
X106121016Y-48064500D01*
X106121012Y-48064500D01*
X104678988Y-48064500D01*
X104678984Y-48064500D01*
X104590375Y-48070650D01*
X104590359Y-48070652D01*
X104382823Y-48119465D01*
X104382817Y-48119467D01*
X104187761Y-48205592D01*
X104011858Y-48326088D01*
X104011852Y-48326093D01*
X103861093Y-48476852D01*
X103861088Y-48476858D01*
X103740592Y-48652761D01*
X103654467Y-48847817D01*
X103654465Y-48847823D01*
X103605652Y-49055359D01*
X103605650Y-49055375D01*
X103599500Y-49143984D01*
X103599500Y-50586015D01*
X103605650Y-50674624D01*
X103605652Y-50674640D01*
X103654465Y-50882176D01*
X103654467Y-50882182D01*
X103654468Y-50882185D01*
X103740591Y-51077237D01*
X103740592Y-51077238D01*
X103861088Y-51253141D01*
X103861093Y-51253147D01*
X104011852Y-51403906D01*
X104011857Y-51403910D01*
X104011858Y-51403911D01*
X104072637Y-51445546D01*
X104072639Y-51445547D01*
X104116822Y-51499673D01*
X104124729Y-51569093D01*
X104093849Y-51631769D01*
X104075449Y-51648165D01*
X103890241Y-51782727D01*
X103717728Y-51955240D01*
X103574321Y-52152622D01*
X103463560Y-52370001D01*
X103388165Y-52602040D01*
X103370275Y-52715000D01*
X104733012Y-52715000D01*
X104715795Y-52724940D01*
X104659940Y-52780795D01*
X104620444Y-52849204D01*
X104600000Y-52925504D01*
X104600000Y-53004496D01*
X104620444Y-53080796D01*
X104659940Y-53149205D01*
X104715795Y-53205060D01*
X104733012Y-53215000D01*
X103370275Y-53215000D01*
X94300000Y-53215000D01*
X94300000Y-53037172D01*
X94299999Y-53037155D01*
X94293598Y-52977627D01*
X94293596Y-52977620D01*
X94243354Y-52842913D01*
X94243350Y-52842906D01*
X94157190Y-52727812D01*
X94157187Y-52727809D01*
X94042093Y-52641649D01*
X94042086Y-52641645D01*
X93907379Y-52591403D01*
X93907372Y-52591401D01*
X93847844Y-52585000D01*
X93150000Y-52585000D01*
X93150000Y-53551988D01*
X93092993Y-53519075D01*
X92965826Y-53485000D01*
X92834174Y-53485000D01*
X92707007Y-53519075D01*
X92650000Y-53551988D01*
X92650000Y-52585000D01*
X91952155Y-52585000D01*
X91892627Y-52591401D01*
X91892620Y-52591403D01*
X91757913Y-52641645D01*
X91757906Y-52641649D01*
X91642812Y-52727809D01*
X91642809Y-52727812D01*
X91556649Y-52842906D01*
X91556646Y-52842911D01*
X91538320Y-52892047D01*
X91496448Y-52947980D01*
X91430984Y-52972397D01*
X91362711Y-52957545D01*
X91345976Y-52946566D01*
X91168634Y-52808535D01*
X91168628Y-52808531D01*
X90964504Y-52698064D01*
X90964495Y-52698061D01*
X90744984Y-52622702D01*
X90557404Y-52591401D01*
X90516049Y-52584500D01*
X90283951Y-52584500D01*
X90242596Y-52591401D01*
X90055015Y-52622702D01*
X89835504Y-52698061D01*
X89835495Y-52698064D01*
X89631371Y-52808531D01*
X89631365Y-52808535D01*
X89448222Y-52951081D01*
X89448219Y-52951084D01*
X89448216Y-52951086D01*
X89448216Y-52951087D01*
X89423785Y-52977627D01*
X89291015Y-53121854D01*
X89253808Y-53178804D01*
X89200662Y-53224161D01*
X89131430Y-53233584D01*
X89068095Y-53204082D01*
X89046192Y-53178804D01*
X89008984Y-53121854D01*
X89008982Y-53121852D01*
X89008979Y-53121847D01*
X88851784Y-52951087D01*
X88851779Y-52951083D01*
X88851777Y-52951081D01*
X88668634Y-52808535D01*
X88668628Y-52808531D01*
X88464504Y-52698064D01*
X88464495Y-52698061D01*
X88244984Y-52622702D01*
X88057404Y-52591401D01*
X88016049Y-52584500D01*
X87783951Y-52584500D01*
X87742596Y-52591401D01*
X87555015Y-52622702D01*
X87335504Y-52698061D01*
X87335495Y-52698064D01*
X87131371Y-52808531D01*
X87131365Y-52808535D01*
X86948222Y-52951081D01*
X86948219Y-52951084D01*
X86791016Y-53121852D01*
X86664075Y-53316151D01*
X86570842Y-53528699D01*
X86513866Y-53753691D01*
X86513864Y-53753702D01*
X86494700Y-53984993D01*
X86494700Y-53985006D01*
X86513864Y-54216297D01*
X86513866Y-54216308D01*
X86570842Y-54441300D01*
X86664075Y-54653848D01*
X86791016Y-54848147D01*
X86791019Y-54848151D01*
X86791021Y-54848153D01*
X86948216Y-55018913D01*
X86948219Y-55018915D01*
X86948222Y-55018918D01*
X87131365Y-55161464D01*
X87131371Y-55161468D01*
X87131374Y-55161470D01*
X87335497Y-55271936D01*
X87449487Y-55311068D01*
X87555015Y-55347297D01*
X87555017Y-55347297D01*
X87555019Y-55347298D01*
X87783951Y-55385500D01*
X87783952Y-55385500D01*
X88016048Y-55385500D01*
X88016049Y-55385500D01*
X88244981Y-55347298D01*
X88464503Y-55271936D01*
X88668626Y-55161470D01*
X88851784Y-55018913D01*
X89008979Y-54848153D01*
X89046191Y-54791196D01*
X89099337Y-54745839D01*
X89168569Y-54736415D01*
X89231904Y-54765917D01*
X89253809Y-54791196D01*
X89291016Y-54848147D01*
X89291019Y-54848151D01*
X89291021Y-54848153D01*
X89448216Y-55018913D01*
X89448219Y-55018915D01*
X89448222Y-55018918D01*
X89631365Y-55161464D01*
X89631376Y-55161471D01*
X89734517Y-55217288D01*
X89784108Y-55266507D01*
X89799500Y-55326343D01*
X89799500Y-57526411D01*
X89779815Y-57593450D01*
X89759039Y-57618047D01*
X89699025Y-57672757D01*
X89699021Y-57672761D01*
X89564943Y-57850308D01*
X89564938Y-57850316D01*
X89465775Y-58049461D01*
X89465769Y-58049476D01*
X89404885Y-58263462D01*
X89404884Y-58263464D01*
X89384357Y-58484999D01*
X89384357Y-58485000D01*
X89404884Y-58706535D01*
X89404885Y-58706537D01*
X89465769Y-58920523D01*
X89465775Y-58920538D01*
X89564938Y-59119683D01*
X89564943Y-59119691D01*
X89699020Y-59297238D01*
X89863437Y-59447123D01*
X89863439Y-59447125D01*
X90052595Y-59564245D01*
X90052596Y-59564245D01*
X90052599Y-59564247D01*
X90260060Y-59644618D01*
X90478757Y-59685500D01*
X90478759Y-59685500D01*
X90701241Y-59685500D01*
X90701243Y-59685500D01*
X90852717Y-59657184D01*
X90922230Y-59664215D01*
X90976908Y-59707712D01*
X90999391Y-59773866D01*
X90999500Y-59779073D01*
X90999500Y-72536405D01*
X90979815Y-72603444D01*
X90927011Y-72649199D01*
X90857853Y-72659143D01*
X90835238Y-72653686D01*
X90744986Y-72622702D01*
X90554204Y-72590867D01*
X90516049Y-72584500D01*
X90283951Y-72584500D01*
X90242596Y-72591401D01*
X90055015Y-72622702D01*
X89835504Y-72698061D01*
X89835495Y-72698064D01*
X89631371Y-72808531D01*
X89631365Y-72808535D01*
X89448222Y-72951081D01*
X89448219Y-72951084D01*
X89448216Y-72951086D01*
X89448216Y-72951087D01*
X89423785Y-72977627D01*
X89291015Y-73121854D01*
X89253808Y-73178804D01*
X89200662Y-73224161D01*
X89131430Y-73233584D01*
X89068095Y-73204082D01*
X89046192Y-73178804D01*
X89008984Y-73121854D01*
X89008982Y-73121852D01*
X89008979Y-73121847D01*
X88851784Y-72951087D01*
X88851779Y-72951083D01*
X88851777Y-72951081D01*
X88668634Y-72808535D01*
X88668628Y-72808531D01*
X88464504Y-72698064D01*
X88464495Y-72698061D01*
X88244984Y-72622702D01*
X88057404Y-72591401D01*
X88016049Y-72584500D01*
X87783951Y-72584500D01*
X87742596Y-72591401D01*
X87555015Y-72622702D01*
X87335504Y-72698061D01*
X87335495Y-72698064D01*
X87131371Y-72808531D01*
X87131365Y-72808535D01*
X86948222Y-72951081D01*
X86948219Y-72951084D01*
X86791016Y-73121852D01*
X86664075Y-73316151D01*
X86570842Y-73528699D01*
X86513866Y-73753691D01*
X86513864Y-73753702D01*
X86494700Y-73984993D01*
X86494700Y-73985006D01*
X86513864Y-74216297D01*
X86513866Y-74216308D01*
X86570842Y-74441300D01*
X86664075Y-74653848D01*
X86791016Y-74848147D01*
X86791019Y-74848151D01*
X86791021Y-74848153D01*
X86948216Y-75018913D01*
X86948219Y-75018915D01*
X86948222Y-75018918D01*
X87131365Y-75161464D01*
X87131371Y-75161468D01*
X87131374Y-75161470D01*
X87335497Y-75271936D01*
X87449487Y-75311068D01*
X87555015Y-75347297D01*
X87555017Y-75347297D01*
X87555019Y-75347298D01*
X87783951Y-75385500D01*
X87783952Y-75385500D01*
X88016048Y-75385500D01*
X88016049Y-75385500D01*
X88244981Y-75347298D01*
X88464503Y-75271936D01*
X88668626Y-75161470D01*
X88851784Y-75018913D01*
X89008979Y-74848153D01*
X89046191Y-74791196D01*
X89099337Y-74745839D01*
X89168569Y-74736415D01*
X89231904Y-74765917D01*
X89253809Y-74791196D01*
X89291016Y-74848147D01*
X89291019Y-74848151D01*
X89291021Y-74848153D01*
X89448216Y-75018913D01*
X89448219Y-75018915D01*
X89448222Y-75018918D01*
X89631365Y-75161464D01*
X89631376Y-75161471D01*
X89734517Y-75217288D01*
X89784108Y-75266507D01*
X89799500Y-75326343D01*
X89799500Y-76444365D01*
X89779815Y-76511404D01*
X89759039Y-76536002D01*
X89609018Y-76672764D01*
X89474943Y-76850308D01*
X89474938Y-76850316D01*
X89375775Y-77049461D01*
X89375769Y-77049476D01*
X89314885Y-77263462D01*
X89314884Y-77263464D01*
X89294357Y-77484999D01*
X89294357Y-77485000D01*
X89314884Y-77706535D01*
X89314885Y-77706537D01*
X89375769Y-77920523D01*
X89375775Y-77920538D01*
X89474938Y-78119683D01*
X89474943Y-78119691D01*
X89609020Y-78297238D01*
X89773437Y-78447123D01*
X89773439Y-78447125D01*
X89962595Y-78564245D01*
X89962596Y-78564245D01*
X89962599Y-78564247D01*
X90170060Y-78644618D01*
X90388757Y-78685500D01*
X90388759Y-78685500D01*
X90611241Y-78685500D01*
X90611243Y-78685500D01*
X90829940Y-78644618D01*
X91037401Y-78564247D01*
X91226562Y-78447124D01*
X91366462Y-78319587D01*
X91429266Y-78288971D01*
X91498653Y-78297168D01*
X91533538Y-78319588D01*
X91673433Y-78447120D01*
X91673435Y-78447121D01*
X91673438Y-78447124D01*
X91740778Y-78488818D01*
X91787412Y-78540843D01*
X91799500Y-78594244D01*
X91799500Y-87613330D01*
X91799499Y-87613348D01*
X91799499Y-87779054D01*
X91799498Y-87779054D01*
X91799499Y-87779057D01*
X91840423Y-87931785D01*
X91864995Y-87974345D01*
X91919477Y-88068712D01*
X91919481Y-88068717D01*
X92038349Y-88187585D01*
X92038355Y-88187590D01*
X95563181Y-91712416D01*
X95596666Y-91773739D01*
X95599500Y-91800097D01*
X95599500Y-96360500D01*
X95579815Y-96427539D01*
X95527011Y-96473294D01*
X95475500Y-96484500D01*
X95288757Y-96484500D01*
X95070060Y-96525382D01*
X94947774Y-96572756D01*
X94862601Y-96605752D01*
X94862595Y-96605754D01*
X94673439Y-96722874D01*
X94673437Y-96722876D01*
X94509020Y-96872761D01*
X94461849Y-96935227D01*
X94405740Y-96976863D01*
X94362895Y-96984500D01*
X93412621Y-96984500D01*
X93345582Y-96964815D01*
X93313667Y-96935227D01*
X93190979Y-96772761D01*
X93026562Y-96622876D01*
X93026560Y-96622874D01*
X92837404Y-96505754D01*
X92837398Y-96505752D01*
X92629940Y-96425382D01*
X92411243Y-96384500D01*
X92188757Y-96384500D01*
X91970060Y-96425382D01*
X91919880Y-96444822D01*
X91762601Y-96505752D01*
X91762595Y-96505754D01*
X91573439Y-96622874D01*
X91573437Y-96622876D01*
X91409020Y-96772761D01*
X91274943Y-96950308D01*
X91274938Y-96950316D01*
X91175775Y-97149461D01*
X91175769Y-97149476D01*
X91114885Y-97363462D01*
X91114884Y-97363464D01*
X91094357Y-97584999D01*
X91094357Y-97585000D01*
X91114884Y-97806535D01*
X91114885Y-97806537D01*
X91175769Y-98020523D01*
X91175775Y-98020538D01*
X91274938Y-98219683D01*
X91274943Y-98219691D01*
X91301025Y-98254229D01*
X91409017Y-98397234D01*
X91409021Y-98397238D01*
X91409026Y-98397243D01*
X91459617Y-98443364D01*
X91495898Y-98503076D01*
X91494137Y-98572923D01*
X91459617Y-98626636D01*
X91409026Y-98672756D01*
X91409021Y-98672761D01*
X91274943Y-98850308D01*
X91274938Y-98850316D01*
X91175775Y-99049461D01*
X91175769Y-99049476D01*
X91114885Y-99263462D01*
X91114884Y-99263464D01*
X91094357Y-99484999D01*
X91094357Y-99485000D01*
X91114885Y-99706537D01*
X91120270Y-99725463D01*
X91119683Y-99795330D01*
X91088685Y-99847078D01*
X90031286Y-100904478D01*
X89919481Y-101016282D01*
X89919479Y-101016285D01*
X89876348Y-101090992D01*
X89876347Y-101090993D01*
X89840423Y-101153214D01*
X89840423Y-101153215D01*
X89799499Y-101305943D01*
X89799499Y-101305945D01*
X89799499Y-101474046D01*
X89799500Y-101474059D01*
X89799500Y-112643655D01*
X89779815Y-112710694D01*
X89734519Y-112752709D01*
X89631376Y-112808528D01*
X89631365Y-112808535D01*
X89448222Y-112951081D01*
X89448219Y-112951084D01*
X89448216Y-112951086D01*
X89448216Y-112951087D01*
X89423785Y-112977627D01*
X89291015Y-113121854D01*
X89253808Y-113178804D01*
X89200662Y-113224161D01*
X89131430Y-113233584D01*
X89068095Y-113204082D01*
X89046192Y-113178804D01*
X89008984Y-113121854D01*
X89008982Y-113121852D01*
X89008979Y-113121847D01*
X88851784Y-112951087D01*
X88851779Y-112951083D01*
X88851777Y-112951081D01*
X88668634Y-112808535D01*
X88668628Y-112808531D01*
X88464504Y-112698064D01*
X88464495Y-112698061D01*
X88244984Y-112622702D01*
X88057404Y-112591401D01*
X88016049Y-112584500D01*
X87783951Y-112584500D01*
X87742596Y-112591401D01*
X87555015Y-112622702D01*
X87335504Y-112698061D01*
X87335495Y-112698064D01*
X87131371Y-112808531D01*
X87131365Y-112808535D01*
X86948222Y-112951081D01*
X86948219Y-112951084D01*
X86791016Y-113121852D01*
X86664076Y-113316149D01*
X86651380Y-113345095D01*
X86606424Y-113398580D01*
X86539687Y-113419270D01*
X86472360Y-113400595D01*
X86450143Y-113382965D01*
X82936819Y-109869641D01*
X82903334Y-109808318D01*
X82900500Y-109781960D01*
X82900500Y-106866951D01*
X83739500Y-106866951D01*
X83761175Y-107031578D01*
X83771334Y-107108744D01*
X83814064Y-107268216D01*
X83834456Y-107344320D01*
X83834459Y-107344330D01*
X83927786Y-107569640D01*
X83927791Y-107569651D01*
X84049727Y-107780848D01*
X84049738Y-107780864D01*
X84198199Y-107974343D01*
X84198205Y-107974350D01*
X84370649Y-108146794D01*
X84370655Y-108146799D01*
X84564144Y-108295268D01*
X84564151Y-108295272D01*
X84775348Y-108417208D01*
X84775353Y-108417210D01*
X84775356Y-108417212D01*
X85000679Y-108510544D01*
X85236256Y-108573666D01*
X85478056Y-108605500D01*
X85478063Y-108605500D01*
X85721937Y-108605500D01*
X85721944Y-108605500D01*
X85963744Y-108573666D01*
X86199321Y-108510544D01*
X86424644Y-108417212D01*
X86635856Y-108295268D01*
X86829345Y-108146799D01*
X87001799Y-107974345D01*
X87150268Y-107780856D01*
X87272212Y-107569644D01*
X87365544Y-107344321D01*
X87428666Y-107108744D01*
X87460500Y-106866944D01*
X87460500Y-106103056D01*
X87428666Y-105861256D01*
X87365544Y-105625679D01*
X87272212Y-105400356D01*
X87272210Y-105400353D01*
X87272208Y-105400348D01*
X87150272Y-105189151D01*
X87150268Y-105189144D01*
X87001799Y-104995655D01*
X87001794Y-104995649D01*
X86829350Y-104823205D01*
X86829343Y-104823199D01*
X86635864Y-104674738D01*
X86635862Y-104674736D01*
X86635856Y-104674732D01*
X86635851Y-104674729D01*
X86635848Y-104674727D01*
X86424651Y-104552791D01*
X86424640Y-104552786D01*
X86199330Y-104459459D01*
X86199323Y-104459457D01*
X86199321Y-104459456D01*
X85963744Y-104396334D01*
X85923333Y-104391013D01*
X85721951Y-104364500D01*
X85721944Y-104364500D01*
X85478056Y-104364500D01*
X85478048Y-104364500D01*
X85247896Y-104394801D01*
X85236256Y-104396334D01*
X85000679Y-104459456D01*
X85000669Y-104459459D01*
X84775359Y-104552786D01*
X84775348Y-104552791D01*
X84564151Y-104674727D01*
X84564135Y-104674738D01*
X84370656Y-104823199D01*
X84370649Y-104823205D01*
X84198205Y-104995649D01*
X84198199Y-104995656D01*
X84049738Y-105189135D01*
X84049727Y-105189151D01*
X83927791Y-105400348D01*
X83927786Y-105400359D01*
X83834459Y-105625669D01*
X83834456Y-105625679D01*
X83794658Y-105774211D01*
X83771335Y-105861253D01*
X83771333Y-105861264D01*
X83739500Y-106103048D01*
X83739500Y-106866951D01*
X82900500Y-106866951D01*
X82900500Y-103179060D01*
X82900501Y-103179047D01*
X82900501Y-103010944D01*
X82887846Y-102963716D01*
X82859577Y-102858216D01*
X82843507Y-102830382D01*
X82780524Y-102721290D01*
X82780518Y-102721282D01*
X82511314Y-102452079D01*
X82477829Y-102390756D01*
X82479730Y-102330460D01*
X82485115Y-102311536D01*
X82505643Y-102090000D01*
X82485115Y-101868464D01*
X82424229Y-101654472D01*
X82424224Y-101654461D01*
X82325061Y-101455316D01*
X82325056Y-101455308D01*
X82190979Y-101277761D01*
X82026563Y-101127877D01*
X82026562Y-101127876D01*
X81959221Y-101086180D01*
X81912587Y-101034153D01*
X81900500Y-100980754D01*
X81900500Y-98621075D01*
X81920185Y-98554036D01*
X81940960Y-98529440D01*
X81989708Y-98485000D01*
X84294357Y-98485000D01*
X84314884Y-98706535D01*
X84314885Y-98706537D01*
X84375769Y-98920523D01*
X84375775Y-98920538D01*
X84474938Y-99119683D01*
X84474943Y-99119691D01*
X84609020Y-99297238D01*
X84773437Y-99447123D01*
X84773439Y-99447125D01*
X84962595Y-99564245D01*
X84962596Y-99564245D01*
X84962599Y-99564247D01*
X85170060Y-99644618D01*
X85388757Y-99685500D01*
X85388759Y-99685500D01*
X85611241Y-99685500D01*
X85611243Y-99685500D01*
X85829940Y-99644618D01*
X86037401Y-99564247D01*
X86226562Y-99447124D01*
X86366462Y-99319587D01*
X86429266Y-99288971D01*
X86498653Y-99297168D01*
X86533538Y-99319588D01*
X86673437Y-99447123D01*
X86673439Y-99447125D01*
X86862595Y-99564245D01*
X86862596Y-99564245D01*
X86862599Y-99564247D01*
X87070060Y-99644618D01*
X87288757Y-99685500D01*
X87288759Y-99685500D01*
X87511241Y-99685500D01*
X87511243Y-99685500D01*
X87729940Y-99644618D01*
X87937401Y-99564247D01*
X88126562Y-99447124D01*
X88290981Y-99297236D01*
X88425058Y-99119689D01*
X88524229Y-98920528D01*
X88585115Y-98706536D01*
X88605643Y-98485000D01*
X88585115Y-98263464D01*
X88524229Y-98049472D01*
X88524224Y-98049461D01*
X88425061Y-97850316D01*
X88425056Y-97850308D01*
X88290979Y-97672761D01*
X88126562Y-97522876D01*
X88126560Y-97522874D01*
X87937404Y-97405754D01*
X87937398Y-97405752D01*
X87748032Y-97332391D01*
X87692634Y-97289820D01*
X87669043Y-97224053D01*
X87684754Y-97155973D01*
X87705144Y-97129089D01*
X89536907Y-95297326D01*
X89598228Y-95263843D01*
X89667920Y-95268827D01*
X89674392Y-95271451D01*
X89675493Y-95271934D01*
X89675497Y-95271936D01*
X89675500Y-95271937D01*
X89895015Y-95347297D01*
X89895017Y-95347297D01*
X89895019Y-95347298D01*
X90123951Y-95385500D01*
X90123952Y-95385500D01*
X90356048Y-95385500D01*
X90356049Y-95385500D01*
X90584981Y-95347298D01*
X90804503Y-95271936D01*
X91008626Y-95161470D01*
X91185978Y-95023431D01*
X91250969Y-94997790D01*
X91319509Y-95011356D01*
X91369834Y-95059824D01*
X91378320Y-95077953D01*
X91396645Y-95127086D01*
X91396649Y-95127093D01*
X91482809Y-95242187D01*
X91482812Y-95242190D01*
X91597906Y-95328350D01*
X91597913Y-95328354D01*
X91732620Y-95378596D01*
X91732627Y-95378598D01*
X91792155Y-95384999D01*
X91792172Y-95385000D01*
X92490000Y-95385000D01*
X92490000Y-94418012D01*
X92547007Y-94450925D01*
X92674174Y-94485000D01*
X92805826Y-94485000D01*
X92932993Y-94450925D01*
X92990000Y-94418012D01*
X92990000Y-95385000D01*
X93687828Y-95385000D01*
X93687844Y-95384999D01*
X93747372Y-95378598D01*
X93747379Y-95378596D01*
X93882086Y-95328354D01*
X93882093Y-95328350D01*
X93997187Y-95242190D01*
X93997190Y-95242187D01*
X94083350Y-95127093D01*
X94083354Y-95127086D01*
X94133596Y-94992379D01*
X94133598Y-94992372D01*
X94139999Y-94932844D01*
X94140000Y-94932827D01*
X94140000Y-94235000D01*
X93173012Y-94235000D01*
X93205925Y-94177993D01*
X93240000Y-94050826D01*
X93240000Y-93919174D01*
X93205925Y-93792007D01*
X93173012Y-93735000D01*
X94140000Y-93735000D01*
X94140000Y-93037172D01*
X94139999Y-93037155D01*
X94133598Y-92977627D01*
X94133596Y-92977620D01*
X94083354Y-92842913D01*
X94083350Y-92842906D01*
X93997190Y-92727812D01*
X93997187Y-92727809D01*
X93882093Y-92641649D01*
X93882086Y-92641645D01*
X93747379Y-92591403D01*
X93747372Y-92591401D01*
X93687844Y-92585000D01*
X92990000Y-92585000D01*
X92990000Y-93551988D01*
X92932993Y-93519075D01*
X92805826Y-93485000D01*
X92674174Y-93485000D01*
X92547007Y-93519075D01*
X92490000Y-93551988D01*
X92490000Y-92585000D01*
X91792155Y-92585000D01*
X91732627Y-92591401D01*
X91732620Y-92591403D01*
X91597913Y-92641645D01*
X91597906Y-92641649D01*
X91482812Y-92727809D01*
X91482809Y-92727812D01*
X91396649Y-92842906D01*
X91396646Y-92842911D01*
X91378320Y-92892047D01*
X91336448Y-92947980D01*
X91270984Y-92972397D01*
X91202711Y-92957545D01*
X91185976Y-92946566D01*
X91008634Y-92808535D01*
X91008628Y-92808531D01*
X90804504Y-92698064D01*
X90804495Y-92698061D01*
X90584984Y-92622702D01*
X90397404Y-92591401D01*
X90356049Y-92584500D01*
X90123951Y-92584500D01*
X90082596Y-92591401D01*
X89895015Y-92622702D01*
X89675504Y-92698061D01*
X89675495Y-92698064D01*
X89471371Y-92808531D01*
X89471365Y-92808535D01*
X89288222Y-92951081D01*
X89288219Y-92951084D01*
X89288216Y-92951086D01*
X89288216Y-92951087D01*
X89263785Y-92977627D01*
X89131015Y-93121854D01*
X89093808Y-93178804D01*
X89040662Y-93224161D01*
X88971430Y-93233584D01*
X88908095Y-93204082D01*
X88886192Y-93178804D01*
X88848984Y-93121854D01*
X88848982Y-93121852D01*
X88848979Y-93121847D01*
X88691784Y-92951087D01*
X88691779Y-92951083D01*
X88691777Y-92951081D01*
X88508634Y-92808535D01*
X88508628Y-92808531D01*
X88304504Y-92698064D01*
X88304495Y-92698061D01*
X88084984Y-92622702D01*
X87897404Y-92591401D01*
X87856049Y-92584500D01*
X87623951Y-92584500D01*
X87582596Y-92591401D01*
X87395015Y-92622702D01*
X87175504Y-92698061D01*
X87175495Y-92698064D01*
X86971371Y-92808531D01*
X86971365Y-92808535D01*
X86788222Y-92951081D01*
X86788219Y-92951084D01*
X86788216Y-92951086D01*
X86788216Y-92951087D01*
X86768599Y-92972397D01*
X86631016Y-93121852D01*
X86504075Y-93316151D01*
X86410842Y-93528699D01*
X86353866Y-93753691D01*
X86353864Y-93753702D01*
X86334700Y-93984993D01*
X86334700Y-93985006D01*
X86353864Y-94216297D01*
X86353866Y-94216308D01*
X86410842Y-94441300D01*
X86504075Y-94653848D01*
X86631016Y-94848147D01*
X86631019Y-94848151D01*
X86631021Y-94848153D01*
X86788216Y-95018913D01*
X86788219Y-95018915D01*
X86788222Y-95018918D01*
X86971365Y-95161464D01*
X86971371Y-95161468D01*
X86971374Y-95161470D01*
X87175497Y-95271936D01*
X87395019Y-95347298D01*
X87494589Y-95363913D01*
X87557474Y-95394363D01*
X87593914Y-95453978D01*
X87592339Y-95523830D01*
X87561861Y-95573903D01*
X85859680Y-97276083D01*
X85798357Y-97309568D01*
X85749215Y-97310291D01*
X85716442Y-97304164D01*
X85611243Y-97284500D01*
X85388757Y-97284500D01*
X85170060Y-97325382D01*
X85071759Y-97363464D01*
X84962601Y-97405752D01*
X84962595Y-97405754D01*
X84773439Y-97522874D01*
X84773437Y-97522876D01*
X84609020Y-97672761D01*
X84474943Y-97850308D01*
X84474938Y-97850316D01*
X84375775Y-98049461D01*
X84375769Y-98049476D01*
X84314885Y-98263462D01*
X84314884Y-98263464D01*
X84294357Y-98484999D01*
X84294357Y-98485000D01*
X81989708Y-98485000D01*
X82085981Y-98397236D01*
X82220058Y-98219689D01*
X82319229Y-98020528D01*
X82380115Y-97806536D01*
X82400643Y-97585000D01*
X82394886Y-97522876D01*
X82380115Y-97363464D01*
X82380114Y-97363462D01*
X82371274Y-97332393D01*
X82319229Y-97149472D01*
X82319224Y-97149461D01*
X82220061Y-96950316D01*
X82220056Y-96950308D01*
X82085979Y-96772761D01*
X81921562Y-96622876D01*
X81921560Y-96622874D01*
X81732404Y-96505754D01*
X81732398Y-96505752D01*
X81524940Y-96425382D01*
X81306243Y-96384500D01*
X81083757Y-96384500D01*
X80865060Y-96425382D01*
X80814880Y-96444822D01*
X80657601Y-96505752D01*
X80657595Y-96505754D01*
X80468439Y-96622874D01*
X80468437Y-96622876D01*
X80328538Y-96750411D01*
X80265734Y-96781028D01*
X80196347Y-96772830D01*
X80161462Y-96750411D01*
X80021562Y-96622876D01*
X80021560Y-96622874D01*
X79832404Y-96505754D01*
X79832398Y-96505752D01*
X79624940Y-96425382D01*
X79406243Y-96384500D01*
X79183757Y-96384500D01*
X78965060Y-96425382D01*
X78914880Y-96444822D01*
X78757601Y-96505752D01*
X78757595Y-96505754D01*
X78568439Y-96622874D01*
X78568437Y-96622876D01*
X78404020Y-96772761D01*
X78269943Y-96950308D01*
X78269938Y-96950316D01*
X78170775Y-97149461D01*
X78170769Y-97149476D01*
X78109885Y-97363462D01*
X78109884Y-97363464D01*
X78089357Y-97584999D01*
X78089357Y-97585000D01*
X77596377Y-97585000D01*
X77605643Y-97485000D01*
X77603647Y-97463464D01*
X77585115Y-97263464D01*
X77585114Y-97263462D01*
X77582340Y-97253713D01*
X77524229Y-97049472D01*
X77492126Y-96985000D01*
X77425061Y-96850316D01*
X77425056Y-96850308D01*
X77290979Y-96672761D01*
X77130689Y-96526638D01*
X77126562Y-96522876D01*
X77059221Y-96481180D01*
X77012587Y-96429153D01*
X77000500Y-96375754D01*
X77000500Y-95174060D01*
X77000501Y-95174047D01*
X77000501Y-95005944D01*
X76996866Y-94992379D01*
X76959577Y-94853216D01*
X76923770Y-94791196D01*
X76880524Y-94716290D01*
X76880518Y-94716282D01*
X74636819Y-92472583D01*
X74603334Y-92411260D01*
X74600500Y-92384902D01*
X74600500Y-90589060D01*
X74600501Y-90589047D01*
X74600501Y-90420944D01*
X74559576Y-90268214D01*
X74559573Y-90268209D01*
X74480524Y-90131290D01*
X74480518Y-90131282D01*
X73036819Y-88687583D01*
X73003334Y-88626260D01*
X73000500Y-88599902D01*
X73000500Y-86866951D01*
X73339500Y-86866951D01*
X73366013Y-87068333D01*
X73371334Y-87108744D01*
X73371335Y-87108746D01*
X73434456Y-87344320D01*
X73434459Y-87344330D01*
X73527786Y-87569640D01*
X73527791Y-87569651D01*
X73649727Y-87780848D01*
X73649738Y-87780864D01*
X73798199Y-87974343D01*
X73798205Y-87974350D01*
X73970649Y-88146794D01*
X73970655Y-88146799D01*
X74164144Y-88295268D01*
X74164151Y-88295272D01*
X74375348Y-88417208D01*
X74375353Y-88417210D01*
X74375356Y-88417212D01*
X74600679Y-88510544D01*
X74836256Y-88573666D01*
X75078056Y-88605500D01*
X75078063Y-88605500D01*
X75321937Y-88605500D01*
X75321944Y-88605500D01*
X75563744Y-88573666D01*
X75799321Y-88510544D01*
X76024644Y-88417212D01*
X76235856Y-88295268D01*
X76429345Y-88146799D01*
X76601799Y-87974345D01*
X76750268Y-87780856D01*
X76872212Y-87569644D01*
X76965544Y-87344321D01*
X77028666Y-87108744D01*
X77060499Y-86866951D01*
X83579500Y-86866951D01*
X83606013Y-87068333D01*
X83611334Y-87108744D01*
X83611335Y-87108746D01*
X83674456Y-87344320D01*
X83674459Y-87344330D01*
X83767786Y-87569640D01*
X83767791Y-87569651D01*
X83889727Y-87780848D01*
X83889738Y-87780864D01*
X84038199Y-87974343D01*
X84038205Y-87974350D01*
X84210649Y-88146794D01*
X84210655Y-88146799D01*
X84404144Y-88295268D01*
X84404151Y-88295272D01*
X84615348Y-88417208D01*
X84615353Y-88417210D01*
X84615356Y-88417212D01*
X84840679Y-88510544D01*
X85076256Y-88573666D01*
X85318056Y-88605500D01*
X85318063Y-88605500D01*
X85561937Y-88605500D01*
X85561944Y-88605500D01*
X85803744Y-88573666D01*
X86039321Y-88510544D01*
X86264644Y-88417212D01*
X86475856Y-88295268D01*
X86669345Y-88146799D01*
X86841799Y-87974345D01*
X86990268Y-87780856D01*
X87112212Y-87569644D01*
X87205544Y-87344321D01*
X87268666Y-87108744D01*
X87300500Y-86866944D01*
X87300500Y-86103056D01*
X87268666Y-85861256D01*
X87205544Y-85625679D01*
X87112212Y-85400356D01*
X87112210Y-85400353D01*
X87112208Y-85400348D01*
X86990272Y-85189151D01*
X86990268Y-85189144D01*
X86841799Y-84995655D01*
X86841794Y-84995649D01*
X86669350Y-84823205D01*
X86669343Y-84823199D01*
X86475864Y-84674738D01*
X86475862Y-84674736D01*
X86475856Y-84674732D01*
X86475851Y-84674729D01*
X86475848Y-84674727D01*
X86264651Y-84552791D01*
X86264640Y-84552786D01*
X86039330Y-84459459D01*
X86039323Y-84459457D01*
X86039321Y-84459456D01*
X85803744Y-84396334D01*
X85763333Y-84391013D01*
X85561951Y-84364500D01*
X85561944Y-84364500D01*
X85318056Y-84364500D01*
X85318048Y-84364500D01*
X85087896Y-84394801D01*
X85076256Y-84396334D01*
X84840679Y-84459456D01*
X84840669Y-84459459D01*
X84615359Y-84552786D01*
X84615348Y-84552791D01*
X84404151Y-84674727D01*
X84404135Y-84674738D01*
X84210656Y-84823199D01*
X84210649Y-84823205D01*
X84038205Y-84995649D01*
X84038199Y-84995656D01*
X83889738Y-85189135D01*
X83889727Y-85189151D01*
X83767791Y-85400348D01*
X83767786Y-85400359D01*
X83674459Y-85625669D01*
X83674456Y-85625679D01*
X83620109Y-85828509D01*
X83611335Y-85861253D01*
X83611333Y-85861264D01*
X83579500Y-86103048D01*
X83579500Y-86866951D01*
X77060499Y-86866951D01*
X77060500Y-86866944D01*
X77060500Y-86103056D01*
X77028666Y-85861256D01*
X76965544Y-85625679D01*
X76872212Y-85400356D01*
X76872210Y-85400353D01*
X76872208Y-85400348D01*
X76750272Y-85189151D01*
X76750268Y-85189144D01*
X76601799Y-84995655D01*
X76601794Y-84995649D01*
X76429350Y-84823205D01*
X76429343Y-84823199D01*
X76235864Y-84674738D01*
X76235862Y-84674736D01*
X76235856Y-84674732D01*
X76235851Y-84674729D01*
X76235848Y-84674727D01*
X76024651Y-84552791D01*
X76024640Y-84552786D01*
X75799330Y-84459459D01*
X75799323Y-84459457D01*
X75799321Y-84459456D01*
X75563744Y-84396334D01*
X75523333Y-84391013D01*
X75321951Y-84364500D01*
X75321944Y-84364500D01*
X75078056Y-84364500D01*
X75078048Y-84364500D01*
X74847896Y-84394801D01*
X74836256Y-84396334D01*
X74600679Y-84459456D01*
X74600669Y-84459459D01*
X74375359Y-84552786D01*
X74375348Y-84552791D01*
X74164151Y-84674727D01*
X74164135Y-84674738D01*
X73970656Y-84823199D01*
X73970649Y-84823205D01*
X73798205Y-84995649D01*
X73798199Y-84995656D01*
X73649738Y-85189135D01*
X73649727Y-85189151D01*
X73527791Y-85400348D01*
X73527786Y-85400359D01*
X73434459Y-85625669D01*
X73434456Y-85625679D01*
X73380109Y-85828509D01*
X73371335Y-85861253D01*
X73371333Y-85861264D01*
X73339500Y-86103048D01*
X73339500Y-86866951D01*
X73000500Y-86866951D01*
X73000500Y-79594244D01*
X73020185Y-79527205D01*
X73059220Y-79488819D01*
X73126562Y-79447124D01*
X73290981Y-79297236D01*
X73425058Y-79119689D01*
X73524229Y-78920528D01*
X73585115Y-78706536D01*
X73605643Y-78485000D01*
X73585115Y-78263464D01*
X73524229Y-78049472D01*
X73524224Y-78049461D01*
X73425061Y-77850316D01*
X73425056Y-77850308D01*
X73290979Y-77672761D01*
X73126562Y-77522876D01*
X73126560Y-77522874D01*
X72937404Y-77405754D01*
X72937398Y-77405752D01*
X72729940Y-77325382D01*
X72511243Y-77284500D01*
X72324500Y-77284500D01*
X72257461Y-77264815D01*
X72211706Y-77212011D01*
X72200500Y-77160500D01*
X72200500Y-75509000D01*
X72220185Y-75441961D01*
X72272989Y-75396206D01*
X72324500Y-75385000D01*
X72650000Y-75385000D01*
X72650000Y-74418012D01*
X72707007Y-74450925D01*
X72834174Y-74485000D01*
X72965826Y-74485000D01*
X73092993Y-74450925D01*
X73150000Y-74418012D01*
X73150000Y-75385000D01*
X73847828Y-75385000D01*
X73847844Y-75384999D01*
X73907372Y-75378598D01*
X73907379Y-75378596D01*
X74042086Y-75328354D01*
X74042093Y-75328350D01*
X74157187Y-75242190D01*
X74157190Y-75242187D01*
X74243350Y-75127093D01*
X74243354Y-75127086D01*
X74293596Y-74992379D01*
X74293598Y-74992372D01*
X74299999Y-74932844D01*
X74300000Y-74932827D01*
X74300000Y-74235000D01*
X73333012Y-74235000D01*
X73365925Y-74177993D01*
X73400000Y-74050826D01*
X73400000Y-73919174D01*
X73365925Y-73792007D01*
X73333012Y-73735000D01*
X74300000Y-73735000D01*
X74300000Y-73037172D01*
X74299999Y-73037155D01*
X74293598Y-72977627D01*
X74293596Y-72977620D01*
X74243354Y-72842913D01*
X74243350Y-72842906D01*
X74157190Y-72727812D01*
X74157187Y-72727809D01*
X74042093Y-72641649D01*
X74042086Y-72641645D01*
X73907379Y-72591403D01*
X73907372Y-72591401D01*
X73847844Y-72585000D01*
X73150000Y-72585000D01*
X73150000Y-73551988D01*
X73092993Y-73519075D01*
X72965826Y-73485000D01*
X72834174Y-73485000D01*
X72707007Y-73519075D01*
X72650000Y-73551988D01*
X72650000Y-72585000D01*
X72324500Y-72585000D01*
X72257461Y-72565315D01*
X72211706Y-72512511D01*
X72200500Y-72461000D01*
X72200500Y-66866951D01*
X73339500Y-66866951D01*
X73366013Y-67068333D01*
X73371334Y-67108744D01*
X73371335Y-67108746D01*
X73434456Y-67344320D01*
X73434459Y-67344330D01*
X73527786Y-67569640D01*
X73527791Y-67569651D01*
X73649727Y-67780848D01*
X73649738Y-67780864D01*
X73798199Y-67974343D01*
X73798205Y-67974350D01*
X73970649Y-68146794D01*
X73970655Y-68146799D01*
X74164144Y-68295268D01*
X74164151Y-68295272D01*
X74375348Y-68417208D01*
X74375353Y-68417210D01*
X74375356Y-68417212D01*
X74600679Y-68510544D01*
X74836256Y-68573666D01*
X75078056Y-68605500D01*
X75078063Y-68605500D01*
X75321937Y-68605500D01*
X75321944Y-68605500D01*
X75563744Y-68573666D01*
X75799321Y-68510544D01*
X76024644Y-68417212D01*
X76235856Y-68295268D01*
X76429345Y-68146799D01*
X76601799Y-67974345D01*
X76750268Y-67780856D01*
X76872212Y-67569644D01*
X76965544Y-67344321D01*
X77028666Y-67108744D01*
X77060499Y-66866951D01*
X83739500Y-66866951D01*
X83766013Y-67068333D01*
X83771334Y-67108744D01*
X83771335Y-67108746D01*
X83834456Y-67344320D01*
X83834459Y-67344330D01*
X83927786Y-67569640D01*
X83927791Y-67569651D01*
X84049727Y-67780848D01*
X84049738Y-67780864D01*
X84198199Y-67974343D01*
X84198205Y-67974350D01*
X84370649Y-68146794D01*
X84370655Y-68146799D01*
X84564144Y-68295268D01*
X84564151Y-68295272D01*
X84775348Y-68417208D01*
X84775353Y-68417210D01*
X84775356Y-68417212D01*
X85000679Y-68510544D01*
X85236256Y-68573666D01*
X85478056Y-68605500D01*
X85478063Y-68605500D01*
X85721937Y-68605500D01*
X85721944Y-68605500D01*
X85963744Y-68573666D01*
X86199321Y-68510544D01*
X86424644Y-68417212D01*
X86635856Y-68295268D01*
X86829345Y-68146799D01*
X87001799Y-67974345D01*
X87150268Y-67780856D01*
X87272212Y-67569644D01*
X87365544Y-67344321D01*
X87428666Y-67108744D01*
X87460500Y-66866944D01*
X87460500Y-66103056D01*
X87428666Y-65861256D01*
X87365544Y-65625679D01*
X87272212Y-65400356D01*
X87272210Y-65400353D01*
X87272208Y-65400348D01*
X87150272Y-65189151D01*
X87150268Y-65189144D01*
X87001799Y-64995655D01*
X87001794Y-64995649D01*
X86829350Y-64823205D01*
X86829343Y-64823199D01*
X86635864Y-64674738D01*
X86635862Y-64674736D01*
X86635856Y-64674732D01*
X86635851Y-64674729D01*
X86635848Y-64674727D01*
X86424651Y-64552791D01*
X86424640Y-64552786D01*
X86199330Y-64459459D01*
X86199323Y-64459457D01*
X86199321Y-64459456D01*
X85963744Y-64396334D01*
X85923333Y-64391013D01*
X85721951Y-64364500D01*
X85721944Y-64364500D01*
X85478056Y-64364500D01*
X85478048Y-64364500D01*
X85247896Y-64394801D01*
X85236256Y-64396334D01*
X85000679Y-64459456D01*
X85000669Y-64459459D01*
X84775359Y-64552786D01*
X84775348Y-64552791D01*
X84564151Y-64674727D01*
X84564135Y-64674738D01*
X84370656Y-64823199D01*
X84370649Y-64823205D01*
X84198205Y-64995649D01*
X84198199Y-64995656D01*
X84049738Y-65189135D01*
X84049727Y-65189151D01*
X83927791Y-65400348D01*
X83927786Y-65400359D01*
X83834459Y-65625669D01*
X83834456Y-65625679D01*
X83771335Y-65861253D01*
X83771333Y-65861264D01*
X83739500Y-66103048D01*
X83739500Y-66866951D01*
X77060499Y-66866951D01*
X77060500Y-66866944D01*
X77060500Y-66103056D01*
X77028666Y-65861256D01*
X76965544Y-65625679D01*
X76872212Y-65400356D01*
X76872210Y-65400353D01*
X76872208Y-65400348D01*
X76750272Y-65189151D01*
X76750268Y-65189144D01*
X76601799Y-64995655D01*
X76601794Y-64995649D01*
X76429350Y-64823205D01*
X76429343Y-64823199D01*
X76235864Y-64674738D01*
X76235862Y-64674736D01*
X76235856Y-64674732D01*
X76235851Y-64674729D01*
X76235848Y-64674727D01*
X76024651Y-64552791D01*
X76024640Y-64552786D01*
X75799330Y-64459459D01*
X75799323Y-64459457D01*
X75799321Y-64459456D01*
X75563744Y-64396334D01*
X75523333Y-64391013D01*
X75321951Y-64364500D01*
X75321944Y-64364500D01*
X75078056Y-64364500D01*
X75078048Y-64364500D01*
X74847896Y-64394801D01*
X74836256Y-64396334D01*
X74600679Y-64459456D01*
X74600669Y-64459459D01*
X74375359Y-64552786D01*
X74375348Y-64552791D01*
X74164151Y-64674727D01*
X74164135Y-64674738D01*
X73970656Y-64823199D01*
X73970649Y-64823205D01*
X73798205Y-64995649D01*
X73798199Y-64995656D01*
X73649738Y-65189135D01*
X73649727Y-65189151D01*
X73527791Y-65400348D01*
X73527786Y-65400359D01*
X73434459Y-65625669D01*
X73434456Y-65625679D01*
X73371335Y-65861253D01*
X73371333Y-65861264D01*
X73339500Y-66103048D01*
X73339500Y-66866951D01*
X72200500Y-66866951D01*
X72200500Y-59809500D01*
X72220185Y-59742461D01*
X72272989Y-59696706D01*
X72324500Y-59685500D01*
X72511241Y-59685500D01*
X72511243Y-59685500D01*
X72729940Y-59644618D01*
X72937401Y-59564247D01*
X73126562Y-59447124D01*
X73290981Y-59297236D01*
X73425058Y-59119689D01*
X73524229Y-58920528D01*
X73585115Y-58706536D01*
X73605643Y-58485000D01*
X73585115Y-58263464D01*
X73524229Y-58049472D01*
X73524224Y-58049461D01*
X73425061Y-57850316D01*
X73425056Y-57850308D01*
X73290979Y-57672761D01*
X73126562Y-57522876D01*
X73126560Y-57522874D01*
X72937404Y-57405754D01*
X72937398Y-57405752D01*
X72729940Y-57325382D01*
X72511243Y-57284500D01*
X72288757Y-57284500D01*
X72070060Y-57325382D01*
X71962025Y-57367235D01*
X71862601Y-57405752D01*
X71862595Y-57405754D01*
X71673439Y-57522874D01*
X71673437Y-57522876D01*
X71533538Y-57650411D01*
X71470734Y-57681028D01*
X71401347Y-57672830D01*
X71366462Y-57650411D01*
X71226563Y-57522877D01*
X71226562Y-57522876D01*
X71177937Y-57492768D01*
X71059222Y-57419263D01*
X71012587Y-57367235D01*
X71000500Y-57313836D01*
X71000500Y-55326343D01*
X71020185Y-55259304D01*
X71065483Y-55217288D01*
X71168626Y-55161470D01*
X71345978Y-55023431D01*
X71410969Y-54997790D01*
X71479509Y-55011356D01*
X71529834Y-55059824D01*
X71538320Y-55077953D01*
X71556645Y-55127086D01*
X71556649Y-55127093D01*
X71642809Y-55242187D01*
X71642812Y-55242190D01*
X71757906Y-55328350D01*
X71757913Y-55328354D01*
X71892620Y-55378596D01*
X71892627Y-55378598D01*
X71952155Y-55384999D01*
X71952172Y-55385000D01*
X72650000Y-55385000D01*
X72650000Y-54418012D01*
X72707007Y-54450925D01*
X72834174Y-54485000D01*
X72965826Y-54485000D01*
X73092993Y-54450925D01*
X73150000Y-54418012D01*
X73150000Y-55385000D01*
X73847828Y-55385000D01*
X73847844Y-55384999D01*
X73907372Y-55378598D01*
X73907379Y-55378596D01*
X74042086Y-55328354D01*
X74042093Y-55328350D01*
X74157187Y-55242190D01*
X74157190Y-55242187D01*
X74243350Y-55127093D01*
X74243354Y-55127086D01*
X74293596Y-54992379D01*
X74293598Y-54992372D01*
X74299999Y-54932844D01*
X74300000Y-54932827D01*
X74300000Y-54235000D01*
X73333012Y-54235000D01*
X73365925Y-54177993D01*
X73400000Y-54050826D01*
X73400000Y-53919174D01*
X73365925Y-53792007D01*
X73333012Y-53735000D01*
X74300000Y-53735000D01*
X74300000Y-53037172D01*
X74299999Y-53037155D01*
X74293598Y-52977627D01*
X74293596Y-52977620D01*
X74243354Y-52842913D01*
X74243350Y-52842906D01*
X74157190Y-52727812D01*
X74157187Y-52727809D01*
X74042093Y-52641649D01*
X74042086Y-52641645D01*
X73907379Y-52591403D01*
X73907372Y-52591401D01*
X73847844Y-52585000D01*
X73150000Y-52585000D01*
X73150000Y-53551988D01*
X73092993Y-53519075D01*
X72965826Y-53485000D01*
X72834174Y-53485000D01*
X72707007Y-53519075D01*
X72650000Y-53551988D01*
X72650000Y-52585000D01*
X71952155Y-52585000D01*
X71892627Y-52591401D01*
X71892620Y-52591403D01*
X71757913Y-52641645D01*
X71757906Y-52641649D01*
X71642812Y-52727809D01*
X71642809Y-52727812D01*
X71556649Y-52842906D01*
X71556646Y-52842911D01*
X71538320Y-52892047D01*
X71496448Y-52947980D01*
X71430984Y-52972397D01*
X71362711Y-52957545D01*
X71345976Y-52946566D01*
X71168634Y-52808535D01*
X71168628Y-52808531D01*
X70964504Y-52698064D01*
X70964495Y-52698061D01*
X70744984Y-52622702D01*
X70557404Y-52591401D01*
X70516049Y-52584500D01*
X70283951Y-52584500D01*
X70242596Y-52591401D01*
X70055015Y-52622702D01*
X69835504Y-52698061D01*
X69835495Y-52698064D01*
X69631371Y-52808531D01*
X69631365Y-52808535D01*
X69448222Y-52951081D01*
X69448219Y-52951084D01*
X69448216Y-52951086D01*
X69448216Y-52951087D01*
X69423785Y-52977627D01*
X69291015Y-53121854D01*
X69253808Y-53178804D01*
X69200662Y-53224161D01*
X69131430Y-53233584D01*
X69068095Y-53204082D01*
X69046192Y-53178804D01*
X69008984Y-53121854D01*
X69008982Y-53121852D01*
X69008979Y-53121847D01*
X68851784Y-52951087D01*
X68851779Y-52951083D01*
X68851777Y-52951081D01*
X68668634Y-52808535D01*
X68668628Y-52808531D01*
X68464504Y-52698064D01*
X68464495Y-52698061D01*
X68244984Y-52622702D01*
X68057404Y-52591401D01*
X68016049Y-52584500D01*
X67783951Y-52584500D01*
X67742596Y-52591401D01*
X67555015Y-52622702D01*
X67335504Y-52698061D01*
X67335495Y-52698064D01*
X67131371Y-52808531D01*
X67131365Y-52808535D01*
X66948222Y-52951081D01*
X66948219Y-52951084D01*
X66791016Y-53121852D01*
X66664075Y-53316151D01*
X66570842Y-53528699D01*
X66513866Y-53753691D01*
X66513864Y-53753702D01*
X66494700Y-53984993D01*
X66494700Y-53985006D01*
X66513864Y-54216297D01*
X66513866Y-54216308D01*
X66570842Y-54441300D01*
X66664075Y-54653848D01*
X66791016Y-54848147D01*
X66791019Y-54848151D01*
X66791021Y-54848153D01*
X66948216Y-55018913D01*
X66948219Y-55018915D01*
X66948222Y-55018918D01*
X67131365Y-55161464D01*
X67131371Y-55161468D01*
X67131374Y-55161470D01*
X67335497Y-55271936D01*
X67449487Y-55311068D01*
X67555015Y-55347297D01*
X67555017Y-55347297D01*
X67555019Y-55347298D01*
X67783951Y-55385500D01*
X67783952Y-55385500D01*
X68016048Y-55385500D01*
X68016049Y-55385500D01*
X68244981Y-55347298D01*
X68464503Y-55271936D01*
X68668626Y-55161470D01*
X68851784Y-55018913D01*
X69008979Y-54848153D01*
X69046191Y-54791196D01*
X69099337Y-54745839D01*
X69168569Y-54736415D01*
X69231904Y-54765917D01*
X69253809Y-54791196D01*
X69291016Y-54848147D01*
X69291019Y-54848151D01*
X69291021Y-54848153D01*
X69448216Y-55018913D01*
X69448219Y-55018915D01*
X69448222Y-55018918D01*
X69631365Y-55161464D01*
X69631376Y-55161471D01*
X69734517Y-55217288D01*
X69784108Y-55266507D01*
X69799500Y-55326343D01*
X69799500Y-57444365D01*
X69779815Y-57511404D01*
X69759039Y-57536002D01*
X69609018Y-57672764D01*
X69474943Y-57850308D01*
X69474938Y-57850316D01*
X69375775Y-58049461D01*
X69375769Y-58049476D01*
X69314885Y-58263462D01*
X69314884Y-58263464D01*
X69294357Y-58484999D01*
X69294357Y-58485000D01*
X69314884Y-58706535D01*
X69314885Y-58706537D01*
X69375769Y-58920523D01*
X69375775Y-58920538D01*
X69474938Y-59119683D01*
X69474943Y-59119691D01*
X69609020Y-59297238D01*
X69773437Y-59447123D01*
X69773439Y-59447125D01*
X69962595Y-59564245D01*
X69962596Y-59564245D01*
X69962599Y-59564247D01*
X70170060Y-59644618D01*
X70388757Y-59685500D01*
X70388759Y-59685500D01*
X70611241Y-59685500D01*
X70611243Y-59685500D01*
X70829940Y-59644618D01*
X70830699Y-59644323D01*
X70831087Y-59644291D01*
X70835452Y-59643049D01*
X70835694Y-59643902D01*
X70900319Y-59638456D01*
X70962062Y-59671161D01*
X70996322Y-59732054D01*
X70999500Y-59759947D01*
X70999500Y-72536405D01*
X70979815Y-72603444D01*
X70927011Y-72649199D01*
X70857853Y-72659143D01*
X70835238Y-72653686D01*
X70744986Y-72622702D01*
X70554204Y-72590867D01*
X70516049Y-72584500D01*
X70283951Y-72584500D01*
X70242596Y-72591401D01*
X70055015Y-72622702D01*
X69835504Y-72698061D01*
X69835495Y-72698064D01*
X69631371Y-72808531D01*
X69631365Y-72808535D01*
X69448222Y-72951081D01*
X69448219Y-72951084D01*
X69448216Y-72951086D01*
X69448216Y-72951087D01*
X69423785Y-72977627D01*
X69291015Y-73121854D01*
X69253808Y-73178804D01*
X69200662Y-73224161D01*
X69131430Y-73233584D01*
X69068095Y-73204082D01*
X69046192Y-73178804D01*
X69008984Y-73121854D01*
X69008982Y-73121852D01*
X69008979Y-73121847D01*
X68851784Y-72951087D01*
X68851779Y-72951083D01*
X68851777Y-72951081D01*
X68668634Y-72808535D01*
X68668628Y-72808531D01*
X68464504Y-72698064D01*
X68464495Y-72698061D01*
X68244984Y-72622702D01*
X68057404Y-72591401D01*
X68016049Y-72584500D01*
X67783951Y-72584500D01*
X67742596Y-72591401D01*
X67555015Y-72622702D01*
X67335504Y-72698061D01*
X67335495Y-72698064D01*
X67131371Y-72808531D01*
X67131365Y-72808535D01*
X66948222Y-72951081D01*
X66948219Y-72951084D01*
X66791016Y-73121852D01*
X66664075Y-73316151D01*
X66570842Y-73528699D01*
X66513866Y-73753691D01*
X66513864Y-73753702D01*
X66494700Y-73984993D01*
X66494700Y-73985006D01*
X66513864Y-74216297D01*
X66513866Y-74216308D01*
X66570842Y-74441300D01*
X66664075Y-74653848D01*
X66791016Y-74848147D01*
X66791019Y-74848151D01*
X66791021Y-74848153D01*
X66948216Y-75018913D01*
X66948219Y-75018915D01*
X66948222Y-75018918D01*
X67131365Y-75161464D01*
X67131371Y-75161468D01*
X67131374Y-75161470D01*
X67335497Y-75271936D01*
X67449487Y-75311068D01*
X67555015Y-75347297D01*
X67555017Y-75347297D01*
X67555019Y-75347298D01*
X67783951Y-75385500D01*
X67783952Y-75385500D01*
X68016048Y-75385500D01*
X68016049Y-75385500D01*
X68244981Y-75347298D01*
X68464503Y-75271936D01*
X68668626Y-75161470D01*
X68851784Y-75018913D01*
X69008979Y-74848153D01*
X69046191Y-74791196D01*
X69099337Y-74745839D01*
X69168569Y-74736415D01*
X69231904Y-74765917D01*
X69253809Y-74791196D01*
X69291016Y-74848147D01*
X69291019Y-74848151D01*
X69291021Y-74848153D01*
X69448216Y-75018913D01*
X69448219Y-75018915D01*
X69448222Y-75018918D01*
X69631365Y-75161464D01*
X69631376Y-75161471D01*
X69734517Y-75217288D01*
X69784108Y-75266507D01*
X69799500Y-75326343D01*
X69799500Y-77444365D01*
X69779815Y-77511404D01*
X69759039Y-77536002D01*
X69609018Y-77672764D01*
X69474943Y-77850308D01*
X69474938Y-77850316D01*
X69375775Y-78049461D01*
X69375769Y-78049476D01*
X69314885Y-78263462D01*
X69314884Y-78263464D01*
X69294357Y-78484999D01*
X69294357Y-78485000D01*
X69314884Y-78706535D01*
X69314885Y-78706537D01*
X69375769Y-78920523D01*
X69375775Y-78920538D01*
X69474938Y-79119683D01*
X69474943Y-79119691D01*
X69609020Y-79297238D01*
X69773437Y-79447123D01*
X69773439Y-79447125D01*
X69962595Y-79564245D01*
X69962596Y-79564245D01*
X69962599Y-79564247D01*
X70170060Y-79644618D01*
X70388757Y-79685500D01*
X70388759Y-79685500D01*
X70611241Y-79685500D01*
X70611243Y-79685500D01*
X70829940Y-79644618D01*
X71037401Y-79564247D01*
X71226562Y-79447124D01*
X71366462Y-79319587D01*
X71429266Y-79288971D01*
X71498653Y-79297168D01*
X71533538Y-79319588D01*
X71673433Y-79447120D01*
X71673435Y-79447121D01*
X71673438Y-79447124D01*
X71740778Y-79488818D01*
X71787412Y-79540843D01*
X71799500Y-79594244D01*
X71799500Y-88813330D01*
X71799499Y-88813348D01*
X71799499Y-88979054D01*
X71799498Y-88979054D01*
X71840423Y-89131785D01*
X71869358Y-89181900D01*
X71869359Y-89181904D01*
X71869360Y-89181904D01*
X71919479Y-89268714D01*
X71919481Y-89268717D01*
X72038349Y-89387585D01*
X72038355Y-89387590D01*
X73363181Y-90712416D01*
X73396666Y-90773739D01*
X73399500Y-90800097D01*
X73399500Y-92461000D01*
X73379815Y-92528039D01*
X73327011Y-92573794D01*
X73275500Y-92585000D01*
X73150000Y-92585000D01*
X73150000Y-93551988D01*
X73092993Y-93519075D01*
X72965826Y-93485000D01*
X72834174Y-93485000D01*
X72707007Y-93519075D01*
X72650000Y-93551988D01*
X72650000Y-92585000D01*
X71952155Y-92585000D01*
X71892627Y-92591401D01*
X71892620Y-92591403D01*
X71757913Y-92641645D01*
X71757906Y-92641649D01*
X71642812Y-92727809D01*
X71642809Y-92727812D01*
X71556649Y-92842906D01*
X71556646Y-92842911D01*
X71538320Y-92892047D01*
X71496448Y-92947980D01*
X71430984Y-92972397D01*
X71362711Y-92957545D01*
X71345976Y-92946566D01*
X71168634Y-92808535D01*
X71168628Y-92808531D01*
X70964504Y-92698064D01*
X70964495Y-92698061D01*
X70744984Y-92622702D01*
X70557404Y-92591401D01*
X70516049Y-92584500D01*
X70283951Y-92584500D01*
X70242596Y-92591401D01*
X70055015Y-92622702D01*
X69835504Y-92698061D01*
X69835495Y-92698064D01*
X69631371Y-92808531D01*
X69631365Y-92808535D01*
X69448222Y-92951081D01*
X69448219Y-92951084D01*
X69448216Y-92951086D01*
X69448216Y-92951087D01*
X69423785Y-92977627D01*
X69291015Y-93121854D01*
X69253808Y-93178804D01*
X69200662Y-93224161D01*
X69131430Y-93233584D01*
X69068095Y-93204082D01*
X69046192Y-93178804D01*
X69008984Y-93121854D01*
X69008982Y-93121852D01*
X69008979Y-93121847D01*
X68851784Y-92951087D01*
X68851779Y-92951083D01*
X68851777Y-92951081D01*
X68668634Y-92808535D01*
X68668628Y-92808531D01*
X68464504Y-92698064D01*
X68464495Y-92698061D01*
X68244984Y-92622702D01*
X68057404Y-92591401D01*
X68016049Y-92584500D01*
X67783951Y-92584500D01*
X67742596Y-92591401D01*
X67555015Y-92622702D01*
X67335504Y-92698061D01*
X67335495Y-92698064D01*
X67131371Y-92808531D01*
X67131365Y-92808535D01*
X66948222Y-92951081D01*
X66948219Y-92951084D01*
X66948216Y-92951086D01*
X66948216Y-92951087D01*
X66928599Y-92972397D01*
X66791016Y-93121852D01*
X66664075Y-93316151D01*
X66570842Y-93528699D01*
X66513866Y-93753691D01*
X66513864Y-93753702D01*
X66494700Y-93984993D01*
X66494700Y-93985006D01*
X66513864Y-94216297D01*
X66513866Y-94216308D01*
X66570842Y-94441300D01*
X66664075Y-94653848D01*
X66791016Y-94848147D01*
X66791019Y-94848151D01*
X66791021Y-94848153D01*
X66948216Y-95018913D01*
X66948219Y-95018915D01*
X66948222Y-95018918D01*
X67131365Y-95161464D01*
X67131371Y-95161468D01*
X67131374Y-95161470D01*
X67335497Y-95271936D01*
X67409718Y-95297416D01*
X67555015Y-95347297D01*
X67555017Y-95347297D01*
X67555019Y-95347298D01*
X67783951Y-95385500D01*
X67783952Y-95385500D01*
X68016048Y-95385500D01*
X68016049Y-95385500D01*
X68244981Y-95347298D01*
X68464503Y-95271936D01*
X68668626Y-95161470D01*
X68851784Y-95018913D01*
X69008979Y-94848153D01*
X69046191Y-94791196D01*
X69099337Y-94745839D01*
X69168569Y-94736415D01*
X69231904Y-94765917D01*
X69253809Y-94791196D01*
X69291016Y-94848147D01*
X69291019Y-94848151D01*
X69291021Y-94848153D01*
X69448216Y-95018913D01*
X69448219Y-95018915D01*
X69448222Y-95018918D01*
X69631365Y-95161464D01*
X69631376Y-95161471D01*
X69734517Y-95217288D01*
X69784108Y-95266507D01*
X69799500Y-95326343D01*
X69799500Y-97444365D01*
X69779815Y-97511404D01*
X69759039Y-97536002D01*
X69609018Y-97672764D01*
X69474943Y-97850308D01*
X69474938Y-97850316D01*
X69375775Y-98049461D01*
X69375769Y-98049476D01*
X69314885Y-98263462D01*
X69314884Y-98263464D01*
X69294357Y-98484999D01*
X69294357Y-98485000D01*
X69314884Y-98706535D01*
X69314885Y-98706537D01*
X69375769Y-98920523D01*
X69375775Y-98920538D01*
X69474938Y-99119683D01*
X69474943Y-99119691D01*
X69609020Y-99297238D01*
X69773437Y-99447123D01*
X69773439Y-99447125D01*
X69962595Y-99564245D01*
X69962596Y-99564245D01*
X69962599Y-99564247D01*
X70170060Y-99644618D01*
X70388757Y-99685500D01*
X70388759Y-99685500D01*
X70611241Y-99685500D01*
X70611243Y-99685500D01*
X70829940Y-99644618D01*
X71037401Y-99564247D01*
X71226562Y-99447124D01*
X71366462Y-99319587D01*
X71429266Y-99288971D01*
X71498653Y-99297168D01*
X71533538Y-99319588D01*
X71673437Y-99447123D01*
X71673439Y-99447125D01*
X71862595Y-99564245D01*
X71862596Y-99564245D01*
X71862599Y-99564247D01*
X72070060Y-99644618D01*
X72288757Y-99685500D01*
X72288759Y-99685500D01*
X72511241Y-99685500D01*
X72511243Y-99685500D01*
X72729940Y-99644618D01*
X72937401Y-99564247D01*
X73126562Y-99447124D01*
X73290981Y-99297236D01*
X73425058Y-99119689D01*
X73524229Y-98920528D01*
X73585115Y-98706536D01*
X73605643Y-98485000D01*
X73585115Y-98263464D01*
X73524229Y-98049472D01*
X73524224Y-98049461D01*
X73425061Y-97850316D01*
X73425056Y-97850308D01*
X73290979Y-97672761D01*
X73126562Y-97522876D01*
X73126560Y-97522874D01*
X72937404Y-97405754D01*
X72937398Y-97405752D01*
X72729940Y-97325382D01*
X72511243Y-97284500D01*
X72288757Y-97284500D01*
X72070060Y-97325382D01*
X71971759Y-97363464D01*
X71862601Y-97405752D01*
X71862595Y-97405754D01*
X71673439Y-97522874D01*
X71673437Y-97522876D01*
X71533538Y-97650411D01*
X71470734Y-97681028D01*
X71401347Y-97672830D01*
X71366462Y-97650411D01*
X71226563Y-97522877D01*
X71226562Y-97522876D01*
X71130608Y-97463464D01*
X71059222Y-97419263D01*
X71012587Y-97367235D01*
X71000500Y-97313836D01*
X71000500Y-95326343D01*
X71020185Y-95259304D01*
X71065483Y-95217288D01*
X71168626Y-95161470D01*
X71345978Y-95023431D01*
X71410969Y-94997790D01*
X71479509Y-95011356D01*
X71529834Y-95059824D01*
X71538320Y-95077953D01*
X71556645Y-95127086D01*
X71556649Y-95127093D01*
X71642809Y-95242187D01*
X71642812Y-95242190D01*
X71757906Y-95328350D01*
X71757913Y-95328354D01*
X71892620Y-95378596D01*
X71892627Y-95378598D01*
X71952155Y-95384999D01*
X71952172Y-95385000D01*
X72650000Y-95385000D01*
X72650000Y-94418012D01*
X72707007Y-94450925D01*
X72834174Y-94485000D01*
X72965826Y-94485000D01*
X73092993Y-94450925D01*
X73150000Y-94418012D01*
X73150000Y-95385000D01*
X73847828Y-95385000D01*
X73847844Y-95384999D01*
X73907372Y-95378598D01*
X73907379Y-95378596D01*
X74042086Y-95328354D01*
X74042093Y-95328350D01*
X74157187Y-95242190D01*
X74157190Y-95242187D01*
X74243350Y-95127093D01*
X74243354Y-95127086D01*
X74293596Y-94992379D01*
X74293598Y-94992372D01*
X74299999Y-94932844D01*
X74300000Y-94932827D01*
X74300000Y-94133597D01*
X74319685Y-94066558D01*
X74372489Y-94020803D01*
X74441647Y-94010859D01*
X74505203Y-94039884D01*
X74511681Y-94045916D01*
X75763181Y-95297416D01*
X75796666Y-95358739D01*
X75799500Y-95385097D01*
X75799500Y-96375754D01*
X75779815Y-96442793D01*
X75740778Y-96481181D01*
X75673436Y-96522877D01*
X75509020Y-96672761D01*
X75374943Y-96850308D01*
X75374938Y-96850316D01*
X75275775Y-97049461D01*
X75275769Y-97049476D01*
X75214885Y-97263462D01*
X75214884Y-97263464D01*
X75194357Y-97484999D01*
X75194357Y-97485000D01*
X75214884Y-97706535D01*
X75214885Y-97706537D01*
X75275769Y-97920523D01*
X75275775Y-97920538D01*
X75374938Y-98119683D01*
X75374943Y-98119691D01*
X75393767Y-98144618D01*
X75509017Y-98297234D01*
X75509021Y-98297238D01*
X75509026Y-98297243D01*
X75559617Y-98343364D01*
X75595898Y-98403076D01*
X75594137Y-98472923D01*
X75559617Y-98526636D01*
X75509026Y-98572756D01*
X75509021Y-98572761D01*
X75374943Y-98750308D01*
X75374938Y-98750316D01*
X75275775Y-98949461D01*
X75275769Y-98949476D01*
X75214885Y-99163462D01*
X75214884Y-99163464D01*
X75194357Y-99384999D01*
X75194357Y-99385000D01*
X75214885Y-99606537D01*
X75220270Y-99625463D01*
X75219683Y-99695330D01*
X75188685Y-99747078D01*
X70031286Y-104904478D01*
X69919481Y-105016282D01*
X69919480Y-105016284D01*
X69888902Y-105069247D01*
X69840423Y-105153215D01*
X69799499Y-105305943D01*
X69799499Y-105305945D01*
X69799499Y-105474046D01*
X69799500Y-105474059D01*
X69799500Y-112643655D01*
X69779815Y-112710694D01*
X69734519Y-112752709D01*
X69631376Y-112808528D01*
X69631365Y-112808535D01*
X69448222Y-112951081D01*
X69448219Y-112951084D01*
X69448216Y-112951086D01*
X69448216Y-112951087D01*
X69423785Y-112977627D01*
X69291015Y-113121854D01*
X69253808Y-113178804D01*
X69200662Y-113224161D01*
X69131430Y-113233584D01*
X69068095Y-113204082D01*
X69046192Y-113178804D01*
X69008984Y-113121854D01*
X69008982Y-113121852D01*
X69008979Y-113121847D01*
X68851784Y-112951087D01*
X68851779Y-112951083D01*
X68851777Y-112951081D01*
X68668634Y-112808535D01*
X68668628Y-112808531D01*
X68464504Y-112698064D01*
X68464495Y-112698061D01*
X68244984Y-112622702D01*
X68057404Y-112591401D01*
X68016049Y-112584500D01*
X67783951Y-112584500D01*
X67742596Y-112591401D01*
X67555015Y-112622702D01*
X67335504Y-112698061D01*
X67335495Y-112698064D01*
X67131371Y-112808531D01*
X67131365Y-112808535D01*
X66948222Y-112951081D01*
X66948219Y-112951084D01*
X66791016Y-113121852D01*
X66664075Y-113316151D01*
X66570842Y-113528699D01*
X66513866Y-113753691D01*
X66513864Y-113753702D01*
X66494700Y-113984993D01*
X66494700Y-113985006D01*
X62550500Y-113985006D01*
X62550500Y-106866951D01*
X63739500Y-106866951D01*
X63761175Y-107031578D01*
X63771334Y-107108744D01*
X63814064Y-107268216D01*
X63834456Y-107344320D01*
X63834459Y-107344330D01*
X63927786Y-107569640D01*
X63927791Y-107569651D01*
X64049727Y-107780848D01*
X64049738Y-107780864D01*
X64198199Y-107974343D01*
X64198205Y-107974350D01*
X64370649Y-108146794D01*
X64370655Y-108146799D01*
X64564144Y-108295268D01*
X64564151Y-108295272D01*
X64775348Y-108417208D01*
X64775353Y-108417210D01*
X64775356Y-108417212D01*
X65000679Y-108510544D01*
X65236256Y-108573666D01*
X65478056Y-108605500D01*
X65478063Y-108605500D01*
X65721937Y-108605500D01*
X65721944Y-108605500D01*
X65963744Y-108573666D01*
X66199321Y-108510544D01*
X66424644Y-108417212D01*
X66635856Y-108295268D01*
X66829345Y-108146799D01*
X67001799Y-107974345D01*
X67150268Y-107780856D01*
X67272212Y-107569644D01*
X67365544Y-107344321D01*
X67428666Y-107108744D01*
X67460500Y-106866944D01*
X67460500Y-106103056D01*
X67428666Y-105861256D01*
X67365544Y-105625679D01*
X67272212Y-105400356D01*
X67272210Y-105400353D01*
X67272208Y-105400348D01*
X67150272Y-105189151D01*
X67150268Y-105189144D01*
X67001799Y-104995655D01*
X67001794Y-104995649D01*
X66829350Y-104823205D01*
X66829343Y-104823199D01*
X66635864Y-104674738D01*
X66635862Y-104674736D01*
X66635856Y-104674732D01*
X66635851Y-104674729D01*
X66635848Y-104674727D01*
X66424651Y-104552791D01*
X66424640Y-104552786D01*
X66199330Y-104459459D01*
X66199323Y-104459457D01*
X66199321Y-104459456D01*
X65963744Y-104396334D01*
X65923333Y-104391013D01*
X65721951Y-104364500D01*
X65721944Y-104364500D01*
X65478056Y-104364500D01*
X65478048Y-104364500D01*
X65247896Y-104394801D01*
X65236256Y-104396334D01*
X65000679Y-104459456D01*
X65000669Y-104459459D01*
X64775359Y-104552786D01*
X64775348Y-104552791D01*
X64564151Y-104674727D01*
X64564135Y-104674738D01*
X64370656Y-104823199D01*
X64370649Y-104823205D01*
X64198205Y-104995649D01*
X64198199Y-104995656D01*
X64049738Y-105189135D01*
X64049727Y-105189151D01*
X63927791Y-105400348D01*
X63927786Y-105400359D01*
X63834459Y-105625669D01*
X63834456Y-105625679D01*
X63794658Y-105774211D01*
X63771335Y-105861253D01*
X63771333Y-105861264D01*
X63739500Y-106103048D01*
X63739500Y-106866951D01*
X62550500Y-106866951D01*
X62550500Y-86866951D01*
X63739500Y-86866951D01*
X63766013Y-87068333D01*
X63771334Y-87108744D01*
X63771335Y-87108746D01*
X63834456Y-87344320D01*
X63834459Y-87344330D01*
X63927786Y-87569640D01*
X63927791Y-87569651D01*
X64049727Y-87780848D01*
X64049738Y-87780864D01*
X64198199Y-87974343D01*
X64198205Y-87974350D01*
X64370649Y-88146794D01*
X64370655Y-88146799D01*
X64564144Y-88295268D01*
X64564151Y-88295272D01*
X64775348Y-88417208D01*
X64775353Y-88417210D01*
X64775356Y-88417212D01*
X65000679Y-88510544D01*
X65236256Y-88573666D01*
X65478056Y-88605500D01*
X65478063Y-88605500D01*
X65721937Y-88605500D01*
X65721944Y-88605500D01*
X65963744Y-88573666D01*
X66199321Y-88510544D01*
X66424644Y-88417212D01*
X66635856Y-88295268D01*
X66829345Y-88146799D01*
X67001799Y-87974345D01*
X67150268Y-87780856D01*
X67272212Y-87569644D01*
X67365544Y-87344321D01*
X67428666Y-87108744D01*
X67460500Y-86866944D01*
X67460500Y-86103056D01*
X67428666Y-85861256D01*
X67365544Y-85625679D01*
X67272212Y-85400356D01*
X67272210Y-85400353D01*
X67272208Y-85400348D01*
X67150272Y-85189151D01*
X67150268Y-85189144D01*
X67001799Y-84995655D01*
X67001794Y-84995649D01*
X66829350Y-84823205D01*
X66829343Y-84823199D01*
X66635864Y-84674738D01*
X66635862Y-84674736D01*
X66635856Y-84674732D01*
X66635851Y-84674729D01*
X66635848Y-84674727D01*
X66424651Y-84552791D01*
X66424640Y-84552786D01*
X66199330Y-84459459D01*
X66199323Y-84459457D01*
X66199321Y-84459456D01*
X65963744Y-84396334D01*
X65923333Y-84391013D01*
X65721951Y-84364500D01*
X65721944Y-84364500D01*
X65478056Y-84364500D01*
X65478048Y-84364500D01*
X65247896Y-84394801D01*
X65236256Y-84396334D01*
X65000679Y-84459456D01*
X65000669Y-84459459D01*
X64775359Y-84552786D01*
X64775348Y-84552791D01*
X64564151Y-84674727D01*
X64564135Y-84674738D01*
X64370656Y-84823199D01*
X64370649Y-84823205D01*
X64198205Y-84995649D01*
X64198199Y-84995656D01*
X64049738Y-85189135D01*
X64049727Y-85189151D01*
X63927791Y-85400348D01*
X63927786Y-85400359D01*
X63834459Y-85625669D01*
X63834456Y-85625679D01*
X63780109Y-85828509D01*
X63771335Y-85861253D01*
X63771333Y-85861264D01*
X63739500Y-86103048D01*
X63739500Y-86866951D01*
X62550500Y-86866951D01*
X62550500Y-66866951D01*
X63739500Y-66866951D01*
X63766013Y-67068333D01*
X63771334Y-67108744D01*
X63771335Y-67108746D01*
X63834456Y-67344320D01*
X63834459Y-67344330D01*
X63927786Y-67569640D01*
X63927791Y-67569651D01*
X64049727Y-67780848D01*
X64049738Y-67780864D01*
X64198199Y-67974343D01*
X64198205Y-67974350D01*
X64370649Y-68146794D01*
X64370655Y-68146799D01*
X64564144Y-68295268D01*
X64564151Y-68295272D01*
X64775348Y-68417208D01*
X64775353Y-68417210D01*
X64775356Y-68417212D01*
X65000679Y-68510544D01*
X65236256Y-68573666D01*
X65478056Y-68605500D01*
X65478063Y-68605500D01*
X65721937Y-68605500D01*
X65721944Y-68605500D01*
X65963744Y-68573666D01*
X66199321Y-68510544D01*
X66424644Y-68417212D01*
X66635856Y-68295268D01*
X66829345Y-68146799D01*
X67001799Y-67974345D01*
X67150268Y-67780856D01*
X67272212Y-67569644D01*
X67365544Y-67344321D01*
X67428666Y-67108744D01*
X67460500Y-66866944D01*
X67460500Y-66103056D01*
X67428666Y-65861256D01*
X67365544Y-65625679D01*
X67272212Y-65400356D01*
X67272210Y-65400353D01*
X67272208Y-65400348D01*
X67150272Y-65189151D01*
X67150268Y-65189144D01*
X67001799Y-64995655D01*
X67001794Y-64995649D01*
X66829350Y-64823205D01*
X66829343Y-64823199D01*
X66635864Y-64674738D01*
X66635862Y-64674736D01*
X66635856Y-64674732D01*
X66635851Y-64674729D01*
X66635848Y-64674727D01*
X66424651Y-64552791D01*
X66424640Y-64552786D01*
X66199330Y-64459459D01*
X66199323Y-64459457D01*
X66199321Y-64459456D01*
X65963744Y-64396334D01*
X65923333Y-64391013D01*
X65721951Y-64364500D01*
X65721944Y-64364500D01*
X65478056Y-64364500D01*
X65478048Y-64364500D01*
X65247896Y-64394801D01*
X65236256Y-64396334D01*
X65000679Y-64459456D01*
X65000669Y-64459459D01*
X64775359Y-64552786D01*
X64775348Y-64552791D01*
X64564151Y-64674727D01*
X64564135Y-64674738D01*
X64370656Y-64823199D01*
X64370649Y-64823205D01*
X64198205Y-64995649D01*
X64198199Y-64995656D01*
X64049738Y-65189135D01*
X64049727Y-65189151D01*
X63927791Y-65400348D01*
X63927786Y-65400359D01*
X63834459Y-65625669D01*
X63834456Y-65625679D01*
X63771335Y-65861253D01*
X63771333Y-65861264D01*
X63739500Y-66103048D01*
X63739500Y-66866951D01*
X62550500Y-66866951D01*
X62550500Y-46866951D01*
X63739500Y-46866951D01*
X63766013Y-47068333D01*
X63771334Y-47108744D01*
X63771335Y-47108746D01*
X63834456Y-47344320D01*
X63834459Y-47344330D01*
X63927786Y-47569640D01*
X63927791Y-47569651D01*
X64049727Y-47780848D01*
X64049738Y-47780864D01*
X64198199Y-47974343D01*
X64198205Y-47974350D01*
X64370649Y-48146794D01*
X64370655Y-48146799D01*
X64564144Y-48295268D01*
X64564151Y-48295272D01*
X64775348Y-48417208D01*
X64775353Y-48417210D01*
X64775356Y-48417212D01*
X65000679Y-48510544D01*
X65236256Y-48573666D01*
X65478056Y-48605500D01*
X65478063Y-48605500D01*
X65721937Y-48605500D01*
X65721944Y-48605500D01*
X65963744Y-48573666D01*
X66199321Y-48510544D01*
X66424644Y-48417212D01*
X66635856Y-48295268D01*
X66829345Y-48146799D01*
X67001799Y-47974345D01*
X67150268Y-47780856D01*
X67272212Y-47569644D01*
X67365544Y-47344321D01*
X67428666Y-47108744D01*
X67460499Y-46866951D01*
X73339500Y-46866951D01*
X73366013Y-47068333D01*
X73371334Y-47108744D01*
X73371335Y-47108746D01*
X73434456Y-47344320D01*
X73434459Y-47344330D01*
X73527786Y-47569640D01*
X73527791Y-47569651D01*
X73649727Y-47780848D01*
X73649738Y-47780864D01*
X73798199Y-47974343D01*
X73798205Y-47974350D01*
X73970649Y-48146794D01*
X73970655Y-48146799D01*
X74164144Y-48295268D01*
X74164151Y-48295272D01*
X74375348Y-48417208D01*
X74375353Y-48417210D01*
X74375356Y-48417212D01*
X74600679Y-48510544D01*
X74836256Y-48573666D01*
X75078056Y-48605500D01*
X75078063Y-48605500D01*
X75321937Y-48605500D01*
X75321944Y-48605500D01*
X75563744Y-48573666D01*
X75799321Y-48510544D01*
X76024644Y-48417212D01*
X76235856Y-48295268D01*
X76429345Y-48146799D01*
X76601799Y-47974345D01*
X76750268Y-47780856D01*
X76872212Y-47569644D01*
X76965544Y-47344321D01*
X77028666Y-47108744D01*
X77060499Y-46866951D01*
X83739500Y-46866951D01*
X83766013Y-47068333D01*
X83771334Y-47108744D01*
X83771335Y-47108746D01*
X83834456Y-47344320D01*
X83834459Y-47344330D01*
X83927786Y-47569640D01*
X83927791Y-47569651D01*
X84049727Y-47780848D01*
X84049738Y-47780864D01*
X84198199Y-47974343D01*
X84198205Y-47974350D01*
X84370649Y-48146794D01*
X84370655Y-48146799D01*
X84564144Y-48295268D01*
X84564151Y-48295272D01*
X84775348Y-48417208D01*
X84775353Y-48417210D01*
X84775356Y-48417212D01*
X85000679Y-48510544D01*
X85236256Y-48573666D01*
X85478056Y-48605500D01*
X85478063Y-48605500D01*
X85721937Y-48605500D01*
X85721944Y-48605500D01*
X85963744Y-48573666D01*
X86199321Y-48510544D01*
X86424644Y-48417212D01*
X86635856Y-48295268D01*
X86829345Y-48146799D01*
X87001799Y-47974345D01*
X87150268Y-47780856D01*
X87272212Y-47569644D01*
X87365544Y-47344321D01*
X87428666Y-47108744D01*
X87460499Y-46866951D01*
X93339500Y-46866951D01*
X93366013Y-47068333D01*
X93371334Y-47108744D01*
X93371335Y-47108746D01*
X93434456Y-47344320D01*
X93434459Y-47344330D01*
X93527786Y-47569640D01*
X93527791Y-47569651D01*
X93649727Y-47780848D01*
X93649738Y-47780864D01*
X93798199Y-47974343D01*
X93798205Y-47974350D01*
X93970649Y-48146794D01*
X93970655Y-48146799D01*
X94164144Y-48295268D01*
X94164151Y-48295272D01*
X94375348Y-48417208D01*
X94375353Y-48417210D01*
X94375356Y-48417212D01*
X94600679Y-48510544D01*
X94836256Y-48573666D01*
X95078056Y-48605500D01*
X95078063Y-48605500D01*
X95321937Y-48605500D01*
X95321944Y-48605500D01*
X95563744Y-48573666D01*
X95799321Y-48510544D01*
X96024644Y-48417212D01*
X96235856Y-48295268D01*
X96429345Y-48146799D01*
X96601799Y-47974345D01*
X96750268Y-47780856D01*
X96872212Y-47569644D01*
X96965544Y-47344321D01*
X97028666Y-47108744D01*
X97060500Y-46866944D01*
X97060500Y-46103056D01*
X97028666Y-45861256D01*
X96965544Y-45625679D01*
X96872212Y-45400356D01*
X96872210Y-45400353D01*
X96872208Y-45400348D01*
X96750272Y-45189151D01*
X96750268Y-45189144D01*
X96601799Y-44995655D01*
X96601794Y-44995649D01*
X96429350Y-44823205D01*
X96429343Y-44823199D01*
X96235864Y-44674738D01*
X96235862Y-44674736D01*
X96235856Y-44674732D01*
X96235851Y-44674729D01*
X96235848Y-44674727D01*
X96024651Y-44552791D01*
X96024640Y-44552786D01*
X95799330Y-44459459D01*
X95799323Y-44459457D01*
X95799321Y-44459456D01*
X95563744Y-44396334D01*
X95523333Y-44391013D01*
X95321951Y-44364500D01*
X95321944Y-44364500D01*
X95078056Y-44364500D01*
X95078048Y-44364500D01*
X94847896Y-44394801D01*
X94836256Y-44396334D01*
X94600679Y-44459456D01*
X94600669Y-44459459D01*
X94375359Y-44552786D01*
X94375348Y-44552791D01*
X94164151Y-44674727D01*
X94164135Y-44674738D01*
X93970656Y-44823199D01*
X93970649Y-44823205D01*
X93798205Y-44995649D01*
X93798199Y-44995656D01*
X93649738Y-45189135D01*
X93649727Y-45189151D01*
X93527791Y-45400348D01*
X93527786Y-45400359D01*
X93434459Y-45625669D01*
X93434456Y-45625679D01*
X93371335Y-45861253D01*
X93371333Y-45861264D01*
X93339500Y-46103048D01*
X93339500Y-46866951D01*
X87460499Y-46866951D01*
X87460500Y-46866944D01*
X87460500Y-46103056D01*
X87428666Y-45861256D01*
X87365544Y-45625679D01*
X87272212Y-45400356D01*
X87272210Y-45400353D01*
X87272208Y-45400348D01*
X87150272Y-45189151D01*
X87150268Y-45189144D01*
X87001799Y-44995655D01*
X87001794Y-44995649D01*
X86829350Y-44823205D01*
X86829343Y-44823199D01*
X86635864Y-44674738D01*
X86635862Y-44674736D01*
X86635856Y-44674732D01*
X86635851Y-44674729D01*
X86635848Y-44674727D01*
X86424651Y-44552791D01*
X86424640Y-44552786D01*
X86199330Y-44459459D01*
X86199323Y-44459457D01*
X86199321Y-44459456D01*
X85963744Y-44396334D01*
X85923333Y-44391013D01*
X85721951Y-44364500D01*
X85721944Y-44364500D01*
X85478056Y-44364500D01*
X85478048Y-44364500D01*
X85247896Y-44394801D01*
X85236256Y-44396334D01*
X85000679Y-44459456D01*
X85000669Y-44459459D01*
X84775359Y-44552786D01*
X84775348Y-44552791D01*
X84564151Y-44674727D01*
X84564135Y-44674738D01*
X84370656Y-44823199D01*
X84370649Y-44823205D01*
X84198205Y-44995649D01*
X84198199Y-44995656D01*
X84049738Y-45189135D01*
X84049727Y-45189151D01*
X83927791Y-45400348D01*
X83927786Y-45400359D01*
X83834459Y-45625669D01*
X83834456Y-45625679D01*
X83771335Y-45861253D01*
X83771333Y-45861264D01*
X83739500Y-46103048D01*
X83739500Y-46866951D01*
X77060499Y-46866951D01*
X77060500Y-46866944D01*
X77060500Y-46103056D01*
X77028666Y-45861256D01*
X76965544Y-45625679D01*
X76872212Y-45400356D01*
X76872210Y-45400353D01*
X76872208Y-45400348D01*
X76750272Y-45189151D01*
X76750268Y-45189144D01*
X76601799Y-44995655D01*
X76601794Y-44995649D01*
X76429350Y-44823205D01*
X76429343Y-44823199D01*
X76235864Y-44674738D01*
X76235862Y-44674736D01*
X76235856Y-44674732D01*
X76235851Y-44674729D01*
X76235848Y-44674727D01*
X76024651Y-44552791D01*
X76024640Y-44552786D01*
X75799330Y-44459459D01*
X75799323Y-44459457D01*
X75799321Y-44459456D01*
X75563744Y-44396334D01*
X75523333Y-44391013D01*
X75321951Y-44364500D01*
X75321944Y-44364500D01*
X75078056Y-44364500D01*
X75078048Y-44364500D01*
X74847896Y-44394801D01*
X74836256Y-44396334D01*
X74600679Y-44459456D01*
X74600669Y-44459459D01*
X74375359Y-44552786D01*
X74375348Y-44552791D01*
X74164151Y-44674727D01*
X74164135Y-44674738D01*
X73970656Y-44823199D01*
X73970649Y-44823205D01*
X73798205Y-44995649D01*
X73798199Y-44995656D01*
X73649738Y-45189135D01*
X73649727Y-45189151D01*
X73527791Y-45400348D01*
X73527786Y-45400359D01*
X73434459Y-45625669D01*
X73434456Y-45625679D01*
X73371335Y-45861253D01*
X73371333Y-45861264D01*
X73339500Y-46103048D01*
X73339500Y-46866951D01*
X67460499Y-46866951D01*
X67460500Y-46866944D01*
X67460500Y-46103056D01*
X67428666Y-45861256D01*
X67365544Y-45625679D01*
X67272212Y-45400356D01*
X67272210Y-45400353D01*
X67272208Y-45400348D01*
X67150272Y-45189151D01*
X67150268Y-45189144D01*
X67001799Y-44995655D01*
X67001794Y-44995649D01*
X66829350Y-44823205D01*
X66829343Y-44823199D01*
X66635864Y-44674738D01*
X66635862Y-44674736D01*
X66635856Y-44674732D01*
X66635851Y-44674729D01*
X66635848Y-44674727D01*
X66424651Y-44552791D01*
X66424640Y-44552786D01*
X66199330Y-44459459D01*
X66199323Y-44459457D01*
X66199321Y-44459456D01*
X65963744Y-44396334D01*
X65923333Y-44391013D01*
X65721951Y-44364500D01*
X65721944Y-44364500D01*
X65478056Y-44364500D01*
X65478048Y-44364500D01*
X65247896Y-44394801D01*
X65236256Y-44396334D01*
X65000679Y-44459456D01*
X65000669Y-44459459D01*
X64775359Y-44552786D01*
X64775348Y-44552791D01*
X64564151Y-44674727D01*
X64564135Y-44674738D01*
X64370656Y-44823199D01*
X64370649Y-44823205D01*
X64198205Y-44995649D01*
X64198199Y-44995656D01*
X64049738Y-45189135D01*
X64049727Y-45189151D01*
X63927791Y-45400348D01*
X63927786Y-45400359D01*
X63834459Y-45625669D01*
X63834456Y-45625679D01*
X63771335Y-45861253D01*
X63771333Y-45861264D01*
X63739500Y-46103048D01*
X63739500Y-46866951D01*
X62550500Y-46866951D01*
X62550500Y-42286015D01*
X103599500Y-42286015D01*
X103605650Y-42374624D01*
X103605652Y-42374640D01*
X103654465Y-42582176D01*
X103654467Y-42582182D01*
X103654468Y-42582185D01*
X103740591Y-42777237D01*
X103740592Y-42777238D01*
X103861088Y-42953141D01*
X103861093Y-42953147D01*
X104011852Y-43103906D01*
X104011858Y-43103911D01*
X104187763Y-43224409D01*
X104382815Y-43310532D01*
X104382821Y-43310533D01*
X104382823Y-43310534D01*
X104590359Y-43359347D01*
X104590364Y-43359347D01*
X104590370Y-43359349D01*
X104639602Y-43362766D01*
X104678984Y-43365500D01*
X104678988Y-43365500D01*
X106121016Y-43365500D01*
X106156459Y-43363039D01*
X106209630Y-43359349D01*
X106209636Y-43359347D01*
X106209640Y-43359347D01*
X106417176Y-43310534D01*
X106417174Y-43310534D01*
X106417185Y-43310532D01*
X106612237Y-43224409D01*
X106788142Y-43103911D01*
X106938911Y-42953142D01*
X107059409Y-42777237D01*
X107145532Y-42582185D01*
X107194349Y-42374630D01*
X107200500Y-42286012D01*
X107200500Y-40843988D01*
X107194349Y-40755370D01*
X107194347Y-40755364D01*
X107194347Y-40755359D01*
X107145534Y-40547823D01*
X107145532Y-40547817D01*
X107145532Y-40547815D01*
X107059409Y-40352763D01*
X106938911Y-40176858D01*
X106938906Y-40176852D01*
X106788147Y-40026093D01*
X106788141Y-40026088D01*
X106612238Y-39905592D01*
X106612239Y-39905592D01*
X106612237Y-39905591D01*
X106417185Y-39819468D01*
X106417183Y-39819467D01*
X106417182Y-39819467D01*
X106417176Y-39819465D01*
X106209640Y-39770652D01*
X106209624Y-39770650D01*
X106121016Y-39764500D01*
X106121012Y-39764500D01*
X104678988Y-39764500D01*
X104678984Y-39764500D01*
X104590375Y-39770650D01*
X104590359Y-39770652D01*
X104382823Y-39819465D01*
X104382817Y-39819467D01*
X104187761Y-39905592D01*
X104011858Y-40026088D01*
X104011852Y-40026093D01*
X103861093Y-40176852D01*
X103861088Y-40176858D01*
X103740592Y-40352761D01*
X103654467Y-40547817D01*
X103654465Y-40547823D01*
X103605652Y-40755359D01*
X103605650Y-40755375D01*
X103599500Y-40843984D01*
X103599500Y-42286015D01*
X62550500Y-42286015D01*
X62550500Y-38674500D01*
X62570185Y-38607461D01*
X62622989Y-38561706D01*
X62674500Y-38550500D01*
X110825500Y-38550500D01*
X110892539Y-38570185D01*
G37*
%TD.AperFunction*%
%TD*%
M02*
