%TF.GenerationSoftware,KiCad,Pcbnew,8.0.0*%
%TF.CreationDate,2024-04-17T20:06:12+02:00*%
%TF.ProjectId,4Channe_Mixer_panel,34436861-6e6e-4655-9f4d-697865725f70,rev?*%
%TF.SameCoordinates,Original*%
%TF.FileFunction,Legend,Bot*%
%TF.FilePolarity,Positive*%
%FSLAX46Y46*%
G04 Gerber Fmt 4.6, Leading zero omitted, Abs format (unit mm)*
G04 Created by KiCad (PCBNEW 8.0.0) date 2024-04-17 20:06:12*
%MOMM*%
%LPD*%
G01*
G04 APERTURE LIST*
%ADD10C,0.125000*%
%ADD11C,0.100000*%
G04 APERTURE END LIST*
D10*
G36*
X143598290Y-52056210D02*
G01*
X144320760Y-52056210D01*
X144320760Y-51024528D01*
X144414793Y-51024528D01*
X144414793Y-52056210D01*
X144414793Y-52077948D01*
X144414793Y-52150000D01*
X143598290Y-52150000D01*
X143294696Y-52150000D01*
X143294696Y-52056210D01*
X143378959Y-52056210D01*
X143598290Y-52056210D01*
G37*
G36*
X143205303Y-51587264D02*
G01*
X143202413Y-51644862D01*
X143193931Y-51700783D01*
X143180137Y-51754744D01*
X143161312Y-51806464D01*
X143137738Y-51855663D01*
X143109695Y-51902060D01*
X143077463Y-51945372D01*
X143041324Y-51985319D01*
X143001559Y-52021619D01*
X142958448Y-52053992D01*
X142912273Y-52082156D01*
X142863313Y-52105830D01*
X142811851Y-52124732D01*
X142758166Y-52138582D01*
X142702540Y-52147098D01*
X142645254Y-52150000D01*
X142085205Y-52150000D01*
X142085205Y-52056210D01*
X142645254Y-52056210D01*
X142711837Y-52051433D01*
X142775545Y-52037544D01*
X142835719Y-52015207D01*
X142891700Y-51985087D01*
X142942828Y-51947847D01*
X142988445Y-51904152D01*
X143027890Y-51854666D01*
X143060505Y-51800053D01*
X143085630Y-51740977D01*
X143102606Y-51678102D01*
X143109071Y-51634403D01*
X142085205Y-51634403D01*
X142085205Y-51540369D01*
X143109071Y-51540369D01*
X143097894Y-51475337D01*
X143078128Y-51413671D01*
X143050433Y-51356033D01*
X143015468Y-51303086D01*
X142973892Y-51255489D01*
X142926365Y-51213907D01*
X142873546Y-51178999D01*
X142816094Y-51151428D01*
X142754669Y-51131855D01*
X142689929Y-51120943D01*
X142645254Y-51118806D01*
X142085205Y-51118806D01*
X142085205Y-51024773D01*
X142645254Y-51024773D01*
X142702540Y-51027674D01*
X142758166Y-51036190D01*
X142811851Y-51050038D01*
X142863313Y-51068939D01*
X142912273Y-51092609D01*
X142958448Y-51120767D01*
X143001559Y-51153133D01*
X143041324Y-51189423D01*
X143077463Y-51229357D01*
X143109695Y-51272653D01*
X143137738Y-51319029D01*
X143161312Y-51368205D01*
X143180137Y-51419898D01*
X143193931Y-51473826D01*
X143202413Y-51529709D01*
X143205303Y-51587264D01*
G37*
G36*
X140988799Y-51024773D02*
G01*
X141805303Y-51024773D01*
X141805303Y-51096824D01*
X141805303Y-51118562D01*
X141805303Y-52150000D01*
X141711269Y-52150000D01*
X141711269Y-51634403D01*
X140988799Y-51634403D01*
X140988799Y-51540369D01*
X141711269Y-51540125D01*
X141711269Y-51118562D01*
X140988799Y-51118562D01*
X140769469Y-51118562D01*
X140685205Y-51118562D01*
X140685205Y-51024773D01*
X140988799Y-51024773D01*
G37*
G36*
X140405303Y-51118562D02*
G01*
X139892393Y-51118562D01*
X139892393Y-52150000D01*
X139798359Y-52150000D01*
X139798359Y-51118562D01*
X139285205Y-51118562D01*
X139285205Y-51024773D01*
X140405303Y-51024773D01*
X140405303Y-51118562D01*
G37*
G36*
X123670341Y-51329588D02*
G01*
X123676514Y-51268034D01*
X123694215Y-51210760D01*
X123722221Y-51158975D01*
X123759306Y-51113891D01*
X123804245Y-51076718D01*
X123855813Y-51048667D01*
X123912784Y-51030948D01*
X123973935Y-51024773D01*
X124790438Y-51024773D01*
X124790438Y-51118562D01*
X123973935Y-51118562D01*
X123921632Y-51125223D01*
X123874139Y-51144089D01*
X123833114Y-51173483D01*
X123800219Y-51211727D01*
X123777114Y-51257145D01*
X123765458Y-51308059D01*
X123764374Y-51329588D01*
X123770984Y-51382118D01*
X123789702Y-51429834D01*
X123818863Y-51471070D01*
X123856800Y-51504159D01*
X123901848Y-51527437D01*
X123952342Y-51539237D01*
X123973690Y-51540369D01*
X124790438Y-51540369D01*
X124790438Y-52150000D01*
X124696405Y-52150000D01*
X124696405Y-51634403D01*
X123973690Y-51634403D01*
X123921486Y-51641047D01*
X123874059Y-51659866D01*
X123833078Y-51689188D01*
X123800206Y-51727342D01*
X123777111Y-51772655D01*
X123765458Y-51823457D01*
X123764374Y-51844940D01*
X123764374Y-52150000D01*
X123670341Y-52150000D01*
X123670341Y-51844940D01*
X123674384Y-51795084D01*
X123689287Y-51738759D01*
X123714106Y-51687304D01*
X123747730Y-51641830D01*
X123789048Y-51603448D01*
X123812246Y-51587264D01*
X123767497Y-51552845D01*
X123729887Y-51510778D01*
X123700526Y-51462175D01*
X123680526Y-51408146D01*
X123671812Y-51359779D01*
X123670341Y-51329588D01*
G37*
G36*
X123108826Y-51118562D02*
G01*
X123108826Y-51024773D01*
X123390927Y-51024773D01*
X123390927Y-51118562D01*
X123296893Y-51118562D01*
X123296893Y-52056210D01*
X123390927Y-52056210D01*
X123390927Y-52150000D01*
X123108826Y-52150000D01*
X123108826Y-52056210D01*
X123202860Y-52056210D01*
X123202860Y-51118562D01*
X123108826Y-51118562D01*
G37*
G36*
X122829657Y-51587264D02*
G01*
X122826767Y-51644862D01*
X122818285Y-51700783D01*
X122804491Y-51754744D01*
X122785666Y-51806464D01*
X122762092Y-51855663D01*
X122734049Y-51902060D01*
X122701817Y-51945372D01*
X122665678Y-51985319D01*
X122625913Y-52021619D01*
X122582802Y-52053992D01*
X122536627Y-52082156D01*
X122487667Y-52105830D01*
X122436205Y-52124732D01*
X122382520Y-52138582D01*
X122326894Y-52147098D01*
X122269608Y-52150000D01*
X121709559Y-52150000D01*
X121709559Y-51540369D01*
X122110850Y-51540369D01*
X122110850Y-51634403D01*
X121803593Y-51634403D01*
X121803593Y-52056210D01*
X122269608Y-52056210D01*
X122340478Y-52050793D01*
X122408027Y-52035077D01*
X122471458Y-52009868D01*
X122529973Y-51975968D01*
X122582776Y-51934182D01*
X122629069Y-51885315D01*
X122668057Y-51830171D01*
X122698941Y-51769553D01*
X122720925Y-51704266D01*
X122733213Y-51635115D01*
X122735623Y-51587264D01*
X122730243Y-51516051D01*
X122714635Y-51448166D01*
X122689596Y-51384411D01*
X122655922Y-51325590D01*
X122614410Y-51272505D01*
X122565859Y-51225959D01*
X122511063Y-51186756D01*
X122450821Y-51155698D01*
X122385929Y-51133589D01*
X122317184Y-51121231D01*
X122269608Y-51118806D01*
X121709559Y-51118806D01*
X121709559Y-51024773D01*
X122269608Y-51024773D01*
X122326894Y-51027674D01*
X122382520Y-51036190D01*
X122436205Y-51050038D01*
X122487667Y-51068939D01*
X122536627Y-51092609D01*
X122582802Y-51120767D01*
X122625913Y-51153133D01*
X122665678Y-51189423D01*
X122701817Y-51229357D01*
X122734049Y-51272653D01*
X122762092Y-51319029D01*
X122785666Y-51368205D01*
X122804491Y-51419898D01*
X122818285Y-51473826D01*
X122826767Y-51529709D01*
X122829657Y-51587264D01*
G37*
G36*
X120403593Y-51540614D02*
G01*
X121335623Y-51540614D01*
X121335623Y-51024528D01*
X121429657Y-51024528D01*
X121429657Y-52150000D01*
X121335623Y-52150000D01*
X121335623Y-51634403D01*
X120403593Y-51634403D01*
X120403593Y-52150000D01*
X120309559Y-52150000D01*
X120309559Y-51024528D01*
X120403593Y-51024528D01*
X120403593Y-51540614D01*
G37*
G36*
X120029657Y-51118562D02*
G01*
X119516747Y-51118562D01*
X119516747Y-52150000D01*
X119422713Y-52150000D01*
X119422713Y-51118562D01*
X118909559Y-51118562D01*
X118909559Y-51024773D01*
X120029657Y-51024773D01*
X120029657Y-51118562D01*
G37*
G36*
X147682163Y-151027674D02*
G01*
X147737789Y-151036190D01*
X147791473Y-151050038D01*
X147842936Y-151068939D01*
X147891895Y-151092609D01*
X147938071Y-151120767D01*
X147981182Y-151153133D01*
X148020947Y-151189423D01*
X148057086Y-151229357D01*
X148089317Y-151272653D01*
X148117361Y-151319029D01*
X148140935Y-151368205D01*
X148159759Y-151419898D01*
X148173553Y-151473826D01*
X148182036Y-151529709D01*
X148184925Y-151587264D01*
X148182036Y-151644862D01*
X148173553Y-151700783D01*
X148159759Y-151754744D01*
X148140935Y-151806464D01*
X148117361Y-151855663D01*
X148089317Y-151902060D01*
X148057086Y-151945372D01*
X148020947Y-151985319D01*
X147981182Y-152021619D01*
X147938071Y-152053992D01*
X147891895Y-152082156D01*
X147842936Y-152105830D01*
X147791473Y-152124732D01*
X147737789Y-152138582D01*
X147682163Y-152147098D01*
X147624877Y-152150000D01*
X147567630Y-152147098D01*
X147512034Y-152138582D01*
X147458370Y-152124732D01*
X147406920Y-152105830D01*
X147357966Y-152082156D01*
X147311790Y-152053992D01*
X147268673Y-152021619D01*
X147228898Y-151985319D01*
X147192746Y-151945372D01*
X147160500Y-151902060D01*
X147132442Y-151855663D01*
X147108852Y-151806464D01*
X147090014Y-151754744D01*
X147076210Y-151700783D01*
X147067720Y-151644862D01*
X147064828Y-151587264D01*
X147158861Y-151587264D01*
X147164241Y-151658602D01*
X147179849Y-151726588D01*
X147204889Y-151790424D01*
X147238563Y-151849307D01*
X147280074Y-151902438D01*
X147328626Y-151949016D01*
X147383421Y-151988241D01*
X147443664Y-152019310D01*
X147508555Y-152041426D01*
X147577300Y-152053785D01*
X147624877Y-152056210D01*
X147695747Y-152050799D01*
X147763296Y-152035098D01*
X147826726Y-152009909D01*
X147885241Y-151976032D01*
X147938044Y-151934268D01*
X147984338Y-151885417D01*
X148023325Y-151830279D01*
X148054210Y-151769656D01*
X148076194Y-151704348D01*
X148088481Y-151635155D01*
X148090892Y-151587264D01*
X148085512Y-151515989D01*
X148069904Y-151448053D01*
X148044864Y-151384258D01*
X148011190Y-151325405D01*
X147969679Y-151272297D01*
X147921127Y-151225735D01*
X147866332Y-151186522D01*
X147806089Y-151155458D01*
X147741198Y-151133346D01*
X147672453Y-151120987D01*
X147624877Y-151118562D01*
X147554006Y-151123973D01*
X147486457Y-151139672D01*
X147423027Y-151164857D01*
X147364512Y-151198727D01*
X147311709Y-151240479D01*
X147265415Y-151289312D01*
X147226428Y-151344424D01*
X147195543Y-151405013D01*
X147173559Y-151470278D01*
X147161272Y-151539416D01*
X147158861Y-151587264D01*
X147064828Y-151587264D01*
X147067720Y-151529709D01*
X147076210Y-151473826D01*
X147090014Y-151419898D01*
X147108852Y-151368205D01*
X147132442Y-151319029D01*
X147160500Y-151272653D01*
X147192746Y-151229357D01*
X147228898Y-151189423D01*
X147268673Y-151153133D01*
X147311790Y-151120767D01*
X147357966Y-151092609D01*
X147406920Y-151068939D01*
X147458370Y-151050038D01*
X147512034Y-151036190D01*
X147567630Y-151027674D01*
X147624877Y-151024773D01*
X147682163Y-151027674D01*
G37*
G36*
X145758861Y-151587508D02*
G01*
X145764241Y-151658783D01*
X145779849Y-151726719D01*
X145804889Y-151790515D01*
X145838563Y-151849367D01*
X145880074Y-151902475D01*
X145928626Y-151949037D01*
X145983421Y-151988250D01*
X146043664Y-152019314D01*
X146108555Y-152041427D01*
X146177300Y-152053785D01*
X146224877Y-152056210D01*
X146295747Y-152050799D01*
X146363296Y-152035100D01*
X146426726Y-152009915D01*
X146485241Y-151976045D01*
X146538044Y-151934293D01*
X146584338Y-151885460D01*
X146623325Y-151830348D01*
X146654210Y-151769759D01*
X146676194Y-151704495D01*
X146688481Y-151635356D01*
X146690892Y-151587508D01*
X146690892Y-151024528D01*
X146784925Y-151024528D01*
X146784925Y-151587508D01*
X146782036Y-151645063D01*
X146773553Y-151700946D01*
X146759759Y-151754875D01*
X146740935Y-151806567D01*
X146717361Y-151855743D01*
X146689317Y-151902119D01*
X146657086Y-151945415D01*
X146620947Y-151985349D01*
X146581182Y-152021640D01*
X146538071Y-152054005D01*
X146491895Y-152082163D01*
X146442936Y-152105834D01*
X146391473Y-152124734D01*
X146337789Y-152138583D01*
X146282163Y-152147098D01*
X146224877Y-152150000D01*
X146167630Y-152147098D01*
X146112034Y-152138583D01*
X146058370Y-152124734D01*
X146006920Y-152105834D01*
X145957966Y-152082163D01*
X145911790Y-152054005D01*
X145868673Y-152021640D01*
X145828898Y-151985349D01*
X145792746Y-151945415D01*
X145760500Y-151902119D01*
X145732442Y-151855743D01*
X145708852Y-151806567D01*
X145690014Y-151754875D01*
X145676210Y-151700946D01*
X145667720Y-151645063D01*
X145664828Y-151587508D01*
X145664828Y-151024528D01*
X145758861Y-151024528D01*
X145758861Y-151587508D01*
G37*
G36*
X145384925Y-151118562D02*
G01*
X144872015Y-151118562D01*
X144872015Y-152150000D01*
X144777982Y-152150000D01*
X144777982Y-151118562D01*
X144264828Y-151118562D01*
X144264828Y-151024773D01*
X145384925Y-151024773D01*
X145384925Y-151118562D01*
G37*
G36*
X143121771Y-151024773D02*
G01*
X143182911Y-151030948D01*
X143239855Y-151048667D01*
X143291383Y-151076718D01*
X143336277Y-151113891D01*
X143373317Y-151158975D01*
X143401284Y-151210760D01*
X143418958Y-151268034D01*
X143425121Y-151329588D01*
X143418958Y-151391071D01*
X143401284Y-151448313D01*
X143373317Y-151500093D01*
X143336277Y-151545193D01*
X143291383Y-151582393D01*
X143239855Y-151610475D01*
X143182911Y-151628218D01*
X143121771Y-151634403D01*
X142608617Y-151634403D01*
X142556315Y-151641048D01*
X142508821Y-151659874D01*
X142467797Y-151689213D01*
X142434902Y-151727401D01*
X142411796Y-151772771D01*
X142400141Y-151823658D01*
X142399057Y-151845184D01*
X142405667Y-151897827D01*
X142424392Y-151945645D01*
X142453570Y-151986960D01*
X142491542Y-152020095D01*
X142536647Y-152043373D01*
X142587225Y-152055118D01*
X142608617Y-152056210D01*
X143425121Y-152056210D01*
X143425121Y-152150000D01*
X142608617Y-152150000D01*
X142547467Y-152143824D01*
X142490495Y-152126106D01*
X142438927Y-152098054D01*
X142393989Y-152060881D01*
X142356904Y-152015797D01*
X142328898Y-151964012D01*
X142311196Y-151906738D01*
X142305023Y-151845184D01*
X142311196Y-151783631D01*
X142328898Y-151726356D01*
X142356904Y-151674572D01*
X142393989Y-151629487D01*
X142438927Y-151592314D01*
X142490495Y-151564263D01*
X142547467Y-151546545D01*
X142608617Y-151540369D01*
X143121771Y-151540369D01*
X143174057Y-151533708D01*
X143221510Y-151514842D01*
X143262481Y-151485448D01*
X143295320Y-151447204D01*
X143318378Y-151401786D01*
X143330006Y-151350872D01*
X143331087Y-151329344D01*
X143324493Y-151276798D01*
X143305809Y-151229048D01*
X143276684Y-151187776D01*
X143238769Y-151154665D01*
X143193711Y-151131397D01*
X143143160Y-151119655D01*
X143121771Y-151118562D01*
X142305023Y-151118562D01*
X142305023Y-151024773D01*
X143121771Y-151024773D01*
G37*
G36*
X142025121Y-151118562D02*
G01*
X141512211Y-151118562D01*
X141512211Y-152150000D01*
X141418177Y-152150000D01*
X141418177Y-151118562D01*
X140905023Y-151118562D01*
X140905023Y-151024773D01*
X142025121Y-151024773D01*
X142025121Y-151118562D01*
G37*
G36*
X140835170Y-151587264D02*
G01*
X140832280Y-151644862D01*
X140823798Y-151700783D01*
X140810004Y-151754744D01*
X140791179Y-151806464D01*
X140767605Y-151855663D01*
X140739561Y-151902060D01*
X140707330Y-151945372D01*
X140671191Y-151985319D01*
X140631426Y-152021619D01*
X140588315Y-152053992D01*
X140542139Y-152082156D01*
X140493180Y-152105830D01*
X140441718Y-152124732D01*
X140388033Y-152138582D01*
X140332407Y-152147098D01*
X140275121Y-152150000D01*
X139715072Y-152150000D01*
X139715072Y-152056210D01*
X140275121Y-152056210D01*
X140341703Y-152051433D01*
X140405412Y-152037544D01*
X140465586Y-152015207D01*
X140521567Y-151985087D01*
X140572695Y-151947847D01*
X140618311Y-151904152D01*
X140657757Y-151854666D01*
X140690372Y-151800053D01*
X140715497Y-151740977D01*
X140732473Y-151678102D01*
X140738938Y-151634403D01*
X139715072Y-151634403D01*
X139715072Y-151540369D01*
X140738938Y-151540369D01*
X140727761Y-151475337D01*
X140707995Y-151413671D01*
X140680300Y-151356033D01*
X140645335Y-151303086D01*
X140603759Y-151255489D01*
X140556232Y-151213907D01*
X140503413Y-151178999D01*
X140445961Y-151151428D01*
X140384536Y-151131855D01*
X140319796Y-151120943D01*
X140275121Y-151118806D01*
X139715072Y-151118806D01*
X139715072Y-151024773D01*
X140275121Y-151024773D01*
X140332407Y-151027674D01*
X140388033Y-151036190D01*
X140441718Y-151050038D01*
X140493180Y-151068939D01*
X140542139Y-151092609D01*
X140588315Y-151120767D01*
X140631426Y-151153133D01*
X140671191Y-151189423D01*
X140707330Y-151229357D01*
X140739561Y-151272653D01*
X140767605Y-151319029D01*
X140791179Y-151368205D01*
X140810004Y-151419898D01*
X140823798Y-151473826D01*
X140832280Y-151529709D01*
X140835170Y-151587264D01*
G37*
G36*
X139435170Y-152150000D02*
G01*
X139341136Y-152150000D01*
X139341136Y-151634403D01*
X138618422Y-151634403D01*
X138566217Y-151641047D01*
X138518791Y-151659866D01*
X138477809Y-151689188D01*
X138444938Y-151727342D01*
X138421842Y-151772655D01*
X138410190Y-151823457D01*
X138409105Y-151844940D01*
X138409105Y-152150000D01*
X138315072Y-152150000D01*
X138315072Y-151844940D01*
X138319115Y-151795084D01*
X138334018Y-151738759D01*
X138358837Y-151687304D01*
X138392461Y-151641830D01*
X138433780Y-151603448D01*
X138456977Y-151587264D01*
X138412228Y-151552845D01*
X138374618Y-151510778D01*
X138345258Y-151462175D01*
X138325258Y-151408146D01*
X138316543Y-151359779D01*
X138315072Y-151329588D01*
X138409105Y-151329588D01*
X138415715Y-151382118D01*
X138434433Y-151429834D01*
X138463594Y-151471070D01*
X138501531Y-151504159D01*
X138546580Y-151527437D01*
X138597073Y-151539237D01*
X138618422Y-151540369D01*
X139341380Y-151540369D01*
X139341380Y-151118562D01*
X138618666Y-151118562D01*
X138566363Y-151125223D01*
X138518870Y-151144089D01*
X138477845Y-151173483D01*
X138444950Y-151211727D01*
X138421845Y-151257145D01*
X138410190Y-151308059D01*
X138409105Y-151329588D01*
X138315072Y-151329588D01*
X138321245Y-151268034D01*
X138338947Y-151210760D01*
X138366953Y-151158975D01*
X138404037Y-151113891D01*
X138448976Y-151076718D01*
X138500544Y-151048667D01*
X138557515Y-151030948D01*
X138618666Y-151024773D01*
X139435170Y-151024773D01*
X139435170Y-152150000D01*
G37*
G36*
X138035170Y-151587264D02*
G01*
X138032280Y-151644862D01*
X138023798Y-151700783D01*
X138010004Y-151754744D01*
X137991179Y-151806464D01*
X137967605Y-151855663D01*
X137939561Y-151902060D01*
X137907330Y-151945372D01*
X137871191Y-151985319D01*
X137831426Y-152021619D01*
X137788315Y-152053992D01*
X137742139Y-152082156D01*
X137693180Y-152105830D01*
X137641718Y-152124732D01*
X137588033Y-152138582D01*
X137532407Y-152147098D01*
X137475121Y-152150000D01*
X136915072Y-152150000D01*
X136915072Y-152056210D01*
X137475121Y-152056210D01*
X137541703Y-152051433D01*
X137605412Y-152037544D01*
X137665586Y-152015207D01*
X137721567Y-151985087D01*
X137772695Y-151947847D01*
X137818311Y-151904152D01*
X137857757Y-151854666D01*
X137890372Y-151800053D01*
X137915497Y-151740977D01*
X137932473Y-151678102D01*
X137938938Y-151634403D01*
X136915072Y-151634403D01*
X136915072Y-151540369D01*
X137938938Y-151540369D01*
X137927761Y-151475337D01*
X137907995Y-151413671D01*
X137880300Y-151356033D01*
X137845335Y-151303086D01*
X137803759Y-151255489D01*
X137756232Y-151213907D01*
X137703413Y-151178999D01*
X137645961Y-151151428D01*
X137584536Y-151131855D01*
X137519796Y-151120943D01*
X137475121Y-151118806D01*
X136915072Y-151118806D01*
X136915072Y-151024773D01*
X137475121Y-151024773D01*
X137532407Y-151027674D01*
X137588033Y-151036190D01*
X137641718Y-151050038D01*
X137693180Y-151068939D01*
X137742139Y-151092609D01*
X137788315Y-151120767D01*
X137831426Y-151153133D01*
X137871191Y-151189423D01*
X137907330Y-151229357D01*
X137939561Y-151272653D01*
X137967605Y-151319029D01*
X137991179Y-151368205D01*
X138010004Y-151419898D01*
X138023798Y-151473826D01*
X138032280Y-151529709D01*
X138035170Y-151587264D01*
G37*
G36*
X136122411Y-151527629D02*
G01*
X136145099Y-151572503D01*
X136145463Y-151579692D01*
X136127184Y-151626776D01*
X136082310Y-151649427D01*
X136075121Y-151649790D01*
X136027830Y-151631537D01*
X136005142Y-151586839D01*
X136004779Y-151579692D01*
X136023057Y-151532402D01*
X136067931Y-151509714D01*
X136075121Y-151509351D01*
X136122411Y-151527629D01*
G37*
G36*
X136132407Y-151027640D02*
G01*
X136188033Y-151036055D01*
X136241718Y-151049737D01*
X136293180Y-151068408D01*
X136342139Y-151091787D01*
X136388315Y-151119595D01*
X136431426Y-151151552D01*
X136471191Y-151187377D01*
X136507330Y-151226792D01*
X136539561Y-151269516D01*
X136567605Y-151315270D01*
X136591179Y-151363774D01*
X136610004Y-151414748D01*
X136623798Y-151467912D01*
X136632280Y-151522987D01*
X136635170Y-151579692D01*
X136632280Y-151638100D01*
X136623798Y-151694799D01*
X136610004Y-151749503D01*
X136591179Y-151801931D01*
X136567605Y-151851796D01*
X136539561Y-151898816D01*
X136507330Y-151942706D01*
X136471191Y-151983182D01*
X136431426Y-152019960D01*
X136388315Y-152052756D01*
X136342139Y-152081285D01*
X136293180Y-152105265D01*
X136241718Y-152124410D01*
X136188033Y-152138437D01*
X136132407Y-152147062D01*
X136075121Y-152150000D01*
X136017875Y-152147062D01*
X135962279Y-152138437D01*
X135908615Y-152124410D01*
X135857165Y-152105265D01*
X135808210Y-152081285D01*
X135762034Y-152052756D01*
X135718917Y-152019960D01*
X135679142Y-151983182D01*
X135642991Y-151942706D01*
X135610744Y-151898816D01*
X135582686Y-151851796D01*
X135559097Y-151801931D01*
X135540259Y-151749503D01*
X135526454Y-151694799D01*
X135517964Y-151638100D01*
X135515072Y-151579692D01*
X135609105Y-151579692D01*
X135614485Y-151651951D01*
X135630093Y-151720895D01*
X135655133Y-151785696D01*
X135688807Y-151845527D01*
X135730318Y-151899558D01*
X135778870Y-151946962D01*
X135833666Y-151986910D01*
X135893908Y-152018574D01*
X135958800Y-152041125D01*
X136027544Y-152053735D01*
X136075121Y-152056210D01*
X136145991Y-152050688D01*
X136213540Y-152034672D01*
X136276970Y-152008991D01*
X136335486Y-151974474D01*
X136388288Y-151931948D01*
X136434582Y-151882243D01*
X136473570Y-151826187D01*
X136504454Y-151764607D01*
X136526438Y-151698333D01*
X136538725Y-151628192D01*
X136541136Y-151579692D01*
X136535756Y-151509451D01*
X136520148Y-151442540D01*
X136495109Y-151379743D01*
X136461435Y-151321839D01*
X136419923Y-151269611D01*
X136371371Y-151223839D01*
X136316576Y-151185305D01*
X136256334Y-151154790D01*
X136191442Y-151133075D01*
X136122697Y-151120942D01*
X136075121Y-151118562D01*
X136004250Y-151123874D01*
X135936702Y-151139287D01*
X135873271Y-151164022D01*
X135814756Y-151197297D01*
X135761953Y-151238331D01*
X135715659Y-151286342D01*
X135676672Y-151340548D01*
X135645788Y-151400170D01*
X135623803Y-151464425D01*
X135611516Y-151532533D01*
X135609105Y-151579692D01*
X135515072Y-151579692D01*
X135517964Y-151522987D01*
X135526454Y-151467912D01*
X135540259Y-151414748D01*
X135559097Y-151363774D01*
X135582686Y-151315270D01*
X135610744Y-151269516D01*
X135642991Y-151226792D01*
X135679142Y-151187377D01*
X135718917Y-151151552D01*
X135762034Y-151119595D01*
X135808210Y-151091787D01*
X135857165Y-151068408D01*
X135908615Y-151049737D01*
X135962279Y-151036055D01*
X136017875Y-151027640D01*
X136075121Y-151024773D01*
X136132407Y-151027640D01*
G37*
D11*
G36*
X151729587Y-47704528D02*
G01*
X151723808Y-47819725D01*
X151706843Y-47931566D01*
X151679255Y-48039488D01*
X151641606Y-48142929D01*
X151594458Y-48241327D01*
X151538371Y-48334120D01*
X151473908Y-48420744D01*
X151401630Y-48500638D01*
X151322100Y-48573239D01*
X151235878Y-48637985D01*
X151143527Y-48694312D01*
X151045608Y-48741660D01*
X150942683Y-48779465D01*
X150835314Y-48807165D01*
X150724062Y-48824197D01*
X150609490Y-48830000D01*
X149489392Y-48830000D01*
X149489392Y-48642421D01*
X150609490Y-48642421D01*
X150751230Y-48631598D01*
X150886328Y-48600197D01*
X151013189Y-48549819D01*
X151130219Y-48482065D01*
X151235825Y-48398536D01*
X151328412Y-48300834D01*
X151406387Y-48190559D01*
X151468156Y-48069313D01*
X151512124Y-47938696D01*
X151536699Y-47800311D01*
X151541520Y-47704528D01*
X151530761Y-47561978D01*
X151499544Y-47426106D01*
X151449465Y-47298516D01*
X151382117Y-47180811D01*
X151299095Y-47074595D01*
X151201991Y-46981471D01*
X151092400Y-46903044D01*
X150971915Y-46840916D01*
X150842132Y-46796692D01*
X150704643Y-46771974D01*
X150609490Y-46767124D01*
X149489392Y-46767124D01*
X149489392Y-46579546D01*
X150609490Y-46579546D01*
X150724062Y-46585348D01*
X150835314Y-46602380D01*
X150942683Y-46630077D01*
X151045608Y-46667878D01*
X151143527Y-46715218D01*
X151235878Y-46771535D01*
X151322100Y-46836266D01*
X151401630Y-46908846D01*
X151473908Y-46988714D01*
X151538371Y-47075306D01*
X151594458Y-47168059D01*
X151641606Y-47266410D01*
X151679255Y-47369796D01*
X151706843Y-47477653D01*
X151723808Y-47589418D01*
X151729587Y-47704528D01*
G37*
G36*
X147904071Y-47585259D02*
G01*
X147949447Y-47675006D01*
X147950173Y-47689385D01*
X147913616Y-47783552D01*
X147823869Y-47828854D01*
X147809490Y-47829581D01*
X147714908Y-47793074D01*
X147669532Y-47703679D01*
X147668806Y-47689385D01*
X147705363Y-47594804D01*
X147795110Y-47549428D01*
X147809490Y-47548702D01*
X147904071Y-47585259D01*
G37*
G36*
X147924062Y-46585280D02*
G01*
X148035314Y-46602110D01*
X148142683Y-46629475D01*
X148245608Y-46666817D01*
X148343527Y-46713575D01*
X148435878Y-46769191D01*
X148522100Y-46833104D01*
X148601630Y-46904755D01*
X148673908Y-46983585D01*
X148738371Y-47069033D01*
X148794458Y-47160541D01*
X148841606Y-47257549D01*
X148879255Y-47359497D01*
X148906843Y-47465825D01*
X148923808Y-47575974D01*
X148929587Y-47689385D01*
X148923808Y-47806201D01*
X148906843Y-47919598D01*
X148879255Y-48029007D01*
X148841606Y-48133862D01*
X148794458Y-48233593D01*
X148738371Y-48327632D01*
X148673908Y-48415412D01*
X148601630Y-48496364D01*
X148522100Y-48569920D01*
X148435878Y-48635512D01*
X148343527Y-48692571D01*
X148245608Y-48740530D01*
X148142683Y-48778821D01*
X148035314Y-48806875D01*
X147924062Y-48824124D01*
X147809490Y-48830000D01*
X147694997Y-48824124D01*
X147583805Y-48806875D01*
X147476477Y-48778821D01*
X147373577Y-48740530D01*
X147275669Y-48692571D01*
X147183316Y-48635512D01*
X147097082Y-48569920D01*
X147017532Y-48496364D01*
X146945229Y-48415412D01*
X146880737Y-48327632D01*
X146824620Y-48233593D01*
X146777441Y-48133862D01*
X146739765Y-48029007D01*
X146712156Y-47919598D01*
X146695177Y-47806201D01*
X146689392Y-47689385D01*
X146877459Y-47689385D01*
X146888218Y-47833902D01*
X146919435Y-47971790D01*
X146969514Y-48101393D01*
X147036862Y-48221054D01*
X147119884Y-48329117D01*
X147216988Y-48423925D01*
X147326579Y-48503821D01*
X147447064Y-48567148D01*
X147576847Y-48612251D01*
X147714336Y-48637471D01*
X147809490Y-48642421D01*
X147951230Y-48631376D01*
X148086328Y-48599344D01*
X148213189Y-48547982D01*
X148330219Y-48478948D01*
X148435825Y-48393897D01*
X148528412Y-48294487D01*
X148606387Y-48182374D01*
X148668156Y-48059215D01*
X148712124Y-47926666D01*
X148736699Y-47786384D01*
X148741520Y-47689385D01*
X148730761Y-47548902D01*
X148699544Y-47415081D01*
X148649465Y-47289486D01*
X148582117Y-47173679D01*
X148499095Y-47069222D01*
X148401991Y-46977679D01*
X148292400Y-46900611D01*
X148171915Y-46839581D01*
X148042132Y-46796151D01*
X147904643Y-46771884D01*
X147809490Y-46767124D01*
X147667749Y-46777748D01*
X147532651Y-46808575D01*
X147405790Y-46858045D01*
X147288760Y-46924595D01*
X147183154Y-47006662D01*
X147090567Y-47102684D01*
X147012592Y-47211097D01*
X146950823Y-47330341D01*
X146906855Y-47458851D01*
X146882280Y-47595067D01*
X146877459Y-47689385D01*
X146689392Y-47689385D01*
X146695177Y-47575974D01*
X146712156Y-47465825D01*
X146739765Y-47359497D01*
X146777441Y-47257549D01*
X146824620Y-47160541D01*
X146880737Y-47069033D01*
X146945229Y-46983585D01*
X147017532Y-46904755D01*
X147097082Y-46833104D01*
X147183316Y-46769191D01*
X147275669Y-46713575D01*
X147373577Y-46666817D01*
X147476477Y-46629475D01*
X147583805Y-46602110D01*
X147694997Y-46585280D01*
X147809490Y-46579546D01*
X147924062Y-46585280D01*
G37*
G36*
X145009490Y-46579546D02*
G01*
X145124062Y-46585343D01*
X145235314Y-46602359D01*
X145342683Y-46630032D01*
X145445608Y-46667802D01*
X145543527Y-46715105D01*
X145635878Y-46771381D01*
X145722100Y-46836067D01*
X145801630Y-46908602D01*
X145873908Y-46988425D01*
X145938371Y-47074972D01*
X145994458Y-47167684D01*
X146041606Y-47265998D01*
X146079255Y-47369352D01*
X146106843Y-47477185D01*
X146123808Y-47588935D01*
X146129587Y-47704040D01*
X146129587Y-48830000D01*
X145941520Y-48830000D01*
X145941520Y-47704040D01*
X145930761Y-47561614D01*
X145899544Y-47425844D01*
X145849465Y-47298334D01*
X145782117Y-47180691D01*
X145699095Y-47074522D01*
X145601991Y-46981430D01*
X145492400Y-46903024D01*
X145371915Y-46840909D01*
X145242132Y-46796690D01*
X145104643Y-46771974D01*
X145009490Y-46767124D01*
X144867749Y-46777946D01*
X144732651Y-46809342D01*
X144605790Y-46859705D01*
X144488760Y-46927429D01*
X144383154Y-47010908D01*
X144290567Y-47108538D01*
X144212592Y-47218710D01*
X144150823Y-47339820D01*
X144106855Y-47470262D01*
X144082280Y-47608430D01*
X144077459Y-47704040D01*
X144077459Y-48830000D01*
X143889392Y-48830000D01*
X143889392Y-47704040D01*
X143895177Y-47588935D01*
X143912156Y-47477185D01*
X143939765Y-47369352D01*
X143977441Y-47265998D01*
X144024620Y-47167684D01*
X144080737Y-47074972D01*
X144145229Y-46988425D01*
X144217532Y-46908602D01*
X144297082Y-46836067D01*
X144383316Y-46771381D01*
X144475669Y-46715105D01*
X144573577Y-46667802D01*
X144676477Y-46630032D01*
X144783805Y-46602359D01*
X144894997Y-46585343D01*
X145009490Y-46579546D01*
G37*
G36*
X141696580Y-46579546D02*
G01*
X143329587Y-46579546D01*
X143329587Y-46723649D01*
X143329587Y-46767124D01*
X143329587Y-48830000D01*
X143141520Y-48830000D01*
X143141520Y-47798806D01*
X141696580Y-47798806D01*
X141696580Y-47610739D01*
X143141520Y-47610251D01*
X143141520Y-46767124D01*
X141696580Y-46767124D01*
X141257919Y-46767124D01*
X141089392Y-46767124D01*
X141089392Y-46579546D01*
X141696580Y-46579546D01*
G37*
G36*
X138896580Y-48642421D02*
G01*
X140341520Y-48642421D01*
X140341520Y-46579057D01*
X140529587Y-46579057D01*
X140529587Y-48642421D01*
X140529587Y-48685896D01*
X140529587Y-48830000D01*
X138896580Y-48830000D01*
X138289392Y-48830000D01*
X138289392Y-48642421D01*
X138457919Y-48642421D01*
X138896580Y-48642421D01*
G37*
G36*
X136058478Y-47705017D02*
G01*
X136069237Y-47847567D01*
X136100454Y-47983439D01*
X136150533Y-48111030D01*
X136217880Y-48228735D01*
X136300903Y-48334951D01*
X136398007Y-48428074D01*
X136507598Y-48506501D01*
X136628082Y-48568629D01*
X136757866Y-48612854D01*
X136895355Y-48637571D01*
X136990508Y-48642421D01*
X137132249Y-48631599D01*
X137267347Y-48600200D01*
X137394208Y-48549830D01*
X137511238Y-48482091D01*
X137616844Y-48398587D01*
X137709431Y-48300921D01*
X137787406Y-48190697D01*
X137849175Y-48069519D01*
X137893143Y-47938990D01*
X137917718Y-47800713D01*
X137922539Y-47705017D01*
X137922539Y-46579057D01*
X138110606Y-46579057D01*
X138110606Y-47705017D01*
X138104826Y-47820127D01*
X138087862Y-47931893D01*
X138060274Y-48039750D01*
X138022625Y-48143135D01*
X137975476Y-48241486D01*
X137919390Y-48334239D01*
X137854927Y-48420831D01*
X137782649Y-48500699D01*
X137703118Y-48573280D01*
X137616897Y-48638010D01*
X137524546Y-48694327D01*
X137426627Y-48741668D01*
X137323702Y-48779468D01*
X137216333Y-48807166D01*
X137105081Y-48824197D01*
X136990508Y-48830000D01*
X136876016Y-48824197D01*
X136764824Y-48807166D01*
X136657496Y-48779468D01*
X136554596Y-48741668D01*
X136456687Y-48694327D01*
X136364335Y-48638010D01*
X136278101Y-48573280D01*
X136198551Y-48500699D01*
X136126248Y-48420831D01*
X136061756Y-48334239D01*
X136005639Y-48241486D01*
X135958460Y-48143135D01*
X135920784Y-48039750D01*
X135893175Y-47931893D01*
X135876196Y-47820127D01*
X135870411Y-47705017D01*
X135870411Y-46579057D01*
X136058478Y-46579057D01*
X136058478Y-47705017D01*
G37*
G36*
X135310606Y-47704528D02*
G01*
X135304826Y-47819725D01*
X135287862Y-47931566D01*
X135260274Y-48039488D01*
X135222625Y-48142929D01*
X135175476Y-48241327D01*
X135119390Y-48334120D01*
X135054927Y-48420744D01*
X134982649Y-48500638D01*
X134903118Y-48573239D01*
X134816897Y-48637985D01*
X134724546Y-48694312D01*
X134626627Y-48741660D01*
X134523702Y-48779465D01*
X134416333Y-48807165D01*
X134305081Y-48824197D01*
X134190508Y-48830000D01*
X133070411Y-48830000D01*
X133070411Y-48642421D01*
X134190508Y-48642421D01*
X134323674Y-48632866D01*
X134451090Y-48605088D01*
X134571438Y-48560415D01*
X134683400Y-48500174D01*
X134785657Y-48425695D01*
X134876890Y-48338305D01*
X134955780Y-48239333D01*
X135021010Y-48130106D01*
X135071261Y-48011954D01*
X135105213Y-47886204D01*
X135118143Y-47798806D01*
X133070411Y-47798806D01*
X133070411Y-47610739D01*
X135118143Y-47610739D01*
X135095788Y-47480674D01*
X135056256Y-47357343D01*
X135000866Y-47242067D01*
X134930936Y-47136172D01*
X134847785Y-47040979D01*
X134752731Y-46957814D01*
X134647093Y-46887998D01*
X134532189Y-46832856D01*
X134409338Y-46793711D01*
X134279859Y-46771887D01*
X134190508Y-46767613D01*
X133070411Y-46767613D01*
X133070411Y-46579546D01*
X134190508Y-46579546D01*
X134305081Y-46585348D01*
X134416333Y-46602380D01*
X134523702Y-46630077D01*
X134626627Y-46667878D01*
X134724546Y-46715218D01*
X134816897Y-46771535D01*
X134903118Y-46836266D01*
X134982649Y-46908846D01*
X135054927Y-46988714D01*
X135119390Y-47075306D01*
X135175476Y-47168059D01*
X135222625Y-47266410D01*
X135260274Y-47369796D01*
X135287862Y-47477653D01*
X135304826Y-47589418D01*
X135310606Y-47704528D01*
G37*
G36*
X131390508Y-46579546D02*
G01*
X131505081Y-46585343D01*
X131616333Y-46602359D01*
X131723702Y-46630032D01*
X131826627Y-46667802D01*
X131924546Y-46715105D01*
X132016897Y-46771381D01*
X132103118Y-46836067D01*
X132182649Y-46908602D01*
X132254927Y-46988425D01*
X132319390Y-47074972D01*
X132375476Y-47167684D01*
X132422625Y-47265998D01*
X132460274Y-47369352D01*
X132487862Y-47477185D01*
X132504826Y-47588935D01*
X132510606Y-47704040D01*
X132510606Y-48830000D01*
X132322539Y-48830000D01*
X132322539Y-47704040D01*
X132311779Y-47561614D01*
X132280563Y-47425844D01*
X132230484Y-47298334D01*
X132163136Y-47180691D01*
X132080113Y-47074522D01*
X131983010Y-46981430D01*
X131873418Y-46903024D01*
X131752934Y-46840909D01*
X131623151Y-46796690D01*
X131485661Y-46771974D01*
X131390508Y-46767124D01*
X131248768Y-46777946D01*
X131113670Y-46809342D01*
X130986809Y-46859705D01*
X130869779Y-46927429D01*
X130764173Y-47010908D01*
X130671586Y-47108538D01*
X130593611Y-47218710D01*
X130531842Y-47339820D01*
X130487874Y-47470262D01*
X130463299Y-47608430D01*
X130458478Y-47704040D01*
X130458478Y-48830000D01*
X130270411Y-48830000D01*
X130270411Y-47704040D01*
X130276196Y-47588935D01*
X130293175Y-47477185D01*
X130320784Y-47369352D01*
X130358460Y-47265998D01*
X130405639Y-47167684D01*
X130461756Y-47074972D01*
X130526248Y-46988425D01*
X130598551Y-46908602D01*
X130678101Y-46836067D01*
X130764335Y-46771381D01*
X130856687Y-46715105D01*
X130954596Y-46667802D01*
X131057496Y-46630032D01*
X131164824Y-46602359D01*
X131276016Y-46585343D01*
X131390508Y-46579546D01*
G37*
G36*
X129710606Y-47704528D02*
G01*
X129704826Y-47819725D01*
X129687862Y-47931566D01*
X129660274Y-48039488D01*
X129622625Y-48142929D01*
X129575476Y-48241327D01*
X129519390Y-48334120D01*
X129454927Y-48420744D01*
X129382649Y-48500638D01*
X129303118Y-48573239D01*
X129216897Y-48637985D01*
X129124546Y-48694312D01*
X129026627Y-48741660D01*
X128923702Y-48779465D01*
X128816333Y-48807165D01*
X128705081Y-48824197D01*
X128590508Y-48830000D01*
X127470411Y-48830000D01*
X127470411Y-48642421D01*
X128590508Y-48642421D01*
X128732249Y-48631598D01*
X128867347Y-48600197D01*
X128994208Y-48549819D01*
X129111238Y-48482065D01*
X129216844Y-48398536D01*
X129309431Y-48300834D01*
X129387406Y-48190559D01*
X129449175Y-48069313D01*
X129493143Y-47938696D01*
X129517718Y-47800311D01*
X129522539Y-47704528D01*
X129511779Y-47561978D01*
X129480563Y-47426106D01*
X129430484Y-47298516D01*
X129363136Y-47180811D01*
X129280113Y-47074595D01*
X129183010Y-46981471D01*
X129073418Y-46903044D01*
X128952934Y-46840916D01*
X128823151Y-46796692D01*
X128685661Y-46771974D01*
X128590508Y-46767124D01*
X127470411Y-46767124D01*
X127470411Y-46579546D01*
X128590508Y-46579546D01*
X128705081Y-46585348D01*
X128816333Y-46602380D01*
X128923702Y-46630077D01*
X129026627Y-46667878D01*
X129124546Y-46715218D01*
X129216897Y-46771535D01*
X129303118Y-46836266D01*
X129382649Y-46908846D01*
X129454927Y-46988714D01*
X129519390Y-47075306D01*
X129575476Y-47168059D01*
X129622625Y-47266410D01*
X129660274Y-47369796D01*
X129687862Y-47477653D01*
X129704826Y-47589418D01*
X129710606Y-47704528D01*
G37*
G36*
X126910606Y-47704528D02*
G01*
X126904826Y-47819725D01*
X126887862Y-47931566D01*
X126860274Y-48039488D01*
X126822625Y-48142929D01*
X126775476Y-48241327D01*
X126719390Y-48334120D01*
X126654927Y-48420744D01*
X126582649Y-48500638D01*
X126503118Y-48573239D01*
X126416897Y-48637985D01*
X126324546Y-48694312D01*
X126226627Y-48741660D01*
X126123702Y-48779465D01*
X126016333Y-48807165D01*
X125905081Y-48824197D01*
X125790508Y-48830000D01*
X124670411Y-48830000D01*
X124670411Y-48642421D01*
X125790508Y-48642421D01*
X125923674Y-48632866D01*
X126051090Y-48605088D01*
X126171438Y-48560415D01*
X126283400Y-48500174D01*
X126385657Y-48425695D01*
X126476890Y-48338305D01*
X126555780Y-48239333D01*
X126621010Y-48130106D01*
X126671261Y-48011954D01*
X126705213Y-47886204D01*
X126718143Y-47798806D01*
X124670411Y-47798806D01*
X124670411Y-47610739D01*
X126718143Y-47610739D01*
X126695788Y-47480674D01*
X126656256Y-47357343D01*
X126600866Y-47242067D01*
X126530936Y-47136172D01*
X126447785Y-47040979D01*
X126352731Y-46957814D01*
X126247093Y-46887998D01*
X126132189Y-46832856D01*
X126009338Y-46793711D01*
X125879859Y-46771887D01*
X125790508Y-46767613D01*
X124670411Y-46767613D01*
X124670411Y-46579546D01*
X125790508Y-46579546D01*
X125905081Y-46585348D01*
X126016333Y-46602380D01*
X126123702Y-46630077D01*
X126226627Y-46667878D01*
X126324546Y-46715218D01*
X126416897Y-46771535D01*
X126503118Y-46836266D01*
X126582649Y-46908846D01*
X126654927Y-46988714D01*
X126719390Y-47075306D01*
X126775476Y-47168059D01*
X126822625Y-47266410D01*
X126860274Y-47369796D01*
X126887862Y-47477653D01*
X126904826Y-47589418D01*
X126910606Y-47704528D01*
G37*
D10*
G36*
X161971772Y-52150000D02*
G01*
X161877738Y-52150000D01*
X161877982Y-51024528D01*
X161971772Y-51024528D01*
X161971772Y-52150000D01*
G37*
G36*
X161038275Y-51024773D02*
G01*
X161095562Y-51027671D01*
X161151188Y-51036179D01*
X161204872Y-51050016D01*
X161256335Y-51068901D01*
X161305294Y-51092552D01*
X161351470Y-51120690D01*
X161394580Y-51153033D01*
X161434346Y-51189301D01*
X161470485Y-51229212D01*
X161502716Y-51272486D01*
X161530759Y-51318842D01*
X161554334Y-51367999D01*
X161573158Y-51419676D01*
X161586952Y-51473592D01*
X161595434Y-51529467D01*
X161598324Y-51587020D01*
X161598324Y-52150000D01*
X161504291Y-52150000D01*
X161504291Y-51587020D01*
X161498911Y-51515807D01*
X161483303Y-51447922D01*
X161458263Y-51384167D01*
X161424589Y-51325345D01*
X161383078Y-51272261D01*
X161334526Y-51225715D01*
X161279731Y-51186512D01*
X161219488Y-51155454D01*
X161154597Y-51133345D01*
X161085852Y-51120987D01*
X161038275Y-51118562D01*
X160967405Y-51123973D01*
X160899856Y-51139671D01*
X160836426Y-51164852D01*
X160777911Y-51198714D01*
X160725108Y-51240454D01*
X160678814Y-51289269D01*
X160639827Y-51344355D01*
X160608942Y-51404910D01*
X160586958Y-51470131D01*
X160574671Y-51539215D01*
X160572260Y-51587020D01*
X160572260Y-52150000D01*
X160478227Y-52150000D01*
X160478227Y-51587020D01*
X160481119Y-51529467D01*
X160489609Y-51473592D01*
X160503413Y-51419676D01*
X160522251Y-51367999D01*
X160545841Y-51318842D01*
X160573899Y-51272486D01*
X160606145Y-51229212D01*
X160642297Y-51189301D01*
X160682072Y-51153033D01*
X160725189Y-51120690D01*
X160771365Y-51092552D01*
X160820319Y-51068901D01*
X160871769Y-51050016D01*
X160925433Y-51036179D01*
X160981029Y-51027671D01*
X161038275Y-51024773D01*
G37*
G36*
X159335170Y-51024773D02*
G01*
X159396310Y-51030948D01*
X159453254Y-51048667D01*
X159504782Y-51076718D01*
X159549676Y-51113891D01*
X159586716Y-51158975D01*
X159614683Y-51210760D01*
X159632357Y-51268034D01*
X159638520Y-51329588D01*
X159632357Y-51391071D01*
X159614683Y-51448313D01*
X159586716Y-51500093D01*
X159549676Y-51545193D01*
X159504782Y-51582393D01*
X159453254Y-51610475D01*
X159396310Y-51628218D01*
X159335170Y-51634403D01*
X158822016Y-51634403D01*
X158769714Y-51641048D01*
X158722220Y-51659874D01*
X158681196Y-51689213D01*
X158648300Y-51727401D01*
X158625195Y-51772771D01*
X158613540Y-51823658D01*
X158612455Y-51845184D01*
X158619066Y-51897827D01*
X158637791Y-51945645D01*
X158666969Y-51986960D01*
X158704941Y-52020095D01*
X158750046Y-52043373D01*
X158800624Y-52055118D01*
X158822016Y-52056210D01*
X159638520Y-52056210D01*
X159638520Y-52150000D01*
X158822016Y-52150000D01*
X158760865Y-52143824D01*
X158703894Y-52126106D01*
X158652326Y-52098054D01*
X158607387Y-52060881D01*
X158570303Y-52015797D01*
X158542297Y-51964012D01*
X158524595Y-51906738D01*
X158518422Y-51845184D01*
X158524595Y-51783631D01*
X158542297Y-51726356D01*
X158570303Y-51674572D01*
X158607387Y-51629487D01*
X158652326Y-51592314D01*
X158703894Y-51564263D01*
X158760865Y-51546545D01*
X158822016Y-51540369D01*
X159335170Y-51540369D01*
X159387456Y-51533708D01*
X159434909Y-51514842D01*
X159475880Y-51485448D01*
X159508718Y-51447204D01*
X159531776Y-51401786D01*
X159543405Y-51350872D01*
X159544486Y-51329344D01*
X159537892Y-51276798D01*
X159519208Y-51229048D01*
X159490083Y-51187776D01*
X159452168Y-51154665D01*
X159407110Y-51131397D01*
X159356559Y-51119655D01*
X159335170Y-51118562D01*
X158518422Y-51118562D01*
X158518422Y-51024773D01*
X159335170Y-51024773D01*
G37*
G36*
X158238520Y-51118562D02*
G01*
X157725610Y-51118562D01*
X157725610Y-52150000D01*
X157631576Y-52150000D01*
X157631576Y-51118562D01*
X157118422Y-51118562D01*
X157118422Y-51024773D01*
X158238520Y-51024773D01*
X158238520Y-51118562D01*
G37*
G36*
X157048569Y-51587264D02*
G01*
X157045679Y-51644862D01*
X157037196Y-51700783D01*
X157023403Y-51754744D01*
X157004578Y-51806464D01*
X156981004Y-51855663D01*
X156952960Y-51902060D01*
X156920729Y-51945372D01*
X156884590Y-51985319D01*
X156844825Y-52021619D01*
X156801714Y-52053992D01*
X156755538Y-52082156D01*
X156706579Y-52105830D01*
X156655116Y-52124732D01*
X156601432Y-52138582D01*
X156545806Y-52147098D01*
X156488520Y-52150000D01*
X155928471Y-52150000D01*
X155928471Y-52056210D01*
X156488520Y-52056210D01*
X156555102Y-52051433D01*
X156618810Y-52037544D01*
X156678985Y-52015207D01*
X156734965Y-51985087D01*
X156786094Y-51947847D01*
X156831710Y-51904152D01*
X156871156Y-51854666D01*
X156903771Y-51800053D01*
X156928896Y-51740977D01*
X156945872Y-51678102D01*
X156952337Y-51634403D01*
X155928471Y-51634403D01*
X155928471Y-51540369D01*
X156952337Y-51540369D01*
X156941160Y-51475337D01*
X156921394Y-51413671D01*
X156893699Y-51356033D01*
X156858734Y-51303086D01*
X156817158Y-51255489D01*
X156769631Y-51213907D01*
X156716812Y-51178999D01*
X156659360Y-51151428D01*
X156597935Y-51131855D01*
X156533195Y-51120943D01*
X156488520Y-51118806D01*
X155928471Y-51118806D01*
X155928471Y-51024773D01*
X156488520Y-51024773D01*
X156545806Y-51027674D01*
X156601432Y-51036190D01*
X156655116Y-51050038D01*
X156706579Y-51068939D01*
X156755538Y-51092609D01*
X156801714Y-51120767D01*
X156844825Y-51153133D01*
X156884590Y-51189423D01*
X156920729Y-51229357D01*
X156952960Y-51272653D01*
X156981004Y-51319029D01*
X157004578Y-51368205D01*
X157023403Y-51419898D01*
X157037196Y-51473826D01*
X157045679Y-51529709D01*
X157048569Y-51587264D01*
G37*
G36*
X155648569Y-52150000D02*
G01*
X155554535Y-52150000D01*
X155554535Y-51634403D01*
X154831820Y-51634403D01*
X154779616Y-51641047D01*
X154732190Y-51659866D01*
X154691208Y-51689188D01*
X154658336Y-51727342D01*
X154635241Y-51772655D01*
X154623589Y-51823457D01*
X154622504Y-51844940D01*
X154622504Y-52150000D01*
X154528471Y-52150000D01*
X154528471Y-51844940D01*
X154532514Y-51795084D01*
X154547417Y-51738759D01*
X154572236Y-51687304D01*
X154605860Y-51641830D01*
X154647179Y-51603448D01*
X154670376Y-51587264D01*
X154625627Y-51552845D01*
X154588017Y-51510778D01*
X154558656Y-51462175D01*
X154538657Y-51408146D01*
X154529942Y-51359779D01*
X154528471Y-51329588D01*
X154622504Y-51329588D01*
X154629114Y-51382118D01*
X154647832Y-51429834D01*
X154676993Y-51471070D01*
X154714930Y-51504159D01*
X154759979Y-51527437D01*
X154810472Y-51539237D01*
X154831820Y-51540369D01*
X155554779Y-51540369D01*
X155554779Y-51118562D01*
X154832065Y-51118562D01*
X154779762Y-51125223D01*
X154732269Y-51144089D01*
X154691244Y-51173483D01*
X154658349Y-51211727D01*
X154635244Y-51257145D01*
X154623589Y-51308059D01*
X154622504Y-51329588D01*
X154528471Y-51329588D01*
X154534644Y-51268034D01*
X154552346Y-51210760D01*
X154580351Y-51158975D01*
X154617436Y-51113891D01*
X154662375Y-51076718D01*
X154713943Y-51048667D01*
X154770914Y-51030948D01*
X154832065Y-51024773D01*
X155648569Y-51024773D01*
X155648569Y-52150000D01*
G37*
G36*
X154248569Y-51587264D02*
G01*
X154245679Y-51644862D01*
X154237196Y-51700783D01*
X154223403Y-51754744D01*
X154204578Y-51806464D01*
X154181004Y-51855663D01*
X154152960Y-51902060D01*
X154120729Y-51945372D01*
X154084590Y-51985319D01*
X154044825Y-52021619D01*
X154001714Y-52053992D01*
X153955538Y-52082156D01*
X153906579Y-52105830D01*
X153855116Y-52124732D01*
X153801432Y-52138582D01*
X153745806Y-52147098D01*
X153688520Y-52150000D01*
X153128471Y-52150000D01*
X153128471Y-52056210D01*
X153688520Y-52056210D01*
X153755102Y-52051433D01*
X153818810Y-52037544D01*
X153878985Y-52015207D01*
X153934965Y-51985087D01*
X153986094Y-51947847D01*
X154031710Y-51904152D01*
X154071156Y-51854666D01*
X154103771Y-51800053D01*
X154128896Y-51740977D01*
X154145872Y-51678102D01*
X154152337Y-51634403D01*
X153128471Y-51634403D01*
X153128471Y-51540369D01*
X154152337Y-51540369D01*
X154141160Y-51475337D01*
X154121394Y-51413671D01*
X154093699Y-51356033D01*
X154058734Y-51303086D01*
X154017158Y-51255489D01*
X153969631Y-51213907D01*
X153916812Y-51178999D01*
X153859360Y-51151428D01*
X153797935Y-51131855D01*
X153733195Y-51120943D01*
X153688520Y-51118806D01*
X153128471Y-51118806D01*
X153128471Y-51024773D01*
X153688520Y-51024773D01*
X153745806Y-51027674D01*
X153801432Y-51036190D01*
X153855116Y-51050038D01*
X153906579Y-51068939D01*
X153955538Y-51092609D01*
X154001714Y-51120767D01*
X154044825Y-51153133D01*
X154084590Y-51189423D01*
X154120729Y-51229357D01*
X154152960Y-51272653D01*
X154181004Y-51319029D01*
X154204578Y-51368205D01*
X154223403Y-51419898D01*
X154237196Y-51473826D01*
X154245679Y-51529709D01*
X154248569Y-51587264D01*
G37*
G36*
X152335810Y-51527629D02*
G01*
X152358498Y-51572503D01*
X152358862Y-51579692D01*
X152340583Y-51626776D01*
X152295709Y-51649427D01*
X152288520Y-51649790D01*
X152241229Y-51631537D01*
X152218541Y-51586839D01*
X152218178Y-51579692D01*
X152236456Y-51532402D01*
X152281330Y-51509714D01*
X152288520Y-51509351D01*
X152335810Y-51527629D01*
G37*
G36*
X152345806Y-51027640D02*
G01*
X152401432Y-51036055D01*
X152455116Y-51049737D01*
X152506579Y-51068408D01*
X152555538Y-51091787D01*
X152601714Y-51119595D01*
X152644825Y-51151552D01*
X152684590Y-51187377D01*
X152720729Y-51226792D01*
X152752960Y-51269516D01*
X152781004Y-51315270D01*
X152804578Y-51363774D01*
X152823403Y-51414748D01*
X152837196Y-51467912D01*
X152845679Y-51522987D01*
X152848569Y-51579692D01*
X152845679Y-51638100D01*
X152837196Y-51694799D01*
X152823403Y-51749503D01*
X152804578Y-51801931D01*
X152781004Y-51851796D01*
X152752960Y-51898816D01*
X152720729Y-51942706D01*
X152684590Y-51983182D01*
X152644825Y-52019960D01*
X152601714Y-52052756D01*
X152555538Y-52081285D01*
X152506579Y-52105265D01*
X152455116Y-52124410D01*
X152401432Y-52138437D01*
X152345806Y-52147062D01*
X152288520Y-52150000D01*
X152231274Y-52147062D01*
X152175678Y-52138437D01*
X152122014Y-52124410D01*
X152070563Y-52105265D01*
X152021609Y-52081285D01*
X151975433Y-52052756D01*
X151932316Y-52019960D01*
X151892541Y-51983182D01*
X151856389Y-51942706D01*
X151824143Y-51898816D01*
X151796085Y-51851796D01*
X151772496Y-51801931D01*
X151753658Y-51749503D01*
X151739853Y-51694799D01*
X151731363Y-51638100D01*
X151728471Y-51579692D01*
X151822504Y-51579692D01*
X151827884Y-51651951D01*
X151843492Y-51720895D01*
X151868532Y-51785696D01*
X151902206Y-51845527D01*
X151943717Y-51899558D01*
X151992269Y-51946962D01*
X152047065Y-51986910D01*
X152107307Y-52018574D01*
X152172199Y-52041125D01*
X152240943Y-52053735D01*
X152288520Y-52056210D01*
X152359390Y-52050688D01*
X152426939Y-52034672D01*
X152490369Y-52008991D01*
X152548884Y-51974474D01*
X152601687Y-51931948D01*
X152647981Y-51882243D01*
X152686968Y-51826187D01*
X152717853Y-51764607D01*
X152739837Y-51698333D01*
X152752124Y-51628192D01*
X152754535Y-51579692D01*
X152749155Y-51509451D01*
X152733547Y-51442540D01*
X152708508Y-51379743D01*
X152674834Y-51321839D01*
X152633322Y-51269611D01*
X152584770Y-51223839D01*
X152529975Y-51185305D01*
X152469733Y-51154790D01*
X152404841Y-51133075D01*
X152336096Y-51120942D01*
X152288520Y-51118562D01*
X152217649Y-51123874D01*
X152150101Y-51139287D01*
X152086670Y-51164022D01*
X152028155Y-51197297D01*
X151975352Y-51238331D01*
X151929058Y-51286342D01*
X151890071Y-51340548D01*
X151859187Y-51400170D01*
X151837202Y-51464425D01*
X151824915Y-51532533D01*
X151822504Y-51579692D01*
X151728471Y-51579692D01*
X151731363Y-51522987D01*
X151739853Y-51467912D01*
X151753658Y-51414748D01*
X151772496Y-51363774D01*
X151796085Y-51315270D01*
X151824143Y-51269516D01*
X151856389Y-51226792D01*
X151892541Y-51187377D01*
X151932316Y-51151552D01*
X151975433Y-51119595D01*
X152021609Y-51091787D01*
X152070563Y-51068408D01*
X152122014Y-51049737D01*
X152175678Y-51036055D01*
X152231274Y-51027640D01*
X152288520Y-51024773D01*
X152345806Y-51027640D01*
G37*
D11*
X51197419Y-106773809D02*
X51197419Y-107345237D01*
X51197419Y-107059523D02*
X50197419Y-107059523D01*
X50197419Y-107059523D02*
X50340276Y-107154761D01*
X50340276Y-107154761D02*
X50435514Y-107249999D01*
X50435514Y-107249999D02*
X50483133Y-107345237D01*
X50292657Y-106392856D02*
X50245038Y-106345237D01*
X50245038Y-106345237D02*
X50197419Y-106249999D01*
X50197419Y-106249999D02*
X50197419Y-106011904D01*
X50197419Y-106011904D02*
X50245038Y-105916666D01*
X50245038Y-105916666D02*
X50292657Y-105869047D01*
X50292657Y-105869047D02*
X50387895Y-105821428D01*
X50387895Y-105821428D02*
X50483133Y-105821428D01*
X50483133Y-105821428D02*
X50625990Y-105869047D01*
X50625990Y-105869047D02*
X51197419Y-106440475D01*
X51197419Y-106440475D02*
X51197419Y-105821428D01*
X50625990Y-105249999D02*
X50578371Y-105345237D01*
X50578371Y-105345237D02*
X50530752Y-105392856D01*
X50530752Y-105392856D02*
X50435514Y-105440475D01*
X50435514Y-105440475D02*
X50387895Y-105440475D01*
X50387895Y-105440475D02*
X50292657Y-105392856D01*
X50292657Y-105392856D02*
X50245038Y-105345237D01*
X50245038Y-105345237D02*
X50197419Y-105249999D01*
X50197419Y-105249999D02*
X50197419Y-105059523D01*
X50197419Y-105059523D02*
X50245038Y-104964285D01*
X50245038Y-104964285D02*
X50292657Y-104916666D01*
X50292657Y-104916666D02*
X50387895Y-104869047D01*
X50387895Y-104869047D02*
X50435514Y-104869047D01*
X50435514Y-104869047D02*
X50530752Y-104916666D01*
X50530752Y-104916666D02*
X50578371Y-104964285D01*
X50578371Y-104964285D02*
X50625990Y-105059523D01*
X50625990Y-105059523D02*
X50625990Y-105249999D01*
X50625990Y-105249999D02*
X50673609Y-105345237D01*
X50673609Y-105345237D02*
X50721228Y-105392856D01*
X50721228Y-105392856D02*
X50816466Y-105440475D01*
X50816466Y-105440475D02*
X51006942Y-105440475D01*
X51006942Y-105440475D02*
X51102180Y-105392856D01*
X51102180Y-105392856D02*
X51149800Y-105345237D01*
X51149800Y-105345237D02*
X51197419Y-105249999D01*
X51197419Y-105249999D02*
X51197419Y-105059523D01*
X51197419Y-105059523D02*
X51149800Y-104964285D01*
X51149800Y-104964285D02*
X51102180Y-104916666D01*
X51102180Y-104916666D02*
X51006942Y-104869047D01*
X51006942Y-104869047D02*
X50816466Y-104869047D01*
X50816466Y-104869047D02*
X50721228Y-104916666D01*
X50721228Y-104916666D02*
X50673609Y-104964285D01*
X50673609Y-104964285D02*
X50625990Y-105059523D01*
X51149800Y-104392856D02*
X51197419Y-104392856D01*
X51197419Y-104392856D02*
X51292657Y-104440475D01*
X51292657Y-104440475D02*
X51340276Y-104488094D01*
X50197419Y-103488095D02*
X50197419Y-103964285D01*
X50197419Y-103964285D02*
X50673609Y-104011904D01*
X50673609Y-104011904D02*
X50625990Y-103964285D01*
X50625990Y-103964285D02*
X50578371Y-103869047D01*
X50578371Y-103869047D02*
X50578371Y-103630952D01*
X50578371Y-103630952D02*
X50625990Y-103535714D01*
X50625990Y-103535714D02*
X50673609Y-103488095D01*
X50673609Y-103488095D02*
X50768847Y-103440476D01*
X50768847Y-103440476D02*
X51006942Y-103440476D01*
X51006942Y-103440476D02*
X51102180Y-103488095D01*
X51102180Y-103488095D02*
X51149800Y-103535714D01*
X51149800Y-103535714D02*
X51197419Y-103630952D01*
X51197419Y-103630952D02*
X51197419Y-103869047D01*
X51197419Y-103869047D02*
X51149800Y-103964285D01*
X51149800Y-103964285D02*
X51102180Y-104011904D01*
X50197419Y-102821428D02*
X50197419Y-102726190D01*
X50197419Y-102726190D02*
X50245038Y-102630952D01*
X50245038Y-102630952D02*
X50292657Y-102583333D01*
X50292657Y-102583333D02*
X50387895Y-102535714D01*
X50387895Y-102535714D02*
X50578371Y-102488095D01*
X50578371Y-102488095D02*
X50816466Y-102488095D01*
X50816466Y-102488095D02*
X51006942Y-102535714D01*
X51006942Y-102535714D02*
X51102180Y-102583333D01*
X51102180Y-102583333D02*
X51149800Y-102630952D01*
X51149800Y-102630952D02*
X51197419Y-102726190D01*
X51197419Y-102726190D02*
X51197419Y-102821428D01*
X51197419Y-102821428D02*
X51149800Y-102916666D01*
X51149800Y-102916666D02*
X51102180Y-102964285D01*
X51102180Y-102964285D02*
X51006942Y-103011904D01*
X51006942Y-103011904D02*
X50816466Y-103059523D01*
X50816466Y-103059523D02*
X50578371Y-103059523D01*
X50578371Y-103059523D02*
X50387895Y-103011904D01*
X50387895Y-103011904D02*
X50292657Y-102964285D01*
X50292657Y-102964285D02*
X50245038Y-102916666D01*
X50245038Y-102916666D02*
X50197419Y-102821428D01*
X50197419Y-101869047D02*
X50197419Y-101773809D01*
X50197419Y-101773809D02*
X50245038Y-101678571D01*
X50245038Y-101678571D02*
X50292657Y-101630952D01*
X50292657Y-101630952D02*
X50387895Y-101583333D01*
X50387895Y-101583333D02*
X50578371Y-101535714D01*
X50578371Y-101535714D02*
X50816466Y-101535714D01*
X50816466Y-101535714D02*
X51006942Y-101583333D01*
X51006942Y-101583333D02*
X51102180Y-101630952D01*
X51102180Y-101630952D02*
X51149800Y-101678571D01*
X51149800Y-101678571D02*
X51197419Y-101773809D01*
X51197419Y-101773809D02*
X51197419Y-101869047D01*
X51197419Y-101869047D02*
X51149800Y-101964285D01*
X51149800Y-101964285D02*
X51102180Y-102011904D01*
X51102180Y-102011904D02*
X51006942Y-102059523D01*
X51006942Y-102059523D02*
X50816466Y-102107142D01*
X50816466Y-102107142D02*
X50578371Y-102107142D01*
X50578371Y-102107142D02*
X50387895Y-102059523D01*
X50387895Y-102059523D02*
X50292657Y-102011904D01*
X50292657Y-102011904D02*
X50245038Y-101964285D01*
X50245038Y-101964285D02*
X50197419Y-101869047D01*
X50197419Y-100916666D02*
X50197419Y-100821428D01*
X50197419Y-100821428D02*
X50245038Y-100726190D01*
X50245038Y-100726190D02*
X50292657Y-100678571D01*
X50292657Y-100678571D02*
X50387895Y-100630952D01*
X50387895Y-100630952D02*
X50578371Y-100583333D01*
X50578371Y-100583333D02*
X50816466Y-100583333D01*
X50816466Y-100583333D02*
X51006942Y-100630952D01*
X51006942Y-100630952D02*
X51102180Y-100678571D01*
X51102180Y-100678571D02*
X51149800Y-100726190D01*
X51149800Y-100726190D02*
X51197419Y-100821428D01*
X51197419Y-100821428D02*
X51197419Y-100916666D01*
X51197419Y-100916666D02*
X51149800Y-101011904D01*
X51149800Y-101011904D02*
X51102180Y-101059523D01*
X51102180Y-101059523D02*
X51006942Y-101107142D01*
X51006942Y-101107142D02*
X50816466Y-101154761D01*
X50816466Y-101154761D02*
X50578371Y-101154761D01*
X50578371Y-101154761D02*
X50387895Y-101107142D01*
X50387895Y-101107142D02*
X50292657Y-101059523D01*
X50292657Y-101059523D02*
X50245038Y-101011904D01*
X50245038Y-101011904D02*
X50197419Y-100916666D01*
X51197419Y-99392856D02*
X50530752Y-99392856D01*
X50625990Y-99392856D02*
X50578371Y-99345237D01*
X50578371Y-99345237D02*
X50530752Y-99249999D01*
X50530752Y-99249999D02*
X50530752Y-99107142D01*
X50530752Y-99107142D02*
X50578371Y-99011904D01*
X50578371Y-99011904D02*
X50673609Y-98964285D01*
X50673609Y-98964285D02*
X51197419Y-98964285D01*
X50673609Y-98964285D02*
X50578371Y-98916666D01*
X50578371Y-98916666D02*
X50530752Y-98821428D01*
X50530752Y-98821428D02*
X50530752Y-98678571D01*
X50530752Y-98678571D02*
X50578371Y-98583332D01*
X50578371Y-98583332D02*
X50673609Y-98535713D01*
X50673609Y-98535713D02*
X51197419Y-98535713D01*
X51197419Y-98059523D02*
X50530752Y-98059523D01*
X50625990Y-98059523D02*
X50578371Y-98011904D01*
X50578371Y-98011904D02*
X50530752Y-97916666D01*
X50530752Y-97916666D02*
X50530752Y-97773809D01*
X50530752Y-97773809D02*
X50578371Y-97678571D01*
X50578371Y-97678571D02*
X50673609Y-97630952D01*
X50673609Y-97630952D02*
X51197419Y-97630952D01*
X50673609Y-97630952D02*
X50578371Y-97583333D01*
X50578371Y-97583333D02*
X50530752Y-97488095D01*
X50530752Y-97488095D02*
X50530752Y-97345238D01*
X50530752Y-97345238D02*
X50578371Y-97249999D01*
X50578371Y-97249999D02*
X50673609Y-97202380D01*
X50673609Y-97202380D02*
X51197419Y-97202380D01*
X51340000Y-166500000D02*
X51253580Y-166500000D01*
X51340000Y-38000000D02*
X51253580Y-38000000D01*
X51840000Y-166500000D02*
X51840000Y-38000000D01*
X51840000Y-166500000D02*
X51840000Y-38000000D01*
X51840000Y-166500000D02*
X51253579Y-165373496D01*
X51840000Y-166500000D02*
X52426421Y-165373496D01*
X51840000Y-38000000D02*
X52426421Y-39126504D01*
X51840000Y-38000000D02*
X51253579Y-39126504D01*
X83304762Y-164857419D02*
X82828572Y-164857419D01*
X82828572Y-164857419D02*
X82780953Y-165333609D01*
X82780953Y-165333609D02*
X82828572Y-165285990D01*
X82828572Y-165285990D02*
X82923810Y-165238371D01*
X82923810Y-165238371D02*
X83161905Y-165238371D01*
X83161905Y-165238371D02*
X83257143Y-165285990D01*
X83257143Y-165285990D02*
X83304762Y-165333609D01*
X83304762Y-165333609D02*
X83352381Y-165428847D01*
X83352381Y-165428847D02*
X83352381Y-165666942D01*
X83352381Y-165666942D02*
X83304762Y-165762180D01*
X83304762Y-165762180D02*
X83257143Y-165809800D01*
X83257143Y-165809800D02*
X83161905Y-165857419D01*
X83161905Y-165857419D02*
X82923810Y-165857419D01*
X82923810Y-165857419D02*
X82828572Y-165809800D01*
X82828572Y-165809800D02*
X82780953Y-165762180D01*
X83971429Y-164857419D02*
X84066667Y-164857419D01*
X84066667Y-164857419D02*
X84161905Y-164905038D01*
X84161905Y-164905038D02*
X84209524Y-164952657D01*
X84209524Y-164952657D02*
X84257143Y-165047895D01*
X84257143Y-165047895D02*
X84304762Y-165238371D01*
X84304762Y-165238371D02*
X84304762Y-165476466D01*
X84304762Y-165476466D02*
X84257143Y-165666942D01*
X84257143Y-165666942D02*
X84209524Y-165762180D01*
X84209524Y-165762180D02*
X84161905Y-165809800D01*
X84161905Y-165809800D02*
X84066667Y-165857419D01*
X84066667Y-165857419D02*
X83971429Y-165857419D01*
X83971429Y-165857419D02*
X83876191Y-165809800D01*
X83876191Y-165809800D02*
X83828572Y-165762180D01*
X83828572Y-165762180D02*
X83780953Y-165666942D01*
X83780953Y-165666942D02*
X83733334Y-165476466D01*
X83733334Y-165476466D02*
X83733334Y-165238371D01*
X83733334Y-165238371D02*
X83780953Y-165047895D01*
X83780953Y-165047895D02*
X83828572Y-164952657D01*
X83828572Y-164952657D02*
X83876191Y-164905038D01*
X83876191Y-164905038D02*
X83971429Y-164857419D01*
X84780953Y-165809800D02*
X84780953Y-165857419D01*
X84780953Y-165857419D02*
X84733334Y-165952657D01*
X84733334Y-165952657D02*
X84685715Y-166000276D01*
X85352381Y-165285990D02*
X85257143Y-165238371D01*
X85257143Y-165238371D02*
X85209524Y-165190752D01*
X85209524Y-165190752D02*
X85161905Y-165095514D01*
X85161905Y-165095514D02*
X85161905Y-165047895D01*
X85161905Y-165047895D02*
X85209524Y-164952657D01*
X85209524Y-164952657D02*
X85257143Y-164905038D01*
X85257143Y-164905038D02*
X85352381Y-164857419D01*
X85352381Y-164857419D02*
X85542857Y-164857419D01*
X85542857Y-164857419D02*
X85638095Y-164905038D01*
X85638095Y-164905038D02*
X85685714Y-164952657D01*
X85685714Y-164952657D02*
X85733333Y-165047895D01*
X85733333Y-165047895D02*
X85733333Y-165095514D01*
X85733333Y-165095514D02*
X85685714Y-165190752D01*
X85685714Y-165190752D02*
X85638095Y-165238371D01*
X85638095Y-165238371D02*
X85542857Y-165285990D01*
X85542857Y-165285990D02*
X85352381Y-165285990D01*
X85352381Y-165285990D02*
X85257143Y-165333609D01*
X85257143Y-165333609D02*
X85209524Y-165381228D01*
X85209524Y-165381228D02*
X85161905Y-165476466D01*
X85161905Y-165476466D02*
X85161905Y-165666942D01*
X85161905Y-165666942D02*
X85209524Y-165762180D01*
X85209524Y-165762180D02*
X85257143Y-165809800D01*
X85257143Y-165809800D02*
X85352381Y-165857419D01*
X85352381Y-165857419D02*
X85542857Y-165857419D01*
X85542857Y-165857419D02*
X85638095Y-165809800D01*
X85638095Y-165809800D02*
X85685714Y-165762180D01*
X85685714Y-165762180D02*
X85733333Y-165666942D01*
X85733333Y-165666942D02*
X85733333Y-165476466D01*
X85733333Y-165476466D02*
X85685714Y-165381228D01*
X85685714Y-165381228D02*
X85638095Y-165333609D01*
X85638095Y-165333609D02*
X85542857Y-165285990D01*
X86352381Y-164857419D02*
X86447619Y-164857419D01*
X86447619Y-164857419D02*
X86542857Y-164905038D01*
X86542857Y-164905038D02*
X86590476Y-164952657D01*
X86590476Y-164952657D02*
X86638095Y-165047895D01*
X86638095Y-165047895D02*
X86685714Y-165238371D01*
X86685714Y-165238371D02*
X86685714Y-165476466D01*
X86685714Y-165476466D02*
X86638095Y-165666942D01*
X86638095Y-165666942D02*
X86590476Y-165762180D01*
X86590476Y-165762180D02*
X86542857Y-165809800D01*
X86542857Y-165809800D02*
X86447619Y-165857419D01*
X86447619Y-165857419D02*
X86352381Y-165857419D01*
X86352381Y-165857419D02*
X86257143Y-165809800D01*
X86257143Y-165809800D02*
X86209524Y-165762180D01*
X86209524Y-165762180D02*
X86161905Y-165666942D01*
X86161905Y-165666942D02*
X86114286Y-165476466D01*
X86114286Y-165476466D02*
X86114286Y-165238371D01*
X86114286Y-165238371D02*
X86161905Y-165047895D01*
X86161905Y-165047895D02*
X86209524Y-164952657D01*
X86209524Y-164952657D02*
X86257143Y-164905038D01*
X86257143Y-164905038D02*
X86352381Y-164857419D01*
X87304762Y-164857419D02*
X87400000Y-164857419D01*
X87400000Y-164857419D02*
X87495238Y-164905038D01*
X87495238Y-164905038D02*
X87542857Y-164952657D01*
X87542857Y-164952657D02*
X87590476Y-165047895D01*
X87590476Y-165047895D02*
X87638095Y-165238371D01*
X87638095Y-165238371D02*
X87638095Y-165476466D01*
X87638095Y-165476466D02*
X87590476Y-165666942D01*
X87590476Y-165666942D02*
X87542857Y-165762180D01*
X87542857Y-165762180D02*
X87495238Y-165809800D01*
X87495238Y-165809800D02*
X87400000Y-165857419D01*
X87400000Y-165857419D02*
X87304762Y-165857419D01*
X87304762Y-165857419D02*
X87209524Y-165809800D01*
X87209524Y-165809800D02*
X87161905Y-165762180D01*
X87161905Y-165762180D02*
X87114286Y-165666942D01*
X87114286Y-165666942D02*
X87066667Y-165476466D01*
X87066667Y-165476466D02*
X87066667Y-165238371D01*
X87066667Y-165238371D02*
X87114286Y-165047895D01*
X87114286Y-165047895D02*
X87161905Y-164952657D01*
X87161905Y-164952657D02*
X87209524Y-164905038D01*
X87209524Y-164905038D02*
X87304762Y-164857419D01*
X88257143Y-164857419D02*
X88352381Y-164857419D01*
X88352381Y-164857419D02*
X88447619Y-164905038D01*
X88447619Y-164905038D02*
X88495238Y-164952657D01*
X88495238Y-164952657D02*
X88542857Y-165047895D01*
X88542857Y-165047895D02*
X88590476Y-165238371D01*
X88590476Y-165238371D02*
X88590476Y-165476466D01*
X88590476Y-165476466D02*
X88542857Y-165666942D01*
X88542857Y-165666942D02*
X88495238Y-165762180D01*
X88495238Y-165762180D02*
X88447619Y-165809800D01*
X88447619Y-165809800D02*
X88352381Y-165857419D01*
X88352381Y-165857419D02*
X88257143Y-165857419D01*
X88257143Y-165857419D02*
X88161905Y-165809800D01*
X88161905Y-165809800D02*
X88114286Y-165762180D01*
X88114286Y-165762180D02*
X88066667Y-165666942D01*
X88066667Y-165666942D02*
X88019048Y-165476466D01*
X88019048Y-165476466D02*
X88019048Y-165238371D01*
X88019048Y-165238371D02*
X88066667Y-165047895D01*
X88066667Y-165047895D02*
X88114286Y-164952657D01*
X88114286Y-164952657D02*
X88161905Y-164905038D01*
X88161905Y-164905038D02*
X88257143Y-164857419D01*
X89780953Y-165857419D02*
X89780953Y-165190752D01*
X89780953Y-165285990D02*
X89828572Y-165238371D01*
X89828572Y-165238371D02*
X89923810Y-165190752D01*
X89923810Y-165190752D02*
X90066667Y-165190752D01*
X90066667Y-165190752D02*
X90161905Y-165238371D01*
X90161905Y-165238371D02*
X90209524Y-165333609D01*
X90209524Y-165333609D02*
X90209524Y-165857419D01*
X90209524Y-165333609D02*
X90257143Y-165238371D01*
X90257143Y-165238371D02*
X90352381Y-165190752D01*
X90352381Y-165190752D02*
X90495238Y-165190752D01*
X90495238Y-165190752D02*
X90590477Y-165238371D01*
X90590477Y-165238371D02*
X90638096Y-165333609D01*
X90638096Y-165333609D02*
X90638096Y-165857419D01*
X91114286Y-165857419D02*
X91114286Y-165190752D01*
X91114286Y-165285990D02*
X91161905Y-165238371D01*
X91161905Y-165238371D02*
X91257143Y-165190752D01*
X91257143Y-165190752D02*
X91400000Y-165190752D01*
X91400000Y-165190752D02*
X91495238Y-165238371D01*
X91495238Y-165238371D02*
X91542857Y-165333609D01*
X91542857Y-165333609D02*
X91542857Y-165857419D01*
X91542857Y-165333609D02*
X91590476Y-165238371D01*
X91590476Y-165238371D02*
X91685714Y-165190752D01*
X91685714Y-165190752D02*
X91828571Y-165190752D01*
X91828571Y-165190752D02*
X91923810Y-165238371D01*
X91923810Y-165238371D02*
X91971429Y-165333609D01*
X91971429Y-165333609D02*
X91971429Y-165857419D01*
X62000000Y-166000000D02*
X62000000Y-165913580D01*
X112800000Y-166000000D02*
X112800000Y-165913580D01*
X62000000Y-166500000D02*
X112800000Y-166500000D01*
X62000000Y-166500000D02*
X112800000Y-166500000D01*
X62000000Y-166500000D02*
X63126504Y-165913579D01*
X62000000Y-166500000D02*
X63126504Y-167086421D01*
X112800000Y-166500000D02*
X111673496Y-167086421D01*
X112800000Y-166500000D02*
X111673496Y-165913579D01*
M02*
