%TF.GenerationSoftware,KiCad,Pcbnew,8.0.0*%
%TF.CreationDate,2024-05-14T21:41:44+02:00*%
%TF.ProjectId,VCO-3340,56434f2d-3333-4343-902e-6b696361645f,rev?*%
%TF.SameCoordinates,Original*%
%TF.FileFunction,Paste,Top*%
%TF.FilePolarity,Positive*%
%FSLAX46Y46*%
G04 Gerber Fmt 4.6, Leading zero omitted, Abs format (unit mm)*
G04 Created by KiCad (PCBNEW 8.0.0) date 2024-05-14 21:41:44*
%MOMM*%
%LPD*%
G01*
G04 APERTURE LIST*
G04 Aperture macros list*
%AMRoundRect*
0 Rectangle with rounded corners*
0 $1 Rounding radius*
0 $2 $3 $4 $5 $6 $7 $8 $9 X,Y pos of 4 corners*
0 Add a 4 corners polygon primitive as box body*
4,1,4,$2,$3,$4,$5,$6,$7,$8,$9,$2,$3,0*
0 Add four circle primitives for the rounded corners*
1,1,$1+$1,$2,$3*
1,1,$1+$1,$4,$5*
1,1,$1+$1,$6,$7*
1,1,$1+$1,$8,$9*
0 Add four rect primitives between the rounded corners*
20,1,$1+$1,$2,$3,$4,$5,0*
20,1,$1+$1,$4,$5,$6,$7,0*
20,1,$1+$1,$6,$7,$8,$9,0*
20,1,$1+$1,$8,$9,$2,$3,0*%
%AMOutline4P*
0 Free polygon, 4 corners , with rotation*
0 The origin of the aperture is its center*
0 number of corners: always 4*
0 $1 to $8 corner X, Y*
0 $9 Rotation angle, in degrees counterclockwise*
0 create outline with 4 corners*
4,1,4,$1,$2,$3,$4,$5,$6,$7,$8,$1,$2,$9*%
G04 Aperture macros list end*
%ADD10RoundRect,0.250000X-0.475000X0.337500X-0.475000X-0.337500X0.475000X-0.337500X0.475000X0.337500X0*%
%ADD11RoundRect,0.250000X-0.337500X-0.475000X0.337500X-0.475000X0.337500X0.475000X-0.337500X0.475000X0*%
%ADD12RoundRect,0.250000X-0.450000X0.350000X-0.450000X-0.350000X0.450000X-0.350000X0.450000X0.350000X0*%
%ADD13RoundRect,0.250000X0.475000X-0.337500X0.475000X0.337500X-0.475000X0.337500X-0.475000X-0.337500X0*%
%ADD14RoundRect,0.125000X0.125000X0.125000X-0.125000X0.125000X-0.125000X-0.125000X0.125000X-0.125000X0*%
%ADD15RoundRect,0.250000X0.350000X0.450000X-0.350000X0.450000X-0.350000X-0.450000X0.350000X-0.450000X0*%
%ADD16RoundRect,0.250000X0.450000X-0.350000X0.450000X0.350000X-0.450000X0.350000X-0.450000X-0.350000X0*%
%ADD17R,1.000000X1.500000*%
%ADD18R,1.000000X1.800000*%
%ADD19Outline4P,-1.100000X-0.500000X1.100000X-0.500000X0.400000X0.500000X-0.400000X0.500000X0.000000*%
%ADD20R,2.200000X1.840000*%
%ADD21Outline4P,-1.100000X-0.425000X1.100000X-0.425000X0.500000X0.425000X-0.500000X0.425000X180.000000*%
%ADD22RoundRect,0.125000X-0.125000X-0.125000X0.125000X-0.125000X0.125000X0.125000X-0.125000X0.125000X0*%
%ADD23RoundRect,0.150000X0.725000X0.150000X-0.725000X0.150000X-0.725000X-0.150000X0.725000X-0.150000X0*%
G04 APERTURE END LIST*
D10*
%TO.C,C10*%
X30440600Y-55680700D03*
X30440600Y-57755700D03*
%TD*%
D11*
%TO.C,C8*%
X27572600Y-93218200D03*
X29647600Y-93218200D03*
%TD*%
D12*
%TO.C,R25*%
X40940600Y-35718200D03*
X40940600Y-37718200D03*
%TD*%
D13*
%TO.C,C11*%
X32940600Y-61793200D03*
X32940600Y-59718200D03*
%TD*%
D14*
%TO.C,D2*%
X45395600Y-36218200D03*
X43195600Y-36218200D03*
%TD*%
D11*
%TO.C,C13*%
X39365600Y-66718200D03*
X41440600Y-66718200D03*
%TD*%
D15*
%TO.C,R23*%
X27440600Y-62718200D03*
X25440600Y-62718200D03*
%TD*%
D16*
%TO.C,R22*%
X30440600Y-61718200D03*
X30440600Y-59718200D03*
%TD*%
D12*
%TO.C,R19*%
X44440600Y-65218200D03*
X44440600Y-67218200D03*
%TD*%
D16*
%TO.C,R24*%
X40940600Y-55218200D03*
X40940600Y-53218200D03*
%TD*%
D13*
%TO.C,C9*%
X55403100Y-112755700D03*
X55403100Y-110680700D03*
%TD*%
D12*
%TO.C,R7*%
X64940600Y-60718200D03*
X64940600Y-62718200D03*
%TD*%
D16*
%TO.C,R5*%
X64940600Y-56218200D03*
X64940600Y-54218200D03*
%TD*%
%TO.C,R15*%
X29440600Y-89718200D03*
X29440600Y-87718200D03*
%TD*%
D17*
%TO.C,U3*%
X40653600Y-69358200D03*
D18*
X39153600Y-69504700D03*
D19*
X39153600Y-70762000D03*
D20*
X39153600Y-72171700D03*
D21*
X39153600Y-73505200D03*
D17*
X37653600Y-69358200D03*
%TD*%
D22*
%TO.C,D1*%
X42740600Y-54218200D03*
X44940600Y-54218200D03*
%TD*%
D23*
%TO.C,U2*%
X27515600Y-60493200D03*
X27515600Y-59223200D03*
X27515600Y-57953200D03*
X27515600Y-56683200D03*
X22365600Y-56683200D03*
X22365600Y-57953200D03*
X22365600Y-59223200D03*
X22365600Y-60493200D03*
%TD*%
M02*
