M48
; DRILL file {KiCad 8.0.0} date 2024-05-14T21:42:16+0200
; FORMAT={-:-/ absolute / metric / decimal}
; #@! TF.CreationDate,2024-05-14T21:42:16+02:00
; #@! TF.GenerationSoftware,Kicad,Pcbnew,8.0.0
; #@! TF.FileFunction,Plated,1,2,PTH
FMAT,2
METRIC
; #@! TA.AperFunction,Plated,PTH,ViaDrill
T1C0.400
; #@! TA.AperFunction,Plated,PTH,ComponentDrill
T2C0.600
; #@! TA.AperFunction,Plated,PTH,ComponentDrill
T3C0.800
; #@! TA.AperFunction,Plated,PTH,ComponentDrill
T4C0.889
; #@! TA.AperFunction,Plated,PTH,ComponentDrill
T5C1.000
; #@! TA.AperFunction,Plated,PTH,ComponentDrill
T6C1.100
; #@! TA.AperFunction,Plated,PTH,ComponentDrill
T7C1.143
%
G90
G05
T1
X22.041Y-52.318
X22.941Y-63.618
X25.341Y-51.818
X26.541Y-37.018
X27.841Y-85.018
X28.241Y-107.418
X29.941Y-119.618
X30.841Y-71.618
X33.241Y-56.118
X33.541Y-70.618
X33.544Y-73.758
X33.605Y-105.616
X33.741Y-52.818
X34.341Y-109.218
X35.041Y-49.318
X35.541Y-69.518
X35.641Y-63.718
X35.741Y-111.343
X35.941Y-58.318
X35.941Y-73.518
X36.025Y-106.315
X36.348Y-101.818
X36.448Y-97.118
X37.741Y-77.418
X39.441Y-63.818
X39.648Y-91.618
X39.841Y-60.518
X39.941Y-84.918
X40.47Y-104.944
X40.748Y-106.518
X40.948Y-101.818
X42.041Y-120.018
X42.407Y-93.81
X42.794Y-79.264
X43.532Y-93.419
X44.141Y-60.418
X44.241Y-63.418
X45.744Y-109.914
X46.151Y-105.293
X46.541Y-81.718
X46.741Y-56.418
X47.141Y-77.918
X47.241Y-52.918
X47.241Y-65.018
X47.341Y-85.618
X47.941Y-105.518
X48.041Y-47.318
X48.041Y-101.818
X48.241Y-59.518
X48.441Y-36.618
X48.741Y-109.018
X48.961Y-99.421
X49.141Y-111.418
X50.089Y-67.821
X50.541Y-54.618
X50.741Y-72.518
X51.341Y-76.818
X51.441Y-95.318
X51.741Y-122.118
X52.346Y-63.625
X52.441Y-87.518
X52.641Y-82.918
X52.941Y-60.318
X53.341Y-104.118
X53.973Y-67.511
X54.294Y-102.977
X54.327Y-78.37
X57.341Y-54.918
X57.341Y-57.118
X57.441Y-87.418
X57.841Y-62.718
X57.841Y-106.518
X57.941Y-120.018
X58.241Y-79.318
X58.241Y-97.018
X59.041Y-100.518
X59.541Y-92.018
X60.518Y-56.787
X61.941Y-61.718
X62.641Y-44.918
X62.641Y-81.218
X62.941Y-59.118
X63.541Y-52.018
X64.141Y-70.618
X64.641Y-100.618
X64.741Y-81.518
X67.141Y-100.818
X67.341Y-82.018
X67.941Y-55.618
X68.041Y-59.318
T2
X22.913Y-54.718
X24.913Y-54.718
X35.468Y-36.718
X36.741Y-53.191
X36.741Y-55.191
X37.468Y-36.718
X54.941Y-51.746
X54.941Y-53.746
T3
X61.901Y-64.878
X61.901Y-70.678
X61.901Y-76.678
X64.441Y-67.418
X64.441Y-73.218
X64.441Y-79.218
X66.981Y-64.878
X66.981Y-70.678
X66.981Y-76.678
T4
X27.441Y-141.984
X27.648Y-113.984
X27.648Y-127.984
X39.648Y-127.984
X39.648Y-141.984
X51.648Y-106.678
X51.648Y-109.218
X51.648Y-111.758
X51.648Y-127.984
X51.648Y-141.984
X63.648Y-106.678
X63.648Y-109.218
X63.648Y-111.758
X63.648Y-127.984
X63.648Y-141.984
T5
X23.148Y-70.718
X23.148Y-73.218
X23.148Y-75.718
X23.941Y-41.718
X23.941Y-44.218
X23.941Y-46.718
X32.148Y-90.718
X32.148Y-93.218
X32.148Y-95.718
X42.701Y-40.218
X42.701Y-42.758
X42.701Y-45.298
X42.701Y-47.838
X42.701Y-50.378
X44.148Y-72.718
X44.148Y-75.218
X44.148Y-77.718
X45.241Y-40.218
X45.241Y-42.758
X45.241Y-45.298
X45.241Y-47.838
X45.241Y-50.378
X51.941Y-41.718
X51.941Y-44.218
X51.941Y-46.718
X56.148Y-90.718
X56.148Y-93.218
X56.148Y-95.718
T7
X27.441Y-131.011
X27.441Y-139.571
X27.648Y-103.011
X27.648Y-111.571
X27.648Y-117.011
X27.648Y-125.571
X39.648Y-117.011
X39.648Y-125.571
X39.648Y-131.011
X39.648Y-139.571
X51.648Y-117.011
X51.648Y-125.571
X51.648Y-131.011
X51.648Y-139.571
X63.648Y-117.011
X63.648Y-125.571
X63.648Y-131.011
X63.648Y-139.571
T6
G00X30.298Y-68.418
M15
G01X30.998Y-68.418
M16
G05
G00X30.298Y-78.018
M15
G01X30.998Y-78.018
M16
G05
G00X31.091Y-39.418
M15
G01X31.791Y-39.418
M16
G05
G00X31.091Y-49.018
M15
G01X31.791Y-49.018
M16
G05
G00X39.298Y-88.418
M15
G01X39.998Y-88.418
M16
G05
G00X39.298Y-98.018
M15
G01X39.998Y-98.018
M16
G05
G00X51.298Y-70.418
M15
G01X51.998Y-70.418
M16
G05
G00X51.298Y-80.018
M15
G01X51.998Y-80.018
M16
G05
G00X59.091Y-39.418
M15
G01X59.791Y-39.418
M16
G05
G00X59.091Y-49.018
M15
G01X59.791Y-49.018
M16
G05
G00X63.298Y-88.418
M15
G01X63.998Y-88.418
M16
G05
G00X63.298Y-98.018
M15
G01X63.998Y-98.018
M16
G05
M30
