M48
; DRILL file {KiCad 8.0.0} date 2024-06-17T17:20:29+0200
; FORMAT={-:-/ absolute / metric / decimal}
; #@! TF.CreationDate,2024-06-17T17:20:29+02:00
; #@! TF.GenerationSoftware,Kicad,Pcbnew,8.0.0
; #@! TF.FileFunction,Plated,1,2,PTH
FMAT,2
METRIC
; #@! TA.AperFunction,Plated,PTH,ViaDrill
T1C0.300
; #@! TA.AperFunction,Plated,PTH,ComponentDrill
T2C0.600
; #@! TA.AperFunction,Plated,PTH,ComponentDrill
T3C0.700
; #@! TA.AperFunction,Plated,PTH,ComponentDrill
T4C0.889
; #@! TA.AperFunction,Plated,PTH,ComponentDrill
T5C0.900
; #@! TA.AperFunction,Plated,PTH,ComponentDrill
T6C1.000
; #@! TA.AperFunction,Plated,PTH,ComponentDrill
T7C1.100
; #@! TA.AperFunction,Plated,PTH,ComponentDrill
T8C1.143
%
G90
G05
T1
X48.996Y-98.638
X49.196Y-126.838
X52.796Y-116.538
X53.196Y-126.438
X53.496Y-80.938
X53.496Y-105.138
X55.996Y-144.438
X56.596Y-92.738
X56.596Y-98.238
X56.596Y-117.838
X56.696Y-102.638
X56.696Y-108.138
X56.696Y-138.638
X56.796Y-135.138
X57.696Y-75.638
X59.096Y-92.538
X60.296Y-97.338
X60.696Y-89.738
X60.896Y-93.35
X60.996Y-74.938
X61.096Y-105.138
X61.296Y-108.038
X62.296Y-94.038
X62.396Y-125.038
X62.95Y-92.464
X63.496Y-103.238
X63.696Y-71.738
X63.696Y-99.038
X63.796Y-110.838
X63.996Y-120.138
X64.496Y-97.338
X64.896Y-125.038
T2
X58.023Y-79.411
X58.023Y-81.411
X58.423Y-105.665
X58.423Y-107.665
T3
X52.786Y-77.938
X52.791Y-108.743
X54.686Y-77.938
X54.691Y-108.743
T4
X62.674Y-114.538
X62.674Y-129.338
X62.674Y-144.138
T5
X52.521Y-121.938
X52.521Y-136.738
X55.061Y-121.938
X55.061Y-136.738
X58.721Y-121.938
X58.721Y-136.738
X61.261Y-121.938
X61.261Y-136.738
T6
X51.256Y-88.678
X51.256Y-91.218
X51.256Y-93.758
X51.256Y-96.298
X51.256Y-98.838
X53.796Y-88.678
X53.796Y-91.218
X53.796Y-93.758
X53.796Y-96.298
X53.796Y-98.838
X54.396Y-72.738
X56.896Y-72.738
X59.396Y-72.738
T7
X49.764Y-105.97
X49.764Y-108.51
X49.964Y-78.27
X49.964Y-80.81
T8
X51.702Y-114.538
X51.702Y-129.338
X51.702Y-144.138
X60.261Y-114.538
X60.261Y-129.338
X60.261Y-144.138
T7
G00X52.096Y-65.588
M15
G01X52.096Y-64.888
M16
G05
G00X61.696Y-65.588
M15
G01X61.696Y-64.888
M16
G05
M30
