%TF.GenerationSoftware,KiCad,Pcbnew,8.0.0*%
%TF.CreationDate,2024-06-17T17:20:25+02:00*%
%TF.ProjectId,Sloth,536c6f74-682e-46b6-9963-61645f706362,rev?*%
%TF.SameCoordinates,Original*%
%TF.FileFunction,Copper,L2,Bot*%
%TF.FilePolarity,Positive*%
%FSLAX46Y46*%
G04 Gerber Fmt 4.6, Leading zero omitted, Abs format (unit mm)*
G04 Created by KiCad (PCBNEW 8.0.0) date 2024-06-17 17:20:25*
%MOMM*%
%LPD*%
G01*
G04 APERTURE LIST*
G04 Aperture macros list*
%AMRoundRect*
0 Rectangle with rounded corners*
0 $1 Rounding radius*
0 $2 $3 $4 $5 $6 $7 $8 $9 X,Y pos of 4 corners*
0 Add a 4 corners polygon primitive as box body*
4,1,4,$2,$3,$4,$5,$6,$7,$8,$9,$2,$3,0*
0 Add four circle primitives for the rounded corners*
1,1,$1+$1,$2,$3*
1,1,$1+$1,$4,$5*
1,1,$1+$1,$6,$7*
1,1,$1+$1,$8,$9*
0 Add four rect primitives between the rounded corners*
20,1,$1+$1,$2,$3,$4,$5,0*
20,1,$1+$1,$4,$5,$6,$7,0*
20,1,$1+$1,$6,$7,$8,$9,0*
20,1,$1+$1,$8,$9,$2,$3,0*%
G04 Aperture macros list end*
%TA.AperFunction,ComponentPad*%
%ADD10C,1.930400*%
%TD*%
%TA.AperFunction,ComponentPad*%
%ADD11R,1.800000X1.800000*%
%TD*%
%TA.AperFunction,ComponentPad*%
%ADD12C,1.800000*%
%TD*%
%TA.AperFunction,ComponentPad*%
%ADD13O,2.720000X3.240000*%
%TD*%
%TA.AperFunction,SMDPad,CuDef*%
%ADD14RoundRect,0.250000X-0.450000X0.350000X-0.450000X-0.350000X0.450000X-0.350000X0.450000X0.350000X0*%
%TD*%
%TA.AperFunction,SMDPad,CuDef*%
%ADD15RoundRect,0.250000X0.350000X0.450000X-0.350000X0.450000X-0.350000X-0.450000X0.350000X-0.450000X0*%
%TD*%
%TA.AperFunction,ComponentPad*%
%ADD16R,2.200000X2.200000*%
%TD*%
%TA.AperFunction,ComponentPad*%
%ADD17O,2.200000X2.200000*%
%TD*%
%TA.AperFunction,SMDPad,CuDef*%
%ADD18RoundRect,0.250000X-0.350000X-0.450000X0.350000X-0.450000X0.350000X0.450000X-0.350000X0.450000X0*%
%TD*%
%TA.AperFunction,ComponentPad*%
%ADD19C,1.400000*%
%TD*%
%TA.AperFunction,ComponentPad*%
%ADD20O,1.400000X1.400000*%
%TD*%
%TA.AperFunction,SMDPad,CuDef*%
%ADD21RoundRect,0.250000X0.450000X-0.350000X0.450000X0.350000X-0.450000X0.350000X-0.450000X-0.350000X0*%
%TD*%
%TA.AperFunction,ComponentPad*%
%ADD22R,1.700000X1.700000*%
%TD*%
%TA.AperFunction,ComponentPad*%
%ADD23O,1.700000X1.700000*%
%TD*%
%TA.AperFunction,ComponentPad*%
%ADD24R,1.200000X1.200000*%
%TD*%
%TA.AperFunction,ComponentPad*%
%ADD25C,1.200000*%
%TD*%
%TA.AperFunction,ViaPad*%
%ADD26C,0.600000*%
%TD*%
%TA.AperFunction,Conductor*%
%ADD27C,0.200000*%
%TD*%
G04 APERTURE END LIST*
D10*
%TO.P,J2,S*%
%TO.N,GND*%
X62674500Y-129338000D03*
%TO.P,J2,T*%
%TO.N,Net-(J2-PadT)*%
X51701700Y-129338000D03*
%TO.P,J2,TN*%
%TO.N,unconnected-(J2-PadTN)*%
X60261500Y-129338000D03*
%TD*%
D11*
%TO.P,D1,1,K*%
%TO.N,GND*%
X58721000Y-121938000D03*
D12*
%TO.P,D1,2,A*%
%TO.N,Net-(D1-A)*%
X61261000Y-121938000D03*
%TD*%
D10*
%TO.P,J1,S*%
%TO.N,GND*%
X62674500Y-144138000D03*
%TO.P,J1,T*%
%TO.N,Net-(J1-PadT)*%
X51701700Y-144138000D03*
%TO.P,J1,TN*%
%TO.N,unconnected-(J1-PadTN)*%
X60261500Y-144138000D03*
%TD*%
D11*
%TO.P,D3,1,K*%
%TO.N,Net-(D3-K)*%
X58721000Y-136738000D03*
D12*
%TO.P,D3,2,A*%
%TO.N,GND*%
X61261000Y-136738000D03*
%TD*%
D13*
%TO.P,RV1,*%
%TO.N,*%
X52096000Y-65238000D03*
X61696000Y-65238000D03*
D11*
%TO.P,RV1,1,1*%
%TO.N,Net-(C4-Pad2)*%
X54396000Y-72738000D03*
D12*
%TO.P,RV1,2,2*%
X56896000Y-72738000D03*
%TO.P,RV1,3,3*%
%TO.N,Net-(R6-Pad2)*%
X59396000Y-72738000D03*
%TD*%
D11*
%TO.P,D2,1,K*%
%TO.N,Net-(D1-A)*%
X52521000Y-121938000D03*
D12*
%TO.P,D2,2,A*%
%TO.N,GND*%
X55061000Y-121938000D03*
%TD*%
D10*
%TO.P,J3,S*%
%TO.N,GND*%
X62674500Y-114538000D03*
%TO.P,J3,T*%
%TO.N,Net-(J3-PadT)*%
X51701700Y-114538000D03*
%TO.P,J3,TN*%
%TO.N,unconnected-(J3-PadTN)*%
X60261500Y-114538000D03*
%TD*%
D11*
%TO.P,D4,1,K*%
%TO.N,GND*%
X52521000Y-136738000D03*
D12*
%TO.P,D4,2,A*%
%TO.N,Net-(D3-K)*%
X55061000Y-136738000D03*
%TD*%
D14*
%TO.P,R12,1*%
%TO.N,Net-(U1C--)*%
X62396000Y-98238000D03*
%TO.P,R12,2*%
%TO.N,Net-(R12-Pad2)*%
X62396000Y-100238000D03*
%TD*%
D15*
%TO.P,R7,1*%
%TO.N,Net-(R12-Pad2)*%
X58596000Y-100338000D03*
%TO.P,R7,2*%
%TO.N,Net-(R7-Pad2)*%
X56596000Y-100338000D03*
%TD*%
D16*
%TO.P,D5,1,K*%
%TO.N,Net-(D5-K)*%
X49764234Y-108509766D03*
D17*
%TO.P,D5,2,A*%
%TO.N,Net-(D5-A)*%
X49764234Y-105969766D03*
%TD*%
D18*
%TO.P,R13,1*%
%TO.N,Net-(C1-Pad2)*%
X56996000Y-141238000D03*
%TO.P,R13,2*%
%TO.N,Net-(D3-K)*%
X58996000Y-141238000D03*
%TD*%
D19*
%TO.P,R16,1*%
%TO.N,Net-(D6-A)*%
X52786000Y-77938000D03*
D20*
%TO.P,R16,2*%
%TO.N,-12V*%
X54686000Y-77938000D03*
%TD*%
D21*
%TO.P,R1,1*%
%TO.N,Net-(U1C--)*%
X64496000Y-100238000D03*
%TO.P,R1,2*%
%TO.N,Net-(U1A--)*%
X64496000Y-98238000D03*
%TD*%
%TO.P,R14,1*%
%TO.N,Net-(C2-Pad2)*%
X59596000Y-127138000D03*
%TO.P,R14,2*%
%TO.N,Net-(D1-A)*%
X59596000Y-125138000D03*
%TD*%
D19*
%TO.P,R15,1*%
%TO.N,+12V*%
X52791000Y-108743000D03*
D20*
%TO.P,R15,2*%
%TO.N,Net-(D5-K)*%
X54691000Y-108743000D03*
%TD*%
D22*
%TO.P,J4,1,+12V*%
%TO.N,Net-(D5-A)*%
X51256000Y-98838000D03*
D23*
%TO.P,J4,2,+12V*%
X53796000Y-98838000D03*
%TO.P,J4,3,GND*%
%TO.N,GND*%
X51256000Y-96298000D03*
%TO.P,J4,4,GND*%
X53796000Y-96298000D03*
%TO.P,J4,5,GND*%
X51256000Y-93758000D03*
%TO.P,J4,6,GND*%
X53796000Y-93758000D03*
%TO.P,J4,7,GND*%
X51256000Y-91218000D03*
%TO.P,J4,8,GND*%
X53796000Y-91218000D03*
%TO.P,J4,9,-12V*%
%TO.N,Net-(D6-K)*%
X51256000Y-88678000D03*
%TO.P,J4,10,-12V*%
X53796000Y-88678000D03*
%TD*%
D16*
%TO.P,D6,1,K*%
%TO.N,Net-(D6-K)*%
X49964234Y-80809766D03*
D17*
%TO.P,D6,2,A*%
%TO.N,Net-(D6-A)*%
X49964234Y-78269766D03*
%TD*%
D24*
%TO.P,C9,1*%
%TO.N,+12V*%
X58423400Y-105665398D03*
D25*
%TO.P,C9,2*%
%TO.N,GND*%
X58423400Y-107665398D03*
%TD*%
D14*
%TO.P,R8,1*%
%TO.N,Net-(C1-Pad2)*%
X54096000Y-141138000D03*
%TO.P,R8,2*%
%TO.N,Net-(J1-PadT)*%
X54096000Y-143138000D03*
%TD*%
D18*
%TO.P,R5,1*%
%TO.N,Net-(J2-PadT)*%
X53896000Y-129338000D03*
%TO.P,R5,2*%
%TO.N,Net-(C2-Pad2)*%
X55896000Y-129338000D03*
%TD*%
D24*
%TO.P,C10,1*%
%TO.N,GND*%
X58023400Y-81410598D03*
D25*
%TO.P,C10,2*%
%TO.N,-12V*%
X58023400Y-79410598D03*
%TD*%
D18*
%TO.P,R9,1*%
%TO.N,Net-(C1-Pad2)*%
X56596000Y-94038000D03*
%TO.P,R9,2*%
%TO.N,Net-(U1B--)*%
X58596000Y-94038000D03*
%TD*%
D21*
%TO.P,R11,1*%
%TO.N,Net-(J1-PadT)*%
X51496000Y-141938000D03*
%TO.P,R11,2*%
%TO.N,GND*%
X51496000Y-139938000D03*
%TD*%
D26*
%TO.N,Net-(C1-Pad2)*%
X56596000Y-92738000D03*
%TO.N,Net-(C2-Pad2)*%
X62396000Y-125038000D03*
%TO.N,Net-(U1C--)*%
X62950201Y-92464259D03*
%TO.N,GND*%
X63696000Y-71738000D03*
X64896000Y-125038000D03*
X56696000Y-108138000D03*
X63996000Y-120138000D03*
X56696000Y-138638000D03*
X61096000Y-105138000D03*
X52796000Y-116538000D03*
X60896000Y-93350500D03*
X59096000Y-92538000D03*
X49196000Y-126838000D03*
X57696000Y-75638000D03*
X63496000Y-103238000D03*
X56596000Y-117838000D03*
X56796000Y-135138000D03*
X63796000Y-110838000D03*
X48996000Y-98638000D03*
X61296000Y-108038000D03*
X55996000Y-144438000D03*
X53496000Y-105138000D03*
X60996000Y-74938000D03*
X53196000Y-126438000D03*
X56696000Y-102638000D03*
X53496000Y-80938000D03*
%TO.N,+12V*%
X60296000Y-97338000D03*
%TO.N,-12V*%
X60696000Y-89738000D03*
%TO.N,Net-(U1A--)*%
X63696000Y-99038000D03*
X64496000Y-97338004D03*
%TO.N,Net-(U1B--)*%
X62296000Y-94038011D03*
%TO.N,Net-(R7-Pad2)*%
X56596000Y-98238000D03*
%TD*%
D27*
%TO.N,Net-(C1-Pad2)*%
X56596000Y-94038000D02*
X55696000Y-94938000D01*
X54196000Y-141138000D02*
X54296000Y-141238000D01*
X55696000Y-115838000D02*
X50436500Y-121097500D01*
X54096000Y-141138000D02*
X54196000Y-141138000D01*
X54296000Y-141238000D02*
X56996000Y-141238000D01*
X50436500Y-137078500D02*
X54096000Y-140738000D01*
X55696000Y-94938000D02*
X55696000Y-115838000D01*
X50436500Y-121097500D02*
X50436500Y-137078500D01*
X56596000Y-94038000D02*
X56596000Y-92738000D01*
X54096000Y-140738000D02*
X54096000Y-141138000D01*
%TO.N,Net-(C2-Pad2)*%
X60296000Y-127138000D02*
X62396000Y-125038000D01*
X57396000Y-129338000D02*
X59596000Y-127138000D01*
X55896000Y-129338000D02*
X57396000Y-129338000D01*
X59596000Y-127138000D02*
X60296000Y-127138000D01*
%TO.N,Net-(U1C--)*%
X63396000Y-99738000D02*
X63396000Y-99653256D01*
X62396000Y-98653256D02*
X62396000Y-98238000D01*
X64496000Y-100238000D02*
X63896000Y-100238000D01*
X62896000Y-92638000D02*
X62896000Y-92518460D01*
X63396000Y-99653256D02*
X62396000Y-98653256D01*
X62396000Y-98238000D02*
X62950201Y-97683799D01*
X63896000Y-100238000D02*
X63396000Y-99738000D01*
X62896000Y-92518460D02*
X62950201Y-92464259D01*
X62950201Y-97683799D02*
X62950201Y-92464259D01*
%TO.N,+12V*%
X60296000Y-97338000D02*
X60011256Y-97338000D01*
X60011256Y-97338000D02*
X57696000Y-99653256D01*
X57696000Y-99653256D02*
X57696000Y-104937998D01*
X57696000Y-104937998D02*
X58423400Y-105665398D01*
%TO.N,-12V*%
X60696000Y-89738000D02*
X60696000Y-82083198D01*
X60696000Y-82083198D02*
X58023400Y-79410598D01*
%TO.N,Net-(D1-A)*%
X59596000Y-125138000D02*
X55721000Y-125138000D01*
X59596000Y-125138000D02*
X59596000Y-123603000D01*
X59596000Y-123603000D02*
X61261000Y-121938000D01*
X55721000Y-125138000D02*
X52521000Y-121938000D01*
%TO.N,Net-(D3-K)*%
X58996000Y-137013000D02*
X58721000Y-136738000D01*
X58996000Y-141238000D02*
X58996000Y-137013000D01*
%TO.N,Net-(D6-K)*%
X51256000Y-88678000D02*
X49964234Y-87386234D01*
X49964234Y-87386234D02*
X49964234Y-80809766D01*
%TO.N,Net-(J1-PadT)*%
X51701700Y-144138000D02*
X51701700Y-142143700D01*
X51701700Y-144138000D02*
X53096000Y-144138000D01*
X53096000Y-144138000D02*
X54096000Y-143138000D01*
X51701700Y-142143700D02*
X51496000Y-141938000D01*
%TO.N,Net-(J2-PadT)*%
X53896000Y-129338000D02*
X51701700Y-129338000D01*
%TO.N,Net-(U1A--)*%
X64496000Y-98238000D02*
X64496000Y-97338004D01*
X63696000Y-99038000D02*
X63596000Y-99138000D01*
X64496000Y-98238000D02*
X63696000Y-99038000D01*
%TO.N,Net-(U1B--)*%
X58596000Y-94038000D02*
X62295989Y-94038000D01*
X62295989Y-94038000D02*
X62296000Y-94038011D01*
%TO.N,Net-(R12-Pad2)*%
X62296000Y-100338000D02*
X62396000Y-100238000D01*
X58596000Y-100338000D02*
X62296000Y-100338000D01*
%TO.N,Net-(R7-Pad2)*%
X56596000Y-100338000D02*
X56596000Y-98238000D01*
%TD*%
%TA.AperFunction,Conductor*%
%TO.N,GND*%
G36*
X51242203Y-123171885D02*
G01*
X51260263Y-123191284D01*
X51263454Y-123195546D01*
X51263455Y-123195546D01*
X51263456Y-123195548D01*
X51378664Y-123281793D01*
X51378671Y-123281797D01*
X51513517Y-123332091D01*
X51513516Y-123332091D01*
X51520444Y-123332835D01*
X51573127Y-123338500D01*
X53020902Y-123338499D01*
X53087941Y-123358184D01*
X53108583Y-123374818D01*
X55236139Y-125502374D01*
X55236149Y-125502385D01*
X55240479Y-125506715D01*
X55240480Y-125506716D01*
X55352284Y-125618520D01*
X55352286Y-125618521D01*
X55352290Y-125618524D01*
X55390869Y-125640797D01*
X55489216Y-125697577D01*
X55601019Y-125727534D01*
X55641942Y-125738500D01*
X55641943Y-125738500D01*
X58350092Y-125738500D01*
X58417131Y-125758185D01*
X58455636Y-125802271D01*
X58457395Y-125801187D01*
X58461185Y-125807332D01*
X58461186Y-125807334D01*
X58553288Y-125956656D01*
X58553289Y-125956657D01*
X58646951Y-126050319D01*
X58680436Y-126111642D01*
X58675452Y-126181334D01*
X58646951Y-126225681D01*
X58553289Y-126319342D01*
X58461187Y-126468663D01*
X58461186Y-126468666D01*
X58406001Y-126635203D01*
X58406001Y-126635204D01*
X58406000Y-126635204D01*
X58395500Y-126737983D01*
X58395500Y-127437902D01*
X58375815Y-127504941D01*
X58359181Y-127525583D01*
X57183584Y-128701181D01*
X57122261Y-128734666D01*
X57095903Y-128737500D01*
X57076301Y-128737500D01*
X57009262Y-128717815D01*
X56963507Y-128665011D01*
X56958595Y-128652504D01*
X56930814Y-128568666D01*
X56838712Y-128419344D01*
X56714656Y-128295288D01*
X56565334Y-128203186D01*
X56398797Y-128148001D01*
X56398795Y-128148000D01*
X56296010Y-128137500D01*
X55495998Y-128137500D01*
X55495980Y-128137501D01*
X55393203Y-128148000D01*
X55393200Y-128148001D01*
X55226668Y-128203185D01*
X55226663Y-128203187D01*
X55077342Y-128295289D01*
X54983681Y-128388951D01*
X54922358Y-128422436D01*
X54852666Y-128417452D01*
X54808319Y-128388951D01*
X54714657Y-128295289D01*
X54714656Y-128295288D01*
X54565334Y-128203186D01*
X54398797Y-128148001D01*
X54398795Y-128148000D01*
X54296010Y-128137500D01*
X53495998Y-128137500D01*
X53495980Y-128137501D01*
X53393203Y-128148000D01*
X53393200Y-128148001D01*
X53226668Y-128203185D01*
X53226663Y-128203187D01*
X53077345Y-128295287D01*
X52989955Y-128382677D01*
X52928631Y-128416161D01*
X52858940Y-128411177D01*
X52811047Y-128378980D01*
X52697794Y-128255954D01*
X52697789Y-128255950D01*
X52697787Y-128255948D01*
X52506117Y-128106765D01*
X52506111Y-128106761D01*
X52292484Y-127991151D01*
X52292479Y-127991149D01*
X52062743Y-127912281D01*
X51903014Y-127885627D01*
X51823151Y-127872300D01*
X51580249Y-127872300D01*
X51520351Y-127882295D01*
X51340656Y-127912281D01*
X51201263Y-127960135D01*
X51131464Y-127963285D01*
X51071043Y-127928199D01*
X51039182Y-127866016D01*
X51037000Y-127842854D01*
X51037000Y-123265598D01*
X51056685Y-123198559D01*
X51109489Y-123152804D01*
X51178647Y-123142860D01*
X51242203Y-123171885D01*
G37*
%TD.AperFunction*%
%TA.AperFunction,Conductor*%
G36*
X53330075Y-96105007D02*
G01*
X53296000Y-96232174D01*
X53296000Y-96363826D01*
X53330075Y-96490993D01*
X53362988Y-96548000D01*
X51689012Y-96548000D01*
X51721925Y-96490993D01*
X51756000Y-96363826D01*
X51756000Y-96232174D01*
X51721925Y-96105007D01*
X51689012Y-96048000D01*
X53362988Y-96048000D01*
X53330075Y-96105007D01*
G37*
%TD.AperFunction*%
%TA.AperFunction,Conductor*%
G36*
X51506000Y-95864988D02*
G01*
X51448993Y-95832075D01*
X51321826Y-95798000D01*
X51190174Y-95798000D01*
X51063007Y-95832075D01*
X51006000Y-95864988D01*
X51006000Y-94191012D01*
X51063007Y-94223925D01*
X51190174Y-94258000D01*
X51321826Y-94258000D01*
X51448993Y-94223925D01*
X51506000Y-94191012D01*
X51506000Y-95864988D01*
G37*
%TD.AperFunction*%
%TA.AperFunction,Conductor*%
G36*
X54046000Y-95864988D02*
G01*
X53988993Y-95832075D01*
X53861826Y-95798000D01*
X53730174Y-95798000D01*
X53603007Y-95832075D01*
X53546000Y-95864988D01*
X53546000Y-94191012D01*
X53603007Y-94223925D01*
X53730174Y-94258000D01*
X53861826Y-94258000D01*
X53988993Y-94223925D01*
X54046000Y-94191012D01*
X54046000Y-95864988D01*
G37*
%TD.AperFunction*%
%TA.AperFunction,Conductor*%
G36*
X53330075Y-93565007D02*
G01*
X53296000Y-93692174D01*
X53296000Y-93823826D01*
X53330075Y-93950993D01*
X53362988Y-94008000D01*
X51689012Y-94008000D01*
X51721925Y-93950993D01*
X51756000Y-93823826D01*
X51756000Y-93692174D01*
X51721925Y-93565007D01*
X51689012Y-93508000D01*
X53362988Y-93508000D01*
X53330075Y-93565007D01*
G37*
%TD.AperFunction*%
%TA.AperFunction,Conductor*%
G36*
X51506000Y-93324988D02*
G01*
X51448993Y-93292075D01*
X51321826Y-93258000D01*
X51190174Y-93258000D01*
X51063007Y-93292075D01*
X51006000Y-93324988D01*
X51006000Y-91651012D01*
X51063007Y-91683925D01*
X51190174Y-91718000D01*
X51321826Y-91718000D01*
X51448993Y-91683925D01*
X51506000Y-91651012D01*
X51506000Y-93324988D01*
G37*
%TD.AperFunction*%
%TA.AperFunction,Conductor*%
G36*
X54046000Y-93324988D02*
G01*
X53988993Y-93292075D01*
X53861826Y-93258000D01*
X53730174Y-93258000D01*
X53603007Y-93292075D01*
X53546000Y-93324988D01*
X53546000Y-91651012D01*
X53603007Y-91683925D01*
X53730174Y-91718000D01*
X53861826Y-91718000D01*
X53988993Y-91683925D01*
X54046000Y-91651012D01*
X54046000Y-93324988D01*
G37*
%TD.AperFunction*%
%TA.AperFunction,Conductor*%
G36*
X53330075Y-91025007D02*
G01*
X53296000Y-91152174D01*
X53296000Y-91283826D01*
X53330075Y-91410993D01*
X53362988Y-91468000D01*
X51689012Y-91468000D01*
X51721925Y-91410993D01*
X51756000Y-91283826D01*
X51756000Y-91152174D01*
X51721925Y-91025007D01*
X51689012Y-90968000D01*
X53362988Y-90968000D01*
X53330075Y-91025007D01*
G37*
%TD.AperFunction*%
%TA.AperFunction,Conductor*%
G36*
X65938539Y-40758185D02*
G01*
X65984294Y-40810989D01*
X65995500Y-40862500D01*
X65995500Y-149613500D01*
X65975815Y-149680539D01*
X65923011Y-149726294D01*
X65871500Y-149737500D01*
X48020500Y-149737500D01*
X47953461Y-149717815D01*
X47907706Y-149665011D01*
X47896500Y-149613500D01*
X47896500Y-114538005D01*
X50230977Y-114538005D01*
X50251035Y-114780069D01*
X50310665Y-115015543D01*
X50408237Y-115237986D01*
X50541090Y-115441334D01*
X50541093Y-115441337D01*
X50705606Y-115620046D01*
X50705609Y-115620048D01*
X50705612Y-115620051D01*
X50897282Y-115769234D01*
X50897288Y-115769238D01*
X50897291Y-115769240D01*
X51072573Y-115864098D01*
X51110072Y-115884392D01*
X51110917Y-115884849D01*
X51340659Y-115963719D01*
X51580249Y-116003700D01*
X51580250Y-116003700D01*
X51823150Y-116003700D01*
X51823151Y-116003700D01*
X52062741Y-115963719D01*
X52292483Y-115884849D01*
X52506109Y-115769240D01*
X52506644Y-115768824D01*
X52570476Y-115719140D01*
X52697794Y-115620046D01*
X52862307Y-115441337D01*
X52995162Y-115237987D01*
X53092735Y-115015543D01*
X53152364Y-114780073D01*
X53172423Y-114538000D01*
X53152364Y-114295927D01*
X53092735Y-114060457D01*
X52995162Y-113838013D01*
X52863746Y-113636865D01*
X52862309Y-113634665D01*
X52843601Y-113614343D01*
X52697794Y-113455954D01*
X52697789Y-113455950D01*
X52697787Y-113455948D01*
X52506117Y-113306765D01*
X52506111Y-113306761D01*
X52292484Y-113191151D01*
X52292479Y-113191149D01*
X52062743Y-113112281D01*
X51903014Y-113085627D01*
X51823151Y-113072300D01*
X51580249Y-113072300D01*
X51520351Y-113082295D01*
X51340656Y-113112281D01*
X51110920Y-113191149D01*
X51110915Y-113191151D01*
X50897288Y-113306761D01*
X50897282Y-113306765D01*
X50705612Y-113455948D01*
X50705609Y-113455951D01*
X50541090Y-113634665D01*
X50408237Y-113838013D01*
X50310665Y-114060456D01*
X50251035Y-114295930D01*
X50230977Y-114537994D01*
X50230977Y-114538005D01*
X47896500Y-114538005D01*
X47896500Y-105969766D01*
X48158785Y-105969766D01*
X48178551Y-106220917D01*
X48237360Y-106465876D01*
X48333767Y-106698625D01*
X48414754Y-106830782D01*
X48432999Y-106898228D01*
X48411883Y-106964830D01*
X48383339Y-106994838D01*
X48306686Y-107052221D01*
X48220440Y-107167430D01*
X48220436Y-107167437D01*
X48170142Y-107302283D01*
X48163735Y-107361882D01*
X48163735Y-107361889D01*
X48163734Y-107361901D01*
X48163734Y-109657636D01*
X48163735Y-109657642D01*
X48170142Y-109717249D01*
X48220436Y-109852094D01*
X48220440Y-109852101D01*
X48306686Y-109967310D01*
X48306689Y-109967313D01*
X48421898Y-110053559D01*
X48421905Y-110053563D01*
X48556751Y-110103857D01*
X48556750Y-110103857D01*
X48563678Y-110104601D01*
X48616361Y-110110266D01*
X50912106Y-110110265D01*
X50971717Y-110103857D01*
X51106565Y-110053562D01*
X51221780Y-109967312D01*
X51308030Y-109852097D01*
X51358325Y-109717249D01*
X51364734Y-109657639D01*
X51364733Y-109005899D01*
X51384417Y-108938863D01*
X51437221Y-108893108D01*
X51506380Y-108883164D01*
X51569936Y-108912189D01*
X51607710Y-108970967D01*
X51607999Y-108971967D01*
X51666770Y-109178525D01*
X51666775Y-109178538D01*
X51765938Y-109377683D01*
X51765943Y-109377691D01*
X51900020Y-109555238D01*
X52064437Y-109705123D01*
X52064439Y-109705125D01*
X52253595Y-109822245D01*
X52253596Y-109822245D01*
X52253599Y-109822247D01*
X52461060Y-109902618D01*
X52679757Y-109943500D01*
X52679759Y-109943500D01*
X52902241Y-109943500D01*
X52902243Y-109943500D01*
X53120940Y-109902618D01*
X53328401Y-109822247D01*
X53517562Y-109705124D01*
X53657462Y-109577587D01*
X53720266Y-109546971D01*
X53789653Y-109555168D01*
X53824537Y-109577587D01*
X53912348Y-109657638D01*
X53964437Y-109705123D01*
X53964439Y-109705125D01*
X54153595Y-109822245D01*
X54153596Y-109822245D01*
X54153599Y-109822247D01*
X54361060Y-109902618D01*
X54579757Y-109943500D01*
X54579759Y-109943500D01*
X54802242Y-109943500D01*
X54802243Y-109943500D01*
X54948715Y-109916119D01*
X55018229Y-109923149D01*
X55072908Y-109966646D01*
X55095391Y-110032800D01*
X55095500Y-110038007D01*
X55095500Y-115537902D01*
X55075815Y-115604941D01*
X55059181Y-115625583D01*
X49955981Y-120728782D01*
X49955980Y-120728784D01*
X49917224Y-120795913D01*
X49905861Y-120815594D01*
X49905859Y-120815596D01*
X49876925Y-120865709D01*
X49876924Y-120865710D01*
X49861044Y-120924972D01*
X49835999Y-121018443D01*
X49835999Y-121018445D01*
X49835999Y-121186546D01*
X49836000Y-121186559D01*
X49836000Y-136991830D01*
X49835999Y-136991848D01*
X49835999Y-137157554D01*
X49835998Y-137157554D01*
X49876923Y-137310285D01*
X49905858Y-137360400D01*
X49905859Y-137360404D01*
X49905860Y-137360404D01*
X49955979Y-137447214D01*
X49955981Y-137447217D01*
X50074849Y-137566085D01*
X50074855Y-137566090D01*
X51135084Y-138626319D01*
X51168569Y-138687642D01*
X51163585Y-138757334D01*
X51121713Y-138813267D01*
X51056249Y-138837684D01*
X51047405Y-138838000D01*
X50996029Y-138838000D01*
X50996012Y-138838001D01*
X50893302Y-138848494D01*
X50726880Y-138903641D01*
X50726875Y-138903643D01*
X50577654Y-138995684D01*
X50453684Y-139119654D01*
X50361643Y-139268875D01*
X50361641Y-139268880D01*
X50306494Y-139435302D01*
X50306493Y-139435309D01*
X50296000Y-139538013D01*
X50296000Y-139688000D01*
X51622000Y-139688000D01*
X51689039Y-139707685D01*
X51734794Y-139760489D01*
X51746000Y-139812000D01*
X51746000Y-140064000D01*
X51726315Y-140131039D01*
X51673511Y-140176794D01*
X51622000Y-140188000D01*
X50296001Y-140188000D01*
X50296001Y-140337986D01*
X50306494Y-140440697D01*
X50361641Y-140607119D01*
X50361643Y-140607124D01*
X50453684Y-140756345D01*
X50547304Y-140849965D01*
X50580789Y-140911288D01*
X50575805Y-140980980D01*
X50547305Y-141025327D01*
X50453287Y-141119345D01*
X50361187Y-141268663D01*
X50361186Y-141268666D01*
X50306001Y-141435203D01*
X50306001Y-141435204D01*
X50306000Y-141435204D01*
X50295500Y-141537983D01*
X50295500Y-142338001D01*
X50295501Y-142338019D01*
X50306000Y-142440796D01*
X50306001Y-142440799D01*
X50361185Y-142607331D01*
X50361186Y-142607334D01*
X50453288Y-142756656D01*
X50577344Y-142880712D01*
X50619576Y-142906761D01*
X50634100Y-142915719D01*
X50680825Y-142967667D01*
X50692048Y-143036629D01*
X50664205Y-143100711D01*
X50660234Y-143105241D01*
X50541090Y-143234665D01*
X50408237Y-143438013D01*
X50310665Y-143660456D01*
X50251035Y-143895930D01*
X50230977Y-144137994D01*
X50230977Y-144138005D01*
X50251035Y-144380069D01*
X50310665Y-144615543D01*
X50408237Y-144837986D01*
X50541090Y-145041334D01*
X50541093Y-145041337D01*
X50705606Y-145220046D01*
X50705609Y-145220048D01*
X50705612Y-145220051D01*
X50897282Y-145369234D01*
X50897288Y-145369238D01*
X50897291Y-145369240D01*
X51072573Y-145464098D01*
X51110072Y-145484392D01*
X51110917Y-145484849D01*
X51340659Y-145563719D01*
X51580249Y-145603700D01*
X51580250Y-145603700D01*
X51823150Y-145603700D01*
X51823151Y-145603700D01*
X52062741Y-145563719D01*
X52292483Y-145484849D01*
X52506109Y-145369240D01*
X52506644Y-145368824D01*
X52570476Y-145319140D01*
X52697794Y-145220046D01*
X52862307Y-145041337D01*
X52995162Y-144837987D01*
X53006258Y-144812691D01*
X53051214Y-144759205D01*
X53117950Y-144738515D01*
X53119814Y-144738501D01*
X53175054Y-144738501D01*
X53175057Y-144738501D01*
X53327785Y-144697577D01*
X53377904Y-144668639D01*
X53464716Y-144618520D01*
X53576520Y-144506716D01*
X53576520Y-144506714D01*
X53586728Y-144496507D01*
X53586730Y-144496504D01*
X53808416Y-144274818D01*
X53869739Y-144241333D01*
X53896097Y-144238499D01*
X54596002Y-144238499D01*
X54596008Y-144238499D01*
X54698797Y-144227999D01*
X54865334Y-144172814D01*
X54921769Y-144138005D01*
X58790777Y-144138005D01*
X58810835Y-144380069D01*
X58870465Y-144615543D01*
X58968037Y-144837986D01*
X59100890Y-145041334D01*
X59100893Y-145041337D01*
X59265406Y-145220046D01*
X59265409Y-145220048D01*
X59265412Y-145220051D01*
X59457082Y-145369234D01*
X59457088Y-145369238D01*
X59457091Y-145369240D01*
X59632373Y-145464098D01*
X59669872Y-145484392D01*
X59670717Y-145484849D01*
X59900459Y-145563719D01*
X60140049Y-145603700D01*
X60140050Y-145603700D01*
X60382950Y-145603700D01*
X60382951Y-145603700D01*
X60622541Y-145563719D01*
X60852283Y-145484849D01*
X61065909Y-145369240D01*
X61066444Y-145368824D01*
X61130276Y-145319140D01*
X61257594Y-145220046D01*
X61422107Y-145041337D01*
X61423547Y-145039132D01*
X61439677Y-145019269D01*
X62236852Y-144222094D01*
X62260292Y-144309571D01*
X62318811Y-144410930D01*
X62401570Y-144493689D01*
X62502929Y-144552208D01*
X62590405Y-144575647D01*
X61829240Y-145336811D01*
X61870367Y-145368822D01*
X61870370Y-145368824D01*
X62083912Y-145484386D01*
X62083926Y-145484392D01*
X62313579Y-145563233D01*
X62553090Y-145603200D01*
X62795910Y-145603200D01*
X63035420Y-145563233D01*
X63265073Y-145484392D01*
X63265087Y-145484386D01*
X63478631Y-145368823D01*
X63478637Y-145368818D01*
X63519758Y-145336812D01*
X63519759Y-145336811D01*
X62758594Y-144575647D01*
X62846071Y-144552208D01*
X62947430Y-144493689D01*
X63030189Y-144410930D01*
X63088708Y-144309571D01*
X63112147Y-144222094D01*
X63872792Y-144982740D01*
X63967521Y-144837749D01*
X64065061Y-144615378D01*
X64124669Y-144379994D01*
X64124671Y-144379982D01*
X64144722Y-144138005D01*
X64144722Y-144137994D01*
X64124671Y-143896017D01*
X64124669Y-143896005D01*
X64065061Y-143660621D01*
X63967523Y-143438255D01*
X63872792Y-143293258D01*
X63112147Y-144053904D01*
X63088708Y-143966429D01*
X63030189Y-143865070D01*
X62947430Y-143782311D01*
X62846071Y-143723792D01*
X62758594Y-143700352D01*
X63519758Y-142939187D01*
X63519758Y-142939185D01*
X63478643Y-142907184D01*
X63478632Y-142907177D01*
X63265087Y-142791613D01*
X63265073Y-142791607D01*
X63035420Y-142712766D01*
X62795910Y-142672800D01*
X62553090Y-142672800D01*
X62313579Y-142712766D01*
X62083926Y-142791607D01*
X62083912Y-142791613D01*
X61870368Y-142907177D01*
X61870365Y-142907179D01*
X61829239Y-142939187D01*
X62590405Y-143700352D01*
X62502929Y-143723792D01*
X62401570Y-143782311D01*
X62318811Y-143865070D01*
X62260292Y-143966429D01*
X62236852Y-144053904D01*
X61439673Y-143256725D01*
X61423548Y-143236869D01*
X61422107Y-143234663D01*
X61257594Y-143055954D01*
X61257589Y-143055950D01*
X61257587Y-143055948D01*
X61065917Y-142906765D01*
X61065911Y-142906761D01*
X60852284Y-142791151D01*
X60852279Y-142791149D01*
X60622543Y-142712281D01*
X60462814Y-142685627D01*
X60382951Y-142672300D01*
X60140049Y-142672300D01*
X60080151Y-142682295D01*
X59900456Y-142712281D01*
X59670720Y-142791149D01*
X59670715Y-142791151D01*
X59457088Y-142906761D01*
X59457082Y-142906765D01*
X59265412Y-143055948D01*
X59265409Y-143055951D01*
X59100890Y-143234665D01*
X58968037Y-143438013D01*
X58870465Y-143660456D01*
X58810835Y-143895930D01*
X58790777Y-144137994D01*
X58790777Y-144138005D01*
X54921769Y-144138005D01*
X55014656Y-144080712D01*
X55138712Y-143956656D01*
X55230814Y-143807334D01*
X55285999Y-143640797D01*
X55296500Y-143538009D01*
X55296499Y-142737992D01*
X55289788Y-142672300D01*
X55285999Y-142635203D01*
X55285998Y-142635200D01*
X55276763Y-142607331D01*
X55230814Y-142468666D01*
X55138712Y-142319344D01*
X55045049Y-142225681D01*
X55011564Y-142164358D01*
X55016548Y-142094666D01*
X55045049Y-142050319D01*
X55088037Y-142007331D01*
X55138712Y-141956656D01*
X55175259Y-141897402D01*
X55227207Y-141850679D01*
X55280798Y-141838500D01*
X55815699Y-141838500D01*
X55882738Y-141858185D01*
X55928493Y-141910989D01*
X55933403Y-141923492D01*
X55961186Y-142007334D01*
X56053288Y-142156656D01*
X56177344Y-142280712D01*
X56326666Y-142372814D01*
X56493203Y-142427999D01*
X56595991Y-142438500D01*
X57396008Y-142438499D01*
X57396016Y-142438498D01*
X57396019Y-142438498D01*
X57452302Y-142432748D01*
X57498797Y-142427999D01*
X57665334Y-142372814D01*
X57814656Y-142280712D01*
X57908319Y-142187049D01*
X57969642Y-142153564D01*
X58039334Y-142158548D01*
X58083681Y-142187049D01*
X58177344Y-142280712D01*
X58326666Y-142372814D01*
X58493203Y-142427999D01*
X58595991Y-142438500D01*
X59396008Y-142438499D01*
X59396016Y-142438498D01*
X59396019Y-142438498D01*
X59452302Y-142432748D01*
X59498797Y-142427999D01*
X59665334Y-142372814D01*
X59814656Y-142280712D01*
X59938712Y-142156656D01*
X60030814Y-142007334D01*
X60085999Y-141840797D01*
X60096500Y-141738009D01*
X60096499Y-140737992D01*
X60085999Y-140635203D01*
X60030814Y-140468666D01*
X59938712Y-140319344D01*
X59814656Y-140195288D01*
X59665334Y-140103186D01*
X59665332Y-140103185D01*
X59659187Y-140099395D01*
X59660290Y-140097605D01*
X59615649Y-140058290D01*
X59596500Y-139992091D01*
X59596500Y-138257663D01*
X59616185Y-138190624D01*
X59668989Y-138144869D01*
X59707248Y-138134373D01*
X59728483Y-138132091D01*
X59863331Y-138081796D01*
X59978546Y-137995546D01*
X60064796Y-137880331D01*
X60115091Y-137745483D01*
X60121500Y-137685873D01*
X60121499Y-137575304D01*
X60141183Y-137508268D01*
X60157818Y-137487626D01*
X60818861Y-136826584D01*
X60841667Y-136911694D01*
X60900910Y-137014306D01*
X60984694Y-137098090D01*
X61087306Y-137157333D01*
X61172414Y-137180138D01*
X60462201Y-137890351D01*
X60492649Y-137914050D01*
X60696697Y-138024476D01*
X60696706Y-138024479D01*
X60916139Y-138099811D01*
X61144993Y-138138000D01*
X61377007Y-138138000D01*
X61605860Y-138099811D01*
X61825293Y-138024479D01*
X61825301Y-138024476D01*
X62029355Y-137914047D01*
X62059797Y-137890351D01*
X62059798Y-137890350D01*
X61349585Y-137180137D01*
X61434694Y-137157333D01*
X61537306Y-137098090D01*
X61621090Y-137014306D01*
X61680333Y-136911694D01*
X61703138Y-136826585D01*
X62412186Y-137535633D01*
X62496482Y-137406611D01*
X62589682Y-137194135D01*
X62646638Y-136969218D01*
X62665798Y-136738005D01*
X62665798Y-136737994D01*
X62646638Y-136506781D01*
X62589682Y-136281864D01*
X62496484Y-136069393D01*
X62412186Y-135940365D01*
X61703137Y-136649414D01*
X61680333Y-136564306D01*
X61621090Y-136461694D01*
X61537306Y-136377910D01*
X61434694Y-136318667D01*
X61349584Y-136295861D01*
X62059797Y-135585647D01*
X62059797Y-135585645D01*
X62029360Y-135561955D01*
X62029354Y-135561951D01*
X61825302Y-135451523D01*
X61825293Y-135451520D01*
X61605860Y-135376188D01*
X61377007Y-135338000D01*
X61144993Y-135338000D01*
X60916139Y-135376188D01*
X60696706Y-135451520D01*
X60696697Y-135451523D01*
X60492650Y-135561949D01*
X60462200Y-135585647D01*
X61172415Y-136295861D01*
X61087306Y-136318667D01*
X60984694Y-136377910D01*
X60900910Y-136461694D01*
X60841667Y-136564306D01*
X60818861Y-136649415D01*
X60157818Y-135988372D01*
X60124333Y-135927049D01*
X60121499Y-135900691D01*
X60121499Y-135790129D01*
X60121498Y-135790123D01*
X60121497Y-135790116D01*
X60115091Y-135730517D01*
X60106667Y-135707932D01*
X60064797Y-135595671D01*
X60064793Y-135595664D01*
X59978547Y-135480455D01*
X59978544Y-135480452D01*
X59863335Y-135394206D01*
X59863328Y-135394202D01*
X59728482Y-135343908D01*
X59728483Y-135343908D01*
X59668883Y-135337501D01*
X59668881Y-135337500D01*
X59668873Y-135337500D01*
X59668864Y-135337500D01*
X57773129Y-135337500D01*
X57773123Y-135337501D01*
X57713516Y-135343908D01*
X57578671Y-135394202D01*
X57578664Y-135394206D01*
X57463455Y-135480452D01*
X57463452Y-135480455D01*
X57377206Y-135595664D01*
X57377202Y-135595671D01*
X57326908Y-135730517D01*
X57324861Y-135749561D01*
X57320501Y-135790123D01*
X57320500Y-135790135D01*
X57320500Y-137685870D01*
X57320501Y-137685876D01*
X57326908Y-137745483D01*
X57377202Y-137880328D01*
X57377206Y-137880335D01*
X57463452Y-137995544D01*
X57463455Y-137995547D01*
X57578664Y-138081793D01*
X57578671Y-138081797D01*
X57623618Y-138098561D01*
X57713517Y-138132091D01*
X57773127Y-138138500D01*
X58271500Y-138138499D01*
X58338539Y-138158183D01*
X58384294Y-138210987D01*
X58395500Y-138262499D01*
X58395500Y-139992091D01*
X58375815Y-140059130D01*
X58331731Y-140097641D01*
X58332813Y-140099395D01*
X58326667Y-140103185D01*
X58326666Y-140103186D01*
X58281509Y-140131039D01*
X58177342Y-140195289D01*
X58083681Y-140288951D01*
X58022358Y-140322436D01*
X57952666Y-140317452D01*
X57908319Y-140288951D01*
X57814657Y-140195289D01*
X57814656Y-140195288D01*
X57665334Y-140103186D01*
X57498797Y-140048001D01*
X57498795Y-140048000D01*
X57396010Y-140037500D01*
X56595998Y-140037500D01*
X56595980Y-140037501D01*
X56493203Y-140048000D01*
X56493200Y-140048001D01*
X56326668Y-140103185D01*
X56326663Y-140103187D01*
X56177342Y-140195289D01*
X56053289Y-140319342D01*
X55961187Y-140468663D01*
X55961185Y-140468668D01*
X55933405Y-140552504D01*
X55893632Y-140609949D01*
X55829116Y-140636772D01*
X55815699Y-140637500D01*
X55376301Y-140637500D01*
X55309262Y-140617815D01*
X55263507Y-140565011D01*
X55258595Y-140552504D01*
X55250828Y-140529065D01*
X55230814Y-140468666D01*
X55138712Y-140319344D01*
X55014656Y-140195288D01*
X54865334Y-140103186D01*
X54698797Y-140048001D01*
X54698795Y-140048000D01*
X54596016Y-140037500D01*
X54596009Y-140037500D01*
X54296098Y-140037500D01*
X54229059Y-140017815D01*
X54208417Y-140001181D01*
X52556917Y-138349681D01*
X52523432Y-138288358D01*
X52528416Y-138218666D01*
X52570288Y-138162733D01*
X52635752Y-138138316D01*
X52644598Y-138138000D01*
X53468828Y-138138000D01*
X53468844Y-138137999D01*
X53528372Y-138131598D01*
X53528379Y-138131596D01*
X53663086Y-138081354D01*
X53663093Y-138081350D01*
X53778187Y-137995190D01*
X53778190Y-137995187D01*
X53864350Y-137880093D01*
X53864355Y-137880084D01*
X53893075Y-137803081D01*
X53934945Y-137747147D01*
X54000409Y-137722729D01*
X54068682Y-137737580D01*
X54100484Y-137762428D01*
X54109216Y-137771913D01*
X54109219Y-137771915D01*
X54109222Y-137771918D01*
X54292365Y-137914464D01*
X54292371Y-137914468D01*
X54292374Y-137914470D01*
X54441526Y-137995187D01*
X54495652Y-138024479D01*
X54496497Y-138024936D01*
X54610487Y-138064068D01*
X54716015Y-138100297D01*
X54716017Y-138100297D01*
X54716019Y-138100298D01*
X54944951Y-138138500D01*
X54944952Y-138138500D01*
X55177048Y-138138500D01*
X55177049Y-138138500D01*
X55405981Y-138100298D01*
X55625503Y-138024936D01*
X55829626Y-137914470D01*
X55830170Y-137914047D01*
X55972739Y-137803081D01*
X56012784Y-137771913D01*
X56169979Y-137601153D01*
X56296924Y-137406849D01*
X56390157Y-137194300D01*
X56447134Y-136969305D01*
X56447135Y-136969297D01*
X56466300Y-136738006D01*
X56466300Y-136737993D01*
X56447135Y-136506702D01*
X56447133Y-136506691D01*
X56390157Y-136281699D01*
X56296924Y-136069151D01*
X56169983Y-135874852D01*
X56169980Y-135874849D01*
X56169979Y-135874847D01*
X56012784Y-135704087D01*
X56012779Y-135704083D01*
X56012777Y-135704081D01*
X55829634Y-135561535D01*
X55829628Y-135561531D01*
X55625504Y-135451064D01*
X55625495Y-135451061D01*
X55405984Y-135375702D01*
X55215450Y-135343908D01*
X55177049Y-135337500D01*
X54944951Y-135337500D01*
X54906550Y-135343908D01*
X54716015Y-135375702D01*
X54496504Y-135451061D01*
X54496495Y-135451064D01*
X54292371Y-135561531D01*
X54292365Y-135561535D01*
X54109222Y-135704081D01*
X54109215Y-135704087D01*
X54100484Y-135713572D01*
X54040595Y-135749561D01*
X53970757Y-135747458D01*
X53913143Y-135707932D01*
X53893075Y-135672918D01*
X53864355Y-135595915D01*
X53864350Y-135595906D01*
X53778190Y-135480812D01*
X53778187Y-135480809D01*
X53663093Y-135394649D01*
X53663086Y-135394645D01*
X53528379Y-135344403D01*
X53528372Y-135344401D01*
X53468844Y-135338000D01*
X52771000Y-135338000D01*
X52771000Y-136362722D01*
X52694694Y-136318667D01*
X52580244Y-136288000D01*
X52461756Y-136288000D01*
X52347306Y-136318667D01*
X52271000Y-136362722D01*
X52271000Y-135338000D01*
X51573155Y-135338000D01*
X51513627Y-135344401D01*
X51513620Y-135344403D01*
X51378913Y-135394645D01*
X51378906Y-135394649D01*
X51263812Y-135480809D01*
X51263807Y-135480814D01*
X51260263Y-135485549D01*
X51204328Y-135527418D01*
X51134636Y-135532399D01*
X51073314Y-135498911D01*
X51039832Y-135437586D01*
X51037000Y-135411234D01*
X51037000Y-130833146D01*
X51056685Y-130766107D01*
X51109489Y-130720352D01*
X51178647Y-130710408D01*
X51201263Y-130715865D01*
X51339243Y-130763233D01*
X51340659Y-130763719D01*
X51580249Y-130803700D01*
X51580250Y-130803700D01*
X51823150Y-130803700D01*
X51823151Y-130803700D01*
X52062741Y-130763719D01*
X52292483Y-130684849D01*
X52506109Y-130569240D01*
X52506644Y-130568824D01*
X52630000Y-130472812D01*
X52697794Y-130420046D01*
X52811045Y-130297021D01*
X52870932Y-130261032D01*
X52940770Y-130263132D01*
X52989956Y-130293324D01*
X53077344Y-130380712D01*
X53226666Y-130472814D01*
X53393203Y-130527999D01*
X53495991Y-130538500D01*
X54296008Y-130538499D01*
X54296016Y-130538498D01*
X54296019Y-130538498D01*
X54352302Y-130532748D01*
X54398797Y-130527999D01*
X54565334Y-130472814D01*
X54714656Y-130380712D01*
X54808319Y-130287049D01*
X54869642Y-130253564D01*
X54939334Y-130258548D01*
X54983681Y-130287049D01*
X55077344Y-130380712D01*
X55226666Y-130472814D01*
X55393203Y-130527999D01*
X55495991Y-130538500D01*
X56296008Y-130538499D01*
X56296016Y-130538498D01*
X56296019Y-130538498D01*
X56352302Y-130532748D01*
X56398797Y-130527999D01*
X56565334Y-130472814D01*
X56714656Y-130380712D01*
X56838712Y-130256656D01*
X56930814Y-130107334D01*
X56958595Y-130023495D01*
X56998368Y-129966051D01*
X57062884Y-129939228D01*
X57076301Y-129938500D01*
X57309331Y-129938500D01*
X57309347Y-129938501D01*
X57316943Y-129938501D01*
X57475054Y-129938501D01*
X57475057Y-129938501D01*
X57627785Y-129897577D01*
X57677904Y-129868639D01*
X57764716Y-129818520D01*
X57876520Y-129706716D01*
X57876520Y-129706714D01*
X57886728Y-129696507D01*
X57886730Y-129696504D01*
X58602110Y-128981123D01*
X58663431Y-128947640D01*
X58733123Y-128952624D01*
X58789056Y-128994496D01*
X58813473Y-129059960D01*
X58810755Y-129090711D01*
X58811680Y-129090866D01*
X58810835Y-129095928D01*
X58790777Y-129337994D01*
X58790777Y-129338005D01*
X58810835Y-129580069D01*
X58870465Y-129815543D01*
X58968037Y-130037986D01*
X59100890Y-130241334D01*
X59120957Y-130263132D01*
X59265406Y-130420046D01*
X59265409Y-130420048D01*
X59265412Y-130420051D01*
X59457082Y-130569234D01*
X59457088Y-130569238D01*
X59457091Y-130569240D01*
X59596798Y-130644846D01*
X59669872Y-130684392D01*
X59670717Y-130684849D01*
X59900459Y-130763719D01*
X60140049Y-130803700D01*
X60140050Y-130803700D01*
X60382950Y-130803700D01*
X60382951Y-130803700D01*
X60622541Y-130763719D01*
X60852283Y-130684849D01*
X61065909Y-130569240D01*
X61066444Y-130568824D01*
X61189800Y-130472812D01*
X61257594Y-130420046D01*
X61422107Y-130241337D01*
X61423547Y-130239132D01*
X61439677Y-130219269D01*
X62236852Y-129422094D01*
X62260292Y-129509571D01*
X62318811Y-129610930D01*
X62401570Y-129693689D01*
X62502929Y-129752208D01*
X62590405Y-129775647D01*
X61829240Y-130536811D01*
X61870367Y-130568822D01*
X61870370Y-130568824D01*
X62083912Y-130684386D01*
X62083926Y-130684392D01*
X62313579Y-130763233D01*
X62553090Y-130803200D01*
X62795910Y-130803200D01*
X63035420Y-130763233D01*
X63265073Y-130684392D01*
X63265087Y-130684386D01*
X63478631Y-130568823D01*
X63478637Y-130568818D01*
X63519758Y-130536812D01*
X63519759Y-130536811D01*
X62758594Y-129775647D01*
X62846071Y-129752208D01*
X62947430Y-129693689D01*
X63030189Y-129610930D01*
X63088708Y-129509571D01*
X63112147Y-129422094D01*
X63872792Y-130182740D01*
X63967521Y-130037749D01*
X64065061Y-129815378D01*
X64124669Y-129579994D01*
X64124671Y-129579982D01*
X64144722Y-129338005D01*
X64144722Y-129337994D01*
X64124671Y-129096017D01*
X64124669Y-129096005D01*
X64065061Y-128860621D01*
X63967523Y-128638255D01*
X63872792Y-128493258D01*
X63112147Y-129253904D01*
X63088708Y-129166429D01*
X63030189Y-129065070D01*
X62947430Y-128982311D01*
X62846071Y-128923792D01*
X62758594Y-128900352D01*
X63519758Y-128139187D01*
X63519758Y-128139185D01*
X63478643Y-128107184D01*
X63478632Y-128107177D01*
X63265087Y-127991613D01*
X63265073Y-127991607D01*
X63035420Y-127912766D01*
X62795910Y-127872800D01*
X62553090Y-127872800D01*
X62313579Y-127912766D01*
X62083926Y-127991607D01*
X62083912Y-127991613D01*
X61870368Y-128107177D01*
X61870365Y-128107179D01*
X61829239Y-128139187D01*
X62590405Y-128900352D01*
X62502929Y-128923792D01*
X62401570Y-128982311D01*
X62318811Y-129065070D01*
X62260292Y-129166429D01*
X62236852Y-129253904D01*
X61439673Y-128456725D01*
X61423548Y-128436869D01*
X61422107Y-128434663D01*
X61257594Y-128255954D01*
X61257589Y-128255950D01*
X61257587Y-128255948D01*
X61065917Y-128106765D01*
X61065911Y-128106761D01*
X60852283Y-127991151D01*
X60852275Y-127991148D01*
X60804062Y-127974596D01*
X60747046Y-127934210D01*
X60720916Y-127869410D01*
X60730266Y-127814761D01*
X60728542Y-127814190D01*
X60730814Y-127807334D01*
X60785999Y-127640797D01*
X60796500Y-127538009D01*
X60796499Y-127537994D01*
X60796660Y-127534860D01*
X60796820Y-127534868D01*
X60796821Y-127534867D01*
X60796844Y-127534869D01*
X60797448Y-127534900D01*
X60816162Y-127471091D01*
X60832813Y-127450420D01*
X62414535Y-125868698D01*
X62475856Y-125835215D01*
X62488311Y-125833163D01*
X62575255Y-125823368D01*
X62745522Y-125763789D01*
X62898262Y-125667816D01*
X63025816Y-125540262D01*
X63121789Y-125387522D01*
X63181368Y-125217255D01*
X63201565Y-125038000D01*
X63198419Y-125010082D01*
X63181369Y-124858750D01*
X63181368Y-124858745D01*
X63139117Y-124737998D01*
X63121789Y-124688478D01*
X63025816Y-124535738D01*
X62898262Y-124408184D01*
X62745523Y-124312211D01*
X62575254Y-124252631D01*
X62575249Y-124252630D01*
X62396004Y-124232435D01*
X62395996Y-124232435D01*
X62216750Y-124252630D01*
X62216745Y-124252631D01*
X62046476Y-124312211D01*
X61893737Y-124408184D01*
X61766184Y-124535737D01*
X61670210Y-124688478D01*
X61610630Y-124858750D01*
X61600837Y-124945668D01*
X61573770Y-125010082D01*
X61565298Y-125019465D01*
X61008180Y-125576583D01*
X60946857Y-125610068D01*
X60877165Y-125605084D01*
X60821232Y-125563212D01*
X60796815Y-125497748D01*
X60796499Y-125488928D01*
X60796499Y-124737992D01*
X60785999Y-124635203D01*
X60730814Y-124468666D01*
X60638712Y-124319344D01*
X60514656Y-124195288D01*
X60365334Y-124103186D01*
X60281495Y-124075404D01*
X60224051Y-124035632D01*
X60197228Y-123971116D01*
X60196500Y-123957699D01*
X60196500Y-123903097D01*
X60216185Y-123836058D01*
X60232819Y-123815416D01*
X60366178Y-123682057D01*
X60736161Y-123312073D01*
X60797482Y-123278590D01*
X60864102Y-123282474D01*
X60894349Y-123292858D01*
X60916018Y-123300298D01*
X61030485Y-123319399D01*
X61144951Y-123338500D01*
X61144952Y-123338500D01*
X61377048Y-123338500D01*
X61377049Y-123338500D01*
X61605981Y-123300298D01*
X61825503Y-123224936D01*
X62029626Y-123114470D01*
X62030170Y-123114047D01*
X62091129Y-123066600D01*
X62212784Y-122971913D01*
X62369979Y-122801153D01*
X62496924Y-122606849D01*
X62590157Y-122394300D01*
X62647134Y-122169305D01*
X62647135Y-122169297D01*
X62666300Y-121938006D01*
X62666300Y-121937993D01*
X62647135Y-121706702D01*
X62647133Y-121706691D01*
X62590157Y-121481699D01*
X62496924Y-121269151D01*
X62369983Y-121074852D01*
X62369980Y-121074849D01*
X62369979Y-121074847D01*
X62212784Y-120904087D01*
X62212779Y-120904083D01*
X62212777Y-120904081D01*
X62029634Y-120761535D01*
X62029628Y-120761531D01*
X61825504Y-120651064D01*
X61825495Y-120651061D01*
X61605984Y-120575702D01*
X61415450Y-120543908D01*
X61377049Y-120537500D01*
X61144951Y-120537500D01*
X61106550Y-120543908D01*
X60916015Y-120575702D01*
X60696504Y-120651061D01*
X60696495Y-120651064D01*
X60492371Y-120761531D01*
X60492365Y-120761535D01*
X60309222Y-120904081D01*
X60309215Y-120904087D01*
X60300484Y-120913572D01*
X60240595Y-120949561D01*
X60170757Y-120947458D01*
X60113143Y-120907932D01*
X60093075Y-120872918D01*
X60064355Y-120795915D01*
X60064350Y-120795906D01*
X59978190Y-120680812D01*
X59978187Y-120680809D01*
X59863093Y-120594649D01*
X59863086Y-120594645D01*
X59728379Y-120544403D01*
X59728372Y-120544401D01*
X59668844Y-120538000D01*
X58971000Y-120538000D01*
X58971000Y-121562722D01*
X58894694Y-121518667D01*
X58780244Y-121488000D01*
X58661756Y-121488000D01*
X58547306Y-121518667D01*
X58471000Y-121562722D01*
X58471000Y-120538000D01*
X57773155Y-120538000D01*
X57713627Y-120544401D01*
X57713620Y-120544403D01*
X57578913Y-120594645D01*
X57578906Y-120594649D01*
X57463812Y-120680809D01*
X57463809Y-120680812D01*
X57377649Y-120795906D01*
X57377645Y-120795913D01*
X57327403Y-120930620D01*
X57327401Y-120930627D01*
X57321000Y-120990155D01*
X57321000Y-121688000D01*
X58345722Y-121688000D01*
X58301667Y-121764306D01*
X58271000Y-121878756D01*
X58271000Y-121997244D01*
X58301667Y-122111694D01*
X58345722Y-122188000D01*
X57321000Y-122188000D01*
X57321000Y-122885844D01*
X57327401Y-122945372D01*
X57327403Y-122945379D01*
X57377645Y-123080086D01*
X57377649Y-123080093D01*
X57463809Y-123195187D01*
X57463812Y-123195190D01*
X57578906Y-123281350D01*
X57578913Y-123281354D01*
X57713620Y-123331596D01*
X57713627Y-123331598D01*
X57773155Y-123337999D01*
X57773172Y-123338000D01*
X58471000Y-123338000D01*
X58471000Y-122313277D01*
X58547306Y-122357333D01*
X58661756Y-122388000D01*
X58780244Y-122388000D01*
X58894694Y-122357333D01*
X58971000Y-122313277D01*
X58971000Y-123338000D01*
X58978993Y-123345993D01*
X59012478Y-123407316D01*
X59011087Y-123465767D01*
X58995499Y-123523942D01*
X58995499Y-123692046D01*
X58995500Y-123692059D01*
X58995500Y-123957699D01*
X58975815Y-124024738D01*
X58923011Y-124070493D01*
X58910507Y-124075403D01*
X58877962Y-124086188D01*
X58826668Y-124103185D01*
X58826663Y-124103187D01*
X58677342Y-124195289D01*
X58553289Y-124319342D01*
X58553288Y-124319344D01*
X58498492Y-124408184D01*
X58457395Y-124474813D01*
X58455600Y-124473706D01*
X58416313Y-124518337D01*
X58350092Y-124537500D01*
X56021097Y-124537500D01*
X55954058Y-124517815D01*
X55933416Y-124501181D01*
X54981916Y-123549681D01*
X54948431Y-123488358D01*
X54953415Y-123418666D01*
X54995287Y-123362733D01*
X55060751Y-123338316D01*
X55069597Y-123338000D01*
X55177007Y-123338000D01*
X55405860Y-123299811D01*
X55625293Y-123224479D01*
X55625301Y-123224476D01*
X55829355Y-123114047D01*
X55859797Y-123090351D01*
X55859798Y-123090351D01*
X55149585Y-122380138D01*
X55234694Y-122357333D01*
X55337306Y-122298090D01*
X55421090Y-122214306D01*
X55480333Y-122111694D01*
X55503138Y-122026585D01*
X56212186Y-122735633D01*
X56296482Y-122606611D01*
X56389682Y-122394135D01*
X56446638Y-122169218D01*
X56465798Y-121938005D01*
X56465798Y-121937994D01*
X56446638Y-121706781D01*
X56389682Y-121481864D01*
X56296484Y-121269393D01*
X56212186Y-121140365D01*
X55503137Y-121849414D01*
X55480333Y-121764306D01*
X55421090Y-121661694D01*
X55337306Y-121577910D01*
X55234694Y-121518667D01*
X55149584Y-121495861D01*
X55859797Y-120785647D01*
X55859797Y-120785645D01*
X55829360Y-120761955D01*
X55829354Y-120761951D01*
X55625302Y-120651523D01*
X55625293Y-120651520D01*
X55405860Y-120576188D01*
X55177007Y-120538000D01*
X54944993Y-120538000D01*
X54716139Y-120576188D01*
X54496706Y-120651520D01*
X54496697Y-120651523D01*
X54292650Y-120761949D01*
X54262200Y-120785647D01*
X54972415Y-121495861D01*
X54887306Y-121518667D01*
X54784694Y-121577910D01*
X54700910Y-121661694D01*
X54641667Y-121764306D01*
X54618861Y-121849414D01*
X53957818Y-121188371D01*
X53924333Y-121127048D01*
X53921499Y-121100690D01*
X53921499Y-120990129D01*
X53921498Y-120990123D01*
X53915091Y-120930516D01*
X53864797Y-120795671D01*
X53864793Y-120795664D01*
X53778547Y-120680455D01*
X53778544Y-120680452D01*
X53663335Y-120594206D01*
X53663328Y-120594202D01*
X53528482Y-120543908D01*
X53528483Y-120543908D01*
X53468883Y-120537501D01*
X53468881Y-120537500D01*
X53468873Y-120537500D01*
X53468865Y-120537500D01*
X52145096Y-120537500D01*
X52078057Y-120517815D01*
X52032302Y-120465011D01*
X52022358Y-120395853D01*
X52051383Y-120332297D01*
X52057415Y-120325819D01*
X56064713Y-116318521D01*
X56064716Y-116318520D01*
X56176520Y-116206716D01*
X56226639Y-116119904D01*
X56255577Y-116069785D01*
X56296500Y-115917058D01*
X56296500Y-115758943D01*
X56296500Y-114538005D01*
X58790777Y-114538005D01*
X58810835Y-114780069D01*
X58870465Y-115015543D01*
X58968037Y-115237986D01*
X59100890Y-115441334D01*
X59100893Y-115441337D01*
X59265406Y-115620046D01*
X59265409Y-115620048D01*
X59265412Y-115620051D01*
X59457082Y-115769234D01*
X59457088Y-115769238D01*
X59457091Y-115769240D01*
X59632373Y-115864098D01*
X59669872Y-115884392D01*
X59670717Y-115884849D01*
X59900459Y-115963719D01*
X60140049Y-116003700D01*
X60140050Y-116003700D01*
X60382950Y-116003700D01*
X60382951Y-116003700D01*
X60622541Y-115963719D01*
X60852283Y-115884849D01*
X61065909Y-115769240D01*
X61066444Y-115768824D01*
X61130276Y-115719140D01*
X61257594Y-115620046D01*
X61422107Y-115441337D01*
X61423547Y-115439132D01*
X61439677Y-115419269D01*
X62236852Y-114622094D01*
X62260292Y-114709571D01*
X62318811Y-114810930D01*
X62401570Y-114893689D01*
X62502929Y-114952208D01*
X62590405Y-114975647D01*
X61829240Y-115736811D01*
X61870367Y-115768822D01*
X61870370Y-115768824D01*
X62083912Y-115884386D01*
X62083926Y-115884392D01*
X62313579Y-115963233D01*
X62553090Y-116003200D01*
X62795910Y-116003200D01*
X63035420Y-115963233D01*
X63265073Y-115884392D01*
X63265087Y-115884386D01*
X63478631Y-115768823D01*
X63478637Y-115768818D01*
X63519758Y-115736812D01*
X63519759Y-115736811D01*
X62758594Y-114975647D01*
X62846071Y-114952208D01*
X62947430Y-114893689D01*
X63030189Y-114810930D01*
X63088708Y-114709571D01*
X63112147Y-114622094D01*
X63872792Y-115382740D01*
X63967521Y-115237749D01*
X64065061Y-115015378D01*
X64124669Y-114779994D01*
X64124671Y-114779982D01*
X64144722Y-114538005D01*
X64144722Y-114537994D01*
X64124671Y-114296017D01*
X64124669Y-114296005D01*
X64065061Y-114060621D01*
X63967523Y-113838255D01*
X63872792Y-113693258D01*
X63112147Y-114453904D01*
X63088708Y-114366429D01*
X63030189Y-114265070D01*
X62947430Y-114182311D01*
X62846071Y-114123792D01*
X62758594Y-114100352D01*
X63519758Y-113339187D01*
X63519758Y-113339185D01*
X63478643Y-113307184D01*
X63478632Y-113307177D01*
X63265087Y-113191613D01*
X63265073Y-113191607D01*
X63035420Y-113112766D01*
X62795910Y-113072800D01*
X62553090Y-113072800D01*
X62313579Y-113112766D01*
X62083926Y-113191607D01*
X62083912Y-113191613D01*
X61870368Y-113307177D01*
X61870365Y-113307179D01*
X61829239Y-113339187D01*
X62590405Y-114100352D01*
X62502929Y-114123792D01*
X62401570Y-114182311D01*
X62318811Y-114265070D01*
X62260292Y-114366429D01*
X62236852Y-114453904D01*
X61439673Y-113656725D01*
X61423548Y-113636869D01*
X61422107Y-113634663D01*
X61257594Y-113455954D01*
X61257589Y-113455950D01*
X61257587Y-113455948D01*
X61065917Y-113306765D01*
X61065911Y-113306761D01*
X60852284Y-113191151D01*
X60852279Y-113191149D01*
X60622543Y-113112281D01*
X60462814Y-113085627D01*
X60382951Y-113072300D01*
X60140049Y-113072300D01*
X60080151Y-113082295D01*
X59900456Y-113112281D01*
X59670720Y-113191149D01*
X59670715Y-113191151D01*
X59457088Y-113306761D01*
X59457082Y-113306765D01*
X59265412Y-113455948D01*
X59265409Y-113455951D01*
X59100890Y-113634665D01*
X58968037Y-113838013D01*
X58870465Y-114060456D01*
X58810835Y-114295930D01*
X58790777Y-114537994D01*
X58790777Y-114538005D01*
X56296500Y-114538005D01*
X56296500Y-108599638D01*
X57842711Y-108599638D01*
X57930985Y-108654295D01*
X58121078Y-108727937D01*
X58321472Y-108765398D01*
X58525328Y-108765398D01*
X58725722Y-108727937D01*
X58915812Y-108654297D01*
X58915816Y-108654295D01*
X59004086Y-108599639D01*
X59004086Y-108599638D01*
X58423401Y-108018951D01*
X58423400Y-108018951D01*
X57842711Y-108599638D01*
X56296500Y-108599638D01*
X56296500Y-107665398D01*
X57318687Y-107665398D01*
X57337496Y-107868387D01*
X57337497Y-107868390D01*
X57393283Y-108064461D01*
X57393286Y-108064467D01*
X57484151Y-108246949D01*
X57485933Y-108249309D01*
X58030350Y-107704894D01*
X58123400Y-107704894D01*
X58143844Y-107781194D01*
X58183340Y-107849603D01*
X58239195Y-107905458D01*
X58307604Y-107944954D01*
X58383904Y-107965398D01*
X58462896Y-107965398D01*
X58539196Y-107944954D01*
X58607605Y-107905458D01*
X58663460Y-107849603D01*
X58702956Y-107781194D01*
X58723400Y-107704894D01*
X58723400Y-107665398D01*
X58776953Y-107665398D01*
X59360865Y-108249310D01*
X59362647Y-108246951D01*
X59362648Y-108246949D01*
X59453513Y-108064467D01*
X59453516Y-108064461D01*
X59509302Y-107868390D01*
X59509303Y-107868387D01*
X59528113Y-107665398D01*
X59528113Y-107665397D01*
X59509303Y-107462408D01*
X59509302Y-107462405D01*
X59453516Y-107266334D01*
X59453513Y-107266328D01*
X59362649Y-107083847D01*
X59362647Y-107083845D01*
X59360865Y-107081485D01*
X58776953Y-107665398D01*
X58723400Y-107665398D01*
X58723400Y-107625902D01*
X58702956Y-107549602D01*
X58663460Y-107481193D01*
X58607605Y-107425338D01*
X58539196Y-107385842D01*
X58462896Y-107365398D01*
X58383904Y-107365398D01*
X58307604Y-107385842D01*
X58239195Y-107425338D01*
X58183340Y-107481193D01*
X58143844Y-107549602D01*
X58123400Y-107625902D01*
X58123400Y-107704894D01*
X58030350Y-107704894D01*
X58069846Y-107665398D01*
X57485933Y-107081485D01*
X57484155Y-107083840D01*
X57484154Y-107083841D01*
X57393286Y-107266328D01*
X57393283Y-107266334D01*
X57337497Y-107462405D01*
X57337496Y-107462408D01*
X57318687Y-107665397D01*
X57318687Y-107665398D01*
X56296500Y-107665398D01*
X56296500Y-101662499D01*
X56316185Y-101595460D01*
X56368989Y-101549705D01*
X56420500Y-101538499D01*
X56971500Y-101538499D01*
X57038539Y-101558184D01*
X57084294Y-101610988D01*
X57095500Y-101662499D01*
X57095500Y-104851328D01*
X57095499Y-104851346D01*
X57095499Y-105017052D01*
X57095498Y-105017052D01*
X57136423Y-105169783D01*
X57165358Y-105219898D01*
X57165359Y-105219902D01*
X57165360Y-105219902D01*
X57215479Y-105306712D01*
X57215481Y-105306715D01*
X57286581Y-105377815D01*
X57320066Y-105439138D01*
X57322900Y-105465496D01*
X57322900Y-106313268D01*
X57322901Y-106313274D01*
X57329308Y-106372881D01*
X57379602Y-106507726D01*
X57379606Y-106507733D01*
X57465852Y-106622942D01*
X57465855Y-106622945D01*
X57581064Y-106709191D01*
X57581071Y-106709195D01*
X57715916Y-106759489D01*
X57741819Y-106762273D01*
X57775527Y-106765898D01*
X57826092Y-106765897D01*
X57893129Y-106785580D01*
X57913772Y-106802216D01*
X58423400Y-107311844D01*
X58933028Y-106802216D01*
X58994351Y-106768731D01*
X59020708Y-106765897D01*
X59071272Y-106765897D01*
X59130883Y-106759489D01*
X59265731Y-106709194D01*
X59380946Y-106622944D01*
X59467196Y-106507729D01*
X59517491Y-106372881D01*
X59523900Y-106313271D01*
X59523899Y-105017526D01*
X59517491Y-104957915D01*
X59477743Y-104851346D01*
X59467197Y-104823069D01*
X59467193Y-104823062D01*
X59380947Y-104707853D01*
X59380944Y-104707850D01*
X59265735Y-104621604D01*
X59265728Y-104621600D01*
X59130882Y-104571306D01*
X59130883Y-104571306D01*
X59071283Y-104564899D01*
X59071281Y-104564898D01*
X59071273Y-104564898D01*
X59071265Y-104564898D01*
X58420500Y-104564898D01*
X58353461Y-104545213D01*
X58307706Y-104492409D01*
X58296500Y-104440898D01*
X58296500Y-101662499D01*
X58316185Y-101595460D01*
X58368989Y-101549705D01*
X58420500Y-101538499D01*
X58996002Y-101538499D01*
X58996008Y-101538499D01*
X59098797Y-101527999D01*
X59265334Y-101472814D01*
X59414656Y-101380712D01*
X59538712Y-101256656D01*
X59630814Y-101107334D01*
X59658595Y-101023495D01*
X59698368Y-100966051D01*
X59762884Y-100939228D01*
X59776301Y-100938500D01*
X61211202Y-100938500D01*
X61278241Y-100958185D01*
X61316739Y-100997401D01*
X61353288Y-101056656D01*
X61477344Y-101180712D01*
X61626666Y-101272814D01*
X61793203Y-101327999D01*
X61895991Y-101338500D01*
X62896008Y-101338499D01*
X62896016Y-101338498D01*
X62896019Y-101338498D01*
X62952302Y-101332748D01*
X62998797Y-101327999D01*
X63165334Y-101272814D01*
X63314656Y-101180712D01*
X63358319Y-101137049D01*
X63419642Y-101103564D01*
X63489334Y-101108548D01*
X63533681Y-101137049D01*
X63577344Y-101180712D01*
X63726666Y-101272814D01*
X63893203Y-101327999D01*
X63995991Y-101338500D01*
X64996008Y-101338499D01*
X64996016Y-101338498D01*
X64996019Y-101338498D01*
X65052302Y-101332748D01*
X65098797Y-101327999D01*
X65265334Y-101272814D01*
X65414656Y-101180712D01*
X65538712Y-101056656D01*
X65630814Y-100907334D01*
X65685999Y-100740797D01*
X65696500Y-100638009D01*
X65696499Y-99837992D01*
X65692507Y-99798917D01*
X65685999Y-99735203D01*
X65685998Y-99735200D01*
X65674246Y-99699735D01*
X65630814Y-99568666D01*
X65538712Y-99419344D01*
X65445049Y-99325681D01*
X65411564Y-99264358D01*
X65416548Y-99194666D01*
X65445049Y-99150319D01*
X65475028Y-99120340D01*
X65538712Y-99056656D01*
X65630814Y-98907334D01*
X65685999Y-98740797D01*
X65696500Y-98638009D01*
X65696499Y-97837992D01*
X65685999Y-97735203D01*
X65630814Y-97568666D01*
X65538712Y-97419344D01*
X65414656Y-97295288D01*
X65339311Y-97248815D01*
X65292588Y-97196868D01*
X65283553Y-97165390D01*
X65282917Y-97165536D01*
X65281368Y-97158749D01*
X65273933Y-97137500D01*
X65221789Y-96988482D01*
X65221786Y-96988478D01*
X65137433Y-96854231D01*
X65125816Y-96835742D01*
X64998262Y-96708188D01*
X64998256Y-96708184D01*
X64845523Y-96612215D01*
X64675254Y-96552635D01*
X64675249Y-96552634D01*
X64496004Y-96532439D01*
X64495996Y-96532439D01*
X64316750Y-96552634D01*
X64316745Y-96552635D01*
X64146476Y-96612215D01*
X63993737Y-96708188D01*
X63866182Y-96835743D01*
X63779694Y-96973388D01*
X63727360Y-97019678D01*
X63658306Y-97030326D01*
X63594458Y-97001951D01*
X63556086Y-96943561D01*
X63550701Y-96907415D01*
X63550701Y-93046671D01*
X63570386Y-92979632D01*
X63577756Y-92969356D01*
X63580011Y-92966526D01*
X63580017Y-92966521D01*
X63675990Y-92813781D01*
X63735569Y-92643514D01*
X63735570Y-92643508D01*
X63755766Y-92464262D01*
X63755766Y-92464255D01*
X63735570Y-92285009D01*
X63735569Y-92285004D01*
X63675989Y-92114735D01*
X63636783Y-92052339D01*
X63580017Y-91961997D01*
X63452463Y-91834443D01*
X63299724Y-91738470D01*
X63129455Y-91678890D01*
X63129450Y-91678889D01*
X62950205Y-91658694D01*
X62950197Y-91658694D01*
X62770951Y-91678889D01*
X62770946Y-91678890D01*
X62600677Y-91738470D01*
X62447938Y-91834443D01*
X62320385Y-91961996D01*
X62224412Y-92114735D01*
X62164832Y-92285004D01*
X62164831Y-92285009D01*
X62144636Y-92464255D01*
X62144636Y-92464262D01*
X62164831Y-92643508D01*
X62164832Y-92643513D01*
X62224412Y-92813782D01*
X62270372Y-92886926D01*
X62319145Y-92964548D01*
X62320386Y-92966522D01*
X62322646Y-92969356D01*
X62323535Y-92971534D01*
X62324090Y-92972417D01*
X62323935Y-92972514D01*
X62349056Y-93034042D01*
X62349701Y-93046671D01*
X62349701Y-93115581D01*
X62330016Y-93182620D01*
X62277212Y-93228375D01*
X62239585Y-93238801D01*
X62116749Y-93252641D01*
X62116745Y-93252642D01*
X61946476Y-93312222D01*
X61793736Y-93408196D01*
X61790918Y-93410444D01*
X61788751Y-93411328D01*
X61787842Y-93411900D01*
X61787741Y-93411740D01*
X61726233Y-93436855D01*
X61713602Y-93437500D01*
X59776301Y-93437500D01*
X59709262Y-93417815D01*
X59663507Y-93365011D01*
X59658595Y-93352504D01*
X59645247Y-93312222D01*
X59630814Y-93268666D01*
X59538712Y-93119344D01*
X59414656Y-92995288D01*
X59265334Y-92903186D01*
X59098797Y-92848001D01*
X59098795Y-92848000D01*
X58996010Y-92837500D01*
X58195998Y-92837500D01*
X58195980Y-92837501D01*
X58093203Y-92848000D01*
X58093200Y-92848001D01*
X57926668Y-92903185D01*
X57926663Y-92903187D01*
X57777342Y-92995289D01*
X57683681Y-93088951D01*
X57622358Y-93122436D01*
X57552666Y-93117452D01*
X57508319Y-93088951D01*
X57419062Y-92999694D01*
X57385577Y-92938371D01*
X57383523Y-92898129D01*
X57401565Y-92738002D01*
X57401565Y-92737996D01*
X57381369Y-92558750D01*
X57381368Y-92558745D01*
X57348306Y-92464259D01*
X57321789Y-92388478D01*
X57225816Y-92235738D01*
X57098262Y-92108184D01*
X56945523Y-92012211D01*
X56775254Y-91952631D01*
X56775249Y-91952630D01*
X56596004Y-91932435D01*
X56595996Y-91932435D01*
X56416750Y-91952630D01*
X56416745Y-91952631D01*
X56246476Y-92012211D01*
X56093737Y-92108184D01*
X55966184Y-92235737D01*
X55870211Y-92388476D01*
X55810631Y-92558745D01*
X55810630Y-92558750D01*
X55790435Y-92737996D01*
X55790435Y-92738003D01*
X55808476Y-92898129D01*
X55796421Y-92966951D01*
X55772938Y-92999693D01*
X55653287Y-93119345D01*
X55561187Y-93268663D01*
X55561186Y-93268666D01*
X55506001Y-93435203D01*
X55506001Y-93435204D01*
X55506000Y-93435204D01*
X55495500Y-93537983D01*
X55495500Y-94237902D01*
X55475815Y-94304941D01*
X55459181Y-94325583D01*
X55215481Y-94569282D01*
X55215477Y-94569287D01*
X55168471Y-94650706D01*
X55168471Y-94650707D01*
X55136423Y-94706214D01*
X55136423Y-94706215D01*
X55095499Y-94858943D01*
X55095499Y-94858945D01*
X55095499Y-95027046D01*
X55095500Y-95027059D01*
X55095500Y-95406947D01*
X55075815Y-95473986D01*
X55023011Y-95519741D01*
X54953853Y-95529685D01*
X54890297Y-95500660D01*
X54869925Y-95478071D01*
X54834109Y-95426922D01*
X54834108Y-95426920D01*
X54667082Y-95259894D01*
X54480968Y-95129575D01*
X54437344Y-95074998D01*
X54430151Y-95005499D01*
X54461673Y-94943145D01*
X54480968Y-94926425D01*
X54667082Y-94796105D01*
X54834105Y-94629082D01*
X54969600Y-94435578D01*
X55069429Y-94221492D01*
X55069432Y-94221486D01*
X55126636Y-94008000D01*
X54229012Y-94008000D01*
X54261925Y-93950993D01*
X54296000Y-93823826D01*
X54296000Y-93692174D01*
X54261925Y-93565007D01*
X54229012Y-93508000D01*
X55126636Y-93508000D01*
X55126635Y-93507999D01*
X55069432Y-93294513D01*
X55069429Y-93294507D01*
X54969600Y-93080422D01*
X54969599Y-93080420D01*
X54834113Y-92886926D01*
X54834108Y-92886920D01*
X54667082Y-92719894D01*
X54480968Y-92589575D01*
X54437344Y-92534998D01*
X54430151Y-92465499D01*
X54461673Y-92403145D01*
X54480968Y-92386425D01*
X54667082Y-92256105D01*
X54834105Y-92089082D01*
X54969600Y-91895578D01*
X55069429Y-91681492D01*
X55069432Y-91681486D01*
X55126636Y-91468000D01*
X54229012Y-91468000D01*
X54261925Y-91410993D01*
X54296000Y-91283826D01*
X54296000Y-91152174D01*
X54261925Y-91025007D01*
X54229012Y-90968000D01*
X55126636Y-90968000D01*
X55126635Y-90967999D01*
X55069432Y-90754513D01*
X55069429Y-90754507D01*
X54969600Y-90540422D01*
X54969599Y-90540420D01*
X54834113Y-90346926D01*
X54834108Y-90346920D01*
X54667078Y-90179890D01*
X54481405Y-90049879D01*
X54437780Y-89995302D01*
X54430588Y-89925804D01*
X54462110Y-89863449D01*
X54481406Y-89846730D01*
X54636684Y-89738003D01*
X54667401Y-89716495D01*
X54834495Y-89549401D01*
X54970035Y-89355830D01*
X55069903Y-89141663D01*
X55131063Y-88913408D01*
X55151659Y-88678000D01*
X55131063Y-88442592D01*
X55069903Y-88214337D01*
X54970035Y-88000171D01*
X54964425Y-87992158D01*
X54834494Y-87806597D01*
X54667401Y-87639505D01*
X54667395Y-87639501D01*
X54473834Y-87503967D01*
X54473830Y-87503965D01*
X54473828Y-87503964D01*
X54259663Y-87404097D01*
X54259659Y-87404096D01*
X54259655Y-87404094D01*
X54031413Y-87342938D01*
X54031403Y-87342936D01*
X53796001Y-87322341D01*
X53795999Y-87322341D01*
X53560596Y-87342936D01*
X53560586Y-87342938D01*
X53332344Y-87404094D01*
X53332335Y-87404098D01*
X53118171Y-87503964D01*
X53118169Y-87503965D01*
X52924597Y-87639505D01*
X52757505Y-87806597D01*
X52627575Y-87992158D01*
X52572998Y-88035783D01*
X52503500Y-88042977D01*
X52441145Y-88011454D01*
X52424425Y-87992158D01*
X52294494Y-87806597D01*
X52127401Y-87639505D01*
X52127395Y-87639501D01*
X51933834Y-87503967D01*
X51933830Y-87503965D01*
X51933828Y-87503964D01*
X51719663Y-87404097D01*
X51719659Y-87404096D01*
X51719655Y-87404094D01*
X51491413Y-87342938D01*
X51491403Y-87342936D01*
X51256001Y-87322341D01*
X51255999Y-87322341D01*
X51020596Y-87342936D01*
X51020583Y-87342939D01*
X50892241Y-87377327D01*
X50822392Y-87375664D01*
X50772468Y-87345233D01*
X50601053Y-87173818D01*
X50567568Y-87112495D01*
X50564734Y-87086137D01*
X50564734Y-82534265D01*
X50584419Y-82467226D01*
X50637223Y-82421471D01*
X50688734Y-82410265D01*
X51112105Y-82410265D01*
X51112106Y-82410265D01*
X51171717Y-82403857D01*
X51306565Y-82353562D01*
X51421780Y-82267312D01*
X51508030Y-82152097D01*
X51558325Y-82017249D01*
X51564734Y-81957639D01*
X51564734Y-81660598D01*
X56923400Y-81660598D01*
X56923400Y-82058442D01*
X56929801Y-82117970D01*
X56929803Y-82117977D01*
X56980045Y-82252684D01*
X56980049Y-82252691D01*
X57066209Y-82367785D01*
X57066212Y-82367788D01*
X57181306Y-82453948D01*
X57181313Y-82453952D01*
X57316020Y-82504194D01*
X57316027Y-82504196D01*
X57375555Y-82510597D01*
X57375572Y-82510598D01*
X57773400Y-82510598D01*
X57773400Y-81660598D01*
X56923400Y-81660598D01*
X51564734Y-81660598D01*
X51564733Y-79661894D01*
X51558325Y-79602283D01*
X51508030Y-79467435D01*
X51508029Y-79467434D01*
X51508027Y-79467430D01*
X51465482Y-79410598D01*
X56918185Y-79410598D01*
X56937002Y-79613680D01*
X56992817Y-79809845D01*
X56992822Y-79809858D01*
X57083727Y-79992419D01*
X57206636Y-80155177D01*
X57214261Y-80162128D01*
X57250544Y-80221839D01*
X57248785Y-80291686D01*
X57209543Y-80349495D01*
X57188388Y-80361697D01*
X57189096Y-80362994D01*
X57181306Y-80367247D01*
X57066212Y-80453407D01*
X57066209Y-80453410D01*
X56980049Y-80568504D01*
X56980045Y-80568511D01*
X56929803Y-80703218D01*
X56929801Y-80703225D01*
X56923400Y-80762753D01*
X56923400Y-81160598D01*
X57856412Y-81160598D01*
X57839195Y-81170538D01*
X57783340Y-81226393D01*
X57743844Y-81294802D01*
X57723400Y-81371102D01*
X57723400Y-81450094D01*
X57743844Y-81526394D01*
X57783340Y-81594803D01*
X57839195Y-81650658D01*
X57907604Y-81690154D01*
X57983904Y-81710598D01*
X58062896Y-81710598D01*
X58139196Y-81690154D01*
X58207605Y-81650658D01*
X58263460Y-81594803D01*
X58273400Y-81577586D01*
X58273400Y-82510598D01*
X58671228Y-82510598D01*
X58671244Y-82510597D01*
X58730772Y-82504196D01*
X58730779Y-82504194D01*
X58865486Y-82453952D01*
X58865493Y-82453948D01*
X58980587Y-82367788D01*
X58980590Y-82367785D01*
X59066750Y-82252691D01*
X59066754Y-82252684D01*
X59116996Y-82117977D01*
X59116998Y-82117970D01*
X59123399Y-82058442D01*
X59123400Y-82058425D01*
X59123400Y-81659195D01*
X59143085Y-81592156D01*
X59195889Y-81546401D01*
X59265047Y-81536457D01*
X59328603Y-81565482D01*
X59335081Y-81571514D01*
X60059181Y-82295614D01*
X60092666Y-82356937D01*
X60095500Y-82383295D01*
X60095500Y-89155587D01*
X60075815Y-89222626D01*
X60068450Y-89232896D01*
X60066186Y-89235734D01*
X59970211Y-89388476D01*
X59910631Y-89558745D01*
X59910630Y-89558750D01*
X59890435Y-89737996D01*
X59890435Y-89738003D01*
X59910630Y-89917249D01*
X59910631Y-89917254D01*
X59970211Y-90087523D01*
X60028250Y-90179891D01*
X60066184Y-90240262D01*
X60193738Y-90367816D01*
X60346478Y-90463789D01*
X60516745Y-90523368D01*
X60516750Y-90523369D01*
X60695996Y-90543565D01*
X60696000Y-90543565D01*
X60696004Y-90543565D01*
X60875249Y-90523369D01*
X60875252Y-90523368D01*
X60875255Y-90523368D01*
X61045522Y-90463789D01*
X61198262Y-90367816D01*
X61325816Y-90240262D01*
X61421789Y-90087522D01*
X61481368Y-89917255D01*
X61483165Y-89901307D01*
X61501565Y-89738003D01*
X61501565Y-89737996D01*
X61481369Y-89558750D01*
X61481368Y-89558745D01*
X61421788Y-89388476D01*
X61325813Y-89235734D01*
X61323550Y-89232896D01*
X61322659Y-89230715D01*
X61322111Y-89229842D01*
X61322264Y-89229745D01*
X61297144Y-89168209D01*
X61296500Y-89155587D01*
X61296500Y-82004143D01*
X61296500Y-82004141D01*
X61255577Y-81851414D01*
X61255577Y-81851413D01*
X61255577Y-81851412D01*
X61226639Y-81801293D01*
X61226637Y-81801290D01*
X61176520Y-81714482D01*
X61064716Y-81602678D01*
X61064715Y-81602677D01*
X61060385Y-81598347D01*
X61060374Y-81598337D01*
X59148067Y-79686030D01*
X59114582Y-79624707D01*
X59112277Y-79586913D01*
X59128615Y-79410598D01*
X59117888Y-79294838D01*
X59109797Y-79207515D01*
X59055660Y-79017247D01*
X59053982Y-79011348D01*
X58963073Y-78828777D01*
X58840164Y-78666019D01*
X58840162Y-78666016D01*
X58689441Y-78528617D01*
X58689439Y-78528615D01*
X58516042Y-78421253D01*
X58516035Y-78421249D01*
X58392851Y-78373528D01*
X58325856Y-78347574D01*
X58125376Y-78310098D01*
X57921424Y-78310098D01*
X57720944Y-78347574D01*
X57720941Y-78347574D01*
X57720941Y-78347575D01*
X57530764Y-78421249D01*
X57530757Y-78421253D01*
X57357360Y-78528615D01*
X57357358Y-78528617D01*
X57206637Y-78666016D01*
X57083727Y-78828776D01*
X56992822Y-79011337D01*
X56992817Y-79011350D01*
X56937002Y-79207515D01*
X56918185Y-79410597D01*
X56918185Y-79410598D01*
X51465482Y-79410598D01*
X51421781Y-79352221D01*
X51345128Y-79294838D01*
X51303258Y-79238904D01*
X51298274Y-79169212D01*
X51313710Y-79130787D01*
X51394700Y-78998625D01*
X51491107Y-78765877D01*
X51530581Y-78601451D01*
X51565371Y-78540860D01*
X51627397Y-78508696D01*
X51696966Y-78515172D01*
X51751990Y-78558231D01*
X51757801Y-78567888D01*
X51757923Y-78567813D01*
X51760943Y-78572691D01*
X51895020Y-78750238D01*
X52059437Y-78900123D01*
X52059439Y-78900125D01*
X52248595Y-79017245D01*
X52248596Y-79017245D01*
X52248599Y-79017247D01*
X52456060Y-79097618D01*
X52674757Y-79138500D01*
X52674759Y-79138500D01*
X52897241Y-79138500D01*
X52897243Y-79138500D01*
X53115940Y-79097618D01*
X53323401Y-79017247D01*
X53512562Y-78900124D01*
X53652462Y-78772587D01*
X53715266Y-78741971D01*
X53784653Y-78750168D01*
X53819538Y-78772588D01*
X53959437Y-78900123D01*
X53959439Y-78900125D01*
X54148595Y-79017245D01*
X54148596Y-79017245D01*
X54148599Y-79017247D01*
X54356060Y-79097618D01*
X54574757Y-79138500D01*
X54574759Y-79138500D01*
X54797241Y-79138500D01*
X54797243Y-79138500D01*
X55015940Y-79097618D01*
X55223401Y-79017247D01*
X55412562Y-78900124D01*
X55576981Y-78750236D01*
X55711058Y-78572689D01*
X55810229Y-78373528D01*
X55871115Y-78159536D01*
X55891643Y-77938000D01*
X55871115Y-77716464D01*
X55810229Y-77502472D01*
X55722412Y-77326112D01*
X55711061Y-77303316D01*
X55711056Y-77303308D01*
X55576979Y-77125761D01*
X55412562Y-76975876D01*
X55412560Y-76975874D01*
X55223404Y-76858754D01*
X55223398Y-76858752D01*
X55015940Y-76778382D01*
X54797243Y-76737500D01*
X54574757Y-76737500D01*
X54356060Y-76778382D01*
X54224864Y-76829207D01*
X54148601Y-76858752D01*
X54148595Y-76858754D01*
X53959439Y-76975874D01*
X53959437Y-76975876D01*
X53819538Y-77103411D01*
X53756734Y-77134028D01*
X53687347Y-77125830D01*
X53652462Y-77103411D01*
X53512562Y-76975876D01*
X53512560Y-76975874D01*
X53323404Y-76858754D01*
X53323398Y-76858752D01*
X53115940Y-76778382D01*
X52897243Y-76737500D01*
X52674757Y-76737500D01*
X52456060Y-76778382D01*
X52324864Y-76829207D01*
X52248601Y-76858752D01*
X52248595Y-76858754D01*
X52059439Y-76975874D01*
X52059437Y-76975876D01*
X51895020Y-77125761D01*
X51760943Y-77303308D01*
X51760938Y-77303316D01*
X51661775Y-77502461D01*
X51661771Y-77502471D01*
X51644031Y-77564821D01*
X51606751Y-77623914D01*
X51543441Y-77653471D01*
X51474201Y-77644107D01*
X51421016Y-77598797D01*
X51410205Y-77578340D01*
X51394700Y-77540907D01*
X51371149Y-77502476D01*
X51263073Y-77326112D01*
X51263072Y-77326109D01*
X51226109Y-77282832D01*
X51099458Y-77134542D01*
X50913682Y-76975874D01*
X50907890Y-76970927D01*
X50907887Y-76970926D01*
X50693093Y-76839299D01*
X50460344Y-76742892D01*
X50215385Y-76684083D01*
X49964234Y-76664317D01*
X49713082Y-76684083D01*
X49468123Y-76742892D01*
X49235374Y-76839299D01*
X49020580Y-76970926D01*
X49020577Y-76970927D01*
X48829010Y-77134542D01*
X48665395Y-77326109D01*
X48665394Y-77326112D01*
X48533767Y-77540906D01*
X48437360Y-77773655D01*
X48378551Y-78018614D01*
X48358785Y-78269766D01*
X48378551Y-78520917D01*
X48437360Y-78765876D01*
X48533767Y-78998625D01*
X48614754Y-79130782D01*
X48632999Y-79198228D01*
X48611883Y-79264830D01*
X48583339Y-79294838D01*
X48506686Y-79352221D01*
X48420440Y-79467430D01*
X48420436Y-79467437D01*
X48370142Y-79602283D01*
X48366065Y-79640211D01*
X48363735Y-79661889D01*
X48363734Y-79661901D01*
X48363734Y-81957636D01*
X48363735Y-81957642D01*
X48370142Y-82017249D01*
X48420436Y-82152094D01*
X48420440Y-82152101D01*
X48506686Y-82267310D01*
X48506689Y-82267313D01*
X48621898Y-82353559D01*
X48621905Y-82353563D01*
X48660037Y-82367785D01*
X48756751Y-82403857D01*
X48816361Y-82410266D01*
X49239734Y-82410265D01*
X49306773Y-82429949D01*
X49352528Y-82482753D01*
X49363734Y-82534265D01*
X49363734Y-87299564D01*
X49363733Y-87299582D01*
X49363733Y-87465288D01*
X49363732Y-87465288D01*
X49404658Y-87618021D01*
X49417061Y-87639503D01*
X49417062Y-87639505D01*
X49483711Y-87754946D01*
X49483715Y-87754951D01*
X49602583Y-87873819D01*
X49602589Y-87873824D01*
X49923233Y-88194468D01*
X49956718Y-88255791D01*
X49955327Y-88314241D01*
X49920939Y-88442583D01*
X49920936Y-88442596D01*
X49900341Y-88677999D01*
X49900341Y-88678000D01*
X49920936Y-88913403D01*
X49920938Y-88913413D01*
X49982094Y-89141655D01*
X49982096Y-89141659D01*
X49982097Y-89141663D01*
X50023216Y-89229842D01*
X50081965Y-89355830D01*
X50081967Y-89355834D01*
X50104825Y-89388478D01*
X50217501Y-89549396D01*
X50217506Y-89549402D01*
X50384597Y-89716493D01*
X50384603Y-89716498D01*
X50570594Y-89846730D01*
X50614219Y-89901307D01*
X50621413Y-89970805D01*
X50589890Y-90033160D01*
X50570595Y-90049880D01*
X50384922Y-90179890D01*
X50384920Y-90179891D01*
X50217891Y-90346920D01*
X50217886Y-90346926D01*
X50082400Y-90540420D01*
X50082399Y-90540422D01*
X49982570Y-90754507D01*
X49982567Y-90754513D01*
X49925364Y-90967999D01*
X49925364Y-90968000D01*
X50822988Y-90968000D01*
X50790075Y-91025007D01*
X50756000Y-91152174D01*
X50756000Y-91283826D01*
X50790075Y-91410993D01*
X50822988Y-91468000D01*
X49925364Y-91468000D01*
X49982567Y-91681486D01*
X49982570Y-91681492D01*
X50082399Y-91895578D01*
X50217894Y-92089082D01*
X50384917Y-92256105D01*
X50571031Y-92386425D01*
X50614656Y-92441003D01*
X50621848Y-92510501D01*
X50590326Y-92572856D01*
X50571031Y-92589575D01*
X50384922Y-92719890D01*
X50384920Y-92719891D01*
X50217891Y-92886920D01*
X50217886Y-92886926D01*
X50082400Y-93080420D01*
X50082399Y-93080422D01*
X49982570Y-93294507D01*
X49982567Y-93294513D01*
X49925364Y-93507999D01*
X49925364Y-93508000D01*
X50822988Y-93508000D01*
X50790075Y-93565007D01*
X50756000Y-93692174D01*
X50756000Y-93823826D01*
X50790075Y-93950993D01*
X50822988Y-94008000D01*
X49925364Y-94008000D01*
X49982567Y-94221486D01*
X49982570Y-94221492D01*
X50082399Y-94435578D01*
X50217894Y-94629082D01*
X50384917Y-94796105D01*
X50571031Y-94926425D01*
X50614656Y-94981003D01*
X50621848Y-95050501D01*
X50590326Y-95112856D01*
X50571031Y-95129575D01*
X50384922Y-95259890D01*
X50384920Y-95259891D01*
X50217891Y-95426920D01*
X50217886Y-95426926D01*
X50082400Y-95620420D01*
X50082399Y-95620422D01*
X49982570Y-95834507D01*
X49982567Y-95834513D01*
X49925364Y-96047999D01*
X49925364Y-96048000D01*
X50822988Y-96048000D01*
X50790075Y-96105007D01*
X50756000Y-96232174D01*
X50756000Y-96363826D01*
X50790075Y-96490993D01*
X50822988Y-96548000D01*
X49925364Y-96548000D01*
X49982567Y-96761486D01*
X49982570Y-96761492D01*
X50082399Y-96975578D01*
X50217894Y-97169082D01*
X50339946Y-97291134D01*
X50373431Y-97352457D01*
X50368447Y-97422149D01*
X50326575Y-97478082D01*
X50295598Y-97494997D01*
X50163671Y-97544202D01*
X50163664Y-97544206D01*
X50048455Y-97630452D01*
X50048452Y-97630455D01*
X49962206Y-97745664D01*
X49962202Y-97745671D01*
X49911908Y-97880517D01*
X49905501Y-97940116D01*
X49905500Y-97940135D01*
X49905500Y-99735870D01*
X49905501Y-99735876D01*
X49911908Y-99795483D01*
X49962202Y-99930328D01*
X49962206Y-99930335D01*
X50048452Y-100045544D01*
X50048455Y-100045547D01*
X50163664Y-100131793D01*
X50163671Y-100131797D01*
X50298517Y-100182091D01*
X50298516Y-100182091D01*
X50305444Y-100182835D01*
X50358127Y-100188500D01*
X52153872Y-100188499D01*
X52213483Y-100182091D01*
X52348331Y-100131796D01*
X52463546Y-100045546D01*
X52549796Y-99930331D01*
X52598810Y-99798916D01*
X52640681Y-99742984D01*
X52706145Y-99718566D01*
X52774418Y-99733417D01*
X52802673Y-99754569D01*
X52924599Y-99876495D01*
X53021384Y-99944265D01*
X53118165Y-100012032D01*
X53118167Y-100012033D01*
X53118170Y-100012035D01*
X53332337Y-100111903D01*
X53560592Y-100173063D01*
X53737034Y-100188500D01*
X53795999Y-100193659D01*
X53796000Y-100193659D01*
X53796001Y-100193659D01*
X53854966Y-100188500D01*
X54031408Y-100173063D01*
X54259663Y-100111903D01*
X54473830Y-100012035D01*
X54667401Y-99876495D01*
X54834495Y-99709401D01*
X54869925Y-99658802D01*
X54924502Y-99615177D01*
X54994000Y-99607983D01*
X55056355Y-99639506D01*
X55091769Y-99699735D01*
X55095500Y-99729925D01*
X55095500Y-107447992D01*
X55075815Y-107515031D01*
X55023011Y-107560786D01*
X54953853Y-107570730D01*
X54948730Y-107569883D01*
X54802243Y-107542500D01*
X54579757Y-107542500D01*
X54361060Y-107583382D01*
X54229864Y-107634207D01*
X54153601Y-107663752D01*
X54153595Y-107663754D01*
X53964439Y-107780874D01*
X53964437Y-107780876D01*
X53824538Y-107908411D01*
X53761734Y-107939028D01*
X53692347Y-107930830D01*
X53657462Y-107908411D01*
X53517562Y-107780876D01*
X53517560Y-107780874D01*
X53328404Y-107663754D01*
X53328398Y-107663752D01*
X53120940Y-107583382D01*
X52902243Y-107542500D01*
X52679757Y-107542500D01*
X52461060Y-107583382D01*
X52329864Y-107634207D01*
X52253601Y-107663752D01*
X52253595Y-107663754D01*
X52064439Y-107780874D01*
X52064437Y-107780876D01*
X51900020Y-107930761D01*
X51765943Y-108108308D01*
X51765938Y-108108316D01*
X51666775Y-108307461D01*
X51666770Y-108307474D01*
X51607999Y-108514032D01*
X51570720Y-108573125D01*
X51507410Y-108602682D01*
X51438170Y-108593320D01*
X51384984Y-108548010D01*
X51364737Y-108481138D01*
X51364733Y-108480097D01*
X51364733Y-107361895D01*
X51364732Y-107361889D01*
X51364731Y-107361882D01*
X51358325Y-107302283D01*
X51308030Y-107167435D01*
X51308029Y-107167434D01*
X51308027Y-107167430D01*
X51221781Y-107052221D01*
X51145128Y-106994838D01*
X51103258Y-106938904D01*
X51098274Y-106869212D01*
X51113710Y-106830787D01*
X51194700Y-106698625D01*
X51291107Y-106465877D01*
X51349917Y-106220914D01*
X51369683Y-105969766D01*
X51349917Y-105718618D01*
X51291107Y-105473655D01*
X51251409Y-105377815D01*
X51194700Y-105240906D01*
X51063073Y-105026112D01*
X51063072Y-105026109D01*
X51026109Y-104982832D01*
X50899458Y-104834542D01*
X50751121Y-104707850D01*
X50707890Y-104670927D01*
X50707887Y-104670926D01*
X50493093Y-104539299D01*
X50260344Y-104442892D01*
X50015385Y-104384083D01*
X49764234Y-104364317D01*
X49513082Y-104384083D01*
X49268123Y-104442892D01*
X49035374Y-104539299D01*
X48820580Y-104670926D01*
X48820577Y-104670927D01*
X48629010Y-104834542D01*
X48465395Y-105026109D01*
X48465394Y-105026112D01*
X48333767Y-105240906D01*
X48237360Y-105473655D01*
X48178551Y-105718614D01*
X48158785Y-105969766D01*
X47896500Y-105969766D01*
X47896500Y-73685870D01*
X52995500Y-73685870D01*
X52995501Y-73685876D01*
X53001908Y-73745483D01*
X53052202Y-73880328D01*
X53052206Y-73880335D01*
X53138452Y-73995544D01*
X53138455Y-73995547D01*
X53253664Y-74081793D01*
X53253671Y-74081797D01*
X53388517Y-74132091D01*
X53388516Y-74132091D01*
X53395444Y-74132835D01*
X53448127Y-74138500D01*
X55343872Y-74138499D01*
X55403483Y-74132091D01*
X55538331Y-74081796D01*
X55653546Y-73995546D01*
X55739796Y-73880331D01*
X55758092Y-73831274D01*
X55799961Y-73775342D01*
X55865425Y-73750924D01*
X55933699Y-73765775D01*
X55950436Y-73776755D01*
X56127365Y-73914464D01*
X56127371Y-73914468D01*
X56127374Y-73914470D01*
X56331497Y-74024936D01*
X56445487Y-74064068D01*
X56551015Y-74100297D01*
X56551017Y-74100297D01*
X56551019Y-74100298D01*
X56779951Y-74138500D01*
X56779952Y-74138500D01*
X57012048Y-74138500D01*
X57012049Y-74138500D01*
X57240981Y-74100298D01*
X57460503Y-74024936D01*
X57664626Y-73914470D01*
X57847784Y-73771913D01*
X58004979Y-73601153D01*
X58042191Y-73544196D01*
X58095337Y-73498839D01*
X58164569Y-73489415D01*
X58227904Y-73518917D01*
X58249809Y-73544196D01*
X58287016Y-73601147D01*
X58287019Y-73601151D01*
X58287021Y-73601153D01*
X58444216Y-73771913D01*
X58444219Y-73771915D01*
X58444222Y-73771918D01*
X58627365Y-73914464D01*
X58627371Y-73914468D01*
X58627374Y-73914470D01*
X58831497Y-74024936D01*
X58945487Y-74064068D01*
X59051015Y-74100297D01*
X59051017Y-74100297D01*
X59051019Y-74100298D01*
X59279951Y-74138500D01*
X59279952Y-74138500D01*
X59512048Y-74138500D01*
X59512049Y-74138500D01*
X59740981Y-74100298D01*
X59960503Y-74024936D01*
X60164626Y-73914470D01*
X60347784Y-73771913D01*
X60504979Y-73601153D01*
X60631924Y-73406849D01*
X60725157Y-73194300D01*
X60782134Y-72969305D01*
X60801300Y-72738000D01*
X60801300Y-72737993D01*
X60782135Y-72506702D01*
X60782133Y-72506691D01*
X60725157Y-72281699D01*
X60631924Y-72069151D01*
X60504983Y-71874852D01*
X60504980Y-71874849D01*
X60504979Y-71874847D01*
X60347784Y-71704087D01*
X60347779Y-71704083D01*
X60347777Y-71704081D01*
X60164634Y-71561535D01*
X60164628Y-71561531D01*
X59960504Y-71451064D01*
X59960495Y-71451061D01*
X59740984Y-71375702D01*
X59550450Y-71343908D01*
X59512049Y-71337500D01*
X59279951Y-71337500D01*
X59241550Y-71343908D01*
X59051015Y-71375702D01*
X58831504Y-71451061D01*
X58831495Y-71451064D01*
X58627371Y-71561531D01*
X58627365Y-71561535D01*
X58444222Y-71704081D01*
X58444219Y-71704084D01*
X58444216Y-71704086D01*
X58444216Y-71704087D01*
X58296500Y-71864551D01*
X58287015Y-71874854D01*
X58249808Y-71931804D01*
X58196662Y-71977161D01*
X58127430Y-71986584D01*
X58064095Y-71957082D01*
X58042192Y-71931804D01*
X58004984Y-71874854D01*
X58004982Y-71874852D01*
X58004979Y-71874847D01*
X57847784Y-71704087D01*
X57847779Y-71704083D01*
X57847777Y-71704081D01*
X57664634Y-71561535D01*
X57664628Y-71561531D01*
X57460504Y-71451064D01*
X57460495Y-71451061D01*
X57240984Y-71375702D01*
X57050450Y-71343908D01*
X57012049Y-71337500D01*
X56779951Y-71337500D01*
X56741550Y-71343908D01*
X56551015Y-71375702D01*
X56331504Y-71451061D01*
X56331495Y-71451064D01*
X56127372Y-71561531D01*
X55950436Y-71699245D01*
X55885442Y-71724887D01*
X55816902Y-71711320D01*
X55766577Y-71662852D01*
X55758092Y-71644723D01*
X55739798Y-71595673D01*
X55739793Y-71595664D01*
X55653547Y-71480455D01*
X55653544Y-71480452D01*
X55538335Y-71394206D01*
X55538328Y-71394202D01*
X55403482Y-71343908D01*
X55403483Y-71343908D01*
X55343883Y-71337501D01*
X55343881Y-71337500D01*
X55343873Y-71337500D01*
X55343864Y-71337500D01*
X53448129Y-71337500D01*
X53448123Y-71337501D01*
X53388516Y-71343908D01*
X53253671Y-71394202D01*
X53253664Y-71394206D01*
X53138455Y-71480452D01*
X53138452Y-71480455D01*
X53052206Y-71595664D01*
X53052202Y-71595671D01*
X53001908Y-71730517D01*
X52995501Y-71790116D01*
X52995500Y-71790135D01*
X52995500Y-73685870D01*
X47896500Y-73685870D01*
X47896500Y-65619951D01*
X50235500Y-65619951D01*
X50262013Y-65821333D01*
X50267334Y-65861744D01*
X50267335Y-65861746D01*
X50330456Y-66097320D01*
X50330459Y-66097330D01*
X50423786Y-66322640D01*
X50423791Y-66322651D01*
X50545727Y-66533848D01*
X50545738Y-66533864D01*
X50694199Y-66727343D01*
X50694205Y-66727350D01*
X50866649Y-66899794D01*
X50866655Y-66899799D01*
X51060144Y-67048268D01*
X51060151Y-67048272D01*
X51271348Y-67170208D01*
X51271353Y-67170210D01*
X51271356Y-67170212D01*
X51496679Y-67263544D01*
X51732256Y-67326666D01*
X51974056Y-67358500D01*
X51974063Y-67358500D01*
X52217937Y-67358500D01*
X52217944Y-67358500D01*
X52459744Y-67326666D01*
X52695321Y-67263544D01*
X52920644Y-67170212D01*
X53131856Y-67048268D01*
X53325345Y-66899799D01*
X53497799Y-66727345D01*
X53646268Y-66533856D01*
X53768212Y-66322644D01*
X53861544Y-66097321D01*
X53924666Y-65861744D01*
X53956499Y-65619951D01*
X59835500Y-65619951D01*
X59862013Y-65821333D01*
X59867334Y-65861744D01*
X59867335Y-65861746D01*
X59930456Y-66097320D01*
X59930459Y-66097330D01*
X60023786Y-66322640D01*
X60023791Y-66322651D01*
X60145727Y-66533848D01*
X60145738Y-66533864D01*
X60294199Y-66727343D01*
X60294205Y-66727350D01*
X60466649Y-66899794D01*
X60466655Y-66899799D01*
X60660144Y-67048268D01*
X60660151Y-67048272D01*
X60871348Y-67170208D01*
X60871353Y-67170210D01*
X60871356Y-67170212D01*
X61096679Y-67263544D01*
X61332256Y-67326666D01*
X61574056Y-67358500D01*
X61574063Y-67358500D01*
X61817937Y-67358500D01*
X61817944Y-67358500D01*
X62059744Y-67326666D01*
X62295321Y-67263544D01*
X62520644Y-67170212D01*
X62731856Y-67048268D01*
X62925345Y-66899799D01*
X63097799Y-66727345D01*
X63246268Y-66533856D01*
X63368212Y-66322644D01*
X63461544Y-66097321D01*
X63524666Y-65861744D01*
X63556500Y-65619944D01*
X63556500Y-64856056D01*
X63524666Y-64614256D01*
X63461544Y-64378679D01*
X63368212Y-64153356D01*
X63368210Y-64153353D01*
X63368208Y-64153348D01*
X63246272Y-63942151D01*
X63246268Y-63942144D01*
X63097799Y-63748655D01*
X63097794Y-63748649D01*
X62925350Y-63576205D01*
X62925343Y-63576199D01*
X62731864Y-63427738D01*
X62731862Y-63427736D01*
X62731856Y-63427732D01*
X62731851Y-63427729D01*
X62731848Y-63427727D01*
X62520651Y-63305791D01*
X62520640Y-63305786D01*
X62295330Y-63212459D01*
X62295323Y-63212457D01*
X62295321Y-63212456D01*
X62059744Y-63149334D01*
X62019333Y-63144013D01*
X61817951Y-63117500D01*
X61817944Y-63117500D01*
X61574056Y-63117500D01*
X61574048Y-63117500D01*
X61343896Y-63147801D01*
X61332256Y-63149334D01*
X61096679Y-63212456D01*
X61096669Y-63212459D01*
X60871359Y-63305786D01*
X60871348Y-63305791D01*
X60660151Y-63427727D01*
X60660135Y-63427738D01*
X60466656Y-63576199D01*
X60466649Y-63576205D01*
X60294205Y-63748649D01*
X60294199Y-63748656D01*
X60145738Y-63942135D01*
X60145727Y-63942151D01*
X60023791Y-64153348D01*
X60023786Y-64153359D01*
X59930459Y-64378669D01*
X59930456Y-64378679D01*
X59867335Y-64614253D01*
X59867333Y-64614264D01*
X59835500Y-64856048D01*
X59835500Y-65619951D01*
X53956499Y-65619951D01*
X53956500Y-65619944D01*
X53956500Y-64856056D01*
X53924666Y-64614256D01*
X53861544Y-64378679D01*
X53768212Y-64153356D01*
X53768210Y-64153353D01*
X53768208Y-64153348D01*
X53646272Y-63942151D01*
X53646268Y-63942144D01*
X53497799Y-63748655D01*
X53497794Y-63748649D01*
X53325350Y-63576205D01*
X53325343Y-63576199D01*
X53131864Y-63427738D01*
X53131862Y-63427736D01*
X53131856Y-63427732D01*
X53131851Y-63427729D01*
X53131848Y-63427727D01*
X52920651Y-63305791D01*
X52920640Y-63305786D01*
X52695330Y-63212459D01*
X52695323Y-63212457D01*
X52695321Y-63212456D01*
X52459744Y-63149334D01*
X52419333Y-63144013D01*
X52217951Y-63117500D01*
X52217944Y-63117500D01*
X51974056Y-63117500D01*
X51974048Y-63117500D01*
X51743896Y-63147801D01*
X51732256Y-63149334D01*
X51496679Y-63212456D01*
X51496669Y-63212459D01*
X51271359Y-63305786D01*
X51271348Y-63305791D01*
X51060151Y-63427727D01*
X51060135Y-63427738D01*
X50866656Y-63576199D01*
X50866649Y-63576205D01*
X50694205Y-63748649D01*
X50694199Y-63748656D01*
X50545738Y-63942135D01*
X50545727Y-63942151D01*
X50423791Y-64153348D01*
X50423786Y-64153359D01*
X50330459Y-64378669D01*
X50330456Y-64378679D01*
X50267335Y-64614253D01*
X50267333Y-64614264D01*
X50235500Y-64856048D01*
X50235500Y-65619951D01*
X47896500Y-65619951D01*
X47896500Y-40862500D01*
X47916185Y-40795461D01*
X47968989Y-40749706D01*
X48020500Y-40738500D01*
X65871500Y-40738500D01*
X65938539Y-40758185D01*
G37*
%TD.AperFunction*%
%TD*%
M02*
