<?xml version="1.0" encoding="UTF-8" standalone="no"?>
<!-- Created with Inkscape (http://www.inkscape.org/) -->

<svg
   version="1.1"
   id="svg1"
   width="345.07068"
   height="485.66934"
   viewBox="0 0 345.07068 485.66934"
   sodipodi:docname="marbles_v70_3.svg"
   inkscape:version="1.3.2 (091e20e, 2023-11-25, custom)"
   xml:space="preserve"
   inkscape:export-filename="marbles_v70_4.png"
   inkscape:export-xdpi="700"
   inkscape:export-ydpi="700"
   xmlns:inkscape="http://www.inkscape.org/namespaces/inkscape"
   xmlns:sodipodi="http://sodipodi.sourceforge.net/DTD/sodipodi-0.dtd"
   xmlns="http://www.w3.org/2000/svg"
   xmlns:svg="http://www.w3.org/2000/svg"><defs
     id="defs1"><clipPath
       clipPathUnits="userSpaceOnUse"
       id="clipPath224"><path
         d="M 0,364.252 H 258.803 V 0 H 0 Z"
         transform="translate(-213.17871,-313.33841)"
         id="path224" /></clipPath><clipPath
       clipPathUnits="userSpaceOnUse"
       id="clipPath226"><path
         d="M 0,364.252 H 258.803 V 0 H 0 Z"
         transform="translate(-26.931601,-161.11921)"
         id="path226" /></clipPath><clipPath
       clipPathUnits="userSpaceOnUse"
       id="clipPath228"><path
         d="M 0,364.252 H 258.803 V 0 H 0 Z"
         transform="translate(-231.87501,-161.11921)"
         id="path228" /></clipPath><clipPath
       clipPathUnits="userSpaceOnUse"
       id="clipPath596"><path
         d="M 0,364.252 H 258.803 V 0 H 0 Z"
         transform="translate(-19.560501,-272.8082)"
         id="path596" /></clipPath><clipPath
       clipPathUnits="userSpaceOnUse"
       id="clipPath598"><path
         d="M 0,364.252 H 258.803 V 0 H 0 Z"
         transform="translate(-239.2441,-272.8082)"
         id="path598" /></clipPath><clipPath
       clipPathUnits="userSpaceOnUse"
       id="clipPath600"><path
         d="M 0,364.252 H 258.803 V 0 H 0 Z"
         transform="translate(-65.370101,-220.00741)"
         id="path600" /></clipPath><clipPath
       clipPathUnits="userSpaceOnUse"
       id="clipPath602"><path
         d="M 0,364.252 H 258.803 V 0 H 0 Z"
         transform="translate(-239.1562,-252.8594)"
         id="path602" /></clipPath><clipPath
       clipPathUnits="userSpaceOnUse"
       id="clipPath604"><path
         d="M 0,364.252 H 258.803 V 0 H 0 Z"
         transform="translate(-19.651401,-252.8594)"
         id="path604" /></clipPath><clipPath
       clipPathUnits="userSpaceOnUse"
       id="clipPath704"><path
         d="M 0,364.252 H 258.803 V 0 H 0 Z"
         transform="translate(-193.4697,-220.565)"
         id="path704" /></clipPath><clipPath
       clipPathUnits="userSpaceOnUse"
       id="clipPath706"><path
         d="M 0,364.252 H 258.803 V 0 H 0 Z"
         transform="translate(-129.4033,-172.3487)"
         id="path706" /></clipPath><clipPath
       clipPathUnits="userSpaceOnUse"
       id="clipPath716"><path
         d="M 0,364.252 H 258.803 V 0 H 0 Z"
         transform="translate(-89.5684,-117.1031)"
         id="path716" /></clipPath><clipPath
       clipPathUnits="userSpaceOnUse"
       id="clipPath718"><path
         d="M 0,364.252 H 258.803 V 0 H 0 Z"
         transform="translate(-169.72851,-117.1036)"
         id="path718" /></clipPath><filter
       style="color-interpolation-filters:sRGB;"
       inkscape:label="Invert"
       id="filter4774"
       x="0"
       y="0"
       width="1"
       height="1"><feColorMatrix
         type="hueRotate"
         values="180"
         result="color1"
         id="feColorMatrix4773" /><feColorMatrix
         values="-1 0 0 0 1 0 -1 0 0 1 0 0 -1 0 1 -0.21 -0.72 -0.07 2 0 "
         result="color2"
         id="feColorMatrix4774" /></filter><filter
       style="color-interpolation-filters:sRGB;"
       inkscape:label="Invert"
       id="filter4776"
       x="0"
       y="0"
       width="1"
       height="1"><feColorMatrix
         type="hueRotate"
         values="180"
         result="color1"
         id="feColorMatrix4775" /><feColorMatrix
         values="-1 0 0 0 1 0 -1 0 0 1 0 0 -1 0 1 -0.21 -0.72 -0.07 2 0 "
         result="color2"
         id="feColorMatrix4776" /></filter></defs><sodipodi:namedview
     id="namedview1"
     pagecolor="#000000"
     bordercolor="#000000"
     borderopacity="0"
     inkscape:showpageshadow="2"
     inkscape:pageopacity="0.0"
     inkscape:pagecheckerboard="false"
     inkscape:deskcolor="#d1d1d1"
     inkscape:zoom="1.2076118"
     inkscape:cx="-68.730699"
     inkscape:cy="104.75221"
     inkscape:window-width="2560"
     inkscape:window-height="1369"
     inkscape:window-x="-8"
     inkscape:window-y="-8"
     inkscape:window-maximized="1"
     inkscape:current-layer="layer5"
     showguides="false"
     showborder="true"
     inkscape:export-bgcolor="#00000000"><inkscape:page
       x="0"
       y="0"
       inkscape:label="1"
       id="page1"
       width="345.07068"
       height="485.66934"
       margin="5.1250401 0 2.9906666 0.083333328"
       bleed="0"
       inkscape:export-filename="marbles_v70_ening.svg"
       inkscape:export-xdpi="700"
       inkscape:export-ydpi="700" /></sodipodi:namedview><g
     inkscape:groupmode="layer"
     id="layer3"
     inkscape:label="Ening"
     style="display:inline"><path
       id="path223"
       d="m 0,0 h -0.397 c -0.277,0 -0.5,0.224 -0.5,0.5 0,0.276 0.223,0.5 0.5,0.5 H 0 C 0.276,1 0.5,0.776 0.5,0.5 0.5,0.224 0.276,0 0,0 m -167.058,0 h -0.002 -0.497 c -0.276,0 -0.5,0.224 -0.5,0.5 0,0.276 0.224,0.5 0.5,0.5 h 0.501 c 0.276,-0.001 0.499,-0.226 0.498,-0.502 C -166.559,0.222 -166.782,0 -167.058,0 M -2.897,-0.015 c -0.276,0 -0.498,0.222 -0.5,0.496 -0.002,0.276 0.219,0.502 0.495,0.504 l 0.501,0.005 h 0.004 c 0.273,0 0.498,-0.221 0.5,-0.496 0.001,-0.276 -0.22,-0.502 -0.497,-0.504 l -0.499,-0.005 z m -161.661,-0.001 h -0.005 l -0.499,0.005 c -0.276,0.002 -0.498,0.228 -0.496,0.504 0.002,0.276 0.182,0.519 0.504,0.496 l 0.502,-0.005 c 0.277,-0.004 0.497,-0.23 0.494,-0.506 -0.003,-0.274 -0.226,-0.494 -0.5,-0.494 M -5.396,-0.051 c -0.271,0 -0.494,0.217 -0.5,0.489 -0.005,0.276 0.214,0.505 0.489,0.511 l 0.503,0.009 C -4.585,0.944 -4.4,0.743 -4.396,0.467 -4.391,0.191 -4.61,-0.037 -4.887,-0.042 l -0.498,-0.009 z m -156.665,-0.004 h -0.006 l -0.501,0.01 c -0.277,0.005 -0.496,0.232 -0.492,0.509 0.005,0.276 0.228,0.473 0.509,0.491 l 0.501,-0.01 c 0.276,-0.006 0.495,-0.234 0.489,-0.51 -0.005,-0.272 -0.228,-0.49 -0.5,-0.49 M -7.895,-0.112 c -0.269,0 -0.492,0.214 -0.5,0.485 -0.007,0.276 0.209,0.506 0.486,0.515 l 0.502,0.014 C -7.102,0.904 -6.901,0.69 -6.895,0.415 -6.888,0.139 -7.106,-0.091 -7.382,-0.098 L -7.88,-0.112 Z m -151.667,-0.005 h -0.015 l -0.499,0.014 c -0.277,0.009 -0.493,0.239 -0.486,0.515 0.008,0.276 0.229,0.471 0.515,0.485 l 0.499,-0.014 c 0.277,-0.008 0.493,-0.239 0.486,-0.515 -0.008,-0.271 -0.231,-0.485 -0.5,-0.485 m 149.171,-0.082 c -0.266,0 -0.488,0.211 -0.5,0.48 -0.01,0.276 0.203,0.509 0.48,0.52 l 0.502,0.019 c 0.281,0.013 0.508,-0.205 0.518,-0.48 0.01,-0.276 -0.205,-0.508 -0.481,-0.519 l -0.498,-0.019 c -0.007,-0.001 -0.014,-0.001 -0.021,-0.001 m -146.674,-0.008 c 0,0 -0.014,0 -0.021,0.001 l -0.497,0.02 c -0.276,0.01 -0.491,0.243 -0.481,0.519 0.01,0.275 0.228,0.503 0.518,0.48 l 0.501,-0.02 c 0.276,-0.011 0.49,-0.244 0.48,-0.52 -0.012,-0.269 -0.234,-0.48 -0.5,-0.48 m 144.177,-0.105 c -0.264,0 -0.486,0.208 -0.499,0.475 -0.013,0.276 0.199,0.51 0.474,0.524 l 0.5,0.025 c 0.256,0.019 0.51,-0.199 0.523,-0.474 0.014,-0.276 -0.198,-0.511 -0.474,-0.525 l -0.498,-0.025 c -0.009,0 -0.018,0 -0.026,0 m -141.681,-0.011 c -0.009,0 -0.018,0 -0.027,0.001 l -0.497,0.025 c -0.276,0.014 -0.488,0.249 -0.474,0.525 0.013,0.274 0.27,0.483 0.523,0.474 l 0.501,-0.025 c 0.275,-0.015 0.487,-0.25 0.473,-0.526 -0.014,-0.267 -0.235,-0.474 -0.499,-0.474 m 139.187,-0.132 c -0.263,0 -0.482,0.205 -0.499,0.47 -0.016,0.275 0.193,0.512 0.468,0.529 l 0.5,0.031 c 0.266,0.013 0.512,-0.193 0.529,-0.468 0.017,-0.276 -0.192,-0.513 -0.469,-0.53 l -0.498,-0.031 c -0.01,0 -0.021,-0.001 -0.031,-0.001 m -136.692,-0.014 c -0.012,0 -0.023,10e-4 -0.033,10e-4 l -0.497,0.032 c -0.277,0.017 -0.486,0.254 -0.469,0.53 0.017,0.276 0.268,0.486 0.529,0.468 l 0.501,-0.032 c 0.275,-0.018 0.484,-0.256 0.467,-0.531 -0.018,-0.265 -0.237,-0.468 -0.498,-0.468 m 134.2,-0.158 c -0.259,0 -0.478,0.199 -0.497,0.461 -0.022,0.275 0.184,0.516 0.46,0.537 l 0.5,0.037 c 0.246,0.026 0.515,-0.186 0.535,-0.462 0.02,-0.275 -0.187,-0.515 -0.463,-0.535 l -0.496,-0.037 c -0.013,-0.001 -0.025,-0.001 -0.039,-0.001 m -131.709,-0.019 c -0.014,0 -0.026,0 -0.039,0.001 l -0.498,0.039 c -0.275,0.021 -0.482,0.261 -0.461,0.536 0.02,0.275 0.262,0.485 0.537,0.461 l 0.498,-0.038 c 0.276,-0.021 0.482,-0.262 0.46,-0.538 -0.019,-0.262 -0.239,-0.461 -0.497,-0.461 m 129.219,-0.187 c -0.256,0 -0.474,0.196 -0.497,0.456 -0.025,0.275 0.178,0.518 0.454,0.542 l 0.498,0.044 c 0.269,0.029 0.517,-0.179 0.542,-0.455 0.024,-0.275 -0.18,-0.517 -0.454,-0.541 l -0.498,-0.044 c -0.015,-0.002 -0.03,-0.002 -0.045,-0.002 m -126.729,-0.023 c -0.015,0 -0.031,0.001 -0.047,0.002 l -0.496,0.045 c -0.274,0.024 -0.478,0.267 -0.454,0.541 0.025,0.275 0.28,0.481 0.542,0.455 l 0.5,-0.045 c 0.275,-0.025 0.478,-0.268 0.452,-0.544 -0.024,-0.259 -0.242,-0.454 -0.497,-0.454 m 124.242,-0.217 c -0.253,0 -0.469,0.191 -0.496,0.448 -0.029,0.275 0.17,0.521 0.446,0.549 l 0.499,0.051 c 0.261,0.03 0.519,-0.173 0.546,-0.448 0.029,-0.275 -0.172,-0.52 -0.447,-0.547 l -0.495,-0.051 c -0.017,-0.001 -0.035,-0.002 -0.053,-0.002 m -121.756,-0.028 c -0.019,0 -0.037,10e-4 -0.054,0.003 l -0.495,0.051 c -0.276,0.028 -0.475,0.274 -0.447,0.549 0.029,0.275 0.298,0.471 0.548,0.446 l 0.499,-0.052 c 0.275,-0.029 0.474,-0.275 0.445,-0.55 -0.028,-0.257 -0.244,-0.447 -0.496,-0.447 m 119.274,-0.25 c -0.25,0 -0.466,0.187 -0.495,0.442 -0.033,0.274 0.163,0.522 0.437,0.555 l 0.496,0.059 c 0.262,0.037 0.523,-0.164 0.554,-0.438 0.034,-0.275 -0.162,-0.523 -0.436,-0.556 l -0.497,-0.058 c -0.019,-0.003 -0.039,-0.004 -0.059,-0.004 m -116.792,-0.033 c -0.02,0 -0.041,10e-4 -0.062,0.004 l -0.494,0.059 c -0.274,0.032 -0.47,0.281 -0.437,0.555 0.031,0.275 0.271,0.473 0.555,0.438 l 0.498,-0.059 c 0.273,-0.034 0.468,-0.283 0.435,-0.557 -0.03,-0.254 -0.246,-0.44 -0.495,-0.44 m 114.314,-0.282 c -0.246,0 -0.46,0.182 -0.494,0.433 -0.038,0.273 0.154,0.525 0.428,0.563 l 0.497,0.066 c 0.272,0.035 0.524,-0.155 0.562,-0.43 0.036,-0.273 -0.158,-0.525 -0.431,-0.561 l -0.494,-0.066 c -0.022,-0.003 -0.045,-0.005 -0.068,-0.005 m -111.836,-0.039 c -0.023,0 -0.046,0.001 -0.069,0.004 l -0.495,0.068 c -0.273,0.037 -0.465,0.289 -0.428,0.562 0.036,0.274 0.284,0.463 0.563,0.429 l 0.495,-0.067 c 0.274,-0.038 0.466,-0.291 0.428,-0.564 -0.034,-0.25 -0.248,-0.432 -0.494,-0.432 m 109.365,-0.317 c -0.242,0 -0.456,0.177 -0.493,0.425 -0.042,0.273 0.146,0.528 0.419,0.569 l 0.495,0.075 c 0.266,0.033 0.528,-0.147 0.568,-0.42 0.041,-0.273 -0.146,-0.527 -0.42,-0.569 l -0.493,-0.074 c -0.025,-0.004 -0.051,-0.006 -0.076,-0.006 m -106.895,-0.045 c -0.025,0 -0.052,0.002 -0.077,0.005 l -0.492,0.076 c -0.274,0.041 -0.461,0.296 -0.42,0.569 0.04,0.273 0.303,0.46 0.568,0.42 l 0.496,-0.076 c 0.274,-0.043 0.46,-0.298 0.418,-0.571 -0.038,-0.247 -0.251,-0.423 -0.493,-0.423 m 104.43,-0.353 c -0.239,0 -0.45,0.172 -0.492,0.416 -0.046,0.272 0.136,0.53 0.409,0.576 l 0.494,0.084 c 0.281,0.046 0.53,-0.139 0.575,-0.412 0.045,-0.272 -0.138,-0.53 -0.412,-0.575 l -0.489,-0.082 c -0.028,-0.005 -0.057,-0.007 -0.085,-0.007 m -101.965,-0.052 c -0.028,0 -0.058,0.002 -0.086,0.007 l -0.491,0.084 c -0.273,0.046 -0.456,0.304 -0.41,0.576 0.047,0.273 0.312,0.451 0.576,0.41 l 0.495,-0.084 c 0.273,-0.047 0.455,-0.306 0.408,-0.578 -0.042,-0.244 -0.254,-0.415 -0.492,-0.415 m 99.507,-0.391 c -0.235,0 -0.445,0.168 -0.49,0.407 -0.052,0.272 0.127,0.533 0.398,0.584 l 0.492,0.093 c 0.265,0.05 0.533,-0.127 0.583,-0.399 0.051,-0.272 -0.128,-0.533 -0.399,-0.584 l -0.49,-0.092 c -0.032,-0.006 -0.063,-0.009 -0.094,-0.009 m -97.051,-0.058 c -0.031,0 -0.063,0.003 -0.095,0.009 l -0.489,0.093 c -0.271,0.051 -0.45,0.312 -0.399,0.584 0.051,0.272 0.315,0.448 0.583,0.399 l 0.493,-0.094 c 0.271,-0.052 0.449,-0.314 0.397,-0.585 -0.046,-0.239 -0.255,-0.406 -0.49,-0.406 m 94.601,-0.429 c -0.232,0 -0.44,0.162 -0.489,0.398 -0.056,0.27 0.118,0.535 0.387,0.592 l 0.491,0.101 c 0.264,0.054 0.536,-0.118 0.591,-0.389 0.055,-0.271 -0.119,-0.535 -0.389,-0.591 l -0.489,-0.101 c -0.034,-0.007 -0.068,-0.01 -0.102,-0.01 m -92.155,-0.064 c -0.034,0 -0.068,0.004 -0.103,0.011 l -0.486,0.102 c -0.271,0.055 -0.445,0.32 -0.39,0.59 0.056,0.271 0.322,0.442 0.591,0.389 l 0.492,-0.102 c 0.269,-0.057 0.442,-0.323 0.386,-0.593 -0.05,-0.235 -0.258,-0.397 -0.49,-0.397 m 89.716,-0.467 c -0.229,0 -0.435,0.157 -0.487,0.389 -0.062,0.27 0.107,0.537 0.377,0.598 l 0.488,0.11 c 0.273,0.061 0.537,-0.109 0.598,-0.378 0.06,-0.269 -0.11,-0.537 -0.379,-0.597 l -0.486,-0.11 c -0.038,-0.008 -0.075,-0.012 -0.111,-0.012 m -87.277,-0.07 c -0.036,0 -0.074,0.004 -0.111,0.013 l -0.486,0.11 c -0.269,0.061 -0.439,0.328 -0.379,0.598 0.062,0.269 0.328,0.439 0.598,0.378 l 0.489,-0.111 c 0.27,-0.062 0.438,-0.33 0.376,-0.6 -0.053,-0.231 -0.259,-0.388 -0.487,-0.388 m 84.849,-0.506 c -0.226,0 -0.43,0.153 -0.487,0.381 -0.066,0.268 0.099,0.539 0.367,0.605 l 0.488,0.118 c 0.268,0.068 0.539,-0.1 0.603,-0.368 0.065,-0.269 -0.1,-0.539 -0.369,-0.604 l -0.483,-0.117 c -0.04,-0.01 -0.08,-0.015 -0.119,-0.015 m -82.42,-0.074 c -0.04,0 -0.081,0.005 -0.122,0.015 l -0.482,0.119 c -0.268,0.065 -0.433,0.336 -0.367,0.605 0.065,0.267 0.343,0.431 0.603,0.367 l 0.49,-0.121 c 0.267,-0.067 0.43,-0.339 0.363,-0.607 -0.058,-0.226 -0.262,-0.378 -0.485,-0.378 m 80,-0.541 c -0.222,0 -0.425,0.148 -0.484,0.373 -0.07,0.267 0.09,0.54 0.357,0.611 l 0.483,0.126 c 0.269,0.07 0.54,-0.089 0.61,-0.357 0.071,-0.267 -0.089,-0.54 -0.356,-0.611 l -0.483,-0.126 c -0.043,-0.011 -0.085,-0.016 -0.127,-0.016 m -77.581,-0.077 c -0.042,0 -0.084,0.005 -0.127,0.016 l -0.482,0.127 c -0.267,0.069 -0.429,0.341 -0.359,0.609 0.069,0.267 0.338,0.43 0.609,0.358 l 0.486,-0.126 c 0.266,-0.07 0.426,-0.344 0.356,-0.611 -0.059,-0.224 -0.262,-0.373 -0.483,-0.373 m 75.171,-0.575 c -0.219,0 -0.419,0.145 -0.481,0.366 -0.074,0.266 0.082,0.542 0.348,0.616 l 0.482,0.133 c 0.266,0.073 0.541,-0.083 0.615,-0.349 0.074,-0.266 -0.083,-0.542 -0.349,-0.615 l -0.481,-0.133 c -0.045,-0.012 -0.09,-0.018 -0.134,-0.018 m -72.762,-0.079 c -0.044,0 -0.089,0.006 -0.134,0.018 l -0.481,0.133 c -0.266,0.073 -0.422,0.349 -0.349,0.615 0.073,0.266 0.353,0.423 0.615,0.349 l 0.483,-0.133 c 0.265,-0.074 0.421,-0.35 0.347,-0.616 -0.061,-0.221 -0.262,-0.366 -0.481,-0.366 m 70.36,-0.602 c -0.218,0 -0.417,0.143 -0.48,0.362 -0.077,0.265 0.075,0.542 0.341,0.619 l 0.481,0.138 c 0.267,0.078 0.543,-0.077 0.619,-0.342 0.076,-0.266 -0.077,-0.543 -0.342,-0.619 l -0.48,-0.138 c -0.047,-0.013 -0.093,-0.02 -0.139,-0.02 m -67.959,-0.08 c -0.046,0 -0.093,0.006 -0.14,0.02 l -0.477,0.138 c -0.266,0.076 -0.419,0.352 -0.343,0.618 0.075,0.265 0.347,0.42 0.618,0.343 l 0.482,-0.139 c 0.265,-0.077 0.418,-0.355 0.341,-0.62 -0.065,-0.218 -0.264,-0.36 -0.481,-0.36 m 65.564,-0.62 c -0.216,0 -0.415,0.141 -0.48,0.358 -0.079,0.265 0.073,0.543 0.337,0.621 l 0.48,0.141 c 0.264,0.078 0.543,-0.073 0.622,-0.338 0.078,-0.264 -0.074,-0.543 -0.338,-0.621 l -0.481,-0.141 c -0.047,-0.014 -0.094,-0.02 -0.14,-0.02 m -63.166,-0.079 c -0.047,0 -0.095,0.007 -0.143,0.021 l -0.478,0.14 c -0.264,0.078 -0.417,0.356 -0.338,0.621 0.076,0.263 0.353,0.418 0.62,0.339 l 0.481,-0.142 c 0.265,-0.079 0.415,-0.357 0.337,-0.622 -0.064,-0.217 -0.264,-0.357 -0.479,-0.357 m 60.771,-0.63 c -0.215,0 -0.414,0.14 -0.478,0.357 -0.079,0.265 0.072,0.543 0.336,0.622 l 0.481,0.143 c 0.266,0.079 0.543,-0.073 0.621,-0.338 0.078,-0.265 -0.073,-0.543 -0.339,-0.621 L -54.4,-7.793 c -0.048,-0.014 -0.096,-0.021 -0.144,-0.021 m -58.378,-0.075 c -0.047,0 -0.094,0.007 -0.141,0.021 l -0.48,0.141 c -0.265,0.078 -0.416,0.356 -0.338,0.621 0.079,0.265 0.36,0.416 0.621,0.338 l 0.48,-0.141 c 0.264,-0.078 0.416,-0.356 0.338,-0.621 -0.065,-0.218 -0.264,-0.359 -0.48,-0.359 m 55.984,-0.628 c -0.216,0 -0.416,0.142 -0.48,0.361 -0.076,0.265 0.076,0.542 0.342,0.619 l 0.476,0.139 c 0.269,0.079 0.543,-0.073 0.621,-0.338 0.079,-0.265 -0.073,-0.543 -0.337,-0.621 l -0.483,-0.141 c -0.046,-0.013 -0.093,-0.019 -0.139,-0.019 m -53.585,-0.07 c -0.045,0 -0.091,0.006 -0.137,0.019 l -0.484,0.139 c -0.265,0.077 -0.418,0.355 -0.341,0.62 0.076,0.265 0.354,0.416 0.619,0.341 l 0.479,-0.138 c 0.266,-0.076 0.42,-0.352 0.344,-0.618 -0.062,-0.22 -0.263,-0.363 -0.48,-0.363 m 51.182,-0.612 c -0.219,0 -0.419,0.145 -0.48,0.366 -0.075,0.267 0.082,0.542 0.347,0.616 l 0.483,0.134 c 0.265,0.073 0.541,-0.084 0.615,-0.349 0.073,-0.266 -0.084,-0.542 -0.35,-0.615 l -0.48,-0.134 c -0.045,-0.012 -0.09,-0.018 -0.135,-0.018 m -48.78,-0.063 c -0.043,0 -0.088,0.005 -0.132,0.017 l -0.483,0.134 c -0.266,0.073 -0.422,0.349 -0.348,0.615 0.073,0.266 0.348,0.422 0.615,0.349 l 0.48,-0.133 c 0.266,-0.073 0.423,-0.347 0.35,-0.614 -0.06,-0.222 -0.262,-0.368 -0.482,-0.368 m 46.371,-0.583 c -0.224,0 -0.427,0.15 -0.484,0.376 -0.069,0.268 0.092,0.54 0.36,0.609 l 0.48,0.125 c 0.272,0.069 0.542,-0.09 0.612,-0.356 0.07,-0.267 -0.089,-0.541 -0.356,-0.611 l -0.488,-0.127 c -0.042,-0.011 -0.083,-0.016 -0.124,-0.016 M -105.707,-9.9 c -0.04,0 -0.081,0.005 -0.123,0.015 l -0.486,0.125 c -0.268,0.069 -0.428,0.342 -0.36,0.609 0.07,0.267 0.341,0.428 0.61,0.359 l 0.482,-0.123 c 0.268,-0.068 0.43,-0.34 0.361,-0.607 -0.056,-0.227 -0.26,-0.378 -0.484,-0.378 m 41.534,-0.54 c -0.227,0 -0.433,0.155 -0.486,0.386 -0.064,0.268 0.103,0.538 0.372,0.601 l 0.484,0.114 c 0.271,0.066 0.538,-0.102 0.603,-0.37 0.064,-0.269 -0.102,-0.539 -0.37,-0.603 l -0.489,-0.115 c -0.038,-0.009 -0.077,-0.013 -0.114,-0.013 m -39.109,-0.047 c -0.036,0 -0.074,0.004 -0.112,0.013 l -0.489,0.113 c -0.268,0.064 -0.435,0.333 -0.372,0.601 0.063,0.268 0.334,0.434 0.601,0.373 l 0.483,-0.113 c 0.27,-0.061 0.438,-0.329 0.376,-0.598 -0.053,-0.232 -0.259,-0.389 -0.487,-0.389 m 36.67,-0.487 c -0.233,0 -0.442,0.164 -0.49,0.401 -0.054,0.271 0.121,0.534 0.391,0.59 l 0.485,0.1 c 0.273,0.055 0.536,-0.116 0.593,-0.387 0.057,-0.27 -0.116,-0.535 -0.386,-0.592 l -0.493,-0.102 c -0.034,-0.007 -0.067,-0.01 -0.1,-0.01 m -34.229,-0.038 c -0.033,0 -0.066,0.003 -0.1,0.01 l -0.493,0.1 c -0.27,0.056 -0.444,0.32 -0.387,0.591 0.055,0.271 0.327,0.443 0.591,0.389 l 0.488,-0.1 c 0.27,-0.055 0.445,-0.319 0.39,-0.589 -0.047,-0.238 -0.256,-0.401 -0.489,-0.401 m 31.777,-0.425 c -0.239,0 -0.451,0.172 -0.493,0.416 -0.046,0.272 0.137,0.531 0.409,0.577 l 0.487,0.086 c 0.263,0.052 0.532,-0.129 0.582,-0.402 0.049,-0.271 -0.131,-0.532 -0.402,-0.581 l -0.498,-0.088 c -0.029,-0.005 -0.057,-0.008 -0.085,-0.008 m -29.325,-0.03 c -0.028,0 -0.056,0.003 -0.086,0.008 l -0.494,0.085 c -0.272,0.048 -0.453,0.308 -0.405,0.58 0.048,0.272 0.315,0.452 0.579,0.405 l 0.49,-0.085 c 0.272,-0.047 0.454,-0.305 0.409,-0.577 -0.042,-0.244 -0.254,-0.416 -0.493,-0.416 m 26.859,-0.356 c -0.245,0 -0.459,0.18 -0.494,0.43 -0.039,0.273 0.151,0.526 0.424,0.565 l 0.494,0.071 c 0.269,0.042 0.526,-0.149 0.567,-0.423 0.039,-0.273 -0.149,-0.527 -0.423,-0.567 l -0.497,-0.071 c -0.024,-0.004 -0.048,-0.005 -0.071,-0.005 m -24.392,-0.024 c -0.022,0 -0.046,0.002 -0.068,0.005 l -0.499,0.071 c -0.274,0.039 -0.462,0.293 -0.423,0.566 0.04,0.274 0.294,0.469 0.567,0.423 l 0.49,-0.069 c 0.273,-0.038 0.464,-0.29 0.427,-0.563 -0.034,-0.251 -0.248,-0.433 -0.494,-0.433 m 21.915,-0.286 c -0.252,0 -0.468,0.19 -0.496,0.446 -0.03,0.274 0.169,0.521 0.443,0.551 l 0.493,0.056 c 0.27,0.034 0.523,-0.164 0.554,-0.438 0.034,-0.274 -0.163,-0.523 -0.437,-0.555 l -0.502,-0.057 c -0.018,-0.002 -0.036,-0.003 -0.055,-0.003 m -19.437,-0.016 c -0.019,0 -0.036,10e-4 -0.054,0.003 l -0.499,0.054 c -0.274,0.031 -0.472,0.278 -0.441,0.552 0.031,0.275 0.285,0.471 0.552,0.442 l 0.493,-0.054 c 0.275,-0.03 0.474,-0.276 0.445,-0.55 -0.028,-0.257 -0.244,-0.447 -0.496,-0.447 m 16.952,-0.217 c -0.258,0 -0.477,0.199 -0.497,0.461 -0.023,0.275 0.183,0.516 0.459,0.538 l 0.494,0.04 c 0.266,0.03 0.516,-0.179 0.541,-0.455 0.023,-0.275 -0.181,-0.517 -0.455,-0.541 l -0.502,-0.041 c -0.013,-10e-4 -0.027,-0.002 -0.04,-0.002 m -14.467,-0.011 c -0.013,0 -0.026,0 -0.039,0.001 l -0.501,0.04 c -0.275,0.023 -0.48,0.264 -0.457,0.54 0.022,0.275 0.294,0.482 0.539,0.456 l 0.495,-0.039 c 0.276,-0.021 0.482,-0.261 0.461,-0.537 -0.02,-0.262 -0.239,-0.461 -0.498,-0.461 m 11.977,-0.148 c -0.266,0 -0.487,0.208 -0.499,0.475 -0.014,0.276 0.198,0.51 0.474,0.524 l 0.495,0.026 c 0.319,10e-4 0.513,-0.197 0.528,-0.471 0.015,-0.276 -0.196,-0.512 -0.471,-0.527 l -0.503,-0.027 c -0.008,0 -0.017,0 -0.024,0 m -9.486,-0.008 h -0.016 l -0.509,0.026 c -0.276,0.015 -0.487,0.25 -0.473,0.526 0.015,0.275 0.265,0.489 0.526,0.473 l 0.497,-0.025 c 0.276,-0.014 0.488,-0.249 0.474,-0.525 -0.012,-0.267 -0.234,-0.475 -0.499,-0.475 m 6.99,-0.083 c -0.27,0 -0.493,0.217 -0.5,0.489 -0.005,0.275 0.212,0.504 0.489,0.511 l 0.496,0.013 c 0.294,0 0.507,-0.209 0.514,-0.485 0.008,-0.276 -0.209,-0.506 -0.485,-0.515 l -0.502,-0.013 z m -4.495,-0.003 h -0.01 l -0.502,0.012 c -0.276,0.007 -0.494,0.237 -0.487,0.513 0.008,0.276 0.211,0.485 0.514,0.487 l 0.496,-0.012 c 0.275,-0.006 0.495,-0.234 0.489,-0.51 -0.006,-0.272 -0.228,-0.49 -0.5,-0.49 m 2.176,-0.023 h -0.177 c -0.276,0 -0.5,0.224 -0.5,0.5 0,0.276 0.224,0.5 0.5,0.5 h 0.498 0.002 c 0.276,0 0.499,-0.222 0.5,-0.497 0.001,-0.277 -0.221,-0.501 -0.498,-0.503 z"
       style="display:inline;fill:#000000;fill-opacity:1;fill-rule:nonzero;stroke:none"
       transform="matrix(1.3333333,0,0,-1.3333333,284.23827,67.8848)"
       clip-path="url(#clipPath224)" /><path
       id="path225"
       d="m 0,0 c -0.277,0 -0.5,0.224 -0.5,0.5 v 0.462 c 0,0.276 0.223,0.5 0.5,0.5 0.275,0 0.5,-0.224 0.5,-0.5 V 0.5 C 0.5,0.224 0.275,0 0,0 m 0,-2.5 c -0.277,0 -0.5,0.224 -0.5,0.5 v 0.5 c 0,0.276 0.223,0.5 0.5,0.5 0.275,0 0.5,-0.224 0.5,-0.5 V -2 C 0.5,-2.276 0.275,-2.5 0,-2.5 M 0,-5 c -0.277,0 -0.5,0.224 -0.5,0.5 V -4 c 0,0.276 0.223,0.5 0.5,0.5 0.275,0 0.5,-0.224 0.5,-0.5 V -4.5 C 0.5,-4.776 0.275,-5 0,-5 m 0,-2.5 c -0.277,0 -0.5,0.224 -0.5,0.5 v 0.5 c 0,0.276 0.223,0.5 0.5,0.5 0.275,0 0.5,-0.224 0.5,-0.5 V -7 C 0.5,-7.276 0.275,-7.5 0,-7.5 M 0,-10 c -0.277,0 -0.5,0.224 -0.5,0.5 V -9 c 0,0.276 0.223,0.5 0.5,0.5 0.275,0 0.5,-0.224 0.5,-0.5 V -9.5 C 0.5,-9.776 0.275,-10 0,-10 m 0,-2.5 c -0.277,0 -0.5,0.224 -0.5,0.5 v 0.5 c 0,0.276 0.223,0.5 0.5,0.5 0.275,0 0.5,-0.224 0.5,-0.5 V -12 c 0,-0.276 -0.225,-0.5 -0.5,-0.5 M 0,-15 c -0.277,0 -0.5,0.224 -0.5,0.5 v 0.5 c 0,0.276 0.223,0.5 0.5,0.5 0.275,0 0.5,-0.224 0.5,-0.5 v -0.5 C 0.5,-14.776 0.275,-15 0,-15 m 0,-2.5 c -0.277,0 -0.5,0.224 -0.5,0.5 v 0.5 c 0,0.276 0.223,0.5 0.5,0.5 0.275,0 0.5,-0.224 0.5,-0.5 V -17 c 0,-0.276 -0.225,-0.5 -0.5,-0.5 M 0,-20 c -0.277,0 -0.5,0.224 -0.5,0.5 v 0.5 c 0,0.276 0.223,0.5 0.5,0.5 0.275,0 0.5,-0.224 0.5,-0.5 v -0.5 C 0.5,-19.776 0.275,-20 0,-20 m 0,-2.5 c -0.277,0 -0.5,0.224 -0.5,0.5 v 0.5 c 0,0.276 0.223,0.5 0.5,0.5 0.275,0 0.5,-0.224 0.5,-0.5 V -22 c 0,-0.276 -0.225,-0.5 -0.5,-0.5"
       style="display:inline;fill:#000000;fill-opacity:1;fill-rule:nonzero;stroke:none"
       transform="matrix(1.3333333,0,0,-1.3333333,35.9088,270.84373)"
       clip-path="url(#clipPath226)" /><path
       id="path227"
       d="m 0,0 c -0.276,0 -0.5,0.224 -0.5,0.5 v 0.462 c 0,0.276 0.224,0.5 0.5,0.5 0.276,0 0.5,-0.224 0.5,-0.5 V 0.5 C 0.5,0.224 0.276,0 0,0 m 0,-2.5 c -0.276,0 -0.5,0.224 -0.5,0.5 v 0.5 c 0,0.276 0.224,0.5 0.5,0.5 0.276,0 0.5,-0.224 0.5,-0.5 V -2 C 0.5,-2.276 0.276,-2.5 0,-2.5 M 0,-5 c -0.276,0 -0.5,0.224 -0.5,0.5 V -4 c 0,0.276 0.224,0.5 0.5,0.5 0.276,0 0.5,-0.224 0.5,-0.5 V -4.5 C 0.5,-4.776 0.276,-5 0,-5 m 0,-2.5 c -0.276,0 -0.5,0.224 -0.5,0.5 v 0.5 c 0,0.276 0.224,0.5 0.5,0.5 0.276,0 0.5,-0.224 0.5,-0.5 V -7 C 0.5,-7.276 0.276,-7.5 0,-7.5 M 0,-10 c -0.276,0 -0.5,0.224 -0.5,0.5 V -9 c 0,0.276 0.224,0.5 0.5,0.5 0.276,0 0.5,-0.224 0.5,-0.5 V -9.5 C 0.5,-9.776 0.276,-10 0,-10 m 0,-2.5 c -0.276,0 -0.5,0.224 -0.5,0.5 v 0.5 c 0,0.276 0.224,0.5 0.5,0.5 0.276,0 0.5,-0.224 0.5,-0.5 V -12 c 0,-0.276 -0.224,-0.5 -0.5,-0.5 M 0,-15 c -0.276,0 -0.5,0.224 -0.5,0.5 v 0.5 c 0,0.276 0.224,0.5 0.5,0.5 0.276,0 0.5,-0.224 0.5,-0.5 v -0.5 C 0.5,-14.776 0.276,-15 0,-15 m 0,-2.5 c -0.276,0 -0.5,0.224 -0.5,0.5 v 0.5 c 0,0.276 0.224,0.5 0.5,0.5 0.276,0 0.5,-0.224 0.5,-0.5 V -17 c 0,-0.276 -0.224,-0.5 -0.5,-0.5 M 0,-20 c -0.276,0 -0.5,0.224 -0.5,0.5 v 0.5 c 0,0.276 0.224,0.5 0.5,0.5 0.276,0 0.5,-0.224 0.5,-0.5 v -0.5 C 0.5,-19.776 0.276,-20 0,-20 m 0,-2.5 c -0.276,0 -0.5,0.224 -0.5,0.5 v 0.5 c 0,0.276 0.224,0.5 0.5,0.5 0.276,0 0.5,-0.224 0.5,-0.5 V -22 c 0,-0.276 -0.224,-0.5 -0.5,-0.5"
       style="display:inline;fill:#000000;fill-opacity:1;fill-rule:nonzero;stroke:none"
       transform="matrix(1.3333333,0,0,-1.3333333,309.16667,270.84373)"
       clip-path="url(#clipPath228)" /><path
       id="path595"
       d="M 0,0 C -0.277,0 -0.5,0.224 -0.5,0.5 V 1 C -0.5,1.276 -0.277,1.5 0,1.5 0.275,1.5 0.5,1.276 0.5,1 V 0.5 C 0.5,0.224 0.275,0 0,0 m 0,-2.5 c -0.277,0 -0.5,0.224 -0.5,0.5 v 0.5 c 0,0.276 0.223,0.5 0.5,0.5 0.275,0 0.5,-0.224 0.5,-0.5 V -2 C 0.5,-2.276 0.275,-2.5 0,-2.5 M 0,-5 c -0.277,0 -0.5,0.224 -0.5,0.5 V -4 c 0,0.276 0.223,0.5 0.5,0.5 0.275,0 0.5,-0.224 0.5,-0.5 V -4.5 C 0.5,-4.776 0.275,-5 0,-5 m 0,-2.5 c -0.277,0 -0.5,0.224 -0.5,0.5 v 0.5 c 0,0.276 0.223,0.5 0.5,0.5 0.275,0 0.5,-0.224 0.5,-0.5 V -7 C 0.5,-7.276 0.275,-7.5 0,-7.5 M 0,-10 c -0.277,0 -0.5,0.224 -0.5,0.5 V -9 c 0,0.276 0.223,0.5 0.5,0.5 0.275,0 0.5,-0.224 0.5,-0.5 V -9.5 C 0.5,-9.776 0.275,-10 0,-10 m 0,-2.5 c -0.277,0 -0.5,0.224 -0.5,0.5 v 0.5 c 0,0.276 0.223,0.5 0.5,0.5 0.275,0 0.5,-0.224 0.5,-0.5 V -12 c 0,-0.276 -0.225,-0.5 -0.5,-0.5 M 0,-15 c -0.277,0 -0.5,0.224 -0.5,0.5 v 0.5 c 0,0.276 0.223,0.5 0.5,0.5 0.275,0 0.5,-0.224 0.5,-0.5 v -0.5 C 0.5,-14.776 0.275,-15 0,-15 m 0,-2.5 c -0.277,0 -0.5,0.224 -0.5,0.5 v 0.5 c 0,0.276 0.223,0.5 0.5,0.5 0.275,0 0.5,-0.224 0.5,-0.5 V -17 c 0,-0.276 -0.225,-0.5 -0.5,-0.5 M 0,-20 c -0.277,0 -0.5,0.224 -0.5,0.5 v 0.5 c 0,0.276 0.223,0.5 0.5,0.5 0.275,0 0.5,-0.224 0.5,-0.5 v -0.5 C 0.5,-19.776 0.275,-20 0,-20"
       style="display:inline;fill:#000000;fill-opacity:1;fill-rule:nonzero;stroke:none"
       transform="matrix(1.3333333,0,0,-1.3333333,26.080667,121.92507)"
       clip-path="url(#clipPath596)" /><path
       id="path597"
       d="M 0,0 C -0.275,0 -0.5,0.224 -0.5,0.5 V 1 C -0.5,1.276 -0.275,1.5 0,1.5 0.277,1.5 0.5,1.276 0.5,1 V 0.5 C 0.5,0.224 0.277,0 0,0 m 0,-2.5 c -0.275,0 -0.5,0.224 -0.5,0.5 v 0.5 c 0,0.276 0.225,0.5 0.5,0.5 0.277,0 0.5,-0.224 0.5,-0.5 V -2 C 0.5,-2.276 0.277,-2.5 0,-2.5 M 0,-5 c -0.275,0 -0.5,0.224 -0.5,0.5 V -4 c 0,0.276 0.225,0.5 0.5,0.5 0.277,0 0.5,-0.224 0.5,-0.5 V -4.5 C 0.5,-4.776 0.277,-5 0,-5 m 0,-2.5 c -0.275,0 -0.5,0.224 -0.5,0.5 v 0.5 c 0,0.276 0.225,0.5 0.5,0.5 0.277,0 0.5,-0.224 0.5,-0.5 V -7 C 0.5,-7.276 0.277,-7.5 0,-7.5 M 0,-10 c -0.275,0 -0.5,0.224 -0.5,0.5 V -9 c 0,0.276 0.225,0.5 0.5,0.5 0.277,0 0.5,-0.224 0.5,-0.5 V -9.5 C 0.5,-9.776 0.277,-10 0,-10 m 0,-2.5 c -0.275,0 -0.5,0.224 -0.5,0.5 v 0.5 c 0,0.276 0.225,0.5 0.5,0.5 0.277,0 0.5,-0.224 0.5,-0.5 V -12 c 0,-0.276 -0.223,-0.5 -0.5,-0.5 M 0,-15 c -0.275,0 -0.5,0.224 -0.5,0.5 v 0.5 c 0,0.276 0.225,0.5 0.5,0.5 0.277,0 0.5,-0.224 0.5,-0.5 v -0.5 C 0.5,-14.776 0.277,-15 0,-15 m 0,-2.5 c -0.275,0 -0.5,0.224 -0.5,0.5 v 0.5 c 0,0.276 0.225,0.5 0.5,0.5 0.277,0 0.5,-0.224 0.5,-0.5 V -17 c 0,-0.276 -0.223,-0.5 -0.5,-0.5 M 0,-20 c -0.275,0 -0.5,0.224 -0.5,0.5 v 0.5 c 0,0.276 0.225,0.5 0.5,0.5 0.277,0 0.5,-0.224 0.5,-0.5 v -0.5 C 0.5,-19.776 0.277,-20 0,-20"
       style="display:inline;fill:#000000;fill-opacity:1;fill-rule:nonzero;stroke:none"
       transform="matrix(1.3333333,0,0,-1.3333333,318.99213,121.92507)"
       clip-path="url(#clipPath598)" /><path
       id="path599"
       d="m 0,0 c -0.053,0 -0.105,0.008 -0.158,0.026 -0.262,0.087 -0.404,0.37 -0.317,0.632 l 0.162,0.478 C -0.224,1.397 0.065,1.539 0.321,1.448 0.583,1.359 0.723,1.075 0.634,0.813 L 0.475,0.342 C 0.404,0.132 0.209,0 0,0 m -0.75,-2.388 c -0.047,0 -0.095,0.007 -0.143,0.021 -0.264,0.078 -0.415,0.357 -0.336,0.621 l 0.146,0.484 c 0.08,0.264 0.358,0.414 0.625,0.331 0.264,-0.082 0.412,-0.361 0.33,-0.626 L -0.271,-2.031 C -0.335,-2.248 -0.534,-2.388 -0.75,-2.388 m -0.68,-2.408 c -0.043,0 -0.086,0.005 -0.13,0.017 -0.266,0.072 -0.424,0.346 -0.352,0.613 l 0.131,0.484 c 0.072,0.265 0.343,0.426 0.613,0.351 0.267,-0.072 0.424,-0.347 0.352,-0.613 l -0.131,-0.482 c -0.06,-0.223 -0.262,-0.37 -0.483,-0.37 m -0.616,-2.425 c -0.038,0 -0.077,0.004 -0.116,0.013 -0.269,0.064 -0.435,0.334 -0.37,0.603 l 0.117,0.488 c 0.065,0.268 0.332,0.433 0.604,0.368 0.269,-0.065 0.433,-0.335 0.369,-0.604 L -1.56,-6.837 c -0.054,-0.23 -0.259,-0.384 -0.486,-0.384 m -0.548,-2.441 c -0.034,0 -0.068,0.003 -0.102,0.011 -0.271,0.056 -0.445,0.32 -0.388,0.591 l 0.105,0.493 c 0.059,0.27 0.326,0.441 0.595,0.383 0.27,-0.059 0.441,-0.325 0.382,-0.595 L -2.105,-9.264 C -2.154,-9.5 -2.362,-9.662 -2.594,-9.662 m -0.48,-2.455 c -0.03,0 -0.059,0.002 -0.088,0.008 -0.273,0.048 -0.454,0.307 -0.405,0.579 l 0.09,0.496 c 0.049,0.272 0.313,0.454 0.582,0.401 0.272,-0.051 0.452,-0.312 0.401,-0.583 l -0.089,-0.489 c -0.043,-0.242 -0.254,-0.412 -0.491,-0.412 m -0.407,-2.468 c -0.025,0 -0.049,0.001 -0.075,0.005 -0.272,0.04 -0.462,0.294 -0.422,0.567 l 0.077,0.499 c 0.042,0.272 0.308,0.455 0.57,0.417 0.273,-0.042 0.46,-0.298 0.418,-0.57 l -0.074,-0.491 c -0.037,-0.249 -0.251,-0.427 -0.494,-0.427 m -0.329,-2.481 c -0.019,0 -0.04,10e-4 -0.059,0.004 -0.275,0.032 -0.471,0.28 -0.438,0.555 l 0.06,0.499 c 0.033,0.275 0.281,0.478 0.558,0.435 0.274,-0.034 0.468,-0.284 0.434,-0.558 l -0.059,-0.494 c -0.03,-0.254 -0.246,-0.441 -0.496,-0.441 m -0.242,-2.489 c -0.013,0 -0.026,0.001 -0.039,0.002 -0.275,0.021 -0.481,0.261 -0.461,0.536 l 0.042,0.505 c 0.024,0.276 0.29,0.487 0.542,0.454 0.276,-0.025 0.479,-0.267 0.454,-0.542 l -0.04,-0.493 c -0.02,-0.262 -0.239,-0.462 -0.498,-0.462 M -4.2,-22.051 c -0.007,0 -0.014,0 -0.021,0 -0.275,0.011 -0.49,0.244 -0.479,0.52 l 0.022,0.503 c 0.013,0.276 0.266,0.483 0.523,0.476 0.275,-0.013 0.489,-0.247 0.475,-0.523 l -0.02,-0.497 c -0.012,-0.269 -0.234,-0.479 -0.5,-0.479 m -0.043,-2.503 c -0.277,0 -0.5,0.224 -0.5,0.5 v 0.5 c 0,0.277 0.223,0.5 0.5,0.5 0.276,0 0.5,-0.223 0.5,-0.5 v -0.5 c 0,-0.276 -0.224,-0.5 -0.5,-0.5 m 0,-2.508 c -0.277,0 -0.5,0.224 -0.5,0.5 v 0.501 c 0,0.276 0.223,0.5 0.5,0.5 0.276,0 0.5,-0.224 0.5,-0.5 v -0.501 c 0,-0.276 -0.224,-0.5 -0.5,-0.5 m 0,-2.51 c -0.277,0 -0.5,0.223 -0.5,0.5 v 0.5 c 0,0.277 0.223,0.5 0.5,0.5 0.276,0 0.5,-0.223 0.5,-0.5 v -0.5 c 0,-0.277 -0.224,-0.5 -0.5,-0.5 m 0,-2.508 c -0.277,0 -0.5,0.224 -0.5,0.5 v 0.5 c 0,0.277 0.223,0.5 0.5,0.5 0.276,0 0.5,-0.223 0.5,-0.5 v -0.5 c 0,-0.276 -0.224,-0.5 -0.5,-0.5 m 0,-2.506 c -0.277,0 -0.5,0.224 -0.5,0.5 v 0.501 c 0,0.276 0.223,0.5 0.5,0.5 0.276,0 0.5,-0.224 0.5,-0.5 v -0.501 c 0,-0.276 -0.224,-0.5 -0.5,-0.5 m 0,-2.505 c -0.277,0 -0.5,0.223 -0.5,0.5 v 0.5 c 0,0.277 0.223,0.5 0.5,0.5 0.276,0 0.5,-0.223 0.5,-0.5 v -0.5 c 0,-0.277 -0.224,-0.5 -0.5,-0.5 m 0,-2.505 c -0.277,0 -0.5,0.223 -0.5,0.5 v 0.5 c 0,0.276 0.223,0.5 0.5,0.5 0.276,0 0.5,-0.224 0.5,-0.5 v -0.5 c 0,-0.277 -0.224,-0.5 -0.5,-0.5 m 0,-2.504 c -0.277,0 -0.5,0.224 -0.5,0.5 v 0.5 c 0,0.276 0.223,0.5 0.5,0.5 0.276,0 0.5,-0.224 0.5,-0.5 v -0.5 c 0,-0.276 -0.224,-0.5 -0.5,-0.5 m 0,-2.504 c -0.277,0 -0.5,0.223 -0.5,0.5 v 0.5 c 0,0.276 0.223,0.5 0.5,0.5 0.276,0 0.5,-0.224 0.5,-0.5 v -0.5 c 0,-0.277 -0.224,-0.5 -0.5,-0.5 m 0,-2.504 c -0.277,0 -0.5,0.224 -0.5,0.5 v 0.501 c 0,0.276 0.223,0.5 0.5,0.5 0.276,0 0.5,-0.224 0.5,-0.5 v -0.501 c 0,-0.276 -0.224,-0.5 -0.5,-0.5 m 0,-2.503 c -0.277,0 -0.5,0.223 -0.5,0.5 v 0.5 c 0,0.276 0.223,0.5 0.5,0.5 0.276,0 0.5,-0.224 0.5,-0.5 v -0.5 c 0,-0.277 -0.224,-0.5 -0.5,-0.5 m 0,-2.503 c -0.277,0 -0.5,0.223 -0.5,0.5 v 0.5 c 0,0.277 0.223,0.5 0.5,0.5 0.276,0 0.5,-0.223 0.5,-0.5 v -0.5 c 0,-0.277 -0.224,-0.5 -0.5,-0.5 m 0,-2.504 c -0.277,0 -0.5,0.224 -0.5,0.5 v 0.5 c 0,0.277 0.223,0.5 0.5,0.5 0.276,0 0.5,-0.223 0.5,-0.5 v -0.5 c 0,-0.276 -0.224,-0.5 -0.5,-0.5 m 0,-2.503 c -0.277,0 -0.5,0.224 -0.5,0.5 v 0.5 c 0,0.277 0.223,0.5 0.5,0.5 0.276,0 0.5,-0.223 0.5,-0.5 v -0.5 c 0,-0.276 -0.224,-0.5 -0.5,-0.5 m 0,-2.503 c -0.277,0 -0.5,0.224 -0.5,0.5 v 0.501 c 0,0.276 0.223,0.5 0.5,0.5 0.276,0 0.5,-0.224 0.5,-0.5 v -0.501 c 0,-0.276 -0.224,-0.5 -0.5,-0.5 m 0,-2.502 c -0.277,0 -0.5,0.223 -0.5,0.5 v 0.5 c 0,0.276 0.223,0.5 0.5,0.5 0.276,0 0.5,-0.224 0.5,-0.5 v -0.5 c 0,-0.277 -0.224,-0.5 -0.5,-0.5 m 0,-2.503 c -0.277,0 -0.5,0.223 -0.5,0.5 v 0.5 c 0,0.276 0.223,0.5 0.5,0.5 0.276,0 0.5,-0.224 0.5,-0.5 v -0.5 c 0,-0.277 -0.224,-0.5 -0.5,-0.5 m 0,-2.503 c -0.277,0 -0.5,0.223 -0.5,0.5 v 0.5 c 0,0.276 0.223,0.5 0.5,0.5 0.276,0 0.5,-0.224 0.5,-0.5 v -0.5 c 0,-0.277 -0.224,-0.5 -0.5,-0.5 m 0,-2.503 c -0.277,0 -0.5,0.224 -0.5,0.5 v 0.5 c 0,0.277 0.223,0.5 0.5,0.5 0.276,0 0.5,-0.223 0.5,-0.5 v -0.5 c 0,-0.276 -0.224,-0.5 -0.5,-0.5 m 0,-2.503 c -0.277,0 -0.5,0.224 -0.5,0.5 v 0.501 c 0,0.276 0.223,0.5 0.5,0.5 0.276,0 0.5,-0.224 0.5,-0.5 v -0.501 c 0,-0.276 -0.224,-0.5 -0.5,-0.5 m 0,-2.502 c -0.277,0 -0.5,0.223 -0.5,0.5 v 0.5 c 0,0.277 0.223,0.5 0.5,0.5 0.276,0 0.5,-0.223 0.5,-0.5 v -0.5 c 0,-0.277 -0.224,-0.5 -0.5,-0.5 m 0,-2.503 c -0.277,0 -0.5,0.224 -0.5,0.5 v 0.5 c 0,0.277 0.223,0.5 0.5,0.5 0.276,0 0.5,-0.223 0.5,-0.5 v -0.5 c 0,-0.276 -0.224,-0.5 -0.5,-0.5 m 0,-2.507 c -0.277,0 -0.5,0.223 -0.5,0.5 v 0.501 c 0,0.276 0.223,0.5 0.5,0.5 0.276,0 0.5,-0.224 0.5,-0.5 v -0.501 c 0,-0.277 -0.224,-0.5 -0.5,-0.5 m 0,-2.5 c -0.277,0 -0.5,0.223 -0.5,0.5 v 0.499 c 0,0.276 0.223,0.5 0.5,0.5 0.276,0 0.5,-0.224 0.5,-0.5 v -0.499 c 0,-0.277 -0.224,-0.5 -0.5,-0.5 m 0,-2.496 c -0.277,0 -0.5,0.224 -0.5,0.5 v 0.501 c 0,0.276 0.223,0.5 0.5,0.5 0.276,0 0.5,-0.224 0.5,-0.5 v -0.501 c 0,-0.276 -0.224,-0.5 -0.5,-0.5 m 0,-2.502 c -0.277,0 -0.5,0.224 -0.5,0.5 v 0.5 c 0,0.276 0.223,0.5 0.5,0.5 0.276,0 0.5,-0.224 0.5,-0.5 v -0.5 c 0,-0.276 -0.224,-0.5 -0.5,-0.5 m 0,-2.503 c -0.277,0 -0.5,0.224 -0.5,0.5 v 0.5 c 0,0.276 0.223,0.5 0.5,0.5 0.276,0 0.5,-0.224 0.5,-0.5 v -0.5 c 0,-0.276 -0.224,-0.5 -0.5,-0.5 m 0,-2.503 c -0.277,0 -0.5,0.224 -0.5,0.5 v 0.5 c 0,0.277 0.223,0.5 0.5,0.5 0.276,0 0.5,-0.223 0.5,-0.5 v -0.5 c 0,-0.276 -0.224,-0.5 -0.5,-0.5 m 0,-2.503 c -0.277,0 -0.5,0.224 -0.5,0.5 v 0.501 c 0,0.276 0.223,0.5 0.5,0.5 0.276,0 0.5,-0.224 0.5,-0.5 v -0.501 c 0,-0.276 -0.224,-0.5 -0.5,-0.5 m 0,-2.503 c -0.277,0 -0.5,0.224 -0.5,0.5 v 0.5 c 0,0.277 0.223,0.5 0.5,0.5 0.276,0 0.5,-0.223 0.5,-0.5 v -0.5 c 0,-0.276 -0.224,-0.5 -0.5,-0.5 m 0,-2.503 c -0.277,0 -0.5,0.224 -0.5,0.5 v 0.5 c 0,0.276 0.223,0.5 0.5,0.5 0.276,0 0.5,-0.224 0.5,-0.5 v -0.5 c 0,-0.276 -0.224,-0.5 -0.5,-0.5 m 0,-2.503 c -0.277,0 -0.5,0.224 -0.5,0.5 v 0.5 c 0,0.277 0.223,0.5 0.5,0.5 0.276,0 0.5,-0.223 0.5,-0.5 v -0.5 c 0,-0.276 -0.224,-0.5 -0.5,-0.5 m 0,-2.503 c -0.277,0 -0.5,0.223 -0.5,0.5 v 0.5 c 0,0.276 0.223,0.5 0.5,0.5 0.276,0 0.5,-0.224 0.5,-0.5 v -0.5 c 0,-0.277 -0.224,-0.5 -0.5,-0.5 m 0,-2.504 c -0.277,0 -0.5,0.223 -0.5,0.5 v 0.5 c 0,0.277 0.223,0.5 0.5,0.5 0.276,0 0.5,-0.223 0.5,-0.5 v -0.5 c 0,-0.277 -0.224,-0.5 -0.5,-0.5 m 0,-2.504 c -0.277,0 -0.5,0.224 -0.5,0.5 v 0.5 c 0,0.277 0.223,0.5 0.5,0.5 0.276,0 0.5,-0.223 0.5,-0.5 v -0.5 c 0,-0.276 -0.224,-0.5 -0.5,-0.5 m 0,-2.504 c -0.277,0 -0.5,0.224 -0.5,0.5 v 0.5 c 0,0.277 0.223,0.5 0.5,0.5 0.276,0 0.5,-0.223 0.5,-0.5 v -0.5 c 0,-0.276 -0.224,-0.5 -0.5,-0.5 m 0,-2.505 c -0.277,0 -0.5,0.224 -0.5,0.5 v 0.5 c 0,0.277 0.223,0.5 0.5,0.5 0.276,0 0.5,-0.223 0.5,-0.5 v -0.5 c 0,-0.276 -0.224,-0.5 -0.5,-0.5 m 0,-2.504 c -0.277,0 -0.5,0.223 -0.5,0.5 v 0.5 c 0,0.276 0.223,0.5 0.5,0.5 0.276,0 0.5,-0.224 0.5,-0.5 v -0.5 c 0,-0.277 -0.224,-0.5 -0.5,-0.5 m 0,-2.506 c -0.277,0 -0.5,0.223 -0.5,0.5 v 0.5 c 0,0.277 0.223,0.5 0.5,0.5 0.276,0 0.5,-0.223 0.5,-0.5 v -0.5 c 0,-0.277 -0.224,-0.5 -0.5,-0.5 m 0,-2.508 c -0.277,0 -0.5,0.224 -0.5,0.5 v 0.501 c 0,0.276 0.223,0.5 0.5,0.5 0.276,0 0.5,-0.224 0.5,-0.5 v -0.501 c 0,-0.276 -0.224,-0.5 -0.5,-0.5"
       style="display:inline;fill:#000000;fill-opacity:1;fill-rule:nonzero;stroke:none"
       transform="matrix(1.3333333,0,0,-1.3333333,87.160133,192.32613)"
       clip-path="url(#clipPath600)" /><path
       id="path601"
       d="m 0,0 h -0.004 c -0.267,0.003 -0.48,0.221 -0.476,0.487 l 0.002,0.475 c 0,0.266 0.215,0.481 0.481,0.481 0.266,0 0.479,-0.215 0.479,-0.481 L 0.48,0.475 C 0.478,0.211 0.263,0 0,0 m -0.103,-2.403 c -0.014,0 -0.026,0 -0.039,10e-4 -0.264,0.021 -0.462,0.253 -0.442,0.518 l 0.034,0.471 c 0.016,0.265 0.249,0.473 0.509,0.451 0.265,-0.017 0.467,-0.245 0.45,-0.51 L 0.376,-1.96 C 0.355,-2.212 0.146,-2.403 -0.103,-2.403 m -0.273,-2.39 c -0.024,0 -0.049,0.001 -0.074,0.005 -0.263,0.041 -0.443,0.286 -0.404,0.549 l 0.072,0.47 c 0.036,0.263 0.268,0.448 0.543,0.409 0.262,-0.037 0.445,-0.28 0.408,-0.543 L 0.098,-4.386 C 0.062,-4.623 -0.144,-4.793 -0.376,-4.793 m -0.487,-2.355 c -0.04,0 -0.082,0.005 -0.123,0.016 -0.257,0.068 -0.41,0.332 -0.342,0.588 0.04,0.151 0.078,0.303 0.114,0.455 0.062,0.257 0.318,0.419 0.579,0.357 0.258,-0.062 0.418,-0.321 0.357,-0.58 -0.038,-0.16 -0.078,-0.319 -0.12,-0.478 -0.058,-0.215 -0.252,-0.358 -0.465,-0.358 m -0.764,-2.278 c -0.062,0 -0.125,0.012 -0.185,0.037 -0.246,0.103 -0.361,0.385 -0.258,0.629 0.059,0.143 0.117,0.287 0.173,0.433 0.094,0.248 0.375,0.371 0.621,0.277 0.248,-0.095 0.372,-0.373 0.277,-0.621 -0.06,-0.155 -0.121,-0.308 -0.185,-0.46 -0.077,-0.184 -0.255,-0.295 -0.443,-0.295 m -1.136,-2.114 c -0.092,0 -0.186,0.027 -0.268,0.083 -0.221,0.148 -0.279,0.447 -0.13,0.667 0.085,0.127 0.17,0.256 0.252,0.388 0.139,0.226 0.437,0.294 0.662,0.154 0.226,-0.14 0.295,-0.436 0.154,-0.662 -0.088,-0.141 -0.178,-0.28 -0.271,-0.417 -0.093,-0.138 -0.244,-0.213 -0.399,-0.213 m -1.61,-1.772 c -0.14,0 -0.277,0.061 -0.373,0.178 -0.167,0.206 -0.137,0.509 0.069,0.676 0.116,0.095 0.229,0.193 0.338,0.294 0.194,0.181 0.498,0.17 0.68,-0.024 0.18,-0.195 0.169,-0.499 -0.027,-0.68 -0.124,-0.116 -0.252,-0.228 -0.384,-0.335 -0.088,-0.073 -0.196,-0.109 -0.303,-0.109"
       style="display:inline;fill:#000000;fill-opacity:1;fill-rule:nonzero;stroke:none"
       transform="matrix(1.3333333,0,0,-1.3333333,318.87493,148.52347)"
       clip-path="url(#clipPath602)" /><path
       id="path603"
       d="m 0,0 c -0.263,0 -0.478,0.211 -0.48,0.475 l -0.003,0.487 c 0,0.266 0.214,0.481 0.48,0.481 0.266,0 0.481,-0.215 0.481,-0.481 L 0.48,0.487 C 0.484,0.221 0.271,0.003 0.006,0 Z m 0.103,-2.403 c -0.249,0 -0.458,0.191 -0.479,0.443 l -0.033,0.488 c -0.017,0.265 0.185,0.493 0.45,0.51 0.249,0.023 0.492,-0.186 0.509,-0.451 L 0.583,-1.884 C 0.604,-2.149 0.406,-2.381 0.142,-2.402 0.129,-2.403 0.116,-2.403 0.103,-2.403 m 0.274,-2.39 c -0.232,0 -0.438,0.17 -0.475,0.407 l -0.07,0.483 c -0.037,0.263 0.146,0.506 0.408,0.543 0.262,0.039 0.507,-0.146 0.543,-0.409 l 0.071,-0.47 C 0.894,-4.502 0.714,-4.747 0.451,-4.788 0.427,-4.792 0.401,-4.793 0.377,-4.793 m 0.487,-2.355 c -0.213,0 -0.407,0.143 -0.465,0.358 -0.042,0.159 -0.082,0.318 -0.12,0.478 -0.061,0.259 0.099,0.518 0.357,0.58 0.263,0.063 0.517,-0.1 0.579,-0.357 C 1.251,-6.241 1.289,-6.393 1.329,-6.544 1.397,-6.8 1.244,-7.064 0.987,-7.132 0.946,-7.143 0.904,-7.148 0.864,-7.148 m 0.763,-2.278 c -0.188,0 -0.366,0.111 -0.443,0.296 -0.064,0.151 -0.125,0.304 -0.185,0.46 -0.095,0.248 0.029,0.525 0.277,0.62 0.249,0.094 0.528,-0.028 0.621,-0.277 C 1.953,-8.472 2.011,-8.617 2.07,-8.759 2.173,-9.004 2.058,-9.286 1.812,-9.388 1.752,-9.414 1.689,-9.426 1.627,-9.426 m 1.137,-2.114 c -0.155,0 -0.306,0.075 -0.399,0.213 -0.093,0.137 -0.183,0.276 -0.271,0.417 -0.141,0.226 -0.072,0.522 0.154,0.662 0.225,0.142 0.522,0.073 0.662,-0.154 0.082,-0.132 0.167,-0.261 0.252,-0.388 0.149,-0.22 0.091,-0.519 -0.13,-0.667 C 2.95,-11.513 2.856,-11.54 2.764,-11.54 m 1.609,-1.772 c -0.107,0 -0.215,0.036 -0.304,0.109 -0.131,0.107 -0.259,0.219 -0.384,0.335 -0.195,0.181 -0.206,0.485 -0.026,0.68 0.18,0.194 0.485,0.206 0.68,0.024 0.109,-0.101 0.222,-0.199 0.338,-0.294 0.206,-0.167 0.236,-0.47 0.069,-0.676 -0.096,-0.117 -0.233,-0.178 -0.373,-0.178"
       style="display:inline;fill:#000000;fill-opacity:1;fill-rule:nonzero;stroke:none"
       transform="matrix(1.3333333,0,0,-1.3333333,26.201867,148.52347)"
       clip-path="url(#clipPath604)" /><path
       id="path703"
       d="m 0,0 c -0.226,0 -0.431,0.153 -0.485,0.381 l -0.12,0.48 c -0.069,0.268 0.092,0.54 0.36,0.609 C 0.027,1.54 0.296,1.377 0.363,1.109 L 0.485,0.619 C 0.552,0.351 0.386,0.08 0.119,0.014 0.079,0.004 0.039,0 0,0 M 1.485,-4.75 C 1.26,-4.75 1.056,-4.597 1,-4.368 l -0.12,0.48 c -0.068,0.267 0.093,0.54 0.36,0.608 0.273,0.07 0.541,-0.093 0.609,-0.36 L 1.971,-4.131 C 2.036,-4.399 1.872,-4.669 1.604,-4.735 1.564,-4.745 1.524,-4.75 1.485,-4.75 m -0.689,2.369 c -0.215,0 -0.414,0.139 -0.479,0.355 l -0.145,0.472 c -0.083,0.263 0.062,0.545 0.326,0.628 0.264,0.084 0.543,-0.063 0.627,-0.326 L 1.274,-1.736 C 1.354,-2.001 1.205,-2.28 0.94,-2.36 0.893,-2.375 0.844,-2.381 0.796,-2.381 m 1.327,-4.825 c -0.226,0 -0.43,0.153 -0.485,0.382 l -0.12,0.48 c -0.069,0.267 0.092,0.54 0.36,0.608 0.272,0.07 0.541,-0.093 0.608,-0.36 L 2.608,-6.587 C 2.675,-6.855 2.51,-7.125 2.242,-7.191 2.202,-7.201 2.162,-7.206 2.123,-7.206 m 0.565,-2.437 c -0.231,0 -0.437,0.159 -0.489,0.393 l -0.108,0.486 c -0.06,0.269 0.109,0.536 0.379,0.597 0.272,0.059 0.537,-0.109 0.597,-0.378 L 3.176,-9.036 C 3.235,-9.305 3.064,-9.572 2.795,-9.631 2.759,-9.639 2.723,-9.643 2.688,-9.643 m 0.497,-2.452 c -0.236,0 -0.445,0.167 -0.491,0.407 l -0.093,0.49 c -0.052,0.272 0.126,0.533 0.397,0.586 0.266,0.052 0.533,-0.126 0.585,-0.397 l 0.094,-0.492 c 0.052,-0.272 -0.127,-0.533 -0.398,-0.585 -0.032,-0.006 -0.063,-0.009 -0.094,-0.009 m 0.423,-2.465 c -0.241,0 -0.453,0.175 -0.493,0.421 l -0.079,0.494 c -0.043,0.272 0.143,0.529 0.415,0.573 0.267,0.048 0.528,-0.142 0.573,-0.415 l 0.079,-0.494 C 4.146,-14.254 3.961,-14.51 3.688,-14.554 3.661,-14.558 3.634,-14.56 3.608,-14.56 m 0.348,-2.477 c -0.248,0 -0.464,0.185 -0.495,0.438 l -0.063,0.491 c -0.038,0.273 0.155,0.525 0.428,0.563 0.269,0.038 0.525,-0.155 0.563,-0.429 l 0.063,-0.502 C 4.487,-16.75 4.292,-17 4.019,-17.033 3.997,-17.036 3.977,-17.037 3.956,-17.037 m 0.262,-2.487 c -0.255,0 -0.474,0.195 -0.496,0.456 l -0.046,0.495 c -0.026,0.275 0.175,0.518 0.451,0.544 0.27,0.039 0.519,-0.175 0.545,-0.45 l 0.046,-0.501 c 0.024,-0.276 -0.179,-0.519 -0.454,-0.542 -0.015,-0.002 -0.031,-0.002 -0.046,-0.002 m 0.173,-2.496 c -0.266,0 -0.488,0.208 -0.499,0.477 l -0.027,0.493 c -0.016,0.276 0.195,0.512 0.47,0.529 0.262,0.022 0.512,-0.195 0.528,-0.47 l 0.027,-0.506 c 0.013,-0.275 -0.201,-0.509 -0.476,-0.523 0,0 -0.016,0 -0.023,0 m 0.068,-2.503 c -0.274,0 -0.498,0.222 -0.5,0.497 l -0.005,0.498 c -0.003,0.276 0.218,0.503 0.494,0.506 0.306,-0.003 0.503,-0.218 0.506,-0.494 l 0.005,-0.505 c 0.002,-0.276 -0.221,-0.501 -0.497,-0.502 z m -10e-4,-2.512 c -0.276,0 -0.5,0.223 -0.5,0.5 l 10e-4,0.504 c 0.002,0.276 0.226,0.497 0.5,0.497 h 0.003 c 0.276,-0.001 0.499,-0.227 0.497,-0.503 l -10e-4,-0.498 c 0,-0.277 -0.224,-0.5 -0.5,-0.5 m -0.006,-2.513 c -0.276,0 -0.5,0.224 -0.5,0.5 v 0.504 c 0.003,0.275 0.227,0.497 0.5,0.497 h 0.004 c 0.276,-10e-4 0.499,-0.227 0.496,-0.503 v -0.498 c 0,-0.276 -0.223,-0.5 -0.5,-0.5 m -0.005,-2.509 c -0.276,0 -0.5,0.224 -0.5,0.5 l 10e-4,0.504 c 0.002,0.275 0.226,0.497 0.5,0.497 h 0.003 c 0.277,-0.002 0.499,-0.227 0.497,-0.503 l -0.001,-0.498 c 0,-0.276 -0.223,-0.5 -0.5,-0.5 m -0.006,-2.507 c -0.276,0 -0.5,0.223 -0.5,0.5 l 0.001,0.503 c 0.002,0.275 0.226,0.497 0.5,0.497 h 0.003 c 0.277,-10e-4 0.499,-0.227 0.497,-0.503 l -0.001,-0.497 c 0,-0.277 -0.223,-0.5 -0.5,-0.5 M 4.435,-37.07 c -0.276,0 -0.5,0.224 -0.5,0.5 l 0.002,0.504 c 0.001,0.274 0.225,0.497 0.5,0.497 h 0.002 c 0.277,-0.002 0.499,-0.227 0.498,-0.503 L 4.935,-36.57 c 0,-0.276 -0.223,-0.5 -0.5,-0.5 M 4.43,-39.576 c -0.277,0 -0.5,0.224 -0.5,0.5 l 10e-4,0.504 c 0.002,0.275 0.225,0.497 0.5,0.497 h 0.003 c 0.276,-0.002 0.499,-0.227 0.497,-0.503 L 4.93,-39.076 c 0,-0.276 -0.224,-0.5 -0.5,-0.5 m -0.007,-2.505 c -0.277,0 -0.5,0.224 -0.5,0.5 l 10e-4,0.504 c 0.002,0.275 0.225,0.497 0.5,0.497 h 0.003 c 0.276,-0.002 0.499,-0.227 0.497,-0.503 l -0.001,-0.498 c 0,-0.276 -0.224,-0.5 -0.5,-0.5 m -0.007,-2.503 c -0.276,0 -0.5,0.223 -0.5,0.5 l 10e-4,0.503 c 0.002,0.275 0.226,0.497 0.5,0.497 H 4.42 c 0.276,-10e-4 0.499,-0.227 0.497,-0.503 l -10e-4,-0.497 c 0,-0.277 -0.224,-0.5 -0.5,-0.5 M 4.41,-47.088 c -0.276,0 -0.5,0.223 -0.5,0.5 l 10e-4,0.503 c 0.002,0.274 0.226,0.497 0.5,0.497 h 0.003 c 0.276,-0.002 0.499,-0.227 0.497,-0.503 L 4.91,-46.588 c 0,-0.277 -0.223,-0.5 -0.5,-0.5 m -0.008,-2.504 c -0.276,0 -0.5,0.224 -0.5,0.5 l 10e-4,0.504 c 0.002,0.275 0.226,0.497 0.5,0.497 h 0.003 c 0.277,-0.002 0.499,-0.227 0.497,-0.503 l -10e-4,-0.498 c 0,-0.276 -0.223,-0.5 -0.5,-0.5 m -0.006,-2.503 c -0.276,0 -0.5,0.223 -0.5,0.5 l 10e-4,0.503 c 0.002,0.275 0.226,0.497 0.5,0.497 H 4.4 c 0.277,-0.002 0.499,-0.227 0.497,-0.503 l -0.001,-0.497 c 0,-0.277 -0.223,-0.5 -0.5,-0.5 M 4.39,-54.599 c -0.277,0 -0.5,0.224 -0.5,0.5 l 10e-4,0.503 c 0.002,0.275 0.225,0.497 0.5,0.497 h 0.003 c 0.275,-0.001 0.499,-0.226 0.497,-0.503 L 4.89,-54.099 c 0,-0.276 -0.225,-0.5 -0.5,-0.5 m -0.008,-2.503 c -0.276,0 -0.5,0.224 -0.5,0.5 l 0.002,0.503 c 0.002,0.275 0.225,0.497 0.5,0.497 h 0.002 c 0.277,-0.002 0.5,-0.227 0.498,-0.503 l -0.002,-0.497 c 0,-0.276 -0.223,-0.5 -0.5,-0.5 m -0.006,-2.503 c -0.277,0 -0.5,0.223 -0.5,0.5 l 10e-4,0.502 c 0.002,0.275 0.226,0.498 0.5,0.498 H 4.38 c 0.276,-0.002 0.499,-0.227 0.497,-0.503 l -10e-4,-0.497 c 0,-0.277 -0.224,-0.5 -0.5,-0.5 m -0.008,-2.503 c -0.275,0 -0.5,0.223 -0.5,0.5 l 0.002,0.503 c 0.002,0.275 0.226,0.497 0.5,0.497 h 0.003 c 0.276,-0.001 0.499,-0.226 0.497,-0.503 l -0.002,-0.497 c 0,-0.277 -0.222,-0.5 -0.5,-0.5 m -0.006,-2.503 c -0.277,0 -0.5,0.223 -0.5,0.5 l 10e-4,0.503 c 0.002,0.275 0.226,0.497 0.5,0.497 h 0.003 c 0.277,-0.002 0.499,-0.227 0.497,-0.503 l -0.001,-0.497 c 0,-0.277 -0.223,-0.5 -0.5,-0.5 m -0.007,-2.503 c -0.276,0 -0.5,0.223 -0.5,0.5 l 10e-4,0.503 c 0.002,0.275 0.226,0.497 0.5,0.497 h 0.003 c 0.277,-0.002 0.499,-0.227 0.497,-0.503 l -10e-4,-0.497 c 0,-0.277 -0.223,-0.5 -0.5,-0.5 m -0.006,-2.503 c -0.277,0 -0.5,0.223 -0.5,0.5 l 10e-4,0.503 c 10e-4,0.275 0.225,0.497 0.5,0.497 h 0.003 c 0.276,-0.002 0.498,-0.227 0.497,-0.503 l -10e-4,-0.497 c 0,-0.277 -0.224,-0.5 -0.5,-0.5 M 4.342,-72.12 c -0.277,0 -0.5,0.224 -0.5,0.5 l 10e-4,0.503 c 0.002,0.275 0.225,0.497 0.5,0.497 h 0.003 c 0.276,-10e-4 0.499,-0.226 0.497,-0.503 L 4.842,-71.62 c 0,-0.276 -0.224,-0.5 -0.5,-0.5 m -0.007,-2.502 c -0.276,0 -0.5,0.224 -0.5,0.5 l 10e-4,0.503 c 0.002,0.275 0.226,0.497 0.5,0.497 h 0.003 c 0.276,-0.001 0.499,-0.226 0.497,-0.503 l -0.001,-0.497 c 0,-0.276 -0.224,-0.5 -0.5,-0.5 m -0.007,-2.503 c -0.276,0 -0.5,0.223 -0.5,0.5 l 0.001,0.502 c 0.002,0.275 0.226,0.498 0.5,0.498 h 0.003 c 0.276,-0.002 0.499,-0.227 0.497,-0.503 l -10e-4,-0.497 c 0,-0.277 -0.224,-0.5 -0.5,-0.5 m -0.009,-2.511 c -0.275,0 -0.5,0.224 -0.5,0.5 l 0.002,0.505 c 0.002,0.275 0.226,0.497 0.5,0.497 h 0.003 c 0.277,-0.002 0.499,-0.227 0.497,-0.503 l -0.002,-0.499 c 0,-0.276 -0.222,-0.5 -0.5,-0.5 m -0.006,-2.502 c -0.277,0 -0.5,0.223 -0.5,0.5 l 10e-4,0.502 c 0.002,0.275 0.226,0.497 0.5,0.497 h 0.003 c 0.277,-0.001 0.499,-0.226 0.497,-0.503 l -0.001,-0.496 c 0,-0.277 -0.223,-0.5 -0.5,-0.5 m -0.006,-2.495 c -0.277,0 -0.5,0.224 -0.5,0.5 l 10e-4,0.501 c 0.002,0.275 0.224,0.497 0.5,0.497 h 0.003 c 0.276,-10e-4 0.499,-0.226 0.497,-0.503 l -10e-4,-0.495 c 0,-0.276 -0.224,-0.5 -0.5,-0.5 m -0.008,-2.503 c -0.277,0 -0.5,0.224 -0.5,0.5 l 10e-4,0.504 c 0.002,0.275 0.225,0.497 0.5,0.497 h 0.002 c 0.277,-0.002 0.5,-0.227 0.498,-0.503 l -10e-4,-0.498 c 0,-0.276 -0.224,-0.5 -0.5,-0.5 m -0.007,-2.503 c -0.276,0 -0.5,0.223 -0.5,0.5 l 0.001,0.503 c 0.002,0.275 0.226,0.497 0.5,0.497 h 0.003 c 0.276,-0.002 0.499,-0.227 0.497,-0.503 l -0.001,-0.497 c 0,-0.277 -0.224,-0.5 -0.5,-0.5 m -0.008,-2.503 c -0.275,0 -0.5,0.224 -0.5,0.5 l 0.002,0.503 c 0.002,0.275 0.226,0.497 0.5,0.497 h 0.003 c 0.276,-0.001 0.499,-0.226 0.497,-0.503 l -0.002,-0.497 c 0,-0.276 -0.222,-0.5 -0.5,-0.5 m -0.006,-2.503 c -0.277,0 -0.5,0.224 -0.5,0.5 l 10e-4,0.504 c 0.002,0.275 0.226,0.497 0.5,0.497 h 0.003 c 0.277,-0.002 0.499,-0.227 0.497,-0.503 l -0.001,-0.498 c 0,-0.276 -0.223,-0.5 -0.5,-0.5 m -0.007,-2.502 c -0.276,0 -0.5,0.223 -0.5,0.5 l 10e-4,0.502 c 0.002,0.275 0.226,0.498 0.5,0.498 h 0.003 c 0.277,-0.002 0.499,-0.227 0.497,-0.503 l -0.001,-0.497 c 0,-0.277 -0.223,-0.5 -0.5,-0.5 m -0.007,-2.504 c -0.277,0 -0.5,0.224 -0.5,0.5 l 0.001,0.503 c 0.002,0.275 0.225,0.497 0.5,0.497 h 0.002 c 0.277,-0.001 0.5,-0.226 0.498,-0.503 l -10e-4,-0.497 c 0,-0.276 -0.224,-0.5 -0.5,-0.5 m -0.008,-2.503 c -0.277,0 -0.5,0.223 -0.5,0.5 l 0.001,0.503 c 0.002,0.276 0.209,0.51 0.503,0.497 0.276,-0.001 0.499,-0.226 0.497,-0.503 l -10e-4,-0.497 c 0,-0.277 -0.224,-0.5 -0.5,-0.5 m -0.007,-2.504 c -0.276,0 -0.5,0.224 -0.5,0.5 v 0.503 c 0.003,0.277 0.217,0.535 0.504,0.497 0.276,-0.001 0.499,-0.226 0.496,-0.503 v -0.497 c 0,-0.276 -0.224,-0.5 -0.5,-0.5 m -0.029,-9.449 c -0.277,0 -0.5,0.224 -0.5,0.5 l 10e-4,0.503 c 0.002,0.276 0.245,0.5 0.503,0.497 0.276,-0.001 0.499,-0.226 0.497,-0.503 l -0.001,-0.497 c 0,-0.276 -0.224,-0.5 -0.5,-0.5 m -0.007,-2.505 c -0.276,0 -0.5,0.224 -0.5,0.5 l 10e-4,0.504 c 0.002,0.276 0.252,0.525 0.503,0.497 0.276,-0.002 0.499,-0.227 0.497,-0.503 l -0.001,-0.498 c 0,-0.276 -0.224,-0.5 -0.5,-0.5 m -0.008,-2.506 c -0.276,0 -0.5,0.223 -0.5,0.5 l 10e-4,0.503 c 0.002,0.275 0.226,0.497 0.5,0.497 h 0.003 c 0.276,-0.001 0.499,-0.226 0.497,-0.503 l -0.001,-0.497 c 0,-0.277 -0.224,-0.5 -0.5,-0.5 m -0.007,-2.507 c -0.276,0 -0.5,0.224 -0.5,0.5 l 10e-4,0.503 c 0.001,0.275 0.226,0.497 0.5,0.497 h 0.003 c 0.277,-0.001 0.498,-0.226 0.497,-0.502 l -10e-4,-0.498 c 0,-0.276 -0.223,-0.5 -0.5,-0.5"
       style="display:inline;fill:#000000;fill-opacity:1;fill-rule:nonzero;stroke:none"
       transform="matrix(1.3333333,0,0,-1.3333333,257.9596,191.58267)"
       clip-path="url(#clipPath704)" /><path
       id="path705"
       d="M 0,0 C -0.276,0 -0.5,0.224 -0.5,0.5 V 1 C -0.5,1.276 -0.276,1.5 0,1.5 0.276,1.5 0.5,1.276 0.5,1 V 0.5 C 0.5,0.224 0.276,0 0,0 m 0,-2.5 c -0.276,0 -0.5,0.224 -0.5,0.5 v 0.5 c 0,0.276 0.224,0.5 0.5,0.5 0.276,0 0.5,-0.224 0.5,-0.5 V -2 C 0.5,-2.276 0.276,-2.5 0,-2.5 M 0,-5 c -0.276,0 -0.5,0.224 -0.5,0.5 V -4 c 0,0.276 0.224,0.5 0.5,0.5 0.276,0 0.5,-0.224 0.5,-0.5 V -4.5 C 0.5,-4.776 0.276,-5 0,-5 m 0,-2.5 c -0.276,0 -0.5,0.224 -0.5,0.5 v 0.5 c 0,0.276 0.224,0.5 0.5,0.5 0.276,0 0.5,-0.224 0.5,-0.5 V -7 C 0.5,-7.276 0.276,-7.5 0,-7.5 M 0,-10 c -0.276,0 -0.5,0.224 -0.5,0.5 V -9 c 0,0.276 0.224,0.5 0.5,0.5 0.276,0 0.5,-0.224 0.5,-0.5 V -9.5 C 0.5,-9.776 0.276,-10 0,-10 m 0,-2.5 c -0.276,0 -0.5,0.224 -0.5,0.5 v 0.5 c 0,0.276 0.224,0.5 0.5,0.5 0.276,0 0.5,-0.224 0.5,-0.5 V -12 c 0,-0.276 -0.224,-0.5 -0.5,-0.5 M 0,-15 c -0.276,0 -0.5,0.224 -0.5,0.5 v 0.5 c 0,0.276 0.224,0.5 0.5,0.5 0.276,0 0.5,-0.224 0.5,-0.5 v -0.5 C 0.5,-14.776 0.276,-15 0,-15 m 0,-2.5 c -0.276,0 -0.5,0.224 -0.5,0.5 v 0.5 c 0,0.276 0.224,0.5 0.5,0.5 0.276,0 0.5,-0.224 0.5,-0.5 V -17 c 0,-0.276 -0.224,-0.5 -0.5,-0.5 M 0,-20 c -0.276,0 -0.5,0.224 -0.5,0.5 v 0.5 c 0,0.276 0.224,0.5 0.5,0.5 0.276,0 0.5,-0.224 0.5,-0.5 v -0.5 C 0.5,-19.776 0.276,-20 0,-20"
       style="display:inline;fill:#000000;fill-opacity:1;fill-rule:nonzero;stroke:none"
       transform="matrix(1.3333333,0,0,-1.3333333,172.53773,255.87107)"
       clip-path="url(#clipPath706)" /><path
       id="path715"
       d="m 0,0 c -0.267,0 -0.488,0.21 -0.5,0.479 l -0.017,0.509 c -0.005,0.276 0.212,0.505 0.489,0.512 h 0.011 c 0.271,0 0.494,-0.217 0.5,-0.489 L 0.5,0.521 C 0.511,0.245 0.297,0.012 0.021,0 0.014,0 0.007,0 0,0 m 0.197,-2.49 c -0.249,0 -0.466,0.187 -0.495,0.441 l -0.056,0.506 c -0.028,0.275 0.173,0.52 0.448,0.547 0.278,0.021 0.519,-0.173 0.547,-0.447 L 0.694,-1.931 C 0.728,-2.205 0.531,-2.454 0.257,-2.486 0.237,-2.489 0.217,-2.49 0.197,-2.49 M 0.58,-4.958 c -0.234,0 -0.444,0.166 -0.49,0.405 l -0.092,0.498 c -0.049,0.272 0.133,0.532 0.404,0.58 0.271,0.051 0.532,-0.132 0.58,-0.404 l 0.09,-0.485 C 1.124,-4.636 0.946,-4.897 0.675,-4.95 0.644,-4.956 0.611,-4.958 0.58,-4.958 m 0.544,-2.439 c -0.224,0 -0.427,0.15 -0.484,0.376 l -0.122,0.492 c -0.065,0.269 0.1,0.539 0.369,0.603 0.276,0.064 0.538,-0.101 0.603,-0.369 L 1.608,-6.774 C 1.677,-7.042 1.515,-7.314 1.247,-7.382 1.206,-7.393 1.164,-7.397 1.124,-7.397 m 0.668,-2.409 c -0.215,0 -0.414,0.14 -0.479,0.356 l -0.142,0.484 c -0.078,0.265 0.074,0.543 0.34,0.62 0.26,0.077 0.542,-0.076 0.619,-0.34 L 2.271,-9.162 C 2.351,-9.426 2.2,-9.705 1.936,-9.785 1.888,-9.799 1.84,-9.806 1.792,-9.806 M 2.54,-12.19 c -0.211,0 -0.406,0.133 -0.476,0.344 l -0.154,0.477 c -0.085,0.263 0.059,0.545 0.321,0.63 0.26,0.085 0.546,-0.059 0.63,-0.321 l 0.155,-0.475 C 3.102,-11.797 2.958,-12.08 2.695,-12.166 2.644,-12.183 2.592,-12.19 2.54,-12.19 m 0.777,-2.374 c -0.21,0 -0.406,0.133 -0.474,0.344 l -0.155,0.473 c -0.087,0.263 0.056,0.545 0.318,0.631 0.262,0.087 0.545,-0.056 0.631,-0.319 l 0.155,-0.474 c 0.087,-0.262 -0.057,-0.545 -0.318,-0.631 -0.052,-0.017 -0.105,-0.024 -0.157,-0.024 m 0.755,-2.382 c -0.215,0 -0.414,0.14 -0.478,0.356 l -0.146,0.471 c -0.082,0.264 0.065,0.545 0.328,0.627 0.266,0.08 0.545,-0.064 0.627,-0.327 l 0.148,-0.483 c 0.08,-0.264 -0.071,-0.543 -0.335,-0.623 -0.048,-0.014 -0.096,-0.021 -0.144,-0.021 m 0.675,-2.406 c -0.224,0 -0.427,0.15 -0.484,0.377 l -0.125,0.478 c -0.072,0.267 0.088,0.541 0.354,0.612 0.271,0.073 0.541,-0.088 0.612,-0.354 l 0.127,-0.49 c 0.069,-0.268 -0.093,-0.54 -0.361,-0.608 -0.041,-0.01 -0.083,-0.015 -0.123,-0.015 m 0.536,-2.441 c -0.236,0 -0.446,0.168 -0.491,0.409 l -0.093,0.483 c -0.054,0.271 0.12,0.535 0.391,0.59 0.275,0.05 0.534,-0.12 0.59,-0.391 l 0.096,-0.501 c 0.05,-0.272 -0.13,-0.532 -0.401,-0.582 -0.031,-0.006 -0.062,-0.008 -0.092,-0.008"
       style="display:inline;fill:#000000;fill-opacity:1;fill-rule:nonzero;stroke:none"
       transform="matrix(1.3333333,0,0,-1.3333333,119.42453,329.53187)"
       clip-path="url(#clipPath716)" /><path
       id="path717"
       d="M 0,0 H -0.014 C -0.297,0.012 -0.511,0.245 -0.5,0.521 l 0.017,0.49 C -0.476,1.287 -0.228,1.489 0.027,1.5 0.305,1.493 0.522,1.264 0.517,0.988 L 0.5,0.479 C 0.488,0.21 0.267,0 0,0 m -0.197,-2.49 c -0.02,0 -0.04,0.001 -0.061,0.004 -0.273,0.032 -0.47,0.281 -0.436,0.555 l 0.053,0.488 c 0.028,0.274 0.286,0.469 0.547,0.447 0.275,-0.027 0.476,-0.272 0.448,-0.547 L 0.298,-2.049 C 0.269,-2.303 0.052,-2.49 -0.197,-2.49 M -0.58,-4.959 c -0.031,0 -0.064,0.003 -0.095,0.009 -0.271,0.052 -0.45,0.314 -0.397,0.585 l 0.09,0.485 c 0.047,0.272 0.311,0.455 0.58,0.404 0.271,-0.048 0.453,-0.308 0.404,-0.58 L -0.09,-4.553 c -0.046,-0.239 -0.256,-0.406 -0.49,-0.406 m -0.545,-2.439 c -0.039,0 -0.081,0.005 -0.122,0.016 -0.268,0.068 -0.43,0.34 -0.361,0.608 l 0.118,0.478 c 0.064,0.268 0.327,0.434 0.603,0.37 0.269,-0.065 0.434,-0.335 0.369,-0.603 L -0.64,-7.021 C -0.697,-7.248 -0.9,-7.398 -1.125,-7.398 m -0.668,-2.408 c -0.047,0 -0.095,0.007 -0.143,0.021 -0.264,0.079 -0.415,0.358 -0.335,0.623 l 0.14,0.475 c 0.078,0.265 0.359,0.418 0.62,0.34 0.266,-0.077 0.417,-0.355 0.341,-0.62 L -1.313,-9.45 c -0.065,-0.217 -0.264,-0.356 -0.48,-0.356 m -0.748,-2.385 c -0.051,0 -0.103,0.007 -0.154,0.024 -0.263,0.086 -0.407,0.369 -0.321,0.631 l 0.155,0.475 c 0.085,0.262 0.371,0.406 0.63,0.321 0.262,-0.085 0.406,-0.367 0.321,-0.63 l -0.154,-0.477 c -0.07,-0.211 -0.265,-0.344 -0.477,-0.344 m -0.775,-2.373 c -0.052,0 -0.105,0.007 -0.157,0.024 -0.261,0.086 -0.405,0.369 -0.318,0.631 l 0.155,0.474 c 0.085,0.263 0.37,0.406 0.631,0.319 0.262,-0.086 0.405,-0.368 0.318,-0.631 l -0.155,-0.473 c -0.068,-0.211 -0.264,-0.344 -0.474,-0.344 m -0.754,-2.382 c -0.048,0 -0.096,0.007 -0.144,0.021 -0.265,0.079 -0.415,0.358 -0.335,0.623 l 0.148,0.483 c 0.083,0.263 0.363,0.407 0.627,0.327 0.263,-0.083 0.41,-0.363 0.328,-0.627 l -0.146,-0.471 c -0.064,-0.217 -0.263,-0.356 -0.478,-0.356 m -0.674,-2.406 c -0.04,0 -0.082,0.005 -0.123,0.015 -0.268,0.068 -0.43,0.34 -0.362,0.608 l 0.127,0.49 c 0.072,0.266 0.344,0.426 0.613,0.354 0.266,-0.071 0.426,-0.345 0.354,-0.612 l -0.125,-0.478 c -0.057,-0.226 -0.261,-0.377 -0.484,-0.377 m -0.537,-2.442 c -0.031,0 -0.061,0.002 -0.092,0.008 -0.272,0.05 -0.451,0.311 -0.401,0.582 l 0.096,0.502 c 0.056,0.271 0.313,0.44 0.59,0.39 0.271,-0.055 0.445,-0.318 0.391,-0.589 l -0.093,-0.483 c -0.045,-0.241 -0.255,-0.41 -0.491,-0.41"
       style="display:inline;fill:#000000;fill-opacity:1;fill-rule:nonzero;stroke:none"
       transform="matrix(1.3333333,0,0,-1.3333333,226.30467,329.5312)"
       clip-path="url(#clipPath718)" /><rect
       style="display:inline;fill:#ffffff;fill-opacity:1;stroke-width:13.7233;filter:url(#filter4776)"
       id="rect874-6"
       width="345.06802"
       height="1.9299999"
       x="0.0094158547"
       y="29.944544" /><rect
       style="display:inline;fill:#ffffff;fill-opacity:1;stroke-width:13.7233;filter:url(#filter4774)"
       id="rect874"
       width="345.06802"
       height="1.9299999"
       x="0.0055985376"
       y="454.60028" /></g></svg>
